<svg xmlns="http://www.w3.org/2000/svg" width="800" height="250">
        <path d="M189,54L190,55 M190,54L191,55 M191,54L192,55 M192,54L193,55 M193,54L194,55 M194,54L195,55 M195,54L196,55 M196,54L197,55 M197,54L198,55 M198,54L199,55 M199,54L200,55 M200,54L201,55 M201,54L202,55 M202,54L203,55 M203,54L204,55 M204,54L205,55 M205,54L206,55 M206,54L207,55 M207,54L208,55 M208,54L209,55 M209,54L210,55 M210,54L211,55 M211,54L212,55 M212,54L213,55 M213,54L214,55 M214,54L215,55 M215,54L216,55 M216,54L217,55 M217,54L218,55 M218,54L219,55 M219,54L220,55 M220,54L221,55 M221,54L222,55 M222,54L223,55 M223,54L224,55 M224,54L225,55 M225,54L226,55 M226,54L227,55 M227,54L228,55 M228,54L229,55 M229,54L230,55 M230,54L231,55 M231,54L232,55 M232,54L233,55 M233,54L234,55 M177,55L178,56 M178,55L179,56 M179,55L180,56 M180,55L181,56 M181,55L182,56 M182,55L183,56 M183,55L184,56 M184,55L185,56 M185,55L186,56 M186,55L187,56 M187,55L188,56 M188,55L189,56 M189,55L190,56 M190,55L191,56 M191,55L192,56 M192,55L193,56 M193,55L194,56 M194,55L195,56 M195,55L196,56 M196,55L197,56 M197,55L198,56 M198,55L199,56 M199,55L200,56 M200,55L201,56 M201,55L202,56 M202,55L203,56 M203,55L204,56 M204,55L205,56 M205,55L206,56 M206,55L207,56 M207,55L208,56 M208,55L209,56 M209,55L210,56 M210,55L211,56 M211,55L212,56 M212,55L213,56 M213,55L214,56 M214,55L215,56 M215,55L216,56 M216,55L217,56 M217,55L218,56 M218,55L219,56 M219,55L220,56 M220,55L221,56 M221,55L222,56 M222,55L223,56 M223,55L224,56 M224,55L225,56 M225,55L226,56 M226,55L227,56 M227,55L228,56 M228,55L229,56 M229,55L230,56 M230,55L231,56 M231,55L232,56 M232,55L233,56 M233,55L234,56 M234,55L235,56 M235,55L236,56 M236,55L237,56 M237,55L238,56 M238,55L239,56 M239,55L240,56 M240,55L241,56 M241,55L242,56 M242,55L243,56 M243,55L244,56 M244,55L245,56 M245,55L246,56 M169,56L170,57 M170,56L171,57 M171,56L172,57 M172,56L173,57 M173,56L174,57 M174,56L175,57 M175,56L176,57 M176,56L177,57 M177,56L178,57 M178,56L179,57 M179,56L180,57 M180,56L181,57 M181,56L182,57 M182,56L183,57 M183,56L184,57 M184,56L185,57 M185,56L186,57 M186,56L187,57 M187,56L188,57 M188,56L189,57 M234,56L235,57 M235,56L236,57 M236,56L237,57 M237,56L238,57 M238,56L239,57 M239,56L240,57 M240,56L241,57 M241,56L242,57 M242,56L243,57 M243,56L244,57 M244,56L245,57 M245,56L246,57 M246,56L247,57 M247,56L248,57 M248,56L249,57 M249,56L250,57 M250,56L251,57 M251,56L252,57 M252,56L253,57 M253,56L254,57 M254,56L255,57 M163,57L164,58 M164,57L165,58 M165,57L166,58 M166,57L167,58 M167,57L168,58 M168,57L169,58 M169,57L170,58 M170,57L171,58 M171,57L172,58 M172,57L173,58 M173,57L174,58 M174,57L175,58 M175,57L176,58 M176,57L177,58 M246,57L247,58 M247,57L248,58 M248,57L249,58 M249,57L250,58 M250,57L251,58 M251,57L252,58 M252,57L253,58 M253,57L254,58 M254,57L255,58 M255,57L256,58 M256,57L257,58 M257,57L258,58 M258,57L259,58 M259,57L260,58 M260,57L261,58 M261,57L262,58 M262,57L263,58 M157,58L158,59 M158,58L159,59 M159,58L160,59 M160,58L161,59 M161,58L162,59 M162,58L163,59 M163,58L164,59 M164,58L165,59 M165,58L166,59 M166,58L167,59 M167,58L168,59 M168,58L169,59 M255,58L256,59 M256,58L257,59 M257,58L258,59 M258,58L259,59 M259,58L260,59 M260,58L261,59 M261,58L262,59 M262,58L263,59 M263,58L264,59 M264,58L265,59 M265,58L266,59 M266,58L267,59 M267,58L268,59 M268,58L269,59 M269,58L270,59 M270,58L271,59 M271,58L272,59 M150,59L151,60 M151,59L152,60 M152,59L153,60 M153,59L154,60 M154,59L155,60 M155,59L156,60 M156,59L157,60 M157,59L158,60 M158,59L159,60 M159,59L160,60 M160,59L161,60 M161,59L162,60 M162,59L163,60 M263,59L264,60 M264,59L265,60 M265,59L266,60 M266,59L267,60 M267,59L268,60 M268,59L269,60 M269,59L270,60 M270,59L271,60 M271,59L272,60 M272,59L273,60 M273,59L274,60 M274,59L275,60 M275,59L276,60 M145,60L146,61 M146,60L147,61 M147,60L148,61 M148,60L149,61 M149,60L150,61 M150,60L151,61 M151,60L152,61 M152,60L153,61 M153,60L154,61 M154,60L155,61 M155,60L156,61 M156,60L157,61 M271,60L272,61 M272,60L273,61 M273,60L274,61 M274,60L275,61 M275,60L276,61 M276,60L277,61 M277,60L278,61 M278,60L279,61 M141,61L142,62 M142,61L143,62 M143,61L144,62 M144,61L145,62 M145,61L146,62 M146,61L147,62 M147,61L148,62 M148,61L149,62 M149,61L150,62 M150,61L151,62 M276,61L277,62 M277,61L278,62 M278,61L279,62 M279,61L280,62 M280,61L281,62 M281,61L282,62 M282,61L283,62 M136,62L137,63 M137,62L138,63 M138,62L139,63 M139,62L140,63 M140,62L141,63 M141,62L142,63 M142,62L143,63 M143,62L144,63 M144,62L145,63 M145,62L146,63 M279,62L280,63 M280,62L281,63 M281,62L282,63 M282,62L283,63 M283,62L284,63 M284,62L285,63 M285,62L286,63 M131,63L132,64 M132,63L133,64 M133,63L134,64 M134,63L135,64 M135,63L136,64 M136,63L137,64 M137,63L138,64 M138,63L139,64 M139,63L140,64 M140,63L141,64 M283,63L284,64 M284,63L285,64 M285,63L286,64 M286,63L287,64 M287,63L288,64 M288,63L289,64 M289,63L290,64 M127,64L128,65 M128,64L129,65 M129,64L130,65 M130,64L131,65 M131,64L132,65 M132,64L133,65 M133,64L134,65 M134,64L135,65 M135,64L136,65 M286,64L287,65 M287,64L288,65 M288,64L289,65 M289,64L290,65 M290,64L291,65 M291,64L292,65 M292,64L293,65 M124,65L125,66 M125,65L126,66 M126,65L127,66 M127,65L128,66 M128,65L129,66 M129,65L130,66 M130,65L131,66 M289,65L290,66 M290,65L291,66 M291,65L292,66 M292,65L293,66 M293,65L294,66 M294,65L295,66 M295,65L296,66 M121,66L122,67 M122,66L123,67 M123,66L124,67 M124,66L125,67 M125,66L126,67 M126,66L127,67 M127,66L128,67 M293,66L294,67 M294,66L295,67 M295,66L296,67 M296,66L297,67 M297,66L298,67 M298,66L299,67 M117,67L118,68 M118,67L119,68 M119,67L120,68 M120,67L121,68 M121,67L122,68 M122,67L123,68 M123,67L124,68 M296,67L297,68 M297,67L298,68 M298,67L299,68 M299,67L300,68 M300,67L301,68 M301,67L302,68 M114,68L115,69 M115,68L116,69 M116,68L117,69 M117,68L118,69 M118,68L119,69 M119,68L120,69 M120,68L121,69 M299,68L300,69 M300,68L301,69 M301,68L302,69 M302,68L303,69 M303,68L304,69 M304,68L305,69 M112,69L113,70 M113,69L114,70 M114,69L115,70 M115,69L116,70 M116,69L117,70 M117,69L118,70 M302,69L303,70 M303,69L304,70 M304,69L305,70 M305,69L306,70 M306,69L307,70 M307,69L308,70 M110,70L111,71 M111,70L112,71 M112,70L113,71 M113,70L114,71 M305,70L306,71 M306,70L307,71 M307,70L308,71 M308,70L309,71 M309,70L310,71 M310,70L311,71 M108,71L109,72 M109,71L110,72 M110,71L111,72 M111,71L112,72 M308,71L309,72 M309,71L310,72 M310,71L311,72 M311,71L312,72 M312,71L313,72 M313,71L314,72 M314,71L315,72 M106,72L107,73 M107,72L108,73 M108,72L109,73 M109,72L110,73 M311,72L312,73 M312,72L313,73 M313,72L314,73 M314,72L315,73 M315,72L316,73 M316,72L317,73 M104,73L105,74 M105,73L106,74 M106,73L107,74 M107,73L108,74 M314,73L315,74 M315,73L316,74 M316,73L317,74 M317,73L318,74 M102,74L103,75 M103,74L104,75 M104,74L105,75 M105,74L106,75 M316,74L317,75 M317,74L318,75 M318,74L319,75 M319,74L320,75 M100,75L101,76 M101,75L102,76 M102,75L103,76 M103,75L104,76 M318,75L319,76 M319,75L320,76 M320,75L321,76 M99,76L100,77 M100,76L101,77 M101,76L102,77 M319,76L320,77 M320,76L321,77 M321,76L322,77 M322,76L323,77 M97,77L98,78 M98,77L99,78 M99,77L100,78 M100,77L101,78 M321,77L322,78 M322,77L323,78 M323,77L324,78 M96,78L97,79 M97,78L98,79 M98,78L99,79 M322,78L323,79 M323,78L324,79 M324,78L325,79 M325,78L326,79 M95,79L96,80 M96,79L97,80 M97,79L98,80 M324,79L325,80 M325,79L326,80 M326,79L327,80 M93,80L94,81 M94,80L95,81 M95,80L96,81 M96,80L97,81 M325,80L326,81 M326,80L327,81 M327,80L328,81 M328,80L329,81 M92,81L93,82 M93,81L94,82 M94,81L95,82 M327,81L328,82 M328,81L329,82 M329,81L330,82 M330,81L331,82 M91,82L92,83 M92,82L93,83 M93,82L94,83 M328,82L329,83 M329,82L330,83 M330,82L331,83 M331,82L332,83 M91,83L92,84 M92,83L93,84 M330,83L331,84 M331,83L332,84 M332,83L333,84 M90,84L91,85 M91,84L92,85 M242,84L243,85 M243,84L244,85 M244,84L245,85 M245,84L246,85 M246,84L247,85 M247,84L248,85 M248,84L249,85 M249,84L250,85 M250,84L251,85 M251,84L252,85 M252,84L253,85 M253,84L254,85 M254,84L255,85 M255,84L256,85 M256,84L257,85 M257,84L258,85 M258,84L259,85 M259,84L260,85 M260,84L261,85 M261,84L262,85 M262,84L263,85 M263,84L264,85 M264,84L265,85 M265,84L266,85 M266,84L267,85 M267,84L268,85 M268,84L269,85 M269,84L270,85 M270,84L271,85 M271,84L272,85 M272,84L273,85 M273,84L274,85 M274,84L275,85 M275,84L276,85 M276,84L277,85 M277,84L278,85 M278,84L279,85 M279,84L280,85 M280,84L281,85 M281,84L282,85 M282,84L283,85 M283,84L284,85 M284,84L285,85 M285,84L286,85 M286,84L287,85 M287,84L288,85 M288,84L289,85 M331,84L332,85 M332,84L333,85 M333,84L334,85 M334,84L335,85 M90,85L91,86 M91,85L92,86 M237,85L238,86 M238,85L239,86 M239,85L240,86 M240,85L241,86 M241,85L242,86 M242,85L243,86 M243,85L244,86 M244,85L245,86 M245,85L246,86 M246,85L247,86 M247,85L248,86 M248,85L249,86 M249,85L250,86 M250,85L251,86 M251,85L252,86 M252,85L253,86 M253,85L254,86 M254,85L255,86 M255,85L256,86 M256,85L257,86 M257,85L258,86 M258,85L259,86 M259,85L260,86 M260,85L261,86 M261,85L262,86 M262,85L263,86 M263,85L264,86 M264,85L265,86 M265,85L266,86 M266,85L267,86 M267,85L268,86 M268,85L269,86 M269,85L270,86 M270,85L271,86 M271,85L272,86 M272,85L273,86 M273,85L274,86 M274,85L275,86 M275,85L276,86 M276,85L277,86 M277,85L278,86 M278,85L279,86 M279,85L280,86 M280,85L281,86 M281,85L282,86 M282,85L283,86 M283,85L284,86 M284,85L285,86 M285,85L286,86 M286,85L287,86 M287,85L288,86 M288,85L289,86 M289,85L290,86 M290,85L291,86 M291,85L292,86 M292,85L293,86 M333,85L334,86 M334,85L335,86 M335,85L336,86 M90,86L91,87 M91,86L92,87 M232,86L233,87 M233,86L234,87 M234,86L235,87 M235,86L236,87 M236,86L237,87 M237,86L238,87 M238,86L239,87 M239,86L240,87 M240,86L241,87 M241,86L242,87 M289,86L290,87 M290,86L291,87 M291,86L292,87 M292,86L293,87 M293,86L294,87 M294,86L295,87 M295,86L296,87 M334,86L335,87 M335,86L336,87 M336,86L337,87 M89,87L90,88 M90,87L91,88 M227,87L228,88 M228,87L229,88 M229,87L230,88 M230,87L231,88 M231,87L232,88 M232,87L233,88 M233,87L234,88 M234,87L235,88 M235,87L236,88 M236,87L237,88 M293,87L294,88 M294,87L295,88 M295,87L296,88 M296,87L297,88 M297,87L298,88 M335,87L336,88 M336,87L337,88 M337,87L338,88 M89,88L90,89 M90,88L91,89 M222,88L223,89 M223,88L224,89 M224,88L225,89 M225,88L226,89 M226,88L227,89 M227,88L228,89 M228,88L229,89 M229,88L230,89 M230,88L231,89 M231,88L232,89 M232,88L233,89 M295,88L296,89 M296,88L297,89 M297,88L298,89 M298,88L299,89 M337,88L338,89 M338,88L339,89 M339,88L340,89 M88,89L89,90 M89,89L90,90 M90,89L91,90 M217,89L218,90 M218,89L219,90 M219,89L220,90 M220,89L221,90 M221,89L222,90 M222,89L223,90 M223,89L224,90 M224,89L225,90 M225,89L226,90 M226,89L227,90 M227,89L228,90 M298,89L299,90 M299,89L300,90 M338,89L339,90 M339,89L340,90 M340,89L341,90 M89,90L90,91 M90,90L91,91 M212,90L213,91 M213,90L214,91 M214,90L215,91 M215,90L216,91 M216,90L217,91 M217,90L218,91 M218,90L219,91 M219,90L220,91 M220,90L221,91 M221,90L222,91 M298,90L299,91 M299,90L300,91 M339,90L340,91 M340,90L341,91 M341,90L342,91 M89,91L90,92 M90,91L91,92 M207,91L208,92 M208,91L209,92 M209,91L210,92 M210,91L211,92 M211,91L212,92 M212,91L213,92 M213,91L214,92 M214,91L215,92 M215,91L216,92 M216,91L217,92 M298,91L299,92 M299,91L300,92 M300,91L301,92 M340,91L341,92 M341,91L342,92 M342,91L343,92 M343,91L344,92 M89,92L90,93 M90,92L91,93 M203,92L204,93 M204,92L205,93 M205,92L206,93 M206,92L207,93 M207,92L208,93 M208,92L209,93 M209,92L210,93 M210,92L211,93 M211,92L212,93 M299,92L300,93 M300,92L301,93 M342,92L343,93 M343,92L344,93 M344,92L345,93 M89,93L90,94 M90,93L91,94 M199,93L200,94 M200,93L201,94 M201,93L202,94 M202,93L203,94 M203,93L204,94 M204,93L205,94 M205,93L206,94 M206,93L207,94 M207,93L208,94 M299,93L300,94 M300,93L301,94 M343,93L344,94 M344,93L345,94 M345,93L346,94 M89,94L90,95 M90,94L91,95 M195,94L196,95 M196,94L197,95 M197,94L198,95 M198,94L199,95 M199,94L200,95 M200,94L201,95 M201,94L202,95 M202,94L203,95 M300,94L301,95 M301,94L302,95 M344,94L345,95 M345,94L346,95 M346,94L347,95 M89,95L90,96 M90,95L91,96 M192,95L193,96 M193,95L194,96 M194,95L195,96 M195,95L196,96 M196,95L197,96 M197,95L198,96 M198,95L199,96 M300,95L301,96 M301,95L302,96 M345,95L346,96 M346,95L347,96 M347,95L348,96 M348,95L349,96 M90,96L91,97 M91,96L92,97 M189,96L190,97 M190,96L191,97 M191,96L192,97 M192,96L193,97 M193,96L194,97 M194,96L195,97 M300,96L301,97 M301,96L302,97 M347,96L348,97 M348,96L349,97 M349,96L350,97 M90,97L91,98 M91,97L92,98 M186,97L187,98 M187,97L188,98 M188,97L189,98 M189,97L190,98 M190,97L191,98 M191,97L192,98 M299,97L300,98 M300,97L301,98 M348,97L349,98 M349,97L350,98 M350,97L351,98 M90,98L91,99 M91,98L92,99 M183,98L184,99 M184,98L185,99 M185,98L186,99 M186,98L187,99 M187,98L188,99 M188,98L189,99 M298,98L299,99 M299,98L300,99 M300,98L301,99 M349,98L350,99 M350,98L351,99 M351,98L352,99 M90,99L91,100 M91,99L92,100 M180,99L181,100 M181,99L182,100 M182,99L183,100 M183,99L184,100 M184,99L185,100 M185,99L186,100 M297,99L298,100 M298,99L299,100 M299,99L300,100 M350,99L351,100 M351,99L352,100 M352,99L353,100 M90,100L91,101 M91,100L92,101 M177,100L178,101 M178,100L179,101 M179,100L180,101 M180,100L181,101 M181,100L182,101 M182,100L183,101 M297,100L298,101 M298,100L299,101 M351,100L352,101 M352,100L353,101 M353,100L354,101 M90,101L91,102 M91,101L92,102 M174,101L175,102 M175,101L176,102 M176,101L177,102 M177,101L178,102 M178,101L179,102 M179,101L180,102 M296,101L297,102 M297,101L298,102 M298,101L299,102 M353,101L354,102 M354,101L355,102 M91,102L92,103 M92,102L93,103 M172,102L173,103 M173,102L174,103 M174,102L175,103 M175,102L176,103 M176,102L177,103 M177,102L178,103 M295,102L296,103 M296,102L297,103 M297,102L298,103 M353,102L354,103 M354,102L355,103 M91,103L92,104 M92,103L93,104 M169,103L170,104 M170,103L171,104 M171,103L172,104 M172,103L173,104 M173,103L174,104 M174,103L175,104 M293,103L294,104 M294,103L295,104 M295,103L296,104 M296,103L297,104 M354,103L355,104 M355,103L356,104 M91,104L92,105 M92,104L93,105 M167,104L168,105 M168,104L169,105 M169,104L170,105 M170,104L171,105 M171,104L172,105 M292,104L293,105 M293,104L294,105 M294,104L295,105 M354,104L355,105 M355,104L356,105 M356,104L357,105 M91,105L92,106 M92,105L93,106 M93,105L94,106 M167,105L168,106 M168,105L169,106 M291,105L292,106 M292,105L293,106 M293,105L294,106 M355,105L356,106 M356,105L357,106 M92,106L93,107 M93,106L94,107 M94,106L95,107 M290,106L291,107 M291,106L292,107 M292,106L293,107 M356,106L357,107 M357,106L358,107 M93,107L94,108 M94,107L95,108 M95,107L96,108 M288,107L289,108 M289,107L290,108 M290,107L291,108 M291,107L292,108 M356,107L357,108 M357,107L358,108 M94,108L95,109 M95,108L96,109 M96,108L97,109 M287,108L288,109 M288,108L289,109 M289,108L290,109 M290,108L291,109 M357,108L358,109 M358,108L359,109 M95,109L96,110 M96,109L97,110 M97,109L98,110 M285,109L286,110 M286,109L287,110 M287,109L288,110 M288,109L289,110 M357,109L358,110 M358,109L359,110 M359,109L360,110 M96,110L97,111 M97,110L98,111 M98,110L99,111 M284,110L285,111 M285,110L286,111 M286,110L287,111 M358,110L359,111 M359,110L360,111 M97,111L98,112 M98,111L99,112 M99,111L100,112 M282,111L283,112 M283,111L284,112 M284,111L285,112 M285,111L286,112 M358,111L359,112 M359,111L360,112 M360,111L361,112 M98,112L99,113 M99,112L100,113 M100,112L101,113 M101,112L102,113 M280,112L281,113 M281,112L282,113 M282,112L283,113 M283,112L284,113 M359,112L360,113 M360,112L361,113 M100,113L101,114 M101,113L102,114 M102,113L103,114 M279,113L280,114 M280,113L281,114 M281,113L282,114 M282,113L283,114 M360,113L361,114 M361,113L362,114 M101,114L102,115 M102,114L103,115 M103,114L104,115 M277,114L278,115 M278,114L279,115 M279,114L280,115 M280,114L281,115 M360,114L361,115 M361,114L362,115 M362,114L363,115 M102,115L103,116 M103,115L104,116 M104,115L105,116 M276,115L277,116 M277,115L278,116 M278,115L279,116 M361,115L362,116 M362,115L363,116 M103,116L104,117 M104,116L105,117 M105,116L106,117 M274,116L275,117 M275,116L276,117 M276,116L277,117 M277,116L278,117 M361,116L362,117 M362,116L363,117 M363,116L364,117 M104,117L105,118 M105,117L106,118 M106,117L107,118 M107,117L108,118 M272,117L273,118 M273,117L274,118 M274,117L275,118 M275,117L276,118 M362,117L363,118 M363,117L364,118 M106,118L107,119 M107,118L108,119 M108,118L109,119 M271,118L272,119 M272,118L273,119 M273,118L274,119 M362,118L363,119 M363,118L364,119 M107,119L108,120 M108,119L109,120 M109,119L110,120 M269,119L270,120 M270,119L271,120 M271,119L272,120 M272,119L273,120 M362,119L363,120 M363,119L364,120 M108,120L109,121 M109,120L110,121 M110,120L111,121 M111,120L112,121 M267,120L268,121 M268,120L269,121 M269,120L270,121 M270,120L271,121 M362,120L363,121 M363,120L364,121 M110,121L111,122 M111,121L112,122 M112,121L113,122 M265,121L266,122 M266,121L267,122 M267,121L268,122 M268,121L269,122 M269,121L270,122 M362,121L363,122 M363,121L364,122 M111,122L112,123 M112,122L113,123 M113,122L114,123 M114,122L115,123 M263,122L264,123 M264,122L265,123 M265,122L266,123 M266,122L267,123 M267,122L268,123 M361,122L362,123 M362,122L363,123 M363,122L364,123 M113,123L114,124 M114,123L115,124 M115,123L116,124 M261,123L262,124 M262,123L263,124 M263,123L264,124 M264,123L265,124 M265,123L266,124 M361,123L362,124 M362,123L363,124 M114,124L115,125 M115,124L116,125 M116,124L117,125 M117,124L118,125 M259,124L260,125 M260,124L261,125 M261,124L262,125 M262,124L263,125 M263,124L264,125 M360,124L361,125 M361,124L362,125 M362,124L363,125 M116,125L117,126 M117,125L118,126 M118,125L119,126 M256,125L257,126 M257,125L258,126 M258,125L259,126 M259,125L260,126 M260,125L261,126 M360,125L361,126 M361,125L362,126 M117,126L118,127 M118,126L119,127 M119,126L120,127 M120,126L121,127 M254,126L255,127 M255,126L256,127 M256,126L257,127 M257,126L258,127 M258,126L259,127 M360,126L361,127 M361,126L362,127 M119,127L120,128 M120,127L121,128 M121,127L122,128 M122,127L123,128 M123,127L124,128 M252,127L253,128 M253,127L254,128 M254,127L255,128 M255,127L256,128 M256,127L257,128 M359,127L360,128 M360,127L361,128 M121,128L122,129 M122,128L123,129 M123,128L124,129 M124,128L125,129 M125,128L126,129 M249,128L250,129 M250,128L251,129 M251,128L252,129 M252,128L253,129 M253,128L254,129 M254,128L255,129 M359,128L360,129 M360,128L361,129 M124,129L125,130 M125,129L126,130 M126,129L127,130 M127,129L128,130 M128,129L129,130 M246,129L247,130 M247,129L248,130 M248,129L249,130 M249,129L250,130 M250,129L251,130 M251,129L252,130 M252,129L253,130 M358,129L359,130 M359,129L360,130 M126,130L127,131 M127,130L128,131 M128,130L129,131 M129,130L130,131 M130,130L131,131 M243,130L244,131 M244,130L245,131 M245,130L246,131 M246,130L247,131 M247,130L248,131 M248,130L249,131 M249,130L250,131 M358,130L359,131 M359,130L360,131 M129,131L130,132 M130,131L131,132 M131,131L132,132 M132,131L133,132 M133,131L134,132 M240,131L241,132 M241,131L242,132 M242,131L243,132 M243,131L244,132 M244,131L245,132 M245,131L246,132 M246,131L247,132 M357,131L358,132 M358,131L359,132 M359,131L360,132 M131,132L132,133 M132,132L133,133 M133,132L134,133 M134,132L135,133 M135,132L136,133 M237,132L238,133 M238,132L239,133 M239,132L240,133 M240,132L241,133 M241,132L242,133 M242,132L243,133 M243,132L244,133 M357,132L358,133 M358,132L359,133 M134,133L135,134 M135,133L136,134 M136,133L137,134 M137,133L138,134 M138,133L139,134 M234,133L235,134 M235,133L236,134 M236,133L237,134 M237,133L238,134 M238,133L239,134 M239,133L240,134 M240,133L241,134 M355,133L356,134 M356,133L357,134 M357,133L358,134 M358,133L359,134 M136,134L137,135 M137,134L138,135 M138,134L139,135 M139,134L140,135 M140,134L141,135 M229,134L230,135 M230,134L231,135 M231,134L232,135 M232,134L233,135 M233,134L234,135 M234,134L235,135 M235,134L236,135 M236,134L237,135 M237,134L238,135 M354,134L355,135 M355,134L356,135 M356,134L357,135 M139,135L140,136 M140,135L141,136 M141,135L142,136 M142,135L143,136 M143,135L144,136 M222,135L223,136 M223,135L224,136 M224,135L225,136 M225,135L226,136 M226,135L227,136 M227,135L228,136 M228,135L229,136 M229,135L230,136 M230,135L231,136 M231,135L232,136 M232,135L233,136 M233,135L234,136 M234,135L235,136 M353,135L354,136 M354,135L355,136 M355,135L356,136 M425,135L426,136 M426,135L427,136 M427,135L428,136 M428,135L429,136 M429,135L430,136 M430,135L431,136 M431,135L432,136 M432,135L433,136 M433,135L434,136 M434,135L435,136 M435,135L436,136 M436,135L437,136 M437,135L438,136 M438,135L439,136 M439,135L440,136 M440,135L441,136 M441,135L442,136 M442,135L443,136 M443,135L444,136 M444,135L445,136 M445,135L446,136 M446,135L447,136 M447,135L448,136 M448,135L449,136 M449,135L450,136 M450,135L451,136 M451,135L452,136 M452,135L453,136 M453,135L454,136 M454,135L455,136 M455,135L456,136 M456,135L457,136 M457,135L458,136 M458,135L459,136 M459,135L460,136 M460,135L461,136 M461,135L462,136 M462,135L463,136 M463,135L464,136 M464,135L465,136 M465,135L466,136 M466,135L467,136 M467,135L468,136 M468,135L469,136 M469,135L470,136 M470,135L471,136 M471,135L472,136 M472,135L473,136 M473,135L474,136 M474,135L475,136 M475,135L476,136 M476,135L477,136 M477,135L478,136 M478,135L479,136 M479,135L480,136 M480,135L481,136 M481,135L482,136 M482,135L483,136 M483,135L484,136 M484,135L485,136 M485,135L486,136 M486,135L487,136 M487,135L488,136 M488,135L489,136 M489,135L490,136 M490,135L491,136 M491,135L492,136 M492,135L493,136 M493,135L494,136 M494,135L495,136 M495,135L496,136 M496,135L497,136 M497,135L498,136 M498,135L499,136 M499,135L500,136 M500,135L501,136 M501,135L502,136 M502,135L503,136 M503,135L504,136 M504,135L505,136 M505,135L506,136 M506,135L507,136 M507,135L508,136 M508,135L509,136 M509,135L510,136 M510,135L511,136 M511,135L512,136 M512,135L513,136 M513,135L514,136 M514,135L515,136 M515,135L516,136 M516,135L517,136 M517,135L518,136 M518,135L519,136 M519,135L520,136 M520,135L521,136 M521,135L522,136 M522,135L523,136 M523,135L524,136 M524,135L525,136 M525,135L526,136 M526,135L527,136 M527,135L528,136 M528,135L529,136 M529,135L530,136 M530,135L531,136 M531,135L532,136 M532,135L533,136 M533,135L534,136 M534,135L535,136 M535,135L536,136 M536,135L537,136 M537,135L538,136 M538,135L539,136 M539,135L540,136 M540,135L541,136 M541,135L542,136 M542,135L543,136 M543,135L544,136 M544,135L545,136 M545,135L546,136 M546,135L547,136 M547,135L548,136 M548,135L549,136 M549,135L550,136 M550,135L551,136 M551,135L552,136 M552,135L553,136 M553,135L554,136 M554,135L555,136 M555,135L556,136 M556,135L557,136 M557,135L558,136 M558,135L559,136 M559,135L560,136 M560,135L561,136 M561,135L562,136 M562,135L563,136 M563,135L564,136 M564,135L565,136 M565,135L566,136 M566,135L567,136 M567,135L568,136 M568,135L569,136 M569,135L570,136 M570,135L571,136 M571,135L572,136 M572,135L573,136 M573,135L574,136 M574,135L575,136 M575,135L576,136 M576,135L577,136 M577,135L578,136 M578,135L579,136 M579,135L580,136 M580,135L581,136 M581,135L582,136 M582,135L583,136 M583,135L584,136 M584,135L585,136 M585,135L586,136 M586,135L587,136 M587,135L588,136 M588,135L589,136 M589,135L590,136 M590,135L591,136 M591,135L592,136 M592,135L593,136 M593,135L594,136 M594,135L595,136 M595,135L596,136 M596,135L597,136 M597,135L598,136 M598,135L599,136 M599,135L600,136 M600,135L601,136 M601,135L602,136 M602,135L603,136 M603,135L604,136 M604,135L605,136 M605,135L606,136 M606,135L607,136 M607,135L608,136 M608,135L609,136 M609,135L610,136 M610,135L611,136 M611,135L612,136 M612,135L613,136 M613,135L614,136 M614,135L615,136 M615,135L616,136 M616,135L617,136 M617,135L618,136 M618,135L619,136 M619,135L620,136 M620,135L621,136 M621,135L622,136 M622,135L623,136 M623,135L624,136 M624,135L625,136 M625,135L626,136 M626,135L627,136 M627,135L628,136 M628,135L629,136 M629,135L630,136 M630,135L631,136 M631,135L632,136 M632,135L633,136 M633,135L634,136 M634,135L635,136 M635,135L636,136 M636,135L637,136 M637,135L638,136 M638,135L639,136 M639,135L640,136 M640,135L641,136 M641,135L642,136 M642,135L643,136 M643,135L644,136 M644,135L645,136 M645,135L646,136 M646,135L647,136 M647,135L648,136 M648,135L649,136 M649,135L650,136 M650,135L651,136 M651,135L652,136 M652,135L653,136 M653,135L654,136 M654,135L655,136 M655,135L656,136 M656,135L657,136 M657,135L658,136 M658,135L659,136 M659,135L660,136 M660,135L661,136 M661,135L662,136 M662,135L663,136 M663,135L664,136 M664,135L665,136 M665,135L666,136 M666,135L667,136 M667,135L668,136 M668,135L669,136 M669,135L670,136 M670,135L671,136 M671,135L672,136 M672,135L673,136 M673,135L674,136 M674,135L675,136 M675,135L676,136 M676,135L677,136 M677,135L678,136 M678,135L679,136 M679,135L680,136 M680,135L681,136 M681,135L682,136 M682,135L683,136 M683,135L684,136 M684,135L685,136 M685,135L686,136 M686,135L687,136 M687,135L688,136 M688,135L689,136 M689,135L690,136 M690,135L691,136 M691,135L692,136 M692,135L693,136 M693,135L694,136 M694,135L695,136 M695,135L696,136 M696,135L697,136 M697,135L698,136 M698,135L699,136 M699,135L700,136 M700,135L701,136 M701,135L702,136 M702,135L703,136 M703,135L704,136 M704,135L705,136 M705,135L706,136 M706,135L707,136 M707,135L708,136 M708,135L709,136 M709,135L710,136 M710,135L711,136 M711,135L712,136 M712,135L713,136 M713,135L714,136 M714,135L715,136 M715,135L716,136 M716,135L717,136 M717,135L718,136 M718,135L719,136 M719,135L720,136 M720,135L721,136 M721,135L722,136 M722,135L723,136 M723,135L724,136 M724,135L725,136 M725,135L726,136 M726,135L727,136 M727,135L728,136 M728,135L729,136 M729,135L730,136 M730,135L731,136 M731,135L732,136 M732,135L733,136 M733,135L734,136 M734,135L735,136 M141,136L142,137 M142,136L143,137 M143,136L144,137 M144,136L145,137 M145,136L146,137 M216,136L217,137 M217,136L218,137 M218,136L219,137 M219,136L220,137 M220,136L221,137 M221,136L222,137 M222,136L223,137 M223,136L224,137 M224,136L225,137 M225,136L226,137 M226,136L227,137 M227,136L228,137 M228,136L229,137 M352,136L353,137 M353,136L354,137 M354,136L355,137 M401,136L402,137 M402,136L403,137 M403,136L404,137 M404,136L405,137 M405,136L406,137 M406,136L407,137 M407,136L408,137 M408,136L409,137 M409,136L410,137 M410,136L411,137 M411,136L412,137 M412,136L413,137 M413,136L414,137 M414,136L415,137 M415,136L416,137 M416,136L417,137 M417,136L418,137 M418,136L419,137 M419,136L420,137 M420,136L421,137 M421,136L422,137 M422,136L423,137 M423,136L424,137 M424,136L425,137 M425,136L426,137 M426,136L427,137 M427,136L428,137 M428,136L429,137 M429,136L430,137 M430,136L431,137 M431,136L432,137 M432,136L433,137 M433,136L434,137 M434,136L435,137 M435,136L436,137 M436,136L437,137 M437,136L438,137 M438,136L439,137 M439,136L440,137 M440,136L441,137 M441,136L442,137 M442,136L443,137 M443,136L444,137 M444,136L445,137 M445,136L446,137 M446,136L447,137 M447,136L448,137 M448,136L449,137 M449,136L450,137 M450,136L451,137 M451,136L452,137 M452,136L453,137 M453,136L454,137 M454,136L455,137 M455,136L456,137 M456,136L457,137 M457,136L458,137 M458,136L459,137 M459,136L460,137 M460,136L461,137 M461,136L462,137 M462,136L463,137 M463,136L464,137 M464,136L465,137 M465,136L466,137 M466,136L467,137 M467,136L468,137 M468,136L469,137 M469,136L470,137 M470,136L471,137 M471,136L472,137 M472,136L473,137 M473,136L474,137 M474,136L475,137 M475,136L476,137 M476,136L477,137 M477,136L478,137 M478,136L479,137 M479,136L480,137 M480,136L481,137 M481,136L482,137 M482,136L483,137 M483,136L484,137 M484,136L485,137 M485,136L486,137 M486,136L487,137 M487,136L488,137 M488,136L489,137 M489,136L490,137 M490,136L491,137 M491,136L492,137 M492,136L493,137 M493,136L494,137 M494,136L495,137 M495,136L496,137 M496,136L497,137 M497,136L498,137 M498,136L499,137 M499,136L500,137 M500,136L501,137 M501,136L502,137 M502,136L503,137 M503,136L504,137 M504,136L505,137 M505,136L506,137 M506,136L507,137 M507,136L508,137 M508,136L509,137 M509,136L510,137 M510,136L511,137 M511,136L512,137 M512,136L513,137 M513,136L514,137 M514,136L515,137 M515,136L516,137 M516,136L517,137 M517,136L518,137 M518,136L519,137 M519,136L520,137 M520,136L521,137 M521,136L522,137 M522,136L523,137 M523,136L524,137 M524,136L525,137 M525,136L526,137 M526,136L527,137 M527,136L528,137 M528,136L529,137 M529,136L530,137 M530,136L531,137 M531,136L532,137 M532,136L533,137 M533,136L534,137 M534,136L535,137 M535,136L536,137 M536,136L537,137 M537,136L538,137 M538,136L539,137 M539,136L540,137 M540,136L541,137 M541,136L542,137 M542,136L543,137 M543,136L544,137 M544,136L545,137 M545,136L546,137 M546,136L547,137 M547,136L548,137 M548,136L549,137 M549,136L550,137 M550,136L551,137 M551,136L552,137 M552,136L553,137 M553,136L554,137 M554,136L555,137 M555,136L556,137 M556,136L557,137 M557,136L558,137 M558,136L559,137 M559,136L560,137 M560,136L561,137 M561,136L562,137 M562,136L563,137 M563,136L564,137 M564,136L565,137 M565,136L566,137 M566,136L567,137 M567,136L568,137 M568,136L569,137 M569,136L570,137 M570,136L571,137 M571,136L572,137 M572,136L573,137 M573,136L574,137 M574,136L575,137 M575,136L576,137 M576,136L577,137 M577,136L578,137 M578,136L579,137 M579,136L580,137 M580,136L581,137 M581,136L582,137 M582,136L583,137 M583,136L584,137 M584,136L585,137 M585,136L586,137 M586,136L587,137 M587,136L588,137 M588,136L589,137 M589,136L590,137 M590,136L591,137 M591,136L592,137 M592,136L593,137 M593,136L594,137 M594,136L595,137 M595,136L596,137 M596,136L597,137 M597,136L598,137 M598,136L599,137 M599,136L600,137 M600,136L601,137 M601,136L602,137 M602,136L603,137 M603,136L604,137 M604,136L605,137 M605,136L606,137 M606,136L607,137 M607,136L608,137 M608,136L609,137 M609,136L610,137 M610,136L611,137 M611,136L612,137 M612,136L613,137 M613,136L614,137 M614,136L615,137 M615,136L616,137 M616,136L617,137 M617,136L618,137 M618,136L619,137 M619,136L620,137 M620,136L621,137 M621,136L622,137 M622,136L623,137 M623,136L624,137 M624,136L625,137 M625,136L626,137 M626,136L627,137 M627,136L628,137 M628,136L629,137 M629,136L630,137 M630,136L631,137 M631,136L632,137 M632,136L633,137 M633,136L634,137 M634,136L635,137 M635,136L636,137 M636,136L637,137 M637,136L638,137 M638,136L639,137 M639,136L640,137 M640,136L641,137 M641,136L642,137 M642,136L643,137 M643,136L644,137 M644,136L645,137 M645,136L646,137 M646,136L647,137 M647,136L648,137 M648,136L649,137 M649,136L650,137 M650,136L651,137 M651,136L652,137 M652,136L653,137 M653,136L654,137 M654,136L655,137 M655,136L656,137 M656,136L657,137 M657,136L658,137 M658,136L659,137 M659,136L660,137 M660,136L661,137 M661,136L662,137 M662,136L663,137 M663,136L664,137 M664,136L665,137 M665,136L666,137 M666,136L667,137 M667,136L668,137 M668,136L669,137 M669,136L670,137 M670,136L671,137 M671,136L672,137 M672,136L673,137 M673,136L674,137 M674,136L675,137 M675,136L676,137 M676,136L677,137 M677,136L678,137 M678,136L679,137 M679,136L680,137 M680,136L681,137 M681,136L682,137 M682,136L683,137 M683,136L684,137 M684,136L685,137 M685,136L686,137 M686,136L687,137 M687,136L688,137 M688,136L689,137 M689,136L690,137 M690,136L691,137 M691,136L692,137 M692,136L693,137 M693,136L694,137 M694,136L695,137 M695,136L696,137 M696,136L697,137 M697,136L698,137 M698,136L699,137 M699,136L700,137 M700,136L701,137 M701,136L702,137 M702,136L703,137 M703,136L704,137 M704,136L705,137 M705,136L706,137 M706,136L707,137 M707,136L708,137 M708,136L709,137 M709,136L710,137 M710,136L711,137 M711,136L712,137 M712,136L713,137 M713,136L714,137 M714,136L715,137 M715,136L716,137 M716,136L717,137 M717,136L718,137 M718,136L719,137 M719,136L720,137 M720,136L721,137 M721,136L722,137 M722,136L723,137 M723,136L724,137 M724,136L725,137 M725,136L726,137 M726,136L727,137 M727,136L728,137 M728,136L729,137 M729,136L730,137 M730,136L731,137 M731,136L732,137 M732,136L733,137 M733,136L734,137 M734,136L735,137 M735,136L736,137 M736,136L737,137 M737,136L738,137 M738,136L739,137 M739,136L740,137 M740,136L741,137 M741,136L742,137 M742,136L743,137 M743,136L744,137 M744,136L745,137 M745,136L746,137 M746,136L747,137 M747,136L748,137 M748,136L749,137 M749,136L750,137 M750,136L751,137 M751,136L752,137 M752,136L753,137 M753,136L754,137 M754,136L755,137 M755,136L756,137 M756,136L757,137 M757,136L758,137 M758,136L759,137 M759,136L760,137 M760,136L761,137 M761,136L762,137 M762,136L763,137 M763,136L764,137 M764,136L765,137 M765,136L766,137 M766,136L767,137 M767,136L768,137 M768,136L769,137 M769,136L770,137 M770,136L771,137 M771,136L772,137 M772,136L773,137 M773,136L774,137 M774,136L775,137 M775,136L776,137 M776,136L777,137 M777,136L778,137 M778,136L779,137 M779,136L780,137 M780,136L781,137 M781,136L782,137 M782,136L783,137 M783,136L784,137 M784,136L785,137 M785,136L786,137 M786,136L787,137 M787,136L788,137 M788,136L789,137 M143,137L144,138 M144,137L145,138 M145,137L146,138 M146,137L147,138 M147,137L148,138 M148,137L149,138 M211,137L212,138 M212,137L213,138 M213,137L214,138 M214,137L215,138 M215,137L216,138 M216,137L217,138 M217,137L218,138 M218,137L219,138 M219,137L220,138 M220,137L221,138 M221,137L222,138 M222,137L223,138 M350,137L351,138 M351,137L352,138 M352,137L353,138 M353,137L354,138 M382,137L383,138 M383,137L384,138 M384,137L385,138 M385,137L386,138 M386,137L387,138 M387,137L388,138 M388,137L389,138 M389,137L390,138 M390,137L391,138 M391,137L392,138 M392,137L393,138 M393,137L394,138 M394,137L395,138 M395,137L396,138 M396,137L397,138 M397,137L398,138 M398,137L399,138 M399,137L400,138 M400,137L401,138 M401,137L402,138 M402,137L403,138 M403,137L404,138 M404,137L405,138 M405,137L406,138 M406,137L407,138 M407,137L408,138 M408,137L409,138 M409,137L410,138 M410,137L411,138 M411,137L412,138 M412,137L413,138 M413,137L414,138 M414,137L415,138 M415,137L416,138 M416,137L417,138 M417,137L418,138 M418,137L419,138 M419,137L420,138 M420,137L421,138 M421,137L422,138 M422,137L423,138 M423,137L424,138 M424,137L425,138 M735,137L736,138 M736,137L737,138 M737,137L738,138 M738,137L739,138 M739,137L740,138 M740,137L741,138 M741,137L742,138 M742,137L743,138 M743,137L744,138 M744,137L745,138 M745,137L746,138 M746,137L747,138 M747,137L748,138 M748,137L749,138 M749,137L750,138 M750,137L751,138 M751,137L752,138 M752,137L753,138 M753,137L754,138 M754,137L755,138 M755,137L756,138 M756,137L757,138 M757,137L758,138 M758,137L759,138 M759,137L760,138 M760,137L761,138 M761,137L762,138 M762,137L763,138 M763,137L764,138 M764,137L765,138 M765,137L766,138 M766,137L767,138 M767,137L768,138 M768,137L769,138 M769,137L770,138 M770,137L771,138 M771,137L772,138 M772,137L773,138 M773,137L774,138 M774,137L775,138 M775,137L776,138 M776,137L777,138 M777,137L778,138 M778,137L779,138 M779,137L780,138 M780,137L781,138 M781,137L782,138 M782,137L783,138 M783,137L784,138 M784,137L785,138 M785,137L786,138 M786,137L787,138 M787,137L788,138 M788,137L789,138 M146,138L147,139 M147,138L148,139 M148,138L149,139 M149,138L150,139 M150,138L151,139 M151,138L152,139 M152,138L153,139 M153,138L154,139 M207,138L208,139 M208,138L209,139 M209,138L210,139 M210,138L211,139 M211,138L212,139 M212,138L213,139 M213,138L214,139 M214,138L215,139 M215,138L216,139 M348,138L349,139 M349,138L350,139 M350,138L351,139 M351,138L352,139 M371,138L372,139 M372,138L373,139 M373,138L374,139 M374,138L375,139 M375,138L376,139 M376,138L377,139 M377,138L378,139 M378,138L379,139 M379,138L380,139 M380,138L381,139 M381,138L382,139 M382,138L383,139 M383,138L384,139 M384,138L385,139 M385,138L386,139 M386,138L387,139 M387,138L388,139 M388,138L389,139 M389,138L390,139 M390,138L391,139 M391,138L392,139 M392,138L393,139 M393,138L394,139 M394,138L395,139 M395,138L396,139 M396,138L397,139 M397,138L398,139 M398,138L399,139 M399,138L400,139 M400,138L401,139 M148,139L149,140 M149,139L150,140 M150,139L151,140 M151,139L152,140 M152,139L153,140 M153,139L154,140 M154,139L155,140 M155,139L156,140 M156,139L157,140 M157,139L158,140 M158,139L159,140 M203,139L204,140 M204,139L205,140 M205,139L206,140 M206,139L207,140 M207,139L208,140 M208,139L209,140 M209,139L210,140 M210,139L211,140 M211,139L212,140 M346,139L347,140 M347,139L348,140 M348,139L349,140 M349,139L350,140 M362,139L363,140 M363,139L364,140 M364,139L365,140 M365,139L366,140 M366,139L367,140 M367,139L368,140 M368,139L369,140 M369,139L370,140 M370,139L371,140 M371,139L372,140 M372,139L373,140 M373,139L374,140 M374,139L375,140 M375,139L376,140 M376,139L377,140 M377,139L378,140 M378,139L379,140 M379,139L380,140 M380,139L381,140 M381,139L382,140 M153,140L154,141 M154,140L155,141 M155,140L156,141 M156,140L157,141 M157,140L158,141 M158,140L159,141 M159,140L160,141 M160,140L161,141 M161,140L162,141 M162,140L163,141 M163,140L164,141 M164,140L165,141 M199,140L200,141 M200,140L201,141 M201,140L202,141 M202,140L203,141 M203,140L204,141 M204,140L205,141 M205,140L206,141 M206,140L207,141 M343,140L344,141 M344,140L345,141 M345,140L346,141 M346,140L347,141 M347,140L348,141 M353,140L354,141 M354,140L355,141 M355,140L356,141 M356,140L357,141 M357,140L358,141 M358,140L359,141 M359,140L360,141 M360,140L361,141 M361,140L362,141 M362,140L363,141 M363,140L364,141 M364,140L365,141 M365,140L366,141 M366,140L367,141 M367,140L368,141 M368,140L369,141 M369,140L370,141 M370,140L371,141 M159,141L160,142 M160,141L161,142 M161,141L162,142 M162,141L163,142 M163,141L164,142 M164,141L165,142 M165,141L166,142 M166,141L167,142 M167,141L168,142 M168,141L169,142 M169,141L170,142 M170,141L171,142 M171,141L172,142 M172,141L173,142 M173,141L174,142 M174,141L175,142 M175,141L176,142 M176,141L177,142 M177,141L178,142 M178,141L179,142 M179,141L180,142 M180,141L181,142 M181,141L182,142 M182,141L183,142 M183,141L184,142 M184,141L185,142 M185,141L186,142 M186,141L187,142 M187,141L188,142 M188,141L189,142 M189,141L190,142 M190,141L191,142 M191,141L192,142 M192,141L193,142 M193,141L194,142 M194,141L195,142 M195,141L196,142 M196,141L197,142 M197,141L198,142 M198,141L199,142 M199,141L200,142 M200,141L201,142 M201,141L202,142 M202,141L203,142 M338,141L339,142 M339,141L340,142 M340,141L341,142 M341,141L342,142 M342,141L343,142 M343,141L344,142 M344,141L345,142 M345,141L346,142 M346,141L347,142 M347,141L348,142 M348,141L349,142 M349,141L350,142 M350,141L351,142 M351,141L352,142 M352,141L353,142 M353,141L354,142 M354,141L355,142 M355,141L356,142 M356,141L357,142 M357,141L358,142 M358,141L359,142 M359,141L360,142 M360,141L361,142 M361,141L362,142 M165,142L166,143 M166,142L167,143 M167,142L168,143 M168,142L169,143 M169,142L170,143 M170,142L171,143 M171,142L172,143 M172,142L173,143 M173,142L174,143 M174,142L175,143 M175,142L176,143 M176,142L177,143 M177,142L178,143 M178,142L179,143 M179,142L180,143 M180,142L181,143 M181,142L182,143 M182,142L183,143 M183,142L184,143 M184,142L185,143 M185,142L186,143 M186,142L187,143 M187,142L188,143 M188,142L189,143 M189,142L190,143 M190,142L191,143 M191,142L192,143 M192,142L193,143 M193,142L194,143 M194,142L195,143 M195,142L196,143 M196,142L197,143 M197,142L198,143 M198,142L199,143 M335,142L336,143 M336,142L337,143 M337,142L338,143 M338,142L339,143 M339,142L340,143 M340,142L341,143 M341,142L342,143 M342,142L343,143 M343,142L344,143 M344,142L345,143 M345,142L346,143 M346,142L347,143 M347,142L348,143 M348,142L349,143 M349,142L350,143 M350,142L351,143 M351,142L352,143 M352,142L353,143 M327,143L328,144 M328,143L329,144 M329,143L330,144 M330,143L331,144 M331,143L332,144 M332,143L333,144 M333,143L334,144 M334,143L335,144 M335,143L336,144 M336,143L337,144 M337,143L338,144 M338,143L339,144 M339,143L340,144 M340,143L341,144 M341,143L342,144 M342,143L343,144 M343,143L344,144 M323,144L324,145 M324,144L325,145 M325,144L326,145 M326,144L327,145 M327,144L328,145 M328,144L329,145 M329,144L330,145 M330,144L331,145 M331,144L332,145 M332,144L333,145 M333,144L334,145 M334,144L335,145 M335,144L336,145 M323,145L324,146 M324,145L325,146 M325,145L326,146 M326,145L327,146 M327,145L328,146 M328,145L329,146 M329,145L330,146 M330,145L331,146" fill="none" stroke="black" />
    </svg>