<svg xmlns="http://www.w3.org/2000/svg" width="800" height="250">
        <path d="M427,70L428,71 M428,70L429,71 M429,70L430,71 M430,70L431,71 M431,70L432,71 M432,70L433,71 M433,70L434,71 M434,70L435,71 M435,70L436,71 M436,70L437,71 M437,70L438,71 M438,70L439,71 M439,70L440,71 M440,70L441,71 M441,70L442,71 M442,70L443,71 M443,70L444,71 M444,70L445,71 M445,70L446,71 M424,71L425,72 M425,71L426,72 M426,71L427,72 M427,71L428,72 M428,71L429,72 M429,71L430,72 M430,71L431,72 M431,71L432,72 M432,71L433,72 M433,71L434,72 M434,71L435,72 M435,71L436,72 M436,71L437,72 M437,71L438,72 M438,71L439,72 M439,71L440,72 M440,71L441,72 M441,71L442,72 M442,71L443,72 M443,71L444,72 M444,71L445,72 M445,71L446,72 M421,72L422,73 M422,72L423,73 M423,72L424,73 M424,72L425,73 M425,72L426,73 M426,72L427,73 M444,72L445,73 M445,72L446,73 M418,73L419,74 M419,73L420,74 M420,73L421,74 M421,73L422,74 M422,73L423,74 M423,73L424,74 M444,73L445,74 M445,73L446,74 M415,74L416,75 M416,74L417,75 M417,74L418,75 M418,74L419,75 M419,74L420,75 M420,74L421,75 M444,74L445,75 M445,74L446,75 M413,75L414,76 M414,75L415,76 M415,75L416,76 M416,75L417,76 M417,75L418,76 M444,75L445,76 M445,75L446,76 M410,76L411,77 M411,76L412,77 M412,76L413,77 M413,76L414,77 M414,76L415,77 M415,76L416,77 M443,76L444,77 M444,76L445,77 M445,76L446,77 M407,77L408,78 M408,77L409,78 M409,77L410,78 M410,77L411,78 M411,77L412,78 M412,77L413,78 M442,77L443,78 M443,77L444,78 M444,77L445,78 M405,78L406,79 M406,78L407,79 M407,78L408,79 M408,78L409,79 M409,78L410,79 M441,78L442,79 M442,78L443,79 M443,78L444,79 M402,79L403,80 M403,79L404,80 M404,79L405,80 M405,79L406,80 M406,79L407,80 M407,79L408,80 M439,79L440,80 M440,79L441,80 M441,79L442,80 M442,79L443,80 M400,80L401,81 M401,80L402,81 M402,80L403,81 M403,80L404,81 M404,80L405,81 M437,80L438,81 M438,80L439,81 M439,80L440,81 M440,80L441,81 M441,80L442,81 M397,81L398,82 M398,81L399,82 M399,81L400,82 M400,81L401,82 M401,81L402,82 M434,81L435,82 M435,81L436,82 M436,81L437,82 M437,81L438,82 M438,81L439,82 M439,81L440,82 M395,82L396,83 M396,82L397,83 M397,82L398,83 M398,82L399,83 M399,82L400,83 M432,82L433,83 M433,82L434,83 M434,82L435,83 M435,82L436,83 M436,82L437,83 M393,83L394,84 M394,83L395,84 M395,83L396,84 M396,83L397,84 M397,83L398,84 M429,83L430,84 M430,83L431,84 M431,83L432,84 M432,83L433,84 M433,83L434,84 M434,83L435,84 M391,84L392,85 M392,84L393,85 M393,84L394,85 M394,84L395,85 M395,84L396,85 M427,84L428,85 M428,84L429,85 M429,84L430,85 M430,84L431,85 M431,84L432,85 M388,85L389,86 M389,85L390,86 M390,85L391,86 M391,85L392,86 M392,85L393,86 M424,85L425,86 M425,85L426,86 M426,85L427,86 M427,85L428,86 M428,85L429,86 M429,85L430,86 M386,86L387,87 M387,86L388,87 M388,86L389,87 M389,86L390,87 M390,86L391,87 M422,86L423,87 M423,86L424,87 M424,86L425,87 M425,86L426,87 M426,86L427,87 M223,87L224,88 M384,87L385,88 M385,87L386,88 M386,87L387,88 M387,87L388,88 M388,87L389,88 M419,87L420,88 M420,87L421,88 M421,87L422,88 M422,87L423,88 M423,87L424,88 M424,87L425,88 M222,88L223,89 M223,88L224,89 M224,88L225,89 M382,88L383,89 M383,88L384,89 M384,88L385,89 M385,88L386,89 M386,88L387,89 M415,88L416,89 M416,88L417,89 M417,88L418,89 M418,88L419,89 M419,88L420,89 M420,88L421,89 M421,88L422,89 M223,89L224,90 M224,89L225,90 M225,89L226,90 M380,89L381,90 M381,89L382,90 M382,89L383,90 M383,89L384,90 M412,89L413,90 M413,89L414,90 M414,89L415,90 M415,89L416,90 M416,89L417,90 M417,89L418,90 M418,89L419,90 M224,90L225,91 M225,90L226,91 M226,90L227,91 M378,90L379,91 M379,90L380,91 M380,90L381,91 M381,90L382,91 M408,90L409,91 M409,90L410,91 M410,90L411,91 M411,90L412,91 M412,90L413,91 M413,90L414,91 M414,90L415,91 M225,91L226,92 M226,91L227,92 M375,91L376,92 M376,91L377,92 M377,91L378,92 M378,91L379,92 M379,91L380,92 M404,91L405,92 M405,91L406,92 M406,91L407,92 M407,91L408,92 M408,91L409,92 M409,91L410,92 M410,91L411,92 M411,91L412,92 M226,92L227,93 M227,92L228,93 M373,92L374,93 M374,92L375,93 M375,92L376,93 M376,92L377,93 M377,92L378,93 M401,92L402,93 M402,92L403,93 M403,92L404,93 M404,92L405,93 M405,92L406,93 M406,92L407,93 M407,92L408,93 M226,93L227,94 M227,93L228,94 M228,93L229,94 M371,93L372,94 M372,93L373,94 M373,93L374,94 M374,93L375,94 M375,93L376,94 M397,93L398,94 M398,93L399,94 M399,93L400,94 M400,93L401,94 M401,93L402,94 M402,93L403,94 M403,93L404,94 M404,93L405,94 M227,94L228,95 M228,94L229,95 M229,94L230,95 M230,94L231,95 M369,94L370,95 M370,94L371,95 M371,94L372,95 M372,94L373,95 M373,94L374,95 M393,94L394,95 M394,94L395,95 M395,94L396,95 M396,94L397,95 M397,94L398,95 M398,94L399,95 M399,94L400,95 M400,94L401,95 M228,95L229,96 M229,95L230,96 M230,95L231,96 M231,95L232,96 M232,95L233,96 M367,95L368,96 M368,95L369,96 M369,95L370,96 M370,95L371,96 M371,95L372,96 M390,95L391,96 M391,95L392,96 M392,95L393,96 M393,95L394,96 M394,95L395,96 M395,95L396,96 M396,95L397,96 M230,96L231,97 M231,96L232,97 M232,96L233,97 M233,96L234,97 M234,96L235,97 M365,96L366,97 M366,96L367,97 M367,96L368,97 M368,96L369,97 M369,96L370,97 M386,96L387,97 M387,96L388,97 M388,96L389,97 M389,96L390,97 M390,96L391,97 M391,96L392,97 M392,96L393,97 M393,96L394,97 M232,97L233,98 M233,97L234,98 M234,97L235,98 M235,97L236,98 M236,97L237,98 M237,97L238,98 M363,97L364,98 M364,97L365,98 M365,97L366,98 M366,97L367,98 M367,97L368,98 M382,97L383,98 M383,97L384,98 M384,97L385,98 M385,97L386,98 M386,97L387,98 M387,97L388,98 M388,97L389,98 M389,97L390,98 M235,98L236,99 M236,98L237,99 M237,98L238,99 M238,98L239,99 M239,98L240,99 M361,98L362,99 M362,98L363,99 M363,98L364,99 M364,98L365,99 M378,98L379,99 M379,98L380,99 M380,98L381,99 M381,98L382,99 M382,98L383,99 M383,98L384,99 M384,98L385,99 M385,98L386,99 M237,99L238,100 M238,99L239,100 M239,99L240,100 M240,99L241,100 M241,99L242,100 M359,99L360,100 M360,99L361,100 M361,99L362,100 M362,99L363,100 M372,99L373,100 M373,99L374,100 M374,99L375,100 M375,99L376,100 M376,99L377,100 M377,99L378,100 M378,99L379,100 M379,99L380,100 M380,99L381,100 M381,99L382,100 M382,99L383,100 M239,100L240,101 M240,100L241,101 M241,100L242,101 M242,100L243,101 M243,100L244,101 M244,100L245,101 M357,100L358,101 M358,100L359,101 M359,100L360,101 M360,100L361,101 M366,100L367,101 M367,100L368,101 M368,100L369,101 M369,100L370,101 M370,100L371,101 M371,100L372,101 M372,100L373,101 M373,100L374,101 M374,100L375,101 M375,100L376,101 M376,100L377,101 M377,100L378,101 M242,101L243,102 M243,101L244,102 M244,101L245,102 M245,101L246,102 M246,101L247,102 M356,101L357,102 M357,101L358,102 M358,101L359,102 M360,101L361,102 M361,101L362,102 M362,101L363,102 M363,101L364,102 M364,101L365,102 M365,101L366,102 M366,101L367,102 M367,101L368,102 M368,101L369,102 M369,101L370,102 M370,101L371,102 M371,101L372,102 M244,102L245,103 M245,102L246,103 M246,102L247,103 M247,102L248,103 M248,102L249,103 M354,102L355,103 M355,102L356,103 M356,102L357,103 M357,102L358,103 M358,102L359,103 M359,102L360,103 M360,102L361,103 M361,102L362,103 M362,102L363,103 M363,102L364,103 M364,102L365,103 M365,102L366,103 M246,103L247,104 M247,103L248,104 M248,103L249,104 M249,103L250,104 M250,103L251,104 M251,103L252,104 M252,103L253,104 M253,103L254,104 M254,103L255,104 M255,103L256,104 M256,103L257,104 M257,103L258,104 M258,103L259,104 M259,103L260,104 M333,103L334,104 M334,103L335,104 M335,103L336,104 M336,103L337,104 M337,103L338,104 M338,103L339,104 M339,103L340,104 M340,103L341,104 M341,103L342,104 M342,103L343,104 M343,103L344,104 M344,103L345,104 M345,103L346,104 M346,103L347,104 M347,103L348,104 M348,103L349,104 M349,103L350,104 M350,103L351,104 M351,103L352,104 M352,103L353,104 M353,103L354,104 M354,103L355,104 M355,103L356,104 M356,103L357,104 M357,103L358,104 M358,103L359,104 M359,103L360,104 M249,104L250,105 M250,104L251,105 M251,104L252,105 M252,104L253,105 M253,104L254,105 M254,104L255,105 M255,104L256,105 M256,104L257,105 M257,104L258,105 M258,104L259,105 M259,104L260,105 M260,104L261,105 M261,104L262,105 M262,104L263,105 M263,104L264,105 M264,104L265,105 M265,104L266,105 M266,104L267,105 M267,104L268,105 M268,104L269,105 M269,104L270,105 M270,104L271,105 M271,104L272,105 M272,104L273,105 M273,104L274,105 M274,104L275,105 M275,104L276,105 M276,104L277,105 M277,104L278,105 M278,104L279,105 M279,104L280,105 M280,104L281,105 M281,104L282,105 M282,104L283,105 M283,104L284,105 M284,104L285,105 M285,104L286,105 M286,104L287,105 M287,104L288,105 M288,104L289,105 M289,104L290,105 M290,104L291,105 M291,104L292,105 M292,104L293,105 M293,104L294,105 M294,104L295,105 M295,104L296,105 M296,104L297,105 M297,104L298,105 M298,104L299,105 M299,104L300,105 M300,104L301,105 M301,104L302,105 M302,104L303,105 M303,104L304,105 M304,104L305,105 M305,104L306,105 M306,104L307,105 M307,104L308,105 M308,104L309,105 M309,104L310,105 M310,104L311,105 M311,104L312,105 M312,104L313,105 M313,104L314,105 M314,104L315,105 M315,104L316,105 M316,104L317,105 M317,104L318,105 M318,104L319,105 M319,104L320,105 M320,104L321,105 M321,104L322,105 M322,104L323,105 M323,104L324,105 M324,104L325,105 M325,104L326,105 M326,104L327,105 M327,104L328,105 M328,104L329,105 M329,104L330,105 M330,104L331,105 M331,104L332,105 M332,104L333,105 M333,104L334,105 M334,104L335,105 M335,104L336,105 M336,104L337,105 M337,104L338,105 M338,104L339,105 M339,104L340,105 M340,104L341,105 M341,104L342,105 M342,104L343,105 M343,104L344,105 M344,104L345,105 M345,104L346,105 M346,104L347,105 M347,104L348,105 M348,104L349,105 M349,104L350,105 M350,104L351,105 M351,104L352,105 M352,104L353,105 M353,104L354,105 M354,104L355,105 M260,105L261,106 M261,105L262,106 M262,105L263,106 M263,105L264,106 M264,105L265,106 M265,105L266,106 M266,105L267,106 M267,105L268,106 M268,105L269,106 M269,105L270,106 M270,105L271,106 M271,105L272,106 M272,105L273,106 M273,105L274,106 M274,105L275,106 M275,105L276,106 M276,105L277,106 M277,105L278,106 M278,105L279,106 M279,105L280,106 M280,105L281,106 M281,105L282,106 M282,105L283,106 M283,105L284,106 M284,105L285,106 M285,105L286,106 M286,105L287,106 M287,105L288,106 M288,105L289,106 M289,105L290,106 M290,105L291,106 M291,105L292,106 M292,105L293,106 M293,105L294,106 M294,105L295,106 M295,105L296,106 M296,105L297,106 M297,105L298,106 M298,105L299,106 M299,105L300,106 M300,105L301,106 M301,105L302,106 M302,105L303,106 M303,105L304,106 M304,105L305,106 M305,105L306,106 M306,105L307,106 M307,105L308,106 M308,105L309,106 M309,105L310,106 M310,105L311,106 M311,105L312,106 M312,105L313,106 M313,105L314,106 M314,105L315,106 M315,105L316,106 M316,105L317,106 M317,105L318,106 M318,105L319,106 M319,105L320,106 M320,105L321,106 M321,105L322,106 M322,105L323,106 M323,105L324,106 M324,105L325,106 M325,105L326,106 M326,105L327,106 M327,105L328,106 M328,105L329,106 M329,105L330,106 M330,105L331,106 M331,105L332,106 M332,105L333,106 M350,105L351,106 M351,105L352,106 M352,105L353,106 M353,105L354,106 M349,106L350,107 M350,106L351,107 M351,106L352,107 M348,107L349,108 M349,107L350,108 M350,107L351,108 M346,108L347,109 M347,108L348,109 M348,108L349,109 M349,108L350,109 M345,109L346,110 M346,109L347,110 M347,109L348,110 M344,110L345,111 M345,110L346,111 M346,110L347,111 M342,111L343,112 M343,111L344,112 M344,111L345,112 M345,111L346,112 M341,112L342,113 M342,112L343,113 M343,112L344,113 M340,113L341,114 M341,113L342,114 M342,113L343,114 M338,114L339,115 M339,114L340,115 M340,114L341,115 M341,114L342,115 M337,115L338,116 M338,115L339,116 M339,115L340,116 M336,116L337,117 M337,116L338,117 M338,116L339,117 M334,117L335,118 M335,117L336,118 M336,117L337,118 M337,117L338,118 M333,118L334,119 M334,118L335,119 M335,118L336,119 M332,119L333,120 M333,119L334,120 M334,119L335,120 M330,120L331,121 M331,120L332,121 M332,120L333,121 M333,120L334,121 M329,121L330,122 M330,121L331,122 M331,121L332,122 M328,122L329,123 M329,122L330,123 M330,122L331,123 M326,123L327,124 M327,123L328,124 M328,123L329,124 M329,123L330,124 M325,124L326,125 M326,124L327,125 M327,124L328,125 M324,125L325,126 M325,125L326,126 M326,125L327,126 M322,126L323,127 M323,126L324,127 M324,126L325,127 M325,126L326,127 M321,127L322,128 M322,127L323,128 M323,127L324,128 M320,128L321,129 M321,128L322,129 M322,128L323,129 M318,129L319,130 M319,129L320,130 M320,129L321,130 M321,129L322,130 M317,130L318,131 M318,130L319,131 M319,130L320,131 M316,131L317,132 M317,131L318,132 M318,131L319,132 M315,132L316,133 M316,132L317,133 M317,132L318,133 M314,133L315,134 M315,133L316,134 M316,133L317,134 M313,134L314,135 M314,134L315,135 M315,134L316,135 M312,135L313,136 M313,135L314,136 M314,135L315,136 M312,136L313,137 M313,136L314,137 M311,137L312,138 M312,137L313,138 M310,138L311,139 M311,138L312,139 M309,139L310,140 M310,139L311,140 M311,139L312,140 M308,140L309,141 M309,140L310,141 M310,140L311,141 M307,141L308,142 M308,141L309,142 M309,141L310,142 M306,142L307,143 M307,142L308,143 M308,142L309,143 M306,143L307,144 M307,143L308,144 M305,144L306,145 M306,144L307,145 M304,145L305,146 M305,145L306,146 M306,145L307,146 M304,146L305,147 M305,146L306,147 M303,147L304,148 M304,147L305,148 M305,147L306,148 M303,148L304,149 M304,148L305,149 M302,149L303,150 M303,149L304,150 M304,149L305,150 M302,150L303,151 M303,150L304,151 M301,151L302,152 M302,151L303,152 M301,152L302,153 M302,152L303,153 M300,153L301,154 M301,153L302,154 M300,154L301,155 M301,154L302,155 M300,155L301,156 M301,155L302,156 M300,156L301,157 M301,156L302,157 M300,157L301,158 M301,157L302,158 M299,158L300,159 M300,158L301,159 M299,159L300,160 M300,159L301,160 M299,160L300,161 M300,160L301,161 M299,161L300,162 M300,161L301,162 M299,162L300,163 M300,162L301,163 M299,163L300,164 M300,163L301,164 M299,164L300,165 M300,164L301,165 M299,165L300,166 M300,165L301,166 M298,166L299,167 M299,166L300,167 M298,167L299,168 M299,167L300,168 M298,168L299,169 M299,168L300,169 M298,169L299,170 M299,169L300,170 M298,170L299,171 M299,170L300,171 M298,171L299,172 M299,171L300,172 M300,171L301,172 M299,172L300,173 M300,172L301,173 M299,173L300,174 M300,173L301,174 M299,174L300,175 M300,174L301,175 M301,174L302,175 M300,175L301,176 M301,175L302,176 M300,176L301,177 M301,176L302,177 M300,177L301,178 M301,177L302,178 M302,177L303,178 M301,178L302,179 M302,178L303,179 M301,179L302,180 M302,179L303,180 M303,179L304,180 M302,180L303,181 M303,180L304,181 M304,180L305,181 M303,181L304,182 M304,181L305,182 M305,181L306,182 M304,182L305,183 M305,182L306,183 M305,183L306,184 M306,183L307,184 M305,184L306,185 M306,184L307,185 M307,184L308,185 M306,185L307,186 M307,185L308,186 M308,185L309,186 M307,186L308,187 M308,186L309,187 M309,186L310,187 M308,187L309,188 M309,187L310,188 M310,187L311,188 M309,188L310,189 M310,188L311,189 M310,189L311,190 M311,189L312,190 M310,190L311,191 M311,190L312,191 M312,190L313,191 M311,191L312,192 M312,191L313,192 M313,191L314,192 M312,192L313,193 M313,192L314,193 M314,192L315,193 M313,193L314,194 M314,193L315,194 M314,194L315,195 M315,194L316,195 M314,195L315,196 M315,195L316,196 M316,195L317,196 M315,196L316,197 M316,196L317,197 M317,196L318,197 M316,197L317,198 M317,197L318,198 M318,197L319,198 M319,197L320,198 M318,198L319,199 M319,198L320,199 M320,198L321,199 M319,199L320,200 M320,199L321,200 M321,199L322,200 M320,200L321,201 M321,200L322,201 M322,200L323,201 M321,201L322,202 M322,201L323,202 M323,201L324,202 M324,201L325,202 M323,202L324,203 M324,202L325,203 M325,202L326,203 M324,203L325,204 M325,203L326,204 M326,203L327,204 M325,204L326,205 M326,204L327,205 M327,204L328,205 M326,205L327,206 M327,205L328,206 M327,206L328,207 M328,206L329,207 M327,207L328,208 M328,207L329,208 M329,207L330,208 M328,208L329,209 M329,208L330,209 M330,208L331,209 M329,209L330,210 M330,209L331,210 M330,210L331,211 M331,210L332,211 M330,211L331,212 M331,211L332,212 M332,211L333,212 M331,212L332,213 M332,212L333,213 M333,212L334,213 M332,213L333,214 M333,213L334,214 M333,214L334,215 M334,214L335,215 M333,215L334,216 M334,215L335,216 M335,215L336,216 M334,216L335,217 M335,216L336,217 M335,217L336,218 M336,217L337,218 M335,218L336,219 M336,218L337,219 M337,218L338,219 M336,219L337,220 M337,219L338,220 M338,219L339,220 M337,220L338,221 M338,220L339,221 M338,221L339,222 M339,221L340,222 M338,222L339,223 M339,222L340,223 M340,222L341,223 M339,223L340,224 M340,223L341,224 M341,223L342,224 M340,224L341,225 M341,224L342,225 M342,224L343,225 M341,225L342,226 M342,225L343,226 M343,225L344,226 M342,226L343,227 M343,226L344,227 M343,227L344,228 M344,227L345,228 M343,228L344,229 M344,228L345,229 M345,228L346,229 M344,229L345,230 M345,229L346,230 M346,229L347,230 M345,230L346,231 M346,230L347,231 M346,231L347,232 M347,231L348,232 M346,232L347,233 M347,232L348,233 M346,233L347,234 M347,233L348,234 M347,234L348,235 M348,234L349,235 M347,235L348,236 M348,235L349,236 M347,236L348,237 M348,236L349,237 M349,236L350,237 M348,237L349,238 M349,237L350,238 M348,238L349,239 M349,238L350,239 M349,239L350,240 M350,239L351,240 M349,240L350,241 M350,240L351,241 M350,241L351,242 M351,241L352,242 M350,242L351,243 M351,242L352,243 M351,243L352,244 M352,243L353,244 M351,244L352,245 M352,244L353,245 M352,245L353,246 M353,245L354,246 M352,246L353,247" fill="none" stroke="black" />
    </svg>