<svg xmlns="http://www.w3.org/2000/svg" width="800" height="250">
        <path d="M416,82L417,83 M415,83L416,84 M416,83L417,84 M417,83L418,84 M413,84L414,85 M414,84L415,85 M415,84L416,85 M416,84L417,85 M417,84L418,85 M418,84L419,85 M413,85L414,86 M414,85L415,86 M416,85L417,86 M417,85L418,86 M418,85L419,86 M419,85L420,86 M420,85L421,86 M413,86L414,87 M414,86L415,87 M418,86L419,87 M419,86L420,87 M420,86L421,87 M421,86L422,87 M422,86L423,87 M413,87L414,88 M414,87L415,88 M420,87L421,88 M421,87L422,88 M422,87L423,88 M423,87L424,88 M424,87L425,88 M425,87L426,88 M413,88L414,89 M414,88L415,89 M415,88L416,89 M423,88L424,89 M424,88L425,89 M425,88L426,89 M426,88L427,89 M427,88L428,89 M428,88L429,89 M414,89L415,90 M415,89L416,90 M425,89L426,90 M426,89L427,90 M427,89L428,90 M428,89L429,90 M429,89L430,90 M430,89L431,90 M415,90L416,91 M416,90L417,91 M428,90L429,91 M429,90L430,91 M430,90L431,91 M431,90L432,91 M432,90L433,91 M433,90L434,91 M415,91L416,92 M416,91L417,92 M417,91L418,92 M431,91L432,92 M432,91L433,92 M433,91L434,92 M434,91L435,92 M435,91L436,92 M436,91L437,92 M416,92L417,93 M417,92L418,93 M418,92L419,93 M434,92L435,93 M435,92L436,93 M436,92L437,93 M437,92L438,93 M438,92L439,93 M439,92L440,93 M417,93L418,94 M418,93L419,94 M419,93L420,94 M437,93L438,94 M438,93L439,94 M439,93L440,94 M440,93L441,94 M441,93L442,94 M442,93L443,94 M418,94L419,95 M419,94L420,95 M420,94L421,95 M440,94L441,95 M441,94L442,95 M442,94L443,95 M443,94L444,95 M444,94L445,95 M445,94L446,95 M419,95L420,96 M420,95L421,96 M443,95L444,96 M444,95L445,96 M445,95L446,96 M446,95L447,96 M447,95L448,96 M448,95L449,96 M420,96L421,97 M421,96L422,97 M446,96L447,97 M447,96L448,97 M448,96L449,97 M449,96L450,97 M450,96L451,97 M451,96L452,97 M420,97L421,98 M421,97L422,98 M422,97L423,98 M449,97L450,98 M450,97L451,98 M451,97L452,98 M452,97L453,98 M453,97L454,98 M454,97L455,98 M421,98L422,99 M422,98L423,99 M423,98L424,99 M452,98L453,99 M453,98L454,99 M454,98L455,99 M455,98L456,99 M456,98L457,99 M457,98L458,99 M422,99L423,100 M423,99L424,100 M424,99L425,100 M425,99L426,100 M455,99L456,100 M456,99L457,100 M457,99L458,100 M458,99L459,100 M459,99L460,100 M460,99L461,100 M461,99L462,100 M424,100L425,101 M425,100L426,101 M426,100L427,101 M458,100L459,101 M459,100L460,101 M460,100L461,101 M461,100L462,101 M462,100L463,101 M463,100L464,101 M464,100L465,101 M425,101L426,102 M426,101L427,102 M427,101L428,102 M428,101L429,102 M461,101L462,102 M462,101L463,102 M463,101L464,102 M464,101L465,102 M465,101L466,102 M466,101L467,102 M467,101L468,102 M427,102L428,103 M428,102L429,103 M429,102L430,103 M464,102L465,103 M465,102L466,103 M466,102L467,103 M467,102L468,103 M468,102L469,103 M469,102L470,103 M470,102L471,103 M428,103L429,104 M429,103L430,104 M430,103L431,104 M431,103L432,104 M467,103L468,104 M468,103L469,104 M469,103L470,104 M470,103L471,104 M471,103L472,104 M472,103L473,104 M473,103L474,104 M430,104L431,105 M431,104L432,105 M432,104L433,105 M471,104L472,105 M472,104L473,105 M473,104L474,105 M474,104L475,105 M475,104L476,105 M476,104L477,105 M477,104L478,105 M431,105L432,106 M432,105L433,106 M433,105L434,106 M434,105L435,106 M474,105L475,106 M475,105L476,106 M476,105L477,106 M477,105L478,106 M478,105L479,106 M479,105L480,106 M480,105L481,106 M433,106L434,107 M434,106L435,107 M435,106L436,107 M478,106L479,107 M479,106L480,107 M480,106L481,107 M481,106L482,107 M482,106L483,107 M483,106L484,107 M484,106L485,107 M434,107L435,108 M435,107L436,108 M436,107L437,108 M437,107L438,108 M481,107L482,108 M482,107L483,108 M483,107L484,108 M484,107L485,108 M485,107L486,108 M486,107L487,108 M487,107L488,108 M436,108L437,109 M437,108L438,109 M438,108L439,109 M439,108L440,109 M440,108L441,109 M441,108L442,109 M442,108L443,109 M443,108L444,109 M444,108L445,109 M484,108L485,109 M485,108L486,109 M486,108L487,109 M487,108L488,109 M488,108L489,109 M489,108L490,109 M490,108L491,109 M438,109L439,110 M439,109L440,110 M440,109L441,110 M441,109L442,110 M442,109L443,110 M443,109L444,110 M444,109L445,110 M445,109L446,110 M446,109L447,110 M447,109L448,110 M448,109L449,110 M488,109L489,110 M489,109L490,110 M490,109L491,110 M491,109L492,110 M492,109L493,110 M493,109L494,110 M494,109L495,110 M445,110L446,111 M446,110L447,111 M447,110L448,111 M448,110L449,111 M449,110L450,111 M450,110L451,111 M451,110L452,111 M452,110L453,111 M491,110L492,111 M492,110L493,111 M493,110L494,111 M494,110L495,111 M495,110L496,111 M496,110L497,111 M497,110L498,111 M449,111L450,112 M450,111L451,112 M451,111L452,112 M452,111L453,112 M453,111L454,112 M454,111L455,112 M455,111L456,112 M494,111L495,112 M495,111L496,112 M496,111L497,112 M497,111L498,112 M498,111L499,112 M499,111L500,112 M500,111L501,112 M501,111L502,112 M453,112L454,113 M454,112L455,113 M455,112L456,113 M456,112L457,113 M498,112L499,113 M499,112L500,113 M500,112L501,113 M501,112L502,113 M502,112L503,113 M503,112L504,113 M504,112L505,113 M455,113L456,114 M456,113L457,114 M457,113L458,114 M501,113L502,114 M502,113L503,114 M503,113L504,114 M504,113L505,114 M505,113L506,114 M506,113L507,114 M507,113L508,114 M456,114L457,115 M457,114L458,115 M505,114L506,115 M506,114L507,115 M507,114L508,115 M508,114L509,115 M509,114L510,115 M510,114L511,115 M511,114L512,115 M455,115L456,116 M456,115L457,116 M457,115L458,116 M508,115L509,116 M509,115L510,116 M510,115L511,116 M511,115L512,116 M512,115L513,116 M513,115L514,116 M514,115L515,116 M455,116L456,117 M456,116L457,117 M511,116L512,117 M512,116L513,117 M513,116L514,117 M514,116L515,117 M515,116L516,117 M516,116L517,117 M517,116L518,117 M455,117L456,118 M456,117L457,118 M515,117L516,118 M516,117L517,118 M517,117L518,118 M518,117L519,118 M519,117L520,118 M520,117L521,118 M454,118L455,119 M455,118L456,119 M518,118L519,119 M519,118L520,119 M520,118L521,119 M521,118L522,119 M522,118L523,119 M523,118L524,119 M454,119L455,120 M455,119L456,120 M521,119L522,120 M522,119L523,120 M523,119L524,120 M524,119L525,120 M525,119L526,120 M526,119L527,120 M527,119L528,120 M453,120L454,121 M454,120L455,121 M455,120L456,121 M524,120L525,121 M525,120L526,121 M526,120L527,121 M527,120L528,121 M528,120L529,121 M529,120L530,121 M530,120L531,121 M453,121L454,122 M454,121L455,122 M527,121L528,122 M528,121L529,122 M529,121L530,122 M530,121L531,122 M531,121L532,122 M532,121L533,122 M533,121L534,122 M453,122L454,123 M454,122L455,123 M530,122L531,123 M531,122L532,123 M532,122L533,123 M533,122L534,123 M534,122L535,123 M535,122L536,123 M536,122L537,123 M452,123L453,124 M453,123L454,124 M534,123L535,124 M535,123L536,124 M536,123L537,124 M537,123L538,124 M538,123L539,124 M539,123L540,124 M451,124L452,125 M452,124L453,125 M453,124L454,125 M537,124L538,125 M538,124L539,125 M539,124L540,125 M540,124L541,125 M541,124L542,125 M542,124L543,125 M450,125L451,126 M451,125L452,126 M452,125L453,126 M540,125L541,126 M541,125L542,126 M542,125L543,126 M543,125L544,126 M544,125L545,126 M545,125L546,126 M450,126L451,127 M451,126L452,127 M543,126L544,127 M544,126L545,127 M545,126L546,127 M546,126L547,127 M547,126L548,127 M548,126L549,127 M549,126L550,127 M450,127L451,128 M451,127L452,128 M546,127L547,128 M547,127L548,128 M548,127L549,128 M549,127L550,128 M550,127L551,128 M551,127L552,128 M552,127L553,128 M450,128L451,129 M451,128L452,129 M549,128L550,129 M550,128L551,129 M551,128L552,129 M552,128L553,129 M553,128L554,129 M554,128L555,129 M555,128L556,129 M450,129L451,130 M451,129L452,130 M552,129L553,130 M553,129L554,130 M554,129L555,130 M555,129L556,130 M556,129L557,130 M557,129L558,130 M558,129L559,130 M450,130L451,131 M451,130L452,131 M556,130L557,131 M557,130L558,131 M558,130L559,131 M559,130L560,131 M560,130L561,131 M561,130L562,131 M562,130L563,131 M450,131L451,132 M451,131L452,132 M559,131L560,132 M560,131L561,132 M561,131L562,132 M562,131L563,132 M563,131L564,132 M564,131L565,132 M565,131L566,132 M450,132L451,133 M451,132L452,133 M563,132L564,133 M564,132L565,133 M565,132L566,133 M566,132L567,133 M567,132L568,133 M568,132L569,133 M569,132L570,133 M450,133L451,134 M451,133L452,134 M566,133L567,134 M567,133L568,134 M568,133L569,134 M569,133L570,134 M570,133L571,134 M571,133L572,134 M572,133L573,134 M450,134L451,135 M451,134L452,135 M569,134L570,135 M570,134L571,135 M571,134L572,135 M572,134L573,135 M573,134L574,135 M574,134L575,135 M575,134L576,135 M450,135L451,136 M451,135L452,136 M573,135L574,136 M574,135L575,136 M575,135L576,136 M576,135L577,136 M577,135L578,136 M578,135L579,136 M579,135L580,136 M450,136L451,137 M451,136L452,137 M576,136L577,137 M577,136L578,137 M578,136L579,137 M579,136L580,137 M580,136L581,137 M581,136L582,137 M582,136L583,137 M450,137L451,138 M451,137L452,138 M580,137L581,138 M581,137L582,138 M582,137L583,138 M583,137L584,138 M584,137L585,138 M585,137L586,138 M586,137L587,138 M450,138L451,139 M451,138L452,139 M583,138L584,139 M584,138L585,139 M585,138L586,139 M586,138L587,139 M587,138L588,139 M588,138L589,139 M589,138L590,139 M450,139L451,140 M451,139L452,140 M586,139L587,140 M587,139L588,140 M588,139L589,140 M589,139L590,140 M590,139L591,140 M591,139L592,140 M592,139L593,140 M593,139L594,140 M450,140L451,141 M451,140L452,141 M590,140L591,141 M591,140L592,141 M592,140L593,141 M593,140L594,141 M594,140L595,141 M595,140L596,141 M596,140L597,141 M597,140L598,141 M450,141L451,142 M451,141L452,142 M594,141L595,142 M595,141L596,142 M596,141L597,142 M597,141L598,142 M598,141L599,142 M599,141L600,142 M600,141L601,142 M450,142L451,143 M451,142L452,143 M597,142L598,143 M598,142L599,143 M599,142L600,143 M600,142L601,143 M601,142L602,143 M602,142L603,143 M603,142L604,143 M604,142L605,143 M450,143L451,144 M451,143L452,144 M601,143L602,144 M602,143L603,144 M603,143L604,144 M604,143L605,144 M605,143L606,144 M606,143L607,144 M607,143L608,144 M608,143L609,144 M450,144L451,145 M451,144L452,145 M605,144L606,145 M606,144L607,145 M607,144L608,145 M608,144L609,145 M609,144L610,145 M610,144L611,145 M611,144L612,145 M450,145L451,146 M451,145L452,146 M608,145L609,146 M609,145L610,146 M610,145L611,146 M611,145L612,146 M612,145L613,146 M613,145L614,146 M614,145L615,146 M615,145L616,146 M450,146L451,147 M451,146L452,147 M612,146L613,147 M613,146L614,147 M614,146L615,147 M615,146L616,147 M616,146L617,147 M617,146L618,147 M618,146L619,147 M619,146L620,147 M450,147L451,148 M451,147L452,148 M616,147L617,148 M617,147L618,148 M618,147L619,148 M619,147L620,148 M620,147L621,148 M621,147L622,148 M622,147L623,148 M623,147L624,148 M450,148L451,149 M451,148L452,149 M620,148L621,149 M621,148L622,149 M622,148L623,149 M623,148L624,149 M624,148L625,149 M625,148L626,149 M626,148L627,149 M627,148L628,149 M450,149L451,150 M451,149L452,150 M624,149L625,150 M625,149L626,150 M626,149L627,150 M627,149L628,150 M628,149L629,150 M629,149L630,150 M450,150L451,151 M451,150L452,151 M627,150L628,151 M628,150L629,151 M629,150L630,151 M630,150L631,151 M631,150L632,151 M632,150L633,151 M450,151L451,152 M451,151L452,152 M630,151L631,152 M631,151L632,152 M632,151L633,152 M633,151L634,152 M634,151L635,152 M450,152L451,153 M451,152L452,153 M632,152L633,153 M633,152L634,153 M634,152L635,153 M635,152L636,153 M636,152L637,153 M450,153L451,154 M451,153L452,154 M635,153L636,154 M636,153L637,154 M637,153L638,154 M450,154L451,155 M451,154L452,155 M636,154L637,155 M637,154L638,155 M638,154L639,155 M639,154L640,155 M450,155L451,156 M451,155L452,156 M638,155L639,156 M639,155L640,156 M640,155L641,156 M450,156L451,157 M451,156L452,157 M639,156L640,157 M640,156L641,157 M450,157L451,158 M451,157L452,158 M639,157L640,158 M640,157L641,158 M450,158L451,159 M451,158L452,159 M638,158L639,159 M639,158L640,159 M640,158L641,159 M450,159L451,160 M451,159L452,160 M638,159L639,160 M639,159L640,160 M450,160L451,161 M451,160L452,161 M637,160L638,161 M638,160L639,161 M450,161L451,162 M451,161L452,162 M636,161L637,162 M637,161L638,162 M638,161L639,162 M450,162L451,163 M451,162L452,163 M635,162L636,163 M636,162L637,163 M637,162L638,163 M450,163L451,164 M451,163L452,164 M635,163L636,164 M636,163L637,164 M450,164L451,165 M451,164L452,165 M634,164L635,165 M635,164L636,165 M450,165L451,166 M451,165L452,166 M633,165L634,166 M634,165L635,166 M635,165L636,166 M450,166L451,167 M451,166L452,167 M631,166L632,167 M632,166L633,167 M633,166L634,167 M634,166L635,167 M450,167L451,168 M451,167L452,168 M629,167L630,168 M630,167L631,168 M631,167L632,168 M632,167L633,168 M450,168L451,169 M451,168L452,169 M627,168L628,169 M628,168L629,169 M629,168L630,169 M630,168L631,169 M450,169L451,170 M451,169L452,170 M625,169L626,170 M626,169L627,170 M627,169L628,170 M628,169L629,170 M629,169L630,170 M451,170L452,171 M452,170L453,171 M624,170L625,171 M625,170L626,171 M626,170L627,171 M627,170L628,171 M451,171L452,172 M452,171L453,172 M622,171L623,172 M623,171L624,172 M624,171L625,172 M625,171L626,172 M451,172L452,173 M452,172L453,173 M620,172L621,173 M621,172L622,173 M622,172L623,173 M623,172L624,173 M451,173L452,174 M617,173L618,174 M618,173L619,174 M619,173L620,174 M620,173L621,174 M621,173L622,174 M615,174L616,175 M616,174L617,175 M617,174L618,175 M618,174L619,175 M619,174L620,175 M613,175L614,176 M614,175L615,176 M615,175L616,176 M616,175L617,176 M617,175L618,176 M611,176L612,177 M612,176L613,177 M613,176L614,177 M614,176L615,177 M615,176L616,177 M609,177L610,178 M610,177L611,178 M611,177L612,178 M612,177L613,178 M613,177L614,178 M607,178L608,179 M608,178L609,179 M609,178L610,179 M610,178L611,179 M611,178L612,179 M605,179L606,180 M606,179L607,180 M607,179L608,180 M608,179L609,180 M609,179L610,180 M603,180L604,181 M604,180L605,181 M605,180L606,181 M606,180L607,181 M607,180L608,181 M601,181L602,182 M602,181L603,182 M603,181L604,182 M604,181L605,182 M605,181L606,182 M599,182L600,183 M600,182L601,183 M601,182L602,183 M602,182L603,183 M597,183L598,184 M598,183L599,184 M599,183L600,184 M600,183L601,184 M595,184L596,185 M596,184L597,185 M597,184L598,185 M598,184L599,185 M593,185L594,186 M594,185L595,186 M595,185L596,186 M596,185L597,186 M590,186L591,187 M591,186L592,187 M592,186L593,187 M593,186L594,187 M594,186L595,187 M586,187L587,188 M587,187L588,188 M588,187L589,188 M589,187L590,188 M590,187L591,188 M591,187L592,188 M592,187L593,188 M582,188L583,189 M583,188L584,189 M584,188L585,189 M585,188L586,189 M586,188L587,189 M587,188L588,189 M588,188L589,189 M589,188L590,189 M579,189L580,190 M580,189L581,190 M581,189L582,190 M582,189L583,190 M583,189L584,190 M584,189L585,190 M585,189L586,190 M575,190L576,191 M576,190L577,191 M577,190L578,191 M578,190L579,191 M579,190L580,191 M580,190L581,191 M581,190L582,191 M582,190L583,191 M571,191L572,192 M572,191L573,192 M573,191L574,192 M574,191L575,192 M575,191L576,192 M576,191L577,192 M577,191L578,192 M578,191L579,192 M568,192L569,193 M569,192L570,193 M570,192L571,193 M571,192L572,193 M572,192L573,193 M573,192L574,193 M574,192L575,193 M564,193L565,194 M565,193L566,194 M566,193L567,194 M567,193L568,194 M568,193L569,194 M569,193L570,194 M570,193L571,194 M571,193L572,194 M560,194L561,195 M561,194L562,195 M562,194L563,195 M563,194L564,195 M564,194L565,195 M565,194L566,195 M566,194L567,195 M567,194L568,195 M556,195L557,196 M557,195L558,196 M558,195L559,196 M559,195L560,196 M560,195L561,196 M561,195L562,196 M562,195L563,196 M563,195L564,196 M553,196L554,197 M554,196L555,197 M555,196L556,197 M556,196L557,197 M557,196L558,197 M558,196L559,197 M559,196L560,197 M550,197L551,198 M551,197L552,198 M552,197L553,198 M553,197L554,198 M554,197L555,198 M555,197L556,198 M556,197L557,198 M547,198L548,199 M548,198L549,199 M549,198L550,199 M550,198L551,199 M551,198L552,199 M552,198L553,199 M543,199L544,200 M544,199L545,200 M545,199L546,200 M546,199L547,200 M547,199L548,200 M548,199L549,200 M549,199L550,200 M540,200L541,201 M541,200L542,201 M542,200L543,201 M543,200L544,201 M544,200L545,201 M545,200L546,201 M546,200L547,201 M537,201L538,202 M538,201L539,202 M539,201L540,202 M540,201L541,202 M541,201L542,202 M542,201L543,202 M543,201L544,202 M534,202L535,203 M535,202L536,203 M536,202L537,203 M537,202L538,203 M538,202L539,203 M539,202L540,203 M530,203L531,204 M531,203L532,204 M532,203L533,204 M533,203L534,204 M534,203L535,204 M535,203L536,204 M536,203L537,204 M527,204L528,205 M528,204L529,205 M529,204L530,205 M530,204L531,205 M531,204L532,205 M532,204L533,205 M533,204L534,205 M525,205L526,206 M526,205L527,206 M527,205L528,206 M528,205L529,206 M529,205L530,206 M530,205L531,206 M523,206L524,207 M524,206L525,207 M525,206L526,207 M526,206L527,207 M527,206L528,207 M521,207L522,208 M522,207L523,208 M523,207L524,208 M524,207L525,208 M525,207L526,208 M521,208L522,209 M522,208L523,209 M521,209L522,210 M522,209L523,210 M521,210L522,211 M522,210L523,211 M520,211L521,212 M521,211L522,212 M522,211L523,212 M521,212L522,213" fill="none" stroke="black" />
    </svg>