<svg xmlns="http://www.w3.org/2000/svg" width="800" height="250">
        <path d="M387,58L388,59 M386,59L387,60 M387,59L388,60 M388,59L389,60 M386,60L387,61 M387,60L388,61 M386,61L387,62 M387,61L388,62 M386,62L387,63 M387,62L388,63 M386,63L387,64 M387,63L388,64 M386,64L387,65 M387,64L388,65 M386,65L387,66 M387,65L388,66 M387,66L388,67 M388,66L389,67 M387,67L388,68 M388,67L389,68 M387,68L388,69 M388,68L389,69 M388,69L389,70 M389,69L390,70 M388,70L389,71 M389,70L390,71 M388,71L389,72 M389,71L390,72 M390,71L391,72 M389,72L390,73 M390,72L391,73 M389,73L390,74 M390,73L391,74 M391,73L392,74 M390,74L391,75 M391,74L392,75 M390,75L391,76 M391,75L392,76 M391,76L392,77 M392,76L393,77 M391,77L392,78 M392,77L393,78 M393,77L394,78 M392,78L393,79 M393,78L394,79 M394,78L395,79 M393,79L394,80 M394,79L395,80 M395,79L396,80 M394,80L395,81 M395,80L396,81 M396,80L397,81 M395,81L396,82 M396,81L397,82 M396,82L397,83 M397,82L398,83 M397,83L398,84 M398,83L399,84 M397,84L398,85 M398,84L399,85 M399,84L400,85 M398,85L399,86 M399,85L400,86 M400,85L401,86 M399,86L400,87 M400,86L401,87 M401,86L402,87 M400,87L401,88 M401,87L402,88 M402,87L403,88 M401,88L402,89 M402,88L403,89 M403,88L404,89 M402,89L403,90 M403,89L404,90 M404,89L405,90 M403,90L404,91 M404,90L405,91 M405,90L406,91 M405,91L406,92 M406,91L407,92 M407,91L408,92 M406,92L407,93 M407,92L408,93 M408,92L409,93 M407,93L408,94 M408,93L409,94 M409,93L410,94 M408,94L409,95 M409,94L410,95 M410,94L411,95 M409,95L410,96 M410,95L411,96 M411,95L412,96 M410,96L411,97 M411,96L412,97 M412,96L413,97 M411,97L412,98 M412,97L413,98 M412,98L413,99 M413,98L414,99 M412,99L413,100 M413,99L414,100 M414,99L415,100 M413,100L414,101 M414,100L415,101 M415,100L416,101 M414,101L415,102 M415,101L416,102 M416,101L417,102 M415,102L416,103 M416,102L417,103 M416,103L417,104 M417,103L418,104 M416,104L417,105 M417,104L418,105 M418,104L419,105 M417,105L418,106 M418,105L419,106 M419,105L420,106 M418,106L419,107 M419,106L420,107 M419,107L420,108 M420,107L421,108 M419,108L420,109 M420,108L421,109 M421,108L422,109 M420,109L421,110 M421,109L422,110 M421,110L422,111 M422,110L423,111 M421,111L422,112 M422,111L423,112 M422,112L423,113 M423,112L424,113 M422,113L423,114 M423,113L424,114 M422,114L423,115 M423,114L424,115 M424,114L425,115 M423,115L424,116 M424,115L425,116 M423,116L424,117 M424,116L425,117 M425,116L426,117 M424,117L425,118 M425,117L426,118 M424,118L425,119 M425,118L426,119 M426,118L427,119 M425,119L426,120 M426,119L427,120 M425,120L426,121 M426,120L427,121 M426,121L427,122 M427,121L428,122 M426,122L427,123 M427,122L428,123 M427,123L428,124 M428,123L429,124 M427,124L428,125 M428,124L429,125 M427,125L428,126 M428,125L429,126 M427,126L428,127 M428,126L429,127 M427,127L428,128 M428,127L429,128 M427,128L428,129 M428,128L429,129 M426,129L427,130 M427,129L428,130 M428,129L429,130 M425,130L426,131 M426,130L427,131 M427,130L428,131 M424,131L425,132 M425,131L426,132 M426,131L427,132 M424,132L425,133 M425,132L426,133 M423,133L424,134 M424,133L425,134 M422,134L423,135 M423,134L424,135 M421,135L422,136 M422,135L423,136 M423,135L424,136 M420,136L421,137 M421,136L422,137 M422,136L423,137 M418,137L419,138 M419,137L420,138 M420,137L421,138 M421,137L422,138 M417,138L418,139 M418,138L419,139 M419,138L420,139 M415,139L416,140 M416,139L417,140 M417,139L418,140 M418,139L419,140 M414,140L415,141 M415,140L416,141 M416,140L417,141 M412,141L413,142 M413,141L414,142 M414,141L415,142 M415,141L416,142 M410,142L411,143 M411,142L412,143 M412,142L413,143 M413,142L414,143 M407,143L408,144 M408,143L409,144 M409,143L410,144 M410,143L411,144 M411,143L412,144 M412,143L413,144 M405,144L406,145 M406,144L407,145 M407,144L408,145 M408,144L409,145 M409,144L410,145 M410,144L411,145 M402,145L403,146 M403,145L404,146 M404,145L405,146 M405,145L406,146 M406,145L407,146 M407,145L408,146 M399,146L400,147 M400,146L401,147 M401,146L402,147 M402,146L403,147 M403,146L404,147 M404,146L405,147 M396,147L397,148 M397,147L398,148 M398,147L399,148 M399,147L400,148 M400,147L401,148 M401,147L402,148 M393,148L394,149 M394,148L395,149 M395,148L396,149 M396,148L397,149 M397,148L398,149 M398,148L399,149 M389,149L390,150 M390,149L391,150 M391,149L392,150 M392,149L393,150 M393,149L394,150 M394,149L395,150 M395,149L396,150 M384,150L385,151 M385,150L386,151 M386,150L387,151 M387,150L388,151 M388,150L389,151 M389,150L390,151 M390,150L391,151 M391,150L392,151 M392,150L393,151 M379,151L380,152 M380,151L381,152 M381,151L382,152 M382,151L383,152 M383,151L384,152 M384,151L385,152 M385,151L386,152 M386,151L387,152 M387,151L388,152 M388,151L389,152 M327,152L328,153 M328,152L329,153 M329,152L330,153 M330,152L331,153 M331,152L332,153 M332,152L333,153 M333,152L334,153 M334,152L335,153 M335,152L336,153 M336,152L337,153 M337,152L338,153 M338,152L339,153 M339,152L340,153 M340,152L341,153 M341,152L342,153 M342,152L343,153 M343,152L344,153 M344,152L345,153 M345,152L346,153 M346,152L347,153 M347,152L348,153 M348,152L349,153 M349,152L350,153 M350,152L351,153 M351,152L352,153 M352,152L353,153 M353,152L354,153 M354,152L355,153 M355,152L356,153 M356,152L357,153 M357,152L358,153 M358,152L359,153 M359,152L360,153 M360,152L361,153 M361,152L362,153 M362,152L363,153 M363,152L364,153 M364,152L365,153 M365,152L366,153 M366,152L367,153 M367,152L368,153 M368,152L369,153 M369,152L370,153 M370,152L371,153 M371,152L372,153 M372,152L373,153 M373,152L374,153 M374,152L375,153 M375,152L376,153 M376,152L377,153 M377,152L378,153 M378,152L379,153 M379,152L380,153 M380,152L381,153 M381,152L382,153 M382,152L383,153 M383,152L384,153 M327,153L328,154 M328,153L329,154 M329,153L330,154 M330,153L331,154 M331,153L332,154 M332,153L333,154 M333,153L334,154 M334,153L335,154 M335,153L336,154 M336,153L337,154 M337,153L338,154 M338,153L339,154 M339,153L340,154 M340,153L341,154 M341,153L342,154 M342,153L343,154 M343,153L344,154 M344,153L345,154 M345,153L346,154 M346,153L347,154 M347,153L348,154 M348,153L349,154 M349,153L350,154 M350,153L351,154 M351,153L352,154 M352,153L353,154 M353,153L354,154 M354,153L355,154 M355,153L356,154 M356,153L357,154 M357,153L358,154 M358,153L359,154 M359,153L360,154 M360,153L361,154 M361,153L362,154 M362,153L363,154 M363,153L364,154 M364,153L365,154 M365,153L366,154 M366,153L367,154 M367,153L368,154 M368,153L369,154 M369,153L370,154 M370,153L371,154 M371,153L372,154 M372,153L373,154 M373,153L374,154 M374,153L375,154 M375,153L376,154 M376,153L377,154 M377,153L378,154 M378,153L379,154 M327,154L328,155 M328,154L329,155 M329,154L330,155 M330,154L331,155 M331,154L332,155 M332,154L333,155 M333,154L334,155 M334,154L335,155 M330,155L331,156 M331,155L332,156 M332,155L333,156 M333,155L334,156 M334,155L335,156 M335,155L336,156 M336,155L337,156 M337,155L338,156 M338,155L339,156 M335,156L336,157 M336,156L337,157 M337,156L338,157" fill="none" stroke="black" />
    </svg>