<svg xmlns="http://www.w3.org/2000/svg" width="800" height="250">
        <path d="M270,22L271,23 M271,22L272,23 M268,23L269,24 M269,23L270,24 M270,23L271,24 M271,23L272,24 M268,24L269,25 M269,24L270,25 M270,24L271,25 M271,24L272,25 M267,25L268,26 M268,25L269,26 M269,25L270,26 M270,25L271,26 M271,25L272,26 M267,26L268,27 M268,26L269,27 M269,26L270,27 M270,26L271,27 M271,26L272,27 M266,27L267,28 M267,27L268,28 M268,27L269,28 M269,27L270,28 M270,27L271,28 M271,27L272,28 M266,28L267,29 M267,28L268,29 M268,28L269,29 M269,28L270,29 M265,29L266,30 M266,29L267,30 M266,30L267,31 M315,39L316,40 M316,39L317,40 M317,39L318,40 M318,39L319,40 M319,39L320,40 M314,40L315,41 M315,40L316,41 M316,40L317,41 M317,40L318,41 M318,40L319,41 M319,40L320,41 M313,41L314,42 M314,41L315,42 M315,41L316,42 M318,41L319,42 M319,41L320,42 M313,42L314,43 M314,42L315,43 M318,42L319,43 M319,42L320,43 M313,43L314,44 M314,43L315,44 M318,43L319,44 M319,43L320,44 M312,44L313,45 M313,44L314,45 M318,44L319,45 M319,44L320,45 M312,45L313,46 M313,45L314,46 M317,45L318,46 M318,45L319,46 M312,46L313,47 M313,46L314,47 M316,46L317,47 M317,46L318,47 M318,46L319,47 M312,47L313,48 M313,47L314,48 M316,47L317,48 M317,47L318,48 M247,48L248,49 M248,48L249,49 M311,48L312,49 M312,48L313,49 M315,48L316,49 M316,48L317,49 M317,48L318,49 M247,49L248,50 M248,49L249,50 M311,49L312,50 M312,49L313,50 M315,49L316,50 M316,49L317,50 M246,50L247,51 M247,50L248,51 M248,50L249,51 M311,50L312,51 M312,50L313,51 M314,50L315,51 M315,50L316,51 M246,51L247,52 M247,51L248,52 M248,51L249,52 M310,51L311,52 M311,51L312,52 M314,51L315,52 M315,51L316,52 M246,52L247,53 M247,52L248,53 M310,52L311,53 M311,52L312,53 M313,52L314,53 M314,52L315,53 M246,53L247,54 M247,53L248,54 M310,53L311,54 M311,53L312,54 M313,53L314,54 M314,53L315,54 M245,54L246,55 M246,54L247,55 M309,54L310,55 M310,54L311,55 M311,54L312,55 M312,54L313,55 M313,54L314,55 M244,55L245,56 M245,55L246,56 M246,55L247,56 M309,55L310,56 M310,55L311,56 M312,55L313,56 M313,55L314,56 M243,56L244,57 M244,56L245,57 M245,56L246,57 M246,56L247,57 M309,56L310,57 M310,56L311,57 M311,56L312,57 M312,56L313,57 M243,57L244,58 M244,57L245,58 M245,57L246,58 M246,57L247,58 M308,57L309,58 M309,57L310,58 M310,57L311,58 M311,57L312,58 M312,57L313,58 M242,58L243,59 M243,58L244,59 M245,58L246,59 M246,58L247,59 M308,58L309,59 M309,58L310,59 M310,58L311,59 M311,58L312,59 M241,59L242,60 M242,59L243,60 M244,59L245,60 M245,59L246,60 M308,59L309,60 M309,59L310,60 M310,59L311,60 M311,59L312,60 M240,60L241,61 M241,60L242,61 M242,60L243,61 M244,60L245,61 M245,60L246,61 M307,60L308,61 M308,60L309,61 M309,60L310,61 M310,60L311,61 M239,61L240,62 M240,61L241,62 M241,61L242,62 M243,61L244,62 M244,61L245,62 M245,61L246,62 M307,61L308,62 M308,61L309,62 M309,61L310,62 M310,61L311,62 M237,62L238,63 M238,62L239,63 M239,62L240,63 M240,62L241,63 M243,62L244,63 M244,62L245,63 M307,62L308,63 M308,62L309,63 M309,62L310,63 M236,63L237,64 M237,63L238,64 M238,63L239,64 M242,63L243,64 M243,63L244,64 M244,63L245,64 M306,63L307,64 M307,63L308,64 M308,63L309,64 M309,63L310,64 M235,64L236,65 M236,64L237,65 M237,64L238,65 M242,64L243,65 M243,64L244,65 M306,64L307,65 M307,64L308,65 M308,64L309,65 M234,65L235,66 M235,65L236,66 M236,65L237,66 M242,65L243,66 M243,65L244,66 M306,65L307,66 M307,65L308,66 M308,65L309,66 M232,66L233,67 M233,66L234,67 M234,66L235,67 M241,66L242,67 M242,66L243,67 M305,66L306,67 M306,66L307,67 M307,66L308,67 M231,67L232,68 M232,67L233,68 M233,67L234,68 M241,67L242,68 M242,67L243,68 M305,67L306,68 M306,67L307,68 M307,67L308,68 M230,68L231,69 M231,68L232,69 M232,68L233,69 M240,68L241,69 M241,68L242,69 M305,68L306,69 M306,68L307,69 M229,69L230,70 M230,69L231,70 M231,69L232,70 M240,69L241,70 M241,69L242,70 M304,69L305,70 M305,69L306,70 M306,69L307,70 M228,70L229,71 M229,70L230,71 M230,70L231,71 M239,70L240,71 M240,70L241,71 M241,70L242,71 M304,70L305,71 M305,70L306,71 M226,71L227,72 M227,71L228,72 M228,71L229,72 M239,71L240,72 M240,71L241,72 M304,71L305,72 M305,71L306,72 M225,72L226,73 M226,72L227,73 M227,72L228,73 M238,72L239,73 M239,72L240,73 M240,72L241,73 M303,72L304,73 M304,72L305,73 M224,73L225,74 M225,73L226,74 M226,73L227,74 M238,73L239,74 M239,73L240,74 M303,73L304,74 M304,73L305,74 M223,74L224,75 M224,74L225,75 M225,74L226,75 M238,74L239,75 M239,74L240,75 M302,74L303,75 M303,74L304,75 M304,74L305,75 M222,75L223,76 M223,75L224,76 M224,75L225,76 M237,75L238,76 M238,75L239,76 M302,75L303,76 M303,75L304,76 M221,76L222,77 M222,76L223,77 M223,76L224,77 M237,76L238,77 M238,76L239,77 M301,76L302,77 M302,76L303,77 M303,76L304,77 M219,77L220,78 M220,77L221,78 M221,77L222,78 M222,77L223,78 M236,77L237,78 M237,77L238,78 M301,77L302,78 M302,77L303,78 M218,78L219,79 M219,78L220,79 M220,78L221,79 M236,78L237,79 M237,78L238,79 M300,78L301,79 M301,78L302,79 M302,78L303,79 M216,79L217,80 M217,79L218,80 M218,79L219,80 M219,79L220,80 M235,79L236,80 M236,79L237,80 M300,79L301,80 M301,79L302,80 M302,79L303,80 M215,80L216,81 M216,80L217,81 M217,80L218,81 M235,80L236,81 M236,80L237,81 M299,80L300,81 M300,80L301,81 M301,80L302,81 M214,81L215,82 M215,81L216,82 M216,81L217,82 M234,81L235,82 M235,81L236,82 M236,81L237,82 M299,81L300,82 M300,81L301,82 M301,81L302,82 M212,82L213,83 M213,82L214,83 M214,82L215,83 M215,82L216,83 M234,82L235,83 M235,82L236,83 M298,82L299,83 M299,82L300,83 M300,82L301,83 M211,83L212,84 M212,83L213,84 M213,83L214,84 M233,83L234,84 M234,83L235,84 M235,83L236,84 M298,83L299,84 M299,83L300,84 M300,83L301,84 M209,84L210,85 M210,84L211,85 M211,84L212,85 M212,84L213,85 M233,84L234,85 M234,84L235,85 M297,84L298,85 M298,84L299,85 M299,84L300,85 M208,85L209,86 M209,85L210,86 M210,85L211,86 M233,85L234,86 M234,85L235,86 M297,85L298,86 M298,85L299,86 M299,85L300,86 M206,86L207,87 M207,86L208,87 M208,86L209,87 M209,86L210,87 M232,86L233,87 M233,86L234,87 M296,86L297,87 M297,86L298,87 M298,86L299,87 M299,86L300,87 M204,87L205,88 M205,87L206,88 M206,87L207,88 M207,87L208,88 M232,87L233,88 M233,87L234,88 M296,87L297,88 M297,87L298,88 M298,87L299,88 M203,88L204,89 M204,88L205,89 M205,88L206,89 M231,88L232,89 M232,88L233,89 M295,88L296,89 M296,88L297,89 M297,88L298,89 M298,88L299,89 M201,89L202,90 M202,89L203,90 M203,89L204,90 M204,89L205,90 M231,89L232,90 M232,89L233,90 M295,89L296,90 M296,89L297,90 M297,89L298,90 M199,90L200,91 M200,90L201,91 M201,90L202,91 M202,90L203,91 M230,90L231,91 M231,90L232,91 M294,90L295,91 M295,90L296,91 M296,90L297,91 M297,90L298,91 M198,91L199,92 M199,91L200,92 M200,91L201,92 M201,91L202,92 M230,91L231,92 M231,91L232,92 M294,91L295,92 M295,91L296,92 M296,91L297,92 M196,92L197,93 M197,92L198,93 M198,92L199,93 M199,92L200,93 M229,92L230,93 M230,92L231,93 M231,92L232,93 M293,92L294,93 M294,92L295,93 M295,92L296,93 M296,92L297,93 M194,93L195,94 M195,93L196,94 M196,93L197,94 M197,93L198,94 M229,93L230,94 M230,93L231,94 M293,93L294,94 M294,93L295,94 M295,93L296,94 M193,94L194,95 M194,94L195,95 M195,94L196,95 M196,94L197,95 M228,94L229,95 M229,94L230,95 M230,94L231,95 M292,94L293,95 M293,94L294,95 M294,94L295,95 M295,94L296,95 M191,95L192,96 M192,95L193,96 M193,95L194,96 M194,95L195,96 M228,95L229,96 M229,95L230,96 M292,95L293,96 M293,95L294,96 M294,95L295,96 M189,96L190,97 M190,96L191,97 M191,96L192,97 M192,96L193,97 M228,96L229,97 M229,96L230,97 M291,96L292,97 M292,96L293,97 M293,96L294,97 M294,96L295,97 M187,97L188,98 M188,97L189,98 M189,97L190,98 M190,97L191,98 M227,97L228,98 M228,97L229,98 M291,97L292,98 M292,97L293,98 M293,97L294,98 M186,98L187,99 M187,98L188,99 M188,98L189,99 M189,98L190,99 M226,98L227,99 M227,98L228,99 M228,98L229,99 M290,98L291,99 M291,98L292,99 M292,98L293,99 M184,99L185,100 M185,99L186,100 M186,99L187,100 M187,99L188,100 M226,99L227,100 M227,99L228,100 M289,99L290,100 M290,99L291,100 M291,99L292,100 M292,99L293,100 M183,100L184,101 M184,100L185,101 M185,100L186,101 M186,100L187,101 M225,100L226,101 M226,100L227,101 M227,100L228,101 M289,100L290,101 M290,100L291,101 M291,100L292,101 M182,101L183,102 M183,101L184,102 M184,101L185,102 M225,101L226,102 M226,101L227,102 M288,101L289,102 M289,101L290,102 M290,101L291,102 M180,102L181,103 M181,102L182,103 M182,102L183,103 M183,102L184,103 M224,102L225,103 M225,102L226,103 M288,102L289,103 M289,102L290,103 M290,102L291,103 M179,103L180,104 M180,103L181,104 M181,103L182,104 M223,103L224,104 M224,103L225,104 M225,103L226,104 M287,103L288,104 M288,103L289,104 M289,103L290,104 M178,104L179,105 M179,104L180,105 M180,104L181,105 M223,104L224,105 M224,104L225,105 M287,104L288,105 M288,104L289,105 M316,104L317,105 M317,104L318,105 M318,104L319,105 M319,104L320,105 M320,104L321,105 M321,104L322,105 M322,104L323,105 M323,104L324,105 M324,104L325,105 M325,104L326,105 M326,104L327,105 M327,104L328,105 M177,105L178,106 M178,105L179,106 M179,105L180,106 M222,105L223,106 M223,105L224,106 M224,105L225,106 M286,105L287,106 M287,105L288,106 M288,105L289,106 M313,105L314,106 M314,105L315,106 M315,105L316,106 M316,105L317,106 M317,105L318,106 M318,105L319,106 M319,105L320,106 M320,105L321,106 M321,105L322,106 M322,105L323,106 M323,105L324,106 M324,105L325,106 M325,105L326,106 M326,105L327,106 M327,105L328,106 M176,106L177,107 M177,106L178,107 M178,106L179,107 M222,106L223,107 M223,106L224,107 M286,106L287,107 M287,106L288,107 M309,106L310,107 M310,106L311,107 M311,106L312,107 M312,106L313,107 M313,106L314,107 M314,106L315,107 M315,106L316,107 M326,106L327,107 M327,106L328,107 M175,107L176,108 M176,107L177,108 M177,107L178,108 M221,107L222,108 M222,107L223,108 M285,107L286,108 M286,107L287,108 M287,107L288,108 M307,107L308,108 M308,107L309,108 M309,107L310,108 M310,107L311,108 M311,107L312,108 M312,107L313,108 M326,107L327,108 M327,107L328,108 M174,108L175,109 M175,108L176,109 M176,108L177,109 M220,108L221,109 M221,108L222,109 M222,108L223,109 M284,108L285,109 M285,108L286,109 M286,108L287,109 M305,108L306,109 M306,108L307,109 M307,108L308,109 M308,108L309,109 M309,108L310,109 M326,108L327,109 M327,108L328,109 M173,109L174,110 M174,109L175,110 M175,109L176,110 M220,109L221,110 M221,109L222,110 M283,109L284,110 M284,109L285,110 M285,109L286,110 M303,109L304,110 M304,109L305,110 M305,109L306,110 M306,109L307,110 M326,109L327,110 M327,109L328,110 M172,110L173,111 M173,110L174,111 M174,110L175,111 M219,110L220,111 M220,110L221,111 M221,110L222,111 M282,110L283,111 M283,110L284,111 M284,110L285,111 M285,110L286,111 M301,110L302,111 M302,110L303,111 M303,110L304,111 M304,110L305,111 M326,110L327,111 M327,110L328,111 M171,111L172,112 M172,111L173,112 M173,111L174,112 M219,111L220,112 M220,111L221,112 M281,111L282,112 M282,111L283,112 M283,111L284,112 M284,111L285,112 M299,111L300,112 M300,111L301,112 M301,111L302,112 M302,111L303,112 M325,111L326,112 M326,111L327,112 M170,112L171,113 M171,112L172,113 M172,112L173,113 M218,112L219,113 M219,112L220,113 M280,112L281,113 M281,112L282,113 M282,112L283,113 M283,112L284,113 M284,112L285,113 M297,112L298,113 M298,112L299,113 M299,112L300,113 M300,112L301,113 M325,112L326,113 M326,112L327,113 M169,113L170,114 M170,113L171,114 M171,113L172,114 M217,113L218,114 M218,113L219,114 M219,113L220,114 M279,113L280,114 M280,113L281,114 M281,113L282,114 M282,113L283,114 M283,113L284,114 M295,113L296,114 M296,113L297,114 M297,113L298,114 M298,113L299,114 M325,113L326,114 M326,113L327,114 M168,114L169,115 M169,114L170,115 M170,114L171,115 M217,114L218,115 M218,114L219,115 M278,114L279,115 M279,114L280,115 M280,114L281,115 M282,114L283,115 M283,114L284,115 M294,114L295,115 M295,114L296,115 M296,114L297,115 M325,114L326,115 M326,114L327,115 M166,115L167,116 M167,115L168,116 M168,115L169,116 M169,115L170,116 M216,115L217,116 M217,115L218,116 M218,115L219,116 M277,115L278,116 M278,115L279,116 M279,115L280,116 M281,115L282,116 M282,115L283,116 M292,115L293,116 M293,115L294,116 M294,115L295,116 M295,115L296,116 M324,115L325,116 M325,115L326,116 M348,115L349,116 M349,115L350,116 M350,115L351,116 M351,115L352,116 M352,115L353,116 M353,115L354,116 M354,115L355,116 M355,115L356,116 M356,115L357,116 M357,115L358,116 M358,115L359,116 M359,115L360,116 M360,115L361,116 M361,115L362,116 M362,115L363,116 M363,115L364,116 M364,115L365,116 M365,115L366,116 M366,115L367,116 M367,115L368,116 M368,115L369,116 M369,115L370,116 M165,116L166,117 M166,116L167,117 M167,116L168,117 M216,116L217,117 M217,116L218,117 M276,116L277,117 M277,116L278,117 M278,116L279,117 M280,116L281,117 M281,116L282,117 M282,116L283,117 M291,116L292,117 M292,116L293,117 M293,116L294,117 M324,116L325,117 M325,116L326,117 M344,116L345,117 M345,116L346,117 M346,116L347,117 M347,116L348,117 M348,116L349,117 M349,116L350,117 M350,116L351,117 M351,116L352,117 M352,116L353,117 M353,116L354,117 M354,116L355,117 M355,116L356,117 M356,116L357,117 M357,116L358,117 M358,116L359,117 M359,116L360,117 M360,116L361,117 M361,116L362,117 M362,116L363,117 M363,116L364,117 M364,116L365,117 M365,116L366,117 M366,116L367,117 M367,116L368,117 M368,116L369,117 M369,116L370,117 M370,116L371,117 M371,116L372,117 M372,116L373,117 M373,116L374,117 M374,116L375,117 M166,117L167,118 M215,117L216,118 M216,117L217,118 M275,117L276,118 M276,117L277,118 M277,117L278,118 M280,117L281,118 M281,117L282,118 M290,117L291,118 M291,117L292,118 M292,117L293,118 M323,117L324,118 M324,117L325,118 M325,117L326,118 M343,117L344,118 M344,117L345,118 M345,117L346,118 M346,117L347,118 M347,117L348,118 M370,117L371,118 M371,117L372,118 M372,117L373,118 M373,117L374,118 M374,117L375,118 M375,117L376,118 M376,117L377,118 M214,118L215,119 M215,118L216,119 M216,118L217,119 M274,118L275,119 M275,118L276,119 M276,118L277,119 M279,118L280,119 M280,118L281,119 M281,118L282,119 M290,118L291,119 M291,118L292,119 M323,118L324,119 M324,118L325,119 M342,118L343,119 M343,118L344,119 M344,118L345,119 M374,118L375,119 M375,118L376,119 M376,118L377,119 M377,118L378,119 M378,118L379,119 M214,119L215,120 M215,119L216,120 M273,119L274,120 M274,119L275,120 M275,119L276,120 M279,119L280,120 M280,119L281,120 M290,119L291,120 M291,119L292,120 M322,119L323,120 M323,119L324,120 M341,119L342,120 M342,119L343,120 M343,119L344,120 M377,119L378,120 M378,119L379,120 M379,119L380,120 M381,119L382,120 M382,119L383,120 M213,120L214,121 M214,120L215,121 M215,120L216,121 M272,120L273,121 M273,120L274,121 M274,120L275,121 M278,120L279,121 M279,120L280,121 M290,120L291,121 M291,120L292,121 M321,120L322,121 M322,120L323,121 M323,120L324,121 M340,120L341,121 M341,120L342,121 M342,120L343,121 M378,120L379,121 M379,120L380,121 M380,120L381,121 M381,120L382,121 M382,120L383,121 M213,121L214,122 M214,121L215,122 M271,121L272,122 M272,121L273,122 M273,121L274,122 M277,121L278,122 M278,121L279,122 M279,121L280,122 M290,121L291,122 M291,121L292,122 M321,121L322,122 M322,121L323,122 M339,121L340,122 M340,121L341,122 M341,121L342,122 M379,121L380,122 M380,121L381,122 M381,121L382,122 M382,121L383,122 M212,122L213,123 M213,122L214,123 M269,122L270,123 M270,122L271,123 M271,122L272,123 M272,122L273,123 M277,122L278,123 M278,122L279,123 M290,122L291,123 M291,122L292,123 M292,122L293,123 M293,122L294,123 M320,122L321,123 M321,122L322,123 M339,122L340,123 M340,122L341,123 M380,122L381,123 M381,122L382,123 M382,122L383,123 M383,122L384,123 M211,123L212,124 M212,123L213,124 M213,123L214,124 M268,123L269,124 M269,123L270,124 M270,123L271,124 M276,123L277,124 M277,123L278,124 M278,123L279,124 M292,123L293,124 M293,123L294,124 M294,123L295,124 M295,123L296,124 M319,123L320,124 M320,123L321,124 M321,123L322,124 M338,123L339,124 M339,123L340,124 M380,123L381,124 M381,123L382,124 M382,123L383,124 M383,123L384,124 M384,123L385,124 M211,124L212,125 M212,124L213,125 M267,124L268,125 M268,124L269,125 M269,124L270,125 M276,124L277,125 M277,124L278,125 M293,124L294,125 M294,124L295,125 M295,124L296,125 M296,124L297,125 M297,124L298,125 M319,124L320,125 M320,124L321,125 M338,124L339,125 M339,124L340,125 M380,124L381,125 M381,124L382,125 M382,124L383,125 M383,124L384,125 M384,124L385,125 M385,124L386,125 M210,125L211,126 M211,125L212,126 M212,125L213,126 M265,125L266,126 M266,125L267,126 M267,125L268,126 M268,125L269,126 M275,125L276,126 M276,125L277,126 M295,125L296,126 M296,125L297,126 M297,125L298,126 M298,125L299,126 M299,125L300,126 M300,125L301,126 M318,125L319,126 M319,125L320,126 M337,125L338,126 M338,125L339,126 M379,125L380,126 M380,125L381,126 M381,125L382,126 M382,125L383,126 M384,125L385,126 M385,125L386,126 M210,126L211,127 M211,126L212,127 M264,126L265,127 M265,126L266,127 M266,126L267,127 M274,126L275,127 M275,126L276,127 M276,126L277,127 M298,126L299,127 M299,126L300,127 M300,126L301,127 M301,126L302,127 M302,126L303,127 M303,126L304,127 M304,126L305,127 M317,126L318,127 M318,126L319,127 M319,126L320,127 M337,126L338,127 M338,126L339,127 M379,126L380,127 M380,126L381,127 M381,126L382,127 M382,126L383,127 M385,126L386,127 M386,126L387,127 M209,127L210,128 M210,127L211,128 M263,127L264,128 M264,127L265,128 M265,127L266,128 M274,127L275,128 M275,127L276,128 M301,127L302,128 M302,127L303,128 M303,127L304,128 M304,127L305,128 M305,127L306,128 M306,127L307,128 M307,127L308,128 M308,127L309,128 M309,127L310,128 M310,127L311,128 M316,127L317,128 M317,127L318,128 M318,127L319,128 M336,127L337,128 M337,127L338,128 M379,127L380,128 M380,127L381,128 M381,127L382,128 M382,127L383,128 M385,127L386,128 M386,127L387,128 M208,128L209,129 M209,128L210,129 M210,128L211,129 M261,128L262,129 M262,128L263,129 M263,128L264,129 M264,128L265,129 M273,128L274,129 M274,128L275,129 M275,128L276,129 M304,128L305,129 M305,128L306,129 M306,128L307,129 M307,128L308,129 M308,128L309,129 M309,128L310,129 M310,128L311,129 M311,128L312,129 M312,128L313,129 M313,128L314,129 M314,128L315,129 M315,128L316,129 M316,128L317,129 M317,128L318,129 M336,128L337,129 M337,128L338,129 M378,128L379,129 M379,128L380,129 M381,128L382,129 M382,128L383,129 M383,128L384,129 M385,128L386,129 M386,128L387,129 M208,129L209,130 M209,129L210,130 M260,129L261,130 M261,129L262,130 M262,129L263,130 M273,129L274,130 M274,129L275,130 M310,129L311,130 M311,129L312,130 M312,129L313,130 M313,129L314,130 M314,129L315,130 M315,129L316,130 M316,129L317,130 M317,129L318,130 M318,129L319,130 M319,129L320,130 M320,129L321,130 M321,129L322,130 M322,129L323,130 M323,129L324,130 M336,129L337,130 M337,129L338,130 M377,129L378,130 M378,129L379,130 M379,129L380,130 M382,129L383,130 M383,129L384,130 M386,129L387,130 M387,129L388,130 M207,130L208,131 M208,130L209,131 M209,130L210,131 M259,130L260,131 M260,130L261,131 M261,130L262,131 M272,130L273,131 M273,130L274,131 M314,130L315,131 M315,130L316,131 M316,130L317,131 M318,130L319,131 M319,130L320,131 M320,130L321,131 M321,130L322,131 M322,130L323,131 M323,130L324,131 M324,130L325,131 M325,130L326,131 M326,130L327,131 M327,130L328,131 M328,130L329,131 M329,130L330,131 M330,130L331,131 M331,130L332,131 M332,130L333,131 M333,130L334,131 M334,130L335,131 M335,130L336,131 M336,130L337,131 M337,130L338,131 M377,130L378,131 M378,130L379,131 M382,130L383,131 M383,130L384,131 M386,130L387,131 M387,130L388,131 M207,131L208,132 M208,131L209,132 M258,131L259,132 M259,131L260,132 M260,131L261,132 M272,131L273,132 M273,131L274,132 M313,131L314,132 M314,131L315,132 M315,131L316,132 M324,131L325,132 M325,131L326,132 M326,131L327,132 M327,131L328,132 M328,131L329,132 M329,131L330,132 M330,131L331,132 M331,131L332,132 M332,131L333,132 M333,131L334,132 M334,131L335,132 M335,131L336,132 M336,131L337,132 M337,131L338,132 M338,131L339,132 M339,131L340,132 M340,131L341,132 M341,131L342,132 M342,131L343,132 M343,131L344,132 M344,131L345,132 M345,131L346,132 M346,131L347,132 M347,131L348,132 M376,131L377,132 M377,131L378,132 M378,131L379,132 M382,131L383,132 M383,131L384,132 M386,131L387,132 M387,131L388,132 M206,132L207,133 M207,132L208,133 M256,132L257,133 M257,132L258,133 M258,132L259,133 M259,132L260,133 M271,132L272,133 M272,132L273,133 M312,132L313,133 M313,132L314,133 M314,132L315,133 M335,132L336,133 M336,132L337,133 M337,132L338,133 M338,132L339,133 M339,132L340,133 M340,132L341,133 M341,132L342,133 M342,132L343,133 M343,132L344,133 M344,132L345,133 M345,132L346,133 M346,132L347,133 M347,132L348,133 M348,132L349,133 M349,132L350,133 M350,132L351,133 M351,132L352,133 M352,132L353,133 M353,132L354,133 M354,132L355,133 M355,132L356,133 M356,132L357,133 M357,132L358,133 M358,132L359,133 M376,132L377,133 M377,132L378,133 M383,132L384,133 M384,132L385,133 M387,132L388,133 M388,132L389,133 M206,133L207,134 M207,133L208,134 M255,133L256,134 M256,133L257,134 M257,133L258,134 M271,133L272,134 M272,133L273,134 M312,133L313,134 M313,133L314,134 M335,133L336,134 M336,133L337,134 M348,133L349,134 M349,133L350,134 M350,133L351,134 M351,133L352,134 M352,133L353,134 M353,133L354,134 M354,133L355,134 M355,133L356,134 M356,133L357,134 M357,133L358,134 M358,133L359,134 M359,133L360,134 M360,133L361,134 M361,133L362,134 M362,133L363,134 M363,133L364,134 M364,133L365,134 M365,133L366,134 M366,133L367,134 M367,133L368,134 M375,133L376,134 M376,133L377,134 M383,133L384,134 M384,133L385,134 M387,133L388,134 M388,133L389,134 M205,134L206,135 M206,134L207,135 M253,134L254,135 M254,134L255,135 M255,134L256,135 M256,134L257,135 M270,134L271,135 M271,134L272,135 M272,134L273,135 M311,134L312,135 M312,134L313,135 M335,134L336,135 M336,134L337,135 M337,134L338,135 M359,134L360,135 M360,134L361,135 M361,134L362,135 M362,134L363,135 M363,134L364,135 M364,134L365,135 M365,134L366,135 M366,134L367,135 M367,134L368,135 M368,134L369,135 M369,134L370,135 M370,134L371,135 M371,134L372,135 M372,134L373,135 M373,134L374,135 M374,134L375,135 M375,134L376,135 M376,134L377,135 M377,134L378,135 M378,134L379,135 M379,134L380,135 M380,134L381,135 M381,134L382,135 M382,134L383,135 M383,134L384,135 M384,134L385,135 M385,134L386,135 M386,134L387,135 M387,134L388,135 M388,134L389,135 M204,135L205,136 M205,135L206,136 M206,135L207,136 M251,135L252,136 M252,135L253,136 M253,135L254,136 M254,135L255,136 M270,135L271,136 M271,135L272,136 M310,135L311,136 M311,135L312,136 M312,135L313,136 M336,135L337,136 M337,135L338,136 M368,135L369,136 M369,135L370,136 M370,135L371,136 M371,135L372,136 M372,135L373,136 M373,135L374,136 M374,135L375,136 M375,135L376,136 M376,135L377,136 M377,135L378,136 M378,135L379,136 M379,135L380,136 M380,135L381,136 M381,135L382,136 M382,135L383,136 M383,135L384,136 M384,135L385,136 M385,135L386,136 M386,135L387,136 M387,135L388,136 M204,136L205,137 M205,136L206,137 M250,136L251,137 M251,136L252,137 M252,136L253,137 M253,136L254,137 M270,136L271,137 M271,136L272,137 M309,136L310,137 M310,136L311,137 M311,136L312,137 M337,136L338,137 M338,136L339,137 M371,136L372,137 M372,136L373,137 M373,136L374,137 M385,136L386,137 M386,136L387,137 M203,137L204,138 M204,137L205,138 M205,137L206,138 M248,137L249,138 M249,137L250,138 M250,137L251,138 M251,137L252,138 M269,137L270,138 M270,137L271,138 M307,137L308,138 M308,137L309,138 M309,137L310,138 M310,137L311,138 M337,137L338,138 M338,137L339,138 M339,137L340,138 M370,137L371,138 M371,137L372,138 M372,137L373,138 M385,137L386,138 M386,137L387,138 M203,138L204,139 M204,138L205,139 M246,138L247,139 M247,138L248,139 M248,138L249,139 M249,138L250,139 M269,138L270,139 M270,138L271,139 M306,138L307,139 M307,138L308,139 M308,138L309,139 M338,138L339,139 M339,138L340,139 M340,138L341,139 M341,138L342,139 M368,138L369,139 M369,138L370,139 M370,138L371,139 M371,138L372,139 M386,138L387,139 M387,138L388,139 M202,139L203,140 M203,139L204,140 M244,139L245,140 M245,139L246,140 M246,139L247,140 M247,139L248,140 M268,139L269,140 M269,139L270,140 M270,139L271,140 M304,139L305,140 M305,139L306,140 M306,139L307,140 M307,139L308,140 M340,139L341,140 M341,139L342,140 M342,139L343,140 M343,139L344,140 M366,139L367,140 M367,139L368,140 M368,139L369,140 M369,139L370,140 M370,139L371,140 M386,139L387,140 M387,139L388,140 M388,139L389,140 M202,140L203,141 M203,140L204,141 M243,140L244,141 M244,140L245,141 M245,140L246,141 M246,140L247,141 M268,140L269,141 M269,140L270,141 M303,140L304,141 M304,140L305,141 M305,140L306,141 M341,140L342,141 M342,140L343,141 M343,140L344,141 M344,140L345,141 M345,140L346,141 M346,140L347,141 M364,140L365,141 M365,140L366,141 M366,140L367,141 M367,140L368,141 M368,140L369,141 M387,140L388,141 M388,140L389,141 M201,141L202,142 M202,141L203,142 M241,141L242,142 M242,141L243,142 M243,141L244,142 M244,141L245,142 M268,141L269,142 M269,141L270,142 M302,141L303,142 M303,141L304,142 M304,141L305,142 M344,141L345,142 M345,141L346,142 M346,141L347,142 M347,141L348,142 M348,141L349,142 M349,141L350,142 M350,141L351,142 M358,141L359,142 M359,141L360,142 M360,141L361,142 M361,141L362,142 M362,141L363,142 M363,141L364,142 M364,141L365,142 M365,141L366,142 M366,141L367,142 M387,141L388,142 M388,141L389,142 M389,141L390,142 M200,142L201,143 M201,142L202,143 M202,142L203,143 M239,142L240,143 M240,142L241,143 M241,142L242,143 M242,142L243,143 M267,142L268,143 M268,142L269,143 M300,142L301,143 M301,142L302,143 M302,142L303,143 M303,142L304,143 M347,142L348,143 M348,142L349,143 M349,142L350,143 M350,142L351,143 M351,142L352,143 M352,142L353,143 M353,142L354,143 M354,142L355,143 M355,142L356,143 M356,142L357,143 M357,142L358,143 M358,142L359,143 M359,142L360,143 M360,142L361,143 M361,142L362,143 M362,142L363,143 M363,142L364,143 M388,142L389,143 M389,142L390,143 M200,143L201,144 M201,143L202,144 M237,143L238,144 M238,143L239,144 M239,143L240,144 M240,143L241,144 M267,143L268,144 M268,143L269,144 M299,143L300,144 M300,143L301,144 M301,143L302,144 M351,143L352,144 M352,143L353,144 M353,143L354,144 M354,143L355,144 M355,143L356,144 M356,143L357,144 M357,143L358,144 M358,143L359,144 M389,143L390,144 M390,143L391,144 M199,144L200,145 M200,144L201,145 M201,144L202,145 M236,144L237,145 M237,144L238,145 M238,144L239,145 M239,144L240,145 M266,144L267,145 M267,144L268,145 M297,144L298,145 M298,144L299,145 M299,144L300,145 M300,144L301,145 M389,144L390,145 M390,144L391,145 M391,144L392,145 M199,145L200,146 M200,145L201,146 M234,145L235,146 M235,145L236,146 M236,145L237,146 M237,145L238,146 M265,145L266,146 M266,145L267,146 M267,145L268,146 M295,145L296,146 M296,145L297,146 M297,145L298,146 M298,145L299,146 M390,145L391,146 M391,145L392,146 M392,145L393,146 M393,145L394,146 M198,146L199,147 M199,146L200,147 M232,146L233,147 M233,146L234,147 M234,146L235,147 M235,146L236,147 M265,146L266,147 M266,146L267,147 M293,146L294,147 M294,146L295,147 M295,146L296,147 M296,146L297,147 M392,146L393,147 M393,146L394,147 M394,146L395,147 M197,147L198,148 M198,147L199,148 M199,147L200,148 M231,147L232,148 M232,147L233,148 M233,147L234,148 M234,147L235,148 M264,147L265,148 M265,147L266,148 M266,147L267,148 M291,147L292,148 M292,147L293,148 M293,147L294,148 M294,147L295,148 M393,147L394,148 M394,147L395,148 M395,147L396,148 M396,147L397,148 M197,148L198,149 M198,148L199,149 M229,148L230,149 M230,148L231,149 M231,148L232,149 M232,148L233,149 M264,148L265,149 M265,148L266,149 M289,148L290,149 M290,148L291,149 M291,148L292,149 M292,148L293,149 M395,148L396,149 M396,148L397,149 M397,148L398,149 M196,149L197,150 M197,149L198,150 M198,149L199,150 M227,149L228,150 M228,149L229,150 M229,149L230,150 M230,149L231,150 M263,149L264,150 M264,149L265,150 M287,149L288,150 M288,149L289,150 M289,149L290,150 M290,149L291,150 M396,149L397,150 M397,149L398,150 M398,149L399,150 M399,149L400,150 M196,150L197,151 M197,150L198,151 M225,150L226,151 M226,150L227,151 M227,150L228,151 M228,150L229,151 M263,150L264,151 M264,150L265,151 M285,150L286,151 M286,150L287,151 M287,150L288,151 M288,150L289,151 M398,150L399,151 M399,150L400,151 M400,150L401,151 M401,150L402,151 M195,151L196,152 M196,151L197,152 M224,151L225,152 M225,151L226,152 M226,151L227,152 M227,151L228,152 M263,151L264,152 M264,151L265,152 M283,151L284,152 M284,151L285,152 M285,151L286,152 M286,151L287,152 M399,151L400,152 M400,151L401,152 M401,151L402,152 M402,151L403,152 M194,152L195,153 M195,152L196,153 M196,152L197,153 M222,152L223,153 M223,152L224,153 M224,152L225,153 M225,152L226,153 M263,152L264,153 M264,152L265,153 M282,152L283,153 M283,152L284,153 M284,152L285,153 M285,152L286,153 M401,152L402,153 M402,152L403,153 M403,152L404,153 M404,152L405,153 M405,152L406,153 M194,153L195,154 M195,153L196,154 M220,153L221,154 M221,153L222,154 M222,153L223,154 M223,153L224,154 M263,153L264,154 M264,153L265,154 M280,153L281,154 M281,153L282,154 M282,153L283,154 M283,153L284,154 M403,153L404,154 M404,153L405,154 M405,153L406,154 M406,153L407,154 M407,153L408,154 M450,153L451,154 M193,154L194,155 M194,154L195,155 M195,154L196,155 M218,154L219,155 M219,154L220,155 M220,154L221,155 M221,154L222,155 M263,154L264,155 M264,154L265,155 M278,154L279,155 M279,154L280,155 M280,154L281,155 M281,154L282,155 M405,154L406,155 M406,154L407,155 M407,154L408,155 M408,154L409,155 M409,154L410,155 M450,154L451,155 M451,154L452,155 M193,155L194,156 M194,155L195,156 M217,155L218,156 M218,155L219,156 M219,155L220,156 M220,155L221,156 M263,155L264,156 M264,155L265,156 M276,155L277,156 M277,155L278,156 M278,155L279,156 M279,155L280,156 M408,155L409,156 M409,155L410,156 M410,155L411,156 M411,155L412,156 M412,155L413,156 M449,155L450,156 M450,155L451,156 M192,156L193,157 M193,156L194,157 M215,156L216,157 M216,156L217,157 M217,156L218,157 M218,156L219,157 M263,156L264,157 M264,156L265,157 M275,156L276,157 M276,156L277,157 M277,156L278,157 M278,156L279,157 M410,156L411,157 M411,156L412,157 M412,156L413,157 M413,156L414,157 M414,156L415,157 M415,156L416,157 M416,156L417,157 M447,156L448,157 M448,156L449,157 M449,156L450,157 M450,156L451,157 M191,157L192,158 M192,157L193,158 M193,157L194,158 M214,157L215,158 M215,157L216,158 M216,157L217,158 M263,157L264,158 M264,157L265,158 M272,157L273,158 M273,157L274,158 M274,157L275,158 M275,157L276,158 M276,157L277,158 M413,157L414,158 M414,157L415,158 M415,157L416,158 M416,157L417,158 M417,157L418,158 M418,157L419,158 M419,157L420,158 M420,157L421,158 M421,157L422,158 M422,157L423,158 M423,157L424,158 M445,157L446,158 M446,157L447,158 M447,157L448,158 M448,157L449,158 M191,158L192,159 M192,158L193,159 M213,158L214,159 M214,158L215,159 M215,158L216,159 M263,158L264,159 M264,158L265,159 M265,158L266,159 M266,158L267,159 M267,158L268,159 M268,158L269,159 M269,158L270,159 M270,158L271,159 M271,158L272,159 M272,158L273,159 M273,158L274,159 M274,158L275,159 M417,158L418,159 M418,158L419,159 M419,158L420,159 M420,158L421,159 M421,158L422,159 M422,158L423,159 M423,158L424,159 M424,158L425,159 M425,158L426,159 M426,158L427,159 M427,158L428,159 M428,158L429,159 M429,158L430,159 M430,158L431,159 M431,158L432,159 M432,158L433,159 M433,158L434,159 M434,158L435,159 M435,158L436,159 M436,158L437,159 M437,158L438,159 M438,158L439,159 M439,158L440,159 M440,158L441,159 M441,158L442,159 M442,158L443,159 M443,158L444,159 M444,158L445,159 M445,158L446,159 M446,158L447,159 M190,159L191,160 M191,159L192,160 M192,159L193,160 M211,159L212,160 M212,159L213,160 M213,159L214,160 M214,159L215,160 M264,159L265,160 M265,159L266,160 M266,159L267,160 M267,159L268,160 M268,159L269,160 M269,159L270,160 M270,159L271,160 M271,159L272,160 M424,159L425,160 M425,159L426,160 M426,159L427,160 M427,159L428,160 M428,159L429,160 M429,159L430,160 M430,159L431,160 M431,159L432,160 M432,159L433,160 M433,159L434,160 M434,159L435,160 M435,159L436,160 M436,159L437,160 M437,159L438,160 M438,159L439,160 M439,159L440,160 M440,159L441,160 M441,159L442,160 M442,159L443,160 M443,159L444,160 M444,159L445,160 M190,160L191,161 M191,160L192,161 M210,160L211,161 M211,160L212,161 M212,160L213,161 M189,161L190,162 M190,161L191,162 M208,161L209,162 M209,161L210,162 M210,161L211,162 M211,161L212,162 M188,162L189,163 M189,162L190,163 M190,162L191,163 M207,162L208,163 M208,162L209,163 M209,162L210,163 M188,163L189,164 M189,163L190,164 M205,163L206,164 M206,163L207,164 M207,163L208,164 M208,163L209,164 M187,164L188,165 M188,164L189,165 M204,164L205,165 M205,164L206,165 M206,164L207,165 M187,165L188,166 M188,165L189,166 M202,165L203,166 M203,165L204,166 M204,165L205,166 M205,165L206,166 M186,166L187,167 M187,166L188,167 M201,166L202,167 M202,166L203,167 M203,166L204,167 M186,167L187,168 M187,167L188,168 M199,167L200,168 M200,167L201,168 M201,167L202,168 M202,167L203,168 M186,168L187,169 M187,168L188,169 M198,168L199,169 M199,168L200,169 M200,168L201,169 M201,168L202,169 M185,169L186,170 M186,169L187,170 M197,169L198,170 M198,169L199,170 M199,169L200,170 M185,170L186,171 M186,170L187,171 M195,170L196,171 M196,170L197,171 M197,170L198,171 M198,170L199,171 M184,171L185,172 M185,171L186,172 M186,171L187,172 M194,171L195,172 M195,171L196,172 M196,171L197,172 M184,172L185,173 M185,172L186,173 M192,172L193,173 M193,172L194,173 M194,172L195,173 M195,172L196,173 M184,173L185,174 M185,173L186,174 M191,173L192,174 M192,173L193,174 M193,173L194,174 M184,174L185,175 M185,174L186,175 M189,174L190,175 M190,174L191,175 M191,174L192,175 M192,174L193,175 M183,175L184,176 M184,175L185,176 M185,175L186,176 M188,175L189,176 M189,175L190,176 M190,175L191,176 M183,176L184,177 M184,176L185,177 M186,176L187,177 M187,176L188,177 M188,176L189,177 M189,176L190,177 M183,177L184,178 M184,177L185,178 M185,177L186,178 M186,177L187,178 M187,177L188,178 M183,178L184,179 M184,178L185,179 M185,178L186,179 M186,178L187,179 M184,179L185,180 M185,179L186,180" fill="none" stroke="black" />
    </svg>