<svg xmlns="http://www.w3.org/2000/svg" width="800" height="250">
        <path d="M456,51L457,52 M457,51L458,52 M458,51L459,52 M459,51L460,52 M460,51L461,52 M461,51L462,52 M452,52L453,53 M453,52L454,53 M454,52L455,53 M455,52L456,53 M456,52L457,53 M457,52L458,53 M458,52L459,53 M459,52L460,53 M460,52L461,53 M461,52L462,53 M450,53L451,54 M451,53L452,54 M452,53L453,54 M453,53L454,54 M454,53L455,54 M455,53L456,54 M460,53L461,54 M461,53L462,54 M447,54L448,55 M448,54L449,55 M449,54L450,55 M450,54L451,55 M451,54L452,55 M460,54L461,55 M461,54L462,55 M445,55L446,56 M446,55L447,56 M447,55L448,56 M448,55L449,56 M449,55L450,56 M460,55L461,56 M461,55L462,56 M443,56L444,57 M444,56L445,57 M445,56L446,57 M446,56L447,57 M447,56L448,57 M460,56L461,57 M461,56L462,57 M441,57L442,58 M442,57L443,58 M443,57L444,58 M444,57L445,58 M445,57L446,58 M460,57L461,58 M461,57L462,58 M439,58L440,59 M440,58L441,59 M441,58L442,59 M442,58L443,59 M443,58L444,59 M460,58L461,59 M461,58L462,59 M437,59L438,60 M438,59L439,60 M439,59L440,60 M440,59L441,60 M441,59L442,60 M459,59L460,60 M460,59L461,60 M435,60L436,61 M436,60L437,61 M437,60L438,61 M438,60L439,61 M439,60L440,61 M459,60L460,61 M460,60L461,61 M433,61L434,62 M434,61L435,62 M435,61L436,62 M436,61L437,62 M459,61L460,62 M460,61L461,62 M431,62L432,63 M432,62L433,63 M433,62L434,63 M434,62L435,63 M459,62L460,63 M460,62L461,63 M428,63L429,64 M429,63L430,64 M430,63L431,64 M431,63L432,64 M432,63L433,64 M459,63L460,64 M460,63L461,64 M426,64L427,65 M427,64L428,65 M428,64L429,65 M429,64L430,65 M430,64L431,65 M459,64L460,65 M460,64L461,65 M424,65L425,66 M425,65L426,66 M426,65L427,66 M427,65L428,66 M428,65L429,66 M458,65L459,66 M459,65L460,66 M421,66L422,67 M422,66L423,67 M423,66L424,67 M424,66L425,67 M425,66L426,67 M458,66L459,67 M459,66L460,67 M419,67L420,68 M420,67L421,68 M421,67L422,68 M422,67L423,68 M423,67L424,68 M458,67L459,68 M459,67L460,68 M416,68L417,69 M417,68L418,69 M418,68L419,69 M419,68L420,69 M420,68L421,69 M458,68L459,69 M459,68L460,69 M414,69L415,70 M415,69L416,70 M416,69L417,70 M417,69L418,70 M418,69L419,70 M458,69L459,70 M459,69L460,70 M411,70L412,71 M412,70L413,71 M413,70L414,71 M414,70L415,71 M415,70L416,71 M416,70L417,71 M457,70L458,71 M458,70L459,71 M409,71L410,72 M410,71L411,72 M411,71L412,72 M412,71L413,72 M413,71L414,72 M457,71L458,72 M458,71L459,72 M407,72L408,73 M408,72L409,73 M409,72L410,73 M410,72L411,73 M411,72L412,73 M457,72L458,73 M458,72L459,73 M405,73L406,74 M406,73L407,74 M407,73L408,74 M408,73L409,74 M457,73L458,74 M458,73L459,74 M403,74L404,75 M404,74L405,75 M405,74L406,75 M406,74L407,75 M456,74L457,75 M457,74L458,75 M401,75L402,76 M402,75L403,76 M403,75L404,76 M404,75L405,76 M456,75L457,76 M457,75L458,76 M399,76L400,77 M400,76L401,77 M401,76L402,77 M402,76L403,77 M456,76L457,77 M457,76L458,77 M397,77L398,78 M398,77L399,78 M399,77L400,78 M400,77L401,78 M456,77L457,78 M457,77L458,78 M395,78L396,79 M396,78L397,79 M397,78L398,79 M398,78L399,79 M456,78L457,79 M457,78L458,79 M393,79L394,80 M394,79L395,80 M395,79L396,80 M396,79L397,80 M455,79L456,80 M456,79L457,80 M391,80L392,81 M392,80L393,81 M393,80L394,81 M394,80L395,81 M395,80L396,81 M455,80L456,81 M456,80L457,81 M389,81L390,82 M390,81L391,82 M391,81L392,82 M392,81L393,82 M393,81L394,82 M455,81L456,82 M456,81L457,82 M387,82L388,83 M388,82L389,83 M389,82L390,83 M390,82L391,83 M391,82L392,83 M455,82L456,83 M456,82L457,83 M385,83L386,84 M386,83L387,84 M387,83L388,84 M388,83L389,84 M389,83L390,84 M454,83L455,84 M455,83L456,84 M383,84L384,85 M384,84L385,85 M385,84L386,85 M386,84L387,85 M387,84L388,85 M454,84L455,85 M455,84L456,85 M382,85L383,86 M383,85L384,86 M384,85L385,86 M385,85L386,86 M454,85L455,86 M455,85L456,86 M380,86L381,87 M381,86L382,87 M382,86L383,87 M383,86L384,87 M454,86L455,87 M455,86L456,87 M378,87L379,88 M379,87L380,88 M380,87L381,88 M381,87L382,88 M453,87L454,88 M454,87L455,88 M376,88L377,89 M377,88L378,89 M378,88L379,89 M379,88L380,89 M453,88L454,89 M454,88L455,89 M374,89L375,90 M375,89L376,90 M376,89L377,90 M377,89L378,90 M453,89L454,90 M454,89L455,90 M372,90L373,91 M373,90L374,91 M374,90L375,91 M375,90L376,91 M453,90L454,91 M454,90L455,91 M371,91L372,92 M372,91L373,92 M373,91L374,92 M374,91L375,92 M452,91L453,92 M453,91L454,92 M454,91L455,92 M369,92L370,93 M370,92L371,93 M371,92L372,93 M372,92L373,93 M452,92L453,93 M453,92L454,93 M367,93L368,94 M368,93L369,94 M369,93L370,94 M370,93L371,94 M452,93L453,94 M453,93L454,94 M365,94L366,95 M366,94L367,95 M367,94L368,95 M368,94L369,95 M452,94L453,95 M453,94L454,95 M364,95L365,96 M365,95L366,96 M366,95L367,96 M367,95L368,96 M452,95L453,96 M453,95L454,96 M362,96L363,97 M363,96L364,97 M364,96L365,97 M365,96L366,97 M451,96L452,97 M452,96L453,97 M360,97L361,98 M361,97L362,98 M362,97L363,98 M363,97L364,98 M451,97L452,98 M452,97L453,98 M358,98L359,99 M359,98L360,99 M360,98L361,99 M361,98L362,99 M451,98L452,99 M452,98L453,99 M356,99L357,100 M357,99L358,100 M358,99L359,100 M359,99L360,100 M451,99L452,100 M452,99L453,100 M355,100L356,101 M356,100L357,101 M357,100L358,101 M358,100L359,101 M450,100L451,101 M451,100L452,101 M353,101L354,102 M354,101L355,102 M355,101L356,102 M356,101L357,102 M450,101L451,102 M451,101L452,102 M351,102L352,103 M352,102L353,103 M353,102L354,103 M354,102L355,103 M450,102L451,103 M451,102L452,103 M349,103L350,104 M350,103L351,104 M351,103L352,104 M352,103L353,104 M450,103L451,104 M451,103L452,104 M348,104L349,105 M349,104L350,105 M350,104L351,105 M351,104L352,105 M449,104L450,105 M450,104L451,105 M451,104L452,105 M346,105L347,106 M347,105L348,106 M348,105L349,106 M349,105L350,106 M449,105L450,106 M450,105L451,106 M344,106L345,107 M345,106L346,107 M346,106L347,107 M347,106L348,107 M449,106L450,107 M450,106L451,107 M342,107L343,108 M343,107L344,108 M344,107L345,108 M345,107L346,108 M449,107L450,108 M450,107L451,108 M341,108L342,109 M342,108L343,109 M343,108L344,109 M344,108L345,109 M449,108L450,109 M450,108L451,109 M339,109L340,110 M340,109L341,110 M341,109L342,110 M342,109L343,110 M448,109L449,110 M449,109L450,110 M337,110L338,111 M338,110L339,111 M339,110L340,111 M340,110L341,111 M448,110L449,111 M449,110L450,111 M336,111L337,112 M337,111L338,112 M338,111L339,112 M448,111L449,112 M449,111L450,112 M334,112L335,113 M335,112L336,113 M336,112L337,113 M337,112L338,113 M447,112L448,113 M448,112L449,113 M332,113L333,114 M333,113L334,114 M334,113L335,114 M335,113L336,114 M447,113L448,114 M448,113L449,114 M330,114L331,115 M331,114L332,115 M332,114L333,115 M333,114L334,115 M447,114L448,115 M448,114L449,115 M329,115L330,116 M330,115L331,116 M331,115L332,116 M332,115L333,116 M446,115L447,116 M447,115L448,116 M327,116L328,117 M328,116L329,117 M329,116L330,117 M330,116L331,117 M446,116L447,117 M447,116L448,117 M325,117L326,118 M326,117L327,118 M327,117L328,118 M328,117L329,118 M445,117L446,118 M446,117L447,118 M447,117L448,118 M324,118L325,119 M325,118L326,119 M326,118L327,119 M327,118L328,119 M445,118L446,119 M446,118L447,119 M322,119L323,120 M323,119L324,120 M324,119L325,120 M325,119L326,120 M445,119L446,120 M446,119L447,120 M320,120L321,121 M321,120L322,121 M322,120L323,121 M323,120L324,121 M444,120L445,121 M445,120L446,121 M318,121L319,122 M319,121L320,122 M320,121L321,122 M321,121L322,122 M444,121L445,122 M445,121L446,122 M317,122L318,123 M318,122L319,123 M319,122L320,123 M320,122L321,123 M443,122L444,123 M444,122L445,123 M445,122L446,123 M315,123L316,124 M316,123L317,124 M317,123L318,124 M318,123L319,124 M443,123L444,124 M444,123L445,124 M313,124L314,125 M314,124L315,125 M315,124L316,125 M316,124L317,125 M443,124L444,125 M444,124L445,125 M311,125L312,126 M312,125L313,126 M313,125L314,126 M314,125L315,126 M442,125L443,126 M443,125L444,126 M309,126L310,127 M310,126L311,127 M311,126L312,127 M312,126L313,127 M442,126L443,127 M443,126L444,127 M307,127L308,128 M308,127L309,128 M309,127L310,128 M310,127L311,128 M441,127L442,128 M442,127L443,128 M443,127L444,128 M305,128L306,129 M306,128L307,129 M307,128L308,129 M308,128L309,129 M441,128L442,129 M442,128L443,129 M303,129L304,130 M304,129L305,130 M305,129L306,130 M306,129L307,130 M307,129L308,130 M441,129L442,130 M442,129L443,130 M301,130L302,131 M302,130L303,131 M303,130L304,131 M304,130L305,131 M305,130L306,131 M402,130L403,131 M440,130L441,131 M441,130L442,131 M299,131L300,132 M300,131L301,132 M301,131L302,132 M302,131L303,132 M303,131L304,132 M401,131L402,132 M402,131L403,132 M403,131L404,132 M440,131L441,132 M441,131L442,132 M297,132L298,133 M298,132L299,133 M299,132L300,133 M300,132L301,133 M301,132L302,133 M402,132L403,133 M403,132L404,133 M439,132L440,133 M440,132L441,133 M441,132L442,133 M296,133L297,134 M297,133L298,134 M298,133L299,134 M299,133L300,134 M402,133L403,134 M403,133L404,134 M404,133L405,134 M439,133L440,134 M440,133L441,134 M294,134L295,135 M295,134L296,135 M296,134L297,135 M297,134L298,135 M402,134L403,135 M403,134L404,135 M404,134L405,135 M405,134L406,135 M438,134L439,135 M439,134L440,135 M440,134L441,135 M292,135L293,136 M293,135L294,136 M294,135L295,136 M295,135L296,136 M403,135L404,136 M404,135L405,136 M405,135L406,136 M406,135L407,136 M438,135L439,136 M439,135L440,136 M290,136L291,137 M291,136L292,137 M292,136L293,137 M293,136L294,137 M403,136L404,137 M404,136L405,137 M405,136L406,137 M406,136L407,137 M407,136L408,137 M437,136L438,137 M438,136L439,137 M288,137L289,138 M289,137L290,138 M290,137L291,138 M291,137L292,138 M404,137L405,138 M405,137L406,138 M406,137L407,138 M407,137L408,138 M436,137L437,138 M437,137L438,138 M286,138L287,139 M287,138L288,139 M288,138L289,139 M289,138L290,139 M404,138L405,139 M405,138L406,139 M406,138L407,139 M407,138L408,139 M408,138L409,139 M435,138L436,139 M436,138L437,139 M437,138L438,139 M284,139L285,140 M285,139L286,140 M286,139L287,140 M287,139L288,140 M405,139L406,140 M406,139L407,140 M407,139L408,140 M408,139L409,140 M434,139L435,140 M435,139L436,140 M436,139L437,140 M282,140L283,141 M283,140L284,141 M284,140L285,141 M285,140L286,141 M406,140L407,141 M407,140L408,141 M408,140L409,141 M409,140L410,141 M434,140L435,141 M435,140L436,141 M280,141L281,142 M281,141L282,142 M282,141L283,142 M283,141L284,142 M284,141L285,142 M407,141L408,142 M408,141L409,142 M409,141L410,142 M433,141L434,142 M434,141L435,142 M278,142L279,143 M279,142L280,143 M280,142L281,143 M281,142L282,143 M282,142L283,143 M408,142L409,143 M409,142L410,143 M410,142L411,143 M432,142L433,143 M433,142L434,143 M434,142L435,143 M276,143L277,144 M277,143L278,144 M278,143L279,144 M279,143L280,144 M280,143L281,144 M409,143L410,144 M410,143L411,144 M431,143L432,144 M432,143L433,144 M433,143L434,144 M274,144L275,145 M275,144L276,145 M276,144L277,145 M277,144L278,145 M278,144L279,145 M409,144L410,145 M410,144L411,145 M411,144L412,145 M430,144L431,145 M431,144L432,145 M432,144L433,145 M273,145L274,146 M274,145L275,146 M275,145L276,146 M276,145L277,146 M410,145L411,146 M411,145L412,146 M412,145L413,146 M430,145L431,146 M431,145L432,146 M271,146L272,147 M272,146L273,147 M273,146L274,147 M274,146L275,147 M410,146L411,147 M411,146L412,147 M412,146L413,147 M413,146L414,147 M429,146L430,147 M430,146L431,147 M269,147L270,148 M270,147L271,148 M271,147L272,148 M272,147L273,148 M410,147L411,148 M411,147L412,148 M412,147L413,148 M413,147L414,148 M414,147L415,148 M428,147L429,148 M429,147L430,148 M430,147L431,148 M267,148L268,149 M268,148L269,149 M269,148L270,149 M270,148L271,149 M411,148L412,149 M412,148L413,149 M413,148L414,149 M414,148L415,149 M415,148L416,149 M427,148L428,149 M428,148L429,149 M429,148L430,149 M265,149L266,150 M266,149L267,150 M267,149L268,150 M268,149L269,150 M411,149L412,150 M412,149L413,150 M414,149L415,150 M415,149L416,150 M416,149L417,150 M427,149L428,150 M428,149L429,150 M263,150L264,151 M264,150L265,151 M265,150L266,151 M266,150L267,151 M411,150L412,151 M412,150L413,151 M415,150L416,151 M416,150L417,151 M417,150L418,151 M426,150L427,151 M427,150L428,151 M261,151L262,152 M262,151L263,152 M263,151L264,152 M264,151L265,152 M412,151L413,152 M413,151L414,152 M416,151L417,152 M417,151L418,152 M418,151L419,152 M425,151L426,152 M426,151L427,152 M427,151L428,152 M259,152L260,153 M260,152L261,153 M261,152L262,153 M262,152L263,153 M412,152L413,153 M413,152L414,153 M418,152L419,153 M419,152L420,153 M424,152L425,153 M425,152L426,153 M426,152L427,153 M257,153L258,154 M258,153L259,154 M259,153L260,154 M260,153L261,154 M412,153L413,154 M413,153L414,154 M419,153L420,154 M420,153L421,154 M421,153L422,154 M424,153L425,154 M425,153L426,154 M255,154L256,155 M256,154L257,155 M257,154L258,155 M258,154L259,155 M413,154L414,155 M414,154L415,155 M420,154L421,155 M421,154L422,155 M422,154L423,155 M423,154L424,155 M424,154L425,155 M252,155L253,156 M253,155L254,156 M254,155L255,156 M255,155L256,156 M256,155L257,156 M413,155L414,156 M414,155L415,156 M421,155L422,156 M422,155L423,156 M423,155L424,156 M424,155L425,156 M250,156L251,157 M251,156L252,157 M252,156L253,157 M253,156L254,157 M254,156L255,157 M413,156L414,157 M414,156L415,157 M420,156L421,157 M421,156L422,157 M422,156L423,157 M423,156L424,157 M424,156L425,157 M248,157L249,158 M249,157L250,158 M250,157L251,158 M251,157L252,158 M252,157L253,158 M413,157L414,158 M414,157L415,158 M418,157L419,158 M419,157L420,158 M420,157L421,158 M421,157L422,158 M423,157L424,158 M424,157L425,158 M425,157L426,158 M246,158L247,159 M247,158L248,159 M248,158L249,159 M249,158L250,159 M250,158L251,159 M413,158L414,159 M414,158L415,159 M415,158L416,159 M417,158L418,159 M418,158L419,159 M419,158L420,159 M420,158L421,159 M424,158L425,159 M425,158L426,159 M426,158L427,159 M244,159L245,160 M245,159L246,160 M246,159L247,160 M247,159L248,160 M414,159L415,160 M415,159L416,160 M416,159L417,160 M417,159L418,160 M418,159L419,160 M425,159L426,160 M426,159L427,160 M427,159L428,160 M428,159L429,160 M242,160L243,161 M243,160L244,161 M244,160L245,161 M245,160L246,161 M414,160L415,161 M415,160L416,161 M416,160L417,161 M426,160L427,161 M427,160L428,161 M428,160L429,161 M429,160L430,161 M243,161L244,162 M414,161L415,162 M415,161L416,162 M428,161L429,162 M429,161L430,162 M430,161L431,162 M429,162L430,163 M430,162L431,163 M431,162L432,163 M432,162L433,163 M431,163L432,164 M432,163L433,164 M433,163L434,164 M432,164L433,165 M433,164L434,165 M434,164L435,165 M435,164L436,165 M434,165L435,166 M435,165L436,166 M436,165L437,166 M435,166L436,167 M436,166L437,167 M437,166L438,167 M436,167L437,168 M437,167L438,168 M438,167L439,168 M439,167L440,168 M438,168L439,169 M439,168L440,169 M440,168L441,169 M439,169L440,170 M440,169L441,170 M441,169L442,170 M442,169L443,170 M441,170L442,171 M442,170L443,171 M443,170L444,171 M442,171L443,172 M443,171L444,172 M444,171L445,172 M445,171L446,172 M444,172L445,173 M445,172L446,173 M446,172L447,173 M447,172L448,173 M446,173L447,174 M447,173L448,174 M448,173L449,174 M449,173L450,174 M447,174L448,175 M448,174L449,175 M449,174L450,175 M450,174L451,175 M449,175L450,176 M450,175L451,176 M451,175L452,176 M452,175L453,176 M451,176L452,177 M452,176L453,177 M453,176L454,177 M454,176L455,177 M453,177L454,178 M454,177L455,178 M455,177L456,178 M456,177L457,178 M454,178L455,179 M455,178L456,179 M456,178L457,179 M457,178L458,179 M456,179L457,180 M457,179L458,180 M458,179L459,180 M459,179L460,180 M458,180L459,181 M459,180L460,181 M460,180L461,181 M461,180L462,181 M460,181L461,182 M461,181L462,182 M462,181L463,182 M461,182L462,183 M462,182L463,183 M463,182L464,183 M464,182L465,183 M463,183L464,184 M464,183L465,184 M465,183L466,184 M464,184L465,185 M465,184L466,185 M466,184L467,185 M467,184L468,185 M466,185L467,186 M467,185L468,186 M468,185L469,186 M467,186L468,187 M468,186L469,187 M469,186L470,187 M470,186L471,187 M469,187L470,188 M470,187L471,188 M471,187L472,188 M470,188L471,189 M471,188L472,189 M472,188L473,189 M473,188L474,189 M472,189L473,190 M473,189L474,190 M474,189L475,190 M473,190L474,191 M474,190L475,191 M475,190L476,191 M476,190L477,191 M475,191L476,192 M476,191L477,192 M477,191L478,192 M476,192L477,193 M477,192L478,193 M478,192L479,193 M479,192L480,193 M478,193L479,194 M479,193L480,194 M480,193L481,194 M479,194L480,195 M480,194L481,195 M481,194L482,195 M482,194L483,195 M481,195L482,196 M482,195L483,196 M483,195L484,196 M482,196L483,197 M483,196L484,197 M484,196L485,197 M485,196L486,197 M484,197L485,198 M485,197L486,198 M486,197L487,198 M487,197L488,198 M485,198L486,199 M486,198L487,199 M487,198L488,199 M488,198L489,199 M487,199L488,200 M488,199L489,200 M489,199L490,200 M488,200L489,201 M489,200L490,201 M490,200L491,201 M489,201L490,202 M490,201L491,202 M491,201L492,202 M492,201L493,202 M491,202L492,203 M492,202L493,203 M493,202L494,203 M492,203L493,204 M493,203L494,204 M494,203L495,204 M493,204L494,205 M494,204L495,205 M495,204L496,205 M494,205L495,206 M495,205L496,206 M494,206L495,207 M495,206L496,207 M496,206L497,207 M495,207L496,208 M496,207L497,208 M495,208L496,209 M496,208L497,209 M495,209L496,210 M496,209L497,210 M497,209L498,210 M496,210L497,211 M497,210L498,211 M496,211L497,212 M497,211L498,212 M496,212L497,213 M497,212L498,213 M498,212L499,213 M497,213L498,214 M498,213L499,214 M497,214L498,215 M498,214L499,215 M497,215L498,216 M498,215L499,216 M497,216L498,217 M498,216L499,217 M498,217L499,218 M499,217L500,218 M498,218L499,219 M499,218L500,219 M498,219L499,220 M499,219L500,220 M498,220L499,221 M499,220L500,221 M498,221L499,222 M499,221L500,222 M498,222L499,223 M499,222L500,223 M498,223L499,224 M499,223L500,224 M498,224L499,225 M499,224L500,225 M498,225L499,226 M499,225L500,226 M498,226L499,227 M499,226L500,227" fill="none" stroke="black" />
    </svg>