<svg xmlns="http://www.w3.org/2000/svg" width="800" height="250">
        <path d="M235,96L236,97 M236,96L237,97 M237,96L238,97 M238,96L239,97 M239,96L240,97 M240,96L241,97 M241,96L242,97 M242,96L243,97 M243,96L244,97 M244,96L245,97 M245,96L246,97 M246,96L247,97 M247,96L248,97 M248,96L249,97 M249,96L250,97 M250,96L251,97 M251,96L252,97 M252,96L253,97 M253,96L254,97 M254,96L255,97 M255,96L256,97 M256,96L257,97 M257,96L258,97 M258,96L259,97 M259,96L260,97 M260,96L261,97 M261,96L262,97 M262,96L263,97 M263,96L264,97 M264,96L265,97 M265,96L266,97 M266,96L267,97 M267,96L268,97 M268,96L269,97 M269,96L270,97 M270,96L271,97 M271,96L272,97 M272,96L273,97 M273,96L274,97 M274,96L275,97 M275,96L276,97 M276,96L277,97 M277,96L278,97 M278,96L279,97 M279,96L280,97 M220,97L221,98 M221,97L222,98 M222,97L223,98 M223,97L224,98 M224,97L225,98 M225,97L226,98 M226,97L227,98 M227,97L228,98 M228,97L229,98 M229,97L230,98 M230,97L231,98 M231,97L232,98 M232,97L233,98 M233,97L234,98 M234,97L235,98 M235,97L236,98 M236,97L237,98 M237,97L238,98 M238,97L239,98 M239,97L240,98 M240,97L241,98 M241,97L242,98 M242,97L243,98 M243,97L244,98 M244,97L245,98 M245,97L246,98 M246,97L247,98 M247,97L248,98 M248,97L249,98 M249,97L250,98 M250,97L251,98 M251,97L252,98 M252,97L253,98 M253,97L254,98 M254,97L255,98 M255,97L256,98 M256,97L257,98 M257,97L258,98 M258,97L259,98 M259,97L260,98 M260,97L261,98 M261,97L262,98 M262,97L263,98 M263,97L264,98 M264,97L265,98 M265,97L266,98 M266,97L267,98 M267,97L268,98 M268,97L269,98 M269,97L270,98 M270,97L271,98 M271,97L272,98 M272,97L273,98 M273,97L274,98 M274,97L275,98 M275,97L276,98 M276,97L277,98 M277,97L278,98 M278,97L279,98 M279,97L280,98 M280,97L281,98 M281,97L282,98 M282,97L283,98 M283,97L284,98 M284,97L285,98 M285,97L286,98 M286,97L287,98 M287,97L288,98 M288,97L289,98 M289,97L290,98 M211,98L212,99 M212,98L213,99 M213,98L214,99 M214,98L215,99 M215,98L216,99 M216,98L217,99 M217,98L218,99 M218,98L219,99 M219,98L220,99 M220,98L221,99 M221,98L222,99 M222,98L223,99 M223,98L224,99 M224,98L225,99 M225,98L226,99 M226,98L227,99 M227,98L228,99 M228,98L229,99 M229,98L230,99 M230,98L231,99 M231,98L232,99 M232,98L233,99 M233,98L234,99 M234,98L235,99 M280,98L281,99 M281,98L282,99 M282,98L283,99 M283,98L284,99 M284,98L285,99 M285,98L286,99 M286,98L287,99 M287,98L288,99 M288,98L289,99 M289,98L290,99 M290,98L291,99 M291,98L292,99 M292,98L293,99 M293,98L294,99 M294,98L295,99 M295,98L296,99 M296,98L297,99 M297,98L298,99 M298,98L299,99 M299,98L300,99 M300,98L301,99 M206,99L207,100 M207,99L208,100 M208,99L209,100 M209,99L210,100 M210,99L211,100 M211,99L212,100 M212,99L213,100 M213,99L214,100 M214,99L215,100 M215,99L216,100 M216,99L217,100 M217,99L218,100 M218,99L219,100 M219,99L220,100 M290,99L291,100 M291,99L292,100 M292,99L293,100 M293,99L294,100 M294,99L295,100 M295,99L296,100 M296,99L297,100 M297,99L298,100 M298,99L299,100 M299,99L300,100 M300,99L301,100 M301,99L302,100 M302,99L303,100 M303,99L304,100 M304,99L305,100 M305,99L306,100 M306,99L307,100 M307,99L308,100 M308,99L309,100 M309,99L310,100 M310,99L311,100 M200,100L201,101 M201,100L202,101 M202,100L203,101 M203,100L204,101 M204,100L205,101 M205,100L206,101 M206,100L207,101 M207,100L208,101 M208,100L209,101 M209,100L210,101 M210,100L211,101 M301,100L302,101 M302,100L303,101 M303,100L304,101 M304,100L305,101 M305,100L306,101 M306,100L307,101 M307,100L308,101 M308,100L309,101 M309,100L310,101 M310,100L311,101 M311,100L312,101 M312,100L313,101 M313,100L314,101 M314,100L315,101 M315,100L316,101 M316,100L317,101 M317,100L318,101 M318,100L319,101 M319,100L320,101 M320,100L321,101 M196,101L197,102 M197,101L198,102 M198,101L199,102 M199,101L200,102 M200,101L201,102 M201,101L202,102 M202,101L203,102 M203,101L204,102 M204,101L205,102 M205,101L206,102 M311,101L312,102 M312,101L313,102 M313,101L314,102 M314,101L315,102 M315,101L316,102 M316,101L317,102 M317,101L318,102 M318,101L319,102 M319,101L320,102 M320,101L321,102 M321,101L322,102 M322,101L323,102 M323,101L324,102 M324,101L325,102 M325,101L326,102 M326,101L327,102 M327,101L328,102 M328,101L329,102 M194,102L195,103 M195,102L196,103 M196,102L197,103 M197,102L198,103 M198,102L199,103 M199,102L200,103 M320,102L321,103 M321,102L322,103 M322,102L323,103 M323,102L324,103 M324,102L325,103 M325,102L326,103 M326,102L327,103 M327,102L328,103 M328,102L329,103 M329,102L330,103 M330,102L331,103 M331,102L332,103 M332,102L333,103 M333,102L334,103 M334,102L335,103 M335,102L336,103 M336,102L337,103 M192,103L193,104 M193,103L194,104 M194,103L195,104 M195,103L196,104 M196,103L197,104 M328,103L329,104 M329,103L330,104 M330,103L331,104 M331,103L332,104 M332,103L333,104 M333,103L334,104 M334,103L335,104 M335,103L336,104 M336,103L337,104 M337,103L338,104 M338,103L339,104 M339,103L340,104 M340,103L341,104 M341,103L342,104 M342,103L343,104 M343,103L344,104 M344,103L345,104 M189,104L190,105 M190,104L191,105 M191,104L192,105 M192,104L193,105 M193,104L194,105 M194,104L195,105 M336,104L337,105 M337,104L338,105 M338,104L339,105 M339,104L340,105 M340,104L341,105 M341,104L342,105 M342,104L343,105 M343,104L344,105 M344,104L345,105 M345,104L346,105 M346,104L347,105 M347,104L348,105 M348,104L349,105 M349,104L350,105 M350,104L351,105 M187,105L188,106 M188,105L189,106 M189,105L190,106 M190,105L191,106 M191,105L192,106 M344,105L345,106 M345,105L346,106 M346,105L347,106 M347,105L348,106 M348,105L349,106 M349,105L350,106 M350,105L351,106 M351,105L352,106 M352,105L353,106 M353,105L354,106 M354,105L355,106 M355,105L356,106 M356,105L357,106 M185,106L186,107 M186,106L187,107 M187,106L188,107 M188,106L189,107 M189,106L190,107 M351,106L352,107 M352,106L353,107 M353,106L354,107 M354,106L355,107 M355,106L356,107 M356,106L357,107 M357,106L358,107 M358,106L359,107 M359,106L360,107 M360,106L361,107 M361,106L362,107 M362,106L363,107 M182,107L183,108 M183,107L184,108 M184,107L185,108 M185,107L186,108 M186,107L187,108 M187,107L188,108 M357,107L358,108 M358,107L359,108 M359,107L360,108 M360,107L361,108 M361,107L362,108 M362,107L363,108 M363,107L364,108 M364,107L365,108 M365,107L366,108 M366,107L367,108 M367,107L368,108 M368,107L369,108 M179,108L180,109 M180,108L181,109 M181,108L182,109 M182,108L183,109 M183,108L184,109 M184,108L185,109 M363,108L364,109 M364,108L365,109 M365,108L366,109 M366,108L367,109 M367,108L368,109 M368,108L369,109 M369,108L370,109 M370,108L371,109 M371,108L372,109 M372,108L373,109 M373,108L374,109 M374,108L375,109 M177,109L178,110 M178,109L179,110 M179,109L180,110 M180,109L181,110 M181,109L182,110 M182,109L183,110 M369,109L370,110 M370,109L371,110 M371,109L372,110 M372,109L373,110 M373,109L374,110 M374,109L375,110 M375,109L376,110 M376,109L377,110 M377,109L378,110 M378,109L379,110 M379,109L380,110 M174,110L175,111 M175,110L176,111 M176,110L177,111 M177,110L178,111 M178,110L179,111 M179,110L180,111 M375,110L376,111 M376,110L377,111 M377,110L378,111 M378,110L379,111 M379,110L380,111 M380,110L381,111 M381,110L382,111 M382,110L383,111 M383,110L384,111 M384,110L385,111 M171,111L172,112 M172,111L173,112 M173,111L174,112 M174,111L175,112 M175,111L176,112 M176,111L177,112 M380,111L381,112 M381,111L382,112 M382,111L383,112 M383,111L384,112 M384,111L385,112 M385,111L386,112 M386,111L387,112 M387,111L388,112 M388,111L389,112 M169,112L170,113 M170,112L171,113 M171,112L172,113 M172,112L173,113 M173,112L174,113 M385,112L386,113 M386,112L387,113 M387,112L388,113 M388,112L389,113 M389,112L390,113 M390,112L391,113 M168,113L169,114 M169,113L170,114 M170,113L171,114 M388,113L389,114 M389,113L390,114 M390,113L391,114 M391,113L392,114 M392,113L393,114 M393,113L394,114 M166,114L167,115 M167,114L168,115 M168,114L169,115 M169,114L170,115 M391,114L392,115 M392,114L393,115 M393,114L394,115 M394,114L395,115 M395,114L396,115 M165,115L166,116 M166,115L167,116 M167,115L168,116 M393,115L394,116 M394,115L395,116 M395,115L396,116 M396,115L397,116 M397,115L398,116 M398,115L399,116 M164,116L165,117 M165,116L166,117 M166,116L167,117 M396,116L397,117 M397,116L398,117 M398,116L399,117 M399,116L400,117 M400,116L401,117 M163,117L164,118 M164,117L165,118 M165,117L166,118 M398,117L399,118 M399,117L400,118 M400,117L401,118 M401,117L402,118 M402,117L403,118 M161,118L162,119 M162,118L163,119 M163,118L164,119 M401,118L402,119 M402,118L403,119 M403,118L404,119 M404,118L405,119 M160,119L161,120 M161,119L162,120 M162,119L163,120 M403,119L404,120 M404,119L405,120 M405,119L406,120 M159,120L160,121 M160,120L161,121 M161,120L162,121 M404,120L405,121 M158,121L159,122 M159,121L160,122 M160,121L161,122 M157,122L158,123 M158,122L159,123 M159,122L160,123 M157,123L158,124 M158,123L159,124 M156,124L157,125 M157,124L158,125 M155,125L156,126 M156,125L157,126 M157,125L158,126 M154,126L155,127 M155,126L156,127 M156,126L157,127 M153,127L154,128 M154,127L155,128 M155,127L156,128 M153,128L154,129 M154,128L155,129 M152,129L153,130 M153,129L154,130 M151,130L152,131 M152,130L153,131 M153,130L154,131 M151,131L152,132 M152,131L153,132 M150,132L151,133 M151,132L152,133 M150,133L151,134 M151,133L152,134 M150,134L151,135 M151,134L152,135 M150,135L151,136 M151,135L152,136 M150,136L151,137 M151,136L152,137 M149,137L150,138 M150,137L151,138 M149,138L150,139 M150,138L151,139 M149,139L150,140 M150,139L151,140 M149,140L150,141 M150,140L151,141 M149,141L150,142 M150,141L151,142 M149,142L150,143 M150,142L151,143 M149,143L150,144 M150,143L151,144 M149,144L150,145 M150,144L151,145 M149,145L150,146 M150,145L151,146 M149,146L150,147 M150,146L151,147 M149,147L150,148 M150,147L151,148 M149,148L150,149 M150,148L151,149 M149,149L150,150 M150,149L151,150 M149,150L150,151 M150,150L151,151 M150,151L151,152 M151,151L152,152 M150,152L151,153 M151,152L152,153 M151,153L152,154 M152,153L153,154 M151,154L152,155 M152,154L153,155 M151,155L152,156 M152,155L153,156 M153,155L154,156 M152,156L153,157 M153,156L154,157 M152,157L153,158 M153,157L154,158 M154,157L155,158 M153,158L154,159 M154,158L155,159 M153,159L154,160 M154,159L155,160 M154,160L155,161 M155,160L156,161 M154,161L155,162 M155,161L156,162 M156,161L157,162 M155,162L156,163 M156,162L157,163 M157,162L158,163 M156,163L157,164 M157,163L158,164 M158,163L159,164 M157,164L158,165 M158,164L159,165 M159,164L160,165 M158,165L159,166 M159,165L160,166 M160,165L161,166 M159,166L160,167 M160,166L161,167 M161,166L162,167 M160,167L161,168 M161,167L162,168 M162,167L163,168 M161,168L162,169 M162,168L163,169 M163,168L164,169 M162,169L163,170 M163,169L164,170 M164,169L165,170 M163,170L164,171 M164,170L165,171 M165,170L166,171 M164,171L165,172 M165,171L166,172 M166,171L167,172 M165,172L166,173 M166,172L167,173 M167,172L168,173 M166,173L167,174 M167,173L168,174 M168,173L169,174 M167,174L168,175 M168,174L169,175 M169,174L170,175 M168,175L169,176 M169,175L170,176 M170,175L171,176 M169,176L170,177 M170,176L171,177 M171,176L172,177 M170,177L171,178 M171,177L172,178 M172,177L173,178 M171,178L172,179 M172,178L173,179 M173,178L174,179 M172,179L173,180 M173,179L174,180 M174,179L175,180 M173,180L174,181 M174,180L175,181 M175,180L176,181 M176,180L177,181 M175,181L176,182 M176,181L177,182 M177,181L178,182 M178,181L179,182 M176,182L177,183 M177,182L178,183 M178,182L179,183 M179,182L180,183 M178,183L179,184 M179,183L180,184 M180,183L181,184 M181,183L182,184 M180,184L181,185 M181,184L182,185 M182,184L183,185 M183,184L184,185 M182,185L183,186 M183,185L184,186 M184,185L185,186 M185,185L186,186 M183,186L184,187 M184,186L185,187 M185,186L186,187 M186,186L187,187 M185,187L186,188 M186,187L187,188 M187,187L188,188 M188,187L189,188 M189,187L190,188 M187,188L188,189 M188,188L189,189 M189,188L190,189 M190,188L191,189 M191,188L192,189 M189,189L190,190 M190,189L191,190 M191,189L192,190 M192,189L193,190 M193,189L194,190 M194,189L195,190 M192,190L193,191 M193,190L194,191 M194,190L195,191 M195,190L196,191 M196,190L197,191 M194,191L195,192 M195,191L196,192 M196,191L197,192 M197,191L198,192 M198,191L199,192 M199,191L200,192 M197,192L198,193 M198,192L199,193 M199,192L200,193 M200,192L201,193 M201,192L202,193 M199,193L200,194 M200,193L201,194 M201,193L202,194 M202,193L203,194 M203,193L204,194 M204,193L205,194 M202,194L203,195 M203,194L204,195 M204,194L205,195 M205,194L206,195 M206,194L207,195 M204,195L205,196 M205,195L206,196 M206,195L207,196 M207,195L208,196 M208,195L209,196 M209,195L210,196 M207,196L208,197 M208,196L209,197 M209,196L210,197 M210,196L211,197 M211,196L212,197 M212,196L213,197 M210,197L211,198 M211,197L212,198 M212,197L213,198 M213,197L214,198 M214,197L215,198 M215,197L216,198 M213,198L214,199 M214,198L215,199 M215,198L216,199 M216,198L217,199 M217,198L218,199 M218,198L219,199 M216,199L217,200 M217,199L218,200 M218,199L219,200 M219,199L220,200 M220,199L221,200 M221,199L222,200 M219,200L220,201 M220,200L221,201 M221,200L222,201 M222,200L223,201 M223,200L224,201 M224,200L225,201 M222,201L223,202 M223,201L224,202 M224,201L225,202 M225,201L226,202 M226,201L227,202 M227,201L228,202 M225,202L226,203 M226,202L227,203 M227,202L228,203 M228,202L229,203 M229,202L230,203 M230,202L231,203 M231,202L232,203 M228,203L229,204 M229,203L230,204 M230,203L231,204 M231,203L232,204 M232,203L233,204 M233,203L234,204 M234,203L235,204 M231,204L232,205 M232,204L233,205 M233,204L234,205 M234,204L235,205 M235,204L236,205 M236,204L237,205 M237,204L238,205 M234,205L235,206 M235,205L236,206 M236,205L237,206 M237,205L238,206 M238,205L239,206 M239,205L240,206 M240,205L241,206 M237,206L238,207 M238,206L239,207 M239,206L240,207 M240,206L241,207 M241,206L242,207 M242,206L243,207 M240,207L241,208 M241,207L242,208 M242,207L243,208 M243,207L244,208 M244,207L245,208 M245,207L246,208 M243,208L244,209 M244,208L245,209 M245,208L246,209 M246,208L247,209 M247,208L248,209 M245,209L246,210 M246,209L247,210 M247,209L248,210 M248,209L249,210 M249,209L250,210 M250,209L251,210 M248,210L249,211 M249,210L250,211 M250,210L251,211 M251,210L252,211 M252,210L253,211 M253,210L254,211 M251,211L252,212 M252,211L253,212 M253,211L254,212 M254,211L255,212 M255,211L256,212 M253,212L254,213 M254,212L255,213 M255,212L256,213 M256,212L257,213 M257,212L258,213 M258,212L259,213 M256,213L257,214 M257,213L258,214 M258,213L259,214 M259,213L260,214 M260,213L261,214 M258,214L259,215 M259,214L260,215 M260,214L261,215 M261,214L262,215 M262,214L263,215 M263,214L264,215 M261,215L262,216 M262,215L263,216 M263,215L264,216 M264,215L265,216 M265,215L266,216 M266,215L267,216 M264,216L265,217 M265,216L266,217 M266,216L267,217 M267,216L268,217 M268,216L269,217 M266,217L267,218 M267,217L268,218 M268,217L269,218 M269,217L270,218 M270,217L271,218 M271,217L272,218 M269,218L270,219 M270,218L271,219 M271,218L272,219 M272,218L273,219 M273,218L274,219 M271,219L272,220 M272,219L273,220 M273,219L274,220 M274,219L275,220 M275,219L276,220 M276,219L277,220 M274,220L275,221 M275,220L276,221 M276,220L277,221 M277,220L278,221 M278,220L279,221 M279,220L280,221 M280,220L281,221 M277,221L278,222 M278,221L279,222 M279,221L280,222 M280,221L281,222 M281,221L282,222 M282,221L283,222 M283,221L284,222 M284,221L285,222 M280,222L281,223 M281,222L282,223 M282,222L283,223 M283,222L284,223 M284,222L285,223 M285,222L286,223 M286,222L287,223 M287,222L288,223 M288,222L289,223 M285,223L286,224 M286,223L287,224 M287,223L288,224 M288,223L289,224 M289,223L290,224 M290,223L291,224 M291,223L292,224 M292,223L293,224 M289,224L290,225 M290,224L291,225 M291,224L292,225 M292,224L293,225 M293,224L294,225 M294,224L295,225 M295,224L296,225 M296,224L297,225 M297,224L298,225 M293,225L294,226 M294,225L295,226 M295,225L296,226 M296,225L297,226 M297,225L298,226 M298,225L299,226 M299,225L300,226 M300,225L301,226 M301,225L302,226 M297,226L298,227 M298,226L299,227 M299,226L300,227 M300,226L301,227 M301,226L302,227 M302,226L303,227 M303,226L304,227 M304,226L305,227 M305,226L306,227 M302,227L303,228 M303,227L304,228 M304,227L305,228 M305,227L306,228 M306,227L307,228 M307,227L308,228 M308,227L309,228 M309,227L310,228 M306,228L307,229 M307,228L308,229 M308,228L309,229 M309,228L310,229 M310,228L311,229 M311,228L312,229 M312,228L313,229 M313,228L314,229 M314,228L315,229 M310,229L311,230 M311,229L312,230 M312,229L313,230 M313,229L314,230 M314,229L315,230 M315,229L316,230 M316,229L317,230 M317,229L318,230 M318,229L319,230 M314,230L315,231 M315,230L316,231 M316,230L317,231 M317,230L318,231 M318,230L319,231 M319,230L320,231 M320,230L321,231 M321,230L322,231 M322,230L323,231 M319,231L320,232 M320,231L321,232 M321,231L322,232 M322,231L323,232 M323,231L324,232 M324,231L325,232 M325,231L326,232 M326,231L327,232 M327,231L328,232 M323,232L324,233 M324,232L325,233 M325,232L326,233 M326,232L327,233 M327,232L328,233 M328,232L329,233 M329,232L330,233 M330,232L331,233 M331,232L332,233 M332,232L333,233 M328,233L329,234 M329,233L330,234 M330,233L331,234 M331,233L332,234 M332,233L333,234 M333,233L334,234 M334,233L335,234 M335,233L336,234 M336,233L337,234 M332,234L333,235 M333,234L334,235 M334,234L335,235 M335,234L336,235 M336,234L337,235 M337,234L338,235 M338,234L339,235 M339,234L340,235 M340,234L341,235 M341,234L342,235 M337,235L338,236 M338,235L339,236 M339,235L340,236 M340,235L341,236 M341,235L342,236 M342,235L343,236 M343,235L344,236 M344,235L345,236 M345,235L346,236 M346,235L347,236 M342,236L343,237 M343,236L344,237 M344,236L345,237 M345,236L346,237 M346,236L347,237 M347,236L348,237 M348,236L349,237 M349,236L350,237 M350,236L351,237 M351,236L352,237 M347,237L348,238 M348,237L349,238 M349,237L350,238 M350,237L351,238 M351,237L352,238 M352,237L353,238 M353,237L354,238 M354,237L355,238 M355,237L356,238 M356,237L357,238 M352,238L353,239 M353,238L354,239 M354,238L355,239 M355,238L356,239 M356,238L357,239 M357,238L358,239 M358,238L359,239 M359,238L360,239 M360,238L361,239 M361,238L362,239 M357,239L358,240 M358,239L359,240 M359,239L360,240 M360,239L361,240 M361,239L362,240 M362,239L363,240 M363,239L364,240 M364,239L365,240 M365,239L366,240 M361,240L362,241 M362,240L363,241 M363,240L364,241 M364,240L365,241 M365,240L366,241 M366,240L367,241 M367,240L368,241 M368,240L369,241 M369,240L370,241 M370,240L371,241 M366,241L367,242 M367,241L368,242 M368,241L369,242 M369,241L370,242 M370,241L371,242 M371,241L372,242 M372,241L373,242 M373,241L374,242 M374,241L375,242 M375,241L376,242 M371,242L372,243 M372,242L373,243 M373,242L374,243 M374,242L375,243 M375,242L376,243 M376,242L377,243 M377,242L378,243 M378,242L379,243 M376,243L377,244 M377,243L378,244" fill="none" stroke="black" />
    </svg>