<svg xmlns="http://www.w3.org/2000/svg" width="800" height="250">
        <path d="M633,16L634,17 M634,16L635,17 M633,17L634,18 M634,17L635,18 M632,18L633,19 M633,18L634,19 M634,18L635,19 M632,19L633,20 M633,19L634,20 M632,20L633,21 M633,20L634,21 M632,21L633,22 M633,21L634,22 M632,22L633,23 M633,22L634,23 M632,23L633,24 M633,23L634,24 M632,24L633,25 M633,24L634,25 M632,25L633,26 M633,25L634,26 M631,26L632,27 M632,26L633,27 M633,26L634,27 M631,27L632,28 M632,27L633,28 M631,28L632,29 M632,28L633,29 M631,29L632,30 M632,29L633,30 M631,30L632,31 M632,30L633,31 M631,31L632,32 M632,31L633,32 M631,32L632,33 M632,32L633,33 M631,33L632,34 M632,33L633,34 M42,34L43,35 M43,34L44,35 M631,34L632,35 M632,34L633,35 M42,35L43,36 M43,35L44,36 M202,35L203,36 M203,35L204,36 M631,35L632,36 M632,35L633,36 M42,36L43,37 M43,36L44,37 M202,36L203,37 M203,36L204,37 M631,36L632,37 M632,36L633,37 M42,37L43,38 M43,37L44,38 M202,37L203,38 M203,37L204,38 M631,37L632,38 M632,37L633,38 M42,38L43,39 M43,38L44,39 M202,38L203,39 M203,38L204,39 M631,38L632,39 M632,38L633,39 M42,39L43,40 M43,39L44,40 M52,39L53,40 M53,39L54,40 M54,39L55,40 M55,39L56,40 M56,39L57,40 M57,39L58,40 M58,39L59,40 M59,39L60,40 M60,39L61,40 M61,39L62,40 M62,39L63,40 M202,39L203,40 M203,39L204,40 M631,39L632,40 M632,39L633,40 M42,40L43,41 M43,40L44,41 M48,40L49,41 M49,40L50,41 M50,40L51,41 M51,40L52,41 M52,40L53,41 M53,40L54,41 M54,40L55,41 M55,40L56,41 M56,40L57,41 M57,40L58,41 M58,40L59,41 M59,40L60,41 M60,40L61,41 M61,40L62,41 M62,40L63,41 M63,40L64,41 M64,40L65,41 M65,40L66,41 M66,40L67,41 M67,40L68,41 M68,40L69,41 M69,40L70,41 M70,40L71,41 M71,40L72,41 M72,40L73,41 M73,40L74,41 M202,40L203,41 M203,40L204,41 M631,40L632,41 M632,40L633,41 M42,41L43,42 M43,41L44,42 M48,41L49,42 M49,41L50,42 M50,41L51,42 M51,41L52,42 M52,41L53,42 M63,41L64,42 M64,41L65,42 M65,41L66,42 M66,41L67,42 M67,41L68,42 M68,41L69,42 M69,41L70,42 M70,41L71,42 M71,41L72,42 M72,41L73,42 M73,41L74,42 M74,41L75,42 M75,41L76,42 M76,41L77,42 M202,41L203,42 M203,41L204,42 M631,41L632,42 M632,41L633,42 M42,42L43,43 M43,42L44,43 M73,42L74,43 M74,42L75,43 M75,42L76,43 M76,42L77,43 M77,42L78,43 M78,42L79,43 M201,42L202,43 M202,42L203,43 M631,42L632,43 M632,42L633,43 M42,43L43,44 M43,43L44,44 M76,43L77,44 M77,43L78,44 M78,43L79,44 M79,43L80,44 M80,43L81,44 M201,43L202,44 M202,43L203,44 M631,43L632,44 M632,43L633,44 M42,44L43,45 M43,44L44,45 M78,44L79,45 M79,44L80,45 M80,44L81,45 M81,44L82,45 M82,44L83,45 M201,44L202,45 M202,44L203,45 M631,44L632,45 M632,44L633,45 M42,45L43,46 M43,45L44,46 M80,45L81,46 M81,45L82,46 M82,45L83,46 M83,45L84,46 M84,45L85,46 M201,45L202,46 M202,45L203,46 M631,45L632,46 M632,45L633,46 M42,46L43,47 M43,46L44,47 M82,46L83,47 M83,46L84,47 M84,46L85,47 M85,46L86,47 M86,46L87,47 M201,46L202,47 M202,46L203,47 M631,46L632,47 M632,46L633,47 M42,47L43,48 M43,47L44,48 M84,47L85,48 M85,47L86,48 M86,47L87,48 M87,47L88,48 M201,47L202,48 M202,47L203,48 M631,47L632,48 M632,47L633,48 M42,48L43,49 M43,48L44,49 M86,48L87,49 M87,48L88,49 M88,48L89,49 M201,48L202,49 M202,48L203,49 M631,48L632,49 M632,48L633,49 M42,49L43,50 M43,49L44,50 M87,49L88,50 M88,49L89,50 M89,49L90,50 M201,49L202,50 M202,49L203,50 M631,49L632,50 M632,49L633,50 M42,50L43,51 M43,50L44,51 M88,50L89,51 M89,50L90,51 M90,50L91,51 M200,50L201,51 M201,50L202,51 M631,50L632,51 M632,50L633,51 M42,51L43,52 M43,51L44,52 M89,51L90,52 M90,51L91,52 M91,51L92,52 M200,51L201,52 M201,51L202,52 M631,51L632,52 M632,51L633,52 M42,52L43,53 M43,52L44,53 M90,52L91,53 M91,52L92,53 M92,52L93,53 M200,52L201,53 M201,52L202,53 M631,52L632,53 M632,52L633,53 M42,53L43,54 M43,53L44,54 M91,53L92,54 M92,53L93,54 M93,53L94,54 M200,53L201,54 M201,53L202,54 M631,53L632,54 M632,53L633,54 M42,54L43,55 M43,54L44,55 M92,54L93,55 M93,54L94,55 M94,54L95,55 M95,54L96,55 M200,54L201,55 M201,54L202,55 M631,54L632,55 M632,54L633,55 M42,55L43,56 M43,55L44,56 M94,55L95,56 M95,55L96,56 M96,55L97,56 M200,55L201,56 M201,55L202,56 M631,55L632,56 M632,55L633,56 M42,56L43,57 M43,56L44,57 M95,56L96,57 M96,56L97,57 M97,56L98,57 M200,56L201,57 M201,56L202,57 M631,56L632,57 M632,56L633,57 M42,57L43,58 M43,57L44,58 M96,57L97,58 M97,57L98,58 M98,57L99,58 M200,57L201,58 M201,57L202,58 M631,57L632,58 M632,57L633,58 M42,58L43,59 M43,58L44,59 M97,58L98,59 M98,58L99,59 M99,58L100,59 M200,58L201,59 M201,58L202,59 M631,58L632,59 M632,58L633,59 M42,59L43,60 M43,59L44,60 M98,59L99,60 M99,59L100,60 M100,59L101,60 M200,59L201,60 M201,59L202,60 M631,59L632,60 M632,59L633,60 M42,60L43,61 M43,60L44,61 M99,60L100,61 M100,60L101,61 M101,60L102,61 M200,60L201,61 M201,60L202,61 M631,60L632,61 M632,60L633,61 M42,61L43,62 M43,61L44,62 M100,61L101,62 M101,61L102,62 M102,61L103,62 M200,61L201,62 M201,61L202,62 M631,61L632,62 M632,61L633,62 M42,62L43,63 M43,62L44,63 M101,62L102,63 M102,62L103,63 M103,62L104,63 M200,62L201,63 M201,62L202,63 M631,62L632,63 M632,62L633,63 M42,63L43,64 M43,63L44,64 M102,63L103,64 M103,63L104,64 M104,63L105,64 M200,63L201,64 M201,63L202,64 M631,63L632,64 M632,63L633,64 M42,64L43,65 M43,64L44,65 M103,64L104,65 M104,64L105,65 M105,64L106,65 M200,64L201,65 M201,64L202,65 M631,64L632,65 M632,64L633,65 M42,65L43,66 M43,65L44,66 M104,65L105,66 M105,65L106,66 M106,65L107,66 M200,65L201,66 M201,65L202,66 M631,65L632,66 M632,65L633,66 M42,66L43,67 M43,66L44,67 M105,66L106,67 M106,66L107,67 M107,66L108,67 M200,66L201,67 M201,66L202,67 M631,66L632,67 M632,66L633,67 M42,67L43,68 M43,67L44,68 M106,67L107,68 M107,67L108,68 M108,67L109,68 M200,67L201,68 M201,67L202,68 M631,67L632,68 M632,67L633,68 M42,68L43,69 M43,68L44,69 M107,68L108,69 M108,68L109,69 M109,68L110,69 M164,68L165,69 M165,68L166,69 M200,68L201,69 M201,68L202,69 M631,68L632,69 M632,68L633,69 M42,69L43,70 M43,69L44,70 M108,69L109,70 M109,69L110,70 M110,69L111,70 M164,69L165,70 M165,69L166,70 M200,69L201,70 M201,69L202,70 M631,69L632,70 M632,69L633,70 M42,70L43,71 M43,70L44,71 M109,70L110,71 M110,70L111,71 M111,70L112,71 M164,70L165,71 M165,70L166,71 M200,70L201,71 M201,70L202,71 M631,70L632,71 M632,70L633,71 M42,71L43,72 M43,71L44,72 M110,71L111,72 M111,71L112,72 M112,71L113,72 M164,71L165,72 M165,71L166,72 M200,71L201,72 M201,71L202,72 M631,71L632,72 M632,71L633,72 M42,72L43,73 M43,72L44,73 M111,72L112,73 M112,72L113,73 M113,72L114,73 M164,72L165,73 M165,72L166,73 M200,72L201,73 M201,72L202,73 M631,72L632,73 M632,72L633,73 M42,73L43,74 M43,73L44,74 M112,73L113,74 M113,73L114,74 M164,73L165,74 M165,73L166,74 M200,73L201,74 M201,73L202,74 M631,73L632,74 M632,73L633,74 M42,74L43,75 M43,74L44,75 M113,74L114,75 M114,74L115,75 M164,74L165,75 M165,74L166,75 M200,74L201,75 M201,74L202,75 M631,74L632,75 M632,74L633,75 M42,75L43,76 M43,75L44,76 M113,75L114,76 M114,75L115,76 M115,75L116,76 M164,75L165,76 M165,75L166,76 M200,75L201,76 M201,75L202,76 M631,75L632,76 M632,75L633,76 M42,76L43,77 M43,76L44,77 M114,76L115,77 M115,76L116,77 M116,76L117,77 M164,76L165,77 M165,76L166,77 M200,76L201,77 M201,76L202,77 M631,76L632,77 M632,76L633,77 M42,77L43,78 M43,77L44,78 M115,77L116,78 M116,77L117,78 M117,77L118,78 M164,77L165,78 M165,77L166,78 M200,77L201,78 M201,77L202,78 M631,77L632,78 M632,77L633,78 M42,78L43,79 M43,78L44,79 M116,78L117,79 M117,78L118,79 M118,78L119,79 M164,78L165,79 M165,78L166,79 M200,78L201,79 M201,78L202,79 M631,78L632,79 M632,78L633,79 M42,79L43,80 M43,79L44,80 M117,79L118,80 M118,79L119,80 M200,79L201,80 M201,79L202,80 M631,79L632,80 M632,79L633,80 M42,80L43,81 M43,80L44,81 M118,80L119,81 M119,80L120,81 M200,80L201,81 M201,80L202,81 M631,80L632,81 M632,80L633,81 M42,81L43,82 M43,81L44,82 M118,81L119,82 M119,81L120,82 M200,81L201,82 M201,81L202,82 M631,81L632,82 M632,81L633,82 M42,82L43,83 M43,82L44,83 M119,82L120,83 M120,82L121,83 M200,82L201,83 M201,82L202,83 M631,82L632,83 M632,82L633,83 M42,83L43,84 M43,83L44,84 M119,83L120,84 M120,83L121,84 M121,83L122,84 M200,83L201,84 M201,83L202,84 M631,83L632,84 M632,83L633,84 M42,84L43,85 M43,84L44,85 M120,84L121,85 M121,84L122,85 M199,84L200,85 M200,84L201,85 M631,84L632,85 M632,84L633,85 M42,85L43,86 M43,85L44,86 M120,85L121,86 M121,85L122,86 M122,85L123,86 M199,85L200,86 M200,85L201,86 M631,85L632,86 M632,85L633,86 M42,86L43,87 M43,86L44,87 M121,86L122,87 M122,86L123,87 M199,86L200,87 M200,86L201,87 M631,86L632,87 M632,86L633,87 M41,87L42,88 M42,87L43,88 M121,87L122,88 M122,87L123,88 M123,87L124,88 M199,87L200,88 M200,87L201,88 M238,87L239,88 M239,87L240,88 M240,87L241,88 M241,87L242,88 M242,87L243,88 M476,87L477,88 M477,87L478,88 M478,87L479,88 M479,87L480,88 M480,87L481,88 M481,87L482,88 M482,87L483,88 M483,87L484,88 M484,87L485,88 M630,87L631,88 M631,87L632,88 M41,88L42,89 M42,88L43,89 M122,88L123,89 M123,88L124,89 M199,88L200,89 M200,88L201,89 M236,88L237,89 M237,88L238,89 M238,88L239,89 M239,88L240,89 M240,88L241,89 M241,88L242,89 M242,88L243,89 M243,88L244,89 M472,88L473,89 M473,88L474,89 M474,88L475,89 M475,88L476,89 M476,88L477,89 M477,88L478,89 M478,88L479,89 M479,88L480,89 M480,88L481,89 M481,88L482,89 M482,88L483,89 M483,88L484,89 M484,88L485,89 M630,88L631,89 M631,88L632,89 M41,89L42,90 M42,89L43,90 M123,89L124,90 M124,89L125,90 M199,89L200,90 M200,89L201,90 M234,89L235,90 M235,89L236,90 M236,89L237,90 M237,89L238,90 M242,89L243,90 M243,89L244,90 M244,89L245,90 M467,89L468,90 M468,89L469,90 M469,89L470,90 M470,89L471,90 M471,89L472,90 M472,89L473,90 M473,89L474,90 M474,89L475,90 M475,89L476,90 M476,89L477,90 M483,89L484,90 M484,89L485,90 M485,89L486,90 M630,89L631,90 M631,89L632,90 M41,90L42,91 M42,90L43,91 M123,90L124,91 M124,90L125,91 M199,90L200,91 M200,90L201,91 M232,90L233,91 M233,90L234,91 M234,90L235,91 M235,90L236,91 M243,90L244,91 M244,90L245,91 M245,90L246,91 M246,90L247,91 M462,90L463,91 M463,90L464,91 M464,90L465,91 M465,90L466,91 M466,90L467,91 M467,90L468,91 M468,90L469,91 M469,90L470,91 M470,90L471,91 M471,90L472,91 M472,90L473,91 M484,90L485,91 M485,90L486,91 M630,90L631,91 M631,90L632,91 M41,91L42,92 M42,91L43,92 M124,91L125,92 M125,91L126,92 M199,91L200,92 M200,91L201,92 M230,91L231,92 M231,91L232,92 M232,91L233,92 M233,91L234,92 M245,91L246,92 M246,91L247,92 M247,91L248,92 M296,91L297,92 M297,91L298,92 M298,91L299,92 M299,91L300,92 M300,91L301,92 M301,91L302,92 M302,91L303,92 M303,91L304,92 M304,91L305,92 M305,91L306,92 M306,91L307,92 M307,91L308,92 M308,91L309,92 M309,91L310,92 M310,91L311,92 M311,91L312,92 M312,91L313,92 M313,91L314,92 M314,91L315,92 M315,91L316,92 M316,91L317,92 M317,91L318,92 M318,91L319,92 M319,91L320,92 M320,91L321,92 M321,91L322,92 M322,91L323,92 M397,91L398,92 M398,91L399,92 M458,91L459,92 M459,91L460,92 M460,91L461,92 M461,91L462,92 M462,91L463,92 M463,91L464,92 M464,91L465,92 M465,91L466,92 M466,91L467,92 M467,91L468,92 M630,91L631,92 M631,91L632,92 M41,92L42,93 M42,92L43,93 M124,92L125,93 M125,92L126,93 M199,92L200,93 M200,92L201,93 M230,92L231,93 M231,92L232,93 M246,92L247,93 M247,92L248,93 M248,92L249,93 M249,92L250,93 M293,92L294,93 M294,92L295,93 M295,92L296,93 M296,92L297,93 M297,92L298,93 M298,92L299,93 M299,92L300,93 M300,92L301,93 M301,92L302,93 M302,92L303,93 M303,92L304,93 M304,92L305,93 M305,92L306,93 M306,92L307,93 M307,92L308,93 M308,92L309,93 M309,92L310,93 M310,92L311,93 M311,92L312,93 M312,92L313,93 M313,92L314,93 M314,92L315,93 M315,92L316,93 M316,92L317,93 M317,92L318,93 M318,92L319,93 M319,92L320,93 M320,92L321,93 M321,92L322,93 M322,92L323,93 M323,92L324,93 M397,92L398,93 M398,92L399,93 M454,92L455,93 M455,92L456,93 M456,92L457,93 M457,92L458,93 M458,92L459,93 M459,92L460,93 M460,92L461,93 M461,92L462,93 M462,92L463,93 M630,92L631,93 M631,92L632,93 M41,93L42,94 M42,93L43,94 M125,93L126,94 M126,93L127,94 M199,93L200,94 M200,93L201,94 M229,93L230,94 M230,93L231,94 M231,93L232,94 M248,93L249,94 M249,93L250,94 M250,93L251,94 M251,93L252,94 M287,93L288,94 M288,93L289,94 M289,93L290,94 M290,93L291,94 M291,93L292,94 M292,93L293,94 M293,93L294,94 M294,93L295,94 M295,93L296,94 M322,93L323,94 M323,93L324,94 M324,93L325,94 M325,93L326,94 M397,93L398,94 M398,93L399,94 M447,93L448,94 M448,93L449,94 M449,93L450,94 M450,93L451,94 M451,93L452,94 M452,93L453,94 M453,93L454,94 M454,93L455,94 M455,93L456,94 M456,93L457,94 M457,93L458,94 M458,93L459,94 M630,93L631,94 M631,93L632,94 M41,94L42,95 M42,94L43,95 M125,94L126,95 M126,94L127,95 M199,94L200,95 M200,94L201,95 M229,94L230,95 M230,94L231,95 M250,94L251,95 M251,94L252,95 M252,94L253,95 M253,94L254,95 M285,94L286,95 M286,94L287,95 M287,94L288,95 M288,94L289,95 M289,94L290,95 M290,94L291,95 M291,94L292,95 M292,94L293,95 M323,94L324,95 M324,94L325,95 M325,94L326,95 M397,94L398,95 M398,94L399,95 M440,94L441,95 M441,94L442,95 M442,94L443,95 M443,94L444,95 M444,94L445,95 M445,94L446,95 M446,94L447,95 M447,94L448,95 M448,94L449,95 M449,94L450,95 M450,94L451,95 M451,94L452,95 M452,94L453,95 M453,94L454,95 M454,94L455,95 M585,94L586,95 M586,94L587,95 M587,94L588,95 M588,94L589,95 M589,94L590,95 M590,94L591,95 M591,94L592,95 M592,94L593,95 M593,94L594,95 M594,94L595,95 M595,94L596,95 M596,94L597,95 M597,94L598,95 M598,94L599,95 M599,94L600,95 M600,94L601,95 M601,94L602,95 M602,94L603,95 M603,94L604,95 M604,94L605,95 M630,94L631,95 M631,94L632,95 M41,95L42,96 M42,95L43,96 M125,95L126,96 M126,95L127,96 M127,95L128,96 M199,95L200,96 M200,95L201,96 M228,95L229,96 M229,95L230,96 M230,95L231,96 M251,95L252,96 M252,95L253,96 M253,95L254,96 M254,95L255,96 M283,95L284,96 M284,95L285,96 M285,95L286,96 M286,95L287,96 M324,95L325,96 M325,95L326,96 M326,95L327,96 M350,95L351,96 M351,95L352,96 M397,95L398,96 M398,95L399,96 M424,95L425,96 M425,95L426,96 M437,95L438,96 M438,95L439,96 M439,95L440,96 M440,95L441,96 M441,95L442,96 M442,95L443,96 M443,95L444,96 M444,95L445,96 M445,95L446,96 M446,95L447,96 M506,95L507,96 M507,95L508,96 M508,95L509,96 M509,95L510,96 M510,95L511,96 M511,95L512,96 M512,95L513,96 M513,95L514,96 M514,95L515,96 M515,95L516,96 M516,95L517,96 M517,95L518,96 M518,95L519,96 M519,95L520,96 M520,95L521,96 M521,95L522,96 M522,95L523,96 M523,95L524,96 M524,95L525,96 M525,95L526,96 M526,95L527,96 M527,95L528,96 M528,95L529,96 M529,95L530,96 M530,95L531,96 M531,95L532,96 M532,95L533,96 M533,95L534,96 M534,95L535,96 M584,95L585,96 M585,95L586,96 M586,95L587,96 M587,95L588,96 M588,95L589,96 M589,95L590,96 M590,95L591,96 M591,95L592,96 M592,95L593,96 M593,95L594,96 M594,95L595,96 M595,95L596,96 M596,95L597,96 M597,95L598,96 M598,95L599,96 M599,95L600,96 M600,95L601,96 M601,95L602,96 M602,95L603,96 M603,95L604,96 M604,95L605,96 M605,95L606,96 M606,95L607,96 M607,95L608,96 M608,95L609,96 M630,95L631,96 M631,95L632,96 M41,96L42,97 M42,96L43,97 M126,96L127,97 M127,96L128,97 M199,96L200,97 M200,96L201,97 M228,96L229,97 M229,96L230,97 M253,96L254,97 M254,96L255,97 M255,96L256,97 M256,96L257,97 M280,96L281,97 M281,96L282,97 M282,96L283,97 M283,96L284,97 M284,96L285,97 M325,96L326,97 M326,96L327,97 M350,96L351,97 M351,96L352,97 M397,96L398,97 M398,96L399,97 M424,96L425,97 M425,96L426,97 M436,96L437,97 M437,96L438,97 M438,96L439,97 M439,96L440,97 M503,96L504,97 M504,96L505,97 M505,96L506,97 M506,96L507,97 M507,96L508,97 M508,96L509,97 M509,96L510,97 M510,96L511,97 M511,96L512,97 M512,96L513,97 M513,96L514,97 M514,96L515,97 M515,96L516,97 M516,96L517,97 M517,96L518,97 M518,96L519,97 M519,96L520,97 M520,96L521,97 M521,96L522,97 M522,96L523,97 M523,96L524,97 M524,96L525,97 M525,96L526,97 M526,96L527,97 M527,96L528,97 M528,96L529,97 M529,96L530,97 M530,96L531,97 M531,96L532,97 M532,96L533,97 M533,96L534,97 M534,96L535,97 M535,96L536,97 M536,96L537,97 M537,96L538,97 M538,96L539,97 M539,96L540,97 M540,96L541,97 M541,96L542,97 M542,96L543,97 M584,96L585,97 M585,96L586,97 M603,96L604,97 M604,96L605,97 M605,96L606,97 M606,96L607,97 M607,96L608,97 M608,96L609,97 M609,96L610,97 M610,96L611,97 M611,96L612,97 M612,96L613,97 M630,96L631,97 M631,96L632,97 M41,97L42,98 M42,97L43,98 M126,97L127,98 M127,97L128,98 M199,97L200,98 M200,97L201,98 M224,97L225,98 M225,97L226,98 M227,97L228,98 M228,97L229,98 M229,97L230,98 M255,97L256,98 M256,97L257,98 M257,97L258,98 M258,97L259,98 M279,97L280,98 M280,97L281,98 M281,97L282,98 M282,97L283,98 M325,97L326,98 M326,97L327,98 M350,97L351,98 M351,97L352,98 M397,97L398,98 M398,97L399,98 M424,97L425,98 M425,97L426,98 M434,97L435,98 M435,97L436,98 M436,97L437,98 M498,97L499,98 M499,97L500,98 M500,97L501,98 M501,97L502,98 M502,97L503,98 M503,97L504,98 M504,97L505,98 M505,97L506,98 M535,97L536,98 M536,97L537,98 M537,97L538,98 M538,97L539,98 M539,97L540,98 M540,97L541,98 M541,97L542,98 M542,97L543,98 M543,97L544,98 M544,97L545,98 M545,97L546,98 M584,97L585,98 M585,97L586,98 M590,97L591,98 M591,97L592,98 M592,97L593,98 M593,97L594,98 M608,97L609,98 M609,97L610,98 M610,97L611,98 M611,97L612,98 M612,97L613,98 M613,97L614,98 M614,97L615,98 M615,97L616,98 M630,97L631,98 M631,97L632,98 M41,98L42,99 M42,98L43,99 M126,98L127,99 M127,98L128,99 M128,98L129,99 M199,98L200,99 M200,98L201,99 M224,98L225,99 M225,98L226,99 M227,98L228,99 M228,98L229,99 M257,98L258,99 M258,98L259,99 M259,98L260,99 M260,98L261,99 M277,98L278,99 M278,98L279,99 M279,98L280,99 M325,98L326,99 M326,98L327,99 M350,98L351,99 M351,98L352,99 M397,98L398,99 M398,98L399,99 M424,98L425,99 M425,98L426,99 M433,98L434,99 M434,98L435,99 M435,98L436,99 M497,98L498,99 M498,98L499,99 M499,98L500,99 M500,98L501,99 M501,98L502,99 M502,98L503,99 M542,98L543,99 M543,98L544,99 M544,98L545,99 M545,98L546,99 M546,98L547,99 M547,98L548,99 M548,98L549,99 M549,98L550,99 M550,98L551,99 M551,98L552,99 M552,98L553,99 M553,98L554,99 M584,98L585,99 M585,98L586,99 M588,98L589,99 M589,98L590,99 M590,98L591,99 M591,98L592,99 M592,98L593,99 M612,98L613,99 M613,98L614,99 M614,98L615,99 M615,98L616,99 M616,98L617,99 M617,98L618,99 M618,98L619,99 M619,98L620,99 M630,98L631,99 M631,98L632,99 M41,99L42,100 M42,99L43,100 M127,99L128,100 M128,99L129,100 M199,99L200,100 M200,99L201,100 M224,99L225,100 M225,99L226,100 M226,99L227,100 M227,99L228,100 M228,99L229,100 M258,99L259,100 M259,99L260,100 M260,99L261,100 M261,99L262,100 M276,99L277,100 M277,99L278,100 M278,99L279,100 M326,99L327,100 M327,99L328,100 M350,99L351,100 M351,99L352,100 M397,99L398,100 M398,99L399,100 M424,99L425,100 M425,99L426,100 M429,99L430,100 M430,99L431,100 M431,99L432,100 M432,99L433,100 M433,99L434,100 M434,99L435,100 M496,99L497,100 M497,99L498,100 M545,99L546,100 M546,99L547,100 M547,99L548,100 M548,99L549,100 M549,99L550,100 M550,99L551,100 M551,99L552,100 M552,99L553,100 M553,99L554,100 M554,99L555,100 M584,99L585,100 M585,99L586,100 M586,99L587,100 M587,99L588,100 M588,99L589,100 M589,99L590,100 M614,99L615,100 M615,99L616,100 M616,99L617,100 M617,99L618,100 M618,99L619,100 M619,99L620,100 M620,99L621,100 M621,99L622,100 M630,99L631,100 M631,99L632,100 M41,100L42,101 M42,100L43,101 M127,100L128,101 M128,100L129,101 M199,100L200,101 M200,100L201,101 M224,100L225,101 M225,100L226,101 M226,100L227,101 M227,100L228,101 M260,100L261,101 M261,100L262,101 M262,100L263,101 M275,100L276,101 M276,100L277,101 M326,100L327,101 M327,100L328,101 M350,100L351,101 M351,100L352,101 M397,100L398,101 M398,100L399,101 M424,100L425,101 M425,100L426,101 M428,100L429,101 M429,100L430,101 M430,100L431,101 M431,100L432,101 M432,100L433,101 M495,100L496,101 M496,100L497,101 M553,100L554,101 M554,100L555,101 M555,100L556,101 M585,100L586,101 M586,100L587,101 M587,100L588,101 M619,100L620,101 M620,100L621,101 M621,100L622,101 M622,100L623,101 M623,100L624,101 M624,100L625,101 M630,100L631,101 M631,100L632,101 M41,101L42,102 M42,101L43,102 M128,101L129,102 M129,101L130,102 M199,101L200,102 M200,101L201,102 M224,101L225,102 M225,101L226,102 M226,101L227,102 M227,101L228,102 M261,101L262,102 M262,101L263,102 M263,101L264,102 M274,101L275,102 M275,101L276,102 M326,101L327,102 M327,101L328,102 M350,101L351,102 M351,101L352,102 M397,101L398,102 M398,101L399,102 M424,101L425,102 M425,101L426,102 M427,101L428,102 M428,101L429,102 M429,101L430,102 M494,101L495,102 M495,101L496,102 M505,101L506,102 M506,101L507,102 M507,101L508,102 M508,101L509,102 M509,101L510,102 M510,101L511,102 M554,101L555,102 M555,101L556,102 M556,101L557,102 M583,101L584,102 M584,101L585,102 M585,101L586,102 M586,101L587,102 M621,101L622,102 M622,101L623,102 M623,101L624,102 M624,101L625,102 M625,101L626,102 M626,101L627,102 M627,101L628,102 M630,101L631,102 M631,101L632,102 M40,102L41,103 M41,102L42,103 M128,102L129,103 M129,102L130,103 M199,102L200,103 M200,102L201,103 M224,102L225,103 M225,102L226,103 M226,102L227,103 M227,102L228,103 M262,102L263,103 M263,102L264,103 M264,102L265,103 M272,102L273,103 M273,102L274,103 M274,102L275,103 M326,102L327,103 M327,102L328,103 M350,102L351,103 M351,102L352,103 M397,102L398,103 M398,102L399,103 M424,102L425,103 M425,102L426,103 M426,102L427,103 M427,102L428,103 M428,102L429,103 M492,102L493,103 M493,102L494,103 M494,102L495,103 M502,102L503,103 M503,102L504,103 M504,102L505,103 M505,102L506,103 M506,102L507,103 M507,102L508,103 M508,102L509,103 M509,102L510,103 M510,102L511,103 M555,102L556,103 M556,102L557,103 M582,102L583,103 M583,102L584,103 M584,102L585,103 M624,102L625,103 M625,102L626,103 M626,102L627,103 M627,102L628,103 M628,102L629,103 M630,102L631,103 M631,102L632,103 M40,103L41,104 M41,103L42,104 M128,103L129,104 M129,103L130,104 M130,103L131,104 M199,103L200,104 M200,103L201,104 M224,103L225,104 M225,103L226,104 M226,103L227,104 M227,103L228,104 M263,103L264,104 M264,103L265,104 M265,103L266,104 M272,103L273,104 M273,103L274,104 M326,103L327,104 M327,103L328,104 M350,103L351,104 M351,103L352,104 M397,103L398,104 M398,103L399,104 M424,103L425,104 M425,103L426,104 M426,103L427,104 M427,103L428,104 M491,103L492,104 M492,103L493,104 M493,103L494,104 M499,103L500,104 M500,103L501,104 M501,103L502,104 M502,103L503,104 M503,103L504,104 M504,103L505,104 M555,103L556,104 M556,103L557,104 M581,103L582,104 M582,103L583,104 M627,103L628,104 M628,103L629,104 M629,103L630,104 M630,103L631,104 M631,103L632,104 M632,103L633,104 M40,104L41,105 M41,104L42,105 M129,104L130,105 M130,104L131,105 M199,104L200,105 M200,104L201,105 M224,104L225,105 M225,104L226,105 M226,104L227,105 M227,104L228,105 M264,104L265,105 M265,104L266,105 M271,104L272,105 M272,104L273,105 M273,104L274,105 M326,104L327,105 M327,104L328,105 M350,104L351,105 M351,104L352,105 M397,104L398,105 M398,104L399,105 M424,104L425,105 M425,104L426,105 M426,104L427,105 M490,104L491,105 M491,104L492,105 M497,104L498,105 M498,104L499,105 M499,104L500,105 M500,104L501,105 M501,104L502,105 M555,104L556,105 M556,104L557,105 M580,104L581,105 M581,104L582,105 M628,104L629,105 M629,104L630,105 M630,104L631,105 M631,104L632,105 M632,104L633,105 M40,105L41,106 M41,105L42,106 M129,105L130,106 M130,105L131,106 M199,105L200,106 M200,105L201,106 M224,105L225,106 M225,105L226,106 M226,105L227,106 M227,105L228,106 M265,105L266,106 M266,105L267,106 M271,105L272,106 M272,105L273,106 M326,105L327,106 M327,105L328,106 M350,105L351,106 M351,105L352,106 M397,105L398,106 M398,105L399,106 M423,105L424,106 M424,105L425,106 M425,105L426,106 M489,105L490,106 M490,105L491,106 M491,105L492,106 M496,105L497,106 M497,105L498,106 M498,105L499,106 M555,105L556,106 M556,105L557,106 M579,105L580,106 M580,105L581,106 M630,105L631,106 M631,105L632,106 M632,105L633,106 M40,106L41,107 M41,106L42,107 M130,106L131,107 M131,106L132,107 M198,106L199,107 M199,106L200,107 M224,106L225,107 M225,106L226,107 M265,106L266,107 M266,106L267,107 M267,106L268,107 M271,106L272,107 M272,106L273,107 M326,106L327,107 M327,106L328,107 M350,106L351,107 M351,106L352,107 M397,106L398,107 M398,106L399,107 M423,106L424,107 M424,106L425,107 M425,106L426,107 M487,106L488,107 M488,106L489,107 M489,106L490,107 M494,106L495,107 M495,106L496,107 M496,106L497,107 M497,106L498,107 M556,106L557,107 M557,106L558,107 M579,106L580,107 M580,106L581,107 M631,106L632,107 M632,106L633,107 M633,106L634,107 M634,106L635,107 M40,107L41,108 M41,107L42,108 M130,107L131,108 M131,107L132,108 M160,107L161,108 M161,107L162,108 M198,107L199,108 M199,107L200,108 M224,107L225,108 M225,107L226,108 M266,107L267,108 M267,107L268,108 M268,107L269,108 M271,107L272,108 M272,107L273,108 M326,107L327,108 M327,107L328,108 M350,107L351,108 M351,107L352,108 M397,107L398,108 M398,107L399,108 M423,107L424,108 M424,107L425,108 M425,107L426,108 M487,107L488,108 M488,107L489,108 M489,107L490,108 M493,107L494,108 M494,107L495,108 M495,107L496,108 M556,107L557,108 M557,107L558,108 M579,107L580,108 M580,107L581,108 M632,107L633,108 M633,107L634,108 M634,107L635,108 M40,108L41,109 M41,108L42,109 M130,108L131,109 M131,108L132,109 M160,108L161,109 M161,108L162,109 M198,108L199,109 M199,108L200,109 M224,108L225,109 M225,108L226,109 M267,108L268,109 M268,108L269,109 M326,108L327,109 M327,108L328,109 M350,108L351,109 M351,108L352,109 M397,108L398,109 M398,108L399,109 M423,108L424,109 M424,108L425,109 M425,108L426,109 M486,108L487,109 M487,108L488,109 M488,108L489,109 M491,108L492,109 M492,108L493,109 M493,108L494,109 M494,108L495,109 M556,108L557,109 M557,108L558,109 M578,108L579,109 M579,108L580,109 M632,108L633,109 M633,108L634,109 M634,108L635,109 M40,109L41,110 M41,109L42,110 M130,109L131,110 M131,109L132,110 M160,109L161,110 M161,109L162,110 M198,109L199,110 M199,109L200,110 M224,109L225,110 M225,109L226,110 M267,109L268,110 M268,109L269,110 M326,109L327,110 M327,109L328,110 M350,109L351,110 M351,109L352,110 M397,109L398,110 M398,109L399,110 M424,109L425,110 M425,109L426,110 M485,109L486,110 M486,109L487,110 M487,109L488,110 M490,109L491,110 M491,109L492,110 M492,109L493,110 M557,109L558,110 M558,109L559,110 M577,109L578,110 M578,109L579,110 M632,109L633,110 M633,109L634,110 M634,109L635,110 M635,109L636,110 M40,110L41,111 M41,110L42,111 M131,110L132,111 M132,110L133,111 M160,110L161,111 M161,110L162,111 M198,110L199,111 M199,110L200,111 M224,110L225,111 M225,110L226,111 M268,110L269,111 M269,110L270,111 M326,110L327,111 M327,110L328,111 M350,110L351,111 M351,110L352,111 M397,110L398,111 M398,110L399,111 M425,110L426,111 M426,110L427,111 M484,110L485,111 M485,110L486,111 M489,110L490,111 M490,110L491,111 M557,110L558,111 M558,110L559,111 M576,110L577,111 M577,110L578,111 M634,110L635,111 M635,110L636,111 M40,111L41,112 M41,111L42,112 M131,111L132,112 M132,111L133,112 M160,111L161,112 M161,111L162,112 M198,111L199,112 M199,111L200,112 M224,111L225,112 M225,111L226,112 M268,111L269,112 M269,111L270,112 M326,111L327,112 M327,111L328,112 M350,111L351,112 M351,111L352,112 M397,111L398,112 M398,111L399,112 M425,111L426,112 M426,111L427,112 M483,111L484,112 M484,111L485,112 M488,111L489,112 M489,111L490,112 M557,111L558,112 M558,111L559,112 M574,111L575,112 M575,111L576,112 M576,111L577,112 M634,111L635,112 M635,111L636,112 M40,112L41,113 M41,112L42,113 M131,112L132,113 M132,112L133,113 M160,112L161,113 M161,112L162,113 M198,112L199,113 M199,112L200,113 M224,112L225,113 M225,112L226,113 M268,112L269,113 M269,112L270,113 M326,112L327,113 M327,112L328,113 M350,112L351,113 M351,112L352,113 M397,112L398,113 M398,112L399,113 M425,112L426,113 M426,112L427,113 M483,112L484,113 M484,112L485,113 M486,112L487,113 M487,112L488,113 M488,112L489,113 M557,112L558,113 M558,112L559,113 M574,112L575,113 M575,112L576,113 M634,112L635,113 M635,112L636,113 M40,113L41,114 M41,113L42,114 M131,113L132,114 M132,113L133,114 M160,113L161,114 M161,113L162,114 M197,113L198,114 M198,113L199,114 M199,113L200,114 M224,113L225,114 M225,113L226,114 M268,113L269,114 M269,113L270,114 M326,113L327,114 M327,113L328,114 M350,113L351,114 M351,113L352,114 M397,113L398,114 M398,113L399,114 M425,113L426,114 M426,113L427,114 M486,113L487,114 M487,113L488,114 M557,113L558,114 M558,113L559,114 M573,113L574,114 M574,113L575,114 M575,113L576,114 M634,113L635,114 M635,113L636,114 M40,114L41,115 M41,114L42,115 M131,114L132,115 M132,114L133,115 M160,114L161,115 M161,114L162,115 M197,114L198,115 M198,114L199,115 M224,114L225,115 M225,114L226,115 M268,114L269,115 M269,114L270,115 M326,114L327,115 M327,114L328,115 M350,114L351,115 M351,114L352,115 M397,114L398,115 M398,114L399,115 M425,114L426,115 M426,114L427,115 M485,114L486,115 M486,114L487,115 M487,114L488,115 M557,114L558,115 M558,114L559,115 M573,114L574,115 M574,114L575,115 M634,114L635,115 M635,114L636,115 M40,115L41,116 M41,115L42,116 M131,115L132,116 M132,115L133,116 M160,115L161,116 M161,115L162,116 M197,115L198,116 M198,115L199,116 M224,115L225,116 M225,115L226,116 M268,115L269,116 M269,115L270,116 M326,115L327,116 M327,115L328,116 M350,115L351,116 M351,115L352,116 M397,115L398,116 M398,115L399,116 M425,115L426,116 M426,115L427,116 M484,115L485,116 M485,115L486,116 M486,115L487,116 M557,115L558,116 M558,115L559,116 M573,115L574,116 M574,115L575,116 M634,115L635,116 M635,115L636,116 M40,116L41,117 M41,116L42,117 M131,116L132,117 M132,116L133,117 M160,116L161,117 M161,116L162,117 M197,116L198,117 M198,116L199,117 M224,116L225,117 M225,116L226,117 M268,116L269,117 M269,116L270,117 M326,116L327,117 M327,116L328,117 M350,116L351,117 M351,116L352,117 M397,116L398,117 M398,116L399,117 M399,116L400,117 M425,116L426,117 M426,116L427,117 M484,116L485,117 M485,116L486,117 M557,116L558,117 M558,116L559,117 M573,116L574,117 M574,116L575,117 M634,116L635,117 M635,116L636,117 M40,117L41,118 M41,117L42,118 M131,117L132,118 M132,117L133,118 M160,117L161,118 M161,117L162,118 M197,117L198,118 M198,117L199,118 M224,117L225,118 M225,117L226,118 M268,117L269,118 M269,117L270,118 M326,117L327,118 M327,117L328,118 M350,117L351,118 M351,117L352,118 M398,117L399,118 M399,117L400,118 M425,117L426,118 M426,117L427,118 M483,117L484,118 M484,117L485,118 M485,117L486,118 M557,117L558,118 M558,117L559,118 M573,117L574,118 M574,117L575,118 M634,117L635,118 M635,117L636,118 M40,118L41,119 M41,118L42,119 M131,118L132,119 M132,118L133,119 M160,118L161,119 M161,118L162,119 M196,118L197,119 M197,118L198,119 M224,118L225,119 M225,118L226,119 M269,118L270,119 M270,118L271,119 M326,118L327,119 M327,118L328,119 M350,118L351,119 M351,118L352,119 M398,118L399,119 M399,118L400,119 M425,118L426,119 M426,118L427,119 M483,118L484,119 M484,118L485,119 M557,118L558,119 M558,118L559,119 M572,118L573,119 M573,118L574,119 M634,118L635,119 M635,118L636,119 M40,119L41,120 M41,119L42,120 M131,119L132,120 M132,119L133,120 M160,119L161,120 M161,119L162,120 M196,119L197,120 M197,119L198,120 M224,119L225,120 M225,119L226,120 M269,119L270,120 M270,119L271,120 M326,119L327,120 M327,119L328,120 M350,119L351,120 M351,119L352,120 M398,119L399,120 M399,119L400,120 M425,119L426,120 M426,119L427,120 M482,119L483,120 M483,119L484,120 M484,119L485,120 M557,119L558,120 M558,119L559,120 M572,119L573,120 M573,119L574,120 M634,119L635,120 M635,119L636,120 M40,120L41,121 M41,120L42,121 M131,120L132,121 M132,120L133,121 M160,120L161,121 M161,120L162,121 M196,120L197,121 M197,120L198,121 M224,120L225,121 M225,120L226,121 M269,120L270,121 M270,120L271,121 M325,120L326,121 M326,120L327,121 M350,120L351,121 M351,120L352,121 M398,120L399,121 M399,120L400,121 M425,120L426,121 M426,120L427,121 M481,120L482,121 M482,120L483,121 M483,120L484,121 M557,120L558,121 M558,120L559,121 M572,120L573,121 M573,120L574,121 M634,120L635,121 M635,120L636,121 M40,121L41,122 M41,121L42,122 M131,121L132,122 M132,121L133,122 M160,121L161,122 M161,121L162,122 M196,121L197,122 M197,121L198,122 M224,121L225,122 M225,121L226,122 M269,121L270,122 M270,121L271,122 M325,121L326,122 M326,121L327,122 M350,121L351,122 M351,121L352,122 M398,121L399,122 M399,121L400,122 M400,121L401,122 M425,121L426,122 M426,121L427,122 M481,121L482,122 M482,121L483,122 M557,121L558,122 M558,121L559,122 M572,121L573,122 M573,121L574,122 M634,121L635,122 M635,121L636,122 M40,122L41,123 M41,122L42,123 M131,122L132,123 M132,122L133,123 M160,122L161,123 M161,122L162,123 M196,122L197,123 M197,122L198,123 M224,122L225,123 M225,122L226,123 M269,122L270,123 M270,122L271,123 M325,122L326,123 M326,122L327,123 M350,122L351,123 M351,122L352,123 M399,122L400,123 M400,122L401,123 M425,122L426,123 M426,122L427,123 M481,122L482,123 M482,122L483,123 M557,122L558,123 M558,122L559,123 M572,122L573,123 M573,122L574,123 M634,122L635,123 M635,122L636,123 M40,123L41,124 M41,123L42,124 M131,123L132,124 M132,123L133,124 M160,123L161,124 M161,123L162,124 M196,123L197,124 M197,123L198,124 M224,123L225,124 M225,123L226,124 M269,123L270,124 M270,123L271,124 M325,123L326,124 M326,123L327,124 M350,123L351,124 M351,123L352,124 M399,123L400,124 M400,123L401,124 M425,123L426,124 M426,123L427,124 M481,123L482,124 M482,123L483,124 M557,123L558,124 M558,123L559,124 M571,123L572,124 M572,123L573,124 M573,123L574,124 M634,123L635,124 M635,123L636,124 M40,124L41,125 M41,124L42,125 M131,124L132,125 M132,124L133,125 M160,124L161,125 M161,124L162,125 M196,124L197,125 M197,124L198,125 M224,124L225,125 M225,124L226,125 M269,124L270,125 M270,124L271,125 M324,124L325,125 M325,124L326,125 M350,124L351,125 M351,124L352,125 M399,124L400,125 M400,124L401,125 M425,124L426,125 M426,124L427,125 M480,124L481,125 M481,124L482,125 M557,124L558,125 M558,124L559,125 M571,124L572,125 M572,124L573,125 M634,124L635,125 M635,124L636,125 M40,125L41,126 M41,125L42,126 M131,125L132,126 M132,125L133,126 M160,125L161,126 M161,125L162,126 M196,125L197,126 M197,125L198,126 M224,125L225,126 M225,125L226,126 M269,125L270,126 M270,125L271,126 M324,125L325,126 M325,125L326,126 M350,125L351,126 M351,125L352,126 M399,125L400,126 M400,125L401,126 M425,125L426,126 M426,125L427,126 M480,125L481,126 M481,125L482,126 M556,125L557,126 M557,125L558,126 M558,125L559,126 M571,125L572,126 M572,125L573,126 M634,125L635,126 M635,125L636,126 M40,126L41,127 M41,126L42,127 M131,126L132,127 M132,126L133,127 M160,126L161,127 M161,126L162,127 M196,126L197,127 M197,126L198,127 M224,126L225,127 M225,126L226,127 M269,126L270,127 M270,126L271,127 M324,126L325,127 M325,126L326,127 M350,126L351,127 M351,126L352,127 M399,126L400,127 M400,126L401,127 M425,126L426,127 M426,126L427,127 M479,126L480,127 M480,126L481,127 M481,126L482,127 M556,126L557,127 M557,126L558,127 M571,126L572,127 M572,126L573,127 M634,126L635,127 M635,126L636,127 M40,127L41,128 M41,127L42,128 M131,127L132,128 M132,127L133,128 M160,127L161,128 M161,127L162,128 M195,127L196,128 M196,127L197,128 M224,127L225,128 M225,127L226,128 M269,127L270,128 M270,127L271,128 M324,127L325,128 M325,127L326,128 M350,127L351,128 M351,127L352,128 M399,127L400,128 M400,127L401,128 M425,127L426,128 M426,127L427,128 M479,127L480,128 M480,127L481,128 M556,127L557,128 M557,127L558,128 M571,127L572,128 M572,127L573,128 M634,127L635,128 M635,127L636,128 M40,128L41,129 M41,128L42,129 M131,128L132,129 M132,128L133,129 M160,128L161,129 M161,128L162,129 M195,128L196,129 M196,128L197,129 M224,128L225,129 M225,128L226,129 M269,128L270,129 M270,128L271,129 M323,128L324,129 M324,128L325,129 M350,128L351,129 M351,128L352,129 M399,128L400,129 M400,128L401,129 M425,128L426,129 M426,128L427,129 M479,128L480,129 M480,128L481,129 M556,128L557,129 M557,128L558,129 M571,128L572,129 M572,128L573,129 M634,128L635,129 M635,128L636,129 M40,129L41,130 M41,129L42,130 M131,129L132,130 M132,129L133,130 M160,129L161,130 M161,129L162,130 M195,129L196,130 M196,129L197,130 M224,129L225,130 M225,129L226,130 M269,129L270,130 M270,129L271,130 M323,129L324,130 M324,129L325,130 M350,129L351,130 M351,129L352,130 M400,129L401,130 M401,129L402,130 M425,129L426,130 M426,129L427,130 M479,129L480,130 M480,129L481,130 M556,129L557,130 M557,129L558,130 M571,129L572,130 M572,129L573,130 M634,129L635,130 M635,129L636,130 M40,130L41,131 M41,130L42,131 M131,130L132,131 M132,130L133,131 M159,130L160,131 M160,130L161,131 M194,130L195,131 M195,130L196,131 M196,130L197,131 M224,130L225,131 M225,130L226,131 M269,130L270,131 M270,130L271,131 M323,130L324,131 M324,130L325,131 M350,130L351,131 M351,130L352,131 M400,130L401,131 M401,130L402,131 M426,130L427,131 M427,130L428,131 M479,130L480,131 M480,130L481,131 M555,130L556,131 M556,130L557,131 M557,130L558,131 M571,130L572,131 M572,130L573,131 M634,130L635,131 M635,130L636,131 M40,131L41,132 M41,131L42,132 M131,131L132,132 M132,131L133,132 M159,131L160,132 M160,131L161,132 M194,131L195,132 M195,131L196,132 M224,131L225,132 M225,131L226,132 M269,131L270,132 M270,131L271,132 M323,131L324,132 M324,131L325,132 M350,131L351,132 M351,131L352,132 M400,131L401,132 M401,131L402,132 M426,131L427,132 M427,131L428,132 M479,131L480,132 M480,131L481,132 M555,131L556,132 M556,131L557,132 M571,131L572,132 M572,131L573,132 M634,131L635,132 M635,131L636,132 M40,132L41,133 M41,132L42,133 M131,132L132,133 M132,132L133,133 M159,132L160,133 M160,132L161,133 M194,132L195,133 M195,132L196,133 M224,132L225,133 M225,132L226,133 M269,132L270,133 M270,132L271,133 M322,132L323,133 M323,132L324,133 M350,132L351,133 M351,132L352,133 M400,132L401,133 M401,132L402,133 M426,132L427,133 M427,132L428,133 M479,132L480,133 M480,132L481,133 M555,132L556,133 M556,132L557,133 M571,132L572,133 M572,132L573,133 M634,132L635,133 M635,132L636,133 M40,133L41,134 M41,133L42,134 M131,133L132,134 M132,133L133,134 M159,133L160,134 M160,133L161,134 M194,133L195,134 M195,133L196,134 M224,133L225,134 M225,133L226,134 M269,133L270,134 M270,133L271,134 M322,133L323,134 M323,133L324,134 M350,133L351,134 M351,133L352,134 M400,133L401,134 M401,133L402,134 M426,133L427,134 M427,133L428,134 M479,133L480,134 M480,133L481,134 M555,133L556,134 M556,133L557,134 M571,133L572,134 M572,133L573,134 M634,133L635,134 M635,133L636,134 M40,134L41,135 M41,134L42,135 M131,134L132,135 M132,134L133,135 M159,134L160,135 M160,134L161,135 M194,134L195,135 M195,134L196,135 M224,134L225,135 M225,134L226,135 M269,134L270,135 M270,134L271,135 M322,134L323,135 M323,134L324,135 M350,134L351,135 M351,134L352,135 M400,134L401,135 M401,134L402,135 M426,134L427,135 M427,134L428,135 M479,134L480,135 M480,134L481,135 M554,134L555,135 M555,134L556,135 M571,134L572,135 M572,134L573,135 M634,134L635,135 M635,134L636,135 M40,135L41,136 M41,135L42,136 M131,135L132,136 M132,135L133,136 M159,135L160,136 M160,135L161,136 M194,135L195,136 M195,135L196,136 M224,135L225,136 M225,135L226,136 M269,135L270,136 M270,135L271,136 M321,135L322,136 M322,135L323,136 M323,135L324,136 M350,135L351,136 M351,135L352,136 M400,135L401,136 M401,135L402,136 M426,135L427,136 M427,135L428,136 M479,135L480,136 M480,135L481,136 M554,135L555,136 M555,135L556,136 M571,135L572,136 M572,135L573,136 M634,135L635,136 M635,135L636,136 M40,136L41,137 M41,136L42,137 M131,136L132,137 M132,136L133,137 M159,136L160,137 M160,136L161,137 M194,136L195,137 M195,136L196,137 M224,136L225,137 M225,136L226,137 M269,136L270,137 M270,136L271,137 M321,136L322,137 M322,136L323,137 M350,136L351,137 M351,136L352,137 M400,136L401,137 M401,136L402,137 M426,136L427,137 M427,136L428,137 M480,136L481,137 M481,136L482,137 M553,136L554,137 M554,136L555,137 M555,136L556,137 M571,136L572,137 M572,136L573,137 M633,136L634,137 M634,136L635,137 M635,136L636,137 M40,137L41,138 M41,137L42,138 M131,137L132,138 M132,137L133,138 M159,137L160,138 M160,137L161,138 M194,137L195,138 M195,137L196,138 M224,137L225,138 M225,137L226,138 M269,137L270,138 M270,137L271,138 M321,137L322,138 M322,137L323,138 M350,137L351,138 M351,137L352,138 M400,137L401,138 M401,137L402,138 M426,137L427,138 M427,137L428,138 M480,137L481,138 M481,137L482,138 M553,137L554,138 M554,137L555,138 M571,137L572,138 M572,137L573,138 M633,137L634,138 M634,137L635,138 M40,138L41,139 M41,138L42,139 M130,138L131,139 M131,138L132,139 M159,138L160,139 M160,138L161,139 M194,138L195,139 M195,138L196,139 M224,138L225,139 M225,138L226,139 M269,138L270,139 M270,138L271,139 M321,138L322,139 M322,138L323,139 M350,138L351,139 M351,138L352,139 M400,138L401,139 M401,138L402,139 M426,138L427,139 M427,138L428,139 M481,138L482,139 M482,138L483,139 M552,138L553,139 M553,138L554,139 M554,138L555,139 M571,138L572,139 M572,138L573,139 M633,138L634,139 M634,138L635,139 M40,139L41,140 M41,139L42,140 M130,139L131,140 M131,139L132,140 M159,139L160,140 M160,139L161,140 M193,139L194,140 M194,139L195,140 M224,139L225,140 M225,139L226,140 M269,139L270,140 M270,139L271,140 M320,139L321,140 M321,139L322,140 M350,139L351,140 M351,139L352,140 M400,139L401,140 M401,139L402,140 M426,139L427,140 M427,139L428,140 M481,139L482,140 M482,139L483,140 M483,139L484,140 M552,139L553,140 M553,139L554,140 M571,139L572,140 M572,139L573,140 M633,139L634,140 M634,139L635,140 M40,140L41,141 M41,140L42,141 M130,140L131,141 M131,140L132,141 M159,140L160,141 M160,140L161,141 M193,140L194,141 M194,140L195,141 M224,140L225,141 M225,140L226,141 M268,140L269,141 M269,140L270,141 M320,140L321,141 M321,140L322,141 M350,140L351,141 M351,140L352,141 M400,140L401,141 M401,140L402,141 M426,140L427,141 M427,140L428,141 M482,140L483,141 M483,140L484,141 M484,140L485,141 M551,140L552,141 M552,140L553,141 M553,140L554,141 M571,140L572,141 M572,140L573,141 M633,140L634,141 M634,140L635,141 M40,141L41,142 M41,141L42,142 M129,141L130,142 M130,141L131,142 M159,141L160,142 M160,141L161,142 M193,141L194,142 M194,141L195,142 M224,141L225,142 M225,141L226,142 M268,141L269,142 M269,141L270,142 M320,141L321,142 M321,141L322,142 M350,141L351,142 M351,141L352,142 M399,141L400,142 M400,141L401,142 M401,141L402,142 M426,141L427,142 M427,141L428,142 M483,141L484,142 M484,141L485,142 M551,141L552,142 M552,141L553,142 M571,141L572,142 M572,141L573,142 M633,141L634,142 M634,141L635,142 M40,142L41,143 M41,142L42,143 M129,142L130,143 M130,142L131,143 M158,142L159,143 M159,142L160,143 M193,142L194,143 M194,142L195,143 M224,142L225,143 M225,142L226,143 M268,142L269,143 M269,142L270,143 M319,142L320,143 M320,142L321,143 M350,142L351,143 M351,142L352,143 M399,142L400,143 M400,142L401,143 M426,142L427,143 M427,142L428,143 M484,142L485,143 M485,142L486,143 M550,142L551,143 M551,142L552,143 M552,142L553,143 M571,142L572,143 M572,142L573,143 M633,142L634,143 M634,142L635,143 M40,143L41,144 M41,143L42,144 M128,143L129,144 M129,143L130,144 M130,143L131,144 M158,143L159,144 M159,143L160,144 M193,143L194,144 M194,143L195,144 M224,143L225,144 M225,143L226,144 M268,143L269,144 M269,143L270,144 M319,143L320,144 M320,143L321,144 M350,143L351,144 M351,143L352,144 M399,143L400,144 M400,143L401,144 M426,143L427,144 M427,143L428,144 M484,143L485,144 M485,143L486,144 M486,143L487,144 M550,143L551,144 M551,143L552,144 M571,143L572,144 M572,143L573,144 M632,143L633,144 M633,143L634,144 M634,143L635,144 M40,144L41,145 M41,144L42,145 M128,144L129,145 M129,144L130,145 M158,144L159,145 M159,144L160,145 M193,144L194,145 M194,144L195,145 M224,144L225,145 M225,144L226,145 M268,144L269,145 M269,144L270,145 M318,144L319,145 M319,144L320,145 M320,144L321,145 M350,144L351,145 M351,144L352,145 M399,144L400,145 M400,144L401,145 M426,144L427,145 M427,144L428,145 M485,144L486,145 M486,144L487,145 M549,144L550,145 M550,144L551,145 M572,144L573,145 M573,144L574,145 M631,144L632,145 M632,144L633,145 M633,144L634,145 M40,145L41,146 M41,145L42,146 M128,145L129,146 M129,145L130,146 M158,145L159,146 M159,145L160,146 M193,145L194,146 M194,145L195,146 M224,145L225,146 M225,145L226,146 M268,145L269,146 M269,145L270,146 M318,145L319,146 M319,145L320,146 M350,145L351,146 M351,145L352,146 M398,145L399,146 M399,145L400,146 M426,145L427,146 M427,145L428,146 M486,145L487,146 M487,145L488,146 M548,145L549,146 M549,145L550,146 M572,145L573,146 M573,145L574,146 M631,145L632,146 M632,145L633,146 M40,146L41,147 M41,146L42,147 M127,146L128,147 M128,146L129,147 M158,146L159,147 M159,146L160,147 M193,146L194,147 M194,146L195,147 M224,146L225,147 M225,146L226,147 M267,146L268,147 M268,146L269,147 M317,146L318,147 M318,146L319,147 M319,146L320,147 M350,146L351,147 M351,146L352,147 M398,146L399,147 M399,146L400,147 M426,146L427,147 M427,146L428,147 M486,146L487,147 M487,146L488,147 M488,146L489,147 M546,146L547,147 M547,146L548,147 M548,146L549,147 M572,146L573,147 M573,146L574,147 M574,146L575,147 M630,146L631,147 M631,146L632,147 M632,146L633,147 M40,147L41,148 M41,147L42,148 M127,147L128,148 M128,147L129,148 M157,147L158,148 M158,147L159,148 M193,147L194,148 M194,147L195,148 M224,147L225,148 M225,147L226,148 M267,147L268,148 M268,147L269,148 M317,147L318,148 M318,147L319,148 M350,147L351,148 M351,147L352,148 M397,147L398,148 M398,147L399,148 M426,147L427,148 M427,147L428,148 M487,147L488,148 M488,147L489,148 M489,147L490,148 M545,147L546,148 M546,147L547,148 M547,147L548,148 M573,147L574,148 M574,147L575,148 M630,147L631,148 M631,147L632,148 M40,148L41,149 M41,148L42,149 M126,148L127,149 M127,148L128,149 M128,148L129,149 M157,148L158,149 M158,148L159,149 M193,148L194,149 M194,148L195,149 M224,148L225,149 M225,148L226,149 M267,148L268,149 M268,148L269,149 M317,148L318,149 M318,148L319,149 M350,148L351,149 M351,148L352,149 M396,148L397,149 M397,148L398,149 M426,148L427,149 M427,148L428,149 M488,148L489,149 M489,148L490,149 M490,148L491,149 M544,148L545,149 M545,148L546,149 M573,148L574,149 M574,148L575,149 M629,148L630,149 M630,148L631,149 M631,148L632,149 M40,149L41,150 M41,149L42,150 M126,149L127,150 M127,149L128,150 M157,149L158,150 M158,149L159,150 M193,149L194,150 M194,149L195,150 M224,149L225,150 M225,149L226,150 M267,149L268,150 M268,149L269,150 M317,149L318,150 M318,149L319,150 M351,149L352,150 M352,149L353,150 M394,149L395,150 M395,149L396,150 M396,149L397,150 M426,149L427,150 M427,149L428,150 M489,149L490,150 M490,149L491,150 M491,149L492,150 M492,149L493,150 M493,149L494,150 M542,149L543,150 M543,149L544,150 M544,149L545,150 M573,149L574,150 M574,149L575,150 M629,149L630,150 M630,149L631,150 M40,150L41,151 M41,150L42,151 M126,150L127,151 M127,150L128,151 M157,150L158,151 M158,150L159,151 M193,150L194,151 M194,150L195,151 M224,150L225,151 M225,150L226,151 M267,150L268,151 M268,150L269,151 M317,150L318,151 M318,150L319,151 M351,150L352,151 M352,150L353,151 M394,150L395,151 M395,150L396,151 M426,150L427,151 M427,150L428,151 M490,150L491,151 M491,150L492,151 M492,150L493,151 M493,150L494,151 M494,150L495,151 M495,150L496,151 M539,150L540,151 M540,150L541,151 M541,150L542,151 M542,150L543,151 M543,150L544,151 M573,150L574,151 M574,150L575,151 M575,150L576,151 M628,150L629,151 M629,150L630,151 M630,150L631,151 M40,151L41,152 M41,151L42,152 M125,151L126,152 M126,151L127,152 M157,151L158,152 M158,151L159,152 M193,151L194,152 M194,151L195,152 M223,151L224,152 M224,151L225,152 M267,151L268,152 M268,151L269,152 M317,151L318,152 M318,151L319,152 M351,151L352,152 M352,151L353,152 M393,151L394,152 M394,151L395,152 M395,151L396,152 M426,151L427,152 M427,151L428,152 M493,151L494,152 M494,151L495,152 M495,151L496,152 M496,151L497,152 M535,151L536,152 M536,151L537,152 M537,151L538,152 M538,151L539,152 M539,151L540,152 M540,151L541,152 M541,151L542,152 M574,151L575,152 M575,151L576,152 M576,151L577,152 M628,151L629,152 M629,151L630,152 M40,152L41,153 M41,152L42,153 M125,152L126,153 M126,152L127,153 M157,152L158,153 M158,152L159,153 M192,152L193,153 M193,152L194,153 M223,152L224,153 M224,152L225,153 M266,152L267,153 M267,152L268,153 M316,152L317,153 M317,152L318,153 M351,152L352,153 M352,152L353,153 M353,152L354,153 M354,152L355,153 M392,152L393,153 M393,152L394,153 M394,152L395,153 M426,152L427,153 M427,152L428,153 M495,152L496,153 M496,152L497,153 M497,152L498,153 M498,152L499,153 M533,152L534,153 M534,152L535,153 M535,152L536,153 M536,152L537,153 M537,152L538,153 M538,152L539,153 M539,152L540,153 M575,152L576,153 M576,152L577,153 M627,152L628,153 M628,152L629,153 M629,152L630,153 M40,153L41,154 M41,153L42,154 M124,153L125,154 M125,153L126,154 M126,153L127,154 M157,153L158,154 M158,153L159,154 M192,153L193,154 M193,153L194,154 M223,153L224,154 M224,153L225,154 M266,153L267,154 M267,153L268,154 M316,153L317,154 M317,153L318,154 M352,153L353,154 M353,153L354,154 M354,153L355,154 M355,153L356,154 M390,153L391,154 M391,153L392,154 M392,153L393,154 M393,153L394,154 M426,153L427,154 M427,153L428,154 M497,153L498,154 M498,153L499,154 M499,153L500,154 M500,153L501,154 M501,153L502,154 M502,153L503,154 M529,153L530,154 M530,153L531,154 M531,153L532,154 M532,153L533,154 M533,153L534,154 M534,153L535,154 M535,153L536,154 M576,153L577,154 M577,153L578,154 M626,153L627,154 M627,153L628,154 M628,153L629,154 M40,154L41,155 M41,154L42,155 M124,154L125,155 M125,154L126,155 M156,154L157,155 M157,154L158,155 M158,154L159,155 M192,154L193,155 M193,154L194,155 M223,154L224,155 M224,154L225,155 M266,154L267,155 M267,154L268,155 M316,154L317,155 M317,154L318,155 M354,154L355,155 M355,154L356,155 M356,154L357,155 M357,154L358,155 M386,154L387,155 M387,154L388,155 M388,154L389,155 M389,154L390,155 M390,154L391,155 M391,154L392,155 M426,154L427,155 M427,154L428,155 M499,154L500,155 M500,154L501,155 M501,154L502,155 M502,154L503,155 M503,154L504,155 M504,154L505,155 M505,154L506,155 M506,154L507,155 M507,154L508,155 M508,154L509,155 M509,154L510,155 M510,154L511,155 M511,154L512,155 M512,154L513,155 M513,154L514,155 M514,154L515,155 M515,154L516,155 M516,154L517,155 M517,154L518,155 M518,154L519,155 M519,154L520,155 M520,154L521,155 M521,154L522,155 M522,154L523,155 M523,154L524,155 M524,154L525,155 M525,154L526,155 M526,154L527,155 M527,154L528,155 M528,154L529,155 M529,154L530,155 M530,154L531,155 M531,154L532,155 M532,154L533,155 M576,154L577,155 M577,154L578,155 M578,154L579,155 M626,154L627,155 M627,154L628,155 M40,155L41,156 M41,155L42,156 M123,155L124,156 M124,155L125,156 M156,155L157,156 M157,155L158,156 M192,155L193,156 M193,155L194,156 M223,155L224,156 M224,155L225,156 M266,155L267,156 M267,155L268,156 M316,155L317,156 M317,155L318,156 M355,155L356,156 M356,155L357,156 M357,155L358,156 M358,155L359,156 M359,155L360,156 M385,155L386,156 M386,155L387,156 M387,155L388,156 M388,155L389,156 M389,155L390,156 M390,155L391,156 M426,155L427,156 M427,155L428,156 M503,155L504,156 M504,155L505,156 M505,155L506,156 M506,155L507,156 M507,155L508,156 M508,155L509,156 M509,155L510,156 M510,155L511,156 M511,155L512,156 M512,155L513,156 M513,155L514,156 M514,155L515,156 M515,155L516,156 M516,155L517,156 M517,155L518,156 M518,155L519,156 M519,155L520,156 M520,155L521,156 M521,155L522,156 M522,155L523,156 M523,155L524,156 M524,155L525,156 M525,155L526,156 M526,155L527,156 M527,155L528,156 M528,155L529,156 M577,155L578,156 M578,155L579,156 M579,155L580,156 M580,155L581,156 M624,155L625,156 M625,155L626,156 M626,155L627,156 M40,156L41,157 M41,156L42,157 M122,156L123,157 M123,156L124,157 M124,156L125,157 M156,156L157,157 M157,156L158,157 M192,156L193,157 M193,156L194,157 M223,156L224,157 M224,156L225,157 M266,156L267,157 M267,156L268,157 M316,156L317,157 M317,156L318,157 M357,156L358,157 M358,156L359,157 M359,156L360,157 M360,156L361,157 M361,156L362,157 M362,156L363,157 M363,156L364,157 M364,156L365,157 M365,156L366,157 M366,156L367,157 M367,156L368,157 M368,156L369,157 M369,156L370,157 M370,156L371,157 M371,156L372,157 M372,156L373,157 M373,156L374,157 M374,156L375,157 M375,156L376,157 M376,156L377,157 M377,156L378,157 M378,156L379,157 M379,156L380,157 M380,156L381,157 M381,156L382,157 M382,156L383,157 M383,156L384,157 M384,156L385,157 M385,156L386,157 M386,156L387,157 M426,156L427,157 M427,156L428,157 M579,156L580,157 M580,156L581,157 M581,156L582,157 M582,156L583,157 M583,156L584,157 M584,156L585,157 M585,156L586,157 M623,156L624,157 M624,156L625,157 M625,156L626,157 M40,157L41,158 M41,157L42,158 M121,157L122,158 M122,157L123,158 M123,157L124,158 M156,157L157,158 M157,157L158,158 M192,157L193,158 M193,157L194,158 M223,157L224,158 M224,157L225,158 M266,157L267,158 M267,157L268,158 M316,157L317,158 M317,157L318,158 M360,157L361,158 M361,157L362,158 M362,157L363,158 M363,157L364,158 M364,157L365,158 M365,157L366,158 M366,157L367,158 M367,157L368,158 M368,157L369,158 M369,157L370,158 M370,157L371,158 M371,157L372,158 M372,157L373,158 M373,157L374,158 M374,157L375,158 M375,157L376,158 M376,157L377,158 M377,157L378,158 M378,157L379,158 M379,157L380,158 M380,157L381,158 M381,157L382,158 M382,157L383,158 M383,157L384,158 M384,157L385,158 M426,157L427,158 M427,157L428,158 M581,157L582,158 M582,157L583,158 M583,157L584,158 M584,157L585,158 M585,157L586,158 M586,157L587,158 M587,157L588,158 M621,157L622,158 M622,157L623,158 M623,157L624,158 M624,157L625,158 M40,158L41,159 M41,158L42,159 M120,158L121,159 M121,158L122,159 M122,158L123,159 M155,158L156,159 M156,158L157,159 M157,158L158,159 M192,158L193,159 M193,158L194,159 M223,158L224,159 M224,158L225,159 M266,158L267,159 M267,158L268,159 M316,158L317,159 M317,158L318,159 M426,158L427,159 M427,158L428,159 M585,158L586,159 M586,158L587,159 M587,158L588,159 M588,158L589,159 M589,158L590,159 M590,158L591,159 M591,158L592,159 M592,158L593,159 M619,158L620,159 M620,158L621,159 M621,158L622,159 M622,158L623,159 M40,159L41,160 M41,159L42,160 M119,159L120,160 M120,159L121,160 M121,159L122,160 M155,159L156,160 M156,159L157,160 M191,159L192,160 M192,159L193,160 M266,159L267,160 M267,159L268,160 M316,159L317,160 M317,159L318,160 M426,159L427,160 M427,159L428,160 M588,159L589,160 M589,159L590,160 M590,159L591,160 M591,159L592,160 M592,159L593,160 M593,159L594,160 M594,159L595,160 M595,159L596,160 M596,159L597,160 M597,159L598,160 M598,159L599,160 M599,159L600,160 M600,159L601,160 M601,159L602,160 M602,159L603,160 M603,159L604,160 M604,159L605,160 M605,159L606,160 M606,159L607,160 M607,159L608,160 M608,159L609,160 M609,159L610,160 M610,159L611,160 M611,159L612,160 M612,159L613,160 M613,159L614,160 M614,159L615,160 M615,159L616,160 M616,159L617,160 M617,159L618,160 M618,159L619,160 M619,159L620,160 M620,159L621,160 M40,160L41,161 M41,160L42,161 M117,160L118,161 M118,160L119,161 M119,160L120,161 M120,160L121,161 M155,160L156,161 M156,160L157,161 M191,160L192,161 M192,160L193,161 M265,160L266,161 M266,160L267,161 M316,160L317,161 M317,160L318,161 M592,160L593,161 M593,160L594,161 M594,160L595,161 M595,160L596,161 M596,160L597,161 M597,160L598,161 M598,160L599,161 M599,160L600,161 M600,160L601,161 M601,160L602,161 M602,160L603,161 M603,160L604,161 M604,160L605,161 M605,160L606,161 M606,160L607,161 M607,160L608,161 M608,160L609,161 M609,160L610,161 M610,160L611,161 M611,160L612,161 M612,160L613,161 M613,160L614,161 M614,160L615,161 M615,160L616,161 M616,160L617,161 M617,160L618,161 M618,160L619,161 M40,161L41,162 M41,161L42,162 M116,161L117,162 M117,161L118,162 M118,161L119,162 M155,161L156,162 M156,161L157,162 M191,161L192,162 M192,161L193,162 M265,161L266,162 M266,161L267,162 M316,161L317,162 M317,161L318,162 M40,162L41,163 M41,162L42,163 M115,162L116,163 M116,162L117,163 M117,162L118,163 M155,162L156,163 M156,162L157,163 M191,162L192,163 M192,162L193,163 M316,162L317,163 M317,162L318,163 M40,163L41,164 M41,163L42,164 M113,163L114,164 M114,163L115,164 M115,163L116,164 M116,163L117,164 M155,163L156,164 M156,163L157,164 M191,163L192,164 M192,163L193,164 M40,164L41,165 M41,164L42,165 M112,164L113,165 M113,164L114,165 M114,164L115,165 M155,164L156,165 M156,164L157,165 M191,164L192,165 M192,164L193,165 M40,165L41,166 M41,165L42,166 M111,165L112,166 M112,165L113,166 M113,165L114,166 M191,165L192,166 M192,165L193,166 M40,166L41,167 M41,166L42,167 M110,166L111,167 M111,166L112,167 M112,166L113,167 M191,166L192,167 M192,166L193,167 M40,167L41,168 M41,167L42,168 M108,167L109,168 M109,167L110,168 M110,167L111,168 M111,167L112,168 M191,167L192,168 M192,167L193,168 M40,168L41,169 M41,168L42,169 M106,168L107,169 M107,168L108,169 M108,168L109,169 M109,168L110,169 M191,168L192,169 M192,168L193,169 M40,169L41,170 M41,169L42,170 M42,169L43,170 M43,169L44,170 M105,169L106,170 M106,169L107,170 M107,169L108,170 M191,169L192,170 M192,169L193,170 M40,170L41,171 M41,170L42,171 M42,170L43,171 M43,170L44,171 M103,170L104,171 M104,170L105,171 M105,170L106,171 M106,170L107,171 M40,171L41,172 M41,171L42,172 M42,171L43,172 M43,171L44,172 M101,171L102,172 M102,171L103,172 M103,171L104,172 M104,171L105,172 M40,172L41,173 M41,172L42,173 M42,172L43,173 M43,172L44,173 M99,172L100,173 M100,172L101,173 M101,172L102,173 M102,172L103,173 M40,173L41,174 M41,173L42,174 M42,173L43,174 M43,173L44,174 M97,173L98,174 M98,173L99,174 M99,173L100,174 M100,173L101,174 M40,174L41,175 M41,174L42,175 M43,174L44,175 M44,174L45,175 M95,174L96,175 M96,174L97,175 M97,174L98,175 M98,174L99,175 M40,175L41,176 M41,175L42,176 M43,175L44,176 M44,175L45,176 M92,175L93,176 M93,175L94,176 M94,175L95,176 M95,175L96,176 M96,175L97,176 M43,176L44,177 M44,176L45,177 M90,176L91,177 M91,176L92,177 M92,176L93,177 M93,176L94,177 M94,176L95,177 M43,177L44,178 M44,177L45,178 M45,177L46,178 M87,177L88,178 M88,177L89,178 M89,177L90,178 M90,177L91,178 M91,177L92,178 M44,178L45,179 M45,178L46,179 M46,178L47,179 M84,178L85,179 M85,178L86,179 M86,178L87,179 M87,178L88,179 M88,178L89,179 M89,178L90,179 M45,179L46,180 M46,179L47,180 M47,179L48,180 M48,179L49,180 M77,179L78,180 M78,179L79,180 M79,179L80,180 M80,179L81,180 M81,179L82,180 M82,179L83,180 M83,179L84,180 M84,179L85,180 M85,179L86,180 M86,179L87,180 M46,180L47,181 M47,180L48,181 M48,180L49,181 M70,180L71,181 M71,180L72,181 M72,180L73,181 M73,180L74,181 M74,180L75,181 M75,180L76,181 M76,180L77,181 M77,180L78,181 M78,180L79,181 M79,180L80,181 M80,180L81,181 M81,180L82,181 M82,180L83,181 M83,180L84,181 M84,180L85,181 M47,181L48,182 M48,181L49,182 M49,181L50,182 M50,181L51,182 M51,181L52,182 M52,181L53,182 M53,181L54,182 M54,181L55,182 M55,181L56,182 M56,181L57,182 M57,181L58,182 M58,181L59,182 M59,181L60,182 M60,181L61,182 M61,181L62,182 M62,181L63,182 M63,181L64,182 M64,181L65,182 M65,181L66,182 M66,181L67,182 M67,181L68,182 M68,181L69,182 M69,181L70,182 M70,181L71,182 M71,181L72,182 M72,181L73,182 M73,181L74,182 M74,181L75,182 M75,181L76,182 M76,181L77,182 M77,181L78,182 M48,182L49,183 M49,182L50,183 M50,182L51,183 M51,182L52,183 M52,182L53,183 M53,182L54,183 M54,182L55,183 M55,182L56,183 M56,182L57,183 M57,182L58,183 M58,182L59,183 M59,182L60,183 M60,182L61,183 M61,182L62,183 M62,182L63,183 M63,182L64,183 M64,182L65,183 M65,182L66,183 M66,182L67,183 M67,182L68,183 M68,182L69,183 M69,182L70,183" fill="none" stroke="black" />
    </svg>