<svg xmlns="http://www.w3.org/2000/svg" width="800" height="250">
        <path d="M266,88L267,89 M266,89L267,90 M267,89L268,90 M266,90L267,91 M267,90L268,91 M266,91L267,92 M267,91L268,92 M266,92L267,93 M267,92L268,93 M266,93L267,94 M267,93L268,94 M267,94L268,95 M267,95L268,96 M267,96L268,97 M267,97L268,98 M267,98L268,99 M267,99L268,100 M268,99L269,100 M267,100L268,101 M268,100L269,101 M267,101L268,102 M268,101L269,102 M267,102L268,103 M268,102L269,103 M268,103L269,104 M269,103L270,104 M268,104L269,105 M269,104L270,105 M268,105L269,106 M269,105L270,106 M268,106L269,107 M269,106L270,107 M269,107L270,108 M270,107L271,108 M269,108L270,109 M270,108L271,109 M271,108L272,109 M270,109L271,110 M271,109L272,110 M272,109L273,110 M271,110L272,111 M272,110L273,111 M272,111L273,112 M273,111L274,112 M272,112L273,113 M273,112L274,113 M274,112L275,113 M273,113L274,114 M274,113L275,114 M275,113L276,114 M274,114L275,115 M275,114L276,115 M275,115L276,116 M276,115L277,116 M275,116L276,117 M276,116L277,117 M277,116L278,117 M276,117L277,118 M277,117L278,118 M278,117L279,118 M277,118L278,119 M278,118L279,119 M279,118L280,119 M278,119L279,120 M279,119L280,120 M280,119L281,120 M279,120L280,121 M280,120L281,121 M281,120L282,121 M280,121L281,122 M281,121L282,122 M282,121L283,122 M281,122L282,123 M282,122L283,123 M283,122L284,123 M282,123L283,124 M283,123L284,124 M284,123L285,124 M283,124L284,125 M284,124L285,125 M285,124L286,125 M286,124L287,125 M285,125L286,126 M286,125L287,126 M287,125L288,126 M286,126L287,127 M287,126L288,127 M288,126L289,127 M289,126L290,127 M288,127L289,128 M289,127L290,128 M290,127L291,128 M289,128L290,129 M290,128L291,129 M291,128L292,129 M292,128L293,129 M291,129L292,130 M292,129L293,130 M293,129L294,130 M294,129L295,130 M293,130L294,131 M294,130L295,131 M295,130L296,131 M294,131L295,132 M295,131L296,132 M296,131L297,132 M297,131L298,132 M296,132L297,133 M297,132L298,133 M298,132L299,133 M297,133L298,134 M298,133L299,134 M299,133L300,134 M300,133L301,134 M299,134L300,135 M300,134L301,135 M301,134L302,135 M300,135L301,136 M301,135L302,136 M302,135L303,136 M303,135L304,136 M302,136L303,137 M303,136L304,137 M304,136L305,137 M303,137L304,138 M304,137L305,138 M305,137L306,138 M306,137L307,138 M305,138L306,139 M306,138L307,139 M307,138L308,139 M306,139L307,140 M307,139L308,140 M308,139L309,140 M309,139L310,140 M308,140L309,141 M309,140L310,141 M310,140L311,141 M309,141L310,142 M310,141L311,142 M311,141L312,142 M312,141L313,142 M311,142L312,143 M312,142L313,143 M313,142L314,143 M314,142L315,143 M313,143L314,144 M314,143L315,144 M315,143L316,144 M316,143L317,144 M315,144L316,145 M316,144L317,145 M317,144L318,145 M318,144L319,145 M319,144L320,145 M317,145L318,146 M318,145L319,146 M319,145L320,146 M320,145L321,146 M321,145L322,146 M319,146L320,147 M320,146L321,147 M321,146L322,147 M322,146L323,147 M323,146L324,147 M312,147L313,148 M313,147L314,148 M314,147L315,148 M315,147L316,148 M316,147L317,148 M317,147L318,148 M318,147L319,148 M319,147L320,148 M320,147L321,148 M321,147L322,148 M322,147L323,148 M323,147L324,148 M324,147L325,148 M325,147L326,148 M326,147L327,148 M327,147L328,148 M328,147L329,148 M329,147L330,148 M330,147L331,148 M331,147L332,148 M332,147L333,148 M333,147L334,148 M334,147L335,148 M310,148L311,149 M311,148L312,149 M312,148L313,149 M313,148L314,149 M314,148L315,149 M315,148L316,149 M316,148L317,149 M317,148L318,149 M318,148L319,149 M319,148L320,149 M320,148L321,149 M321,148L322,149 M322,148L323,149 M323,148L324,149 M324,148L325,149 M325,148L326,149 M326,148L327,149 M327,148L328,149 M328,148L329,149 M329,148L330,149 M330,148L331,149 M331,148L332,149 M332,148L333,149 M333,148L334,149 M334,148L335,149 M335,148L336,149 M336,148L337,149 M337,148L338,149 M338,148L339,149 M339,148L340,149 M340,148L341,149 M341,148L342,149 M342,148L343,149 M343,148L344,149 M309,149L310,150 M310,149L311,150 M311,149L312,150 M327,149L328,150 M328,149L329,150 M329,149L330,150 M330,149L331,150 M331,149L332,150 M332,149L333,150 M335,149L336,150 M336,149L337,150 M337,149L338,150 M338,149L339,150 M339,149L340,150 M340,149L341,150 M341,149L342,150 M342,149L343,150 M343,149L344,150 M344,149L345,150 M345,149L346,150 M346,149L347,150 M347,149L348,150 M348,149L349,150 M349,149L350,150 M350,149L351,150 M351,149L352,150 M352,149L353,150 M308,150L309,151 M309,150L310,151 M330,150L331,151 M331,150L332,151 M332,150L333,151 M333,150L334,151 M334,150L335,151 M335,150L336,151 M336,150L337,151 M337,150L338,151 M338,150L339,151 M344,150L345,151 M345,150L346,151 M346,150L347,151 M347,150L348,151 M348,150L349,151 M349,150L350,151 M350,150L351,151 M351,150L352,151 M352,150L353,151 M353,150L354,151 M354,150L355,151 M355,150L356,151 M356,150L357,151 M357,150L358,151 M307,151L308,152 M308,151L309,152 M333,151L334,152 M334,151L335,152 M335,151L336,152 M336,151L337,152 M337,151L338,152 M338,151L339,152 M339,151L340,152 M340,151L341,152 M341,151L342,152 M342,151L343,152 M343,151L344,152 M344,151L345,152 M345,151L346,152 M346,151L347,152 M347,151L348,152 M348,151L349,152 M349,151L350,152 M350,151L351,152 M351,151L352,152 M352,151L353,152 M353,151L354,152 M354,151L355,152 M355,151L356,152 M356,151L357,152 M357,151L358,152 M358,151L359,152 M359,151L360,152 M360,151L361,152 M361,151L362,152 M362,151L363,152 M363,151L364,152 M306,152L307,153 M307,152L308,153 M339,152L340,153 M340,152L341,153 M341,152L342,153 M342,152L343,153 M343,152L344,153 M344,152L345,153 M345,152L346,153 M346,152L347,153 M347,152L348,153 M348,152L349,153 M349,152L350,153 M350,152L351,153 M351,152L352,153 M352,152L353,153 M353,152L354,153 M354,152L355,153 M355,152L356,153 M356,152L357,153 M357,152L358,153 M358,152L359,153 M359,152L360,153 M360,152L361,153 M361,152L362,153 M362,152L363,153 M363,152L364,153 M364,152L365,153 M365,152L366,153 M366,152L367,153 M367,152L368,153 M368,152L369,153 M306,153L307,154 M360,153L361,154 M361,153L362,154 M362,153L363,154 M363,153L364,154 M364,153L365,154 M365,153L366,154 M366,153L367,154 M367,153L368,154 M368,153L369,154 M306,154L307,155 M306,155L307,156 M307,155L308,156 M306,156L307,157 M307,156L308,157 M307,157L308,158 M308,157L309,158 M308,158L309,159 M309,158L310,159 M310,158L311,159 M311,158L312,159 M309,159L310,160 M310,159L311,160 M311,159L312,160 M312,159L313,160 M313,159L314,160 M314,159L315,160 M315,159L316,160 M316,159L317,160 M312,160L313,161 M313,160L314,161 M314,160L315,161 M315,160L316,161 M316,160L317,161 M317,160L318,161 M318,160L319,161 M319,160L320,161 M320,160L321,161 M321,160L322,161 M322,160L323,161 M323,160L324,161 M324,160L325,161 M325,160L326,161 M326,160L327,161 M327,160L328,161 M328,160L329,161 M329,160L330,161 M330,160L331,161 M331,160L332,161 M332,160L333,161 M317,161L318,162 M318,161L319,162 M319,161L320,162 M320,161L321,162 M321,161L322,162 M322,161L323,162 M323,161L324,162 M324,161L325,162 M325,161L326,162 M326,161L327,162 M327,161L328,162 M328,161L329,162 M329,161L330,162 M330,161L331,162 M331,161L332,162 M332,161L333,162 M333,161L334,162 M334,161L335,162 M335,161L336,162 M336,161L337,162 M337,161L338,162 M333,162L334,163 M334,162L335,163 M335,162L336,163 M336,162L337,163 M337,162L338,163 M338,162L339,163 M339,162L340,163 M340,162L341,163 M341,162L342,163 M342,162L343,163 M338,163L339,164 M339,163L340,164 M340,163L341,164 M341,163L342,164 M342,163L343,164 M343,163L344,164 M344,163L345,164 M345,163L346,164 M346,163L347,164 M342,164L343,165 M343,164L344,165 M344,164L345,165 M345,164L346,165 M346,164L347,165 M347,164L348,165 M348,164L349,165 M349,164L350,165 M346,165L347,166 M347,165L348,166 M348,165L349,166 M349,165L350,166 M350,165L351,166 M351,165L352,166 M352,165L353,166 M353,165L354,166 M420,165L421,166 M421,165L422,166 M422,165L423,166 M423,165L424,166 M350,166L351,167 M351,166L352,167 M352,166L353,167 M353,166L354,167 M354,166L355,167 M355,166L356,167 M356,166L357,167 M413,166L414,167 M414,166L415,167 M415,166L416,167 M416,166L417,167 M417,166L418,167 M418,166L419,167 M419,166L420,167 M420,166L421,167 M421,166L422,167 M422,166L423,167 M423,166L424,167 M353,167L354,168 M354,167L355,168 M355,167L356,168 M356,167L357,168 M357,167L358,168 M358,167L359,168 M359,167L360,168 M360,167L361,168 M361,167L362,168 M362,167L363,168 M363,167L364,168 M364,167L365,168 M365,167L366,168 M366,167L367,168 M410,167L411,168 M411,167L412,168 M412,167L413,168 M413,167L414,168 M414,167L415,168 M415,167L416,168 M416,167L417,168 M417,167L418,168 M418,167L419,168 M419,167L420,168 M420,167L421,168 M423,167L424,168 M357,168L358,169 M358,168L359,169 M359,168L360,169 M360,168L361,169 M361,168L362,169 M362,168L363,169 M363,168L364,169 M364,168L365,169 M365,168L366,169 M366,168L367,169 M367,168L368,169 M368,168L369,169 M369,168L370,169 M370,168L371,169 M371,168L372,169 M372,168L373,169 M373,168L374,169 M374,168L375,169 M375,168L376,169 M376,168L377,169 M377,168L378,169 M378,168L379,169 M379,168L380,169 M380,168L381,169 M381,168L382,169 M382,168L383,169 M383,168L384,169 M405,168L406,169 M406,168L407,169 M407,168L408,169 M408,168L409,169 M409,168L410,169 M410,168L411,169 M411,168L412,169 M412,168L413,169 M413,168L414,169 M423,168L424,169 M367,169L368,170 M368,169L369,170 M369,169L370,170 M370,169L371,170 M371,169L372,170 M372,169L373,170 M373,169L374,170 M374,169L375,170 M375,169L376,170 M376,169L377,170 M377,169L378,170 M378,169L379,170 M379,169L380,170 M380,169L381,170 M381,169L382,170 M382,169L383,170 M383,169L384,170 M384,169L385,170 M385,169L386,170 M386,169L387,170 M387,169L388,170 M388,169L389,170 M389,169L390,170 M390,169L391,170 M391,169L392,170 M392,169L393,170 M393,169L394,170 M394,169L395,170 M395,169L396,170 M396,169L397,170 M397,169L398,170 M398,169L399,170 M399,169L400,170 M400,169L401,170 M401,169L402,170 M402,169L403,170 M403,169L404,170 M404,169L405,170 M405,169L406,170 M406,169L407,170 M407,169L408,170 M408,169L409,170 M409,169L410,170 M423,169L424,170 M384,170L385,171 M385,170L386,171 M386,170L387,171 M387,170L388,171 M388,170L389,171 M389,170L390,171 M390,170L391,171 M391,170L392,171 M392,170L393,171 M393,170L394,171 M394,170L395,171 M395,170L396,171 M396,170L397,171 M397,170L398,171 M398,170L399,171 M399,170L400,171 M400,170L401,171 M401,170L402,171 M402,170L403,171 M403,170L404,171 M404,170L405,171 M423,170L424,171 M423,171L424,172 M423,172L424,173 M423,173L424,174 M423,174L424,175 M423,175L424,176 M423,176L424,177 M423,177L424,178 M423,178L424,179 M423,179L424,180 M423,180L424,181 M423,181L424,182 M423,182L424,183 M423,183L424,184 M423,184L424,185" fill="none" stroke="black" />
    </svg>