<svg xmlns="http://www.w3.org/2000/svg" width="800" height="250">
        <path d="M644,7L645,8 M645,7L646,8 M646,7L647,8 M647,7L648,8 M648,7L649,8 M649,7L650,8 M650,7L651,8 M651,7L652,8 M652,7L653,8 M653,7L654,8 M654,7L655,8 M655,7L656,8 M656,7L657,8 M657,7L658,8 M658,7L659,8 M659,7L660,8 M660,7L661,8 M661,7L662,8 M662,7L663,8 M663,7L664,8 M664,7L665,8 M665,7L666,8 M666,7L667,8 M667,7L668,8 M668,7L669,8 M669,7L670,8 M670,7L671,8 M671,7L672,8 M672,7L673,8 M673,7L674,8 M674,7L675,8 M675,7L676,8 M676,7L677,8 M677,7L678,8 M678,7L679,8 M679,7L680,8 M680,7L681,8 M681,7L682,8 M682,7L683,8 M683,7L684,8 M684,7L685,8 M685,7L686,8 M686,7L687,8 M687,7L688,8 M688,7L689,8 M689,7L690,8 M690,7L691,8 M691,7L692,8 M692,7L693,8 M693,7L694,8 M694,7L695,8 M695,7L696,8 M696,7L697,8 M697,7L698,8 M698,7L699,8 M699,7L700,8 M700,7L701,8 M701,7L702,8 M702,7L703,8 M703,7L704,8 M704,7L705,8 M705,7L706,8 M706,7L707,8 M707,7L708,8 M641,8L642,9 M642,8L643,9 M643,8L644,9 M644,8L645,9 M645,8L646,9 M646,8L647,9 M647,8L648,9 M648,8L649,9 M649,8L650,9 M650,8L651,9 M651,8L652,9 M652,8L653,9 M653,8L654,9 M654,8L655,9 M655,8L656,9 M656,8L657,9 M657,8L658,9 M658,8L659,9 M659,8L660,9 M660,8L661,9 M661,8L662,9 M662,8L663,9 M663,8L664,9 M664,8L665,9 M665,8L666,9 M666,8L667,9 M667,8L668,9 M668,8L669,9 M669,8L670,9 M670,8L671,9 M671,8L672,9 M672,8L673,9 M673,8L674,9 M674,8L675,9 M675,8L676,9 M676,8L677,9 M677,8L678,9 M678,8L679,9 M679,8L680,9 M680,8L681,9 M681,8L682,9 M682,8L683,9 M683,8L684,9 M684,8L685,9 M685,8L686,9 M686,8L687,9 M687,8L688,9 M688,8L689,9 M689,8L690,9 M690,8L691,9 M691,8L692,9 M692,8L693,9 M693,8L694,9 M694,8L695,9 M695,8L696,9 M696,8L697,9 M697,8L698,9 M698,8L699,9 M699,8L700,9 M700,8L701,9 M701,8L702,9 M702,8L703,9 M703,8L704,9 M704,8L705,9 M705,8L706,9 M706,8L707,9 M707,8L708,9 M708,8L709,9 M709,8L710,9 M710,8L711,9 M711,8L712,9 M639,9L640,10 M640,9L641,10 M641,9L642,10 M642,9L643,10 M643,9L644,10 M644,9L645,10 M708,9L709,10 M709,9L710,10 M710,9L711,10 M711,9L712,10 M712,9L713,10 M713,9L714,10 M714,9L715,10 M715,9L716,10 M636,10L637,11 M637,10L638,11 M638,10L639,11 M639,10L640,11 M640,10L641,11 M641,10L642,11 M712,10L713,11 M713,10L714,11 M714,10L715,11 M715,10L716,11 M716,10L717,11 M717,10L718,11 M718,10L719,11 M719,10L720,11 M633,11L634,12 M634,11L635,12 M635,11L636,12 M636,11L637,12 M637,11L638,12 M638,11L639,12 M716,11L717,12 M717,11L718,12 M718,11L719,12 M719,11L720,12 M720,11L721,12 M721,11L722,12 M722,11L723,12 M723,11L724,12 M630,12L631,13 M631,12L632,13 M632,12L633,13 M633,12L634,13 M634,12L635,13 M635,12L636,13 M720,12L721,13 M721,12L722,13 M722,12L723,13 M723,12L724,13 M724,12L725,13 M725,12L726,13 M627,13L628,14 M628,13L629,14 M629,13L630,14 M630,13L631,14 M631,13L632,14 M632,13L633,14 M723,13L724,14 M724,13L725,14 M725,13L726,14 M726,13L727,14 M727,13L728,14 M624,14L625,15 M625,14L626,15 M626,14L627,15 M627,14L628,15 M628,14L629,15 M629,14L630,15 M726,14L727,15 M727,14L728,15 M728,14L729,15 M729,14L730,15 M730,14L731,15 M622,15L623,16 M623,15L624,16 M624,15L625,16 M625,15L626,16 M626,15L627,16 M627,15L628,16 M728,15L729,16 M729,15L730,16 M730,15L731,16 M731,15L732,16 M732,15L733,16 M619,16L620,17 M620,16L621,17 M621,16L622,17 M622,16L623,17 M623,16L624,17 M624,16L625,17 M730,16L731,17 M731,16L732,17 M732,16L733,17 M733,16L734,17 M734,16L735,17 M616,17L617,18 M617,17L618,18 M618,17L619,18 M619,17L620,18 M620,17L621,18 M621,17L622,18 M733,17L734,18 M734,17L735,18 M613,18L614,19 M614,18L615,19 M615,18L616,19 M616,18L617,19 M617,18L618,19 M618,18L619,19 M734,18L735,19 M735,18L736,19 M610,19L611,20 M611,19L612,20 M612,19L613,20 M613,19L614,20 M614,19L615,20 M615,19L616,20 M734,19L735,20 M735,19L736,20 M607,20L608,21 M608,20L609,21 M609,20L610,21 M610,20L611,21 M611,20L612,21 M612,20L613,21 M734,20L735,21 M735,20L736,21 M605,21L606,22 M606,21L607,22 M607,21L608,22 M608,21L609,22 M609,21L610,22 M610,21L611,22 M735,21L736,22 M736,21L737,22 M602,22L603,23 M603,22L604,23 M604,22L605,23 M605,22L606,23 M606,22L607,23 M607,22L608,23 M735,22L736,23 M736,22L737,23 M599,23L600,24 M600,23L601,24 M601,23L602,24 M602,23L603,24 M603,23L604,24 M604,23L605,24 M736,23L737,24 M737,23L738,24 M596,24L597,25 M597,24L598,25 M598,24L599,25 M599,24L600,25 M600,24L601,25 M601,24L602,25 M736,24L737,25 M737,24L738,25 M593,25L594,26 M594,25L595,26 M595,25L596,26 M596,25L597,26 M597,25L598,26 M598,25L599,26 M736,25L737,26 M737,25L738,26 M591,26L592,27 M592,26L593,27 M593,26L594,27 M594,26L595,27 M595,26L596,27 M596,26L597,27 M737,26L738,27 M738,26L739,27 M588,27L589,28 M589,27L590,28 M590,27L591,28 M591,27L592,28 M592,27L593,28 M593,27L594,28 M737,27L738,28 M738,27L739,28 M585,28L586,29 M586,28L587,29 M587,28L588,29 M588,28L589,29 M589,28L590,29 M590,28L591,29 M738,28L739,29 M739,28L740,29 M582,29L583,30 M583,29L584,30 M584,29L585,30 M585,29L586,30 M586,29L587,30 M587,29L588,30 M738,29L739,30 M739,29L740,30 M579,30L580,31 M580,30L581,31 M581,30L582,31 M582,30L583,31 M583,30L584,31 M584,30L585,31 M738,30L739,31 M739,30L740,31 M576,31L577,32 M577,31L578,32 M578,31L579,32 M579,31L580,32 M580,31L581,32 M581,31L582,32 M739,31L740,32 M740,31L741,32 M574,32L575,33 M575,32L576,33 M576,32L577,33 M577,32L578,33 M578,32L579,33 M579,32L580,33 M739,32L740,33 M740,32L741,33 M571,33L572,34 M572,33L573,34 M573,33L574,34 M574,33L575,34 M575,33L576,34 M576,33L577,34 M739,33L740,34 M740,33L741,34 M568,34L569,35 M569,34L570,35 M570,34L571,35 M571,34L572,35 M572,34L573,35 M573,34L574,35 M739,34L740,35 M740,34L741,35 M565,35L566,36 M566,35L567,36 M567,35L568,36 M568,35L569,36 M569,35L570,36 M570,35L571,36 M739,35L740,36 M740,35L741,36 M563,36L564,37 M564,36L565,37 M565,36L566,37 M566,36L567,37 M567,36L568,37 M738,36L739,37 M739,36L740,37 M561,37L562,38 M562,37L563,38 M563,37L564,38 M564,37L565,38 M738,37L739,38 M739,37L740,38 M560,38L561,39 M561,38L562,39 M562,38L563,39 M563,38L564,39 M738,38L739,39 M739,38L740,39 M559,39L560,40 M560,39L561,40 M561,39L562,40 M738,39L739,40 M739,39L740,40 M557,40L558,41 M558,40L559,41 M559,40L560,41 M560,40L561,41 M738,40L739,41 M739,40L740,41 M556,41L557,42 M557,41L558,42 M558,41L559,42 M737,41L738,42 M738,41L739,42 M739,41L740,42 M554,42L555,43 M555,42L556,43 M556,42L557,43 M557,42L558,43 M737,42L738,43 M738,42L739,43 M553,43L554,44 M554,43L555,44 M555,43L556,44 M736,43L737,44 M737,43L738,44 M738,43L739,44 M551,44L552,45 M552,44L553,45 M553,44L554,45 M554,44L555,45 M736,44L737,45 M737,44L738,45 M550,45L551,46 M551,45L552,46 M552,45L553,46 M735,45L736,46 M736,45L737,46 M549,46L550,47 M550,46L551,47 M551,46L552,47 M734,46L735,47 M735,46L736,47 M736,46L737,47 M547,47L548,48 M548,47L549,48 M549,47L550,48 M550,47L551,48 M734,47L735,48 M735,47L736,48 M546,48L547,49 M547,48L548,49 M548,48L549,49 M733,48L734,49 M734,48L735,49 M735,48L736,49 M544,49L545,50 M545,49L546,50 M546,49L547,50 M547,49L548,50 M733,49L734,50 M734,49L735,50 M543,50L544,51 M544,50L545,51 M545,50L546,51 M732,50L733,51 M733,50L734,51 M541,51L542,52 M542,51L543,52 M543,51L544,52 M544,51L545,52 M730,51L731,52 M731,51L732,52 M732,51L733,52 M733,51L734,52 M540,52L541,53 M541,52L542,53 M542,52L543,53 M728,52L729,53 M729,52L730,53 M730,52L731,53 M731,52L732,53 M539,53L540,54 M540,53L541,54 M541,53L542,54 M726,53L727,54 M727,53L728,54 M728,53L729,54 M729,53L730,54 M537,54L538,55 M538,54L539,55 M539,54L540,55 M540,54L541,55 M724,54L725,55 M725,54L726,55 M726,54L727,55 M727,54L728,55 M728,54L729,55 M536,55L537,56 M537,55L538,56 M538,55L539,56 M723,55L724,56 M724,55L725,56 M725,55L726,56 M726,55L727,56 M534,56L535,57 M535,56L536,57 M536,56L537,57 M537,56L538,57 M721,56L722,57 M722,56L723,57 M723,56L724,57 M724,56L725,57 M533,57L534,58 M534,57L535,58 M535,57L536,58 M719,57L720,58 M720,57L721,58 M721,57L722,58 M722,57L723,58 M531,58L532,59 M532,58L533,59 M533,58L534,59 M534,58L535,59 M717,58L718,59 M718,58L719,59 M719,58L720,59 M720,58L721,59 M530,59L531,60 M531,59L532,60 M532,59L533,60 M715,59L716,60 M716,59L717,60 M717,59L718,60 M718,59L719,60 M719,59L720,60 M528,60L529,61 M529,60L530,61 M530,60L531,61 M531,60L532,61 M714,60L715,61 M715,60L716,61 M716,60L717,61 M717,60L718,61 M527,61L528,62 M528,61L529,62 M529,61L530,62 M530,61L531,62 M712,61L713,62 M713,61L714,62 M714,61L715,62 M715,61L716,62 M526,62L527,63 M527,62L528,63 M528,62L529,63 M710,62L711,63 M711,62L712,63 M712,62L713,63 M713,62L714,63 M524,63L525,64 M525,63L526,64 M526,63L527,64 M527,63L528,64 M708,63L709,64 M709,63L710,64 M710,63L711,64 M711,63L712,64 M523,64L524,65 M524,64L525,65 M525,64L526,65 M706,64L707,65 M707,64L708,65 M708,64L709,65 M709,64L710,65 M710,64L711,65 M521,65L522,66 M522,65L523,66 M523,65L524,66 M524,65L525,66 M705,65L706,66 M706,65L707,66 M707,65L708,66 M708,65L709,66 M520,66L521,67 M521,66L522,67 M522,66L523,67 M703,66L704,67 M704,66L705,67 M705,66L706,67 M706,66L707,67 M519,67L520,68 M520,67L521,68 M521,67L522,68 M701,67L702,68 M702,67L703,68 M703,67L704,68 M704,67L705,68 M518,68L519,69 M519,68L520,69 M520,68L521,69 M699,68L700,69 M700,68L701,69 M701,68L702,69 M702,68L703,69 M517,69L518,70 M518,69L519,70 M519,69L520,70 M697,69L698,70 M698,69L699,70 M699,69L700,70 M700,69L701,70 M516,70L517,71 M517,70L518,71 M518,70L519,71 M696,70L697,71 M697,70L698,71 M698,70L699,71 M699,70L700,71 M515,71L516,72 M516,71L517,72 M517,71L518,72 M693,71L694,72 M694,71L695,72 M695,71L696,72 M696,71L697,72 M697,71L698,72 M514,72L515,73 M515,72L516,73 M516,72L517,73 M689,72L690,73 M690,72L691,73 M691,72L692,73 M692,72L693,73 M693,72L694,73 M694,72L695,73 M695,72L696,73 M513,73L514,74 M514,73L515,74 M515,73L516,74 M686,73L687,74 M687,73L688,74 M688,73L689,74 M689,73L690,74 M690,73L691,74 M691,73L692,74 M692,73L693,74 M512,74L513,75 M513,74L514,75 M514,74L515,75 M682,74L683,75 M683,74L684,75 M684,74L685,75 M685,74L686,75 M686,74L687,75 M687,74L688,75 M688,74L689,75 M689,74L690,75 M169,75L170,76 M170,75L171,76 M171,75L172,76 M172,75L173,76 M173,75L174,76 M174,75L175,76 M175,75L176,76 M176,75L177,76 M177,75L178,76 M511,75L512,76 M512,75L513,76 M513,75L514,76 M679,75L680,76 M680,75L681,76 M681,75L682,76 M682,75L683,76 M683,75L684,76 M684,75L685,76 M685,75L686,76 M169,76L170,77 M170,76L171,77 M171,76L172,77 M172,76L173,77 M173,76L174,77 M174,76L175,77 M175,76L176,77 M176,76L177,77 M177,76L178,77 M178,76L179,77 M179,76L180,77 M180,76L181,77 M181,76L182,77 M182,76L183,77 M510,76L511,77 M511,76L512,77 M512,76L513,77 M675,76L676,77 M676,76L677,77 M677,76L678,77 M678,76L679,77 M679,76L680,77 M680,76L681,77 M681,76L682,77 M682,76L683,77 M169,77L170,78 M170,77L171,78 M178,77L179,78 M179,77L180,78 M180,77L181,78 M181,77L182,78 M182,77L183,78 M183,77L184,78 M184,77L185,78 M185,77L186,78 M186,77L187,78 M187,77L188,78 M509,77L510,78 M510,77L511,78 M511,77L512,78 M672,77L673,78 M673,77L674,78 M674,77L675,78 M675,77L676,78 M676,77L677,78 M677,77L678,78 M678,77L679,78 M169,78L170,79 M170,78L171,79 M183,78L184,79 M184,78L185,79 M185,78L186,79 M186,78L187,79 M187,78L188,79 M188,78L189,79 M189,78L190,79 M190,78L191,79 M191,78L192,79 M192,78L193,79 M508,78L509,79 M509,78L510,79 M510,78L511,79 M668,78L669,79 M669,78L670,79 M670,78L671,79 M671,78L672,79 M672,78L673,79 M673,78L674,79 M674,78L675,79 M675,78L676,79 M170,79L171,80 M171,79L172,80 M188,79L189,80 M189,79L190,80 M190,79L191,80 M191,79L192,80 M192,79L193,80 M193,79L194,80 M194,79L195,80 M195,79L196,80 M196,79L197,80 M197,79L198,80 M198,79L199,80 M507,79L508,80 M508,79L509,80 M509,79L510,80 M665,79L666,80 M666,79L667,80 M667,79L668,80 M668,79L669,80 M669,79L670,80 M670,79L671,80 M671,79L672,80 M170,80L171,81 M171,80L172,81 M193,80L194,81 M194,80L195,81 M195,80L196,81 M196,80L197,81 M197,80L198,81 M198,80L199,81 M199,80L200,81 M200,80L201,81 M201,80L202,81 M202,80L203,81 M203,80L204,81 M204,80L205,81 M506,80L507,81 M507,80L508,81 M508,80L509,81 M661,80L662,81 M662,80L663,81 M663,80L664,81 M664,80L665,81 M665,80L666,81 M666,80L667,81 M667,80L668,81 M668,80L669,81 M171,81L172,82 M172,81L173,82 M199,81L200,82 M200,81L201,82 M201,81L202,82 M202,81L203,82 M203,81L204,82 M204,81L205,82 M205,81L206,82 M206,81L207,82 M207,81L208,82 M208,81L209,82 M209,81L210,82 M505,81L506,82 M506,81L507,82 M507,81L508,82 M657,81L658,82 M658,81L659,82 M659,81L660,82 M660,81L661,82 M661,81L662,82 M662,81L663,82 M663,81L664,82 M664,81L665,82 M171,82L172,83 M172,82L173,83 M173,82L174,83 M205,82L206,83 M206,82L207,83 M207,82L208,83 M208,82L209,83 M209,82L210,83 M210,82L211,83 M211,82L212,83 M212,82L213,83 M213,82L214,83 M214,82L215,83 M215,82L216,83 M504,82L505,83 M505,82L506,83 M506,82L507,83 M651,82L652,83 M652,82L653,83 M653,82L654,83 M654,82L655,83 M655,82L656,83 M656,82L657,83 M657,82L658,83 M658,82L659,83 M659,82L660,83 M660,82L661,83 M661,82L662,83 M172,83L173,84 M173,83L174,84 M210,83L211,84 M211,83L212,84 M212,83L213,84 M213,83L214,84 M214,83L215,84 M215,83L216,84 M216,83L217,84 M217,83L218,84 M218,83L219,84 M219,83L220,84 M220,83L221,84 M503,83L504,84 M504,83L505,84 M505,83L506,84 M646,83L647,84 M647,83L648,84 M648,83L649,84 M649,83L650,84 M650,83L651,84 M651,83L652,84 M652,83L653,84 M653,83L654,84 M654,83L655,84 M655,83L656,84 M656,83L657,84 M173,84L174,85 M174,84L175,85 M216,84L217,85 M217,84L218,85 M218,84L219,85 M219,84L220,85 M220,84L221,85 M221,84L222,85 M222,84L223,85 M223,84L224,85 M224,84L225,85 M225,84L226,85 M502,84L503,85 M503,84L504,85 M504,84L505,85 M640,84L641,85 M641,84L642,85 M642,84L643,85 M643,84L644,85 M644,84L645,85 M645,84L646,85 M646,84L647,85 M647,84L648,85 M648,84L649,85 M649,84L650,85 M650,84L651,85 M173,85L174,86 M174,85L175,86 M175,85L176,86 M221,85L222,86 M222,85L223,86 M223,85L224,86 M224,85L225,86 M225,85L226,86 M226,85L227,86 M227,85L228,86 M228,85L229,86 M229,85L230,86 M501,85L502,86 M502,85L503,86 M503,85L504,86 M634,85L635,86 M635,85L636,86 M636,85L637,86 M637,85L638,86 M638,85L639,86 M639,85L640,86 M640,85L641,86 M641,85L642,86 M642,85L643,86 M643,85L644,86 M644,85L645,86 M645,85L646,86 M174,86L175,87 M175,86L176,87 M225,86L226,87 M226,86L227,87 M227,86L228,87 M228,86L229,87 M229,86L230,87 M230,86L231,87 M231,86L232,87 M232,86L233,87 M233,86L234,87 M234,86L235,87 M500,86L501,87 M501,86L502,87 M502,86L503,87 M629,86L630,87 M630,86L631,87 M631,86L632,87 M632,86L633,87 M633,86L634,87 M634,86L635,87 M635,86L636,87 M636,86L637,87 M637,86L638,87 M638,86L639,87 M639,86L640,87 M175,87L176,88 M176,87L177,88 M230,87L231,88 M231,87L232,88 M232,87L233,88 M233,87L234,88 M234,87L235,88 M235,87L236,88 M236,87L237,88 M237,87L238,88 M238,87L239,88 M239,87L240,88 M499,87L500,88 M500,87L501,88 M501,87L502,88 M623,87L624,88 M624,87L625,88 M625,87L626,88 M626,87L627,88 M627,87L628,88 M628,87L629,88 M629,87L630,88 M630,87L631,88 M631,87L632,88 M632,87L633,88 M633,87L634,88 M175,88L176,89 M176,88L177,89 M177,88L178,89 M235,88L236,89 M236,88L237,89 M237,88L238,89 M238,88L239,89 M239,88L240,89 M240,88L241,89 M241,88L242,89 M242,88L243,89 M243,88L244,89 M244,88L245,89 M498,88L499,89 M499,88L500,89 M500,88L501,89 M617,88L618,89 M618,88L619,89 M619,88L620,89 M620,88L621,89 M621,88L622,89 M622,88L623,89 M623,88L624,89 M624,88L625,89 M625,88L626,89 M626,88L627,89 M627,88L628,89 M628,88L629,89 M176,89L177,90 M177,89L178,90 M178,89L179,90 M179,89L180,90 M180,89L181,90 M181,89L182,90 M182,89L183,90 M183,89L184,90 M184,89L185,90 M185,89L186,90 M186,89L187,90 M187,89L188,90 M188,89L189,90 M189,89L190,90 M190,89L191,90 M191,89L192,90 M192,89L193,90 M193,89L194,90 M194,89L195,90 M195,89L196,90 M196,89L197,90 M197,89L198,90 M198,89L199,90 M199,89L200,90 M200,89L201,90 M201,89L202,90 M202,89L203,90 M203,89L204,90 M204,89L205,90 M205,89L206,90 M206,89L207,90 M207,89L208,90 M208,89L209,90 M209,89L210,90 M210,89L211,90 M211,89L212,90 M212,89L213,90 M213,89L214,90 M214,89L215,90 M215,89L216,90 M216,89L217,90 M217,89L218,90 M218,89L219,90 M240,89L241,90 M241,89L242,90 M242,89L243,90 M243,89L244,90 M244,89L245,90 M245,89L246,90 M246,89L247,90 M247,89L248,90 M248,89L249,90 M249,89L250,90 M497,89L498,90 M498,89L499,90 M499,89L500,90 M610,89L611,90 M611,89L612,90 M612,89L613,90 M613,89L614,90 M614,89L615,90 M615,89L616,90 M616,89L617,90 M617,89L618,90 M618,89L619,90 M619,89L620,90 M620,89L621,90 M621,89L622,90 M622,89L623,90 M177,90L178,91 M178,90L179,91 M179,90L180,91 M180,90L181,91 M181,90L182,91 M182,90L183,91 M183,90L184,91 M184,90L185,91 M185,90L186,91 M186,90L187,91 M187,90L188,91 M188,90L189,91 M189,90L190,91 M190,90L191,91 M191,90L192,91 M192,90L193,91 M193,90L194,91 M194,90L195,91 M195,90L196,91 M196,90L197,91 M197,90L198,91 M198,90L199,91 M199,90L200,91 M200,90L201,91 M201,90L202,91 M202,90L203,91 M203,90L204,91 M204,90L205,91 M205,90L206,91 M206,90L207,91 M207,90L208,91 M208,90L209,91 M209,90L210,91 M210,90L211,91 M211,90L212,91 M212,90L213,91 M213,90L214,91 M214,90L215,91 M215,90L216,91 M216,90L217,91 M217,90L218,91 M218,90L219,91 M219,90L220,91 M220,90L221,91 M221,90L222,91 M222,90L223,91 M223,90L224,91 M224,90L225,91 M225,90L226,91 M226,90L227,91 M227,90L228,91 M228,90L229,91 M229,90L230,91 M230,90L231,91 M231,90L232,91 M232,90L233,91 M233,90L234,91 M234,90L235,91 M235,90L236,91 M236,90L237,91 M237,90L238,91 M238,90L239,91 M239,90L240,91 M245,90L246,91 M246,90L247,91 M247,90L248,91 M248,90L249,91 M249,90L250,91 M250,90L251,91 M251,90L252,91 M252,90L253,91 M253,90L254,91 M496,90L497,91 M497,90L498,91 M498,90L499,91 M600,90L601,91 M601,90L602,91 M602,90L603,91 M603,90L604,91 M604,90L605,91 M605,90L606,91 M606,90L607,91 M607,90L608,91 M608,90L609,91 M609,90L610,91 M610,90L611,91 M611,90L612,91 M612,90L613,91 M613,90L614,91 M614,90L615,91 M615,90L616,91 M616,90L617,91 M617,90L618,91 M178,91L179,92 M179,91L180,92 M180,91L181,92 M219,91L220,92 M220,91L221,92 M221,91L222,92 M222,91L223,92 M223,91L224,92 M224,91L225,92 M225,91L226,92 M226,91L227,92 M227,91L228,92 M228,91L229,92 M229,91L230,92 M230,91L231,92 M231,91L232,92 M232,91L233,92 M233,91L234,92 M234,91L235,92 M235,91L236,92 M236,91L237,92 M237,91L238,92 M238,91L239,92 M239,91L240,92 M240,91L241,92 M241,91L242,92 M242,91L243,92 M243,91L244,92 M244,91L245,92 M245,91L246,92 M246,91L247,92 M247,91L248,92 M248,91L249,92 M249,91L250,92 M250,91L251,92 M251,91L252,92 M252,91L253,92 M253,91L254,92 M254,91L255,92 M255,91L256,92 M256,91L257,92 M257,91L258,92 M258,91L259,92 M259,91L260,92 M495,91L496,92 M496,91L497,92 M497,91L498,92 M591,91L592,92 M592,91L593,92 M593,91L594,92 M594,91L595,92 M595,91L596,92 M596,91L597,92 M597,91L598,92 M598,91L599,92 M599,91L600,92 M600,91L601,92 M601,91L602,92 M602,91L603,92 M603,91L604,92 M604,91L605,92 M605,91L606,92 M606,91L607,92 M607,91L608,92 M608,91L609,92 M609,91L610,92 M179,92L180,93 M180,92L181,93 M240,92L241,93 M241,92L242,93 M242,92L243,93 M243,92L244,93 M244,92L245,93 M245,92L246,93 M246,92L247,93 M247,92L248,93 M248,92L249,93 M249,92L250,93 M250,92L251,93 M251,92L252,93 M252,92L253,93 M253,92L254,93 M254,92L255,93 M255,92L256,93 M256,92L257,93 M257,92L258,93 M258,92L259,93 M259,92L260,93 M260,92L261,93 M261,92L262,93 M262,92L263,93 M263,92L264,93 M264,92L265,93 M265,92L266,93 M266,92L267,93 M267,92L268,93 M268,92L269,93 M269,92L270,93 M270,92L271,93 M271,92L272,93 M272,92L273,93 M273,92L274,93 M274,92L275,93 M275,92L276,93 M276,92L277,93 M277,92L278,93 M278,92L279,93 M279,92L280,93 M280,92L281,93 M281,92L282,93 M282,92L283,93 M283,92L284,93 M494,92L495,93 M495,92L496,93 M496,92L497,93 M582,92L583,93 M583,92L584,93 M584,92L585,93 M585,92L586,93 M586,92L587,93 M587,92L588,93 M588,92L589,93 M589,92L590,93 M590,92L591,93 M591,92L592,93 M592,92L593,93 M593,92L594,93 M594,92L595,93 M595,92L596,93 M596,92L597,93 M597,92L598,93 M598,92L599,93 M599,92L600,93 M180,93L181,94 M181,93L182,94 M259,93L260,94 M260,93L261,94 M261,93L262,94 M262,93L263,94 M263,93L264,94 M264,93L265,94 M265,93L266,94 M266,93L267,94 M267,93L268,94 M268,93L269,94 M269,93L270,94 M270,93L271,94 M271,93L272,94 M272,93L273,94 M273,93L274,94 M274,93L275,94 M275,93L276,94 M276,93L277,94 M277,93L278,94 M278,93L279,94 M279,93L280,94 M280,93L281,94 M281,93L282,94 M282,93L283,94 M283,93L284,94 M284,93L285,94 M285,93L286,94 M286,93L287,94 M287,93L288,94 M288,93L289,94 M289,93L290,94 M290,93L291,94 M291,93L292,94 M292,93L293,94 M293,93L294,94 M294,93L295,94 M295,93L296,94 M296,93L297,94 M297,93L298,94 M298,93L299,94 M299,93L300,94 M300,93L301,94 M301,93L302,94 M302,93L303,94 M303,93L304,94 M304,93L305,94 M305,93L306,94 M306,93L307,94 M307,93L308,94 M308,93L309,94 M309,93L310,94 M493,93L494,94 M494,93L495,94 M495,93L496,94 M572,93L573,94 M573,93L574,94 M574,93L575,94 M575,93L576,94 M576,93L577,94 M577,93L578,94 M578,93L579,94 M579,93L580,94 M580,93L581,94 M581,93L582,94 M582,93L583,94 M583,93L584,94 M584,93L585,94 M585,93L586,94 M586,93L587,94 M587,93L588,94 M588,93L589,94 M589,93L590,94 M590,93L591,94 M180,94L181,95 M181,94L182,95 M182,94L183,95 M264,94L265,95 M265,94L266,95 M266,94L267,95 M267,94L268,95 M268,94L269,95 M269,94L270,95 M270,94L271,95 M271,94L272,95 M272,94L273,95 M273,94L274,95 M284,94L285,95 M285,94L286,95 M286,94L287,95 M287,94L288,95 M288,94L289,95 M289,94L290,95 M290,94L291,95 M291,94L292,95 M292,94L293,95 M293,94L294,95 M294,94L295,95 M295,94L296,95 M296,94L297,95 M297,94L298,95 M298,94L299,95 M299,94L300,95 M300,94L301,95 M301,94L302,95 M302,94L303,95 M303,94L304,95 M304,94L305,95 M305,94L306,95 M306,94L307,95 M307,94L308,95 M308,94L309,95 M309,94L310,95 M310,94L311,95 M311,94L312,95 M312,94L313,95 M313,94L314,95 M314,94L315,95 M315,94L316,95 M316,94L317,95 M317,94L318,95 M318,94L319,95 M319,94L320,95 M320,94L321,95 M321,94L322,95 M322,94L323,95 M323,94L324,95 M324,94L325,95 M325,94L326,95 M326,94L327,95 M327,94L328,95 M328,94L329,95 M329,94L330,95 M330,94L331,95 M331,94L332,95 M332,94L333,95 M333,94L334,95 M334,94L335,95 M335,94L336,95 M336,94L337,95 M337,94L338,95 M338,94L339,95 M339,94L340,95 M340,94L341,95 M341,94L342,95 M342,94L343,95 M343,94L344,95 M344,94L345,95 M345,94L346,95 M346,94L347,95 M347,94L348,95 M348,94L349,95 M349,94L350,95 M350,94L351,95 M351,94L352,95 M352,94L353,95 M353,94L354,95 M354,94L355,95 M355,94L356,95 M356,94L357,95 M357,94L358,95 M358,94L359,95 M359,94L360,95 M360,94L361,95 M361,94L362,95 M362,94L363,95 M363,94L364,95 M364,94L365,95 M365,94L366,95 M366,94L367,95 M367,94L368,95 M368,94L369,95 M369,94L370,95 M370,94L371,95 M371,94L372,95 M372,94L373,95 M373,94L374,95 M374,94L375,95 M375,94L376,95 M376,94L377,95 M377,94L378,95 M378,94L379,95 M379,94L380,95 M380,94L381,95 M381,94L382,95 M382,94L383,95 M383,94L384,95 M384,94L385,95 M385,94L386,95 M386,94L387,95 M387,94L388,95 M388,94L389,95 M389,94L390,95 M390,94L391,95 M391,94L392,95 M392,94L393,95 M393,94L394,95 M394,94L395,95 M395,94L396,95 M396,94L397,95 M397,94L398,95 M398,94L399,95 M399,94L400,95 M400,94L401,95 M401,94L402,95 M402,94L403,95 M403,94L404,95 M404,94L405,95 M405,94L406,95 M406,94L407,95 M407,94L408,95 M408,94L409,95 M409,94L410,95 M410,94L411,95 M411,94L412,95 M412,94L413,95 M492,94L493,95 M493,94L494,95 M494,94L495,95 M563,94L564,95 M564,94L565,95 M565,94L566,95 M566,94L567,95 M567,94L568,95 M568,94L569,95 M569,94L570,95 M570,94L571,95 M571,94L572,95 M572,94L573,95 M573,94L574,95 M574,94L575,95 M575,94L576,95 M576,94L577,95 M577,94L578,95 M578,94L579,95 M579,94L580,95 M580,94L581,95 M581,94L582,95 M181,95L182,96 M182,95L183,96 M183,95L184,96 M269,95L270,96 M270,95L271,96 M271,95L272,96 M272,95L273,96 M273,95L274,96 M274,95L275,96 M275,95L276,96 M276,95L277,96 M277,95L278,96 M278,95L279,96 M310,95L311,96 M311,95L312,96 M312,95L313,96 M313,95L314,96 M314,95L315,96 M315,95L316,96 M316,95L317,96 M317,95L318,96 M318,95L319,96 M319,95L320,96 M320,95L321,96 M321,95L322,96 M322,95L323,96 M323,95L324,96 M324,95L325,96 M325,95L326,96 M326,95L327,96 M327,95L328,96 M328,95L329,96 M329,95L330,96 M330,95L331,96 M331,95L332,96 M332,95L333,96 M333,95L334,96 M334,95L335,96 M335,95L336,96 M336,95L337,96 M337,95L338,96 M338,95L339,96 M339,95L340,96 M340,95L341,96 M341,95L342,96 M342,95L343,96 M343,95L344,96 M344,95L345,96 M345,95L346,96 M346,95L347,96 M347,95L348,96 M348,95L349,96 M349,95L350,96 M350,95L351,96 M351,95L352,96 M352,95L353,96 M353,95L354,96 M354,95L355,96 M355,95L356,96 M356,95L357,96 M357,95L358,96 M358,95L359,96 M359,95L360,96 M360,95L361,96 M361,95L362,96 M362,95L363,96 M363,95L364,96 M364,95L365,96 M365,95L366,96 M366,95L367,96 M367,95L368,96 M368,95L369,96 M369,95L370,96 M370,95L371,96 M371,95L372,96 M372,95L373,96 M373,95L374,96 M374,95L375,96 M375,95L376,96 M376,95L377,96 M377,95L378,96 M378,95L379,96 M379,95L380,96 M380,95L381,96 M381,95L382,96 M382,95L383,96 M383,95L384,96 M384,95L385,96 M385,95L386,96 M386,95L387,96 M387,95L388,96 M388,95L389,96 M389,95L390,96 M390,95L391,96 M391,95L392,96 M392,95L393,96 M393,95L394,96 M394,95L395,96 M395,95L396,96 M396,95L397,96 M397,95L398,96 M398,95L399,96 M399,95L400,96 M400,95L401,96 M401,95L402,96 M402,95L403,96 M403,95L404,96 M404,95L405,96 M405,95L406,96 M406,95L407,96 M407,95L408,96 M408,95L409,96 M409,95L410,96 M410,95L411,96 M411,95L412,96 M412,95L413,96 M413,95L414,96 M414,95L415,96 M415,95L416,96 M416,95L417,96 M417,95L418,96 M418,95L419,96 M419,95L420,96 M420,95L421,96 M421,95L422,96 M422,95L423,96 M423,95L424,96 M424,95L425,96 M425,95L426,96 M426,95L427,96 M427,95L428,96 M428,95L429,96 M429,95L430,96 M430,95L431,96 M431,95L432,96 M432,95L433,96 M433,95L434,96 M434,95L435,96 M435,95L436,96 M436,95L437,96 M437,95L438,96 M438,95L439,96 M439,95L440,96 M440,95L441,96 M441,95L442,96 M442,95L443,96 M443,95L444,96 M444,95L445,96 M445,95L446,96 M446,95L447,96 M447,95L448,96 M448,95L449,96 M449,95L450,96 M450,95L451,96 M451,95L452,96 M452,95L453,96 M453,95L454,96 M454,95L455,96 M455,95L456,96 M456,95L457,96 M457,95L458,96 M458,95L459,96 M459,95L460,96 M460,95L461,96 M461,95L462,96 M462,95L463,96 M463,95L464,96 M464,95L465,96 M465,95L466,96 M466,95L467,96 M467,95L468,96 M468,95L469,96 M469,95L470,96 M470,95L471,96 M471,95L472,96 M472,95L473,96 M473,95L474,96 M474,95L475,96 M491,95L492,96 M492,95L493,96 M493,95L494,96 M527,95L528,96 M528,95L529,96 M529,95L530,96 M530,95L531,96 M531,95L532,96 M532,95L533,96 M533,95L534,96 M534,95L535,96 M535,95L536,96 M536,95L537,96 M537,95L538,96 M538,95L539,96 M539,95L540,96 M540,95L541,96 M541,95L542,96 M542,95L543,96 M543,95L544,96 M544,95L545,96 M545,95L546,96 M546,95L547,96 M547,95L548,96 M548,95L549,96 M549,95L550,96 M550,95L551,96 M551,95L552,96 M552,95L553,96 M553,95L554,96 M554,95L555,96 M555,95L556,96 M556,95L557,96 M557,95L558,96 M558,95L559,96 M559,95L560,96 M560,95L561,96 M561,95L562,96 M562,95L563,96 M563,95L564,96 M564,95L565,96 M565,95L566,96 M566,95L567,96 M567,95L568,96 M568,95L569,96 M569,95L570,96 M570,95L571,96 M571,95L572,96 M182,96L183,97 M183,96L184,97 M184,96L185,97 M274,96L275,97 M275,96L276,97 M276,96L277,97 M277,96L278,97 M278,96L279,97 M279,96L280,97 M280,96L281,97 M281,96L282,97 M282,96L283,97 M283,96L284,97 M413,96L414,97 M414,96L415,97 M415,96L416,97 M416,96L417,97 M417,96L418,97 M418,96L419,97 M419,96L420,97 M420,96L421,97 M421,96L422,97 M422,96L423,97 M423,96L424,97 M424,96L425,97 M425,96L426,97 M426,96L427,97 M427,96L428,97 M428,96L429,97 M429,96L430,97 M430,96L431,97 M431,96L432,97 M432,96L433,97 M433,96L434,97 M434,96L435,97 M435,96L436,97 M436,96L437,97 M437,96L438,97 M438,96L439,97 M439,96L440,97 M440,96L441,97 M441,96L442,97 M442,96L443,97 M443,96L444,97 M444,96L445,97 M445,96L446,97 M446,96L447,97 M447,96L448,97 M448,96L449,97 M449,96L450,97 M450,96L451,97 M451,96L452,97 M452,96L453,97 M453,96L454,97 M454,96L455,97 M455,96L456,97 M456,96L457,97 M457,96L458,97 M458,96L459,97 M459,96L460,97 M460,96L461,97 M461,96L462,97 M462,96L463,97 M463,96L464,97 M464,96L465,97 M465,96L466,97 M466,96L467,97 M467,96L468,97 M468,96L469,97 M469,96L470,97 M470,96L471,97 M471,96L472,97 M472,96L473,97 M473,96L474,97 M474,96L475,97 M475,96L476,97 M476,96L477,97 M477,96L478,97 M478,96L479,97 M479,96L480,97 M480,96L481,97 M481,96L482,97 M482,96L483,97 M483,96L484,97 M484,96L485,97 M485,96L486,97 M486,96L487,97 M487,96L488,97 M488,96L489,97 M489,96L490,97 M490,96L491,97 M491,96L492,97 M492,96L493,97 M493,96L494,97 M494,96L495,97 M495,96L496,97 M496,96L497,97 M497,96L498,97 M498,96L499,97 M499,96L500,97 M500,96L501,97 M501,96L502,97 M502,96L503,97 M503,96L504,97 M504,96L505,97 M505,96L506,97 M506,96L507,97 M507,96L508,97 M508,96L509,97 M509,96L510,97 M510,96L511,97 M511,96L512,97 M512,96L513,97 M513,96L514,97 M514,96L515,97 M515,96L516,97 M516,96L517,97 M517,96L518,97 M518,96L519,97 M519,96L520,97 M520,96L521,97 M521,96L522,97 M522,96L523,97 M523,96L524,97 M524,96L525,97 M525,96L526,97 M526,96L527,97 M527,96L528,97 M528,96L529,97 M529,96L530,97 M530,96L531,97 M531,96L532,97 M532,96L533,97 M533,96L534,97 M534,96L535,97 M535,96L536,97 M536,96L537,97 M537,96L538,97 M538,96L539,97 M539,96L540,97 M540,96L541,97 M541,96L542,97 M542,96L543,97 M543,96L544,97 M544,96L545,97 M545,96L546,97 M546,96L547,97 M547,96L548,97 M548,96L549,97 M549,96L550,97 M550,96L551,97 M551,96L552,97 M552,96L553,97 M553,96L554,97 M554,96L555,97 M555,96L556,97 M556,96L557,97 M557,96L558,97 M558,96L559,97 M559,96L560,97 M560,96L561,97 M561,96L562,97 M562,96L563,97 M183,97L184,98 M184,97L185,98 M185,97L186,98 M279,97L280,98 M280,97L281,98 M281,97L282,98 M282,97L283,98 M283,97L284,98 M284,97L285,98 M285,97L286,98 M286,97L287,98 M287,97L288,98 M288,97L289,98 M475,97L476,98 M476,97L477,98 M477,97L478,98 M478,97L479,98 M479,97L480,98 M480,97L481,98 M481,97L482,98 M482,97L483,98 M483,97L484,98 M484,97L485,98 M485,97L486,98 M486,97L487,98 M487,97L488,98 M488,97L489,98 M489,97L490,98 M490,97L491,98 M491,97L492,98 M492,97L493,98 M493,97L494,98 M494,97L495,98 M495,97L496,98 M496,97L497,98 M497,97L498,98 M498,97L499,98 M499,97L500,98 M500,97L501,98 M501,97L502,98 M502,97L503,98 M503,97L504,98 M504,97L505,98 M505,97L506,98 M506,97L507,98 M507,97L508,98 M508,97L509,98 M509,97L510,98 M510,97L511,98 M511,97L512,98 M512,97L513,98 M513,97L514,98 M514,97L515,98 M515,97L516,98 M516,97L517,98 M517,97L518,98 M518,97L519,98 M519,97L520,98 M520,97L521,98 M521,97L522,98 M522,97L523,98 M523,97L524,98 M524,97L525,98 M525,97L526,98 M526,97L527,98 M184,98L185,99 M185,98L186,99 M186,98L187,99 M284,98L285,99 M285,98L286,99 M286,98L287,99 M287,98L288,99 M288,98L289,99 M289,98L290,99 M290,98L291,99 M291,98L292,99 M292,98L293,99 M293,98L294,99 M488,98L489,99 M489,98L490,99 M490,98L491,99 M185,99L186,100 M186,99L187,100 M288,99L289,100 M289,99L290,100 M290,99L291,100 M291,99L292,100 M292,99L293,100 M293,99L294,100 M294,99L295,100 M295,99L296,100 M296,99L297,100 M297,99L298,100 M487,99L488,100 M488,99L489,100 M489,99L490,100 M186,100L187,101 M187,100L188,101 M293,100L294,101 M294,100L295,101 M295,100L296,101 M296,100L297,101 M297,100L298,101 M298,100L299,101 M299,100L300,101 M300,100L301,101 M301,100L302,101 M302,100L303,101 M486,100L487,101 M487,100L488,101 M488,100L489,101 M187,101L188,102 M188,101L189,102 M298,101L299,102 M299,101L300,102 M300,101L301,102 M301,101L302,102 M302,101L303,102 M303,101L304,102 M304,101L305,102 M305,101L306,102 M306,101L307,102 M307,101L308,102 M485,101L486,102 M486,101L487,102 M487,101L488,102 M187,102L188,103 M188,102L189,103 M189,102L190,103 M303,102L304,103 M304,102L305,103 M305,102L306,103 M306,102L307,103 M307,102L308,103 M308,102L309,103 M309,102L310,103 M310,102L311,103 M311,102L312,103 M312,102L313,103 M484,102L485,103 M485,102L486,103 M486,102L487,103 M188,103L189,104 M189,103L190,104 M190,103L191,104 M308,103L309,104 M309,103L310,104 M310,103L311,104 M311,103L312,104 M312,103L313,104 M313,103L314,104 M314,103L315,104 M315,103L316,104 M316,103L317,104 M317,103L318,104 M483,103L484,104 M484,103L485,104 M485,103L486,104 M189,104L190,105 M190,104L191,105 M191,104L192,105 M313,104L314,105 M314,104L315,105 M315,104L316,105 M316,104L317,105 M317,104L318,105 M318,104L319,105 M319,104L320,105 M320,104L321,105 M321,104L322,105 M322,104L323,105 M482,104L483,105 M483,104L484,105 M484,104L485,105 M190,105L191,106 M191,105L192,106 M318,105L319,106 M319,105L320,106 M320,105L321,106 M321,105L322,106 M322,105L323,106 M323,105L324,106 M324,105L325,106 M325,105L326,106 M326,105L327,106 M327,105L328,106 M481,105L482,106 M482,105L483,106 M483,105L484,106 M191,106L192,107 M192,106L193,107 M323,106L324,107 M324,106L325,107 M325,106L326,107 M326,106L327,107 M327,106L328,107 M328,106L329,107 M329,106L330,107 M330,106L331,107 M331,106L332,107 M332,106L333,107 M333,106L334,107 M481,106L482,107 M482,106L483,107 M192,107L193,108 M193,107L194,108 M328,107L329,108 M329,107L330,108 M330,107L331,108 M331,107L332,108 M332,107L333,108 M333,107L334,108 M334,107L335,108 M335,107L336,108 M336,107L337,108 M337,107L338,108 M338,107L339,108 M339,107L340,108 M480,107L481,108 M481,107L482,108 M192,108L193,109 M193,108L194,109 M194,108L195,109 M333,108L334,109 M334,108L335,109 M335,108L336,109 M336,108L337,109 M337,108L338,109 M338,108L339,109 M339,108L340,109 M340,108L341,109 M341,108L342,109 M342,108L343,109 M343,108L344,109 M344,108L345,109 M345,108L346,109 M479,108L480,109 M480,108L481,109 M481,108L482,109 M193,109L194,110 M194,109L195,110 M195,109L196,110 M340,109L341,110 M341,109L342,110 M342,109L343,110 M343,109L344,110 M344,109L345,110 M345,109L346,110 M346,109L347,110 M347,109L348,110 M348,109L349,110 M349,109L350,110 M350,109L351,110 M351,109L352,110 M478,109L479,110 M479,109L480,110 M480,109L481,110 M194,110L195,111 M195,110L196,111 M196,110L197,111 M346,110L347,111 M347,110L348,111 M348,110L349,111 M349,110L350,111 M350,110L351,111 M351,110L352,111 M352,110L353,111 M353,110L354,111 M354,110L355,111 M355,110L356,111 M356,110L357,111 M357,110L358,111 M478,110L479,111 M479,110L480,111 M195,111L196,112 M196,111L197,112 M197,111L198,112 M352,111L353,112 M353,111L354,112 M354,111L355,112 M355,111L356,112 M356,111L357,112 M357,111L358,112 M358,111L359,112 M359,111L360,112 M360,111L361,112 M361,111L362,112 M362,111L363,112 M363,111L364,112 M364,111L365,112 M477,111L478,112 M478,111L479,112 M196,112L197,113 M197,112L198,113 M198,112L199,113 M358,112L359,113 M359,112L360,113 M360,112L361,113 M361,112L362,113 M362,112L363,113 M363,112L364,113 M364,112L365,113 M365,112L366,113 M366,112L367,113 M367,112L368,113 M368,112L369,113 M369,112L370,113 M370,112L371,113 M476,112L477,113 M477,112L478,113 M197,113L198,114 M198,113L199,114 M199,113L200,114 M365,113L366,114 M366,113L367,114 M367,113L368,114 M368,113L369,114 M369,113L370,114 M370,113L371,114 M371,113L372,114 M372,113L373,114 M373,113L374,114 M374,113L375,114 M375,113L376,114 M376,113L377,114 M377,113L378,114 M475,113L476,114 M476,113L477,114 M477,113L478,114 M198,114L199,115 M199,114L200,115 M200,114L201,115 M371,114L372,115 M372,114L373,115 M373,114L374,115 M374,114L375,115 M375,114L376,115 M376,114L377,115 M377,114L378,115 M378,114L379,115 M379,114L380,115 M380,114L381,115 M381,114L382,115 M382,114L383,115 M383,114L384,115 M474,114L475,115 M475,114L476,115 M476,114L477,115 M200,115L201,116 M201,115L202,116 M378,115L379,116 M379,115L380,116 M380,115L381,116 M381,115L382,116 M382,115L383,116 M383,115L384,116 M384,115L385,116 M385,115L386,116 M386,115L387,116 M387,115L388,116 M388,115L389,116 M389,115L390,116 M474,115L475,116 M475,115L476,116 M201,116L202,117 M202,116L203,117 M203,116L204,117 M384,116L385,117 M385,116L386,117 M386,116L387,117 M387,116L388,117 M388,116L389,117 M389,116L390,117 M390,116L391,117 M391,116L392,117 M392,116L393,117 M393,116L394,117 M394,116L395,117 M473,116L474,117 M474,116L475,117 M202,117L203,118 M203,117L204,118 M204,117L205,118 M390,117L391,118 M391,117L392,118 M392,117L393,118 M393,117L394,118 M394,117L395,118 M395,117L396,118 M396,117L397,118 M397,117L398,118 M398,117L399,118 M399,117L400,118 M472,117L473,118 M473,117L474,118 M474,117L475,118 M203,118L204,119 M204,118L205,119 M205,118L206,119 M395,118L396,119 M396,118L397,119 M397,118L398,119 M398,118L399,119 M399,118L400,119 M400,118L401,119 M401,118L402,119 M402,118L403,119 M403,118L404,119 M404,118L405,119 M471,118L472,119 M472,118L473,119 M473,118L474,119 M204,119L205,120 M205,119L206,120 M206,119L207,120 M400,119L401,120 M401,119L402,120 M402,119L403,120 M403,119L404,120 M404,119L405,120 M405,119L406,120 M406,119L407,120 M407,119L408,120 M408,119L409,120 M409,119L410,120 M410,119L411,120 M470,119L471,120 M471,119L472,120 M472,119L473,120 M205,120L206,121 M206,120L207,121 M207,120L208,121 M405,120L406,121 M406,120L407,121 M407,120L408,121 M408,120L409,121 M409,120L410,121 M410,120L411,121 M411,120L412,121 M412,120L413,121 M413,120L414,121 M414,120L415,121 M415,120L416,121 M470,120L471,121 M471,120L472,121 M206,121L207,122 M207,121L208,122 M208,121L209,122 M410,121L411,122 M411,121L412,122 M412,121L413,122 M413,121L414,122 M414,121L415,122 M415,121L416,122 M416,121L417,122 M417,121L418,122 M418,121L419,122 M419,121L420,122 M469,121L470,122 M470,121L471,122 M207,122L208,123 M208,122L209,123 M209,122L210,123 M416,122L417,123 M417,122L418,123 M418,122L419,123 M419,122L420,123 M420,122L421,123 M421,122L422,123 M468,122L469,123 M469,122L470,123 M470,122L471,123 M208,123L209,124 M209,123L210,124 M210,123L211,124 M419,123L420,124 M420,123L421,124 M421,123L422,124 M422,123L423,124 M423,123L424,124 M424,123L425,124 M467,123L468,124 M468,123L469,124 M469,123L470,124 M209,124L210,125 M210,124L211,125 M211,124L212,125 M422,124L423,125 M423,124L424,125 M424,124L425,125 M425,124L426,125 M426,124L427,125 M427,124L428,125 M466,124L467,125 M467,124L468,125 M468,124L469,125 M210,125L211,126 M211,125L212,126 M212,125L213,126 M425,125L426,126 M426,125L427,126 M427,125L428,126 M428,125L429,126 M429,125L430,126 M466,125L467,126 M467,125L468,126 M211,126L212,127 M212,126L213,127 M213,126L214,127 M427,126L428,127 M428,126L429,127 M429,126L430,127 M430,126L431,127 M431,126L432,127 M432,126L433,127 M465,126L466,127 M466,126L467,127 M212,127L213,128 M213,127L214,128 M214,127L215,128 M430,127L431,128 M431,127L432,128 M432,127L433,128 M433,127L434,128 M434,127L435,128 M464,127L465,128 M465,127L466,128 M466,127L467,128 M214,128L215,129 M215,128L216,129 M216,128L217,129 M433,128L434,129 M434,128L435,129 M435,128L436,129 M463,128L464,129 M464,128L465,129 M465,128L466,129 M215,129L216,130 M216,129L217,130 M217,129L218,130 M434,129L435,130 M435,129L436,130 M436,129L437,130 M462,129L463,130 M463,129L464,130 M464,129L465,130 M216,130L217,131 M217,130L218,131 M218,130L219,131 M435,130L436,131 M436,130L437,131 M437,130L438,131 M462,130L463,131 M463,130L464,131 M217,131L218,132 M218,131L219,132 M219,131L220,132 M436,131L437,132 M437,131L438,132 M438,131L439,132 M461,131L462,132 M462,131L463,132 M218,132L219,133 M219,132L220,133 M220,132L221,133 M437,132L438,133 M438,132L439,133 M439,132L440,133 M460,132L461,133 M461,132L462,133 M462,132L463,133 M219,133L220,134 M220,133L221,134 M221,133L222,134 M438,133L439,134 M439,133L440,134 M440,133L441,134 M459,133L460,134 M460,133L461,134 M461,133L462,134 M220,134L221,135 M221,134L222,135 M222,134L223,135 M439,134L440,135 M440,134L441,135 M459,134L460,135 M460,134L461,135 M221,135L222,136 M222,135L223,136 M223,135L224,136 M439,135L440,136 M440,135L441,136 M458,135L459,136 M459,135L460,136 M222,136L223,137 M223,136L224,137 M224,136L225,137 M439,136L440,137 M440,136L441,137 M457,136L458,137 M458,136L459,137 M223,137L224,138 M224,137L225,138 M225,137L226,138 M440,137L441,138 M441,137L442,138 M456,137L457,138 M457,137L458,138 M458,137L459,138 M225,138L226,139 M226,138L227,139 M227,138L228,139 M440,138L441,139 M441,138L442,139 M455,138L456,139 M456,138L457,139 M457,138L458,139 M226,139L227,140 M227,139L228,140 M228,139L229,140 M440,139L441,140 M441,139L442,140 M455,139L456,140 M456,139L457,140 M227,140L228,141 M228,140L229,141 M229,140L230,141 M440,140L441,141 M441,140L442,141 M454,140L455,141 M455,140L456,141 M228,141L229,142 M229,141L230,142 M230,141L231,142 M440,141L441,142 M441,141L442,142 M442,141L443,142 M453,141L454,142 M454,141L455,142 M229,142L230,143 M230,142L231,143 M231,142L232,143 M441,142L442,143 M442,142L443,143 M452,142L453,143 M453,142L454,143 M454,142L455,143 M230,143L231,144 M231,143L232,144 M232,143L233,144 M441,143L442,144 M442,143L443,144 M451,143L452,144 M452,143L453,144 M453,143L454,144 M231,144L232,145 M232,144L233,145 M233,144L234,145 M441,144L442,145 M442,144L443,145 M451,144L452,145 M452,144L453,145 M232,145L233,146 M233,145L234,146 M234,145L235,146 M235,145L236,146 M441,145L442,146 M442,145L443,146 M450,145L451,146 M451,145L452,146 M234,146L235,147 M235,146L236,147 M236,146L237,147 M441,146L442,147 M442,146L443,147 M449,146L450,147 M450,146L451,147 M451,146L452,147 M235,147L236,148 M236,147L237,148 M237,147L238,148 M238,147L239,148 M441,147L442,148 M442,147L443,148 M448,147L449,148 M449,147L450,148 M450,147L451,148 M237,148L238,149 M238,148L239,149 M239,148L240,149 M441,148L442,149 M442,148L443,149 M447,148L448,149 M448,148L449,149 M449,148L450,149 M238,149L239,150 M239,149L240,150 M240,149L241,150 M441,149L442,150 M442,149L443,150 M447,149L448,150 M448,149L449,150 M239,150L240,151 M240,150L241,151 M241,150L242,151 M242,150L243,151 M442,150L443,151 M443,150L444,151 M446,150L447,151 M447,150L448,151 M241,151L242,152 M242,151L243,152 M243,151L244,152 M442,151L443,152 M443,151L444,152 M445,151L446,152 M446,151L447,152 M447,151L448,152 M242,152L243,153 M243,152L244,153 M244,152L245,153 M245,152L246,153 M442,152L443,153 M443,152L444,153 M444,152L445,153 M445,152L446,153 M446,152L447,153 M244,153L245,154 M245,153L246,154 M246,153L247,154 M442,153L443,154 M443,153L444,154 M444,153L445,154 M445,153L446,154 M245,154L246,155 M246,154L247,155 M247,154L248,155 M443,154L444,155 M444,154L445,155 M246,155L247,156 M247,155L248,156 M248,155L249,156 M249,155L250,156 M442,155L443,156 M443,155L444,156 M248,156L249,157 M249,156L250,157 M250,156L251,157 M441,156L442,157 M442,156L443,157 M443,156L444,157 M249,157L250,158 M250,157L251,158 M251,157L252,158 M252,157L253,158 M440,157L441,158 M441,157L442,158 M442,157L443,158 M250,158L251,159 M251,158L252,159 M252,158L253,159 M253,158L254,159 M439,158L440,159 M440,158L441,159 M441,158L442,159 M252,159L253,160 M253,159L254,160 M254,159L255,160 M439,159L440,160 M440,159L441,160 M253,160L254,161 M254,160L255,161 M255,160L256,161 M256,160L257,161 M438,160L439,161 M439,160L440,161 M255,161L256,162 M256,161L257,162 M257,161L258,162 M437,161L438,162 M438,161L439,162 M439,161L440,162 M256,162L257,163 M257,162L258,163 M258,162L259,163 M436,162L437,163 M437,162L438,163 M438,162L439,163 M257,163L258,164 M258,163L259,164 M259,163L260,164 M260,163L261,164 M436,163L437,164 M437,163L438,164 M259,164L260,165 M260,164L261,165 M261,164L262,165 M435,164L436,165 M436,164L437,165 M260,165L261,166 M261,165L262,166 M262,165L263,166 M263,165L264,166 M434,165L435,166 M435,165L436,166 M262,166L263,167 M263,166L264,167 M264,166L265,167 M433,166L434,167 M434,166L435,167 M435,166L436,167 M263,167L264,168 M264,167L265,168 M265,167L266,168 M432,167L433,168 M433,167L434,168 M434,167L435,168 M264,168L265,169 M265,168L266,169 M266,168L267,169 M267,168L268,169 M432,168L433,169 M433,168L434,169 M266,169L267,170 M267,169L268,170 M268,169L269,170 M431,169L432,170 M432,169L433,170 M267,170L268,171 M268,170L269,171 M269,170L270,171 M270,170L271,171 M430,170L431,171 M431,170L432,171 M432,170L433,171 M269,171L270,172 M270,171L271,172 M271,171L272,172 M429,171L430,172 M430,171L431,172 M431,171L432,172 M270,172L271,173 M271,172L272,173 M272,172L273,173 M428,172L429,173 M429,172L430,173 M430,172L431,173 M271,173L272,174 M272,173L273,174 M273,173L274,174 M274,173L275,174 M428,173L429,174 M429,173L430,174 M273,174L274,175 M274,174L275,175 M275,174L276,175 M427,174L428,175 M428,174L429,175 M274,175L275,176 M275,175L276,176 M276,175L277,176 M426,175L427,176 M427,175L428,176 M428,175L429,176 M275,176L276,177 M276,176L277,177 M277,176L278,177 M278,176L279,177 M425,176L426,177 M426,176L427,177 M427,176L428,177 M277,177L278,178 M278,177L279,178 M279,177L280,178 M424,177L425,178 M425,177L426,178 M426,177L427,178 M278,178L279,179 M279,178L280,179 M280,178L281,179 M281,178L282,179 M424,178L425,179 M425,178L426,179 M280,179L281,180 M281,179L282,180 M282,179L283,180 M423,179L424,180 M424,179L425,180 M281,180L282,181 M282,180L283,181 M283,180L284,181 M422,180L423,181 M423,180L424,181 M424,180L425,181 M282,181L283,182 M283,181L284,182 M284,181L285,182 M285,181L286,182 M421,181L422,182 M422,181L423,182 M423,181L424,182 M284,182L285,183 M285,182L286,183 M286,182L287,183 M420,182L421,183 M421,182L422,183 M422,182L423,183 M285,183L286,184 M286,183L287,184 M287,183L288,184 M288,183L289,184 M420,183L421,184 M421,183L422,184 M287,184L288,185 M288,184L289,185 M289,184L290,185 M419,184L420,185 M420,184L421,185 M288,185L289,186 M289,185L290,186 M290,185L291,186 M418,185L419,186 M419,185L420,186 M420,185L421,186 M289,186L290,187 M290,186L291,187 M291,186L292,187 M292,186L293,187 M417,186L418,187 M418,186L419,187 M419,186L420,187 M291,187L292,188 M292,187L293,188 M293,187L294,188 M417,187L418,188 M418,187L419,188 M292,188L293,189 M293,188L294,189 M294,188L295,189 M416,188L417,189 M417,188L418,189 M293,189L294,190 M294,189L295,190 M295,189L296,190 M296,189L297,190 M415,189L416,190 M416,189L417,190 M417,189L418,190 M295,190L296,191 M296,190L297,191 M297,190L298,191 M414,190L415,191 M415,190L416,191 M416,190L417,191 M296,191L297,192 M297,191L298,192 M298,191L299,192 M299,191L300,192 M414,191L415,192 M415,191L416,192 M298,192L299,193 M299,192L300,193 M300,192L301,193 M413,192L414,193 M414,192L415,193 M299,193L300,194 M300,193L301,194 M301,193L302,194 M412,193L413,194 M413,193L414,194 M414,193L415,194 M300,194L301,195 M301,194L302,195 M302,194L303,195 M303,194L304,195 M411,194L412,195 M412,194L413,195 M413,194L414,195 M302,195L303,196 M303,195L304,196 M304,195L305,196 M411,195L412,196 M412,195L413,196 M303,196L304,197 M304,196L305,197 M305,196L306,197 M410,196L411,197 M411,196L412,197 M304,197L305,198 M305,197L306,198 M306,197L307,198 M307,197L308,198 M409,197L410,198 M410,197L411,198 M411,197L412,198 M306,198L307,199 M307,198L308,199 M308,198L309,199 M408,198L409,199 M409,198L410,199 M410,198L411,199 M307,199L308,200 M308,199L309,200 M309,199L310,200 M408,199L409,200 M409,199L410,200 M308,200L309,201 M309,200L310,201 M310,200L311,201 M311,200L312,201 M407,200L408,201 M408,200L409,201 M310,201L311,202 M311,201L312,202 M312,201L313,202 M406,201L407,202 M407,201L408,202 M408,201L409,202 M311,202L312,203 M312,202L313,203 M313,202L314,203 M314,202L315,203 M405,202L406,203 M406,202L407,203 M407,202L408,203 M313,203L314,204 M314,203L315,204 M315,203L316,204 M405,203L406,204 M406,203L407,204 M314,204L315,205 M315,204L316,205 M316,204L317,205 M404,204L405,205 M405,204L406,205 M315,205L316,206 M316,205L317,206 M317,205L318,206 M318,205L319,206 M403,205L404,206 M404,205L405,206 M405,205L406,206 M317,206L318,207 M318,206L319,207 M319,206L320,207 M402,206L403,207 M403,206L404,207 M404,206L405,207 M318,207L319,208 M319,207L320,208 M320,207L321,208 M402,207L403,208 M403,207L404,208 M319,208L320,209 M320,208L321,209 M321,208L322,209 M322,208L323,209 M401,208L402,209 M402,208L403,209 M321,209L322,210 M322,209L323,210 M323,209L324,210 M400,209L401,210 M401,209L402,210 M402,209L403,210 M322,210L323,211 M323,210L324,211 M324,210L325,211 M325,210L326,211 M399,210L400,211 M400,210L401,211 M401,210L402,211 M324,211L325,212 M325,211L326,212 M326,211L327,212 M327,211L328,212 M399,211L400,212 M400,211L401,212 M325,212L326,213 M326,212L327,213 M327,212L328,213 M328,212L329,213 M398,212L399,213 M399,212L400,213 M327,213L328,214 M328,213L329,214 M329,213L330,214 M330,213L331,214 M397,213L398,214 M398,213L399,214 M399,213L400,214 M329,214L330,215 M330,214L331,215 M331,214L332,215 M332,214L333,215 M397,214L398,215 M398,214L399,215 M330,215L331,216 M331,215L332,216 M332,215L333,216 M333,215L334,216 M396,215L397,216 M397,215L398,216 M332,216L333,217 M333,216L334,217 M334,216L335,217 M335,216L336,217 M395,216L396,217 M396,216L397,217 M397,216L398,217 M334,217L335,218 M335,217L336,218 M336,217L337,218 M337,217L338,218 M395,217L396,218 M396,217L397,218 M335,218L336,219 M336,218L337,219 M337,218L338,219 M338,218L339,219 M394,218L395,219 M395,218L396,219 M396,218L397,219 M337,219L338,220 M338,219L339,220 M339,219L340,220 M340,219L341,220 M394,219L395,220 M395,219L396,220 M339,220L340,221 M340,220L341,221 M341,220L342,221 M342,220L343,221 M393,220L394,221 M394,220L395,221 M341,221L342,222 M342,221L343,222 M343,221L344,222 M393,221L394,222 M394,221L395,222 M342,222L343,223 M343,222L344,223 M344,222L345,223 M345,222L346,223 M392,222L393,223 M393,222L394,223 M344,223L345,224 M345,223L346,224 M346,223L347,224 M347,223L348,224 M391,223L392,224 M392,223L393,224 M393,223L394,224 M346,224L347,225 M347,224L348,225 M348,224L349,225 M391,224L392,225 M392,224L393,225 M347,225L348,226 M348,225L349,226 M349,225L350,226 M350,225L351,226 M390,225L391,226 M391,225L392,226 M392,225L393,226 M349,226L350,227 M350,226L351,227 M351,226L352,227 M352,226L353,227 M390,226L391,227 M391,226L392,227 M351,227L352,228 M352,227L353,228 M353,227L354,228 M354,227L355,228 M389,227L390,228 M390,227L391,228 M352,228L353,229 M353,228L354,229 M354,228L355,229 M355,228L356,229 M389,228L390,229 M390,228L391,229 M354,229L355,230 M388,229L389,230 M389,229L390,230 M387,230L388,231 M388,230L389,231 M389,230L390,231 M387,231L388,232 M388,231L389,232 M386,232L387,233 M387,232L388,233 M388,232L389,233 M386,233L387,234 M387,233L388,234 M385,234L386,235 M386,234L387,235 M385,235L386,236 M386,235L387,236 M384,236L385,237 M385,236L386,237 M384,237L385,238 M385,237L386,238 M383,238L384,239 M384,238L385,239 M383,239L384,240 M384,239L385,240 M382,240L383,241 M383,240L384,241 M384,240L385,241 M382,241L383,242 M383,241L384,242 M381,242L382,243 M382,242L383,243 M383,242L384,243 M381,243L382,244 M382,243L383,244 M380,244L381,245 M381,244L382,245 M382,244L383,245 M380,245L381,246 M381,245L382,246 M380,246L381,247 M381,246L382,247 M379,247L380,248 M380,247L381,248 M380,248L381,249" fill="none" stroke="black" />
    </svg>