<svg xmlns="http://www.w3.org/2000/svg" width="800" height="250">
        <path d="M413,52L414,53 M414,52L415,53 M415,52L416,53 M416,52L417,53 M417,52L418,53 M418,52L419,53 M419,52L420,53 M420,52L421,53 M421,52L422,53 M422,52L423,53 M423,52L424,53 M424,52L425,53 M425,52L426,53 M426,52L427,53 M427,52L428,53 M428,52L429,53 M429,52L430,53 M430,52L431,53 M431,52L432,53 M432,52L433,53 M433,52L434,53 M434,52L435,53 M435,52L436,53 M436,52L437,53 M437,52L438,53 M438,52L439,53 M439,52L440,53 M440,52L441,53 M441,52L442,53 M442,52L443,53 M443,52L444,53 M444,52L445,53 M445,52L446,53 M446,52L447,53 M447,52L448,53 M448,52L449,53 M449,52L450,53 M450,52L451,53 M451,52L452,53 M452,52L453,53 M453,52L454,53 M454,52L455,53 M455,52L456,53 M456,52L457,53 M457,52L458,53 M458,52L459,53 M459,52L460,53 M460,52L461,53 M461,52L462,53 M462,52L463,53 M463,52L464,53 M464,52L465,53 M465,52L466,53 M466,52L467,53 M467,52L468,53 M468,52L469,53 M469,52L470,53 M470,52L471,53 M471,52L472,53 M472,52L473,53 M473,52L474,53 M474,52L475,53 M475,52L476,53 M476,52L477,53 M477,52L478,53 M478,52L479,53 M479,52L480,53 M480,52L481,53 M481,52L482,53 M482,52L483,53 M483,52L484,53 M484,52L485,53 M485,52L486,53 M486,52L487,53 M487,52L488,53 M488,52L489,53 M489,52L490,53 M490,52L491,53 M491,52L492,53 M492,52L493,53 M493,52L494,53 M494,52L495,53 M495,52L496,53 M496,52L497,53 M497,52L498,53 M498,52L499,53 M499,52L500,53 M500,52L501,53 M501,52L502,53 M502,52L503,53 M503,52L504,53 M504,52L505,53 M505,52L506,53 M506,52L507,53 M407,53L408,54 M408,53L409,54 M409,53L410,54 M410,53L411,54 M411,53L412,54 M412,53L413,54 M413,53L414,54 M414,53L415,54 M415,53L416,54 M416,53L417,54 M417,53L418,54 M418,53L419,54 M419,53L420,54 M420,53L421,54 M421,53L422,54 M422,53L423,54 M423,53L424,54 M424,53L425,54 M425,53L426,54 M426,53L427,54 M427,53L428,54 M428,53L429,54 M429,53L430,54 M430,53L431,54 M431,53L432,54 M432,53L433,54 M433,53L434,54 M434,53L435,54 M435,53L436,54 M436,53L437,54 M437,53L438,54 M438,53L439,54 M439,53L440,54 M440,53L441,54 M441,53L442,54 M442,53L443,54 M443,53L444,54 M444,53L445,54 M445,53L446,54 M446,53L447,54 M447,53L448,54 M448,53L449,54 M449,53L450,54 M450,53L451,54 M451,53L452,54 M452,53L453,54 M453,53L454,54 M454,53L455,54 M455,53L456,54 M456,53L457,54 M457,53L458,54 M458,53L459,54 M459,53L460,54 M460,53L461,54 M461,53L462,54 M462,53L463,54 M463,53L464,54 M464,53L465,54 M465,53L466,54 M466,53L467,54 M467,53L468,54 M468,53L469,54 M469,53L470,54 M470,53L471,54 M471,53L472,54 M472,53L473,54 M473,53L474,54 M474,53L475,54 M475,53L476,54 M476,53L477,54 M477,53L478,54 M478,53L479,54 M479,53L480,54 M480,53L481,54 M481,53L482,54 M482,53L483,54 M483,53L484,54 M484,53L485,54 M485,53L486,54 M486,53L487,54 M487,53L488,54 M488,53L489,54 M489,53L490,54 M490,53L491,54 M491,53L492,54 M492,53L493,54 M493,53L494,54 M494,53L495,54 M495,53L496,54 M496,53L497,54 M497,53L498,54 M498,53L499,54 M499,53L500,54 M500,53L501,54 M501,53L502,54 M502,53L503,54 M503,53L504,54 M504,53L505,54 M505,53L506,54 M506,53L507,54 M507,53L508,54 M508,53L509,54 M509,53L510,54 M510,53L511,54 M511,53L512,54 M512,53L513,54 M513,53L514,54 M514,53L515,54 M515,53L516,54 M516,53L517,54 M517,53L518,54 M518,53L519,54 M519,53L520,54 M402,54L403,55 M403,54L404,55 M404,54L405,55 M405,54L406,55 M406,54L407,55 M407,54L408,55 M408,54L409,55 M409,54L410,55 M410,54L411,55 M411,54L412,55 M412,54L413,55 M507,54L508,55 M508,54L509,55 M509,54L510,55 M510,54L511,55 M511,54L512,55 M512,54L513,55 M513,54L514,55 M514,54L515,55 M515,54L516,55 M516,54L517,55 M517,54L518,55 M518,54L519,55 M519,54L520,55 M520,54L521,55 M521,54L522,55 M522,54L523,55 M523,54L524,55 M524,54L525,55 M525,54L526,55 M526,54L527,55 M527,54L528,55 M528,54L529,55 M529,54L530,55 M530,54L531,55 M396,55L397,56 M397,55L398,56 M398,55L399,56 M399,55L400,56 M400,55L401,56 M401,55L402,56 M402,55L403,56 M403,55L404,56 M404,55L405,56 M405,55L406,56 M406,55L407,56 M520,55L521,56 M521,55L522,56 M522,55L523,56 M523,55L524,56 M524,55L525,56 M525,55L526,56 M526,55L527,56 M527,55L528,56 M528,55L529,56 M529,55L530,56 M530,55L531,56 M531,55L532,56 M532,55L533,56 M533,55L534,56 M534,55L535,56 M535,55L536,56 M536,55L537,56 M537,55L538,56 M538,55L539,56 M539,55L540,56 M540,55L541,56 M390,56L391,57 M391,56L392,57 M392,56L393,57 M393,56L394,57 M394,56L395,57 M395,56L396,57 M396,56L397,57 M397,56L398,57 M398,56L399,57 M399,56L400,57 M400,56L401,57 M401,56L402,57 M531,56L532,57 M532,56L533,57 M533,56L534,57 M534,56L535,57 M535,56L536,57 M536,56L537,57 M537,56L538,57 M538,56L539,57 M539,56L540,57 M540,56L541,57 M541,56L542,57 M542,56L543,57 M543,56L544,57 M544,56L545,57 M545,56L546,57 M546,56L547,57 M547,56L548,57 M548,56L549,57 M549,56L550,57 M550,56L551,57 M385,57L386,58 M386,57L387,58 M387,57L388,58 M388,57L389,58 M389,57L390,58 M390,57L391,58 M391,57L392,58 M392,57L393,58 M393,57L394,58 M394,57L395,58 M395,57L396,58 M541,57L542,58 M542,57L543,58 M543,57L544,58 M544,57L545,58 M545,57L546,58 M546,57L547,58 M547,57L548,58 M548,57L549,58 M549,57L550,58 M550,57L551,58 M551,57L552,58 M552,57L553,58 M553,57L554,58 M554,57L555,58 M555,57L556,58 M556,57L557,58 M557,57L558,58 M558,57L559,58 M559,57L560,58 M560,57L561,58 M379,58L380,59 M380,58L381,59 M381,58L382,59 M382,58L383,59 M383,58L384,59 M384,58L385,59 M385,58L386,59 M386,58L387,59 M387,58L388,59 M388,58L389,59 M389,58L390,59 M390,58L391,59 M551,58L552,59 M552,58L553,59 M553,58L554,59 M554,58L555,59 M555,58L556,59 M556,58L557,59 M557,58L558,59 M558,58L559,59 M559,58L560,59 M560,58L561,59 M561,58L562,59 M562,58L563,59 M563,58L564,59 M564,58L565,59 M565,58L566,59 M566,58L567,59 M567,58L568,59 M374,59L375,60 M375,59L376,60 M376,59L377,60 M377,59L378,60 M378,59L379,60 M379,59L380,60 M380,59L381,60 M381,59L382,60 M382,59L383,60 M383,59L384,60 M384,59L385,60 M561,59L562,60 M562,59L563,60 M563,59L564,60 M564,59L565,60 M565,59L566,60 M566,59L567,60 M567,59L568,60 M568,59L569,60 M569,59L570,60 M570,59L571,60 M571,59L572,60 M572,59L573,60 M573,59L574,60 M368,60L369,61 M369,60L370,61 M370,60L371,61 M371,60L372,61 M372,60L373,61 M373,60L374,61 M374,60L375,61 M375,60L376,61 M376,60L377,61 M377,60L378,61 M378,60L379,61 M568,60L569,61 M569,60L570,61 M570,60L571,61 M571,60L572,61 M572,60L573,61 M573,60L574,61 M574,60L575,61 M575,60L576,61 M576,60L577,61 M577,60L578,61 M578,60L579,61 M362,61L363,62 M363,61L364,62 M364,61L365,62 M365,61L366,62 M366,61L367,62 M367,61L368,62 M368,61L369,62 M369,61L370,62 M370,61L371,62 M371,61L372,62 M372,61L373,62 M373,61L374,62 M574,61L575,62 M575,61L576,62 M576,61L577,62 M577,61L578,62 M578,61L579,62 M579,61L580,62 M580,61L581,62 M581,61L582,62 M582,61L583,62 M358,62L359,63 M359,62L360,63 M360,62L361,63 M361,62L362,63 M362,62L363,63 M363,62L364,63 M364,62L365,63 M365,62L366,63 M366,62L367,63 M367,62L368,63 M579,62L580,63 M580,62L581,63 M581,62L582,63 M582,62L583,63 M583,62L584,63 M584,62L585,63 M585,62L586,63 M586,62L587,63 M355,63L356,64 M356,63L357,64 M357,63L358,64 M358,63L359,64 M359,63L360,64 M360,63L361,64 M361,63L362,64 M362,63L363,64 M583,63L584,64 M584,63L585,64 M585,63L586,64 M586,63L587,64 M587,63L588,64 M588,63L589,64 M352,64L353,65 M353,64L354,65 M354,64L355,65 M355,64L356,65 M356,64L357,65 M357,64L358,65 M587,64L588,65 M588,64L589,65 M589,64L590,65 M349,65L350,66 M350,65L351,66 M351,65L352,66 M352,65L353,66 M353,65L354,66 M354,65L355,66 M588,65L589,66 M589,65L590,66 M346,66L347,67 M347,66L348,67 M348,66L349,67 M349,66L350,67 M350,66L351,67 M351,66L352,67 M588,66L589,67 M589,66L590,67 M342,67L343,68 M343,67L344,68 M344,67L345,68 M345,67L346,68 M346,67L347,68 M347,67L348,68 M348,67L349,68 M587,67L588,68 M588,67L589,68 M339,68L340,69 M340,68L341,69 M341,68L342,69 M342,68L343,69 M343,68L344,69 M344,68L345,69 M345,68L346,69 M587,68L588,69 M588,68L589,69 M336,69L337,70 M337,69L338,70 M338,69L339,70 M339,69L340,70 M340,69L341,70 M341,69L342,70 M342,69L343,70 M587,69L588,70 M588,69L589,70 M334,70L335,71 M335,70L336,71 M336,70L337,71 M337,70L338,71 M338,70L339,71 M339,70L340,71 M586,70L587,71 M587,70L588,71 M332,71L333,72 M333,71L334,72 M334,71L335,72 M335,71L336,72 M336,71L337,72 M586,71L587,72 M587,71L588,72 M330,72L331,73 M331,72L332,73 M332,72L333,73 M333,72L334,73 M586,72L587,73 M587,72L588,73 M329,73L330,74 M330,73L331,74 M331,73L332,74 M332,73L333,74 M585,73L586,74 M586,73L587,74 M327,74L328,75 M328,74L329,75 M329,74L330,75 M330,74L331,75 M584,74L585,75 M585,74L586,75 M586,74L587,75 M325,75L326,76 M326,75L327,76 M327,75L328,76 M328,75L329,76 M584,75L585,76 M585,75L586,76 M323,76L324,77 M324,76L325,77 M325,76L326,77 M326,76L327,77 M583,76L584,77 M584,76L585,77 M585,76L586,77 M322,77L323,78 M323,77L324,78 M324,77L325,78 M325,77L326,78 M583,77L584,78 M584,77L585,78 M320,78L321,79 M321,78L322,79 M322,78L323,79 M323,78L324,79 M582,78L583,79 M583,78L584,79 M318,79L319,80 M319,79L320,80 M320,79L321,80 M321,79L322,80 M581,79L582,80 M582,79L583,80 M583,79L584,80 M316,80L317,81 M317,80L318,81 M318,80L319,81 M319,80L320,81 M581,80L582,81 M582,80L583,81 M315,81L316,82 M316,81L317,82 M317,81L318,82 M318,81L319,82 M580,81L581,82 M581,81L582,82 M313,82L314,83 M314,82L315,83 M315,82L316,83 M316,82L317,83 M579,82L580,83 M580,82L581,83 M581,82L582,83 M312,83L313,84 M313,83L314,84 M314,83L315,84 M578,83L579,84 M579,83L580,84 M580,83L581,84 M311,84L312,85 M312,84L313,85 M313,84L314,85 M576,84L577,85 M577,84L578,85 M578,84L579,85 M310,85L311,86 M311,85L312,86 M312,85L313,86 M575,85L576,86 M576,85L577,86 M577,85L578,86 M309,86L310,87 M310,86L311,87 M311,86L312,87 M574,86L575,87 M575,86L576,87 M576,86L577,87 M308,87L309,88 M309,87L310,88 M310,87L311,88 M573,87L574,88 M574,87L575,88 M575,87L576,88 M307,88L308,89 M308,88L309,89 M309,88L310,89 M572,88L573,89 M573,88L574,89 M574,88L575,89 M306,89L307,90 M307,89L308,90 M308,89L309,90 M570,89L571,90 M571,89L572,90 M572,89L573,90 M305,90L306,91 M306,90L307,91 M307,90L308,91 M569,90L570,91 M570,90L571,91 M571,90L572,91 M304,91L305,92 M305,91L306,92 M306,91L307,92 M568,91L569,92 M569,91L570,92 M570,91L571,92 M303,92L304,93 M304,92L305,93 M305,92L306,93 M567,92L568,93 M568,92L569,93 M569,92L570,93 M302,93L303,94 M303,93L304,94 M304,93L305,94 M566,93L567,94 M567,93L568,94 M568,93L569,94 M301,94L302,95 M302,94L303,95 M303,94L304,95 M564,94L565,95 M565,94L566,95 M566,94L567,95 M300,95L301,96 M301,95L302,96 M302,95L303,96 M563,95L564,96 M564,95L565,96 M565,95L566,96 M300,96L301,97 M301,96L302,97 M562,96L563,97 M563,96L564,97 M564,96L565,97 M299,97L300,98 M300,97L301,98 M561,97L562,98 M562,97L563,98 M563,97L564,98 M298,98L299,99 M299,98L300,99 M560,98L561,99 M561,98L562,99 M562,98L563,99 M297,99L298,100 M298,99L299,100 M558,99L559,100 M559,99L560,100 M560,99L561,100 M296,100L297,101 M297,100L298,101 M557,100L558,101 M558,100L559,101 M559,100L560,101 M295,101L296,102 M296,101L297,102 M556,101L557,102 M557,101L558,102 M558,101L559,102 M294,102L295,103 M295,102L296,103 M296,102L297,103 M554,102L555,103 M555,102L556,103 M556,102L557,103 M557,102L558,103 M293,103L294,104 M294,103L295,104 M295,103L296,104 M552,103L553,104 M553,103L554,104 M554,103L555,104 M555,103L556,104 M292,104L293,105 M293,104L294,105 M294,104L295,105 M550,104L551,105 M551,104L552,105 M552,104L553,105 M553,104L554,105 M291,105L292,106 M292,105L293,106 M293,105L294,106 M549,105L550,106 M550,105L551,106 M551,105L552,106 M552,105L553,106 M290,106L291,107 M291,106L292,107 M292,106L293,107 M547,106L548,107 M548,106L549,107 M549,106L550,107 M550,106L551,107 M289,107L290,108 M290,107L291,108 M291,107L292,108 M545,107L546,108 M546,107L547,108 M547,107L548,108 M548,107L549,108 M288,108L289,109 M289,108L290,109 M290,108L291,109 M543,108L544,109 M544,108L545,109 M545,108L546,109 M546,108L547,109 M287,109L288,110 M288,109L289,110 M289,109L290,110 M541,109L542,110 M542,109L543,110 M543,109L544,110 M544,109L545,110 M286,110L287,111 M287,110L288,111 M288,110L289,111 M540,110L541,111 M541,110L542,111 M542,110L543,111 M543,110L544,111 M286,111L287,112 M287,111L288,112 M537,111L538,112 M538,111L539,112 M539,111L540,112 M540,111L541,112 M541,111L542,112 M285,112L286,113 M286,112L287,113 M535,112L536,113 M536,112L537,113 M537,112L538,113 M538,112L539,113 M539,112L540,113 M285,113L286,114 M286,113L287,114 M532,113L533,114 M533,113L534,114 M534,113L535,114 M535,113L536,114 M536,113L537,114 M537,113L538,114 M285,114L286,115 M286,114L287,115 M529,114L530,115 M530,114L531,115 M531,114L532,115 M532,114L533,115 M533,114L534,115 M534,114L535,115 M284,115L285,116 M285,115L286,116 M526,115L527,116 M527,115L528,116 M528,115L529,116 M529,115L530,116 M530,115L531,116 M531,115L532,116 M284,116L285,117 M285,116L286,117 M524,116L525,117 M525,116L526,117 M526,116L527,117 M527,116L528,117 M528,116L529,117 M283,117L284,118 M284,117L285,118 M521,117L522,118 M522,117L523,118 M523,117L524,118 M524,117L525,118 M525,117L526,118 M526,117L527,118 M283,118L284,119 M284,118L285,119 M518,118L519,119 M519,118L520,119 M520,118L521,119 M521,118L522,119 M522,118L523,119 M523,118L524,119 M283,119L284,120 M284,119L285,120 M515,119L516,120 M516,119L517,120 M517,119L518,120 M518,119L519,120 M519,119L520,120 M520,119L521,120 M282,120L283,121 M283,120L284,121 M511,120L512,121 M512,120L513,121 M513,120L514,121 M514,120L515,121 M515,120L516,121 M516,120L517,121 M517,120L518,121 M282,121L283,122 M283,121L284,122 M507,121L508,122 M508,121L509,122 M509,121L510,122 M510,121L511,122 M511,121L512,122 M512,121L513,122 M513,121L514,122 M514,121L515,122 M281,122L282,123 M282,122L283,123 M504,122L505,123 M505,122L506,123 M506,122L507,123 M507,122L508,123 M508,122L509,123 M509,122L510,123 M510,122L511,123 M268,123L269,124 M269,123L270,124 M281,123L282,124 M282,123L283,124 M500,123L501,124 M501,123L502,124 M502,123L503,124 M503,123L504,124 M504,123L505,124 M505,123L506,124 M506,123L507,124 M507,123L508,124 M264,124L265,125 M265,124L266,125 M266,124L267,125 M267,124L268,125 M268,124L269,125 M269,124L270,125 M270,124L271,125 M281,124L282,125 M282,124L283,125 M496,124L497,125 M497,124L498,125 M498,124L499,125 M499,124L500,125 M500,124L501,125 M501,124L502,125 M502,124L503,125 M503,124L504,125 M261,125L262,126 M262,125L263,126 M263,125L264,126 M264,125L265,126 M265,125L266,126 M266,125L267,126 M267,125L268,126 M280,125L281,126 M281,125L282,126 M492,125L493,126 M493,125L494,126 M494,125L495,126 M495,125L496,126 M496,125L497,126 M497,125L498,126 M498,125L499,126 M499,125L500,126 M257,126L258,127 M258,126L259,127 M259,126L260,127 M260,126L261,127 M261,126L262,127 M262,126L263,127 M263,126L264,127 M264,126L265,127 M280,126L281,127 M281,126L282,127 M489,126L490,127 M490,126L491,127 M491,126L492,127 M492,126L493,127 M493,126L494,127 M494,126L495,127 M495,126L496,127 M254,127L255,128 M255,127L256,128 M256,127L257,128 M257,127L258,128 M258,127L259,128 M259,127L260,128 M260,127L261,128 M280,127L281,128 M281,127L282,128 M484,127L485,128 M485,127L486,128 M486,127L487,128 M487,127L488,128 M488,127L489,128 M489,127L490,128 M490,127L491,128 M491,127L492,128 M492,127L493,128 M250,128L251,129 M251,128L252,129 M252,128L253,129 M253,128L254,129 M254,128L255,129 M255,128L256,129 M256,128L257,129 M257,128L258,129 M279,128L280,129 M280,128L281,129 M478,128L479,129 M479,128L480,129 M480,128L481,129 M481,128L482,129 M482,128L483,129 M483,128L484,129 M484,128L485,129 M485,128L486,129 M486,128L487,129 M487,128L488,129 M488,128L489,129 M246,129L247,130 M247,129L248,130 M248,129L249,130 M249,129L250,130 M250,129L251,130 M251,129L252,130 M252,129L253,130 M253,129L254,130 M279,129L280,130 M280,129L281,130 M472,129L473,130 M473,129L474,130 M474,129L475,130 M475,129L476,130 M476,129L477,130 M477,129L478,130 M478,129L479,130 M479,129L480,130 M480,129L481,130 M481,129L482,130 M482,129L483,130 M483,129L484,130 M243,130L244,131 M244,130L245,131 M245,130L246,131 M246,130L247,131 M247,130L248,131 M248,130L249,131 M249,130L250,131 M279,130L280,131 M280,130L281,131 M466,130L467,131 M467,130L468,131 M468,130L469,131 M469,130L470,131 M470,130L471,131 M471,130L472,131 M472,130L473,131 M473,130L474,131 M474,130L475,131 M475,130L476,131 M476,130L477,131 M477,130L478,131 M241,131L242,132 M242,131L243,132 M243,131L244,132 M244,131L245,132 M245,131L246,132 M279,131L280,132 M280,131L281,132 M460,131L461,132 M461,131L462,132 M462,131L463,132 M463,131L464,132 M464,131L465,132 M465,131L466,132 M466,131L467,132 M467,131L468,132 M468,131L469,132 M469,131L470,132 M470,131L471,132 M471,131L472,132 M239,132L240,133 M240,132L241,133 M241,132L242,133 M242,132L243,133 M279,132L280,133 M280,132L281,133 M451,132L452,133 M452,132L453,133 M453,132L454,133 M454,132L455,133 M455,132L456,133 M456,132L457,133 M457,132L458,133 M458,132L459,133 M459,132L460,133 M460,132L461,133 M461,132L462,133 M462,132L463,133 M463,132L464,133 M464,132L465,133 M465,132L466,133 M237,133L238,134 M238,133L239,134 M239,133L240,134 M240,133L241,134 M278,133L279,134 M279,133L280,134 M440,133L441,134 M441,133L442,134 M442,133L443,134 M443,133L444,134 M444,133L445,134 M445,133L446,134 M446,133L447,134 M447,133L448,134 M448,133L449,134 M449,133L450,134 M450,133L451,134 M451,133L452,134 M452,133L453,134 M453,133L454,134 M454,133L455,134 M455,133L456,134 M456,133L457,134 M457,133L458,134 M458,133L459,134 M459,133L460,134 M460,133L461,134 M235,134L236,135 M236,134L237,135 M237,134L238,135 M238,134L239,135 M278,134L279,135 M279,134L280,135 M428,134L429,135 M429,134L430,135 M430,134L431,135 M431,134L432,135 M432,134L433,135 M433,134L434,135 M434,134L435,135 M435,134L436,135 M436,134L437,135 M437,134L438,135 M438,134L439,135 M439,134L440,135 M440,134L441,135 M441,134L442,135 M442,134L443,135 M443,134L444,135 M444,134L445,135 M445,134L446,135 M446,134L447,135 M447,134L448,135 M448,134L449,135 M449,134L450,135 M450,134L451,135 M233,135L234,136 M234,135L235,136 M235,135L236,136 M236,135L237,136 M278,135L279,136 M279,135L280,136 M417,135L418,136 M418,135L419,136 M419,135L420,136 M420,135L421,136 M421,135L422,136 M422,135L423,136 M423,135L424,136 M424,135L425,136 M425,135L426,136 M426,135L427,136 M427,135L428,136 M428,135L429,136 M429,135L430,136 M430,135L431,136 M431,135L432,136 M432,135L433,136 M433,135L434,136 M434,135L435,136 M435,135L436,136 M436,135L437,136 M437,135L438,136 M438,135L439,136 M439,135L440,136 M231,136L232,137 M232,136L233,137 M233,136L234,137 M234,136L235,137 M278,136L279,137 M279,136L280,137 M405,136L406,137 M406,136L407,137 M407,136L408,137 M408,136L409,137 M409,136L410,137 M410,136L411,137 M411,136L412,137 M412,136L413,137 M413,136L414,137 M414,136L415,137 M415,136L416,137 M416,136L417,137 M417,136L418,137 M418,136L419,137 M419,136L420,137 M420,136L421,137 M421,136L422,137 M422,136L423,137 M423,136L424,137 M424,136L425,137 M425,136L426,137 M426,136L427,137 M427,136L428,137 M229,137L230,138 M230,137L231,138 M231,137L232,138 M232,137L233,138 M278,137L279,138 M279,137L280,138 M306,137L307,138 M307,137L308,138 M308,137L309,138 M309,137L310,138 M310,137L311,138 M311,137L312,138 M312,137L313,138 M313,137L314,138 M314,137L315,138 M315,137L316,138 M316,137L317,138 M317,137L318,138 M318,137L319,138 M319,137L320,138 M320,137L321,138 M321,137L322,138 M322,137L323,138 M323,137L324,138 M324,137L325,138 M325,137L326,138 M326,137L327,138 M327,137L328,138 M328,137L329,138 M329,137L330,138 M330,137L331,138 M331,137L332,138 M332,137L333,138 M333,137L334,138 M334,137L335,138 M335,137L336,138 M336,137L337,138 M337,137L338,138 M338,137L339,138 M339,137L340,138 M340,137L341,138 M341,137L342,138 M342,137L343,138 M343,137L344,138 M344,137L345,138 M345,137L346,138 M346,137L347,138 M347,137L348,138 M348,137L349,138 M349,137L350,138 M350,137L351,138 M351,137L352,138 M352,137L353,138 M353,137L354,138 M354,137L355,138 M355,137L356,138 M356,137L357,138 M357,137L358,138 M358,137L359,138 M359,137L360,138 M360,137L361,138 M361,137L362,138 M362,137L363,138 M363,137L364,138 M364,137L365,138 M365,137L366,138 M366,137L367,138 M367,137L368,138 M368,137L369,138 M369,137L370,138 M370,137L371,138 M371,137L372,138 M372,137L373,138 M373,137L374,138 M374,137L375,138 M375,137L376,138 M376,137L377,138 M377,137L378,138 M378,137L379,138 M379,137L380,138 M380,137L381,138 M381,137L382,138 M382,137L383,138 M383,137L384,138 M384,137L385,138 M385,137L386,138 M386,137L387,138 M387,137L388,138 M388,137L389,138 M389,137L390,138 M390,137L391,138 M391,137L392,138 M392,137L393,138 M393,137L394,138 M394,137L395,138 M395,137L396,138 M396,137L397,138 M397,137L398,138 M398,137L399,138 M399,137L400,138 M400,137L401,138 M401,137L402,138 M402,137L403,138 M403,137L404,138 M404,137L405,138 M405,137L406,138 M406,137L407,138 M407,137L408,138 M408,137L409,138 M409,137L410,138 M410,137L411,138 M411,137L412,138 M412,137L413,138 M413,137L414,138 M414,137L415,138 M415,137L416,138 M416,137L417,138 M227,138L228,139 M228,138L229,139 M229,138L230,139 M230,138L231,139 M277,138L278,139 M278,138L279,139 M300,138L301,139 M301,138L302,139 M302,138L303,139 M303,138L304,139 M304,138L305,139 M305,138L306,139 M306,138L307,139 M307,138L308,139 M308,138L309,139 M309,138L310,139 M310,138L311,139 M311,138L312,139 M312,138L313,139 M313,138L314,139 M314,138L315,139 M315,138L316,139 M316,138L317,139 M317,138L318,139 M318,138L319,139 M319,138L320,139 M320,138L321,139 M321,138L322,139 M322,138L323,139 M323,138L324,139 M324,138L325,139 M325,138L326,139 M326,138L327,139 M327,138L328,139 M328,138L329,139 M329,138L330,139 M330,138L331,139 M331,138L332,139 M332,138L333,139 M333,138L334,139 M334,138L335,139 M335,138L336,139 M336,138L337,139 M337,138L338,139 M338,138L339,139 M339,138L340,139 M340,138L341,139 M341,138L342,139 M342,138L343,139 M343,138L344,139 M344,138L345,139 M345,138L346,139 M346,138L347,139 M347,138L348,139 M348,138L349,139 M349,138L350,139 M350,138L351,139 M351,138L352,139 M352,138L353,139 M353,138L354,139 M354,138L355,139 M355,138L356,139 M356,138L357,139 M357,138L358,139 M358,138L359,139 M359,138L360,139 M360,138L361,139 M361,138L362,139 M362,138L363,139 M363,138L364,139 M364,138L365,139 M365,138L366,139 M366,138L367,139 M367,138L368,139 M368,138L369,139 M369,138L370,139 M370,138L371,139 M371,138L372,139 M372,138L373,139 M373,138L374,139 M374,138L375,139 M375,138L376,139 M376,138L377,139 M377,138L378,139 M378,138L379,139 M379,138L380,139 M380,138L381,139 M381,138L382,139 M382,138L383,139 M383,138L384,139 M384,138L385,139 M385,138L386,139 M386,138L387,139 M387,138L388,139 M388,138L389,139 M389,138L390,139 M390,138L391,139 M391,138L392,139 M392,138L393,139 M393,138L394,139 M394,138L395,139 M395,138L396,139 M396,138L397,139 M397,138L398,139 M398,138L399,139 M399,138L400,139 M400,138L401,139 M401,138L402,139 M402,138L403,139 M403,138L404,139 M404,138L405,139 M225,139L226,140 M226,139L227,140 M227,139L228,140 M228,139L229,140 M277,139L278,140 M278,139L279,140 M296,139L297,140 M297,139L298,140 M298,139L299,140 M299,139L300,140 M300,139L301,140 M301,139L302,140 M302,139L303,140 M303,139L304,140 M304,139L305,140 M305,139L306,140 M223,140L224,141 M224,140L225,141 M225,140L226,141 M226,140L227,141 M277,140L278,141 M278,140L279,141 M294,140L295,141 M295,140L296,141 M296,140L297,141 M297,140L298,141 M298,140L299,141 M299,140L300,141 M221,141L222,142 M222,141L223,142 M223,141L224,142 M224,141L225,142 M277,141L278,142 M278,141L279,142 M295,141L296,142 M296,141L297,142 M220,142L221,143 M221,142L222,143 M222,142L223,143 M277,142L278,143 M278,142L279,143 M219,143L220,144 M220,143L221,144 M221,143L222,144 M277,143L278,144 M278,143L279,144 M218,144L219,145 M219,144L220,145 M220,144L221,145 M277,144L278,145 M278,144L279,145 M217,145L218,146 M218,145L219,146 M219,145L220,146 M277,145L278,146 M278,145L279,146 M216,146L217,147 M217,146L218,147 M218,146L219,147 M277,146L278,147 M278,146L279,147 M215,147L216,148 M216,147L217,148 M217,147L218,148 M277,147L278,148 M278,147L279,148 M215,148L216,149 M216,148L217,149 M277,148L278,149 M278,148L279,149 M215,149L216,150 M216,149L217,150 M277,149L278,150 M278,149L279,150 M215,150L216,151 M216,150L217,151 M277,150L278,151 M278,150L279,151 M214,151L215,152 M215,151L216,152 M277,151L278,152 M278,151L279,152 M214,152L215,153 M215,152L216,153 M277,152L278,153 M278,152L279,153 M214,153L215,154 M215,153L216,154 M277,153L278,154 M278,153L279,154 M214,154L215,155 M215,154L216,155 M277,154L278,155 M278,154L279,155 M214,155L215,156 M215,155L216,156 M277,155L278,156 M278,155L279,156 M214,156L215,157 M215,156L216,157 M277,156L278,157 M278,156L279,157 M214,157L215,158 M215,157L216,158 M277,157L278,158 M278,157L279,158 M214,158L215,159 M215,158L216,159 M277,158L278,159 M278,158L279,159 M214,159L215,160 M215,159L216,160 M277,159L278,160 M278,159L279,160 M214,160L215,161 M215,160L216,161 M277,160L278,161 M278,160L279,161 M215,161L216,162 M216,161L217,162 M277,161L278,162 M278,161L279,162 M215,162L216,163 M216,162L217,163 M277,162L278,163 M278,162L279,163 M215,163L216,164 M216,163L217,164 M277,163L278,164 M278,163L279,164 M215,164L216,165 M216,164L217,165 M277,164L278,165 M278,164L279,165 M215,165L216,166 M216,165L217,166 M277,165L278,166 M278,165L279,166 M216,166L217,167 M217,166L218,167 M277,166L278,167 M278,166L279,167 M216,167L217,168 M217,167L218,168 M277,167L278,168 M278,167L279,168 M216,168L217,169 M217,168L218,169 M277,168L278,169 M278,168L279,169 M217,169L218,170 M218,169L219,170 M277,169L278,170 M278,169L279,170 M217,170L218,171 M218,170L219,171 M219,170L220,171 M277,170L278,171 M278,170L279,171 M218,171L219,172 M219,171L220,172 M277,171L278,172 M278,171L279,172 M219,172L220,173 M220,172L221,173 M277,172L278,173 M278,172L279,173 M219,173L220,174 M220,173L221,174 M277,173L278,174 M278,173L279,174 M220,174L221,175 M221,174L222,175 M277,174L278,175 M278,174L279,175 M220,175L221,176 M221,175L222,176 M222,175L223,176 M277,175L278,176 M278,175L279,176 M221,176L222,177 M222,176L223,177 M277,176L278,177 M278,176L279,177 M221,177L222,178 M222,177L223,178 M223,177L224,178 M277,177L278,178 M278,177L279,178 M222,178L223,179 M223,178L224,179 M277,178L278,179 M278,178L279,179 M223,179L224,180 M224,179L225,180 M277,179L278,180 M278,179L279,180 M223,180L224,181 M224,180L225,181 M225,180L226,181 M277,180L278,181 M278,180L279,181 M224,181L225,182 M225,181L226,182 M226,181L227,182 M277,181L278,182 M278,181L279,182 M225,182L226,183 M226,182L227,183 M227,182L228,183 M277,182L278,183 M278,182L279,183 M226,183L227,184 M227,183L228,184 M228,183L229,184 M277,183L278,184 M278,183L279,184 M227,184L228,185 M228,184L229,185 M229,184L230,185 M277,184L278,185 M278,184L279,185 M228,185L229,186 M229,185L230,186 M230,185L231,186 M231,185L232,186 M277,185L278,186 M278,185L279,186 M230,186L231,187 M231,186L232,187 M232,186L233,187 M277,186L278,187 M278,186L279,187 M231,187L232,188 M232,187L233,188 M233,187L234,188 M234,187L235,188 M277,187L278,188 M278,187L279,188 M233,188L234,189 M234,188L235,189 M235,188L236,189 M277,188L278,189 M278,188L279,189 M234,189L235,190 M235,189L236,190 M236,189L237,190 M237,189L238,190 M277,189L278,190 M278,189L279,190 M236,190L237,191 M237,190L238,191 M238,190L239,191 M277,190L278,191 M278,190L279,191 M237,191L238,192 M238,191L239,192 M239,191L240,192 M240,191L241,192 M277,191L278,192 M278,191L279,192 M239,192L240,193 M240,192L241,193 M241,192L242,193 M277,192L278,193 M278,192L279,193 M240,193L241,194 M241,193L242,194 M242,193L243,194 M243,193L244,194 M277,193L278,194 M278,193L279,194 M242,194L243,195 M243,194L244,195 M244,194L245,195 M277,194L278,195 M278,194L279,195 M243,195L244,196 M244,195L245,196 M245,195L246,196 M246,195L247,196 M277,195L278,196 M278,195L279,196 M245,196L246,197 M246,196L247,197 M247,196L248,197 M248,196L249,197 M277,196L278,197 M278,196L279,197 M246,197L247,198 M247,197L248,198 M248,197L249,198 M249,197L250,198 M250,197L251,198 M251,197L252,198 M252,197L253,198 M277,197L278,198 M278,197L279,198 M249,198L250,199 M250,198L251,199 M251,198L252,199 M252,198L253,199 M253,198L254,199 M254,198L255,199 M255,198L256,199 M256,198L257,199 M277,198L278,199 M278,198L279,199 M253,199L254,200 M254,199L255,200 M255,199L256,200 M256,199L257,200 M257,199L258,200 M258,199L259,200 M259,199L260,200 M277,199L278,200 M278,199L279,200 M257,200L258,201 M258,200L259,201 M259,200L260,201 M260,200L261,201 M261,200L262,201 M262,200L263,201 M263,200L264,201 M264,200L265,201 M265,200L266,201 M266,200L267,201 M267,200L268,201 M268,200L269,201 M269,200L270,201 M270,200L271,201 M271,200L272,201 M272,200L273,201 M273,200L274,201 M274,200L275,201 M275,200L276,201 M276,200L277,201 M277,200L278,201 M278,200L279,201 M260,201L261,202 M261,201L262,202 M262,201L263,202 M263,201L264,202 M264,201L265,202 M265,201L266,202 M266,201L267,202 M267,201L268,202 M268,201L269,202 M269,201L270,202 M270,201L271,202 M271,201L272,202 M272,201L273,202 M273,201L274,202 M274,201L275,202 M275,201L276,202 M276,201L277,202 M277,201L278,202" fill="none" stroke="black" />
    </svg>