<svg xmlns="http://www.w3.org/2000/svg" width="800" height="250">
        <path d="M359,48L360,49 M360,48L361,49 M361,48L362,49 M362,48L363,49 M363,48L364,49 M364,48L365,49 M365,48L366,49 M366,48L367,49 M367,48L368,49 M368,48L369,49 M369,48L370,49 M370,48L371,49 M356,49L357,50 M357,49L358,50 M358,49L359,50 M359,49L360,50 M360,49L361,50 M361,49L362,50 M362,49L363,50 M363,49L364,50 M364,49L365,50 M365,49L366,50 M366,49L367,50 M367,49L368,50 M368,49L369,50 M369,49L370,50 M370,49L371,50 M354,50L355,51 M355,50L356,51 M356,50L357,51 M357,50L358,51 M358,50L359,51 M370,50L371,51 M371,50L372,51 M352,51L353,52 M353,51L354,52 M354,51L355,52 M355,51L356,52 M356,51L357,52 M370,51L371,52 M371,51L372,52 M350,52L351,53 M351,52L352,53 M352,52L353,53 M353,52L354,53 M354,52L355,53 M370,52L371,53 M371,52L372,53 M348,53L349,54 M349,53L350,54 M350,53L351,54 M351,53L352,54 M352,53L353,54 M370,53L371,54 M371,53L372,54 M346,54L347,55 M347,54L348,55 M348,54L349,55 M349,54L350,55 M350,54L351,55 M370,54L371,55 M371,54L372,55 M344,55L345,56 M345,55L346,56 M346,55L347,56 M347,55L348,56 M348,55L349,56 M370,55L371,56 M371,55L372,56 M342,56L343,57 M343,56L344,57 M344,56L345,57 M345,56L346,57 M370,56L371,57 M371,56L372,57 M340,57L341,58 M341,57L342,58 M342,57L343,58 M343,57L344,58 M370,57L371,58 M371,57L372,58 M338,58L339,59 M339,58L340,59 M340,58L341,59 M341,58L342,59 M369,58L370,59 M370,58L371,59 M371,58L372,59 M337,59L338,60 M338,59L339,60 M339,59L340,60 M368,59L369,60 M369,59L370,60 M370,59L371,60 M336,60L337,61 M337,60L338,61 M338,60L339,61 M368,60L369,61 M369,60L370,61 M335,61L336,62 M336,61L337,62 M337,61L338,62 M367,61L368,62 M368,61L369,62 M334,62L335,63 M335,62L336,63 M336,62L337,63 M366,62L367,63 M367,62L368,63 M368,62L369,63 M333,63L334,64 M334,63L335,64 M335,63L336,64 M365,63L366,64 M366,63L367,64 M367,63L368,64 M332,64L333,65 M333,64L334,65 M364,64L365,65 M365,64L366,65 M366,64L367,65 M330,65L331,66 M331,65L332,66 M332,65L333,66 M363,65L364,66 M364,65L365,66 M365,65L366,66 M329,66L330,67 M330,66L331,67 M331,66L332,67 M363,66L364,67 M364,66L365,67 M328,67L329,68 M329,67L330,68 M330,67L331,68 M362,67L363,68 M363,67L364,68 M327,68L328,69 M328,68L329,69 M329,68L330,69 M361,68L362,69 M362,68L363,69 M363,68L364,69 M326,69L327,70 M327,69L328,70 M328,69L329,70 M360,69L361,70 M361,69L362,70 M362,69L363,70 M325,70L326,71 M326,70L327,71 M327,70L328,71 M359,70L360,71 M360,70L361,71 M361,70L362,71 M324,71L325,72 M325,71L326,72 M326,71L327,72 M358,71L359,72 M359,71L360,72 M360,71L361,72 M323,72L324,73 M324,72L325,73 M325,72L326,73 M358,72L359,73 M359,72L360,73 M322,73L323,74 M323,73L324,74 M324,73L325,74 M357,73L358,74 M358,73L359,74 M322,74L323,75 M323,74L324,75 M356,74L357,75 M357,74L358,75 M321,75L322,76 M322,75L323,76 M355,75L356,76 M356,75L357,76 M357,75L358,76 M320,76L321,77 M321,76L322,77 M322,76L323,77 M354,76L355,77 M355,76L356,77 M356,76L357,77 M319,77L320,78 M320,77L321,78 M321,77L322,78 M353,77L354,78 M354,77L355,78 M355,77L356,78 M318,78L319,79 M319,78L320,79 M320,78L321,79 M352,78L353,79 M353,78L354,79 M354,78L355,79 M317,79L318,80 M318,79L319,80 M319,79L320,80 M352,79L353,80 M353,79L354,80 M317,80L318,81 M318,80L319,81 M351,80L352,81 M352,80L353,81 M316,81L317,82 M317,81L318,82 M350,81L351,82 M351,81L352,82 M352,81L353,82 M315,82L316,83 M316,82L317,83 M317,82L318,83 M349,82L350,83 M350,82L351,83 M351,82L352,83 M314,83L315,84 M315,83L316,84 M316,83L317,84 M348,83L349,84 M349,83L350,84 M350,83L351,84 M313,84L314,85 M314,84L315,85 M315,84L316,85 M347,84L348,85 M348,84L349,85 M349,84L350,85 M313,85L314,86 M314,85L315,86 M345,85L346,86 M346,85L347,86 M347,85L348,86 M312,86L313,87 M313,86L314,87 M344,86L345,87 M345,86L346,87 M346,86L347,87 M311,87L312,88 M312,87L313,88 M343,87L344,88 M344,87L345,88 M345,87L346,88 M310,88L311,89 M311,88L312,89 M312,88L313,89 M342,88L343,89 M343,88L344,89 M344,88L345,89 M520,88L521,89 M521,88L522,89 M309,89L310,90 M310,89L311,90 M311,89L312,90 M340,89L341,90 M341,89L342,90 M342,89L343,90 M343,89L344,90 M519,89L520,90 M520,89L521,90 M521,89L522,90 M309,90L310,91 M310,90L311,91 M339,90L340,91 M340,90L341,91 M341,90L342,91 M519,90L520,91 M520,90L521,91 M521,90L522,91 M308,91L309,92 M309,91L310,92 M310,91L311,92 M338,91L339,92 M339,91L340,92 M340,91L341,92 M518,91L519,92 M519,91L520,92 M520,91L521,92 M308,92L309,93 M309,92L310,93 M337,92L338,93 M338,92L339,93 M339,92L340,93 M516,92L517,93 M517,92L518,93 M518,92L519,93 M519,92L520,93 M307,93L308,94 M308,93L309,94 M336,93L337,94 M337,93L338,94 M338,93L339,94 M515,93L516,94 M516,93L517,94 M517,93L518,94 M518,93L519,94 M519,93L520,94 M306,94L307,95 M307,94L308,95 M308,94L309,95 M334,94L335,95 M335,94L336,95 M336,94L337,95 M337,94L338,95 M513,94L514,95 M514,94L515,95 M515,94L516,95 M516,94L517,95 M517,94L518,95 M518,94L519,95 M306,95L307,96 M307,95L308,96 M333,95L334,96 M334,95L335,96 M335,95L336,96 M512,95L513,96 M513,95L514,96 M514,95L515,96 M515,95L516,96 M517,95L518,96 M518,95L519,96 M305,96L306,97 M306,96L307,97 M332,96L333,97 M333,96L334,97 M334,96L335,97 M511,96L512,97 M512,96L513,97 M513,96L514,97 M516,96L517,97 M517,96L518,97 M304,97L305,98 M305,97L306,98 M306,97L307,98 M331,97L332,98 M332,97L333,98 M333,97L334,98 M509,97L510,98 M510,97L511,98 M511,97L512,98 M512,97L513,98 M516,97L517,98 M517,97L518,98 M304,98L305,99 M305,98L306,99 M329,98L330,99 M330,98L331,99 M331,98L332,99 M332,98L333,99 M508,98L509,99 M509,98L510,99 M510,98L511,99 M515,98L516,99 M516,98L517,99 M303,99L304,100 M304,99L305,100 M328,99L329,100 M329,99L330,100 M330,99L331,100 M506,99L507,100 M507,99L508,100 M508,99L509,100 M509,99L510,100 M515,99L516,100 M516,99L517,100 M303,100L304,101 M304,100L305,101 M327,100L328,101 M328,100L329,101 M329,100L330,101 M505,100L506,101 M506,100L507,101 M507,100L508,101 M508,100L509,101 M514,100L515,101 M515,100L516,101 M302,101L303,102 M303,101L304,102 M326,101L327,102 M327,101L328,102 M328,101L329,102 M504,101L505,102 M505,101L506,102 M506,101L507,102 M514,101L515,102 M515,101L516,102 M301,102L302,103 M302,102L303,103 M303,102L304,103 M324,102L325,103 M325,102L326,103 M326,102L327,103 M327,102L328,103 M502,102L503,103 M503,102L504,103 M504,102L505,103 M505,102L506,103 M513,102L514,103 M514,102L515,103 M301,103L302,104 M302,103L303,104 M323,103L324,104 M324,103L325,104 M325,103L326,104 M501,103L502,104 M502,103L503,104 M503,103L504,104 M512,103L513,104 M513,103L514,104 M514,103L515,104 M300,104L301,105 M301,104L302,105 M322,104L323,105 M323,104L324,105 M324,104L325,105 M499,104L500,105 M500,104L501,105 M501,104L502,105 M502,104L503,105 M512,104L513,105 M513,104L514,105 M299,105L300,106 M300,105L301,106 M301,105L302,106 M320,105L321,106 M321,105L322,106 M322,105L323,106 M323,105L324,106 M497,105L498,106 M498,105L499,106 M499,105L500,106 M500,105L501,106 M511,105L512,106 M512,105L513,106 M513,105L514,106 M299,106L300,107 M300,106L301,107 M318,106L319,107 M319,106L320,107 M320,106L321,107 M321,106L322,107 M495,106L496,107 M496,106L497,107 M497,106L498,107 M498,106L499,107 M511,106L512,107 M512,106L513,107 M298,107L299,108 M299,107L300,108 M316,107L317,108 M317,107L318,108 M318,107L319,108 M319,107L320,108 M320,107L321,108 M493,107L494,108 M494,107L495,108 M495,107L496,108 M496,107L497,108 M510,107L511,108 M511,107L512,108 M297,108L298,109 M298,108L299,109 M299,108L300,109 M315,108L316,109 M316,108L317,109 M317,108L318,109 M318,108L319,109 M491,108L492,109 M492,108L493,109 M493,108L494,109 M494,108L495,109 M510,108L511,109 M511,108L512,109 M297,109L298,110 M298,109L299,110 M313,109L314,110 M314,109L315,110 M315,109L316,110 M316,109L317,110 M489,109L490,110 M490,109L491,110 M491,109L492,110 M492,109L493,110 M509,109L510,110 M510,109L511,110 M296,110L297,111 M297,110L298,111 M298,110L299,111 M311,110L312,111 M312,110L313,111 M313,110L314,111 M314,110L315,111 M487,110L488,111 M488,110L489,111 M489,110L490,111 M490,110L491,111 M508,110L509,111 M509,110L510,111 M510,110L511,111 M296,111L297,112 M297,111L298,112 M309,111L310,112 M310,111L311,112 M311,111L312,112 M312,111L313,112 M485,111L486,112 M486,111L487,112 M487,111L488,112 M488,111L489,112 M508,111L509,112 M509,111L510,112 M295,112L296,113 M296,112L297,113 M308,112L309,113 M309,112L310,113 M310,112L311,113 M311,112L312,113 M483,112L484,113 M484,112L485,113 M485,112L486,113 M486,112L487,113 M507,112L508,113 M508,112L509,113 M509,112L510,113 M294,113L295,114 M295,113L296,114 M296,113L297,114 M306,113L307,114 M307,113L308,114 M308,113L309,114 M309,113L310,114 M482,113L483,114 M483,113L484,114 M484,113L485,114 M507,113L508,114 M508,113L509,114 M294,114L295,115 M295,114L296,115 M304,114L305,115 M305,114L306,115 M306,114L307,115 M307,114L308,115 M481,114L482,115 M482,114L483,115 M483,114L484,115 M506,114L507,115 M507,114L508,115 M293,115L294,116 M294,115L295,116 M302,115L303,116 M303,115L304,116 M304,115L305,116 M305,115L306,116 M479,115L480,116 M480,115L481,116 M481,115L482,116 M482,115L483,116 M506,115L507,116 M507,115L508,116 M292,116L293,117 M293,116L294,117 M294,116L295,117 M301,116L302,117 M302,116L303,117 M303,116L304,117 M304,116L305,117 M478,116L479,117 M479,116L480,117 M480,116L481,117 M505,116L506,117 M506,116L507,117 M178,117L179,118 M179,117L180,118 M180,117L181,118 M181,117L182,118 M182,117L183,118 M183,117L184,118 M184,117L185,118 M185,117L186,118 M186,117L187,118 M187,117L188,118 M188,117L189,118 M189,117L190,118 M292,117L293,118 M293,117L294,118 M299,117L300,118 M300,117L301,118 M301,117L302,118 M302,117L303,118 M476,117L477,118 M477,117L478,118 M478,117L479,118 M479,117L480,118 M505,117L506,118 M506,117L507,118 M172,118L173,119 M173,118L174,119 M174,118L175,119 M175,118L176,119 M176,118L177,119 M177,118L178,119 M178,118L179,119 M179,118L180,119 M180,118L181,119 M181,118L182,119 M182,118L183,119 M183,118L184,119 M184,118L185,119 M185,118L186,119 M186,118L187,119 M187,118L188,119 M188,118L189,119 M189,118L190,119 M190,118L191,119 M191,118L192,119 M192,118L193,119 M193,118L194,119 M194,118L195,119 M195,118L196,119 M196,118L197,119 M197,118L198,119 M198,118L199,119 M199,118L200,119 M291,118L292,119 M292,118L293,119 M297,118L298,119 M298,118L299,119 M299,118L300,119 M300,118L301,119 M475,118L476,119 M476,118L477,119 M477,118L478,119 M504,118L505,119 M505,118L506,119 M506,118L507,119 M167,119L168,120 M168,119L169,120 M169,119L170,120 M170,119L171,120 M171,119L172,120 M172,119L173,120 M173,119L174,120 M174,119L175,120 M175,119L176,120 M176,119L177,120 M177,119L178,120 M190,119L191,120 M191,119L192,120 M192,119L193,120 M193,119L194,120 M194,119L195,120 M195,119L196,120 M196,119L197,120 M197,119L198,120 M198,119L199,120 M199,119L200,120 M200,119L201,120 M201,119L202,120 M202,119L203,120 M203,119L204,120 M204,119L205,120 M290,119L291,120 M291,119L292,120 M292,119L293,120 M295,119L296,120 M296,119L297,120 M297,119L298,120 M298,119L299,120 M473,119L474,120 M474,119L475,120 M475,119L476,120 M476,119L477,120 M504,119L505,120 M505,119L506,120 M161,120L162,121 M162,120L163,121 M163,120L164,121 M164,120L165,121 M165,120L166,121 M166,120L167,121 M167,120L168,121 M168,120L169,121 M169,120L170,121 M170,120L171,121 M171,120L172,121 M200,120L201,121 M201,120L202,121 M202,120L203,121 M203,120L204,121 M204,120L205,121 M205,120L206,121 M206,120L207,121 M207,120L208,121 M208,120L209,121 M209,120L210,121 M210,120L211,121 M290,120L291,121 M291,120L292,121 M294,120L295,121 M295,120L296,121 M296,120L297,121 M297,120L298,121 M472,120L473,121 M473,120L474,121 M474,120L475,121 M504,120L505,121 M505,120L506,121 M158,121L159,122 M159,121L160,122 M160,121L161,122 M161,121L162,122 M162,121L163,122 M163,121L164,122 M164,121L165,122 M165,121L166,122 M166,121L167,122 M205,121L206,122 M206,121L207,122 M207,121L208,122 M208,121L209,122 M209,121L210,122 M210,121L211,122 M211,121L212,122 M212,121L213,122 M213,121L214,122 M289,121L290,122 M290,121L291,122 M291,121L292,122 M292,121L293,122 M293,121L294,122 M294,121L295,122 M295,121L296,122 M470,121L471,122 M471,121L472,122 M472,121L473,122 M473,121L474,122 M503,121L504,122 M504,121L505,122 M157,122L158,123 M158,122L159,123 M159,122L160,123 M160,122L161,123 M211,122L212,123 M212,122L213,123 M213,122L214,123 M214,122L215,123 M215,122L216,123 M289,122L290,123 M290,122L291,123 M291,122L292,123 M292,122L293,123 M293,122L294,123 M469,122L470,123 M470,122L471,123 M471,122L472,123 M503,122L504,123 M504,122L505,123 M156,123L157,124 M157,123L158,124 M158,123L159,124 M214,123L215,124 M215,123L216,124 M216,123L217,124 M217,123L218,124 M288,123L289,124 M289,123L290,124 M290,123L291,124 M291,123L292,124 M467,123L468,124 M468,123L469,124 M469,123L470,124 M470,123L471,124 M502,123L503,124 M503,123L504,124 M155,124L156,125 M156,124L157,125 M157,124L158,125 M216,124L217,125 M217,124L218,125 M218,124L219,125 M219,124L220,125 M220,124L221,125 M287,124L288,125 M288,124L289,125 M289,124L290,125 M290,124L291,125 M465,124L466,125 M466,124L467,125 M467,124L468,125 M468,124L469,125 M501,124L502,125 M502,124L503,125 M503,124L504,125 M155,125L156,126 M156,125L157,126 M218,125L219,126 M219,125L220,126 M220,125L221,126 M221,125L222,126 M222,125L223,126 M285,125L286,126 M286,125L287,126 M287,125L288,126 M288,125L289,126 M463,125L464,126 M464,125L465,126 M465,125L466,126 M466,125L467,126 M501,125L502,126 M502,125L503,126 M154,126L155,127 M155,126L156,127 M156,126L157,127 M220,126L221,127 M221,126L222,127 M222,126L223,127 M223,126L224,127 M224,126L225,127 M284,126L285,127 M285,126L286,127 M286,126L287,127 M287,126L288,127 M461,126L462,127 M462,126L463,127 M463,126L464,127 M464,126L465,127 M500,126L501,127 M501,126L502,127 M502,126L503,127 M154,127L155,128 M155,127L156,128 M222,127L223,128 M223,127L224,128 M224,127L225,128 M225,127L226,128 M226,127L227,128 M282,127L283,128 M283,127L284,128 M284,127L285,128 M285,127L286,128 M286,127L287,128 M287,127L288,128 M459,127L460,128 M460,127L461,128 M461,127L462,128 M462,127L463,128 M500,127L501,128 M501,127L502,128 M154,128L155,129 M155,128L156,129 M224,128L225,129 M225,128L226,129 M226,128L227,129 M227,128L228,129 M228,128L229,129 M281,128L282,129 M282,128L283,129 M283,128L284,129 M285,128L286,129 M286,128L287,129 M457,128L458,129 M458,128L459,129 M459,128L460,129 M460,128L461,129 M499,128L500,129 M500,128L501,129 M153,129L154,130 M154,129L155,130 M155,129L156,130 M226,129L227,130 M227,129L228,130 M228,129L229,130 M229,129L230,130 M230,129L231,130 M279,129L280,130 M280,129L281,130 M281,129L282,130 M282,129L283,130 M284,129L285,130 M285,129L286,130 M286,129L287,130 M455,129L456,130 M456,129L457,130 M457,129L458,130 M458,129L459,130 M459,129L460,130 M499,129L500,130 M500,129L501,130 M153,130L154,131 M154,130L155,131 M228,130L229,131 M229,130L230,131 M230,130L231,131 M231,130L232,131 M232,130L233,131 M277,130L278,131 M278,130L279,131 M279,130L280,131 M280,130L281,131 M284,130L285,131 M285,130L286,131 M453,130L454,131 M454,130L455,131 M455,130L456,131 M456,130L457,131 M457,130L458,131 M498,130L499,131 M499,130L500,131 M153,131L154,132 M154,131L155,132 M230,131L231,132 M231,131L232,132 M232,131L233,132 M233,131L234,132 M234,131L235,132 M276,131L277,132 M277,131L278,132 M278,131L279,132 M279,131L280,132 M283,131L284,132 M284,131L285,132 M451,131L452,132 M452,131L453,132 M453,131L454,132 M454,131L455,132 M455,131L456,132 M497,131L498,132 M498,131L499,132 M499,131L500,132 M153,132L154,133 M154,132L155,133 M232,132L233,133 M233,132L234,133 M234,132L235,133 M235,132L236,133 M236,132L237,133 M274,132L275,133 M275,132L276,133 M276,132L277,133 M277,132L278,133 M282,132L283,133 M283,132L284,133 M284,132L285,133 M449,132L450,133 M450,132L451,133 M451,132L452,133 M452,132L453,133 M453,132L454,133 M496,132L497,133 M497,132L498,133 M498,132L499,133 M153,133L154,134 M154,133L155,134 M234,133L235,134 M235,133L236,134 M236,133L237,134 M237,133L238,134 M238,133L239,134 M272,133L273,134 M273,133L274,134 M274,133L275,134 M275,133L276,134 M282,133L283,134 M283,133L284,134 M448,133L449,134 M449,133L450,134 M450,133L451,134 M451,133L452,134 M495,133L496,134 M496,133L497,134 M497,133L498,134 M153,134L154,135 M154,134L155,135 M237,134L238,135 M238,134L239,135 M239,134L240,135 M240,134L241,135 M270,134L271,135 M271,134L272,135 M272,134L273,135 M273,134L274,135 M281,134L282,135 M282,134L283,135 M446,134L447,135 M447,134L448,135 M448,134L449,135 M449,134L450,135 M495,134L496,135 M496,134L497,135 M153,135L154,136 M154,135L155,136 M239,135L240,136 M240,135L241,136 M241,135L242,136 M242,135L243,136 M269,135L270,136 M270,135L271,136 M271,135L272,136 M272,135L273,136 M280,135L281,136 M281,135L282,136 M282,135L283,136 M444,135L445,136 M445,135L446,136 M446,135L447,136 M447,135L448,136 M494,135L495,136 M495,135L496,136 M153,136L154,137 M154,136L155,137 M241,136L242,137 M242,136L243,137 M243,136L244,137 M244,136L245,137 M267,136L268,137 M268,136L269,137 M269,136L270,137 M270,136L271,137 M280,136L281,137 M281,136L282,137 M442,136L443,137 M443,136L444,137 M444,136L445,137 M445,136L446,137 M493,136L494,137 M494,136L495,137 M153,137L154,138 M154,137L155,138 M155,137L156,138 M243,137L244,138 M244,137L245,138 M245,137L246,138 M246,137L247,138 M265,137L266,138 M266,137L267,138 M267,137L268,138 M268,137L269,138 M279,137L280,138 M280,137L281,138 M440,137L441,138 M441,137L442,138 M442,137L443,138 M443,137L444,138 M492,137L493,138 M493,137L494,138 M494,137L495,138 M154,138L155,139 M155,138L156,139 M245,138L246,139 M246,138L247,139 M247,138L248,139 M248,138L249,139 M263,138L264,139 M264,138L265,139 M265,138L266,139 M266,138L267,139 M278,138L279,139 M279,138L280,139 M280,138L281,139 M438,138L439,139 M439,138L440,139 M440,138L441,139 M441,138L442,139 M491,138L492,139 M492,138L493,139 M493,138L494,139 M154,139L155,140 M155,139L156,140 M247,139L248,140 M248,139L249,140 M249,139L250,140 M250,139L251,140 M261,139L262,140 M262,139L263,140 M263,139L264,140 M264,139L265,140 M278,139L279,140 M279,139L280,140 M436,139L437,140 M437,139L438,140 M438,139L439,140 M439,139L440,140 M490,139L491,140 M491,139L492,140 M492,139L493,140 M154,140L155,141 M155,140L156,141 M249,140L250,141 M250,140L251,141 M251,140L252,141 M252,140L253,141 M260,140L261,141 M261,140L262,141 M262,140L263,141 M263,140L264,141 M277,140L278,141 M278,140L279,141 M434,140L435,141 M435,140L436,141 M436,140L437,141 M437,140L438,141 M490,140L491,141 M491,140L492,141 M154,141L155,142 M155,141L156,142 M251,141L252,142 M252,141L253,142 M253,141L254,142 M254,141L255,142 M258,141L259,142 M259,141L260,142 M260,141L261,142 M261,141L262,142 M276,141L277,142 M277,141L278,142 M278,141L279,142 M432,141L433,142 M433,141L434,142 M434,141L435,142 M435,141L436,142 M489,141L490,142 M490,141L491,142 M491,141L492,142 M154,142L155,143 M155,142L156,143 M156,142L157,143 M253,142L254,143 M254,142L255,143 M255,142L256,143 M256,142L257,143 M257,142L258,143 M258,142L259,143 M259,142L260,143 M275,142L276,143 M276,142L277,143 M277,142L278,143 M430,142L431,143 M431,142L432,143 M432,142L433,143 M433,142L434,143 M434,142L435,143 M489,142L490,143 M490,142L491,143 M155,143L156,144 M156,143L157,144 M254,143L255,144 M255,143L256,144 M256,143L257,144 M257,143L258,144 M275,143L276,144 M276,143L277,144 M428,143L429,144 M429,143L430,144 M430,143L431,144 M431,143L432,144 M432,143L433,144 M488,143L489,144 M489,143L490,144 M155,144L156,145 M156,144L157,145 M253,144L254,145 M254,144L255,145 M255,144L256,145 M256,144L257,145 M257,144L258,145 M258,144L259,145 M259,144L260,145 M274,144L275,145 M275,144L276,145 M426,144L427,145 M427,144L428,145 M428,144L429,145 M429,144L430,145 M430,144L431,145 M487,144L488,145 M488,144L489,145 M489,144L490,145 M155,145L156,146 M156,145L157,146 M251,145L252,146 M252,145L253,146 M253,145L254,146 M254,145L255,146 M258,145L259,146 M259,145L260,146 M260,145L261,146 M261,145L262,146 M273,145L274,146 M274,145L275,146 M275,145L276,146 M424,145L425,146 M425,145L426,146 M426,145L427,146 M427,145L428,146 M428,145L429,146 M487,145L488,146 M488,145L489,146 M156,146L157,147 M157,146L158,147 M250,146L251,147 M251,146L252,147 M252,146L253,147 M260,146L261,147 M261,146L262,147 M262,146L263,147 M263,146L264,147 M273,146L274,147 M274,146L275,147 M423,146L424,147 M424,146L425,147 M425,146L426,147 M426,146L427,147 M486,146L487,147 M487,146L488,147 M156,147L157,148 M157,147L158,148 M158,147L159,148 M248,147L249,148 M249,147L250,148 M250,147L251,148 M251,147L252,148 M261,147L262,148 M262,147L263,148 M263,147L264,148 M264,147L265,148 M272,147L273,148 M273,147L274,148 M421,147L422,148 M422,147L423,148 M423,147L424,148 M424,147L425,148 M485,147L486,148 M486,147L487,148 M487,147L488,148 M157,148L158,149 M158,148L159,149 M246,148L247,149 M247,148L248,149 M248,148L249,149 M249,148L250,149 M263,148L264,149 M264,148L265,149 M265,148L266,149 M266,148L267,149 M271,148L272,149 M272,148L273,149 M273,148L274,149 M419,148L420,149 M420,148L421,149 M421,148L422,149 M422,148L423,149 M484,148L485,149 M485,148L486,149 M486,148L487,149 M157,149L158,150 M158,149L159,150 M159,149L160,150 M245,149L246,150 M246,149L247,150 M247,149L248,150 M248,149L249,150 M265,149L266,150 M266,149L267,150 M267,149L268,150 M268,149L269,150 M270,149L271,150 M271,149L272,150 M272,149L273,150 M417,149L418,150 M418,149L419,150 M419,149L420,150 M420,149L421,150 M483,149L484,150 M484,149L485,150 M485,149L486,150 M158,150L159,151 M159,150L160,151 M243,150L244,151 M244,150L245,151 M245,150L246,151 M246,150L247,151 M267,150L268,151 M268,150L269,151 M269,150L270,151 M270,150L271,151 M271,150L272,151 M416,150L417,151 M417,150L418,151 M418,150L419,151 M482,150L483,151 M483,150L484,151 M484,150L485,151 M158,151L159,152 M159,151L160,152 M160,151L161,152 M241,151L242,152 M242,151L243,152 M243,151L244,152 M244,151L245,152 M268,151L269,152 M269,151L270,152 M270,151L271,152 M271,151L272,152 M414,151L415,152 M415,151L416,152 M416,151L417,152 M417,151L418,152 M481,151L482,152 M482,151L483,152 M483,151L484,152 M159,152L160,153 M160,152L161,153 M240,152L241,153 M241,152L242,153 M242,152L243,153 M243,152L244,153 M268,152L269,153 M269,152L270,153 M270,152L271,153 M271,152L272,153 M272,152L273,153 M413,152L414,153 M414,152L415,153 M415,152L416,153 M481,152L482,153 M482,152L483,153 M159,153L160,154 M160,153L161,154 M161,153L162,154 M238,153L239,154 M239,153L240,154 M240,153L241,154 M241,153L242,154 M267,153L268,154 M268,153L269,154 M269,153L270,154 M271,153L272,154 M272,153L273,154 M273,153L274,154 M274,153L275,154 M411,153L412,154 M412,153L413,154 M413,153L414,154 M414,153L415,154 M480,153L481,154 M481,153L482,154 M160,154L161,155 M161,154L162,155 M236,154L237,155 M237,154L238,155 M238,154L239,155 M239,154L240,155 M267,154L268,155 M268,154L269,155 M273,154L274,155 M274,154L275,155 M275,154L276,155 M410,154L411,155 M411,154L412,155 M412,154L413,155 M479,154L480,155 M480,154L481,155 M161,155L162,156 M162,155L163,156 M235,155L236,156 M236,155L237,156 M237,155L238,156 M238,155L239,156 M266,155L267,156 M267,155L268,156 M274,155L275,156 M275,155L276,156 M276,155L277,156 M408,155L409,156 M409,155L410,156 M410,155L411,156 M411,155L412,156 M478,155L479,156 M479,155L480,156 M480,155L481,156 M161,156L162,157 M162,156L163,157 M233,156L234,157 M234,156L235,157 M235,156L236,157 M236,156L237,157 M265,156L266,157 M266,156L267,157 M267,156L268,157 M275,156L276,157 M276,156L277,157 M277,156L278,157 M407,156L408,157 M408,156L409,157 M409,156L410,157 M477,156L478,157 M478,156L479,157 M479,156L480,157 M162,157L163,158 M163,157L164,158 M231,157L232,158 M232,157L233,158 M233,157L234,158 M234,157L235,158 M265,157L266,158 M266,157L267,158 M276,157L277,158 M277,157L278,158 M278,157L279,158 M405,157L406,158 M406,157L407,158 M407,157L408,158 M408,157L409,158 M476,157L477,158 M477,157L478,158 M478,157L479,158 M162,158L163,159 M163,158L164,159 M230,158L231,159 M231,158L232,159 M232,158L233,159 M233,158L234,159 M264,158L265,159 M265,158L266,159 M277,158L278,159 M278,158L279,159 M279,158L280,159 M280,158L281,159 M404,158L405,159 M405,158L406,159 M406,158L407,159 M475,158L476,159 M476,158L477,159 M477,158L478,159 M163,159L164,160 M164,159L165,160 M228,159L229,160 M229,159L230,160 M230,159L231,160 M231,159L232,160 M263,159L264,160 M264,159L265,160 M265,159L266,160 M279,159L280,160 M280,159L281,160 M281,159L282,160 M402,159L403,160 M403,159L404,160 M404,159L405,160 M405,159L406,160 M474,159L475,160 M475,159L476,160 M476,159L477,160 M163,160L164,161 M164,160L165,161 M226,160L227,161 M227,160L228,161 M228,160L229,161 M229,160L230,161 M262,160L263,161 M263,160L264,161 M264,160L265,161 M280,160L281,161 M281,160L282,161 M282,160L283,161 M401,160L402,161 M402,160L403,161 M403,160L404,161 M474,160L475,161 M475,160L476,161 M164,161L165,162 M165,161L166,162 M225,161L226,162 M226,161L227,162 M227,161L228,162 M261,161L262,162 M262,161L263,162 M263,161L264,162 M281,161L282,162 M282,161L283,162 M283,161L284,162 M399,161L400,162 M400,161L401,162 M401,161L402,162 M402,161L403,162 M473,161L474,162 M474,161L475,162 M164,162L165,163 M165,162L166,163 M166,162L167,163 M223,162L224,163 M224,162L225,163 M225,162L226,163 M226,162L227,163 M261,162L262,163 M262,162L263,163 M282,162L283,163 M283,162L284,163 M284,162L285,163 M285,162L286,163 M397,162L398,163 M398,162L399,163 M399,162L400,163 M400,162L401,163 M472,162L473,163 M473,162L474,163 M474,162L475,163 M165,163L166,164 M166,163L167,164 M221,163L222,164 M222,163L223,164 M223,163L224,164 M224,163L225,164 M260,163L261,164 M261,163L262,164 M284,163L285,164 M285,163L286,164 M286,163L287,164 M396,163L397,164 M397,163L398,164 M398,163L399,164 M399,163L400,164 M472,163L473,164 M473,163L474,164 M165,164L166,165 M166,164L167,165 M167,164L168,165 M219,164L220,165 M220,164L221,165 M221,164L222,165 M222,164L223,165 M259,164L260,165 M260,164L261,165 M285,164L286,165 M286,164L287,165 M287,164L288,165 M394,164L395,165 M395,164L396,165 M396,164L397,165 M397,164L398,165 M471,164L472,165 M472,164L473,165 M166,165L167,166 M167,165L168,166 M218,165L219,166 M219,165L220,166 M220,165L221,166 M221,165L222,166 M258,165L259,166 M259,165L260,166 M260,165L261,166 M286,165L287,166 M287,165L288,166 M288,165L289,166 M393,165L394,166 M394,165L395,166 M395,165L396,166 M396,165L397,166 M471,165L472,166 M472,165L473,166 M166,166L167,167 M167,166L168,167 M168,166L169,167 M216,166L217,167 M217,166L218,167 M218,166L219,167 M219,166L220,167 M257,166L258,167 M258,166L259,167 M259,166L260,167 M287,166L288,167 M288,166L289,167 M289,166L290,167 M290,166L291,167 M391,166L392,167 M392,166L393,167 M393,166L394,167 M394,166L395,167 M470,166L471,167 M471,166L472,167 M472,166L473,167 M167,167L168,168 M168,167L169,168 M215,167L216,168 M216,167L217,168 M217,167L218,168 M256,167L257,168 M257,167L258,168 M258,167L259,168 M289,167L290,168 M290,167L291,168 M291,167L292,168 M390,167L391,168 M391,167L392,168 M392,167L393,168 M470,167L471,168 M471,167L472,168 M167,168L168,169 M168,168L169,169 M169,168L170,169 M213,168L214,169 M214,168L215,169 M215,168L216,169 M216,168L217,169 M255,168L256,169 M256,168L257,169 M257,168L258,169 M290,168L291,169 M291,168L292,169 M292,168L293,169 M388,168L389,169 M389,168L390,169 M390,168L391,169 M391,168L392,169 M470,168L471,169 M471,168L472,169 M168,169L169,170 M169,169L170,170 M212,169L213,170 M213,169L214,170 M214,169L215,170 M255,169L256,170 M256,169L257,170 M291,169L292,170 M292,169L293,170 M293,169L294,170 M386,169L387,170 M387,169L388,170 M388,169L389,170 M389,169L390,170 M469,169L470,170 M470,169L471,170 M471,169L472,170 M169,170L170,171 M170,170L171,171 M210,170L211,171 M211,170L212,171 M212,170L213,171 M213,170L214,171 M254,170L255,171 M255,170L256,171 M292,170L293,171 M293,170L294,171 M294,170L295,171 M295,170L296,171 M384,170L385,171 M385,170L386,171 M386,170L387,171 M387,170L388,171 M469,170L470,171 M470,170L471,171 M169,171L170,172 M170,171L171,172 M208,171L209,172 M209,171L210,172 M210,171L211,172 M211,171L212,172 M253,171L254,172 M254,171L255,172 M294,171L295,172 M295,171L296,172 M296,171L297,172 M382,171L383,172 M383,171L384,172 M384,171L385,172 M385,171L386,172 M386,171L387,172 M469,171L470,172 M470,171L471,172 M170,172L171,173 M171,172L172,173 M207,172L208,173 M208,172L209,173 M209,172L210,173 M210,172L211,173 M252,172L253,173 M253,172L254,173 M254,172L255,173 M295,172L296,173 M296,172L297,173 M297,172L298,173 M381,172L382,173 M382,172L383,173 M383,172L384,173 M384,172L385,173 M469,172L470,173 M470,172L471,173 M170,173L171,174 M171,173L172,174 M172,173L173,174 M205,173L206,174 M206,173L207,174 M207,173L208,174 M208,173L209,174 M251,173L252,174 M252,173L253,174 M253,173L254,174 M296,173L297,174 M297,173L298,174 M298,173L299,174 M379,173L380,174 M380,173L381,174 M381,173L382,174 M382,173L383,174 M469,173L470,174 M470,173L471,174 M171,174L172,175 M172,174L173,175 M203,174L204,175 M204,174L205,175 M205,174L206,175 M206,174L207,175 M250,174L251,175 M251,174L252,175 M252,174L253,175 M297,174L298,175 M298,174L299,175 M299,174L300,175 M300,174L301,175 M377,174L378,175 M378,174L379,175 M379,174L380,175 M380,174L381,175 M469,174L470,175 M470,174L471,175 M171,175L172,176 M172,175L173,176 M173,175L174,176 M202,175L203,176 M203,175L204,176 M204,175L205,176 M205,175L206,176 M249,175L250,176 M250,175L251,176 M251,175L252,176 M299,175L300,176 M300,175L301,176 M301,175L302,176 M375,175L376,176 M376,175L377,176 M377,175L378,176 M378,175L379,176 M469,175L470,176 M470,175L471,176 M172,176L173,177 M173,176L174,177 M200,176L201,177 M201,176L202,177 M202,176L203,177 M203,176L204,177 M249,176L250,177 M250,176L251,177 M300,176L301,177 M301,176L302,177 M302,176L303,177 M373,176L374,177 M374,176L375,177 M375,176L376,177 M376,176L377,177 M468,176L469,177 M469,176L470,177 M173,177L174,178 M174,177L175,178 M201,177L202,178 M248,177L249,178 M249,177L250,178 M301,177L302,178 M302,177L303,178 M303,177L304,178 M371,177L372,178 M372,177L373,178 M373,177L374,178 M374,177L375,178 M375,177L376,178 M468,177L469,178 M469,177L470,178 M173,178L174,179 M174,178L175,179 M175,178L176,179 M247,178L248,179 M248,178L249,179 M249,178L250,179 M302,178L303,179 M303,178L304,179 M304,178L305,179 M305,178L306,179 M370,178L371,179 M371,178L372,179 M372,178L373,179 M373,178L374,179 M468,178L469,179 M469,178L470,179 M174,179L175,180 M175,179L176,180 M246,179L247,180 M247,179L248,180 M248,179L249,180 M304,179L305,180 M305,179L306,180 M306,179L307,180 M368,179L369,180 M369,179L370,180 M370,179L371,180 M371,179L372,180 M468,179L469,180 M469,179L470,180 M174,180L175,181 M175,180L176,181 M176,180L177,181 M245,180L246,181 M246,180L247,181 M247,180L248,181 M305,180L306,181 M306,180L307,181 M307,180L308,181 M366,180L367,181 M367,180L368,181 M368,180L369,181 M369,180L370,181 M468,180L469,181 M469,180L470,181 M175,181L176,182 M176,181L177,182 M244,181L245,182 M245,181L246,182 M246,181L247,182 M306,181L307,182 M307,181L308,182 M308,181L309,182 M364,181L365,182 M365,181L366,182 M366,181L367,182 M367,181L368,182 M468,181L469,182 M469,181L470,182 M176,182L177,183 M177,182L178,183 M243,182L244,183 M244,182L245,183 M245,182L246,183 M307,182L308,183 M308,182L309,183 M309,182L310,183 M310,182L311,183 M362,182L363,183 M363,182L364,183 M364,182L365,183 M365,182L366,183 M468,182L469,183 M469,182L470,183 M176,183L177,184 M177,183L178,184 M178,183L179,184 M242,183L243,184 M243,183L244,184 M244,183L245,184 M309,183L310,184 M310,183L311,184 M311,183L312,184 M360,183L361,184 M361,183L362,184 M362,183L363,184 M363,183L364,184 M468,183L469,184 M469,183L470,184 M177,184L178,185 M178,184L179,185 M241,184L242,185 M242,184L243,185 M243,184L244,185 M310,184L311,185 M311,184L312,185 M312,184L313,185 M358,184L359,185 M359,184L360,185 M360,184L361,185 M361,184L362,185 M468,184L469,185 M469,184L470,185 M178,185L179,186 M179,185L180,186 M239,185L240,186 M240,185L241,186 M241,185L242,186 M311,185L312,186 M312,185L313,186 M313,185L314,186 M356,185L357,186 M357,185L358,186 M358,185L359,186 M359,185L360,186 M468,185L469,186 M469,185L470,186 M178,186L179,187 M179,186L180,187 M180,186L181,187 M238,186L239,187 M239,186L240,187 M240,186L241,187 M312,186L313,187 M313,186L314,187 M314,186L315,187 M315,186L316,187 M354,186L355,187 M355,186L356,187 M356,186L357,187 M357,186L358,187 M358,186L359,187 M468,186L469,187 M469,186L470,187 M179,187L180,188 M180,187L181,188 M181,187L182,188 M237,187L238,188 M238,187L239,188 M239,187L240,188 M314,187L315,188 M315,187L316,188 M316,187L317,188 M352,187L353,188 M353,187L354,188 M354,187L355,188 M355,187L356,188 M356,187L357,188 M469,187L470,188 M470,187L471,188 M180,188L181,189 M181,188L182,189 M236,188L237,189 M237,188L238,189 M238,188L239,189 M315,188L316,189 M316,188L317,189 M317,188L318,189 M350,188L351,189 M351,188L352,189 M352,188L353,189 M353,188L354,189 M354,188L355,189 M469,188L470,189 M470,188L471,189 M181,189L182,190 M182,189L183,190 M235,189L236,190 M236,189L237,190 M237,189L238,190 M316,189L317,190 M317,189L318,190 M318,189L319,190 M319,189L320,190 M348,189L349,190 M349,189L350,190 M350,189L351,190 M351,189L352,190 M352,189L353,190 M469,189L470,190 M470,189L471,190 M181,190L182,191 M182,190L183,191 M183,190L184,191 M234,190L235,191 M235,190L236,191 M236,190L237,191 M318,190L319,191 M319,190L320,191 M320,190L321,191 M346,190L347,191 M347,190L348,191 M348,190L349,191 M349,190L350,191 M350,190L351,191 M470,190L471,191 M471,190L472,191 M182,191L183,192 M183,191L184,192 M184,191L185,192 M233,191L234,192 M234,191L235,192 M235,191L236,192 M319,191L320,192 M320,191L321,192 M321,191L322,192 M345,191L346,192 M346,191L347,192 M347,191L348,192 M348,191L349,192 M470,191L471,192 M471,191L472,192 M183,192L184,193 M184,192L185,193 M185,192L186,193 M232,192L233,193 M233,192L234,193 M234,192L235,193 M320,192L321,193 M321,192L322,193 M322,192L323,193 M323,192L324,193 M343,192L344,193 M344,192L345,193 M345,192L346,193 M346,192L347,193 M470,192L471,193 M471,192L472,193 M184,193L185,194 M185,193L186,194 M231,193L232,194 M232,193L233,194 M233,193L234,194 M322,193L323,194 M323,193L324,194 M324,193L325,194 M340,193L341,194 M341,193L342,194 M342,193L343,194 M343,193L344,194 M344,193L345,194 M471,193L472,194 M472,193L473,194 M185,194L186,195 M186,194L187,195 M230,194L231,195 M231,194L232,195 M232,194L233,195 M323,194L324,195 M324,194L325,195 M325,194L326,195 M326,194L327,195 M336,194L337,195 M337,194L338,195 M338,194L339,195 M339,194L340,195 M340,194L341,195 M341,194L342,195 M342,194L343,195 M471,194L472,195 M472,194L473,195 M185,195L186,196 M186,195L187,196 M187,195L188,196 M229,195L230,196 M230,195L231,196 M231,195L232,196 M325,195L326,196 M326,195L327,196 M327,195L328,196 M328,195L329,196 M329,195L330,196 M330,195L331,196 M331,195L332,196 M332,195L333,196 M333,195L334,196 M334,195L335,196 M335,195L336,196 M336,195L337,196 M337,195L338,196 M338,195L339,196 M339,195L340,196 M471,195L472,196 M472,195L473,196 M186,196L187,197 M187,196L188,197 M188,196L189,197 M228,196L229,197 M229,196L230,197 M326,196L327,197 M327,196L328,197 M328,196L329,197 M329,196L330,197 M330,196L331,197 M331,196L332,197 M332,196L333,197 M333,196L334,197 M334,196L335,197 M335,196L336,197 M471,196L472,197 M472,196L473,197 M473,196L474,197 M187,197L188,198 M188,197L189,198 M189,197L190,198 M226,197L227,198 M227,197L228,198 M228,197L229,198 M472,197L473,198 M473,197L474,198 M188,198L189,199 M189,198L190,199 M190,198L191,199 M225,198L226,199 M226,198L227,199 M227,198L228,199 M472,198L473,199 M473,198L474,199 M189,199L190,200 M190,199L191,200 M191,199L192,200 M224,199L225,200 M225,199L226,200 M226,199L227,200 M473,199L474,200 M474,199L475,200 M190,200L191,201 M191,200L192,201 M223,200L224,201 M224,200L225,201 M225,200L226,201 M473,200L474,201 M474,200L475,201 M191,201L192,202 M192,201L193,202 M222,201L223,202 M223,201L224,202 M224,201L225,202 M473,201L474,202 M474,201L475,202 M475,201L476,202 M192,202L193,203 M193,202L194,203 M220,202L221,203 M221,202L222,203 M222,202L223,203 M223,202L224,203 M474,202L475,203 M475,202L476,203 M193,203L194,204 M194,203L195,204 M218,203L219,204 M219,203L220,204 M220,203L221,204 M221,203L222,204 M222,203L223,204 M474,203L475,204 M475,203L476,204 M193,204L194,205 M194,204L195,205 M195,204L196,205 M215,204L216,205 M216,204L217,205 M217,204L218,205 M218,204L219,205 M219,204L220,205 M220,204L221,205 M475,204L476,205 M476,204L477,205 M194,205L195,206 M195,205L196,206 M196,205L197,206 M213,205L214,206 M214,205L215,206 M215,205L216,206 M216,205L217,206 M217,205L218,206 M475,205L476,206 M476,205L477,206 M195,206L196,207 M196,206L197,207 M197,206L198,207 M198,206L199,207 M209,206L210,207 M210,206L211,207 M211,206L212,207 M212,206L213,207 M213,206L214,207 M214,206L215,207 M215,206L216,207 M475,206L476,207 M476,206L477,207 M196,207L197,208 M197,207L198,208 M198,207L199,208 M199,207L200,208 M200,207L201,208 M201,207L202,208 M202,207L203,208 M203,207L204,208 M204,207L205,208 M205,207L206,208 M206,207L207,208 M207,207L208,208 M208,207L209,208 M209,207L210,208 M210,207L211,208 M211,207L212,208 M212,207L213,208 M475,207L476,208 M476,207L477,208 M199,208L200,209 M200,208L201,209 M201,208L202,209 M202,208L203,209 M203,208L204,209 M204,208L205,209 M205,208L206,209 M206,208L207,209 M207,208L208,209 M208,208L209,209 M475,208L476,209 M476,208L477,209 M475,209L476,210 M476,209L477,210 M475,210L476,211 M476,210L477,211" fill="none" stroke="black" />
    </svg>