<svg xmlns="http://www.w3.org/2000/svg" width="800" height="250">
        <path d="M136,86L137,87 M137,86L138,87 M138,86L139,87 M139,86L140,87 M136,87L137,88 M137,87L138,88 M138,87L139,88 M139,87L140,88 M140,87L141,88 M141,87L142,88 M142,87L143,88 M143,87L144,88 M137,88L138,89 M138,88L139,89 M139,88L140,89 M140,88L141,89 M141,88L142,89 M142,88L143,89 M143,88L144,89 M144,88L145,89 M145,88L146,89 M146,88L147,89 M147,88L148,89 M148,88L149,89 M143,89L144,90 M144,89L145,90 M145,89L146,90 M146,89L147,90 M147,89L148,90 M148,89L149,90 M149,89L150,90 M150,89L151,90 M151,89L152,90 M152,89L153,90 M153,89L154,90 M154,89L155,90 M147,90L148,91 M148,90L149,91 M149,90L150,91 M150,90L151,91 M151,90L152,91 M152,90L153,91 M153,90L154,91 M154,90L155,91 M155,90L156,91 M156,90L157,91 M157,90L158,91 M158,90L159,91 M159,90L160,91 M160,90L161,91 M150,91L151,92 M151,91L152,92 M152,91L153,92 M153,91L154,92 M154,91L155,92 M155,91L156,92 M156,91L157,92 M157,91L158,92 M158,91L159,92 M159,91L160,92 M160,91L161,92 M161,91L162,92 M162,91L163,92 M163,91L164,92 M164,91L165,92 M165,91L166,92 M166,91L167,92 M153,92L154,93 M154,92L155,93 M155,92L156,93 M156,92L157,93 M157,92L158,93 M158,92L159,93 M159,92L160,93 M161,92L162,93 M162,92L163,93 M163,92L164,93 M164,92L165,93 M165,92L166,93 M166,92L167,93 M167,92L168,93 M168,92L169,93 M169,92L170,93 M170,92L171,93 M171,92L172,93 M172,92L173,93 M173,92L174,93 M174,92L175,93 M175,92L176,93 M157,93L158,94 M158,93L159,94 M159,93L160,94 M160,93L161,94 M161,93L162,94 M162,93L163,94 M163,93L164,94 M167,93L168,94 M168,93L169,94 M169,93L170,94 M170,93L171,94 M171,93L172,94 M172,93L173,94 M173,93L174,94 M174,93L175,94 M175,93L176,94 M176,93L177,94 M177,93L178,94 M178,93L179,94 M179,93L180,94 M180,93L181,94 M181,93L182,94 M182,93L183,94 M183,93L184,94 M184,93L185,94 M160,94L161,95 M161,94L162,95 M162,94L163,95 M163,94L164,95 M164,94L165,95 M165,94L166,95 M166,94L167,95 M176,94L177,95 M177,94L178,95 M178,94L179,95 M179,94L180,95 M180,94L181,95 M181,94L182,95 M182,94L183,95 M183,94L184,95 M184,94L185,95 M185,94L186,95 M186,94L187,95 M187,94L188,95 M188,94L189,95 M189,94L190,95 M190,94L191,95 M191,94L192,95 M192,94L193,95 M193,94L194,95 M163,95L164,96 M164,95L165,96 M165,95L166,96 M166,95L167,96 M167,95L168,96 M168,95L169,96 M169,95L170,96 M185,95L186,96 M186,95L187,96 M187,95L188,96 M188,95L189,96 M189,95L190,96 M190,95L191,96 M191,95L192,96 M192,95L193,96 M193,95L194,96 M194,95L195,96 M195,95L196,96 M196,95L197,96 M197,95L198,96 M198,95L199,96 M199,95L200,96 M200,95L201,96 M201,95L202,96 M202,95L203,96 M203,95L204,96 M204,95L205,96 M205,95L206,96 M167,96L168,97 M168,96L169,97 M169,96L170,97 M170,96L171,97 M171,96L172,97 M172,96L173,97 M173,96L174,97 M194,96L195,97 M195,96L196,97 M196,96L197,97 M197,96L198,97 M198,96L199,97 M199,96L200,97 M200,96L201,97 M201,96L202,97 M202,96L203,97 M203,96L204,97 M204,96L205,97 M205,96L206,97 M206,96L207,97 M207,96L208,97 M208,96L209,97 M209,96L210,97 M210,96L211,97 M211,96L212,97 M212,96L213,97 M213,96L214,97 M214,96L215,97 M215,96L216,97 M216,96L217,97 M217,96L218,97 M170,97L171,98 M171,97L172,98 M172,97L173,98 M173,97L174,98 M174,97L175,98 M175,97L176,98 M176,97L177,98 M206,97L207,98 M207,97L208,98 M208,97L209,98 M209,97L210,98 M210,97L211,98 M211,97L212,98 M212,97L213,98 M213,97L214,98 M214,97L215,98 M215,97L216,98 M216,97L217,98 M217,97L218,98 M218,97L219,98 M219,97L220,98 M220,97L221,98 M221,97L222,98 M222,97L223,98 M223,97L224,98 M224,97L225,98 M225,97L226,98 M226,97L227,98 M227,97L228,98 M228,97L229,98 M229,97L230,98 M173,98L174,99 M174,98L175,99 M175,98L176,99 M176,98L177,99 M177,98L178,99 M178,98L179,99 M179,98L180,99 M218,98L219,99 M219,98L220,99 M220,98L221,99 M221,98L222,99 M222,98L223,99 M223,98L224,99 M224,98L225,99 M225,98L226,99 M226,98L227,99 M227,98L228,99 M228,98L229,99 M229,98L230,99 M230,98L231,99 M231,98L232,99 M232,98L233,99 M233,98L234,99 M234,98L235,99 M235,98L236,99 M236,98L237,99 M237,98L238,99 M238,98L239,99 M177,99L178,100 M178,99L179,100 M179,99L180,100 M180,99L181,100 M181,99L182,100 M182,99L183,100 M183,99L184,100 M230,99L231,100 M231,99L232,100 M232,99L233,100 M233,99L234,100 M234,99L235,100 M235,99L236,100 M236,99L237,100 M237,99L238,100 M238,99L239,100 M239,99L240,100 M240,99L241,100 M241,99L242,100 M242,99L243,100 M243,99L244,100 M244,99L245,100 M245,99L246,100 M246,99L247,100 M247,99L248,100 M180,100L181,101 M181,100L182,101 M182,100L183,101 M183,100L184,101 M184,100L185,101 M185,100L186,101 M186,100L187,101 M239,100L240,101 M240,100L241,101 M241,100L242,101 M242,100L243,101 M243,100L244,101 M244,100L245,101 M245,100L246,101 M246,100L247,101 M247,100L248,101 M248,100L249,101 M249,100L250,101 M250,100L251,101 M251,100L252,101 M252,100L253,101 M253,100L254,101 M254,100L255,101 M255,100L256,101 M183,101L184,102 M184,101L185,102 M185,101L186,102 M186,101L187,102 M187,101L188,102 M188,101L189,102 M189,101L190,102 M248,101L249,102 M249,101L250,102 M250,101L251,102 M251,101L252,102 M252,101L253,102 M253,101L254,102 M254,101L255,102 M255,101L256,102 M256,101L257,102 M257,101L258,102 M258,101L259,102 M259,101L260,102 M260,101L261,102 M261,101L262,102 M262,101L263,102 M263,101L264,102 M264,101L265,102 M187,102L188,103 M188,102L189,103 M189,102L190,103 M190,102L191,103 M191,102L192,103 M192,102L193,103 M256,102L257,103 M257,102L258,103 M258,102L259,103 M259,102L260,103 M260,102L261,103 M261,102L262,103 M262,102L263,103 M263,102L264,103 M264,102L265,103 M265,102L266,103 M266,102L267,103 M267,102L268,103 M268,102L269,103 M269,102L270,103 M270,102L271,103 M271,102L272,103 M272,102L273,103 M273,102L274,103 M274,102L275,103 M275,102L276,103 M276,102L277,103 M190,103L191,104 M191,103L192,104 M192,103L193,104 M193,103L194,104 M194,103L195,104 M195,103L196,104 M196,103L197,104 M265,103L266,104 M266,103L267,104 M267,103L268,104 M268,103L269,104 M269,103L270,104 M270,103L271,104 M271,103L272,104 M272,103L273,104 M273,103L274,104 M274,103L275,104 M275,103L276,104 M276,103L277,104 M277,103L278,104 M278,103L279,104 M279,103L280,104 M280,103L281,104 M281,103L282,104 M282,103L283,104 M283,103L284,104 M284,103L285,104 M285,103L286,104 M286,103L287,104 M287,103L288,104 M288,103L289,104 M289,103L290,104 M193,104L194,105 M194,104L195,105 M195,104L196,105 M196,104L197,105 M197,104L198,105 M198,104L199,105 M199,104L200,105 M277,104L278,105 M278,104L279,105 M279,104L280,105 M280,104L281,105 M281,104L282,105 M282,104L283,105 M283,104L284,105 M284,104L285,105 M285,104L286,105 M286,104L287,105 M287,104L288,105 M288,104L289,105 M289,104L290,105 M290,104L291,105 M291,104L292,105 M292,104L293,105 M293,104L294,105 M294,104L295,105 M295,104L296,105 M296,104L297,105 M196,105L197,106 M197,105L198,106 M198,105L199,106 M199,105L200,106 M200,105L201,106 M201,105L202,106 M202,105L203,106 M290,105L291,106 M291,105L292,106 M292,105L293,106 M293,105L294,106 M294,105L295,106 M295,105L296,106 M296,105L297,106 M297,105L298,106 M298,105L299,106 M299,105L300,106 M300,105L301,106 M301,105L302,106 M302,105L303,106 M200,106L201,107 M201,106L202,107 M202,106L203,107 M203,106L204,107 M204,106L205,107 M205,106L206,107 M206,106L207,107 M297,106L298,107 M298,106L299,107 M299,106L300,107 M300,106L301,107 M301,106L302,107 M302,106L303,107 M303,106L304,107 M304,106L305,107 M305,106L306,107 M306,106L307,107 M307,106L308,107 M203,107L204,108 M204,107L205,108 M205,107L206,108 M206,107L207,108 M207,107L208,108 M208,107L209,108 M209,107L210,108 M302,107L303,108 M303,107L304,108 M304,107L305,108 M305,107L306,108 M306,107L307,108 M307,107L308,108 M308,107L309,108 M309,107L310,108 M310,107L311,108 M311,107L312,108 M312,107L313,108 M313,107L314,108 M314,107L315,108 M315,107L316,108 M316,107L317,108 M317,107L318,108 M206,108L207,109 M207,108L208,109 M208,108L209,109 M209,108L210,109 M210,108L211,109 M211,108L212,109 M212,108L213,109 M308,108L309,109 M309,108L310,109 M310,108L311,109 M311,108L312,109 M312,108L313,109 M313,108L314,109 M314,108L315,109 M315,108L316,109 M316,108L317,109 M317,108L318,109 M318,108L319,109 M319,108L320,109 M320,108L321,109 M210,109L211,110 M211,109L212,110 M212,109L213,110 M213,109L214,110 M214,109L215,110 M215,109L216,110 M216,109L217,110 M318,109L319,110 M319,109L320,110 M320,109L321,110 M213,110L214,111 M214,110L215,111 M215,110L216,111 M216,110L217,111 M217,110L218,111 M218,110L219,111 M219,110L220,111 M216,111L217,112 M217,111L218,112 M218,111L219,112 M219,111L220,112 M220,111L221,112 M221,111L222,112 M222,111L223,112 M220,112L221,113 M221,112L222,113 M222,112L223,113 M223,112L224,113 M224,112L225,113 M225,112L226,113 M226,112L227,113 M223,113L224,114 M224,113L225,114 M225,113L226,114 M226,113L227,114 M227,113L228,114 M228,113L229,114 M229,113L230,114 M226,114L227,115 M227,114L228,115 M228,114L229,115 M229,114L230,115 M230,114L231,115 M231,114L232,115 M232,114L233,115 M233,114L234,115 M230,115L231,116 M231,115L232,116 M232,115L233,116 M233,115L234,116 M234,115L235,116 M235,115L236,116 M236,115L237,116 M237,115L238,116 M238,115L239,116 M234,116L235,117 M235,116L236,117 M236,116L237,117 M237,116L238,117 M238,116L239,117 M239,116L240,117 M240,116L241,117 M241,116L242,117 M242,116L243,117 M239,117L240,118 M240,117L241,118 M241,117L242,118 M242,117L243,118 M243,117L244,118 M244,117L245,118 M245,117L246,118 M246,117L247,118 M247,117L248,118 M243,118L244,119 M244,118L245,119 M245,118L246,119 M246,118L247,119 M247,118L248,119 M248,118L249,119 M249,118L250,119 M250,118L251,119 M251,118L252,119 M248,119L249,120 M249,119L250,120 M250,119L251,120 M251,119L252,120 M252,119L253,120 M253,119L254,120 M254,119L255,120 M255,119L256,120 M256,119L257,120 M252,120L253,121 M253,120L254,121 M254,120L255,121 M255,120L256,121 M256,120L257,121 M257,120L258,121 M258,120L259,121 M259,120L260,121 M260,120L261,121 M261,120L262,121 M257,121L258,122 M258,121L259,122 M259,121L260,122 M260,121L261,122 M261,121L262,122 M262,121L263,122 M263,121L264,122 M264,121L265,122 M265,121L266,122 M261,122L262,123 M262,122L263,123 M263,122L264,123 M264,122L265,123 M265,122L266,123 M266,122L267,123 M267,122L268,123 M268,122L269,123 M269,122L270,123 M270,122L271,123 M266,123L267,124 M267,123L268,124 M268,123L269,124 M269,123L270,124 M270,123L271,124 M271,123L272,124 M272,123L273,124 M273,123L274,124 M274,123L275,124 M271,124L272,125 M272,124L273,125 M273,124L274,125 M274,124L275,125 M275,124L276,125 M276,124L277,125 M277,124L278,125 M278,124L279,125 M279,124L280,125 M275,125L276,126 M276,125L277,126 M277,125L278,126 M278,125L279,126 M279,125L280,126 M280,125L281,126 M281,125L282,126 M282,125L283,126 M283,125L284,126 M284,125L285,126 M280,126L281,127 M281,126L282,127 M282,126L283,127 M283,126L284,127 M284,126L285,127 M285,126L286,127 M286,126L287,127 M287,126L288,127 M288,126L289,127 M284,127L285,128 M285,127L286,128 M286,127L287,128 M287,127L288,128 M288,127L289,128 M289,127L290,128 M290,127L291,128 M291,127L292,128 M292,127L293,128 M293,127L294,128 M289,128L290,129 M290,128L291,129 M291,128L292,129 M292,128L293,129 M293,128L294,129 M294,128L295,129 M295,128L296,129 M296,128L297,129 M297,128L298,129 M294,129L295,130 M295,129L296,130 M296,129L297,130 M297,129L298,130 M298,129L299,130 M299,129L300,130 M300,129L301,130 M301,129L302,130 M302,129L303,130 M298,130L299,131 M299,130L300,131 M300,130L301,131 M301,130L302,131 M302,130L303,131 M303,130L304,131 M304,130L305,131 M305,130L306,131 M306,130L307,131 M307,130L308,131 M303,131L304,132 M304,131L305,132 M305,131L306,132 M306,131L307,132 M307,131L308,132 M308,131L309,132 M309,131L310,132 M310,131L311,132 M311,131L312,132 M307,132L308,133 M308,132L309,133 M309,132L310,133 M310,132L311,133 M311,132L312,133 M312,132L313,133 M313,132L314,133 M314,132L315,133 M315,132L316,133 M316,132L317,133 M312,133L313,134 M313,133L314,134 M314,133L315,134 M315,133L316,134 M316,133L317,134 M317,133L318,134 M318,133L319,134 M319,133L320,134 M320,133L321,134 M317,134L318,135 M318,134L319,135 M319,134L320,135 M320,134L321,135 M321,134L322,135 M322,134L323,135 M323,134L324,135 M324,134L325,135 M325,134L326,135 M321,135L322,136 M322,135L323,136 M323,135L324,136 M324,135L325,136 M325,135L326,136 M326,135L327,136 M327,135L328,136 M328,135L329,136 M329,135L330,136 M330,135L331,136 M326,136L327,137 M327,136L328,137 M328,136L329,137 M329,136L330,137 M330,136L331,137 M331,136L332,137 M332,136L333,137 M333,136L334,137 M334,136L335,137 M330,137L331,138 M331,137L332,138 M332,137L333,138 M333,137L334,138 M334,137L335,138 M335,137L336,138 M336,137L337,138 M337,137L338,138 M338,137L339,138 M339,137L340,138 M335,138L336,139 M336,138L337,139 M337,138L338,139 M338,138L339,139 M339,138L340,139 M340,138L341,139 M341,138L342,139 M342,138L343,139 M343,138L344,139 M340,139L341,140 M341,139L342,140 M342,139L343,140 M343,139L344,140 M344,139L345,140 M345,139L346,140 M346,139L347,140 M347,139L348,140 M348,139L349,140 M344,140L345,141 M345,140L346,141 M346,140L347,141 M347,140L348,141 M348,140L349,141 M349,140L350,141 M350,140L351,141 M351,140L352,141 M352,140L353,141 M349,141L350,142 M350,141L351,142 M351,141L352,142 M352,141L353,142 M353,141L354,142 M354,141L355,142 M355,141L356,142 M356,141L357,142 M357,141L358,142 M353,142L354,143 M354,142L355,143 M355,142L356,143 M356,142L357,143 M357,142L358,143 M358,142L359,143 M359,142L360,143 M360,142L361,143 M361,142L362,143 M362,142L363,143 M358,143L359,144 M359,143L360,144 M360,143L361,144 M361,143L362,144 M362,143L363,144 M363,143L364,144 M364,143L365,144 M365,143L366,144 M366,143L367,144 M362,144L363,145 M363,144L364,145 M364,144L365,145 M365,144L366,145 M366,144L367,145 M367,144L368,145 M368,144L369,145 M369,144L370,145 M370,144L371,145 M371,144L372,145 M367,145L368,146 M368,145L369,146 M369,145L370,146 M370,145L371,146 M371,145L372,146 M372,145L373,146 M373,145L374,146 M374,145L375,146 M375,145L376,146 M372,146L373,147 M373,146L374,147 M374,146L375,147 M375,146L376,147 M376,146L377,147 M377,146L378,147 M378,146L379,147 M379,146L380,147 M380,146L381,147 M376,147L377,148 M377,147L378,148 M378,147L379,148 M379,147L380,148 M380,147L381,148 M381,147L382,148 M382,147L383,148 M383,147L384,148 M384,147L385,148 M385,147L386,148 M381,148L382,149 M382,148L383,149 M383,148L384,149 M384,148L385,149 M385,148L386,149 M386,148L387,149 M387,148L388,149 M388,148L389,149 M389,148L390,149 M385,149L386,150 M386,149L387,150 M387,149L388,150 M388,149L389,150 M389,149L390,150 M390,149L391,150 M391,149L392,150 M392,149L393,150 M393,149L394,150 M394,149L395,150 M390,150L391,151 M391,150L392,151 M392,150L393,151 M393,150L394,151 M394,150L395,151 M395,150L396,151 M396,150L397,151 M397,150L398,151 M398,150L399,151 M395,151L396,152 M396,151L397,152 M397,151L398,152 M398,151L399,152 M399,151L400,152 M400,151L401,152 M401,151L402,152 M402,151L403,152 M403,151L404,152 M399,152L400,153 M400,152L401,153 M401,152L402,153 M402,152L403,153 M403,152L404,153 M404,152L405,153 M405,152L406,153 M406,152L407,153 M407,152L408,153 M408,152L409,153 M404,153L405,154 M405,153L406,154 M406,153L407,154 M407,153L408,154 M408,153L409,154 M409,153L410,154 M410,153L411,154 M411,153L412,154 M412,153L413,154 M408,154L409,155 M409,154L410,155 M410,154L411,155 M411,154L412,155 M412,154L413,155 M413,154L414,155 M414,154L415,155 M415,154L416,155 M416,154L417,155 M417,154L418,155 M413,155L414,156 M414,155L415,156 M415,155L416,156 M416,155L417,156 M417,155L418,156 M418,155L419,156 M419,155L420,156 M420,155L421,156 M421,155L422,156 M418,156L419,157 M419,156L420,157 M420,156L421,157 M421,156L422,157 M422,156L423,157 M423,156L424,157 M424,156L425,157 M425,156L426,157 M426,156L427,157 M422,157L423,158 M423,157L424,158 M424,157L425,158 M425,157L426,158 M426,157L427,158 M427,157L428,158 M428,157L429,158 M429,157L430,158 M430,157L431,158 M431,157L432,158 M427,158L428,159 M428,158L429,159 M429,158L430,159 M430,158L431,159 M431,158L432,159 M432,158L433,159 M433,158L434,159 M434,158L435,159 M435,158L436,159 M431,159L432,160 M432,159L433,160 M433,159L434,160 M434,159L435,160 M435,159L436,160 M436,159L437,160 M437,159L438,160 M438,159L439,160 M439,159L440,160 M440,159L441,160 M436,160L437,161 M437,160L438,161 M438,160L439,161 M439,160L440,161 M440,160L441,161 M441,160L442,161 M442,160L443,161 M443,160L444,161 M444,160L445,161 M441,161L442,162 M442,161L443,162 M443,161L444,162 M444,161L445,162 M445,161L446,162 M446,161L447,162 M447,161L448,162 M448,161L449,162 M449,161L450,162 M445,162L446,163 M446,162L447,163 M447,162L448,163 M448,162L449,163 M449,162L450,163 M450,162L451,163 M451,162L452,163 M452,162L453,163 M453,162L454,163 M454,162L455,163 M450,163L451,164 M451,163L452,164 M452,163L453,164 M453,163L454,164 M454,163L455,164 M455,163L456,164 M456,163L457,164 M457,163L458,164 M458,163L459,164 M454,164L455,165 M455,164L456,165 M456,164L457,165 M457,164L458,165 M458,164L459,165 M459,164L460,165 M460,164L461,165 M461,164L462,165 M462,164L463,165 M463,164L464,165 M459,165L460,166 M460,165L461,166 M461,165L462,166 M462,165L463,166 M463,165L464,166 M464,165L465,166 M465,165L466,166 M466,165L467,166 M467,165L468,166 M463,166L464,167 M464,166L465,167 M465,166L466,167 M466,166L467,167 M467,166L468,167 M468,166L469,167 M469,166L470,167 M470,166L471,167 M471,166L472,167 M472,166L473,167 M468,167L469,168 M469,167L470,168 M470,167L471,168 M471,167L472,168 M472,167L473,168 M473,167L474,168 M474,167L475,168 M475,167L476,168 M476,167L477,168 M472,168L473,169 M473,168L474,169 M474,168L475,169 M475,168L476,169 M476,168L477,169 M477,168L478,169 M478,168L479,169 M479,168L480,169 M480,168L481,169 M477,169L478,170 M478,169L479,170 M479,169L480,170 M480,169L481,170 M481,169L482,170 M482,169L483,170 M483,169L484,170 M484,169L485,170 M485,169L486,170 M481,170L482,171 M482,170L483,171 M483,170L484,171 M484,170L485,171 M485,170L486,171 M486,170L487,171 M487,170L488,171 M488,170L489,171 M489,170L490,171 M486,171L487,172 M487,171L488,172 M488,171L489,172 M489,171L490,172 M490,171L491,172 M491,171L492,172 M492,171L493,172 M493,171L494,172 M494,171L495,172 M490,172L491,173 M491,172L492,173 M492,172L493,173 M493,172L494,173 M494,172L495,173 M495,172L496,173 M496,172L497,173 M497,172L498,173 M498,172L499,173 M495,173L496,174 M496,173L497,174 M497,173L498,174 M498,173L499,174 M499,173L500,174 M500,173L501,174 M501,173L502,174 M502,173L503,174 M503,173L504,174 M499,174L500,175 M500,174L501,175 M501,174L502,175 M502,174L503,175 M503,174L504,175 M504,174L505,175 M505,174L506,175 M506,174L507,175 M507,174L508,175 M504,175L505,176 M505,175L506,176 M506,175L507,176 M507,175L508,176 M508,175L509,176 M509,175L510,176 M510,175L511,176 M511,175L512,176 M512,175L513,176 M508,176L509,177 M509,176L510,177 M510,176L511,177 M511,176L512,177 M512,176L513,177 M513,176L514,177 M514,176L515,177 M515,176L516,177 M516,176L517,177 M513,177L514,178 M514,177L515,178 M515,177L516,178 M516,177L517,178 M517,177L518,178 M518,177L519,178 M519,177L520,178 M520,177L521,178 M521,177L522,178 M517,178L518,179 M518,178L519,179 M519,178L520,179 M520,178L521,179 M521,178L522,179 M522,178L523,179 M523,178L524,179 M524,178L525,179 M525,178L526,179 M522,179L523,180 M523,179L524,180 M524,179L525,180 M525,179L526,180 M526,179L527,180 M527,179L528,180 M528,179L529,180 M529,179L530,180 M530,179L531,180 M526,180L527,181 M527,180L528,181 M528,180L529,181 M529,180L530,181 M530,180L531,181 M531,180L532,181 M532,180L533,181 M533,180L534,181 M534,180L535,181 M531,181L532,182 M532,181L533,182 M533,181L534,182 M534,181L535,182 M535,181L536,182 M536,181L537,182 M537,181L538,182 M538,181L539,182 M539,181L540,182 M535,182L536,183 M536,182L537,183 M537,182L538,183 M538,182L539,183 M539,182L540,183 M540,182L541,183 M541,182L542,183 M542,182L543,183 M543,182L544,183 M540,183L541,184 M541,183L542,184 M542,183L543,184 M543,183L544,184 M544,183L545,184 M545,183L546,184 M546,183L547,184 M547,183L548,184 M548,183L549,184 M544,184L545,185 M545,184L546,185 M546,184L547,185 M547,184L548,185 M548,184L549,185 M549,184L550,185 M550,184L551,185 M551,184L552,185 M552,184L553,185 M549,185L550,186 M550,185L551,186 M551,185L552,186 M552,185L553,186 M553,185L554,186 M554,185L555,186 M555,185L556,186 M556,185L557,186 M557,185L558,186 M553,186L554,187 M554,186L555,187 M555,186L556,187 M556,186L557,187 M557,186L558,187 M558,186L559,187 M559,186L560,187 M560,186L561,187 M561,186L562,187 M558,187L559,188 M559,187L560,188 M560,187L561,188 M561,187L562,188 M562,187L563,188 M563,187L564,188 M564,187L565,188 M565,187L566,188 M566,187L567,188 M562,188L563,189 M563,188L564,189 M564,188L565,189 M565,188L566,189 M566,188L567,189 M567,188L568,189 M568,188L569,189 M569,188L570,189 M570,188L571,189 M567,189L568,190 M568,189L569,190 M569,189L570,190 M570,189L571,190 M571,189L572,190 M572,189L573,190 M573,189L574,190 M574,189L575,190 M575,189L576,190 M571,190L572,191 M572,190L573,191 M573,190L574,191 M574,190L575,191 M575,190L576,191 M576,190L577,191 M577,190L578,191 M578,190L579,191 M579,190L580,191 M576,191L577,192 M577,191L578,192 M578,191L579,192 M579,191L580,192 M580,191L581,192 M581,191L582,192 M582,191L583,192 M583,191L584,192 M584,191L585,192 M580,192L581,193 M581,192L582,193 M582,192L583,193 M583,192L584,193 M584,192L585,193 M585,192L586,193 M586,192L587,193 M587,192L588,193 M588,192L589,193 M585,193L586,194 M586,193L587,194 M587,193L588,194 M588,193L589,194 M589,193L590,194 M590,193L591,194 M591,193L592,194 M592,193L593,194 M593,193L594,194 M589,194L590,195 M590,194L591,195 M591,194L592,195 M592,194L593,195 M593,194L594,195 M594,194L595,195 M595,194L596,195 M596,194L597,195 M597,194L598,195 M594,195L595,196 M595,195L596,196 M596,195L597,196 M597,195L598,196 M598,195L599,196 M599,195L600,196 M600,195L601,196 M601,195L602,196 M602,195L603,196 M598,196L599,197 M599,196L600,197 M600,196L601,197 M601,196L602,197 M602,196L603,197 M603,196L604,197 M604,196L605,197 M605,196L606,197 M606,196L607,197 M603,197L604,198 M604,197L605,198 M605,197L606,198 M606,197L607,198 M607,197L608,198 M608,197L609,198 M609,197L610,198 M610,197L611,198 M611,197L612,198 M607,198L608,199 M608,198L609,199 M609,198L610,199 M610,198L611,199 M611,198L612,199 M612,198L613,199 M613,198L614,199 M614,198L615,199 M615,198L616,199 M612,199L613,200 M613,199L614,200 M614,199L615,200 M615,199L616,200 M616,199L617,200 M617,199L618,200 M618,199L619,200 M619,199L620,200 M620,199L621,200 M616,200L617,201 M617,200L618,201 M618,200L619,201 M619,200L620,201 M620,200L621,201 M621,200L622,201 M622,200L623,201 M623,200L624,201 M624,200L625,201 M621,201L622,202 M622,201L623,202 M623,201L624,202 M624,201L625,202 M625,201L626,202 M626,201L627,202 M627,201L628,202 M628,201L629,202 M629,201L630,202 M625,202L626,203 M626,202L627,203 M627,202L628,203 M628,202L629,203 M629,202L630,203 M630,202L631,203 M631,202L632,203 M632,202L633,203 M633,202L634,203 M630,203L631,204 M631,203L632,204 M632,203L633,204 M633,203L634,204 M634,203L635,204 M635,203L636,204 M636,203L637,204 M637,203L638,204 M638,203L639,204 M634,204L635,205 M635,204L636,205 M636,204L637,205 M637,204L638,205 M638,204L639,205 M639,204L640,205 M640,204L641,205 M641,204L642,205 M642,204L643,205 M639,205L640,206 M640,205L641,206 M641,205L642,206 M642,205L643,206 M643,205L644,206 M644,205L645,206 M645,205L646,206 M646,205L647,206 M647,205L648,206 M643,206L644,207 M644,206L645,207 M645,206L646,207 M646,206L647,207 M647,206L648,207 M648,206L649,207 M649,206L650,207 M650,206L651,207 M651,206L652,207 M647,207L648,208 M648,207L649,208 M649,207L650,208 M650,207L651,208 M651,207L652,208 M652,207L653,208 M653,207L654,208 M654,207L655,208 M655,207L656,208 M656,207L657,208 M652,208L653,209 M653,208L654,209 M654,208L655,209 M655,208L656,209 M656,208L657,209 M657,208L658,209 M658,208L659,209 M659,208L660,209 M660,208L661,209 M656,209L657,210 M657,209L658,210 M658,209L659,210 M659,209L660,210 M660,209L661,210 M661,209L662,210 M662,209L663,210 M663,209L664,210 M664,209L665,210 M665,209L666,210 M661,210L662,211 M662,210L663,211 M663,210L664,211 M664,210L665,211 M665,210L666,211 M666,210L667,211 M667,210L668,211 M668,210L669,211 M669,210L670,211 M665,211L666,212 M666,211L667,212 M667,211L668,212 M668,211L669,212 M669,211L670,212 M670,211L671,212 M671,211L672,212 M672,211L673,212 M673,211L674,212 M674,211L675,212 M670,212L671,213 M671,212L672,213 M672,212L673,213 M673,212L674,213 M674,212L675,213 M675,212L676,213 M676,212L677,213 M677,212L678,213 M678,212L679,213 M674,213L675,214 M675,213L676,214 M676,213L677,214 M677,213L678,214 M678,213L679,214 M679,213L680,214 M680,213L681,214 M681,213L682,214 M682,213L683,214 M683,213L684,214 M679,214L680,215 M680,214L681,215 M681,214L682,215 M682,214L683,215 M683,214L684,215 M684,214L685,215 M685,214L686,215 M686,214L687,215 M687,214L688,215 M683,215L684,216 M684,215L685,216 M685,215L686,216 M686,215L687,216 M687,215L688,216 M688,215L689,216 M689,215L690,216 M690,215L691,216 M691,215L692,216 M692,215L693,216 M688,216L689,217 M689,216L690,217 M690,216L691,217 M691,216L692,217 M692,216L693,217 M693,216L694,217 M694,216L695,217 M695,216L696,217 M696,216L697,217 M692,217L693,218 M693,217L694,218 M694,217L695,218 M695,217L696,218 M696,217L697,218 M697,217L698,218 M698,217L699,218 M699,217L700,218 M700,217L701,218 M701,217L702,218 M697,218L698,219 M698,218L699,219 M699,218L700,219 M700,218L701,219 M701,218L702,219 M702,218L703,219 M703,218L704,219 M704,218L705,219 M705,218L706,219 M701,219L702,220 M702,219L703,220 M703,219L704,220 M704,219L705,220 M705,219L706,220 M706,219L707,220 M707,219L708,220 M708,219L709,220 M709,219L710,220 M710,219L711,220 M706,220L707,221 M707,220L708,221 M708,220L709,221 M709,220L710,221 M710,220L711,221 M711,220L712,221 M712,220L713,221 M713,220L714,221 M714,220L715,221 M710,221L711,222 M711,221L712,222 M712,221L713,222 M713,221L714,222 M714,221L715,222 M715,221L716,222 M716,221L717,222 M717,221L718,222 M718,221L719,222 M719,221L720,222 M715,222L716,223 M716,222L717,223 M717,222L718,223 M718,222L719,223 M719,222L720,223 M720,222L721,223 M721,222L722,223 M722,222L723,223 M723,222L724,223 M719,223L720,224 M720,223L721,224 M721,223L722,224 M722,223L723,224 M723,223L724,224 M724,223L725,224 M725,223L726,224 M726,223L727,224 M727,223L728,224 M728,223L729,224 M724,224L725,225 M725,224L726,225 M726,224L727,225 M727,224L728,225 M728,224L729,225 M729,224L730,225 M728,225L729,226 M729,225L730,226" fill="none" stroke="black" />
    </svg>