<svg xmlns="http://www.w3.org/2000/svg" width="313" height="250">
        <path d="M180,12L181,13 M180,13L181,14 M181,13L182,14 M180,14L181,15 M181,14L182,15 M180,15L181,16 M180,16L181,17 M179,17L180,18 M180,17L181,18 M179,18L180,19 M180,18L181,19 M179,19L180,20 M180,19L181,20 M179,20L180,21 M180,20L181,21 M179,21L180,22 M178,22L179,23 M179,22L180,23 M178,23L179,24 M179,23L180,24 M178,24L179,25 M179,24L180,25 M178,25L179,26 M179,25L180,26 M178,26L179,27 M178,27L179,28 M177,28L178,29 M178,28L179,29 M177,29L178,30 M178,29L179,30 M177,30L178,31 M178,30L179,31 M177,31L178,32 M178,31L179,32 M177,32L178,33 M177,33L178,34 M177,34L178,35 M176,35L177,36 M177,35L178,36 M176,36L177,37 M177,36L178,37 M176,37L177,38 M177,37L178,38 M176,38L177,39 M177,38L178,39 M176,39L177,40 M177,39L178,40 M176,40L177,41 M177,40L178,41 M176,41L177,42 M176,42L177,43 M175,43L176,44 M176,43L177,44 M175,44L176,45 M176,44L177,45 M175,45L176,46 M176,45L177,46 M175,46L176,47 M176,46L177,47 M175,47L176,48 M176,47L177,48 M175,48L176,49 M176,48L177,49 M175,49L176,50 M175,50L176,51 M174,51L175,52 M175,51L176,52 M174,52L175,53 M175,52L176,53 M174,53L175,54 M175,53L176,54 M174,54L175,55 M175,54L176,55 M174,55L175,56 M175,55L176,56 M174,56L175,57 M175,56L176,57 M174,57L175,58 M175,57L176,58 M174,58L175,59 M174,59L175,60 M174,60L175,61 M173,61L174,62 M174,61L175,62 M97,62L98,63 M98,62L99,63 M99,62L100,63 M100,62L101,63 M101,62L102,63 M173,62L174,63 M174,62L175,63 M96,63L97,64 M97,63L98,64 M98,63L99,64 M99,63L100,64 M100,63L101,64 M101,63L102,64 M102,63L103,64 M103,63L104,64 M173,63L174,64 M174,63L175,64 M95,64L96,65 M96,64L97,65 M103,64L104,65 M104,64L105,65 M173,64L174,65 M174,64L175,65 M94,65L95,66 M95,65L96,66 M104,65L105,66 M105,65L106,66 M173,65L174,66 M174,65L175,66 M94,66L95,67 M95,66L96,67 M105,66L106,67 M106,66L107,67 M173,66L174,67 M174,66L175,67 M93,67L94,68 M94,67L95,68 M105,67L106,68 M106,67L107,68 M107,67L108,68 M173,67L174,68 M174,67L175,68 M93,68L94,69 M94,68L95,69 M106,68L107,69 M107,68L108,69 M173,68L174,69 M174,68L175,69 M93,69L94,70 M107,69L108,70 M108,69L109,70 M173,69L174,70 M174,69L175,70 M92,70L93,71 M93,70L94,71 M108,70L109,71 M109,70L110,71 M173,70L174,71 M92,71L93,72 M109,71L110,72 M110,71L111,72 M173,71L174,72 M91,72L92,73 M92,72L93,73 M109,72L110,73 M110,72L111,73 M111,72L112,73 M173,72L174,73 M91,73L92,74 M110,73L111,74 M111,73L112,74 M173,73L174,74 M90,74L91,75 M91,74L92,75 M111,74L112,75 M112,74L113,75 M172,74L173,75 M173,74L174,75 M90,75L91,76 M91,75L92,76 M111,75L112,76 M112,75L113,76 M172,75L173,76 M173,75L174,76 M90,76L91,77 M91,76L92,77 M112,76L113,77 M113,76L114,77 M172,76L173,77 M173,76L174,77 M90,77L91,78 M91,77L92,78 M112,77L113,78 M113,77L114,78 M172,77L173,78 M173,77L174,78 M90,78L91,79 M91,78L92,79 M113,78L114,79 M114,78L115,79 M172,78L173,79 M173,78L174,79 M90,79L91,80 M91,79L92,80 M113,79L114,80 M114,79L115,80 M172,79L173,80 M173,79L174,80 M91,80L92,81 M114,80L115,81 M115,80L116,81 M172,80L173,81 M173,80L174,81 M91,81L92,82 M114,81L115,82 M115,81L116,82 M172,81L173,82 M173,81L174,82 M91,82L92,83 M115,82L116,83 M116,82L117,83 M172,82L173,83 M173,82L174,83 M91,83L92,84 M115,83L116,84 M116,83L117,84 M172,83L173,84 M91,84L92,85 M116,84L117,85 M172,84L173,85 M91,85L92,86 M116,85L117,86 M117,85L118,86 M172,85L173,86 M91,86L92,87 M116,86L117,87 M117,86L118,87 M171,86L172,87 M172,86L173,87 M91,87L92,88 M117,87L118,88 M118,87L119,88 M171,87L172,88 M172,87L173,88 M91,88L92,89 M117,88L118,89 M118,88L119,89 M171,88L172,89 M172,88L173,89 M91,89L92,90 M118,89L119,90 M119,89L120,90 M171,89L172,90 M172,89L173,90 M91,90L92,91 M92,90L93,91 M118,90L119,91 M119,90L120,91 M171,90L172,91 M172,90L173,91 M91,91L92,92 M92,91L93,92 M119,91L120,92 M120,91L121,92 M171,91L172,92 M172,91L173,92 M92,92L93,93 M93,92L94,93 M119,92L120,93 M120,92L121,93 M171,92L172,93 M172,92L173,93 M92,93L93,94 M93,93L94,94 M120,93L121,94 M121,93L122,94 M171,93L172,94 M172,93L173,94 M93,94L94,95 M120,94L121,95 M121,94L122,95 M171,94L172,95 M172,94L173,95 M93,95L94,96 M94,95L95,96 M121,95L122,96 M122,95L123,96 M171,95L172,96 M172,95L173,96 M93,96L94,97 M94,96L95,97 M121,96L122,97 M122,96L123,97 M171,96L172,97 M172,96L173,97 M94,97L95,98 M95,97L96,98 M122,97L123,98 M123,97L124,98 M171,97L172,98 M172,97L173,98 M94,98L95,99 M95,98L96,99 M122,98L123,99 M123,98L124,99 M171,98L172,99 M172,98L173,99 M95,99L96,100 M96,99L97,100 M123,99L124,100 M124,99L125,100 M171,99L172,100 M172,99L173,100 M95,100L96,101 M96,100L97,101 M123,100L124,101 M124,100L125,101 M171,100L172,101 M95,101L96,102 M96,101L97,102 M123,101L124,102 M124,101L125,102 M171,101L172,102 M188,101L189,102 M189,101L190,102 M190,101L191,102 M191,101L192,102 M192,101L193,102 M193,101L194,102 M194,101L195,102 M195,101L196,102 M196,101L197,102 M197,101L198,102 M198,101L199,102 M96,102L97,103 M97,102L98,103 M124,102L125,103 M125,102L126,103 M171,102L172,103 M185,102L186,103 M186,102L187,103 M187,102L188,103 M188,102L189,103 M189,102L190,103 M190,102L191,103 M191,102L192,103 M192,102L193,103 M193,102L194,103 M194,102L195,103 M195,102L196,103 M196,102L197,103 M197,102L198,103 M198,102L199,103 M199,102L200,103 M200,102L201,103 M201,102L202,103 M96,103L97,104 M97,103L98,104 M124,103L125,104 M125,103L126,104 M171,103L172,104 M182,103L183,104 M183,103L184,104 M184,103L185,104 M185,103L186,104 M186,103L187,104 M200,103L201,104 M201,103L202,104 M202,103L203,104 M203,103L204,104 M204,103L205,104 M97,104L98,105 M98,104L99,105 M125,104L126,105 M126,104L127,105 M171,104L172,105 M180,104L181,105 M181,104L182,105 M182,104L183,105 M183,104L184,105 M184,104L185,105 M203,104L204,105 M204,104L205,105 M205,104L206,105 M206,104L207,105 M97,105L98,106 M98,105L99,106 M125,105L126,106 M126,105L127,106 M171,105L172,106 M177,105L178,106 M178,105L179,106 M179,105L180,106 M180,105L181,106 M181,105L182,106 M205,105L206,106 M206,105L207,106 M207,105L208,106 M208,105L209,106 M209,105L210,106 M97,106L98,107 M98,106L99,107 M126,106L127,107 M127,106L128,107 M171,106L172,107 M176,106L177,107 M177,106L178,107 M178,106L179,107 M179,106L180,107 M208,106L209,107 M209,106L210,107 M210,106L211,107 M211,106L212,107 M98,107L99,108 M99,107L100,108 M126,107L127,108 M127,107L128,108 M171,107L172,108 M174,107L175,108 M175,107L176,108 M176,107L177,108 M210,107L211,108 M211,107L212,108 M212,107L213,108 M213,107L214,108 M214,107L215,108 M98,108L99,109 M99,108L100,109 M127,108L128,109 M128,108L129,109 M170,108L171,109 M171,108L172,109 M172,108L173,109 M173,108L174,109 M174,108L175,109 M175,108L176,109 M213,108L214,109 M214,108L215,109 M215,108L216,109 M99,109L100,110 M100,109L101,110 M127,109L128,110 M128,109L129,110 M170,109L171,110 M171,109L172,110 M172,109L173,110 M173,109L174,110 M215,109L216,110 M216,109L217,110 M217,109L218,110 M100,110L101,111 M101,110L102,111 M128,110L129,111 M129,110L130,111 M168,110L169,111 M169,110L170,111 M170,110L171,111 M171,110L172,111 M216,110L217,111 M217,110L218,111 M218,110L219,111 M101,111L102,112 M102,111L103,112 M128,111L129,112 M129,111L130,112 M167,111L168,112 M168,111L169,112 M169,111L170,112 M170,111L171,112 M171,111L172,112 M218,111L219,112 M219,111L220,112 M220,111L221,112 M102,112L103,113 M103,112L104,113 M129,112L130,113 M130,112L131,113 M165,112L166,113 M166,112L167,113 M167,112L168,113 M168,112L169,113 M170,112L171,113 M171,112L172,113 M219,112L220,113 M220,112L221,113 M221,112L222,113 M103,113L104,114 M104,113L105,114 M129,113L130,114 M130,113L131,114 M163,113L164,114 M164,113L165,114 M165,113L166,114 M166,113L167,114 M170,113L171,114 M171,113L172,114 M221,113L222,114 M222,113L223,114 M104,114L105,115 M105,114L106,115 M129,114L130,115 M130,114L131,115 M131,114L132,115 M162,114L163,115 M163,114L164,115 M164,114L165,115 M170,114L171,115 M171,114L172,115 M222,114L223,115 M223,114L224,115 M224,114L225,115 M105,115L106,116 M106,115L107,116 M129,115L130,116 M130,115L131,116 M131,115L132,116 M160,115L161,116 M161,115L162,116 M162,115L163,116 M170,115L171,116 M171,115L172,116 M223,115L224,116 M224,115L225,116 M225,115L226,116 M106,116L107,117 M107,116L108,117 M130,116L131,117 M131,116L132,117 M158,116L159,117 M159,116L160,117 M160,116L161,117 M161,116L162,117 M170,116L171,117 M171,116L172,117 M225,116L226,117 M226,116L227,117 M227,116L228,117 M107,117L108,118 M108,117L109,118 M130,117L131,118 M131,117L132,118 M132,117L133,118 M156,117L157,118 M157,117L158,118 M158,117L159,118 M159,117L160,118 M170,117L171,118 M171,117L172,118 M226,117L227,118 M227,117L228,118 M228,117L229,118 M108,118L109,119 M109,118L110,119 M130,118L131,119 M131,118L132,119 M132,118L133,119 M154,118L155,119 M155,118L156,119 M156,118L157,119 M157,118L158,119 M170,118L171,119 M171,118L172,119 M228,118L229,119 M229,118L230,119 M230,118L231,119 M109,119L110,120 M110,119L111,120 M131,119L132,120 M151,119L152,120 M152,119L153,120 M153,119L154,120 M154,119L155,120 M155,119L156,120 M156,119L157,120 M170,119L171,120 M171,119L172,120 M229,119L230,120 M230,119L231,120 M231,119L232,120 M110,120L111,121 M111,120L112,121 M112,120L113,121 M149,120L150,121 M150,120L151,121 M151,120L152,121 M152,120L153,121 M153,120L154,121 M170,120L171,121 M171,120L172,121 M230,120L231,121 M231,120L232,121 M111,121L112,122 M112,121L113,122 M113,121L114,122 M114,121L115,122 M115,121L116,122 M146,121L147,122 M147,121L148,122 M148,121L149,122 M149,121L150,122 M150,121L151,122 M170,121L171,122 M171,121L172,122 M231,121L232,122 M232,121L233,122 M114,122L115,123 M115,122L116,123 M116,122L117,123 M117,122L118,123 M118,122L119,123 M143,122L144,123 M144,122L145,123 M145,122L146,123 M146,122L147,123 M147,122L148,123 M170,122L171,123 M171,122L172,123 M232,122L233,123 M233,122L234,123 M117,123L118,124 M118,123L119,124 M119,123L120,124 M120,123L121,124 M121,123L122,124 M140,123L141,124 M141,123L142,124 M142,123L143,124 M143,123L144,124 M144,123L145,124 M170,123L171,124 M171,123L172,124 M233,123L234,124 M234,123L235,124 M120,124L121,125 M121,124L122,125 M122,124L123,125 M123,124L124,125 M124,124L125,125 M131,124L132,125 M132,124L133,125 M133,124L134,125 M134,124L135,125 M135,124L136,125 M136,124L137,125 M137,124L138,125 M138,124L139,125 M139,124L140,125 M140,124L141,125 M141,124L142,125 M142,124L143,125 M170,124L171,125 M171,124L172,125 M234,124L235,125 M235,124L236,125 M123,125L124,126 M124,125L125,126 M125,125L126,126 M126,125L127,126 M127,125L128,126 M128,125L129,126 M129,125L130,126 M130,125L131,126 M131,125L132,126 M132,125L133,126 M133,125L134,126 M134,125L135,126 M135,125L136,126 M136,125L137,126 M137,125L138,126 M138,125L139,126 M139,125L140,126 M170,125L171,126 M171,125L172,126 M235,125L236,126 M236,125L237,126 M126,126L127,127 M127,126L128,127 M170,126L171,127 M171,126L172,127 M236,126L237,127 M237,126L238,127 M170,127L171,128 M171,127L172,128 M236,127L237,128 M237,127L238,128 M238,127L239,128 M170,128L171,129 M171,128L172,129 M237,128L238,129 M238,128L239,129 M239,128L240,129 M170,129L171,130 M238,129L239,130 M239,129L240,130 M240,129L241,130 M170,130L171,131 M239,130L240,131 M240,130L241,131 M241,130L242,131 M170,131L171,132 M240,131L241,132 M241,131L242,132 M170,132L171,133 M241,132L242,133 M242,132L243,133 M170,133L171,134 M242,133L243,134 M243,133L244,134 M170,134L171,135 M243,134L244,135 M244,134L245,135 M170,135L171,136 M244,135L245,136 M245,135L246,136 M170,136L171,137 M244,136L245,137 M245,136L246,137 M170,137L171,138 M245,137L246,138 M246,137L247,138 M170,138L171,139 M246,138L247,139 M247,138L248,139 M170,139L171,140 M246,139L247,140 M247,139L248,140 M248,139L249,140 M170,140L171,141 M247,140L248,141 M248,140L249,141 M170,141L171,142 M171,141L172,142 M248,141L249,142 M249,141L250,142 M170,142L171,143 M171,142L172,143 M249,142L250,143 M250,142L251,143 M170,143L171,144 M171,143L172,144 M249,143L250,144 M250,143L251,144 M251,143L252,144 M170,144L171,145 M171,144L172,145 M250,144L251,145 M251,144L252,145 M170,145L171,146 M171,145L172,146 M251,145L252,146 M252,145L253,146 M170,146L171,147 M171,146L172,147 M252,146L253,147 M253,146L254,147 M170,147L171,148 M171,147L172,148 M252,147L253,148 M253,147L254,148 M170,148L171,149 M171,148L172,149 M253,148L254,149 M254,148L255,149 M170,149L171,150 M171,149L172,150 M254,149L255,150 M255,149L256,150 M170,150L171,151 M171,150L172,151 M254,150L255,151 M255,150L256,151 M256,150L257,151 M170,151L171,152 M171,151L172,152 M255,151L256,152 M256,151L257,152 M170,152L171,153 M171,152L172,153 M256,152L257,153 M257,152L258,153 M170,153L171,154 M171,153L172,154 M257,153L258,154 M258,153L259,154 M170,154L171,155 M171,154L172,155 M257,154L258,155 M258,154L259,155 M170,155L171,156 M171,155L172,156 M258,155L259,156 M259,155L260,156 M170,156L171,157 M171,156L172,157 M259,156L260,157 M260,156L261,157 M170,157L171,158 M171,157L172,158 M259,157L260,158 M260,157L261,158 M261,157L262,158 M170,158L171,159 M171,158L172,159 M260,158L261,159 M261,158L262,159 M170,159L171,160 M171,159L172,160 M261,159L262,160 M262,159L263,160 M170,160L171,161 M171,160L172,161 M261,160L262,161 M262,160L263,161 M263,160L264,161 M170,161L171,162 M171,161L172,162 M262,161L263,162 M263,161L264,162 M170,162L171,163 M171,162L172,163 M263,162L264,163 M264,162L265,163 M170,163L171,164 M171,163L172,164 M264,163L265,164 M265,163L266,164 M170,164L171,165 M171,164L172,165 M264,164L265,165 M265,164L266,165 M171,165L172,166 M265,165L266,166 M266,165L267,166 M171,166L172,167 M266,166L267,167 M267,166L268,167 M171,167L172,168 M171,168L172,169 M172,168L173,169 M171,169L172,170 M172,169L173,170 M171,170L172,171 M172,170L173,171 M171,171L172,172 M172,171L173,172 M171,172L172,173 M172,172L173,173 M171,173L172,174 M172,173L173,174 M171,174L172,175 M172,174L173,175 M171,175L172,176 M172,175L173,176 M171,176L172,177 M172,176L173,177 M171,177L172,178 M172,177L173,178 M172,178L173,179 M172,179L173,180 M172,180L173,181 M172,181L173,182 M172,182L173,183 M173,182L174,183 M172,183L173,184 M173,183L174,184 M172,184L173,185 M173,184L174,185 M172,185L173,186 M173,185L174,186 M172,186L173,187 M173,186L174,187 M172,187L173,188 M173,187L174,188 M172,188L173,189 M173,188L174,189 M173,189L174,190 M173,190L174,191 M174,190L175,191 M173,191L174,192 M174,191L175,192 M173,192L174,193 M174,192L175,193 M173,193L174,194 M174,193L175,194 M174,194L175,195 M174,195L175,196 M175,195L176,196 M174,196L175,197 M175,196L176,197 M174,197L175,198 M175,197L176,198 M174,198L175,199 M175,198L176,199 M175,199L176,200 M176,199L177,200 M175,200L176,201 M176,200L177,201 M175,201L176,202 M176,201L177,202 M175,202L176,203 M176,202L177,203 M176,203L177,204 M176,204L177,205 M177,204L178,205 M176,205L177,206 M177,205L178,206 M176,206L177,207 M177,206L178,207 M176,207L177,208 M177,207L178,208 M177,208L178,209 M177,209L178,210" fill="none" stroke="black" />
    </svg>