<svg xmlns="http://www.w3.org/2000/svg" width="670" height="250">
        <path d="M252,25L253,26 M253,25L254,26 M254,25L255,26 M255,25L256,26 M256,25L257,26 M257,25L258,26 M258,25L259,26 M250,26L251,27 M251,26L252,27 M252,26L253,27 M253,26L254,27 M254,26L255,27 M255,26L256,27 M256,26L257,27 M257,26L258,27 M258,26L259,27 M259,26L260,27 M260,26L261,27 M248,27L249,28 M249,27L250,28 M250,27L251,28 M251,27L252,28 M252,27L253,28 M258,27L259,28 M259,27L260,28 M260,27L261,28 M261,27L262,28 M262,27L263,28 M246,28L247,29 M247,28L248,29 M248,28L249,29 M249,28L250,29 M260,28L261,29 M261,28L262,29 M262,28L263,29 M263,28L264,29 M245,29L246,30 M246,29L247,30 M247,29L248,30 M262,29L263,30 M263,29L264,30 M264,29L265,30 M265,29L266,30 M243,30L244,31 M244,30L245,31 M245,30L246,31 M246,30L247,31 M264,30L265,31 M265,30L266,31 M266,30L267,31 M242,31L243,32 M243,31L244,32 M244,31L245,32 M265,31L266,32 M266,31L267,32 M267,31L268,32 M268,31L269,32 M241,32L242,33 M242,32L243,33 M243,32L244,33 M267,32L268,33 M268,32L269,33 M269,32L270,33 M240,33L241,34 M241,33L242,34 M242,33L243,34 M268,33L269,34 M269,33L270,34 M239,34L240,35 M240,34L241,35 M241,34L242,35 M269,34L270,35 M270,34L271,35 M239,35L240,36 M240,35L241,36 M269,35L270,36 M270,35L271,36 M271,35L272,36 M239,36L240,37 M240,36L241,37 M270,36L271,37 M271,36L272,37 M239,37L240,38 M240,37L241,38 M271,37L272,38 M272,37L273,38 M239,38L240,39 M240,38L241,39 M271,38L272,39 M272,38L273,39 M239,39L240,40 M240,39L241,40 M271,39L272,40 M272,39L273,40 M273,39L274,40 M240,40L241,41 M241,40L242,41 M272,40L273,41 M273,40L274,41 M240,41L241,42 M241,41L242,42 M272,41L273,42 M273,41L274,42 M240,42L241,43 M241,42L242,43 M242,42L243,43 M273,42L274,43 M274,42L275,43 M241,43L242,44 M242,43L243,44 M273,43L274,44 M274,43L275,44 M241,44L242,45 M242,44L243,45 M243,44L244,45 M274,44L275,45 M275,44L276,45 M242,45L243,46 M243,45L244,46 M274,45L275,46 M275,45L276,46 M243,46L244,47 M244,46L245,47 M275,46L276,47 M276,46L277,47 M243,47L244,48 M244,47L245,48 M245,47L246,48 M275,47L276,48 M276,47L277,48 M244,48L245,49 M245,48L246,49 M246,48L247,49 M276,48L277,49 M277,48L278,49 M245,49L246,50 M246,49L247,50 M276,49L277,50 M277,49L278,50 M246,50L247,51 M247,50L248,51 M276,50L277,51 M277,50L278,51 M278,50L279,51 M246,51L247,52 M247,51L248,52 M248,51L249,52 M277,51L278,52 M278,51L279,52 M247,52L248,53 M248,52L249,53 M277,52L278,53 M278,52L279,53 M279,52L280,53 M247,53L248,54 M248,53L249,54 M249,53L250,54 M278,53L279,54 M279,53L280,54 M248,54L249,55 M249,54L250,55 M279,54L280,55 M280,54L281,55 M249,55L250,56 M250,55L251,56 M279,55L280,56 M280,55L281,56 M249,56L250,57 M250,56L251,57 M251,56L252,57 M280,56L281,57 M281,56L282,57 M250,57L251,58 M251,57L252,58 M280,57L281,58 M281,57L282,58 M250,58L251,59 M251,58L252,59 M252,58L253,59 M281,58L282,59 M282,58L283,59 M251,59L252,60 M252,59L253,60 M281,59L282,60 M282,59L283,60 M252,60L253,61 M253,60L254,61 M282,60L283,61 M283,60L284,61 M252,61L253,62 M253,61L254,62 M254,61L255,62 M282,61L283,62 M283,61L284,62 M284,61L285,62 M253,62L254,63 M254,62L255,63 M283,62L284,63 M284,62L285,63 M253,63L254,64 M254,63L255,64 M255,63L256,64 M283,63L284,64 M284,63L285,64 M285,63L286,64 M254,64L255,65 M255,64L256,65 M284,64L285,65 M285,64L286,65 M255,65L256,66 M256,65L257,66 M284,65L285,66 M285,65L286,66 M286,65L287,66 M255,66L256,67 M256,66L257,67 M257,66L258,67 M285,66L286,67 M286,66L287,67 M256,67L257,68 M257,67L258,68 M258,67L259,68 M286,67L287,68 M287,67L288,68 M257,68L258,69 M258,68L259,69 M259,68L260,69 M286,68L287,69 M287,68L288,69 M258,69L259,70 M259,69L260,70 M260,69L261,70 M286,69L287,70 M287,69L288,70 M259,70L260,71 M260,70L261,71 M286,70L287,71 M287,70L288,71 M260,71L261,72 M261,71L262,72 M286,71L287,72 M287,71L288,72 M260,72L261,73 M261,72L262,73 M262,72L263,73 M286,72L287,73 M287,72L288,73 M261,73L262,74 M262,73L263,74 M263,73L264,74 M287,73L288,74 M288,73L289,74 M262,74L263,75 M263,74L264,75 M264,74L265,75 M287,74L288,75 M288,74L289,75 M263,75L264,76 M264,75L265,76 M265,75L266,76 M287,75L288,76 M288,75L289,76 M264,76L265,77 M265,76L266,77 M287,76L288,77 M288,76L289,77 M265,77L266,78 M266,77L267,78 M287,77L288,78 M288,77L289,78 M265,78L266,79 M266,78L267,79 M267,78L268,79 M288,78L289,79 M289,78L290,79 M266,79L267,80 M267,79L268,80 M268,79L269,80 M288,79L289,80 M289,79L290,80 M267,80L268,81 M268,80L269,81 M269,80L270,81 M288,80L289,81 M289,80L290,81 M268,81L269,82 M269,81L270,82 M288,81L289,82 M289,81L290,82 M269,82L270,83 M270,82L271,83 M288,82L289,83 M289,82L290,83 M269,83L270,84 M270,83L271,84 M271,83L272,84 M288,83L289,84 M289,83L290,84 M270,84L271,85 M271,84L272,85 M272,84L273,85 M289,84L290,85 M290,84L291,85 M271,85L272,86 M272,85L273,86 M289,85L290,86 M290,85L291,86 M272,86L273,87 M273,86L274,87 M289,86L290,87 M290,86L291,87 M272,87L273,88 M273,87L274,88 M274,87L275,88 M289,87L290,88 M290,87L291,88 M273,88L274,89 M274,88L275,89 M275,88L276,89 M289,88L290,89 M290,88L291,89 M274,89L275,90 M275,89L276,90 M288,89L289,90 M289,89L290,90 M275,90L276,91 M276,90L277,91 M288,90L289,91 M289,90L290,91 M275,91L276,92 M276,91L277,92 M277,91L278,92 M288,91L289,92 M289,91L290,92 M276,92L277,93 M277,92L278,93 M288,92L289,93 M289,92L290,93 M277,93L278,94 M278,93L279,94 M288,93L289,94 M289,93L290,94 M277,94L278,95 M278,94L279,95 M279,94L280,95 M288,94L289,95 M289,94L290,95 M278,95L279,96 M279,95L280,96 M280,95L281,96 M288,95L289,96 M289,95L290,96 M279,96L280,97 M280,96L281,97 M288,96L289,97 M289,96L290,97 M280,97L281,98 M281,97L282,98 M287,97L288,98 M288,97L289,98 M289,97L290,98 M280,98L281,99 M281,98L282,99 M282,98L283,99 M287,98L288,99 M288,98L289,99 M281,99L282,100 M282,99L283,100 M283,99L284,100 M287,99L288,100 M288,99L289,100 M282,100L283,101 M283,100L284,101 M287,100L288,101 M288,100L289,101 M283,101L284,102 M284,101L285,102 M286,101L287,102 M287,101L288,102 M288,101L289,102 M283,102L284,103 M284,102L285,103 M285,102L286,103 M286,102L287,103 M287,102L288,103 M284,103L285,104 M285,103L286,104 M286,103L287,104 M287,103L288,104 M285,104L286,105 M286,104L287,105 M287,104L288,105 M285,105L286,106 M286,105L287,106 M287,105L288,106 M288,105L289,106 M285,106L286,107 M286,106L287,107 M287,106L288,107 M288,106L289,107 M289,106L290,107 M285,107L286,108 M286,107L287,108 M288,107L289,108 M289,107L290,108 M290,107L291,108 M285,108L286,109 M286,108L287,109 M289,108L290,109 M290,108L291,109 M291,108L292,109 M284,109L285,110 M285,109L286,110 M290,109L291,110 M291,109L292,110 M292,109L293,110 M284,110L285,111 M285,110L286,111 M291,110L292,111 M292,110L293,111 M293,110L294,111 M284,111L285,112 M285,111L286,112 M292,111L293,112 M293,111L294,112 M294,111L295,112 M283,112L284,113 M284,112L285,113 M285,112L286,113 M293,112L294,113 M294,112L295,113 M295,112L296,113 M283,113L284,114 M284,113L285,114 M294,113L295,114 M295,113L296,114 M296,113L297,114 M283,114L284,115 M284,114L285,115 M295,114L296,115 M296,114L297,115 M297,114L298,115 M282,115L283,116 M283,115L284,116 M296,115L297,116 M297,115L298,116 M298,115L299,116 M282,116L283,117 M283,116L284,117 M297,116L298,117 M298,116L299,117 M299,116L300,117 M281,117L282,118 M282,117L283,118 M283,117L284,118 M298,117L299,118 M299,117L300,118 M300,117L301,118 M281,118L282,119 M282,118L283,119 M299,118L300,119 M300,118L301,119 M301,118L302,119 M281,119L282,120 M282,119L283,120 M300,119L301,120 M301,119L302,120 M302,119L303,120 M280,120L281,121 M281,120L282,121 M301,120L302,121 M302,120L303,121 M303,120L304,121 M280,121L281,122 M281,121L282,122 M302,121L303,122 M303,121L304,122 M304,121L305,122 M279,122L280,123 M280,122L281,123 M303,122L304,123 M304,122L305,123 M305,122L306,123 M279,123L280,124 M280,123L281,124 M304,123L305,124 M305,123L306,124 M306,123L307,124 M278,124L279,125 M279,124L280,125 M280,124L281,125 M305,124L306,125 M306,124L307,125 M307,124L308,125 M278,125L279,126 M279,125L280,126 M306,125L307,126 M307,125L308,126 M308,125L309,126 M278,126L279,127 M279,126L280,127 M307,126L308,127 M308,126L309,127 M309,126L310,127 M277,127L278,128 M278,127L279,128 M308,127L309,128 M309,127L310,128 M310,127L311,128 M277,128L278,129 M278,128L279,129 M309,128L310,129 M310,128L311,129 M311,128L312,129 M276,129L277,130 M277,129L278,130 M310,129L311,130 M311,129L312,130 M312,129L313,130 M276,130L277,131 M277,130L278,131 M311,130L312,131 M312,130L313,131 M313,130L314,131 M275,131L276,132 M276,131L277,132 M312,131L313,132 M313,131L314,132 M314,131L315,132 M275,132L276,133 M276,132L277,133 M314,132L315,133 M315,132L316,133 M316,132L317,133 M274,133L275,134 M275,133L276,134 M315,133L316,134 M316,133L317,134 M317,133L318,134 M274,134L275,135 M275,134L276,135 M316,134L317,135 M317,134L318,135 M318,134L319,135 M273,135L274,136 M274,135L275,136 M317,135L318,136 M318,135L319,136 M319,135L320,136 M272,136L273,137 M273,136L274,137 M274,136L275,137 M318,136L319,137 M319,136L320,137 M320,136L321,137 M272,137L273,138 M273,137L274,138 M319,137L320,138 M320,137L321,138 M321,137L322,138 M271,138L272,139 M272,138L273,139 M273,138L274,139 M320,138L321,139 M321,138L322,139 M322,138L323,139 M271,139L272,140 M272,139L273,140 M321,139L322,140 M322,139L323,140 M323,139L324,140 M270,140L271,141 M271,140L272,141 M323,140L324,141 M324,140L325,141 M325,140L326,141 M270,141L271,142 M271,141L272,142 M324,141L325,142 M325,141L326,142 M326,141L327,142 M269,142L270,143 M270,142L271,143 M325,142L326,143 M326,142L327,143 M327,142L328,143 M268,143L269,144 M269,143L270,144 M270,143L271,144 M326,143L327,144 M327,143L328,144 M328,143L329,144 M268,144L269,145 M269,144L270,145 M327,144L328,145 M328,144L329,145 M329,144L330,145 M267,145L268,146 M268,145L269,146 M269,145L270,146 M328,145L329,146 M329,145L330,146 M330,145L331,146 M267,146L268,147 M268,146L269,147 M329,146L330,147 M330,146L331,147 M331,146L332,147 M266,147L267,148 M267,147L268,148 M268,147L269,148 M330,147L331,148 M331,147L332,148 M332,147L333,148 M266,148L267,149 M267,148L268,149 M332,148L333,149 M333,148L334,149 M334,148L335,149 M265,149L266,150 M266,149L267,150 M333,149L334,150 M334,149L335,150 M335,149L336,150 M265,150L266,151 M266,150L267,151 M334,150L335,151 M335,150L336,151 M336,150L337,151 M264,151L265,152 M265,151L266,152 M335,151L336,152 M336,151L337,152 M337,151L338,152 M263,152L264,153 M264,152L265,153 M265,152L266,153 M336,152L337,153 M337,152L338,153 M338,152L339,153 M263,153L264,154 M264,153L265,154 M337,153L338,154 M338,153L339,154 M339,153L340,154 M262,154L263,155 M263,154L264,155 M264,154L265,155 M338,154L339,155 M339,154L340,155 M340,154L341,155 M262,155L263,156 M263,155L264,156 M339,155L340,156 M340,155L341,156 M341,155L342,156 M261,156L262,157 M262,156L263,157 M340,156L341,157 M341,156L342,157 M342,156L343,157 M261,157L262,158 M262,157L263,158 M341,157L342,158 M342,157L343,158 M343,157L344,158 M260,158L261,159 M261,158L262,159 M342,158L343,159 M343,158L344,159 M344,158L345,159 M259,159L260,160 M260,159L261,160 M261,159L262,160 M343,159L344,160 M344,159L345,160 M345,159L346,160 M259,160L260,161 M260,160L261,161 M344,160L345,161 M345,160L346,161 M346,160L347,161 M258,161L259,162 M259,161L260,162 M260,161L261,162 M345,161L346,162 M346,161L347,162 M347,161L348,162 M258,162L259,163 M259,162L260,163 M347,162L348,163 M348,162L349,163 M257,163L258,164 M258,163L259,164 M348,163L349,164 M349,163L350,164 M257,164L258,165 M258,164L259,165 M349,164L350,165 M350,164L351,165 M351,164L352,165 M256,165L257,166 M257,165L258,166 M350,165L351,166 M351,165L352,166 M352,165L353,166 M255,166L256,167 M256,166L257,167 M257,166L258,167 M351,166L352,167 M352,166L353,167 M353,166L354,167 M255,167L256,168 M256,167L257,168 M352,167L353,168 M353,167L354,168 M354,167L355,168 M254,168L255,169 M255,168L256,169 M256,168L257,169 M353,168L354,169 M354,168L355,169 M355,168L356,169 M254,169L255,170 M255,169L256,170 M354,169L355,170 M355,169L356,170 M356,169L357,170 M253,170L254,171 M254,170L255,171 M355,170L356,171 M356,170L357,171 M357,170L358,171 M252,171L253,172 M253,171L254,172 M254,171L255,172 M356,171L357,172 M357,171L358,172 M358,171L359,172 M252,172L253,173 M253,172L254,173 M357,172L358,173 M358,172L359,173 M359,172L360,173 M251,173L252,174 M252,173L253,174 M253,173L254,174 M358,173L359,174 M359,173L360,174 M360,173L361,174 M251,174L252,175 M252,174L253,175 M359,174L360,175 M360,174L361,175 M361,174L362,175 M250,175L251,176 M251,175L252,176 M360,175L361,176 M361,175L362,176 M362,175L363,176 M249,176L250,177 M250,176L251,177 M251,176L252,177 M361,176L362,177 M362,176L363,177 M363,176L364,177 M249,177L250,178 M250,177L251,178 M362,177L363,178 M363,177L364,178 M364,177L365,178 M248,178L249,179 M249,178L250,179 M250,178L251,179 M363,178L364,179 M364,178L365,179 M365,178L366,179 M248,179L249,180 M249,179L250,180 M364,179L365,180 M365,179L366,180 M366,179L367,180 M247,180L248,181 M248,180L249,181 M365,180L366,181 M366,180L367,181 M367,180L368,181 M246,181L247,182 M247,181L248,182 M248,181L249,182 M367,181L368,182 M368,181L369,182 M246,182L247,183 M247,182L248,183 M367,182L368,183 M368,182L369,183 M369,182L370,183 M245,183L246,184 M246,183L247,184 M247,183L248,184 M364,183L365,184 M365,183L366,184 M366,183L367,184 M367,183L368,184 M368,183L369,184 M369,183L370,184 M370,183L371,184 M371,183L372,184 M245,184L246,185 M246,184L247,185 M362,184L363,185 M363,184L364,185 M364,184L365,185 M365,184L366,185 M366,184L367,185 M370,184L371,185 M371,184L372,185 M372,184L373,185 M244,185L245,186 M245,185L246,186 M359,185L360,186 M360,185L361,186 M361,185L362,186 M362,185L363,186 M363,185L364,186 M364,185L365,186 M371,185L372,186 M372,185L373,186 M373,185L374,186 M243,186L244,187 M244,186L245,187 M245,186L246,187 M356,186L357,187 M357,186L358,187 M358,186L359,187 M359,186L360,187 M360,186L361,187 M361,186L362,187 M372,186L373,187 M373,186L374,187 M374,186L375,187 M243,187L244,188 M244,187L245,188 M354,187L355,188 M355,187L356,188 M356,187L357,188 M357,187L358,188 M358,187L359,188 M373,187L374,188 M374,187L375,188 M375,187L376,188 M242,188L243,189 M243,188L244,189 M351,188L352,189 M352,188L353,189 M353,188L354,189 M354,188L355,189 M355,188L356,189 M356,188L357,189 M374,188L375,189 M375,188L376,189 M376,188L377,189 M242,189L243,190 M243,189L244,190 M349,189L350,190 M350,189L351,190 M351,189L352,190 M352,189L353,190 M353,189L354,190 M375,189L376,190 M376,189L377,190 M377,189L378,190 M241,190L242,191 M242,190L243,191 M346,190L347,191 M347,190L348,191 M348,190L349,191 M349,190L350,191 M350,190L351,191 M351,190L352,191 M376,190L377,191 M377,190L378,191 M378,190L379,191 M240,191L241,192 M241,191L242,192 M242,191L243,192 M343,191L344,192 M344,191L345,192 M345,191L346,192 M346,191L347,192 M347,191L348,192 M348,191L349,192 M377,191L378,192 M378,191L379,192 M379,191L380,192 M240,192L241,193 M241,192L242,193 M340,192L341,193 M341,192L342,193 M342,192L343,193 M343,192L344,193 M344,192L345,193 M345,192L346,193 M378,192L379,193 M379,192L380,193 M380,192L381,193 M239,193L240,194 M240,193L241,194 M338,193L339,194 M339,193L340,194 M340,193L341,194 M341,193L342,194 M342,193L343,194 M343,193L344,194 M379,193L380,194 M380,193L381,194 M381,193L382,194 M238,194L239,195 M239,194L240,195 M240,194L241,195 M335,194L336,195 M336,194L337,195 M337,194L338,195 M338,194L339,195 M339,194L340,195 M340,194L341,195 M380,194L381,195 M381,194L382,195 M382,194L383,195 M238,195L239,196 M239,195L240,196 M332,195L333,196 M333,195L334,196 M334,195L335,196 M335,195L336,196 M336,195L337,196 M337,195L338,196 M381,195L382,196 M382,195L383,196 M383,195L384,196 M237,196L238,197 M238,196L239,197 M239,196L240,197 M329,196L330,197 M330,196L331,197 M331,196L332,197 M332,196L333,197 M333,196L334,197 M334,196L335,197 M382,196L383,197 M383,196L384,197 M384,196L385,197 M237,197L238,198 M238,197L239,198 M326,197L327,198 M327,197L328,198 M328,197L329,198 M329,197L330,198 M330,197L331,198 M331,197L332,198 M383,197L384,198 M384,197L385,198 M385,197L386,198 M236,198L237,199 M237,198L238,199 M324,198L325,199 M325,198L326,199 M326,198L327,199 M327,198L328,199 M328,198L329,199 M384,198L385,199 M385,198L386,199 M386,198L387,199 M235,199L236,200 M236,199L237,200 M237,199L238,200 M320,199L321,200 M321,199L322,200 M322,199L323,200 M323,199L324,200 M324,199L325,200 M325,199L326,200 M326,199L327,200 M385,199L386,200 M386,199L387,200 M387,199L388,200 M235,200L236,201 M236,200L237,201 M317,200L318,201 M318,200L319,201 M319,200L320,201 M320,200L321,201 M321,200L322,201 M322,200L323,201 M323,200L324,201 M387,200L388,201 M388,200L389,201 M389,200L390,201 M234,201L235,202 M235,201L236,202 M314,201L315,202 M315,201L316,202 M316,201L317,202 M317,201L318,202 M318,201L319,202 M319,201L320,202 M320,201L321,202 M388,201L389,202 M389,201L390,202 M390,201L391,202 M233,202L234,203 M234,202L235,203 M235,202L236,203 M311,202L312,203 M312,202L313,203 M313,202L314,203 M314,202L315,203 M315,202L316,203 M316,202L317,203 M317,202L318,203 M389,202L390,203 M390,202L391,203 M391,202L392,203 M232,203L233,204 M233,203L234,204 M234,203L235,204 M308,203L309,204 M309,203L310,204 M310,203L311,204 M311,203L312,204 M312,203L313,204 M313,203L314,204 M390,203L391,204 M391,203L392,204 M392,203L393,204 M232,204L233,205 M233,204L234,205 M304,204L305,205 M305,204L306,205 M306,204L307,205 M307,204L308,205 M308,204L309,205 M309,204L310,205 M310,204L311,205 M391,204L392,205 M392,204L393,205 M393,204L394,205 M231,205L232,206 M232,205L233,206 M233,205L234,206 M301,205L302,206 M302,205L303,206 M303,205L304,206 M304,205L305,206 M305,205L306,206 M306,205L307,206 M307,205L308,206 M392,205L393,206 M393,205L394,206 M394,205L395,206 M230,206L231,207 M231,206L232,207 M232,206L233,207 M298,206L299,207 M299,206L300,207 M300,206L301,207 M301,206L302,207 M302,206L303,207 M303,206L304,207 M304,206L305,207 M393,206L394,207 M394,206L395,207 M395,206L396,207 M229,207L230,208 M230,207L231,208 M231,207L232,208 M295,207L296,208 M296,207L297,208 M297,207L298,208 M298,207L299,208 M299,207L300,208 M300,207L301,208 M394,207L395,208 M395,207L396,208 M396,207L397,208 M229,208L230,209 M230,208L231,209 M293,208L294,209 M294,208L295,209 M295,208L296,209 M296,208L297,209 M297,208L298,209 M395,208L396,209 M396,208L397,209 M397,208L398,209 M228,209L229,210 M229,209L230,210 M290,209L291,210 M291,209L292,210 M292,209L293,210 M293,209L294,210 M294,209L295,210 M295,209L296,210 M396,209L397,210 M397,209L398,210 M398,209L399,210 M227,210L228,211 M228,210L229,211 M287,210L288,211 M288,210L289,211 M289,210L290,211 M290,210L291,211 M291,210L292,211 M292,210L293,211 M397,210L398,211 M398,210L399,211 M399,210L400,211 M227,211L228,212 M228,211L229,212 M284,211L285,212 M285,211L286,212 M286,211L287,212 M287,211L288,212 M288,211L289,212 M289,211L290,212 M399,211L400,212 M400,211L401,212 M227,212L228,213 M228,212L229,213 M280,212L281,213 M281,212L282,213 M282,212L283,213 M283,212L284,213 M284,212L285,213 M285,212L286,213 M286,212L287,213 M400,212L401,213 M401,212L402,213 M402,212L403,213 M227,213L228,214 M228,213L229,214 M276,213L277,214 M277,213L278,214 M278,213L279,214 M279,213L280,214 M280,213L281,214 M281,213L282,214 M282,213L283,214 M283,213L284,214 M401,213L402,214 M402,213L403,214 M403,213L404,214 M227,214L228,215 M228,214L229,215 M271,214L272,215 M272,214L273,215 M273,214L274,215 M274,214L275,215 M275,214L276,215 M276,214L277,215 M277,214L278,215 M278,214L279,215 M279,214L280,215 M402,214L403,215 M403,214L404,215 M404,214L405,215 M227,215L228,216 M228,215L229,216 M265,215L266,216 M266,215L267,216 M267,215L268,216 M268,215L269,216 M269,215L270,216 M270,215L271,216 M271,215L272,216 M272,215L273,216 M273,215L274,216 M274,215L275,216 M275,215L276,216 M403,215L404,216 M404,215L405,216 M405,215L406,216 M227,216L228,217 M228,216L229,217 M258,216L259,217 M259,216L260,217 M260,216L261,217 M261,216L262,217 M262,216L263,217 M263,216L264,217 M264,216L265,217 M265,216L266,217 M266,216L267,217 M267,216L268,217 M268,216L269,217 M269,216L270,217 M270,216L271,217 M404,216L405,217 M405,216L406,217 M406,216L407,217 M227,217L228,218 M228,217L229,218 M229,217L230,218 M230,217L231,218 M231,217L232,218 M251,217L252,218 M252,217L253,218 M253,217L254,218 M254,217L255,218 M255,217L256,218 M256,217L257,218 M257,217L258,218 M258,217L259,218 M259,217L260,218 M260,217L261,218 M261,217L262,218 M262,217L263,218 M263,217L264,218 M264,217L265,218 M405,217L406,218 M406,217L407,218 M407,217L408,218 M228,218L229,219 M229,218L230,219 M230,218L231,219 M231,218L232,219 M232,218L233,219 M233,218L234,219 M234,218L235,219 M235,218L236,219 M236,218L237,219 M237,218L238,219 M238,218L239,219 M239,218L240,219 M240,218L241,219 M241,218L242,219 M242,218L243,219 M243,218L244,219 M244,218L245,219 M245,218L246,219 M246,218L247,219 M247,218L248,219 M248,218L249,219 M249,218L250,219 M250,218L251,219 M251,218L252,219 M252,218L253,219 M253,218L254,219 M254,218L255,219 M255,218L256,219 M256,218L257,219 M257,218L258,219 M406,218L407,219 M407,218L408,219 M408,218L409,219 M231,219L232,220 M232,219L233,220 M233,219L234,220 M234,219L235,220 M235,219L236,220 M236,219L237,220 M237,219L238,220 M238,219L239,220 M239,219L240,220 M240,219L241,220 M241,219L242,220 M242,219L243,220 M243,219L244,220 M244,219L245,220 M245,219L246,220 M246,219L247,220 M247,219L248,220 M248,219L249,220 M249,219L250,220 M250,219L251,220 M407,219L408,220 M408,219L409,220 M409,219L410,220 M408,220L409,221 M409,220L410,221 M410,220L411,221 M409,221L410,222 M410,221L411,222 M411,221L412,222 M411,222L412,223 M412,222L413,223 M412,223L413,224 M413,223L414,224 M414,223L415,224 M413,224L414,225 M414,224L415,225 M415,224L416,225 M414,225L415,226 M415,225L416,226 M416,225L417,226 M415,226L416,227 M416,226L417,227 M417,226L418,227 M416,227L417,228 M417,227L418,228 M418,227L419,228 M417,228L418,229 M418,228L419,229 M419,228L420,229 M418,229L419,230 M419,229L420,230 M420,229L421,230 M419,230L420,231 M420,230L421,231 M421,230L422,231 M422,230L423,231 M421,231L422,232 M422,231L423,232 M423,231L424,232 M422,232L423,233 M423,232L424,233 M424,232L425,233 M423,233L424,234 M424,233L425,234 M425,233L426,234 M424,234L425,235 M425,234L426,235 M426,234L427,235 M433,234L434,235 M434,234L435,235 M425,235L426,236 M426,235L427,236 M427,235L428,236 M428,235L429,236 M433,235L434,236 M434,235L435,236 M427,236L428,237 M428,236L429,237 M429,236L430,237 M433,236L434,237 M434,236L435,237 M428,237L429,238 M429,237L430,238 M430,237L431,238 M433,237L434,238 M434,237L435,238 M429,238L430,239 M430,238L431,239 M431,238L432,239 M432,238L433,239 M433,238L434,239 M434,238L435,239 M430,239L431,240 M431,239L432,240 M432,239L433,240 M433,239L434,240 M434,239L435,240 M433,240L434,241" fill="none" stroke="black" />
    </svg>