<svg xmlns="http://www.w3.org/2000/svg" width="800" height="250">
        <path d="M363,67L364,68 M364,67L365,68 M363,68L364,69 M364,68L365,69 M363,69L364,70 M364,69L365,70 M363,70L364,71 M364,70L365,71 M226,71L227,72 M227,71L228,72 M228,71L229,72 M363,71L364,72 M364,71L365,72 M226,72L227,73 M227,72L228,73 M363,72L364,73 M364,72L365,73 M225,73L226,74 M226,73L227,74 M227,73L228,74 M363,73L364,74 M364,73L365,74 M224,74L225,75 M225,74L226,75 M226,74L227,75 M363,74L364,75 M364,74L365,75 M134,75L135,76 M135,75L136,76 M139,75L140,76 M140,75L141,76 M224,75L225,76 M225,75L226,76 M362,75L363,76 M363,75L364,76 M435,75L436,76 M436,75L437,76 M134,76L135,77 M135,76L136,77 M139,76L140,77 M140,76L141,77 M223,76L224,77 M224,76L225,77 M225,76L226,77 M362,76L363,77 M363,76L364,77 M435,76L436,77 M436,76L437,77 M134,77L135,78 M135,77L136,78 M139,77L140,78 M140,77L141,78 M223,77L224,78 M224,77L225,78 M362,77L363,78 M363,77L364,78 M434,77L435,78 M435,77L436,78 M436,77L437,78 M134,78L135,79 M135,78L136,79 M140,78L141,79 M141,78L142,79 M222,78L223,79 M223,78L224,79 M224,78L225,79 M362,78L363,79 M363,78L364,79 M434,78L435,79 M435,78L436,79 M134,79L135,80 M135,79L136,80 M140,79L141,80 M141,79L142,80 M222,79L223,80 M223,79L224,80 M362,79L363,80 M363,79L364,80 M433,79L434,80 M434,79L435,80 M435,79L436,80 M134,80L135,81 M135,80L136,81 M140,80L141,81 M141,80L142,81 M221,80L222,81 M222,80L223,81 M223,80L224,81 M361,80L362,81 M362,80L363,81 M433,80L434,81 M434,80L435,81 M133,81L134,82 M134,81L135,82 M140,81L141,82 M141,81L142,82 M221,81L222,82 M222,81L223,82 M361,81L362,82 M362,81L363,82 M432,81L433,82 M433,81L434,82 M434,81L435,82 M133,82L134,83 M134,82L135,83 M141,82L142,83 M142,82L143,83 M220,82L221,83 M221,82L222,83 M222,82L223,83 M361,82L362,83 M362,82L363,83 M432,82L433,83 M433,82L434,83 M133,83L134,84 M134,83L135,84 M141,83L142,84 M142,83L143,84 M220,83L221,84 M221,83L222,84 M361,83L362,84 M362,83L363,84 M431,83L432,84 M432,83L433,84 M433,83L434,84 M133,84L134,85 M134,84L135,85 M141,84L142,85 M142,84L143,85 M219,84L220,85 M220,84L221,85 M361,84L362,85 M362,84L363,85 M431,84L432,85 M432,84L433,85 M133,85L134,86 M134,85L135,86 M141,85L142,86 M142,85L143,86 M218,85L219,86 M219,85L220,86 M220,85L221,86 M360,85L361,86 M361,85L362,86 M430,85L431,86 M431,85L432,86 M432,85L433,86 M132,86L133,87 M133,86L134,87 M141,86L142,87 M142,86L143,87 M218,86L219,87 M219,86L220,87 M360,86L361,87 M361,86L362,87 M430,86L431,87 M431,86L432,87 M132,87L133,88 M133,87L134,88 M142,87L143,88 M143,87L144,88 M217,87L218,88 M218,87L219,88 M219,87L220,88 M360,87L361,88 M361,87L362,88 M429,87L430,88 M430,87L431,88 M431,87L432,88 M132,88L133,89 M133,88L134,89 M142,88L143,89 M143,88L144,89 M216,88L217,89 M217,88L218,89 M218,88L219,89 M360,88L361,89 M361,88L362,89 M429,88L430,89 M430,88L431,89 M132,89L133,90 M133,89L134,90 M142,89L143,90 M143,89L144,90 M216,89L217,90 M217,89L218,90 M360,89L361,90 M361,89L362,90 M429,89L430,90 M430,89L431,90 M132,90L133,91 M133,90L134,91 M142,90L143,91 M143,90L144,91 M215,90L216,91 M216,90L217,91 M217,90L218,91 M360,90L361,91 M361,90L362,91 M428,90L429,91 M429,90L430,91 M131,91L132,92 M132,91L133,92 M133,91L134,92 M142,91L143,92 M143,91L144,92 M214,91L215,92 M215,91L216,92 M216,91L217,92 M360,91L361,92 M361,91L362,92 M428,91L429,92 M429,91L430,92 M131,92L132,93 M132,92L133,93 M142,92L143,93 M143,92L144,93 M214,92L215,93 M215,92L216,93 M359,92L360,93 M360,92L361,93 M428,92L429,93 M429,92L430,93 M131,93L132,94 M132,93L133,94 M143,93L144,94 M144,93L145,94 M213,93L214,94 M214,93L215,94 M359,93L360,94 M360,93L361,94 M427,93L428,94 M428,93L429,94 M131,94L132,95 M132,94L133,95 M143,94L144,95 M144,94L145,95 M212,94L213,95 M213,94L214,95 M214,94L215,95 M359,94L360,95 M360,94L361,95 M427,94L428,95 M428,94L429,95 M131,95L132,96 M132,95L133,96 M143,95L144,96 M144,95L145,96 M211,95L212,96 M212,95L213,96 M213,95L214,96 M359,95L360,96 M360,95L361,96 M427,95L428,96 M428,95L429,96 M131,96L132,97 M132,96L133,97 M143,96L144,97 M144,96L145,97 M211,96L212,97 M212,96L213,97 M359,96L360,97 M360,96L361,97 M426,96L427,97 M427,96L428,97 M131,97L132,98 M132,97L133,98 M143,97L144,98 M144,97L145,98 M210,97L211,98 M211,97L212,98 M359,97L360,98 M360,97L361,98 M426,97L427,98 M427,97L428,98 M130,98L131,99 M131,98L132,99 M143,98L144,99 M144,98L145,99 M210,98L211,99 M211,98L212,99 M358,98L359,99 M359,98L360,99 M426,98L427,99 M427,98L428,99 M130,99L131,100 M131,99L132,100 M144,99L145,100 M145,99L146,100 M209,99L210,100 M210,99L211,100 M358,99L359,100 M359,99L360,100 M425,99L426,100 M426,99L427,100 M130,100L131,101 M131,100L132,101 M144,100L145,101 M145,100L146,101 M209,100L210,101 M210,100L211,101 M358,100L359,101 M359,100L360,101 M425,100L426,101 M426,100L427,101 M130,101L131,102 M131,101L132,102 M144,101L145,102 M145,101L146,102 M208,101L209,102 M209,101L210,102 M358,101L359,102 M359,101L360,102 M425,101L426,102 M426,101L427,102 M130,102L131,103 M131,102L132,103 M144,102L145,103 M145,102L146,103 M208,102L209,103 M209,102L210,103 M358,102L359,103 M359,102L360,103 M424,102L425,103 M425,102L426,103 M130,103L131,104 M131,103L132,104 M144,103L145,104 M145,103L146,104 M207,103L208,104 M208,103L209,104 M209,103L210,104 M358,103L359,104 M359,103L360,104 M424,103L425,104 M425,103L426,104 M130,104L131,105 M131,104L132,105 M144,104L145,105 M145,104L146,105 M207,104L208,105 M208,104L209,105 M358,104L359,105 M359,104L360,105 M423,104L424,105 M424,104L425,105 M425,104L426,105 M129,105L130,106 M130,105L131,106 M145,105L146,106 M146,105L147,106 M207,105L208,106 M208,105L209,106 M357,105L358,106 M358,105L359,106 M423,105L424,106 M424,105L425,106 M129,106L130,107 M130,106L131,107 M145,106L146,107 M146,106L147,107 M207,106L208,107 M208,106L209,107 M357,106L358,107 M358,106L359,107 M423,106L424,107 M424,106L425,107 M129,107L130,108 M130,107L131,108 M145,107L146,108 M146,107L147,108 M206,107L207,108 M207,107L208,108 M357,107L358,108 M358,107L359,108 M422,107L423,108 M423,107L424,108 M129,108L130,109 M130,108L131,109 M145,108L146,109 M146,108L147,109 M206,108L207,109 M207,108L208,109 M357,108L358,109 M358,108L359,109 M422,108L423,109 M423,108L424,109 M129,109L130,110 M130,109L131,110 M145,109L146,110 M146,109L147,110 M205,109L206,110 M206,109L207,110 M207,109L208,110 M356,109L357,110 M357,109L358,110 M358,109L359,110 M422,109L423,110 M423,109L424,110 M129,110L130,111 M130,110L131,111 M145,110L146,111 M146,110L147,111 M205,110L206,111 M206,110L207,111 M356,110L357,111 M357,110L358,111 M421,110L422,111 M422,110L423,111 M128,111L129,112 M129,111L130,112 M146,111L147,112 M147,111L148,112 M204,111L205,112 M205,111L206,112 M206,111L207,112 M356,111L357,112 M357,111L358,112 M421,111L422,112 M422,111L423,112 M128,112L129,113 M129,112L130,113 M146,112L147,113 M147,112L148,113 M204,112L205,113 M205,112L206,113 M356,112L357,113 M357,112L358,113 M420,112L421,113 M421,112L422,113 M422,112L423,113 M128,113L129,114 M129,113L130,114 M146,113L147,114 M147,113L148,114 M203,113L204,114 M204,113L205,114 M205,113L206,114 M292,113L293,114 M293,113L294,114 M355,113L356,114 M356,113L357,114 M420,113L421,114 M421,113L422,114 M128,114L129,115 M129,114L130,115 M146,114L147,115 M147,114L148,115 M203,114L204,115 M204,114L205,115 M292,114L293,115 M293,114L294,115 M355,114L356,115 M356,114L357,115 M420,114L421,115 M421,114L422,115 M128,115L129,116 M129,115L130,116 M146,115L147,116 M147,115L148,116 M202,115L203,116 M203,115L204,116 M204,115L205,116 M292,115L293,116 M293,115L294,116 M355,115L356,116 M356,115L357,116 M420,115L421,116 M421,115L422,116 M128,116L129,117 M129,116L130,117 M147,116L148,117 M148,116L149,117 M202,116L203,117 M203,116L204,117 M292,116L293,117 M293,116L294,117 M355,116L356,117 M356,116L357,117 M419,116L420,117 M420,116L421,117 M127,117L128,118 M128,117L129,118 M147,117L148,118 M148,117L149,118 M201,117L202,118 M202,117L203,118 M203,117L204,118 M292,117L293,118 M293,117L294,118 M354,117L355,118 M355,117L356,118 M419,117L420,118 M420,117L421,118 M127,118L128,119 M128,118L129,119 M147,118L148,119 M148,118L149,119 M201,118L202,119 M202,118L203,119 M292,118L293,119 M293,118L294,119 M354,118L355,119 M355,118L356,119 M419,118L420,119 M420,118L421,119 M127,119L128,120 M128,119L129,120 M147,119L148,120 M148,119L149,120 M201,119L202,120 M202,119L203,120 M292,119L293,120 M293,119L294,120 M354,119L355,120 M355,119L356,120 M418,119L419,120 M419,119L420,120 M127,120L128,121 M128,120L129,121 M147,120L148,121 M148,120L149,121 M149,120L150,121 M200,120L201,121 M201,120L202,121 M292,120L293,121 M293,120L294,121 M353,120L354,121 M354,120L355,121 M418,120L419,121 M419,120L420,121 M127,121L128,122 M128,121L129,122 M148,121L149,122 M149,121L150,122 M200,121L201,122 M201,121L202,122 M239,121L240,122 M240,121L241,122 M292,121L293,122 M293,121L294,122 M353,121L354,122 M354,121L355,122 M418,121L419,122 M419,121L420,122 M127,122L128,123 M128,122L129,123 M148,122L149,123 M149,122L150,123 M200,122L201,123 M201,122L202,123 M239,122L240,123 M240,122L241,123 M292,122L293,123 M293,122L294,123 M353,122L354,123 M354,122L355,123 M418,122L419,123 M419,122L420,123 M126,123L127,124 M127,123L128,124 M148,123L149,124 M149,123L150,124 M199,123L200,124 M200,123L201,124 M239,123L240,124 M240,123L241,124 M292,123L293,124 M293,123L294,124 M353,123L354,124 M354,123L355,124 M417,123L418,124 M418,123L419,124 M126,124L127,125 M127,124L128,125 M148,124L149,125 M149,124L150,125 M199,124L200,125 M200,124L201,125 M239,124L240,125 M240,124L241,125 M292,124L293,125 M293,124L294,125 M352,124L353,125 M353,124L354,125 M417,124L418,125 M418,124L419,125 M126,125L127,126 M127,125L128,126 M149,125L150,126 M150,125L151,126 M198,125L199,126 M199,125L200,126 M200,125L201,126 M239,125L240,126 M240,125L241,126 M292,125L293,126 M293,125L294,126 M352,125L353,126 M353,125L354,126 M417,125L418,126 M418,125L419,126 M126,126L127,127 M127,126L128,127 M149,126L150,127 M150,126L151,127 M198,126L199,127 M199,126L200,127 M239,126L240,127 M240,126L241,127 M292,126L293,127 M293,126L294,127 M352,126L353,127 M353,126L354,127 M417,126L418,127 M418,126L419,127 M126,127L127,128 M127,127L128,128 M149,127L150,128 M150,127L151,128 M197,127L198,128 M198,127L199,128 M199,127L200,128 M239,127L240,128 M240,127L241,128 M292,127L293,128 M293,127L294,128 M351,127L352,128 M352,127L353,128 M353,127L354,128 M416,127L417,128 M417,127L418,128 M126,128L127,129 M127,128L128,129 M149,128L150,129 M150,128L151,129 M197,128L198,129 M198,128L199,129 M239,128L240,129 M240,128L241,129 M292,128L293,129 M293,128L294,129 M351,128L352,129 M352,128L353,129 M416,128L417,129 M417,128L418,129 M125,129L126,130 M126,129L127,130 M149,129L150,130 M150,129L151,130 M151,129L152,130 M196,129L197,130 M197,129L198,130 M239,129L240,130 M240,129L241,130 M292,129L293,130 M293,129L294,130 M351,129L352,130 M352,129L353,130 M416,129L417,130 M417,129L418,130 M125,130L126,131 M126,130L127,131 M150,130L151,131 M151,130L152,131 M196,130L197,131 M197,130L198,131 M239,130L240,131 M240,130L241,131 M292,130L293,131 M293,130L294,131 M351,130L352,131 M352,130L353,131 M416,130L417,131 M417,130L418,131 M125,131L126,132 M126,131L127,132 M150,131L151,132 M151,131L152,132 M195,131L196,132 M196,131L197,132 M239,131L240,132 M240,131L241,132 M292,131L293,132 M293,131L294,132 M350,131L351,132 M351,131L352,132 M415,131L416,132 M416,131L417,132 M125,132L126,133 M126,132L127,133 M150,132L151,133 M151,132L152,133 M194,132L195,133 M195,132L196,133 M196,132L197,133 M239,132L240,133 M240,132L241,133 M292,132L293,133 M293,132L294,133 M350,132L351,133 M351,132L352,133 M415,132L416,133 M416,132L417,133 M125,133L126,134 M126,133L127,134 M150,133L151,134 M151,133L152,134 M194,133L195,134 M195,133L196,134 M239,133L240,134 M240,133L241,134 M292,133L293,134 M293,133L294,134 M350,133L351,134 M351,133L352,134 M415,133L416,134 M416,133L417,134 M125,134L126,135 M126,134L127,135 M151,134L152,135 M152,134L153,135 M193,134L194,135 M194,134L195,135 M195,134L196,135 M239,134L240,135 M240,134L241,135 M292,134L293,135 M293,134L294,135 M350,134L351,135 M351,134L352,135 M415,134L416,135 M416,134L417,135 M125,135L126,136 M126,135L127,136 M151,135L152,136 M152,135L153,136 M193,135L194,136 M194,135L195,136 M239,135L240,136 M240,135L241,136 M292,135L293,136 M293,135L294,136 M349,135L350,136 M350,135L351,136 M414,135L415,136 M415,135L416,136 M124,136L125,137 M125,136L126,137 M151,136L152,137 M152,136L153,137 M192,136L193,137 M193,136L194,137 M194,136L195,137 M239,136L240,137 M240,136L241,137 M291,136L292,137 M292,136L293,137 M293,136L294,137 M349,136L350,137 M350,136L351,137 M414,136L415,137 M415,136L416,137 M124,137L125,138 M125,137L126,138 M151,137L152,138 M152,137L153,138 M192,137L193,138 M193,137L194,138 M239,137L240,138 M240,137L241,138 M241,137L242,138 M290,137L291,138 M291,137L292,138 M292,137L293,138 M349,137L350,138 M350,137L351,138 M414,137L415,138 M415,137L416,138 M124,138L125,139 M125,138L126,139 M151,138L152,139 M152,138L153,139 M153,138L154,139 M191,138L192,139 M192,138L193,139 M240,138L241,139 M241,138L242,139 M290,138L291,139 M291,138L292,139 M349,138L350,139 M350,138L351,139 M413,138L414,139 M414,138L415,139 M415,138L416,139 M124,139L125,140 M125,139L126,140 M152,139L153,140 M153,139L154,140 M191,139L192,140 M192,139L193,140 M240,139L241,140 M241,139L242,140 M290,139L291,140 M291,139L292,140 M348,139L349,140 M349,139L350,140 M413,139L414,140 M414,139L415,140 M124,140L125,141 M125,140L126,141 M152,140L153,141 M153,140L154,141 M190,140L191,141 M191,140L192,141 M241,140L242,141 M242,140L243,141 M290,140L291,141 M291,140L292,141 M348,140L349,141 M349,140L350,141 M413,140L414,141 M414,140L415,141 M124,141L125,142 M125,141L126,142 M152,141L153,142 M153,141L154,142 M190,141L191,142 M191,141L192,142 M241,141L242,142 M242,141L243,142 M290,141L291,142 M291,141L292,142 M348,141L349,142 M349,141L350,142 M413,141L414,142 M414,141L415,142 M124,142L125,143 M125,142L126,143 M152,142L153,143 M153,142L154,143 M189,142L190,143 M190,142L191,143 M241,142L242,143 M242,142L243,143 M290,142L291,143 M291,142L292,143 M348,142L349,143 M349,142L350,143 M412,142L413,143 M413,142L414,143 M124,143L125,144 M125,143L126,144 M153,143L154,144 M154,143L155,144 M189,143L190,144 M190,143L191,144 M242,143L243,144 M243,143L244,144 M289,143L290,144 M290,143L291,144 M347,143L348,144 M348,143L349,144 M412,143L413,144 M413,143L414,144 M123,144L124,145 M124,144L125,145 M153,144L154,145 M154,144L155,145 M188,144L189,145 M189,144L190,145 M242,144L243,145 M243,144L244,145 M288,144L289,145 M289,144L290,145 M347,144L348,145 M348,144L349,145 M412,144L413,145 M413,144L414,145 M123,145L124,146 M124,145L125,146 M153,145L154,146 M154,145L155,146 M187,145L188,146 M188,145L189,146 M189,145L190,146 M242,145L243,146 M243,145L244,146 M287,145L288,146 M288,145L289,146 M347,145L348,146 M348,145L349,146 M412,145L413,146 M413,145L414,146 M123,146L124,147 M124,146L125,147 M153,146L154,147 M154,146L155,147 M187,146L188,147 M188,146L189,147 M242,146L243,147 M243,146L244,147 M286,146L287,147 M287,146L288,147 M347,146L348,147 M348,146L349,147 M412,146L413,147 M413,146L414,147 M123,147L124,148 M124,147L125,148 M153,147L154,148 M154,147L155,148 M155,147L156,148 M186,147L187,148 M187,147L188,148 M188,147L189,148 M243,147L244,148 M244,147L245,148 M285,147L286,148 M286,147L287,148 M287,147L288,148 M346,147L347,148 M347,147L348,148 M411,147L412,148 M412,147L413,148 M123,148L124,149 M124,148L125,149 M154,148L155,149 M155,148L156,149 M186,148L187,149 M187,148L188,149 M243,148L244,149 M244,148L245,149 M284,148L285,149 M285,148L286,149 M286,148L287,149 M346,148L347,149 M347,148L348,149 M411,148L412,149 M412,148L413,149 M123,149L124,150 M124,149L125,150 M154,149L155,150 M155,149L156,150 M185,149L186,150 M186,149L187,150 M187,149L188,150 M243,149L244,150 M244,149L245,150 M284,149L285,150 M285,149L286,150 M346,149L347,150 M347,149L348,150 M411,149L412,150 M412,149L413,150 M123,150L124,151 M124,150L125,151 M154,150L155,151 M155,150L156,151 M185,150L186,151 M186,150L187,151 M243,150L244,151 M244,150L245,151 M283,150L284,151 M284,150L285,151 M346,150L347,151 M347,150L348,151 M411,150L412,151 M412,150L413,151 M123,151L124,152 M124,151L125,152 M154,151L155,152 M155,151L156,152 M156,151L157,152 M184,151L185,152 M185,151L186,152 M186,151L187,152 M243,151L244,152 M244,151L245,152 M245,151L246,152 M282,151L283,152 M283,151L284,152 M345,151L346,152 M346,151L347,152 M410,151L411,152 M411,151L412,152 M122,152L123,153 M123,152L124,153 M155,152L156,153 M156,152L157,153 M184,152L185,153 M185,152L186,153 M244,152L245,153 M245,152L246,153 M246,152L247,153 M281,152L282,153 M282,152L283,153 M345,152L346,153 M346,152L347,153 M410,152L411,153 M411,152L412,153 M122,153L123,154 M123,153L124,154 M155,153L156,154 M156,153L157,154 M183,153L184,154 M184,153L185,154 M185,153L186,154 M245,153L246,154 M246,153L247,154 M280,153L281,154 M281,153L282,154 M345,153L346,154 M346,153L347,154 M409,153L410,154 M410,153L411,154 M411,153L412,154 M122,154L123,155 M123,154L124,155 M156,154L157,155 M157,154L158,155 M183,154L184,155 M184,154L185,155 M246,154L247,155 M247,154L248,155 M279,154L280,155 M280,154L281,155 M344,154L345,155 M345,154L346,155 M346,154L347,155 M409,154L410,155 M410,154L411,155 M122,155L123,156 M123,155L124,156 M156,155L157,156 M157,155L158,156 M182,155L183,156 M183,155L184,156 M184,155L185,156 M246,155L247,156 M247,155L248,156 M278,155L279,156 M279,155L280,156 M344,155L345,156 M345,155L346,156 M408,155L409,156 M409,155L410,156 M410,155L411,156 M122,156L123,157 M123,156L124,157 M156,156L157,157 M157,156L158,157 M158,156L159,157 M182,156L183,157 M183,156L184,157 M247,156L248,157 M248,156L249,157 M277,156L278,157 M278,156L279,157 M344,156L345,157 M345,156L346,157 M408,156L409,157 M409,156L410,157 M122,157L123,158 M123,157L124,158 M157,157L158,158 M158,157L159,158 M182,157L183,158 M183,157L184,158 M247,157L248,158 M248,157L249,158 M249,157L250,158 M276,157L277,158 M277,157L278,158 M343,157L344,158 M344,157L345,158 M345,157L346,158 M407,157L408,158 M408,157L409,158 M409,157L410,158 M122,158L123,159 M123,158L124,159 M157,158L158,159 M158,158L159,159 M181,158L182,159 M182,158L183,159 M248,158L249,159 M249,158L250,159 M250,158L251,159 M274,158L275,159 M275,158L276,159 M276,158L277,159 M343,158L344,159 M344,158L345,159 M407,158L408,159 M408,158L409,159 M122,159L123,160 M123,159L124,160 M158,159L159,160 M159,159L160,160 M181,159L182,160 M182,159L183,160 M249,159L250,160 M250,159L251,160 M251,159L252,160 M272,159L273,160 M273,159L274,160 M274,159L275,160 M275,159L276,160 M343,159L344,160 M344,159L345,160 M407,159L408,160 M408,159L409,160 M122,160L123,161 M123,160L124,161 M158,160L159,161 M159,160L160,161 M180,160L181,161 M181,160L182,161 M250,160L251,161 M251,160L252,161 M271,160L272,161 M272,160L273,161 M273,160L274,161 M274,160L275,161 M343,160L344,161 M344,160L345,161 M407,160L408,161 M408,160L409,161 M122,161L123,162 M123,161L124,162 M158,161L159,162 M159,161L160,162 M160,161L161,162 M180,161L181,162 M181,161L182,162 M251,161L252,162 M252,161L253,162 M269,161L270,162 M270,161L271,162 M271,161L272,162 M272,161L273,162 M342,161L343,162 M343,161L344,162 M407,161L408,162 M408,161L409,162 M121,162L122,163 M122,162L123,163 M159,162L160,163 M160,162L161,163 M179,162L180,163 M180,162L181,163 M251,162L252,163 M252,162L253,163 M253,162L254,163 M267,162L268,163 M268,162L269,163 M269,162L270,163 M270,162L271,163 M342,162L343,163 M343,162L344,163 M407,162L408,163 M408,162L409,163 M121,163L122,164 M122,163L123,164 M159,163L160,164 M160,163L161,164 M179,163L180,164 M180,163L181,164 M252,163L253,164 M253,163L254,164 M254,163L255,164 M255,163L256,164 M256,163L257,164 M262,163L263,164 M263,163L264,164 M264,163L265,164 M265,163L266,164 M266,163L267,164 M267,163L268,164 M268,163L269,164 M269,163L270,164 M342,163L343,164 M343,163L344,164 M406,163L407,164 M407,163L408,164 M121,164L122,165 M122,164L123,165 M160,164L161,165 M161,164L162,165 M178,164L179,165 M179,164L180,165 M180,164L181,165 M253,164L254,165 M254,164L255,165 M255,164L256,165 M256,164L257,165 M257,164L258,165 M258,164L259,165 M259,164L260,165 M260,164L261,165 M261,164L262,165 M262,164L263,165 M263,164L264,165 M264,164L265,165 M265,164L266,165 M266,164L267,165 M267,164L268,165 M341,164L342,165 M342,164L343,165 M406,164L407,165 M407,164L408,165 M121,165L122,166 M122,165L123,166 M160,165L161,166 M161,165L162,166 M178,165L179,166 M179,165L180,166 M256,165L257,166 M257,165L258,166 M258,165L259,166 M259,165L260,166 M260,165L261,166 M261,165L262,166 M262,165L263,166 M341,165L342,166 M342,165L343,166 M405,165L406,166 M406,165L407,166 M407,165L408,166 M121,166L122,167 M122,166L123,167 M160,166L161,167 M161,166L162,167 M162,166L163,167 M177,166L178,167 M178,166L179,167 M179,166L180,167 M341,166L342,167 M342,166L343,167 M405,166L406,167 M406,166L407,167 M121,167L122,168 M122,167L123,168 M161,167L162,168 M162,167L163,168 M177,167L178,168 M178,167L179,168 M341,167L342,168 M342,167L343,168 M405,167L406,168 M406,167L407,168 M161,168L162,169 M162,168L163,169 M176,168L177,169 M177,168L178,169 M178,168L179,169 M341,168L342,169 M342,168L343,169 M404,168L405,169 M405,168L406,169 M406,168L407,169 M162,169L163,170 M163,169L164,170 M176,169L177,170 M177,169L178,170 M404,169L405,170 M405,169L406,170 M162,170L163,171 M163,170L164,171 M175,170L176,171 M176,170L177,171 M177,170L178,171 M403,170L404,171 M404,170L405,171 M405,170L406,171 M162,171L163,172 M163,171L164,172 M175,171L176,172 M176,171L177,172 M403,171L404,172 M404,171L405,172 M163,172L164,173 M164,172L165,173 M174,172L175,173 M175,172L176,173 M176,172L177,173 M402,172L403,173 M403,172L404,173 M163,173L164,174 M164,173L165,174 M174,173L175,174 M175,173L176,174 M402,173L403,174 M403,173L404,174 M164,174L165,175 M165,174L166,175 M173,174L174,175 M174,174L175,175 M175,174L176,175 M402,174L403,175 M403,174L404,175 M164,175L165,176 M165,175L166,176 M173,175L174,176 M174,175L175,176 M401,175L402,176 M402,175L403,176 M164,176L165,177 M165,176L166,177 M173,176L174,177 M174,176L175,177 M401,176L402,177 M402,176L403,177 M165,177L166,178 M166,177L167,178 M173,177L174,178 M174,177L175,178 M400,177L401,178 M401,177L402,178 M402,177L403,178 M165,178L166,179 M166,178L167,179 M173,178L174,179 M174,178L175,179 M400,178L401,179 M401,178L402,179 M166,179L167,180 M167,179L168,180 M173,179L174,180 M174,179L175,180 M400,179L401,180 M401,179L402,180 M166,180L167,181 M167,180L168,181 M168,180L169,181 M173,180L174,181 M174,180L175,181 M167,181L168,182 M168,181L169,182 M172,181L173,182 M173,181L174,182 M167,182L168,183 M168,182L169,183 M169,182L170,183 M172,182L173,183 M173,182L174,183 M168,183L169,184 M169,183L170,184 M172,183L173,184 M173,183L174,184 M169,184L170,185 M170,184L171,185 M172,184L173,185 M173,184L174,185 M169,185L170,186 M170,185L171,186 M171,185L172,186 M172,185L173,186 M173,185L174,186 M170,186L171,187 M171,186L172,187 M172,186L173,187 M170,187L171,188 M171,187L172,188 M172,187L173,188 M171,188L172,189 M172,188L173,189" fill="none" stroke="black" />
    </svg>