<svg xmlns="http://www.w3.org/2000/svg" width="800" height="250">
        <path d="M393,88L394,89 M394,88L395,89 M395,88L396,89 M396,88L397,89 M397,88L398,89 M398,88L399,89 M399,88L400,89 M400,88L401,89 M401,88L402,89 M402,88L403,89 M403,88L404,89 M404,88L405,89 M405,88L406,89 M406,88L407,89 M407,88L408,89 M408,88L409,89 M409,88L410,89 M410,88L411,89 M411,88L412,89 M412,88L413,89 M413,88L414,89 M414,88L415,89 M415,88L416,89 M416,88L417,89 M417,88L418,89 M418,88L419,89 M419,88L420,89 M420,88L421,89 M421,88L422,89 M422,88L423,89 M423,88L424,89 M424,88L425,89 M425,88L426,89 M426,88L427,89 M427,88L428,89 M428,88L429,89 M429,88L430,89 M430,88L431,89 M431,88L432,89 M432,88L433,89 M433,88L434,89 M434,88L435,89 M435,88L436,89 M436,88L437,89 M437,88L438,89 M438,88L439,89 M439,88L440,89 M440,88L441,89 M441,88L442,89 M442,88L443,89 M443,88L444,89 M444,88L445,89 M445,88L446,89 M446,88L447,89 M447,88L448,89 M448,88L449,89 M449,88L450,89 M450,88L451,89 M451,88L452,89 M452,88L453,89 M453,88L454,89 M454,88L455,89 M455,88L456,89 M456,88L457,89 M457,88L458,89 M458,88L459,89 M459,88L460,89 M460,88L461,89 M461,88L462,89 M462,88L463,89 M463,88L464,89 M464,88L465,89 M465,88L466,89 M466,88L467,89 M467,88L468,89 M468,88L469,89 M469,88L470,89 M470,88L471,89 M471,88L472,89 M472,88L473,89 M473,88L474,89 M474,88L475,89 M475,88L476,89 M476,88L477,89 M477,88L478,89 M478,88L479,89 M479,88L480,89 M480,88L481,89 M481,88L482,89 M482,88L483,89 M483,88L484,89 M484,88L485,89 M485,88L486,89 M486,88L487,89 M487,88L488,89 M488,88L489,89 M489,88L490,89 M490,88L491,89 M491,88L492,89 M492,88L493,89 M493,88L494,89 M494,88L495,89 M495,88L496,89 M496,88L497,89 M497,88L498,89 M498,88L499,89 M499,88L500,89 M500,88L501,89 M501,88L502,89 M502,88L503,89 M503,88L504,89 M504,88L505,89 M505,88L506,89 M506,88L507,89 M507,88L508,89 M508,88L509,89 M509,88L510,89 M510,88L511,89 M511,88L512,89 M512,88L513,89 M513,88L514,89 M514,88L515,89 M515,88L516,89 M516,88L517,89 M517,88L518,89 M378,89L379,90 M379,89L380,90 M380,89L381,90 M381,89L382,90 M382,89L383,90 M383,89L384,90 M384,89L385,90 M385,89L386,90 M386,89L387,90 M387,89L388,90 M388,89L389,90 M389,89L390,90 M390,89L391,90 M391,89L392,90 M392,89L393,90 M393,89L394,90 M394,89L395,90 M395,89L396,90 M396,89L397,90 M397,89L398,90 M398,89L399,90 M399,89L400,90 M400,89L401,90 M401,89L402,90 M402,89L403,90 M403,89L404,90 M404,89L405,90 M405,89L406,90 M406,89L407,90 M407,89L408,90 M408,89L409,90 M409,89L410,90 M410,89L411,90 M411,89L412,90 M412,89L413,90 M413,89L414,90 M414,89L415,90 M415,89L416,90 M416,89L417,90 M417,89L418,90 M418,89L419,90 M419,89L420,90 M420,89L421,90 M421,89L422,90 M422,89L423,90 M423,89L424,90 M424,89L425,90 M425,89L426,90 M426,89L427,90 M427,89L428,90 M428,89L429,90 M429,89L430,90 M430,89L431,90 M431,89L432,90 M432,89L433,90 M433,89L434,90 M434,89L435,90 M435,89L436,90 M436,89L437,90 M437,89L438,90 M438,89L439,90 M439,89L440,90 M440,89L441,90 M441,89L442,90 M442,89L443,90 M443,89L444,90 M444,89L445,90 M445,89L446,90 M446,89L447,90 M447,89L448,90 M448,89L449,90 M449,89L450,90 M450,89L451,90 M451,89L452,90 M452,89L453,90 M453,89L454,90 M454,89L455,90 M455,89L456,90 M456,89L457,90 M457,89L458,90 M458,89L459,90 M459,89L460,90 M460,89L461,90 M461,89L462,90 M462,89L463,90 M463,89L464,90 M464,89L465,90 M465,89L466,90 M466,89L467,90 M467,89L468,90 M468,89L469,90 M469,89L470,90 M470,89L471,90 M471,89L472,90 M472,89L473,90 M473,89L474,90 M474,89L475,90 M475,89L476,90 M476,89L477,90 M477,89L478,90 M478,89L479,90 M479,89L480,90 M480,89L481,90 M481,89L482,90 M482,89L483,90 M483,89L484,90 M484,89L485,90 M485,89L486,90 M486,89L487,90 M487,89L488,90 M488,89L489,90 M489,89L490,90 M490,89L491,90 M491,89L492,90 M492,89L493,90 M493,89L494,90 M494,89L495,90 M495,89L496,90 M496,89L497,90 M497,89L498,90 M498,89L499,90 M499,89L500,90 M500,89L501,90 M501,89L502,90 M502,89L503,90 M503,89L504,90 M504,89L505,90 M505,89L506,90 M506,89L507,90 M507,89L508,90 M508,89L509,90 M509,89L510,90 M510,89L511,90 M511,89L512,90 M512,89L513,90 M513,89L514,90 M514,89L515,90 M515,89L516,90 M516,89L517,90 M517,89L518,90 M518,89L519,90 M519,89L520,90 M520,89L521,90 M521,89L522,90 M522,89L523,90 M523,89L524,90 M524,89L525,90 M525,89L526,90 M526,89L527,90 M527,89L528,90 M528,89L529,90 M529,89L530,90 M530,89L531,90 M531,89L532,90 M532,89L533,90 M533,89L534,90 M534,89L535,90 M535,89L536,90 M536,89L537,90 M537,89L538,90 M538,89L539,90 M539,89L540,90 M540,89L541,90 M541,89L542,90 M542,89L543,90 M543,89L544,90 M544,89L545,90 M545,89L546,90 M364,90L365,91 M365,90L366,91 M366,90L367,91 M367,90L368,91 M368,90L369,91 M369,90L370,91 M370,90L371,91 M371,90L372,91 M372,90L373,91 M373,90L374,91 M374,90L375,91 M375,90L376,91 M376,90L377,91 M377,90L378,91 M378,90L379,91 M379,90L380,91 M380,90L381,91 M381,90L382,91 M382,90L383,91 M383,90L384,91 M384,90L385,91 M385,90L386,91 M386,90L387,91 M387,90L388,91 M388,90L389,91 M389,90L390,91 M390,90L391,91 M391,90L392,91 M392,90L393,91 M518,90L519,91 M519,90L520,91 M520,90L521,91 M521,90L522,91 M522,90L523,91 M523,90L524,91 M524,90L525,91 M525,90L526,91 M526,90L527,91 M527,90L528,91 M528,90L529,91 M529,90L530,91 M530,90L531,91 M531,90L532,91 M532,90L533,91 M533,90L534,91 M534,90L535,91 M535,90L536,91 M536,90L537,91 M537,90L538,91 M538,90L539,91 M539,90L540,91 M540,90L541,91 M541,90L542,91 M542,90L543,91 M543,90L544,91 M544,90L545,91 M545,90L546,91 M546,90L547,91 M547,90L548,91 M548,90L549,91 M549,90L550,91 M550,90L551,91 M551,90L552,91 M552,90L553,91 M553,90L554,91 M61,91L62,92 M62,91L63,92 M63,91L64,92 M64,91L65,92 M65,91L66,92 M357,91L358,92 M358,91L359,92 M359,91L360,92 M360,91L361,92 M361,91L362,92 M362,91L363,92 M363,91L364,92 M364,91L365,92 M365,91L366,92 M366,91L367,92 M367,91L368,92 M368,91L369,92 M369,91L370,92 M370,91L371,92 M371,91L372,92 M372,91L373,92 M373,91L374,92 M374,91L375,92 M375,91L376,92 M376,91L377,92 M377,91L378,92 M546,91L547,92 M547,91L548,92 M548,91L549,92 M549,91L550,92 M550,91L551,92 M551,91L552,92 M552,91L553,92 M553,91L554,92 M554,91L555,92 M555,91L556,92 M556,91L557,92 M557,91L558,92 M558,91L559,92 M559,91L560,92 M560,91L561,92 M561,91L562,92 M562,91L563,92 M563,91L564,92 M564,91L565,92 M565,91L566,92 M566,91L567,92 M567,91L568,92 M568,91L569,92 M569,91L570,92 M61,92L62,93 M62,92L63,93 M63,92L64,93 M64,92L65,93 M65,92L66,93 M66,92L67,93 M67,92L68,93 M350,92L351,93 M351,92L352,93 M352,92L353,93 M353,92L354,93 M354,92L355,93 M355,92L356,93 M356,92L357,93 M357,92L358,93 M358,92L359,93 M359,92L360,93 M360,92L361,93 M361,92L362,93 M362,92L363,93 M363,92L364,93 M554,92L555,93 M555,92L556,93 M556,92L557,93 M557,92L558,93 M558,92L559,93 M559,92L560,93 M560,92L561,93 M561,92L562,93 M562,92L563,93 M563,92L564,93 M564,92L565,93 M565,92L566,93 M566,92L567,93 M567,92L568,93 M568,92L569,93 M569,92L570,93 M570,92L571,93 M571,92L572,93 M572,92L573,93 M573,92L574,93 M574,92L575,93 M575,92L576,93 M65,93L66,94 M66,93L67,94 M67,93L68,94 M68,93L69,94 M69,93L70,94 M70,93L71,94 M71,93L72,94 M72,93L73,94 M73,93L74,94 M344,93L345,94 M345,93L346,94 M346,93L347,94 M347,93L348,94 M348,93L349,94 M349,93L350,94 M350,93L351,94 M351,93L352,94 M352,93L353,94 M353,93L354,94 M354,93L355,94 M355,93L356,94 M356,93L357,94 M570,93L571,94 M571,93L572,94 M572,93L573,94 M573,93L574,94 M574,93L575,94 M575,93L576,94 M576,93L577,94 M577,93L578,94 M578,93L579,94 M579,93L580,94 M580,93L581,94 M581,93L582,94 M67,94L68,95 M68,94L69,95 M69,94L70,95 M70,94L71,95 M71,94L72,95 M72,94L73,95 M73,94L74,95 M74,94L75,95 M75,94L76,95 M337,94L338,95 M338,94L339,95 M339,94L340,95 M340,94L341,95 M341,94L342,95 M342,94L343,95 M343,94L344,95 M344,94L345,95 M345,94L346,95 M346,94L347,95 M347,94L348,95 M348,94L349,95 M349,94L350,95 M350,94L351,95 M576,94L577,95 M577,94L578,95 M578,94L579,95 M579,94L580,95 M580,94L581,95 M581,94L582,95 M582,94L583,95 M583,94L584,95 M584,94L585,95 M585,94L586,95 M586,94L587,95 M587,94L588,95 M588,94L589,95 M73,95L74,96 M74,95L75,96 M75,95L76,96 M76,95L77,96 M77,95L78,96 M78,95L79,96 M331,95L332,96 M332,95L333,96 M333,95L334,96 M334,95L335,96 M335,95L336,96 M336,95L337,96 M337,95L338,96 M338,95L339,96 M339,95L340,96 M340,95L341,96 M341,95L342,96 M342,95L343,96 M343,95L344,96 M582,95L583,96 M583,95L584,96 M584,95L585,96 M585,95L586,96 M586,95L587,96 M587,95L588,96 M588,95L589,96 M589,95L590,96 M590,95L591,96 M591,95L592,96 M592,95L593,96 M593,95L594,96 M594,95L595,96 M595,95L596,96 M596,95L597,96 M75,96L76,97 M76,96L77,97 M77,96L78,97 M78,96L79,97 M79,96L80,97 M80,96L81,97 M81,96L82,97 M82,96L83,97 M324,96L325,97 M325,96L326,97 M326,96L327,97 M327,96L328,97 M328,96L329,97 M329,96L330,97 M330,96L331,97 M331,96L332,97 M332,96L333,97 M333,96L334,97 M334,96L335,97 M335,96L336,97 M336,96L337,97 M589,96L590,97 M590,96L591,97 M591,96L592,97 M592,96L593,97 M593,96L594,97 M594,96L595,97 M595,96L596,97 M596,96L597,97 M597,96L598,97 M598,96L599,97 M599,96L600,97 M600,96L601,97 M601,96L602,97 M79,97L80,98 M80,97L81,98 M81,97L82,98 M82,97L83,98 M83,97L84,98 M84,97L85,98 M85,97L86,98 M86,97L87,98 M318,97L319,98 M319,97L320,98 M320,97L321,98 M321,97L322,98 M322,97L323,98 M323,97L324,98 M324,97L325,98 M325,97L326,98 M326,97L327,98 M327,97L328,98 M328,97L329,98 M329,97L330,98 M330,97L331,98 M596,97L597,98 M597,97L598,98 M598,97L599,98 M599,97L600,98 M600,97L601,98 M601,97L602,98 M602,97L603,98 M603,97L604,98 M604,97L605,98 M605,97L606,98 M606,97L607,98 M607,97L608,98 M82,98L83,99 M83,98L84,99 M84,98L85,99 M85,98L86,99 M86,98L87,99 M87,98L88,99 M88,98L89,99 M89,98L90,99 M90,98L91,99 M312,98L313,99 M313,98L314,99 M314,98L315,99 M315,98L316,99 M316,98L317,99 M317,98L318,99 M318,98L319,99 M319,98L320,99 M320,98L321,99 M321,98L322,99 M322,98L323,99 M323,98L324,99 M602,98L603,99 M603,98L604,99 M604,98L605,99 M605,98L606,99 M606,98L607,99 M607,98L608,99 M608,98L609,99 M609,98L610,99 M610,98L611,99 M611,98L612,99 M86,99L87,100 M87,99L88,100 M88,99L89,100 M89,99L90,100 M90,99L91,100 M91,99L92,100 M92,99L93,100 M93,99L94,100 M94,99L95,100 M305,99L306,100 M306,99L307,100 M307,99L308,100 M308,99L309,100 M309,99L310,100 M310,99L311,100 M311,99L312,100 M312,99L313,100 M313,99L314,100 M314,99L315,100 M315,99L316,100 M316,99L317,100 M317,99L318,100 M607,99L608,100 M608,99L609,100 M609,99L610,100 M610,99L611,100 M611,99L612,100 M612,99L613,100 M613,99L614,100 M614,99L615,100 M615,99L616,100 M616,99L617,100 M90,100L91,101 M91,100L92,101 M92,100L93,101 M93,100L94,101 M94,100L95,101 M95,100L96,101 M96,100L97,101 M97,100L98,101 M98,100L99,101 M99,100L100,101 M297,100L298,101 M298,100L299,101 M299,100L300,101 M300,100L301,101 M301,100L302,101 M302,100L303,101 M303,100L304,101 M304,100L305,101 M305,100L306,101 M306,100L307,101 M307,100L308,101 M308,100L309,101 M309,100L310,101 M310,100L311,101 M311,100L312,101 M612,100L613,101 M613,100L614,101 M614,100L615,101 M615,100L616,101 M616,100L617,101 M617,100L618,101 M618,100L619,101 M619,100L620,101 M95,101L96,102 M96,101L97,102 M97,101L98,102 M98,101L99,102 M99,101L100,102 M100,101L101,102 M101,101L102,102 M102,101L103,102 M103,101L104,102 M290,101L291,102 M291,101L292,102 M292,101L293,102 M293,101L294,102 M294,101L295,102 M295,101L296,102 M296,101L297,102 M297,101L298,102 M298,101L299,102 M299,101L300,102 M300,101L301,102 M301,101L302,102 M302,101L303,102 M303,101L304,102 M304,101L305,102 M616,101L617,102 M617,101L618,102 M618,101L619,102 M619,101L620,102 M620,101L621,102 M621,101L622,102 M622,101L623,102 M623,101L624,102 M99,102L100,103 M100,102L101,103 M101,102L102,103 M102,102L103,103 M103,102L104,103 M104,102L105,103 M105,102L106,103 M106,102L107,103 M107,102L108,103 M284,102L285,103 M285,102L286,103 M286,102L287,103 M287,102L288,103 M288,102L289,103 M289,102L290,103 M290,102L291,103 M291,102L292,103 M292,102L293,103 M293,102L294,103 M294,102L295,103 M295,102L296,103 M296,102L297,103 M620,102L621,103 M621,102L622,103 M622,102L623,103 M623,102L624,103 M624,102L625,103 M625,102L626,103 M103,103L104,104 M104,103L105,104 M105,103L106,104 M106,103L107,104 M107,103L108,104 M108,103L109,104 M109,103L110,104 M110,103L111,104 M111,103L112,104 M278,103L279,104 M279,103L280,104 M280,103L281,104 M281,103L282,104 M282,103L283,104 M283,103L284,104 M284,103L285,104 M285,103L286,104 M286,103L287,104 M287,103L288,104 M288,103L289,104 M289,103L290,104 M623,103L624,104 M624,103L625,104 M625,103L626,104 M626,103L627,104 M627,103L628,104 M628,103L629,104 M107,104L108,105 M108,104L109,105 M109,104L110,105 M110,104L111,105 M111,104L112,105 M112,104L113,105 M113,104L114,105 M114,104L115,105 M115,104L116,105 M272,104L273,105 M273,104L274,105 M274,104L275,105 M275,104L276,105 M276,104L277,105 M277,104L278,105 M278,104L279,105 M279,104L280,105 M280,104L281,105 M281,104L282,105 M282,104L283,105 M283,104L284,105 M626,104L627,105 M627,104L628,105 M628,104L629,105 M629,104L630,105 M111,105L112,106 M112,105L113,106 M113,105L114,106 M114,105L115,106 M115,105L116,106 M116,105L117,106 M117,105L118,106 M118,105L119,106 M119,105L120,106 M120,105L121,106 M264,105L265,106 M265,105L266,106 M266,105L267,106 M267,105L268,106 M268,105L269,106 M269,105L270,106 M270,105L271,106 M271,105L272,106 M272,105L273,106 M273,105L274,106 M274,105L275,106 M275,105L276,106 M276,105L277,106 M277,105L278,106 M628,105L629,106 M629,105L630,106 M630,105L631,106 M631,105L632,106 M116,106L117,107 M117,106L118,107 M118,106L119,107 M119,106L120,107 M120,106L121,107 M121,106L122,107 M122,106L123,107 M123,106L124,107 M124,106L125,107 M125,106L126,107 M256,106L257,107 M257,106L258,107 M258,106L259,107 M259,106L260,107 M260,106L261,107 M261,106L262,107 M262,106L263,107 M263,106L264,107 M264,106L265,107 M265,106L266,107 M266,106L267,107 M267,106L268,107 M268,106L269,107 M269,106L270,107 M270,106L271,107 M271,106L272,107 M630,106L631,107 M631,106L632,107 M632,106L633,107 M121,107L122,108 M122,107L123,108 M123,107L124,108 M124,107L125,108 M125,107L126,108 M126,107L127,108 M127,107L128,108 M128,107L129,108 M249,107L250,108 M250,107L251,108 M251,107L252,108 M252,107L253,108 M253,107L254,108 M254,107L255,108 M255,107L256,108 M256,107L257,108 M257,107L258,108 M258,107L259,108 M259,107L260,108 M260,107L261,108 M261,107L262,108 M262,107L263,108 M263,107L264,108 M631,107L632,108 M632,107L633,108 M633,107L634,108 M125,108L126,109 M126,108L127,109 M127,108L128,109 M128,108L129,109 M129,108L130,109 M130,108L131,109 M131,108L132,109 M132,108L133,109 M242,108L243,109 M243,108L244,109 M244,108L245,109 M245,108L246,109 M246,108L247,109 M247,108L248,109 M248,108L249,109 M249,108L250,109 M250,108L251,109 M251,108L252,109 M252,108L253,109 M253,108L254,109 M254,108L255,109 M255,108L256,109 M632,108L633,109 M633,108L634,109 M634,108L635,109 M129,109L130,110 M130,109L131,110 M131,109L132,110 M132,109L133,110 M133,109L134,110 M134,109L135,110 M135,109L136,110 M136,109L137,110 M237,109L238,110 M238,109L239,110 M239,109L240,110 M240,109L241,110 M241,109L242,110 M242,109L243,110 M243,109L244,110 M244,109L245,110 M245,109L246,110 M246,109L247,110 M247,109L248,110 M248,109L249,110 M633,109L634,110 M634,109L635,110 M133,110L134,111 M134,110L135,111 M135,110L136,111 M136,110L137,111 M137,110L138,111 M138,110L139,111 M139,110L140,111 M140,110L141,111 M232,110L233,111 M233,110L234,111 M234,110L235,111 M235,110L236,111 M236,110L237,111 M237,110L238,111 M238,110L239,111 M239,110L240,111 M240,110L241,111 M241,110L242,111 M632,110L633,111 M633,110L634,111 M634,110L635,111 M137,111L138,112 M138,111L139,112 M139,111L140,112 M140,111L141,112 M141,111L142,112 M142,111L143,112 M143,111L144,112 M144,111L145,112 M219,111L220,112 M220,111L221,112 M221,111L222,112 M222,111L223,112 M223,111L224,112 M224,111L225,112 M225,111L226,112 M226,111L227,112 M227,111L228,112 M228,111L229,112 M229,111L230,112 M230,111L231,112 M231,111L232,112 M232,111L233,112 M233,111L234,112 M234,111L235,112 M235,111L236,112 M236,111L237,112 M631,111L632,112 M632,111L633,112 M633,111L634,112 M140,112L141,113 M141,112L142,113 M142,112L143,113 M143,112L144,113 M144,112L145,113 M145,112L146,113 M146,112L147,113 M147,112L148,113 M148,112L149,113 M149,112L150,113 M217,112L218,113 M218,112L219,113 M219,112L220,113 M220,112L221,113 M221,112L222,113 M222,112L223,113 M223,112L224,113 M224,112L225,113 M225,112L226,113 M226,112L227,113 M227,112L228,113 M228,112L229,113 M229,112L230,113 M230,112L231,113 M231,112L232,113 M629,112L630,113 M630,112L631,113 M631,112L632,113 M632,112L633,113 M145,113L146,114 M146,113L147,114 M147,113L148,114 M148,113L149,114 M149,113L150,114 M150,113L151,114 M151,113L152,114 M152,113L153,114 M153,113L154,114 M154,113L155,114 M215,113L216,114 M216,113L217,114 M217,113L218,114 M218,113L219,114 M563,113L564,114 M564,113L565,114 M565,113L566,114 M566,113L567,114 M567,113L568,114 M568,113L569,114 M569,113L570,114 M570,113L571,114 M571,113L572,114 M572,113L573,114 M573,113L574,114 M574,113L575,114 M575,113L576,114 M576,113L577,114 M577,113L578,114 M578,113L579,114 M579,113L580,114 M580,113L581,114 M581,113L582,114 M582,113L583,114 M583,113L584,114 M584,113L585,114 M585,113L586,114 M586,113L587,114 M587,113L588,114 M588,113L589,114 M589,113L590,114 M627,113L628,114 M628,113L629,114 M629,113L630,114 M630,113L631,114 M631,113L632,114 M150,114L151,115 M151,114L152,115 M152,114L153,115 M153,114L154,115 M154,114L155,115 M155,114L156,115 M156,114L157,115 M157,114L158,115 M158,114L159,115 M159,114L160,115 M215,114L216,115 M216,114L217,115 M217,114L218,115 M220,114L221,115 M556,114L557,115 M557,114L558,115 M558,114L559,115 M559,114L560,115 M560,114L561,115 M561,114L562,115 M562,114L563,115 M563,114L564,115 M564,114L565,115 M565,114L566,115 M566,114L567,115 M567,114L568,115 M568,114L569,115 M569,114L570,115 M570,114L571,115 M571,114L572,115 M572,114L573,115 M573,114L574,115 M574,114L575,115 M575,114L576,115 M576,114L577,115 M577,114L578,115 M578,114L579,115 M579,114L580,115 M580,114L581,115 M581,114L582,115 M582,114L583,115 M583,114L584,115 M584,114L585,115 M585,114L586,115 M586,114L587,115 M587,114L588,115 M588,114L589,115 M589,114L590,115 M625,114L626,115 M626,114L627,115 M627,114L628,115 M628,114L629,115 M155,115L156,116 M156,115L157,116 M157,115L158,116 M158,115L159,116 M159,115L160,116 M160,115L161,116 M161,115L162,116 M162,115L163,116 M215,115L216,116 M216,115L217,116 M217,115L218,116 M218,115L219,116 M219,115L220,116 M220,115L221,116 M221,115L222,116 M222,115L223,116 M223,115L224,116 M224,115L225,116 M225,115L226,116 M527,115L528,116 M528,115L529,116 M529,115L530,116 M530,115L531,116 M531,115L532,116 M532,115L533,116 M533,115L534,116 M534,115L535,116 M535,115L536,116 M536,115L537,116 M537,115L538,116 M538,115L539,116 M539,115L540,116 M540,115L541,116 M541,115L542,116 M542,115L543,116 M543,115L544,116 M544,115L545,116 M545,115L546,116 M546,115L547,116 M547,115L548,116 M548,115L549,116 M549,115L550,116 M550,115L551,116 M551,115L552,116 M552,115L553,116 M553,115L554,116 M554,115L555,116 M555,115L556,116 M556,115L557,116 M557,115L558,116 M558,115L559,116 M559,115L560,116 M560,115L561,116 M561,115L562,116 M562,115L563,116 M563,115L564,116 M573,115L574,116 M574,115L575,116 M575,115L576,116 M576,115L577,116 M577,115L578,116 M578,115L579,116 M579,115L580,116 M580,115L581,116 M622,115L623,116 M623,115L624,116 M624,115L625,116 M625,115L626,116 M626,115L627,116 M159,116L160,117 M160,116L161,117 M161,116L162,117 M162,116L163,117 M163,116L164,117 M164,116L165,117 M165,116L166,117 M166,116L167,117 M217,116L218,117 M218,116L219,117 M219,116L220,117 M220,116L221,117 M221,116L222,117 M222,116L223,117 M223,116L224,117 M224,116L225,117 M225,116L226,117 M226,116L227,117 M227,116L228,117 M228,116L229,117 M229,116L230,117 M230,116L231,117 M231,116L232,117 M232,116L233,117 M233,116L234,117 M234,116L235,117 M235,116L236,117 M236,116L237,117 M237,116L238,117 M238,116L239,117 M239,116L240,117 M240,116L241,117 M241,116L242,117 M516,116L517,117 M517,116L518,117 M518,116L519,117 M519,116L520,117 M520,116L521,117 M521,116L522,117 M522,116L523,117 M523,116L524,117 M524,116L525,117 M525,116L526,117 M526,116L527,117 M527,116L528,117 M528,116L529,117 M529,116L530,117 M530,116L531,117 M531,116L532,117 M532,116L533,117 M533,116L534,117 M534,116L535,117 M535,116L536,117 M536,116L537,117 M537,116L538,117 M538,116L539,117 M539,116L540,117 M540,116L541,117 M541,116L542,117 M542,116L543,117 M543,116L544,117 M544,116L545,117 M545,116L546,117 M546,116L547,117 M547,116L548,117 M548,116L549,117 M549,116L550,117 M550,116L551,117 M551,116L552,117 M552,116L553,117 M553,116L554,117 M554,116L555,117 M555,116L556,117 M569,116L570,117 M570,116L571,117 M571,116L572,117 M572,116L573,117 M573,116L574,117 M574,116L575,117 M575,116L576,117 M576,116L577,117 M577,116L578,117 M619,116L620,117 M620,116L621,117 M621,116L622,117 M622,116L623,117 M623,116L624,117 M624,116L625,117 M163,117L164,118 M164,117L165,118 M165,117L166,118 M166,117L167,118 M167,117L168,118 M168,117L169,118 M169,117L170,118 M170,117L171,118 M225,117L226,118 M226,117L227,118 M227,117L228,118 M228,117L229,118 M229,117L230,118 M230,117L231,118 M231,117L232,118 M232,117L233,118 M233,117L234,118 M234,117L235,118 M235,117L236,118 M236,117L237,118 M237,117L238,118 M238,117L239,118 M239,117L240,118 M240,117L241,118 M241,117L242,118 M242,117L243,118 M243,117L244,118 M244,117L245,118 M245,117L246,118 M246,117L247,118 M247,117L248,118 M248,117L249,118 M249,117L250,118 M250,117L251,118 M251,117L252,118 M252,117L253,118 M253,117L254,118 M254,117L255,118 M255,117L256,118 M256,117L257,118 M257,117L258,118 M258,117L259,118 M259,117L260,118 M260,117L261,118 M261,117L262,118 M262,117L263,118 M263,117L264,118 M264,117L265,118 M265,117L266,118 M266,117L267,118 M267,117L268,118 M268,117L269,118 M269,117L270,118 M270,117L271,118 M271,117L272,118 M272,117L273,118 M273,117L274,118 M274,117L275,118 M275,117L276,118 M276,117L277,118 M277,117L278,118 M278,117L279,118 M279,117L280,118 M280,117L281,118 M281,117L282,118 M282,117L283,118 M283,117L284,118 M284,117L285,118 M285,117L286,118 M286,117L287,118 M287,117L288,118 M288,117L289,118 M493,117L494,118 M494,117L495,118 M495,117L496,118 M496,117L497,118 M497,117L498,118 M498,117L499,118 M499,117L500,118 M500,117L501,118 M501,117L502,118 M502,117L503,118 M503,117L504,118 M504,117L505,118 M505,117L506,118 M506,117L507,118 M507,117L508,118 M508,117L509,118 M509,117L510,118 M510,117L511,118 M511,117L512,118 M512,117L513,118 M513,117L514,118 M514,117L515,118 M515,117L516,118 M516,117L517,118 M517,117L518,118 M518,117L519,118 M519,117L520,118 M520,117L521,118 M521,117L522,118 M522,117L523,118 M523,117L524,118 M524,117L525,118 M525,117L526,118 M526,117L527,118 M564,117L565,118 M565,117L566,118 M566,117L567,118 M567,117L568,118 M568,117L569,118 M569,117L570,118 M570,117L571,118 M571,117L572,118 M572,117L573,118 M615,117L616,118 M616,117L617,118 M617,117L618,118 M618,117L619,118 M619,117L620,118 M620,117L621,118 M621,117L622,118 M167,118L168,119 M168,118L169,119 M169,118L170,119 M170,118L171,119 M171,118L172,119 M172,118L173,119 M173,118L174,119 M242,118L243,119 M243,118L244,119 M244,118L245,119 M245,118L246,119 M246,118L247,119 M247,118L248,119 M248,118L249,119 M249,118L250,119 M250,118L251,119 M251,118L252,119 M252,118L253,119 M253,118L254,119 M254,118L255,119 M255,118L256,119 M256,118L257,119 M257,118L258,119 M258,118L259,119 M259,118L260,119 M260,118L261,119 M261,118L262,119 M262,118L263,119 M263,118L264,119 M264,118L265,119 M265,118L266,119 M266,118L267,119 M267,118L268,119 M268,118L269,119 M269,118L270,119 M270,118L271,119 M271,118L272,119 M272,118L273,119 M273,118L274,119 M274,118L275,119 M275,118L276,119 M276,118L277,119 M277,118L278,119 M278,118L279,119 M279,118L280,119 M280,118L281,119 M281,118L282,119 M282,118L283,119 M283,118L284,119 M284,118L285,119 M285,118L286,119 M286,118L287,119 M287,118L288,119 M288,118L289,119 M289,118L290,119 M290,118L291,119 M291,118L292,119 M292,118L293,119 M293,118L294,119 M294,118L295,119 M295,118L296,119 M296,118L297,119 M297,118L298,119 M298,118L299,119 M299,118L300,119 M300,118L301,119 M301,118L302,119 M302,118L303,119 M303,118L304,119 M304,118L305,119 M305,118L306,119 M306,118L307,119 M307,118L308,119 M308,118L309,119 M309,118L310,119 M310,118L311,119 M311,118L312,119 M312,118L313,119 M313,118L314,119 M314,118L315,119 M315,118L316,119 M316,118L317,119 M317,118L318,119 M318,118L319,119 M319,118L320,119 M320,118L321,119 M321,118L322,119 M322,118L323,119 M323,118L324,119 M324,118L325,119 M325,118L326,119 M326,118L327,119 M327,118L328,119 M328,118L329,119 M329,118L330,119 M330,118L331,119 M331,118L332,119 M332,118L333,119 M333,118L334,119 M334,118L335,119 M335,118L336,119 M336,118L337,119 M337,118L338,119 M338,118L339,119 M339,118L340,119 M340,118L341,119 M341,118L342,119 M342,118L343,119 M343,118L344,119 M344,118L345,119 M345,118L346,119 M346,118L347,119 M347,118L348,119 M348,118L349,119 M349,118L350,119 M350,118L351,119 M351,118L352,119 M352,118L353,119 M353,118L354,119 M354,118L355,119 M355,118L356,119 M356,118L357,119 M357,118L358,119 M358,118L359,119 M359,118L360,119 M360,118L361,119 M361,118L362,119 M362,118L363,119 M363,118L364,119 M364,118L365,119 M365,118L366,119 M366,118L367,119 M367,118L368,119 M368,118L369,119 M369,118L370,119 M370,118L371,119 M371,118L372,119 M372,118L373,119 M373,118L374,119 M374,118L375,119 M375,118L376,119 M376,118L377,119 M377,118L378,119 M378,118L379,119 M379,118L380,119 M380,118L381,119 M381,118L382,119 M382,118L383,119 M383,118L384,119 M384,118L385,119 M385,118L386,119 M386,118L387,119 M387,118L388,119 M388,118L389,119 M389,118L390,119 M390,118L391,119 M391,118L392,119 M392,118L393,119 M393,118L394,119 M394,118L395,119 M395,118L396,119 M396,118L397,119 M397,118L398,119 M398,118L399,119 M399,118L400,119 M400,118L401,119 M401,118L402,119 M402,118L403,119 M403,118L404,119 M404,118L405,119 M405,118L406,119 M406,118L407,119 M407,118L408,119 M408,118L409,119 M409,118L410,119 M410,118L411,119 M411,118L412,119 M412,118L413,119 M413,118L414,119 M414,118L415,119 M415,118L416,119 M416,118L417,119 M417,118L418,119 M418,118L419,119 M419,118L420,119 M420,118L421,119 M421,118L422,119 M422,118L423,119 M423,118L424,119 M424,118L425,119 M425,118L426,119 M426,118L427,119 M427,118L428,119 M428,118L429,119 M429,118L430,119 M430,118L431,119 M431,118L432,119 M432,118L433,119 M433,118L434,119 M434,118L435,119 M435,118L436,119 M436,118L437,119 M437,118L438,119 M438,118L439,119 M439,118L440,119 M440,118L441,119 M441,118L442,119 M442,118L443,119 M443,118L444,119 M444,118L445,119 M445,118L446,119 M446,118L447,119 M447,118L448,119 M448,118L449,119 M449,118L450,119 M450,118L451,119 M451,118L452,119 M452,118L453,119 M453,118L454,119 M454,118L455,119 M455,118L456,119 M456,118L457,119 M457,118L458,119 M458,118L459,119 M459,118L460,119 M460,118L461,119 M461,118L462,119 M462,118L463,119 M463,118L464,119 M464,118L465,119 M465,118L466,119 M466,118L467,119 M467,118L468,119 M468,118L469,119 M469,118L470,119 M470,118L471,119 M471,118L472,119 M472,118L473,119 M473,118L474,119 M474,118L475,119 M475,118L476,119 M476,118L477,119 M477,118L478,119 M478,118L479,119 M479,118L480,119 M480,118L481,119 M481,118L482,119 M482,118L483,119 M483,118L484,119 M484,118L485,119 M485,118L486,119 M486,118L487,119 M487,118L488,119 M488,118L489,119 M489,118L490,119 M490,118L491,119 M491,118L492,119 M492,118L493,119 M493,118L494,119 M494,118L495,119 M495,118L496,119 M496,118L497,119 M497,118L498,119 M498,118L499,119 M499,118L500,119 M500,118L501,119 M501,118L502,119 M502,118L503,119 M503,118L504,119 M504,118L505,119 M505,118L506,119 M506,118L507,119 M507,118L508,119 M508,118L509,119 M509,118L510,119 M510,118L511,119 M511,118L512,119 M512,118L513,119 M513,118L514,119 M514,118L515,119 M515,118L516,119 M560,118L561,119 M561,118L562,119 M562,118L563,119 M563,118L564,119 M564,118L565,119 M565,118L566,119 M566,118L567,119 M567,118L568,119 M568,118L569,119 M612,118L613,119 M613,118L614,119 M614,118L615,119 M615,118L616,119 M616,118L617,119 M617,118L618,119 M618,118L619,119 M170,119L171,120 M171,119L172,120 M172,119L173,120 M173,119L174,120 M174,119L175,120 M175,119L176,120 M176,119L177,120 M177,119L178,120 M289,119L290,120 M290,119L291,120 M291,119L292,120 M292,119L293,120 M293,119L294,120 M294,119L295,120 M295,119L296,120 M296,119L297,120 M297,119L298,120 M298,119L299,120 M299,119L300,120 M300,119L301,120 M301,119L302,120 M302,119L303,120 M303,119L304,120 M304,119L305,120 M305,119L306,120 M306,119L307,120 M307,119L308,120 M308,119L309,120 M309,119L310,120 M310,119L311,120 M311,119L312,120 M312,119L313,120 M313,119L314,120 M314,119L315,120 M315,119L316,120 M316,119L317,120 M317,119L318,120 M318,119L319,120 M319,119L320,120 M320,119L321,120 M321,119L322,120 M322,119L323,120 M323,119L324,120 M324,119L325,120 M325,119L326,120 M326,119L327,120 M327,119L328,120 M328,119L329,120 M329,119L330,120 M330,119L331,120 M331,119L332,120 M332,119L333,120 M333,119L334,120 M334,119L335,120 M335,119L336,120 M336,119L337,120 M337,119L338,120 M338,119L339,120 M339,119L340,120 M340,119L341,120 M341,119L342,120 M342,119L343,120 M343,119L344,120 M344,119L345,120 M345,119L346,120 M346,119L347,120 M347,119L348,120 M348,119L349,120 M349,119L350,120 M350,119L351,120 M351,119L352,120 M352,119L353,120 M353,119L354,120 M354,119L355,120 M355,119L356,120 M356,119L357,120 M357,119L358,120 M358,119L359,120 M359,119L360,120 M360,119L361,120 M361,119L362,120 M362,119L363,120 M363,119L364,120 M364,119L365,120 M365,119L366,120 M366,119L367,120 M367,119L368,120 M368,119L369,120 M369,119L370,120 M370,119L371,120 M371,119L372,120 M372,119L373,120 M373,119L374,120 M374,119L375,120 M375,119L376,120 M376,119L377,120 M377,119L378,120 M378,119L379,120 M379,119L380,120 M380,119L381,120 M381,119L382,120 M382,119L383,120 M383,119L384,120 M384,119L385,120 M385,119L386,120 M386,119L387,120 M387,119L388,120 M388,119L389,120 M389,119L390,120 M390,119L391,120 M391,119L392,120 M392,119L393,120 M393,119L394,120 M394,119L395,120 M395,119L396,120 M396,119L397,120 M397,119L398,120 M398,119L399,120 M399,119L400,120 M400,119L401,120 M401,119L402,120 M402,119L403,120 M403,119L404,120 M404,119L405,120 M405,119L406,120 M406,119L407,120 M407,119L408,120 M408,119L409,120 M409,119L410,120 M410,119L411,120 M411,119L412,120 M412,119L413,120 M413,119L414,120 M414,119L415,120 M415,119L416,120 M416,119L417,120 M417,119L418,120 M418,119L419,120 M419,119L420,120 M420,119L421,120 M421,119L422,120 M422,119L423,120 M423,119L424,120 M424,119L425,120 M425,119L426,120 M426,119L427,120 M427,119L428,120 M428,119L429,120 M429,119L430,120 M430,119L431,120 M431,119L432,120 M432,119L433,120 M433,119L434,120 M434,119L435,120 M435,119L436,120 M436,119L437,120 M437,119L438,120 M438,119L439,120 M439,119L440,120 M440,119L441,120 M441,119L442,120 M442,119L443,120 M443,119L444,120 M444,119L445,120 M445,119L446,120 M446,119L447,120 M447,119L448,120 M448,119L449,120 M449,119L450,120 M450,119L451,120 M451,119L452,120 M452,119L453,120 M453,119L454,120 M454,119L455,120 M455,119L456,120 M456,119L457,120 M457,119L458,120 M458,119L459,120 M459,119L460,120 M460,119L461,120 M461,119L462,120 M462,119L463,120 M463,119L464,120 M464,119L465,120 M465,119L466,120 M466,119L467,120 M467,119L468,120 M468,119L469,120 M469,119L470,120 M470,119L471,120 M471,119L472,120 M472,119L473,120 M473,119L474,120 M474,119L475,120 M475,119L476,120 M476,119L477,120 M477,119L478,120 M478,119L479,120 M479,119L480,120 M480,119L481,120 M481,119L482,120 M482,119L483,120 M483,119L484,120 M484,119L485,120 M485,119L486,120 M486,119L487,120 M487,119L488,120 M488,119L489,120 M489,119L490,120 M490,119L491,120 M491,119L492,120 M492,119L493,120 M547,119L548,120 M548,119L549,120 M549,119L550,120 M550,119L551,120 M551,119L552,120 M552,119L553,120 M553,119L554,120 M554,119L555,120 M555,119L556,120 M556,119L557,120 M557,119L558,120 M558,119L559,120 M559,119L560,120 M560,119L561,120 M561,119L562,120 M562,119L563,120 M563,119L564,120 M609,119L610,120 M610,119L611,120 M611,119L612,120 M612,119L613,120 M613,119L614,120 M614,119L615,120 M174,120L175,121 M175,120L176,121 M176,120L177,121 M177,120L178,121 M178,120L179,121 M179,120L180,121 M180,120L181,121 M181,120L182,121 M539,120L540,121 M540,120L541,121 M541,120L542,121 M542,120L543,121 M543,120L544,121 M544,120L545,121 M545,120L546,121 M546,120L547,121 M547,120L548,121 M548,120L549,121 M549,120L550,121 M550,120L551,121 M551,120L552,121 M552,120L553,121 M553,120L554,121 M554,120L555,121 M555,120L556,121 M556,120L557,121 M557,120L558,121 M558,120L559,121 M559,120L560,121 M606,120L607,121 M607,120L608,121 M608,120L609,121 M609,120L610,121 M610,120L611,121 M611,120L612,121 M178,121L179,122 M179,121L180,122 M180,121L181,122 M181,121L182,122 M182,121L183,122 M183,121L184,122 M184,121L185,122 M185,121L186,122 M186,121L187,122 M531,121L532,122 M532,121L533,122 M533,121L534,122 M534,121L535,122 M535,121L536,122 M536,121L537,122 M537,121L538,122 M538,121L539,122 M539,121L540,122 M540,121L541,122 M541,121L542,122 M542,121L543,122 M543,121L544,122 M544,121L545,122 M545,121L546,122 M546,121L547,122 M604,121L605,122 M605,121L606,122 M606,121L607,122 M607,121L608,122 M608,121L609,122 M181,122L182,123 M182,122L183,123 M183,122L184,123 M184,122L185,123 M185,122L186,123 M186,122L187,123 M187,122L188,123 M188,122L189,123 M189,122L190,123 M190,122L191,123 M191,122L192,123 M192,122L193,123 M522,122L523,123 M523,122L524,123 M524,122L525,123 M525,122L526,123 M526,122L527,123 M527,122L528,123 M528,122L529,123 M529,122L530,123 M530,122L531,123 M531,122L532,123 M532,122L533,123 M533,122L534,123 M534,122L535,123 M535,122L536,123 M536,122L537,123 M537,122L538,123 M538,122L539,123 M601,122L602,123 M602,122L603,123 M603,122L604,123 M604,122L605,123 M605,122L606,123 M606,122L607,123 M187,123L188,124 M188,123L189,124 M189,123L190,124 M190,123L191,124 M191,123L192,124 M192,123L193,124 M193,123L194,124 M194,123L195,124 M195,123L196,124 M196,123L197,124 M197,123L198,124 M198,123L199,124 M512,123L513,124 M513,123L514,124 M514,123L515,124 M515,123L516,124 M516,123L517,124 M517,123L518,124 M518,123L519,124 M519,123L520,124 M520,123L521,124 M521,123L522,124 M522,123L523,124 M523,123L524,124 M524,123L525,124 M525,123L526,124 M526,123L527,124 M527,123L528,124 M528,123L529,124 M529,123L530,124 M530,123L531,124 M598,123L599,124 M599,123L600,124 M600,123L601,124 M601,123L602,124 M602,123L603,124 M603,123L604,124 M193,124L194,125 M194,124L195,125 M195,124L196,125 M196,124L197,125 M197,124L198,125 M198,124L199,125 M199,124L200,125 M200,124L201,125 M201,124L202,125 M202,124L203,125 M203,124L204,125 M204,124L205,125 M205,124L206,125 M503,124L504,125 M504,124L505,125 M505,124L506,125 M506,124L507,125 M507,124L508,125 M508,124L509,125 M509,124L510,125 M510,124L511,125 M511,124L512,125 M512,124L513,125 M513,124L514,125 M514,124L515,125 M515,124L516,125 M516,124L517,125 M517,124L518,125 M518,124L519,125 M519,124L520,125 M520,124L521,125 M521,124L522,125 M596,124L597,125 M597,124L598,125 M598,124L599,125 M599,124L600,125 M600,124L601,125 M199,125L200,126 M200,125L201,126 M201,125L202,126 M202,125L203,126 M203,125L204,126 M204,125L205,126 M205,125L206,126 M206,125L207,126 M207,125L208,126 M208,125L209,126 M209,125L210,126 M210,125L211,126 M493,125L494,126 M494,125L495,126 M495,125L496,126 M496,125L497,126 M497,125L498,126 M498,125L499,126 M499,125L500,126 M500,125L501,126 M501,125L502,126 M502,125L503,126 M503,125L504,126 M504,125L505,126 M505,125L506,126 M506,125L507,126 M507,125L508,126 M508,125L509,126 M509,125L510,126 M510,125L511,126 M511,125L512,126 M591,125L592,126 M592,125L593,126 M593,125L594,126 M594,125L595,126 M595,125L596,126 M596,125L597,126 M597,125L598,126 M598,125L599,126 M205,126L206,127 M206,126L207,127 M207,126L208,127 M208,126L209,127 M209,126L210,127 M210,126L211,127 M211,126L212,127 M212,126L213,127 M213,126L214,127 M214,126L215,127 M215,126L216,127 M472,126L473,127 M473,126L474,127 M474,126L475,127 M475,126L476,127 M476,126L477,127 M477,126L478,127 M478,126L479,127 M479,126L480,127 M480,126L481,127 M481,126L482,127 M482,126L483,127 M483,126L484,127 M484,126L485,127 M485,126L486,127 M486,126L487,127 M487,126L488,127 M488,126L489,127 M489,126L490,127 M490,126L491,127 M491,126L492,127 M492,126L493,127 M493,126L494,127 M494,126L495,127 M495,126L496,127 M496,126L497,127 M497,126L498,127 M498,126L499,127 M499,126L500,127 M500,126L501,127 M501,126L502,127 M502,126L503,127 M586,126L587,127 M587,126L588,127 M588,126L589,127 M589,126L590,127 M590,126L591,127 M591,126L592,127 M592,126L593,127 M593,126L594,127 M594,126L595,127 M595,126L596,127 M210,127L211,128 M211,127L212,128 M212,127L213,128 M213,127L214,128 M214,127L215,128 M215,127L216,128 M216,127L217,128 M217,127L218,128 M218,127L219,128 M219,127L220,128 M220,127L221,128 M462,127L463,128 M463,127L464,128 M464,127L465,128 M465,127L466,128 M466,127L467,128 M467,127L468,128 M468,127L469,128 M469,127L470,128 M470,127L471,128 M471,127L472,128 M472,127L473,128 M473,127L474,128 M474,127L475,128 M475,127L476,128 M476,127L477,128 M477,127L478,128 M478,127L479,128 M479,127L480,128 M480,127L481,128 M481,127L482,128 M482,127L483,128 M483,127L484,128 M484,127L485,128 M485,127L486,128 M486,127L487,128 M487,127L488,128 M488,127L489,128 M489,127L490,128 M490,127L491,128 M491,127L492,128 M492,127L493,128 M582,127L583,128 M583,127L584,128 M584,127L585,128 M585,127L586,128 M586,127L587,128 M587,127L588,128 M588,127L589,128 M589,127L590,128 M590,127L591,128 M215,128L216,129 M216,128L217,129 M217,128L218,129 M218,128L219,129 M219,128L220,129 M220,128L221,129 M221,128L222,129 M222,128L223,129 M223,128L224,129 M224,128L225,129 M225,128L226,129 M452,128L453,129 M453,128L454,129 M454,128L455,129 M455,128L456,129 M456,128L457,129 M457,128L458,129 M458,128L459,129 M459,128L460,129 M460,128L461,129 M461,128L462,129 M462,128L463,129 M463,128L464,129 M464,128L465,129 M465,128L466,129 M466,128L467,129 M467,128L468,129 M468,128L469,129 M469,128L470,129 M470,128L471,129 M471,128L472,129 M579,128L580,129 M580,128L581,129 M581,128L582,129 M582,128L583,129 M583,128L584,129 M584,128L585,129 M585,128L586,129 M220,129L221,130 M221,129L222,130 M222,129L223,130 M223,129L224,130 M224,129L225,130 M225,129L226,130 M226,129L227,130 M227,129L228,130 M228,129L229,130 M229,129L230,130 M230,129L231,130 M231,129L232,130 M443,129L444,130 M444,129L445,130 M445,129L446,130 M446,129L447,130 M447,129L448,130 M448,129L449,130 M449,129L450,130 M450,129L451,130 M451,129L452,130 M452,129L453,130 M453,129L454,130 M454,129L455,130 M455,129L456,130 M456,129L457,130 M457,129L458,130 M458,129L459,130 M459,129L460,130 M460,129L461,130 M461,129L462,130 M576,129L577,130 M577,129L578,130 M578,129L579,130 M579,129L580,130 M580,129L581,130 M581,129L582,130 M582,129L583,130 M225,130L226,131 M226,130L227,131 M227,130L228,131 M228,130L229,131 M229,130L230,131 M230,130L231,131 M231,130L232,131 M232,130L233,131 M233,130L234,131 M234,130L235,131 M235,130L236,131 M236,130L237,131 M237,130L238,131 M433,130L434,131 M434,130L435,131 M435,130L436,131 M436,130L437,131 M437,130L438,131 M438,130L439,131 M439,130L440,131 M440,130L441,131 M441,130L442,131 M442,130L443,131 M443,130L444,131 M444,130L445,131 M445,130L446,131 M446,130L447,131 M447,130L448,131 M448,130L449,131 M449,130L450,131 M450,130L451,131 M451,130L452,131 M573,130L574,131 M574,130L575,131 M575,130L576,131 M576,130L577,131 M577,130L578,131 M578,130L579,131 M232,131L233,132 M233,131L234,132 M234,131L235,132 M235,131L236,132 M236,131L237,132 M237,131L238,132 M238,131L239,132 M239,131L240,132 M240,131L241,132 M241,131L242,132 M242,131L243,132 M243,131L244,132 M244,131L245,132 M424,131L425,132 M425,131L426,132 M426,131L427,132 M427,131L428,132 M428,131L429,132 M429,131L430,132 M430,131L431,132 M431,131L432,132 M432,131L433,132 M433,131L434,132 M434,131L435,132 M435,131L436,132 M436,131L437,132 M437,131L438,132 M438,131L439,132 M439,131L440,132 M440,131L441,132 M441,131L442,132 M442,131L443,132 M568,131L569,132 M569,131L570,132 M570,131L571,132 M571,131L572,132 M572,131L573,132 M573,131L574,132 M574,131L575,132 M575,131L576,132 M238,132L239,133 M239,132L240,133 M240,132L241,133 M241,132L242,133 M242,132L243,133 M243,132L244,133 M244,132L245,133 M245,132L246,133 M246,132L247,133 M247,132L248,133 M248,132L249,133 M249,132L250,133 M250,132L251,133 M416,132L417,133 M417,132L418,133 M418,132L419,133 M419,132L420,133 M420,132L421,133 M421,132L422,133 M422,132L423,133 M423,132L424,133 M424,132L425,133 M425,132L426,133 M426,132L427,133 M427,132L428,133 M428,132L429,133 M429,132L430,133 M430,132L431,133 M431,132L432,133 M432,132L433,133 M563,132L564,133 M564,132L565,133 M565,132L566,133 M566,132L567,133 M567,132L568,133 M568,132L569,133 M569,132L570,133 M570,132L571,133 M571,132L572,133 M572,132L573,133 M245,133L246,134 M246,133L247,134 M247,133L248,134 M248,133L249,134 M249,133L250,134 M250,133L251,134 M251,133L252,134 M252,133L253,134 M253,133L254,134 M254,133L255,134 M255,133L256,134 M256,133L257,134 M257,133L258,134 M410,133L411,134 M411,133L412,134 M412,133L413,134 M413,133L414,134 M414,133L415,134 M415,133L416,134 M416,133L417,134 M417,133L418,134 M418,133L419,134 M419,133L420,134 M420,133L421,134 M421,133L422,134 M422,133L423,134 M423,133L424,134 M424,133L425,134 M558,133L559,134 M559,133L560,134 M560,133L561,134 M561,133L562,134 M562,133L563,134 M563,133L564,134 M564,133L565,134 M565,133L566,134 M566,133L567,134 M567,133L568,134 M675,133L676,134 M676,133L677,134 M677,133L678,134 M251,134L252,135 M252,134L253,135 M253,134L254,135 M254,134L255,135 M255,134L256,135 M256,134L257,135 M257,134L258,135 M258,134L259,135 M259,134L260,135 M260,134L261,135 M261,134L262,135 M262,134L263,135 M263,134L264,135 M404,134L405,135 M405,134L406,135 M406,134L407,135 M407,134L408,135 M408,134L409,135 M409,134L410,135 M410,134L411,135 M411,134L412,135 M412,134L413,135 M413,134L414,135 M414,134L415,135 M415,134L416,135 M552,134L553,135 M553,134L554,135 M554,134L555,135 M555,134L556,135 M556,134L557,135 M557,134L558,135 M558,134L559,135 M559,134L560,135 M560,134L561,135 M561,134L562,135 M562,134L563,135 M675,134L676,135 M676,134L677,135 M677,134L678,135 M678,134L679,135 M679,134L680,135 M258,135L259,136 M259,135L260,136 M260,135L261,136 M261,135L262,136 M262,135L263,136 M263,135L264,136 M264,135L265,136 M265,135L266,136 M266,135L267,136 M267,135L268,136 M268,135L269,136 M269,135L270,136 M270,135L271,136 M394,135L395,136 M395,135L396,136 M396,135L397,136 M397,135L398,136 M398,135L399,136 M399,135L400,136 M400,135L401,136 M401,135L402,136 M402,135L403,136 M403,135L404,136 M404,135L405,136 M405,135L406,136 M406,135L407,136 M407,135L408,136 M408,135L409,136 M409,135L410,136 M546,135L547,136 M547,135L548,136 M548,135L549,136 M549,135L550,136 M550,135L551,136 M551,135L552,136 M552,135L553,136 M553,135L554,136 M554,135L555,136 M555,135L556,136 M556,135L557,136 M557,135L558,136 M676,135L677,136 M677,135L678,136 M678,135L679,136 M679,135L680,136 M264,136L265,137 M265,136L266,137 M266,136L267,137 M267,136L268,137 M268,136L269,137 M269,136L270,137 M270,136L271,137 M271,136L272,137 M272,136L273,137 M273,136L274,137 M274,136L275,137 M275,136L276,137 M276,136L277,137 M390,136L391,137 M391,136L392,137 M392,136L393,137 M393,136L394,137 M394,136L395,137 M395,136L396,137 M396,136L397,137 M397,136L398,137 M398,136L399,137 M399,136L400,137 M400,136L401,137 M401,136L402,137 M402,136L403,137 M403,136L404,137 M540,136L541,137 M541,136L542,137 M542,136L543,137 M543,136L544,137 M544,136L545,137 M545,136L546,137 M546,136L547,137 M547,136L548,137 M548,136L549,137 M549,136L550,137 M550,136L551,137 M551,136L552,137 M672,136L673,137 M673,136L674,137 M674,136L675,137 M675,136L676,137 M676,136L677,137 M677,136L678,137 M678,136L679,137 M271,137L272,138 M272,137L273,138 M273,137L274,138 M274,137L275,138 M275,137L276,138 M276,137L277,138 M277,137L278,138 M278,137L279,138 M279,137L280,138 M280,137L281,138 M281,137L282,138 M282,137L283,138 M283,137L284,138 M284,137L285,138 M285,137L286,138 M286,137L287,138 M388,137L389,138 M389,137L390,138 M390,137L391,138 M391,137L392,138 M392,137L393,138 M393,137L394,138 M530,137L531,138 M531,137L532,138 M532,137L533,138 M533,137L534,138 M534,137L535,138 M535,137L536,138 M536,137L537,138 M537,137L538,138 M538,137L539,138 M539,137L540,138 M540,137L541,138 M541,137L542,138 M542,137L543,138 M543,137L544,138 M544,137L545,138 M545,137L546,138 M667,137L668,138 M668,137L669,138 M669,137L670,138 M670,137L671,138 M671,137L672,138 M672,137L673,138 M673,137L674,138 M674,137L675,138 M675,137L676,138 M277,138L278,139 M278,138L279,139 M279,138L280,139 M280,138L281,139 M281,138L282,139 M282,138L283,139 M283,138L284,139 M284,138L285,139 M285,138L286,139 M286,138L287,139 M287,138L288,139 M288,138L289,139 M289,138L290,139 M290,138L291,139 M291,138L292,139 M292,138L293,139 M293,138L294,139 M294,138L295,139 M295,138L296,139 M387,138L388,139 M388,138L389,139 M389,138L390,139 M520,138L521,139 M521,138L522,139 M522,138L523,139 M523,138L524,139 M524,138L525,139 M525,138L526,139 M526,138L527,139 M527,138L528,139 M528,138L529,139 M529,138L530,139 M530,138L531,139 M531,138L532,139 M532,138L533,139 M533,138L534,139 M534,138L535,139 M535,138L536,139 M536,138L537,139 M537,138L538,139 M538,138L539,139 M539,138L540,139 M663,138L664,139 M664,138L665,139 M665,138L666,139 M666,138L667,139 M667,138L668,139 M668,138L669,139 M669,138L670,139 M670,138L671,139 M671,138L672,139 M287,139L288,140 M288,139L289,140 M289,139L290,140 M290,139L291,140 M291,139L292,140 M292,139L293,140 M293,139L294,140 M294,139L295,140 M295,139L296,140 M296,139L297,140 M297,139L298,140 M298,139L299,140 M299,139L300,140 M300,139L301,140 M301,139L302,140 M302,139L303,140 M303,139L304,140 M304,139L305,140 M387,139L388,140 M388,139L389,140 M509,139L510,140 M510,139L511,140 M511,139L512,140 M512,139L513,140 M513,139L514,140 M514,139L515,140 M515,139L516,140 M516,139L517,140 M517,139L518,140 M518,139L519,140 M519,139L520,140 M520,139L521,140 M521,139L522,140 M522,139L523,140 M523,139L524,140 M524,139L525,140 M525,139L526,140 M526,139L527,140 M527,139L528,140 M528,139L529,140 M529,139L530,140 M657,139L658,140 M658,139L659,140 M659,139L660,140 M660,139L661,140 M661,139L662,140 M662,139L663,140 M663,139L664,140 M664,139L665,140 M665,139L666,140 M666,139L667,140 M296,140L297,141 M297,140L298,141 M298,140L299,141 M299,140L300,141 M300,140L301,141 M301,140L302,141 M302,140L303,141 M303,140L304,141 M304,140L305,141 M305,140L306,141 M306,140L307,141 M307,140L308,141 M308,140L309,141 M309,140L310,141 M310,140L311,141 M311,140L312,141 M312,140L313,141 M313,140L314,141 M314,140L315,141 M315,140L316,141 M316,140L317,141 M317,140L318,141 M318,140L319,141 M319,140L320,141 M320,140L321,141 M321,140L322,141 M322,140L323,141 M323,140L324,141 M324,140L325,141 M325,140L326,141 M326,140L327,141 M327,140L328,141 M328,140L329,141 M329,140L330,141 M330,140L331,141 M331,140L332,141 M332,140L333,141 M387,140L388,141 M388,140L389,141 M389,140L390,141 M390,140L391,141 M498,140L499,141 M499,140L500,141 M500,140L501,141 M501,140L502,141 M502,140L503,141 M503,140L504,141 M504,140L505,141 M505,140L506,141 M506,140L507,141 M507,140L508,141 M508,140L509,141 M509,140L510,141 M510,140L511,141 M511,140L512,141 M512,140L513,141 M513,140L514,141 M514,140L515,141 M515,140L516,141 M516,140L517,141 M517,140L518,141 M518,140L519,141 M519,140L520,141 M651,140L652,141 M652,140L653,141 M653,140L654,141 M654,140L655,141 M655,140L656,141 M656,140L657,141 M657,140L658,141 M658,140L659,141 M659,140L660,141 M660,140L661,141 M661,140L662,141 M662,140L663,141 M305,141L306,142 M306,141L307,142 M307,141L308,142 M308,141L309,142 M309,141L310,142 M310,141L311,142 M311,141L312,142 M312,141L313,142 M313,141L314,142 M314,141L315,142 M315,141L316,142 M316,141L317,142 M317,141L318,142 M318,141L319,142 M319,141L320,142 M320,141L321,142 M321,141L322,142 M322,141L323,142 M323,141L324,142 M324,141L325,142 M325,141L326,142 M326,141L327,142 M327,141L328,142 M328,141L329,142 M329,141L330,142 M330,141L331,142 M331,141L332,142 M332,141L333,142 M333,141L334,142 M334,141L335,142 M335,141L336,142 M336,141L337,142 M337,141L338,142 M338,141L339,142 M339,141L340,142 M340,141L341,142 M341,141L342,142 M342,141L343,142 M343,141L344,142 M344,141L345,142 M345,141L346,142 M346,141L347,142 M389,141L390,142 M390,141L391,142 M391,141L392,142 M392,141L393,142 M393,141L394,142 M485,141L486,142 M486,141L487,142 M487,141L488,142 M488,141L489,142 M489,141L490,142 M490,141L491,142 M491,141L492,142 M492,141L493,142 M493,141L494,142 M494,141L495,142 M495,141L496,142 M496,141L497,142 M497,141L498,142 M498,141L499,142 M499,141L500,142 M500,141L501,142 M501,141L502,142 M502,141L503,142 M503,141L504,142 M504,141L505,142 M505,141L506,142 M506,141L507,142 M507,141L508,142 M508,141L509,142 M647,141L648,142 M648,141L649,142 M649,141L650,142 M650,141L651,142 M651,141L652,142 M652,141L653,142 M653,141L654,142 M654,141L655,142 M655,141L656,142 M656,141L657,142 M333,142L334,143 M334,142L335,143 M335,142L336,143 M336,142L337,143 M337,142L338,143 M338,142L339,143 M339,142L340,143 M340,142L341,143 M341,142L342,143 M342,142L343,143 M343,142L344,143 M344,142L345,143 M345,142L346,143 M346,142L347,143 M347,142L348,143 M348,142L349,143 M349,142L350,143 M350,142L351,143 M351,142L352,143 M352,142L353,143 M353,142L354,143 M354,142L355,143 M355,142L356,143 M356,142L357,143 M357,142L358,143 M358,142L359,143 M359,142L360,143 M360,142L361,143 M390,142L391,143 M391,142L392,143 M392,142L393,143 M393,142L394,143 M394,142L395,143 M395,142L396,143 M396,142L397,143 M472,142L473,143 M473,142L474,143 M474,142L475,143 M475,142L476,143 M476,142L477,143 M477,142L478,143 M478,142L479,143 M479,142L480,143 M480,142L481,143 M481,142L482,143 M482,142L483,143 M483,142L484,143 M484,142L485,143 M485,142L486,143 M486,142L487,143 M487,142L488,143 M488,142L489,143 M489,142L490,143 M490,142L491,143 M491,142L492,143 M492,142L493,143 M493,142L494,143 M494,142L495,143 M495,142L496,143 M496,142L497,143 M497,142L498,143 M643,142L644,143 M644,142L645,143 M645,142L646,143 M646,142L647,143 M647,142L648,143 M648,142L649,143 M649,142L650,143 M650,142L651,143 M347,143L348,144 M348,143L349,144 M349,143L350,144 M350,143L351,144 M351,143L352,144 M352,143L353,144 M353,143L354,144 M354,143L355,144 M355,143L356,144 M356,143L357,144 M357,143L358,144 M358,143L359,144 M359,143L360,144 M360,143L361,144 M361,143L362,144 M362,143L363,144 M363,143L364,144 M364,143L365,144 M365,143L366,144 M366,143L367,144 M367,143L368,144 M368,143L369,144 M369,143L370,144 M370,143L371,144 M371,143L372,144 M372,143L373,144 M373,143L374,144 M374,143L375,144 M375,143L376,144 M376,143L377,144 M377,143L378,144 M378,143L379,144 M379,143L380,144 M380,143L381,144 M381,143L382,144 M382,143L383,144 M383,143L384,144 M384,143L385,144 M385,143L386,144 M386,143L387,144 M387,143L388,144 M388,143L389,144 M389,143L390,144 M390,143L391,144 M391,143L392,144 M392,143L393,144 M393,143L394,144 M394,143L395,144 M395,143L396,144 M396,143L397,144 M397,143L398,144 M398,143L399,144 M399,143L400,144 M400,143L401,144 M401,143L402,144 M402,143L403,144 M403,143L404,144 M404,143L405,144 M405,143L406,144 M406,143L407,144 M407,143L408,144 M408,143L409,144 M409,143L410,144 M410,143L411,144 M411,143L412,144 M412,143L413,144 M413,143L414,144 M414,143L415,144 M415,143L416,144 M416,143L417,144 M417,143L418,144 M418,143L419,144 M419,143L420,144 M420,143L421,144 M421,143L422,144 M422,143L423,144 M423,143L424,144 M424,143L425,144 M425,143L426,144 M426,143L427,144 M427,143L428,144 M428,143L429,144 M429,143L430,144 M430,143L431,144 M431,143L432,144 M432,143L433,144 M433,143L434,144 M434,143L435,144 M435,143L436,144 M436,143L437,144 M437,143L438,144 M438,143L439,144 M439,143L440,144 M440,143L441,144 M441,143L442,144 M442,143L443,144 M443,143L444,144 M444,143L445,144 M445,143L446,144 M446,143L447,144 M447,143L448,144 M448,143L449,144 M449,143L450,144 M450,143L451,144 M451,143L452,144 M452,143L453,144 M453,143L454,144 M454,143L455,144 M455,143L456,144 M456,143L457,144 M457,143L458,144 M458,143L459,144 M459,143L460,144 M460,143L461,144 M461,143L462,144 M462,143L463,144 M463,143L464,144 M464,143L465,144 M465,143L466,144 M466,143L467,144 M467,143L468,144 M468,143L469,144 M469,143L470,144 M470,143L471,144 M471,143L472,144 M472,143L473,144 M473,143L474,144 M474,143L475,144 M475,143L476,144 M476,143L477,144 M477,143L478,144 M478,143L479,144 M479,143L480,144 M480,143L481,144 M481,143L482,144 M482,143L483,144 M483,143L484,144 M484,143L485,144 M639,143L640,144 M640,143L641,144 M641,143L642,144 M642,143L643,144 M643,143L644,144 M644,143L645,144 M645,143L646,144 M646,143L647,144 M361,144L362,145 M362,144L363,145 M363,144L364,145 M364,144L365,145 M365,144L366,145 M366,144L367,145 M367,144L368,145 M368,144L369,145 M369,144L370,145 M370,144L371,145 M371,144L372,145 M372,144L373,145 M373,144L374,145 M374,144L375,145 M375,144L376,145 M376,144L377,145 M377,144L378,145 M378,144L379,145 M379,144L380,145 M380,144L381,145 M381,144L382,145 M382,144L383,145 M383,144L384,145 M384,144L385,145 M385,144L386,145 M386,144L387,145 M387,144L388,145 M388,144L389,145 M389,144L390,145 M390,144L391,145 M391,144L392,145 M392,144L393,145 M393,144L394,145 M394,144L395,145 M395,144L396,145 M396,144L397,145 M397,144L398,145 M398,144L399,145 M399,144L400,145 M400,144L401,145 M401,144L402,145 M402,144L403,145 M403,144L404,145 M404,144L405,145 M405,144L406,145 M406,144L407,145 M407,144L408,145 M408,144L409,145 M409,144L410,145 M410,144L411,145 M411,144L412,145 M412,144L413,145 M413,144L414,145 M414,144L415,145 M415,144L416,145 M416,144L417,145 M417,144L418,145 M418,144L419,145 M419,144L420,145 M420,144L421,145 M421,144L422,145 M422,144L423,145 M423,144L424,145 M424,144L425,145 M425,144L426,145 M426,144L427,145 M427,144L428,145 M428,144L429,145 M429,144L430,145 M430,144L431,145 M431,144L432,145 M432,144L433,145 M433,144L434,145 M434,144L435,145 M435,144L436,145 M436,144L437,145 M437,144L438,145 M438,144L439,145 M439,144L440,145 M440,144L441,145 M441,144L442,145 M442,144L443,145 M443,144L444,145 M444,144L445,145 M445,144L446,145 M446,144L447,145 M447,144L448,145 M448,144L449,145 M449,144L450,145 M450,144L451,145 M451,144L452,145 M452,144L453,145 M453,144L454,145 M454,144L455,145 M455,144L456,145 M456,144L457,145 M457,144L458,145 M458,144L459,145 M459,144L460,145 M460,144L461,145 M461,144L462,145 M462,144L463,145 M463,144L464,145 M464,144L465,145 M465,144L466,145 M466,144L467,145 M467,144L468,145 M468,144L469,145 M469,144L470,145 M470,144L471,145 M471,144L472,145 M636,144L637,145 M637,144L638,145 M638,144L639,145 M639,144L640,145 M640,144L641,145 M641,144L642,145 M642,144L643,145 M401,145L402,146 M402,145L403,146 M403,145L404,146 M404,145L405,146 M405,145L406,146 M406,145L407,146 M407,145L408,146 M408,145L409,146 M409,145L410,146 M410,145L411,146 M411,145L412,146 M626,145L627,146 M627,145L628,146 M628,145L629,146 M629,145L630,146 M630,145L631,146 M631,145L632,146 M632,145L633,146 M633,145L634,146 M634,145L635,146 M635,145L636,146 M636,145L637,146 M637,145L638,146 M638,145L639,146 M639,145L640,146 M405,146L406,147 M406,146L407,147 M407,146L408,147 M408,146L409,147 M409,146L410,147 M410,146L411,147 M411,146L412,147 M412,146L413,147 M413,146L414,147 M414,146L415,147 M415,146L416,147 M416,146L417,147 M417,146L418,147 M418,146L419,147 M616,146L617,147 M617,146L618,147 M618,146L619,147 M619,146L620,147 M620,146L621,147 M621,146L622,147 M622,146L623,147 M623,146L624,147 M624,146L625,147 M625,146L626,147 M626,146L627,147 M627,146L628,147 M628,146L629,147 M629,146L630,147 M630,146L631,147 M631,146L632,147 M632,146L633,147 M633,146L634,147 M634,146L635,147 M635,146L636,147 M412,147L413,148 M413,147L414,148 M414,147L415,148 M415,147L416,148 M416,147L417,148 M417,147L418,148 M418,147L419,148 M419,147L420,148 M420,147L421,148 M421,147L422,148 M422,147L423,148 M423,147L424,148 M424,147L425,148 M425,147L426,148 M609,147L610,148 M610,147L611,148 M611,147L612,148 M612,147L613,148 M613,147L614,148 M614,147L615,148 M615,147L616,148 M616,147L617,148 M617,147L618,148 M618,147L619,148 M619,147L620,148 M620,147L621,148 M621,147L622,148 M622,147L623,148 M623,147L624,148 M624,147L625,148 M625,147L626,148 M419,148L420,149 M420,148L421,149 M421,148L422,149 M422,148L423,149 M423,148L424,149 M424,148L425,149 M425,148L426,149 M426,148L427,149 M427,148L428,149 M428,148L429,149 M429,148L430,149 M430,148L431,149 M431,148L432,149 M601,148L602,149 M602,148L603,149 M603,148L604,149 M604,148L605,149 M605,148L606,149 M606,148L607,149 M607,148L608,149 M608,148L609,149 M609,148L610,149 M610,148L611,149 M611,148L612,149 M612,148L613,149 M613,148L614,149 M614,148L615,149 M615,148L616,149 M426,149L427,150 M427,149L428,150 M428,149L429,150 M429,149L430,150 M430,149L431,150 M431,149L432,150 M432,149L433,150 M433,149L434,150 M434,149L435,150 M435,149L436,150 M436,149L437,150 M437,149L438,150 M594,149L595,150 M595,149L596,150 M596,149L597,150 M597,149L598,150 M598,149L599,150 M599,149L600,150 M600,149L601,150 M601,149L602,150 M602,149L603,150 M603,149L604,150 M604,149L605,150 M605,149L606,150 M606,149L607,150 M607,149L608,150 M608,149L609,150 M432,150L433,151 M433,150L434,151 M434,150L435,151 M435,150L436,151 M436,150L437,151 M437,150L438,151 M438,150L439,151 M439,150L440,151 M440,150L441,151 M441,150L442,151 M442,150L443,151 M443,150L444,151 M444,150L445,151 M445,150L446,151 M446,150L447,151 M582,150L583,151 M583,150L584,151 M584,150L585,151 M585,150L586,151 M586,150L587,151 M587,150L588,151 M588,150L589,151 M589,150L590,151 M590,150L591,151 M591,150L592,151 M592,150L593,151 M593,150L594,151 M594,150L595,151 M595,150L596,151 M596,150L597,151 M597,150L598,151 M598,150L599,151 M599,150L600,151 M600,150L601,151 M438,151L439,152 M439,151L440,152 M440,151L441,152 M441,151L442,152 M442,151L443,152 M443,151L444,152 M444,151L445,152 M445,151L446,152 M446,151L447,152 M447,151L448,152 M448,151L449,152 M449,151L450,152 M450,151L451,152 M451,151L452,152 M452,151L453,152 M453,151L454,152 M454,151L455,152 M570,151L571,152 M571,151L572,152 M572,151L573,152 M573,151L574,152 M574,151L575,152 M575,151L576,152 M576,151L577,152 M577,151L578,152 M578,151L579,152 M579,151L580,152 M580,151L581,152 M581,151L582,152 M582,151L583,152 M583,151L584,152 M584,151L585,152 M585,151L586,152 M586,151L587,152 M587,151L588,152 M588,151L589,152 M589,151L590,152 M590,151L591,152 M591,151L592,152 M592,151L593,152 M593,151L594,152 M447,152L448,153 M448,152L449,153 M449,152L450,153 M450,152L451,153 M451,152L452,153 M452,152L453,153 M453,152L454,153 M454,152L455,153 M455,152L456,153 M456,152L457,153 M457,152L458,153 M458,152L459,153 M459,152L460,153 M460,152L461,153 M461,152L462,153 M462,152L463,153 M557,152L558,153 M558,152L559,153 M559,152L560,153 M560,152L561,153 M561,152L562,153 M562,152L563,153 M563,152L564,153 M564,152L565,153 M565,152L566,153 M566,152L567,153 M567,152L568,153 M568,152L569,153 M569,152L570,153 M570,152L571,153 M571,152L572,153 M572,152L573,153 M573,152L574,153 M574,152L575,153 M575,152L576,153 M576,152L577,153 M577,152L578,153 M578,152L579,153 M579,152L580,153 M580,152L581,153 M581,152L582,153 M455,153L456,154 M456,153L457,154 M457,153L458,154 M458,153L459,154 M459,153L460,154 M460,153L461,154 M461,153L462,154 M462,153L463,154 M463,153L464,154 M464,153L465,154 M465,153L466,154 M466,153L467,154 M467,153L468,154 M468,153L469,154 M469,153L470,154 M470,153L471,154 M471,153L472,154 M472,153L473,154 M473,153L474,154 M474,153L475,154 M475,153L476,154 M476,153L477,154 M477,153L478,154 M478,153L479,154 M479,153L480,154 M480,153L481,154 M481,153L482,154 M482,153L483,154 M483,153L484,154 M484,153L485,154 M485,153L486,154 M486,153L487,154 M487,153L488,154 M488,153L489,154 M544,153L545,154 M545,153L546,154 M546,153L547,154 M547,153L548,154 M548,153L549,154 M549,153L550,154 M550,153L551,154 M551,153L552,154 M552,153L553,154 M553,153L554,154 M554,153L555,154 M555,153L556,154 M556,153L557,154 M557,153L558,154 M558,153L559,154 M559,153L560,154 M560,153L561,154 M561,153L562,154 M562,153L563,154 M563,153L564,154 M564,153L565,154 M565,153L566,154 M566,153L567,154 M567,153L568,154 M568,153L569,154 M569,153L570,154 M463,154L464,155 M464,154L465,155 M465,154L466,155 M466,154L467,155 M467,154L468,155 M468,154L469,155 M469,154L470,155 M470,154L471,155 M471,154L472,155 M472,154L473,155 M473,154L474,155 M474,154L475,155 M475,154L476,155 M476,154L477,155 M477,154L478,155 M478,154L479,155 M479,154L480,155 M480,154L481,155 M481,154L482,155 M482,154L483,155 M483,154L484,155 M484,154L485,155 M485,154L486,155 M486,154L487,155 M487,154L488,155 M488,154L489,155 M489,154L490,155 M490,154L491,155 M491,154L492,155 M492,154L493,155 M493,154L494,155 M494,154L495,155 M495,154L496,155 M496,154L497,155 M497,154L498,155 M498,154L499,155 M499,154L500,155 M500,154L501,155 M501,154L502,155 M502,154L503,155 M503,154L504,155 M504,154L505,155 M505,154L506,155 M506,154L507,155 M507,154L508,155 M508,154L509,155 M509,154L510,155 M510,154L511,155 M511,154L512,155 M512,154L513,155 M513,154L514,155 M514,154L515,155 M515,154L516,155 M516,154L517,155 M517,154L518,155 M518,154L519,155 M519,154L520,155 M520,154L521,155 M521,154L522,155 M522,154L523,155 M523,154L524,155 M524,154L525,155 M525,154L526,155 M526,154L527,155 M527,154L528,155 M528,154L529,155 M529,154L530,155 M530,154L531,155 M531,154L532,155 M532,154L533,155 M533,154L534,155 M534,154L535,155 M535,154L536,155 M536,154L537,155 M537,154L538,155 M538,154L539,155 M539,154L540,155 M540,154L541,155 M541,154L542,155 M542,154L543,155 M543,154L544,155 M544,154L545,155 M545,154L546,155 M546,154L547,155 M547,154L548,155 M548,154L549,155 M549,154L550,155 M550,154L551,155 M551,154L552,155 M552,154L553,155 M553,154L554,155 M554,154L555,155 M555,154L556,155 M556,154L557,155 M489,155L490,156 M490,155L491,156 M491,155L492,156 M492,155L493,156 M493,155L494,156 M494,155L495,156 M495,155L496,156 M496,155L497,156 M497,155L498,156 M498,155L499,156 M499,155L500,156 M500,155L501,156 M501,155L502,156 M502,155L503,156 M503,155L504,156 M504,155L505,156 M505,155L506,156 M506,155L507,156 M507,155L508,156 M508,155L509,156 M509,155L510,156 M510,155L511,156 M511,155L512,156 M512,155L513,156 M513,155L514,156 M514,155L515,156 M515,155L516,156 M516,155L517,156 M517,155L518,156 M518,155L519,156 M519,155L520,156 M520,155L521,156 M521,155L522,156 M522,155L523,156 M523,155L524,156 M524,155L525,156 M525,155L526,156 M526,155L527,156 M527,155L528,156 M528,155L529,156 M529,155L530,156 M530,155L531,156 M531,155L532,156 M532,155L533,156 M533,155L534,156 M534,155L535,156 M535,155L536,156 M536,155L537,156 M537,155L538,156 M538,155L539,156 M539,155L540,156 M540,155L541,156 M541,155L542,156 M542,155L543,156 M543,155L544,156" fill="none" stroke="black" />
    </svg>