<svg xmlns="http://www.w3.org/2000/svg" width="800" height="250">
        <path d="M469,133L470,134 M470,133L471,134 M471,133L472,134 M472,133L473,134 M473,133L474,134 M474,133L475,134 M475,133L476,134 M476,133L477,134 M477,133L478,134 M478,133L479,134 M479,133L480,134 M480,133L481,134 M481,133L482,134 M482,133L483,134 M483,133L484,134 M484,133L485,134 M485,133L486,134 M486,133L487,134 M487,133L488,134 M488,133L489,134 M489,133L490,134 M490,133L491,134 M462,134L463,135 M463,134L464,135 M464,134L465,135 M465,134L466,135 M466,134L467,135 M467,134L468,135 M468,134L469,135 M469,134L470,135 M470,134L471,135 M471,134L472,135 M472,134L473,135 M473,134L474,135 M474,134L475,135 M475,134L476,135 M476,134L477,135 M477,134L478,135 M478,134L479,135 M479,134L480,135 M480,134L481,135 M481,134L482,135 M482,134L483,135 M483,134L484,135 M484,134L485,135 M485,134L486,135 M486,134L487,135 M487,134L488,135 M488,134L489,135 M489,134L490,135 M490,134L491,135 M491,134L492,135 M492,134L493,135 M493,134L494,135 M494,134L495,135 M495,134L496,135 M496,134L497,135 M497,134L498,135 M498,134L499,135 M455,135L456,136 M456,135L457,136 M457,135L458,136 M458,135L459,136 M459,135L460,136 M460,135L461,136 M461,135L462,136 M462,135L463,136 M463,135L464,136 M464,135L465,136 M465,135L466,136 M466,135L467,136 M467,135L468,136 M468,135L469,136 M491,135L492,136 M492,135L493,136 M493,135L494,136 M494,135L495,136 M495,135L496,136 M496,135L497,136 M497,135L498,136 M498,135L499,136 M499,135L500,136 M500,135L501,136 M501,135L502,136 M502,135L503,136 M503,135L504,136 M448,136L449,137 M449,136L450,137 M450,136L451,137 M451,136L452,137 M452,136L453,137 M453,136L454,137 M454,136L455,137 M455,136L456,137 M456,136L457,137 M457,136L458,137 M458,136L459,137 M459,136L460,137 M460,136L461,137 M461,136L462,137 M499,136L500,137 M500,136L501,137 M501,136L502,137 M502,136L503,137 M503,136L504,137 M504,136L505,137 M505,136L506,137 M506,136L507,137 M507,136L508,137 M443,137L444,138 M444,137L445,138 M445,137L446,138 M446,137L447,138 M447,137L448,138 M448,137L449,138 M449,137L450,138 M450,137L451,138 M451,137L452,138 M452,137L453,138 M453,137L454,138 M454,137L455,138 M504,137L505,138 M505,137L506,138 M506,137L507,138 M507,137L508,138 M508,137L509,138 M509,137L510,138 M510,137L511,138 M440,138L441,139 M441,138L442,139 M442,138L443,139 M443,138L444,139 M444,138L445,139 M445,138L446,139 M446,138L447,139 M447,138L448,139 M507,138L508,139 M508,138L509,139 M509,138L510,139 M510,138L511,139 M511,138L512,139 M512,138L513,139 M513,138L514,139 M437,139L438,140 M438,139L439,140 M439,139L440,140 M440,139L441,140 M441,139L442,140 M442,139L443,140 M511,139L512,140 M512,139L513,140 M513,139L514,140 M514,139L515,140 M515,139L516,140 M434,140L435,141 M435,140L436,141 M436,140L437,141 M437,140L438,141 M438,140L439,141 M439,140L440,141 M514,140L515,141 M515,140L516,141 M431,141L432,142 M432,141L433,142 M433,141L434,142 M434,141L435,142 M435,141L436,142 M436,141L437,142 M512,141L513,142 M513,141L514,142 M514,141L515,142 M515,141L516,142 M427,142L428,143 M428,142L429,143 M429,142L430,143 M430,142L431,143 M431,142L432,143 M432,142L433,143 M433,142L434,143 M510,142L511,143 M511,142L512,143 M512,142L513,143 M513,142L514,143 M514,142L515,143 M424,143L425,144 M425,143L426,144 M426,143L427,144 M427,143L428,144 M428,143L429,144 M429,143L430,144 M430,143L431,144 M508,143L509,144 M509,143L510,144 M510,143L511,144 M511,143L512,144 M512,143L513,144 M421,144L422,145 M422,144L423,145 M423,144L424,145 M424,144L425,145 M425,144L426,145 M426,144L427,145 M427,144L428,145 M504,144L505,145 M505,144L506,145 M506,144L507,145 M507,144L508,145 M508,144L509,145 M509,144L510,145 M510,144L511,145 M418,145L419,146 M419,145L420,146 M420,145L421,146 M421,145L422,146 M422,145L423,146 M423,145L424,146 M424,145L425,146 M498,145L499,146 M499,145L500,146 M500,145L501,146 M501,145L502,146 M502,145L503,146 M503,145L504,146 M504,145L505,146 M505,145L506,146 M506,145L507,146 M507,145L508,146 M415,146L416,147 M416,146L417,147 M417,146L418,147 M418,146L419,147 M419,146L420,147 M420,146L421,147 M492,146L493,147 M493,146L494,147 M494,146L495,147 M495,146L496,147 M496,146L497,147 M497,146L498,147 M498,146L499,147 M499,146L500,147 M500,146L501,147 M501,146L502,147 M502,146L503,147 M503,146L504,147 M412,147L413,148 M413,147L414,148 M414,147L415,148 M415,147L416,148 M416,147L417,148 M417,147L418,148 M482,147L483,148 M483,147L484,148 M484,147L485,148 M485,147L486,148 M486,147L487,148 M487,147L488,148 M488,147L489,148 M489,147L490,148 M490,147L491,148 M491,147L492,148 M492,147L493,148 M493,147L494,148 M494,147L495,148 M495,147L496,148 M496,147L497,148 M497,147L498,148 M409,148L410,149 M410,148L411,149 M411,148L412,149 M412,148L413,149 M413,148L414,149 M414,148L415,149 M474,148L475,149 M475,148L476,149 M476,148L477,149 M477,148L478,149 M478,148L479,149 M479,148L480,149 M480,148L481,149 M481,148L482,149 M482,148L483,149 M483,148L484,149 M484,148L485,149 M485,148L486,149 M486,148L487,149 M487,148L488,149 M488,148L489,149 M489,148L490,149 M490,148L491,149 M491,148L492,149 M492,148L493,149 M405,149L406,150 M406,149L407,150 M407,149L408,150 M408,149L409,150 M409,149L410,150 M410,149L411,150 M411,149L412,150 M471,149L472,150 M472,149L473,150 M473,149L474,150 M474,149L475,150 M475,149L476,150 M476,149L477,150 M477,149L478,150 M478,149L479,150 M479,149L480,150 M480,149L481,150 M481,149L482,150 M402,150L403,151 M403,150L404,151 M404,150L405,151 M405,150L406,151 M406,150L407,151 M407,150L408,151 M408,150L409,151 M468,150L469,151 M469,150L470,151 M470,150L471,151 M471,150L472,151 M472,150L473,151 M473,150L474,151 M400,151L401,152 M401,151L402,152 M402,151L403,152 M403,151L404,152 M404,151L405,152 M405,151L406,152 M464,151L465,152 M465,151L466,152 M466,151L467,152 M467,151L468,152 M468,151L469,152 M469,151L470,152 M470,151L471,152 M398,152L399,153 M399,152L400,153 M400,152L401,153 M401,152L402,153 M402,152L403,153 M451,152L452,153 M452,152L453,153 M453,152L454,153 M454,152L455,153 M455,152L456,153 M456,152L457,153 M457,152L458,153 M458,152L459,153 M459,152L460,153 M460,152L461,153 M461,152L462,153 M462,152L463,153 M463,152L464,153 M464,152L465,153 M465,152L466,153 M466,152L467,153 M467,152L468,153 M396,153L397,154 M397,153L398,154 M398,153L399,154 M399,153L400,154 M430,153L431,154 M431,153L432,154 M432,153L433,154 M433,153L434,154 M434,153L435,154 M435,153L436,154 M436,153L437,154 M437,153L438,154 M438,153L439,154 M439,153L440,154 M440,153L441,154 M441,153L442,154 M442,153L443,154 M443,153L444,154 M444,153L445,154 M445,153L446,154 M446,153L447,154 M447,153L448,154 M448,153L449,154 M449,153L450,154 M450,153L451,154 M451,153L452,154 M452,153L453,154 M453,153L454,154 M454,153L455,154 M455,153L456,154 M456,153L457,154 M457,153L458,154 M458,153L459,154 M459,153L460,154 M460,153L461,154 M461,153L462,154 M462,153L463,154 M463,153L464,154 M464,153L465,154 M395,154L396,155 M396,154L397,155 M397,154L398,155 M398,154L399,155 M413,154L414,155 M414,154L415,155 M415,154L416,155 M416,154L417,155 M417,154L418,155 M418,154L419,155 M419,154L420,155 M420,154L421,155 M421,154L422,155 M422,154L423,155 M423,154L424,155 M424,154L425,155 M425,154L426,155 M426,154L427,155 M427,154L428,155 M428,154L429,155 M429,154L430,155 M430,154L431,155 M431,154L432,155 M432,154L433,155 M433,154L434,155 M434,154L435,155 M435,154L436,155 M436,154L437,155 M437,154L438,155 M438,154L439,155 M439,154L440,155 M440,154L441,155 M441,154L442,155 M442,154L443,155 M443,154L444,155 M444,154L445,155 M445,154L446,155 M446,154L447,155 M447,154L448,155 M448,154L449,155 M449,154L450,155 M450,154L451,155 M393,155L394,156 M394,155L395,156 M395,155L396,156 M396,155L397,156 M399,155L400,156 M400,155L401,156 M401,155L402,156 M402,155L403,156 M403,155L404,156 M404,155L405,156 M405,155L406,156 M406,155L407,156 M407,155L408,156 M408,155L409,156 M409,155L410,156 M410,155L411,156 M411,155L412,156 M412,155L413,156 M413,155L414,156 M414,155L415,156 M415,155L416,156 M416,155L417,156 M417,155L418,156 M418,155L419,156 M419,155L420,156 M420,155L421,156 M421,155L422,156 M422,155L423,156 M423,155L424,156 M424,155L425,156 M425,155L426,156 M426,155L427,156 M427,155L428,156 M428,155L429,156 M429,155L430,156 M384,156L385,157 M385,156L386,157 M386,156L387,157 M387,156L388,157 M388,156L389,157 M389,156L390,157 M390,156L391,157 M391,156L392,157 M392,156L393,157 M393,156L394,157 M394,156L395,157 M395,156L396,157 M396,156L397,157 M397,156L398,157 M398,156L399,157 M399,156L400,157 M400,156L401,157 M401,156L402,157 M402,156L403,157 M403,156L404,157 M404,156L405,157 M405,156L406,157 M406,156L407,157 M407,156L408,157 M408,156L409,157 M409,156L410,157 M410,156L411,157 M411,156L412,157 M412,156L413,157 M369,157L370,158 M370,157L371,158 M371,157L372,158 M372,157L373,158 M373,157L374,158 M374,157L375,158 M375,157L376,158 M376,157L377,158 M377,157L378,158 M378,157L379,158 M379,157L380,158 M380,157L381,158 M381,157L382,158 M382,157L383,158 M383,157L384,158 M384,157L385,158 M385,157L386,158 M386,157L387,158 M387,157L388,158 M388,157L389,158 M389,157L390,158 M390,157L391,158 M391,157L392,158 M392,157L393,158 M393,157L394,158 M394,157L395,158 M395,157L396,158 M396,157L397,158 M397,157L398,158 M398,157L399,158 M355,158L356,159 M356,158L357,159 M357,158L358,159 M358,158L359,159 M359,158L360,159 M360,158L361,159 M361,158L362,159 M362,158L363,159 M363,158L364,159 M364,158L365,159 M365,158L366,159 M366,158L367,159 M367,158L368,159 M368,158L369,159 M369,158L370,159 M370,158L371,159 M371,158L372,159 M372,158L373,159 M373,158L374,159 M374,158L375,159 M375,158L376,159 M376,158L377,159 M377,158L378,159 M378,158L379,159 M379,158L380,159 M380,158L381,159 M381,158L382,159 M382,158L383,159 M383,158L384,159 M388,158L389,159 M389,158L390,159 M390,158L391,159 M391,158L392,159 M342,159L343,160 M343,159L344,160 M344,159L345,160 M345,159L346,160 M346,159L347,160 M347,159L348,160 M348,159L349,160 M349,159L350,160 M350,159L351,160 M351,159L352,160 M352,159L353,160 M353,159L354,160 M354,159L355,160 M355,159L356,160 M356,159L357,160 M357,159L358,160 M358,159L359,160 M359,159L360,160 M360,159L361,160 M361,159L362,160 M362,159L363,160 M363,159L364,160 M364,159L365,160 M365,159L366,160 M366,159L367,160 M367,159L368,160 M368,159L369,160 M387,159L388,160 M388,159L389,160 M389,159L390,160 M329,160L330,161 M330,160L331,161 M331,160L332,161 M332,160L333,161 M333,160L334,161 M334,160L335,161 M335,160L336,161 M336,160L337,161 M337,160L338,161 M338,160L339,161 M339,160L340,161 M340,160L341,161 M341,160L342,161 M342,160L343,161 M343,160L344,161 M344,160L345,161 M345,160L346,161 M346,160L347,161 M347,160L348,161 M348,160L349,161 M349,160L350,161 M350,160L351,161 M351,160L352,161 M352,160L353,161 M353,160L354,161 M354,160L355,161 M385,160L386,161 M386,160L387,161 M387,160L388,161 M388,160L389,161 M317,161L318,162 M318,161L319,162 M319,161L320,162 M320,161L321,162 M321,161L322,162 M322,161L323,162 M323,161L324,162 M324,161L325,162 M325,161L326,162 M326,161L327,162 M327,161L328,162 M328,161L329,162 M329,161L330,162 M330,161L331,162 M331,161L332,162 M332,161L333,162 M333,161L334,162 M334,161L335,162 M335,161L336,162 M336,161L337,162 M337,161L338,162 M338,161L339,162 M339,161L340,162 M340,161L341,162 M341,161L342,162 M383,161L384,162 M384,161L385,162 M385,161L386,162 M386,161L387,162 M306,162L307,163 M307,162L308,163 M308,162L309,163 M309,162L310,163 M310,162L311,163 M311,162L312,163 M312,162L313,163 M313,162L314,163 M314,162L315,163 M315,162L316,163 M316,162L317,163 M317,162L318,163 M318,162L319,163 M319,162L320,163 M320,162L321,163 M321,162L322,163 M322,162L323,163 M323,162L324,163 M324,162L325,163 M325,162L326,163 M326,162L327,163 M327,162L328,163 M328,162L329,163 M382,162L383,163 M383,162L384,163 M384,162L385,163 M298,163L299,164 M299,163L300,164 M300,163L301,164 M301,163L302,164 M302,163L303,164 M303,163L304,164 M304,163L305,164 M305,163L306,164 M306,163L307,164 M307,163L308,164 M308,163L309,164 M309,163L310,164 M310,163L311,164 M311,163L312,164 M312,163L313,164 M313,163L314,164 M314,163L315,164 M315,163L316,164 M316,163L317,164 M380,163L381,164 M381,163L382,164 M382,163L383,164 M383,163L384,164 M292,164L293,165 M293,164L294,165 M294,164L295,165 M295,164L296,165 M296,164L297,165 M297,164L298,165 M298,164L299,165 M299,164L300,165 M300,164L301,165 M301,164L302,165 M302,164L303,165 M303,164L304,165 M304,164L305,165 M305,164L306,165 M378,164L379,165 M379,164L380,165 M380,164L381,165 M381,164L382,165 M289,165L290,166 M290,165L291,166 M291,165L292,166 M292,165L293,166 M293,165L294,166 M294,165L295,166 M295,165L296,166 M296,165L297,166 M297,165L298,166 M377,165L378,166 M378,165L379,166 M379,165L380,166 M285,166L286,167 M286,166L287,167 M287,166L288,167 M288,166L289,167 M289,166L290,167 M290,166L291,167 M291,166L292,167 M375,166L376,167 M376,166L377,167 M377,166L378,167 M378,166L379,167 M281,167L282,168 M282,167L283,168 M283,167L284,168 M284,167L285,168 M285,167L286,168 M286,167L287,168 M287,167L288,168 M288,167L289,168 M373,167L374,168 M374,167L375,168 M375,167L376,168 M376,167L377,168 M276,168L277,169 M277,168L278,169 M278,168L279,169 M279,168L280,169 M280,168L281,169 M281,168L282,169 M282,168L283,169 M283,168L284,169 M284,168L285,169 M285,168L286,169 M372,168L373,169 M373,168L374,169 M374,168L375,169 M375,168L376,169 M273,169L274,170 M274,169L275,170 M275,169L276,170 M276,169L277,170 M277,169L278,170 M278,169L279,170 M279,169L280,170 M280,169L281,170 M370,169L371,170 M371,169L372,170 M372,169L373,170 M373,169L374,170 M271,170L272,171 M272,170L273,171 M273,170L274,171 M274,170L275,171 M275,170L276,171 M368,170L369,171 M369,170L370,171 M370,170L371,171 M371,170L372,171 M269,171L270,172 M270,171L271,172 M271,171L272,172 M272,171L273,172 M367,171L368,172 M368,171L369,172 M369,171L370,172 M370,171L371,172 M267,172L268,173 M268,172L269,173 M269,172L270,173 M270,172L271,173 M365,172L366,173 M366,172L367,173 M367,172L368,173 M368,172L369,173 M266,173L267,174 M267,173L268,174 M268,173L269,174 M363,173L364,174 M364,173L365,174 M365,173L366,174 M366,173L367,174 M265,174L266,175 M266,174L267,175 M267,174L268,175 M268,174L269,175 M269,174L270,175 M270,174L271,175 M271,174L272,175 M362,174L363,175 M363,174L364,175 M364,174L365,175 M365,174L366,175 M266,175L267,176 M267,175L268,176 M268,175L269,176 M269,175L270,176 M270,175L271,176 M271,175L272,176 M360,175L361,176 M361,175L362,176 M362,175L363,176 M363,175L364,176 M358,176L359,177 M359,176L360,177 M360,176L361,177 M361,176L362,177 M357,177L358,178 M358,177L359,178 M359,177L360,178 M360,177L361,178 M356,178L357,179 M357,178L358,179 M358,178L359,179 M354,179L355,180 M355,179L356,180 M356,179L357,180 M357,179L358,180 M353,180L354,181 M354,180L355,181 M355,180L356,181 M352,181L353,182 M353,181L354,182 M354,181L355,182 M350,182L351,183 M351,182L352,183 M352,182L353,183 M353,182L354,183 M349,183L350,184 M350,183L351,184 M351,183L352,184 M348,184L349,185 M349,184L350,185 M350,184L351,185 M346,185L347,186 M347,185L348,186 M348,185L349,186 M349,185L350,186 M345,186L346,187 M346,186L347,187 M347,186L348,187 M344,187L345,188 M345,187L346,188 M346,187L347,188 M343,188L344,189 M344,188L345,189 M345,188L346,189 M341,189L342,190 M342,189L343,190 M343,189L344,190 M344,189L345,190 M340,190L341,191 M341,190L342,191 M342,190L343,191 M339,191L340,192 M340,191L341,192 M341,191L342,192 M338,192L339,193 M339,192L340,193 M340,192L341,193 M337,193L338,194 M338,193L339,194 M339,193L340,194 M336,194L337,195 M337,194L338,195 M338,194L339,195 M335,195L336,196 M336,195L337,196 M333,196L334,197 M334,196L335,197 M335,196L336,197 M332,197L333,198 M333,197L334,198 M334,197L335,198 M331,198L332,199 M332,198L333,199 M333,198L334,199 M330,199L331,200 M331,199L332,200 M332,199L333,200 M329,200L330,201 M330,200L331,201 M331,200L332,201 M328,201L329,202 M329,201L330,202 M330,201L331,202 M326,202L327,203 M327,202L328,203 M328,202L329,203 M329,202L330,203 M325,203L326,204 M326,203L327,204 M327,203L328,204 M328,203L329,204 M324,204L325,205 M325,204L326,205 M326,204L327,205 M322,205L323,206 M323,205L324,206 M324,205L325,206 M325,205L326,206 M321,206L322,207 M322,206L323,207 M323,206L324,207 M319,207L320,208 M320,207L321,208 M321,207L322,208 M322,207L323,208 M318,208L319,209 M319,208L320,209 M320,208L321,209 M316,209L317,210 M317,209L318,210 M318,209L319,210 M319,209L320,210 M314,210L315,211 M315,210L316,211 M316,210L317,211 M317,210L318,211 M312,211L313,212 M313,211L314,212 M314,211L315,212 M315,211L316,212 M310,212L311,213 M311,212L312,213 M312,212L313,213 M313,212L314,213 M308,213L309,214 M309,213L310,214 M310,213L311,214 M311,213L312,214 M307,214L308,215 M308,214L309,215 M309,214L310,215 M306,215L307,216 M307,215L308,216 M308,215L309,216 M306,216L307,217 M307,216L308,217 M305,217L306,218 M306,217L307,218 M304,218L305,219 M305,218L306,219 M306,218L307,219 M303,219L304,220 M304,219L305,220 M305,219L306,220 M302,220L303,221 M303,220L304,221 M304,220L305,221 M302,221L303,222 M303,221L304,222 M301,222L302,223 M302,222L303,223 M300,223L301,224 M301,223L302,224 M299,224L300,225 M300,224L301,225 M301,224L302,225 M299,225L300,226 M300,225L301,226 M298,226L299,227 M299,226L300,227 M298,227L299,228 M299,227L300,228 M297,228L298,229 M298,228L299,229 M297,229L298,230 M298,229L299,230 M296,230L297,231 M297,230L298,231 M296,231L297,232 M297,231L298,232 M295,232L296,233 M296,232L297,233 M297,232L298,233 M295,233L296,234 M296,233L297,234 M296,234L297,235" fill="none" stroke="black" />
    </svg>