<svg xmlns="http://www.w3.org/2000/svg" width="800" height="250">
        <path d="M254,42L255,43 M255,42L256,43 M256,42L257,43 M257,42L258,43 M258,42L259,43 M259,42L260,43 M260,42L261,43 M250,43L251,44 M251,43L252,44 M252,43L253,44 M253,43L254,44 M254,43L255,44 M255,43L256,44 M256,43L257,44 M257,43L258,44 M258,43L259,44 M259,43L260,44 M260,43L261,44 M261,43L262,44 M262,43L263,44 M249,44L250,45 M250,44L251,45 M251,44L252,45 M252,44L253,45 M253,44L254,45 M261,44L262,45 M262,44L263,45 M263,44L264,45 M264,44L265,45 M265,44L266,45 M248,45L249,46 M249,45L250,46 M263,45L264,46 M264,45L265,46 M265,45L266,46 M266,45L267,46 M247,46L248,47 M248,46L249,47 M265,46L266,47 M266,46L267,47 M246,47L247,48 M247,47L248,48 M266,47L267,48 M245,48L246,49 M246,48L247,49 M266,48L267,49 M244,49L245,50 M245,49L246,50 M266,49L267,50 M243,50L244,51 M244,50L245,51 M266,50L267,51 M242,51L243,52 M243,51L244,52 M265,51L266,52 M266,51L267,52 M241,52L242,53 M242,52L243,53 M265,52L266,53 M266,52L267,53 M240,53L241,54 M241,53L242,54 M265,53L266,54 M266,53L267,54 M239,54L240,55 M240,54L241,55 M265,54L266,55 M266,54L267,55 M238,55L239,56 M239,55L240,56 M265,55L266,56 M266,55L267,56 M238,56L239,57 M239,56L240,57 M265,56L266,57 M266,56L267,57 M237,57L238,58 M238,57L239,58 M265,57L266,58 M266,57L267,58 M237,58L238,59 M238,58L239,59 M265,58L266,59 M266,58L267,59 M236,59L237,60 M237,59L238,60 M264,59L265,60 M265,59L266,60 M236,60L237,61 M237,60L238,61 M264,60L265,61 M265,60L266,61 M235,61L236,62 M236,61L237,62 M264,61L265,62 M265,61L266,62 M235,62L236,63 M236,62L237,63 M263,62L264,63 M264,62L265,63 M234,63L235,64 M235,63L236,64 M236,63L237,64 M263,63L264,64 M264,63L265,64 M234,64L235,65 M235,64L236,65 M262,64L263,65 M263,64L264,65 M264,64L265,65 M233,65L234,66 M234,65L235,66 M235,65L236,66 M262,65L263,66 M263,65L264,66 M233,66L234,67 M234,66L235,67 M262,66L263,67 M263,66L264,67 M232,67L233,68 M233,67L234,68 M234,67L235,68 M261,67L262,68 M262,67L263,68 M263,67L264,68 M232,68L233,69 M233,68L234,69 M261,68L262,69 M262,68L263,69 M231,69L232,70 M232,69L233,70 M233,69L234,70 M261,69L262,70 M262,69L263,70 M231,70L232,71 M232,70L233,71 M260,70L261,71 M261,70L262,71 M231,71L232,72 M232,71L233,72 M260,71L261,72 M261,71L262,72 M230,72L231,73 M231,72L232,73 M260,72L261,73 M261,72L262,73 M230,73L231,74 M231,73L232,74 M259,73L260,74 M260,73L261,74 M229,74L230,75 M230,74L231,75 M258,74L259,75 M259,74L260,75 M260,74L261,75 M229,75L230,76 M230,75L231,76 M258,75L259,76 M259,75L260,76 M228,76L229,77 M229,76L230,77 M257,76L258,77 M258,76L259,77 M259,76L260,77 M228,77L229,78 M229,77L230,78 M257,77L258,78 M258,77L259,78 M228,78L229,79 M229,78L230,79 M256,78L257,79 M257,78L258,79 M228,79L229,80 M229,79L230,80 M255,79L256,80 M256,79L257,80 M257,79L258,80 M227,80L228,81 M228,80L229,81 M255,80L256,81 M256,80L257,81 M227,81L228,82 M228,81L229,82 M254,81L255,82 M255,81L256,82 M256,81L257,82 M227,82L228,83 M228,82L229,83 M254,82L255,83 M255,82L256,83 M227,83L228,84 M228,83L229,84 M253,83L254,84 M254,83L255,84 M226,84L227,85 M227,84L228,85 M253,84L254,85 M254,84L255,85 M226,85L227,86 M227,85L228,86 M252,85L253,86 M253,85L254,86 M226,86L227,87 M227,86L228,87 M251,86L252,87 M252,86L253,87 M253,86L254,87 M226,87L227,88 M227,87L228,88 M251,87L252,88 M252,87L253,88 M225,88L226,89 M226,88L227,89 M227,88L228,89 M250,88L251,89 M251,88L252,89 M252,88L253,89 M225,89L226,90 M226,89L227,90 M249,89L250,90 M250,89L251,90 M251,89L252,90 M225,90L226,91 M226,90L227,91 M248,90L249,91 M249,90L250,91 M250,90L251,91 M225,91L226,92 M226,91L227,92 M247,91L248,92 M248,91L249,92 M249,91L250,92 M224,92L225,93 M225,92L226,93 M226,92L227,93 M246,92L247,93 M247,92L248,93 M248,92L249,93 M224,93L225,94 M225,93L226,94 M245,93L246,94 M246,93L247,94 M247,93L248,94 M224,94L225,95 M225,94L226,95 M243,94L244,95 M244,94L245,95 M245,94L246,95 M246,94L247,95 M224,95L225,96 M225,95L226,96 M242,95L243,96 M243,95L244,96 M244,95L245,96 M224,96L225,97 M225,96L226,97 M241,96L242,97 M242,96L243,97 M243,96L244,97 M223,97L224,98 M224,97L225,98 M240,97L241,98 M241,97L242,98 M242,97L243,98 M223,98L224,99 M224,98L225,99 M239,98L240,99 M240,98L241,99 M241,98L242,99 M223,99L224,100 M224,99L225,100 M237,99L238,100 M238,99L239,100 M239,99L240,100 M240,99L241,100 M223,100L224,101 M224,100L225,101 M236,100L237,101 M237,100L238,101 M238,100L239,101 M222,101L223,102 M223,101L224,102 M234,101L235,102 M235,101L236,102 M236,101L237,102 M237,101L238,102 M430,101L431,102 M431,101L432,102 M432,101L433,102 M433,101L434,102 M434,101L435,102 M222,102L223,103 M223,102L224,103 M233,102L234,103 M234,102L235,103 M235,102L236,103 M236,102L237,103 M429,102L430,103 M430,102L431,103 M431,102L432,103 M432,102L433,103 M433,102L434,103 M434,102L435,103 M222,103L223,104 M223,103L224,104 M232,103L233,104 M233,103L234,104 M234,103L235,104 M428,103L429,104 M429,103L430,104 M430,103L431,104 M433,103L434,104 M434,103L435,104 M222,104L223,105 M223,104L224,105 M230,104L231,105 M231,104L232,105 M232,104L233,105 M233,104L234,105 M427,104L428,105 M428,104L429,105 M429,104L430,105 M433,104L434,105 M434,104L435,105 M222,105L223,106 M223,105L224,106 M229,105L230,106 M230,105L231,106 M231,105L232,106 M426,105L427,106 M427,105L428,106 M428,105L429,106 M433,105L434,106 M222,106L223,107 M223,106L224,107 M227,106L228,107 M228,106L229,107 M229,106L230,107 M230,106L231,107 M426,106L427,107 M427,106L428,107 M433,106L434,107 M222,107L223,108 M223,107L224,108 M226,107L227,108 M227,107L228,108 M228,107L229,108 M425,107L426,108 M426,107L427,108 M433,107L434,108 M222,108L223,109 M223,108L224,109 M224,108L225,109 M225,108L226,109 M226,108L227,109 M227,108L228,109 M425,108L426,109 M426,108L427,109 M432,108L433,109 M433,108L434,109 M222,109L223,110 M223,109L224,110 M224,109L225,110 M225,109L226,110 M425,109L426,110 M426,109L427,110 M432,109L433,110 M433,109L434,110 M219,110L220,111 M220,110L221,111 M221,110L222,111 M222,110L223,111 M223,110L224,111 M425,110L426,111 M426,110L427,111 M431,110L432,111 M432,110L433,111 M217,111L218,112 M218,111L219,112 M219,111L220,112 M220,111L221,112 M221,111L222,112 M222,111L223,112 M223,111L224,112 M425,111L426,112 M426,111L427,112 M431,111L432,112 M432,111L433,112 M215,112L216,113 M216,112L217,113 M217,112L218,113 M218,112L219,113 M219,112L220,113 M221,112L222,113 M222,112L223,113 M425,112L426,113 M426,112L427,113 M431,112L432,113 M174,113L175,114 M175,113L176,114 M212,113L213,114 M213,113L214,114 M214,113L215,114 M215,113L216,114 M216,113L217,114 M221,113L222,114 M222,113L223,114 M425,113L426,114 M426,113L427,114 M431,113L432,114 M173,114L174,115 M174,114L175,115 M175,114L176,115 M176,114L177,115 M210,114L211,115 M211,114L212,115 M212,114L213,115 M213,114L214,115 M214,114L215,115 M221,114L222,115 M222,114L223,115 M425,114L426,115 M426,114L427,115 M431,114L432,115 M174,115L175,116 M175,115L176,116 M176,115L177,116 M207,115L208,116 M208,115L209,116 M209,115L210,116 M210,115L211,116 M211,115L212,116 M212,115L213,116 M221,115L222,116 M222,115L223,116 M425,115L426,116 M426,115L427,116 M430,115L431,116 M431,115L432,116 M176,116L177,117 M177,116L178,117 M205,116L206,117 M206,116L207,117 M207,116L208,117 M208,116L209,117 M209,116L210,117 M221,116L222,117 M222,116L223,117 M425,116L426,117 M426,116L427,117 M430,116L431,117 M431,116L432,117 M177,117L178,118 M178,117L179,118 M179,117L180,118 M180,117L181,118 M202,117L203,118 M203,117L204,118 M204,117L205,118 M205,117L206,118 M206,117L207,118 M207,117L208,118 M221,117L222,118 M222,117L223,118 M425,117L426,118 M426,117L427,118 M430,117L431,118 M431,117L432,118 M178,118L179,119 M179,118L180,119 M180,118L181,119 M181,118L182,119 M182,118L183,119 M183,118L184,119 M184,118L185,119 M185,118L186,119 M199,118L200,119 M200,118L201,119 M201,118L202,119 M202,118L203,119 M203,118L204,119 M204,118L205,119 M221,118L222,119 M222,118L223,119 M425,118L426,119 M426,118L427,119 M430,118L431,119 M431,118L432,119 M181,119L182,120 M182,119L183,120 M183,119L184,120 M184,119L185,120 M185,119L186,120 M186,119L187,120 M187,119L188,120 M188,119L189,120 M189,119L190,120 M190,119L191,120 M191,119L192,120 M192,119L193,120 M193,119L194,120 M194,119L195,120 M195,119L196,120 M196,119L197,120 M197,119L198,120 M198,119L199,120 M199,119L200,120 M200,119L201,120 M201,119L202,120 M221,119L222,120 M222,119L223,120 M425,119L426,120 M426,119L427,120 M430,119L431,120 M431,119L432,120 M186,120L187,121 M187,120L188,121 M188,120L189,121 M189,120L190,121 M190,120L191,121 M191,120L192,121 M192,120L193,121 M193,120L194,121 M194,120L195,121 M195,120L196,121 M196,120L197,121 M197,120L198,121 M198,120L199,121 M199,120L200,121 M221,120L222,121 M222,120L223,121 M425,120L426,121 M426,120L427,121 M429,120L430,121 M430,120L431,121 M221,121L222,122 M222,121L223,122 M425,121L426,122 M426,121L427,122 M428,121L429,122 M429,121L430,122 M430,121L431,122 M221,122L222,123 M222,122L223,123 M425,122L426,123 M426,122L427,123 M427,122L428,123 M428,122L429,123 M429,122L430,123 M221,123L222,124 M222,123L223,124 M425,123L426,124 M426,123L427,124 M427,123L428,124 M428,123L429,124 M221,124L222,125 M425,124L426,125 M426,124L427,125 M427,124L428,125 M221,125L222,126 M424,125L425,126 M425,125L426,126 M426,125L427,126 M221,126L222,127 M423,126L424,127 M424,126L425,127 M425,126L426,127 M426,126L427,127 M221,127L222,128 M422,127L423,128 M423,127L424,128 M424,127L425,128 M426,127L427,128 M427,127L428,128 M221,128L222,129 M420,128L421,129 M421,128L422,129 M422,128L423,129 M426,128L427,129 M427,128L428,129 M221,129L222,130 M419,129L420,130 M420,129L421,130 M421,129L422,130 M426,129L427,130 M427,129L428,130 M221,130L222,131 M418,130L419,131 M419,130L420,131 M420,130L421,131 M426,130L427,131 M427,130L428,131 M221,131L222,132 M417,131L418,132 M418,131L419,132 M419,131L420,132 M426,131L427,132 M427,131L428,132 M221,132L222,133 M415,132L416,133 M416,132L417,133 M417,132L418,133 M418,132L419,133 M426,132L427,133 M427,132L428,133 M221,133L222,134 M412,133L413,134 M413,133L414,134 M414,133L415,134 M415,133L416,134 M416,133L417,134 M427,133L428,134 M428,133L429,134 M221,134L222,135 M409,134L410,135 M410,134L411,135 M411,134L412,135 M412,134L413,135 M413,134L414,135 M414,134L415,135 M427,134L428,135 M428,134L429,135 M221,135L222,136 M406,135L407,136 M407,135L408,136 M408,135L409,136 M409,135L410,136 M410,135L411,136 M411,135L412,136 M412,135L413,136 M427,135L428,136 M428,135L429,136 M221,136L222,137 M403,136L404,137 M404,136L405,137 M405,136L406,137 M406,136L407,137 M407,136L408,137 M408,136L409,137 M409,136L410,137 M427,136L428,137 M428,136L429,137 M221,137L222,138 M398,137L399,138 M399,137L400,138 M400,137L401,138 M401,137L402,138 M402,137L403,138 M403,137L404,138 M404,137L405,138 M405,137L406,138 M427,137L428,138 M428,137L429,138 M221,138L222,139 M392,138L393,139 M393,138L394,139 M394,138L395,139 M395,138L396,139 M396,138L397,139 M397,138L398,139 M398,138L399,139 M399,138L400,139 M400,138L401,139 M401,138L402,139 M402,138L403,139 M427,138L428,139 M428,138L429,139 M221,139L222,140 M382,139L383,140 M383,139L384,140 M384,139L385,140 M385,139L386,140 M386,139L387,140 M387,139L388,140 M388,139L389,140 M389,139L390,140 M390,139L391,140 M391,139L392,140 M392,139L393,140 M393,139L394,140 M394,139L395,140 M395,139L396,140 M396,139L397,140 M397,139L398,140 M427,139L428,140 M428,139L429,140 M221,140L222,141 M372,140L373,141 M373,140L374,141 M374,140L375,141 M375,140L376,141 M376,140L377,141 M377,140L378,141 M378,140L379,141 M379,140L380,141 M380,140L381,141 M381,140L382,141 M382,140L383,141 M383,140L384,141 M384,140L385,141 M385,140L386,141 M386,140L387,141 M387,140L388,141 M388,140L389,141 M389,140L390,141 M390,140L391,141 M391,140L392,141 M428,140L429,141 M429,140L430,141 M221,141L222,142 M366,141L367,142 M367,141L368,142 M368,141L369,142 M369,141L370,142 M370,141L371,142 M371,141L372,142 M372,141L373,142 M373,141L374,142 M374,141L375,142 M375,141L376,142 M376,141L377,142 M377,141L378,142 M378,141L379,142 M379,141L380,142 M380,141L381,142 M381,141L382,142 M428,141L429,142 M429,141L430,142 M221,142L222,143 M358,142L359,143 M359,142L360,143 M360,142L361,143 M361,142L362,143 M362,142L363,143 M363,142L364,143 M364,142L365,143 M365,142L366,143 M366,142L367,143 M367,142L368,143 M368,142L369,143 M369,142L370,143 M370,142L371,143 M371,142L372,143 M372,142L373,143 M428,142L429,143 M429,142L430,143 M221,143L222,144 M350,143L351,144 M351,143L352,144 M352,143L353,144 M353,143L354,144 M354,143L355,144 M355,143L356,144 M356,143L357,144 M357,143L358,144 M358,143L359,144 M359,143L360,144 M360,143L361,144 M361,143L362,144 M362,143L363,144 M363,143L364,144 M364,143L365,144 M365,143L366,144 M429,143L430,144 M430,143L431,144 M221,144L222,145 M341,144L342,145 M342,144L343,145 M343,144L344,145 M344,144L345,145 M345,144L346,145 M346,144L347,145 M347,144L348,145 M348,144L349,145 M349,144L350,145 M350,144L351,145 M351,144L352,145 M352,144L353,145 M353,144L354,145 M354,144L355,145 M355,144L356,145 M356,144L357,145 M357,144L358,145 M429,144L430,145 M430,144L431,145 M221,145L222,146 M236,145L237,146 M237,145L238,146 M238,145L239,146 M239,145L240,146 M240,145L241,146 M241,145L242,146 M242,145L243,146 M243,145L244,146 M244,145L245,146 M245,145L246,146 M246,145L247,146 M247,145L248,146 M248,145L249,146 M249,145L250,146 M250,145L251,146 M251,145L252,146 M252,145L253,146 M253,145L254,146 M254,145L255,146 M255,145L256,146 M256,145L257,146 M257,145L258,146 M258,145L259,146 M259,145L260,146 M260,145L261,146 M261,145L262,146 M262,145L263,146 M263,145L264,146 M264,145L265,146 M265,145L266,146 M266,145L267,146 M267,145L268,146 M268,145L269,146 M269,145L270,146 M270,145L271,146 M271,145L272,146 M272,145L273,146 M273,145L274,146 M274,145L275,146 M275,145L276,146 M276,145L277,146 M277,145L278,146 M278,145L279,146 M279,145L280,146 M280,145L281,146 M330,145L331,146 M331,145L332,146 M332,145L333,146 M333,145L334,146 M334,145L335,146 M335,145L336,146 M336,145L337,146 M337,145L338,146 M338,145L339,146 M339,145L340,146 M340,145L341,146 M341,145L342,146 M342,145L343,146 M343,145L344,146 M344,145L345,146 M345,145L346,146 M346,145L347,146 M347,145L348,146 M348,145L349,146 M349,145L350,146 M429,145L430,146 M430,145L431,146 M221,146L222,147 M228,146L229,147 M229,146L230,147 M230,146L231,147 M231,146L232,147 M232,146L233,147 M233,146L234,147 M234,146L235,147 M235,146L236,147 M236,146L237,147 M237,146L238,147 M238,146L239,147 M239,146L240,147 M240,146L241,147 M241,146L242,147 M242,146L243,147 M243,146L244,147 M244,146L245,147 M245,146L246,147 M246,146L247,147 M247,146L248,147 M248,146L249,147 M249,146L250,147 M250,146L251,147 M251,146L252,147 M252,146L253,147 M253,146L254,147 M254,146L255,147 M255,146L256,147 M256,146L257,147 M257,146L258,147 M258,146L259,147 M259,146L260,147 M260,146L261,147 M261,146L262,147 M262,146L263,147 M263,146L264,147 M264,146L265,147 M265,146L266,147 M266,146L267,147 M267,146L268,147 M268,146L269,147 M269,146L270,147 M270,146L271,147 M271,146L272,147 M272,146L273,147 M273,146L274,147 M274,146L275,147 M275,146L276,147 M276,146L277,147 M277,146L278,147 M278,146L279,147 M279,146L280,147 M280,146L281,147 M281,146L282,147 M282,146L283,147 M283,146L284,147 M284,146L285,147 M285,146L286,147 M286,146L287,147 M287,146L288,147 M288,146L289,147 M289,146L290,147 M290,146L291,147 M320,146L321,147 M321,146L322,147 M322,146L323,147 M323,146L324,147 M324,146L325,147 M325,146L326,147 M326,146L327,147 M327,146L328,147 M328,146L329,147 M329,146L330,147 M330,146L331,147 M331,146L332,147 M332,146L333,147 M333,146L334,147 M334,146L335,147 M335,146L336,147 M336,146L337,147 M337,146L338,147 M338,146L339,147 M339,146L340,147 M340,146L341,147 M430,146L431,147 M431,146L432,147 M221,147L222,148 M224,147L225,148 M225,147L226,148 M226,147L227,148 M227,147L228,148 M228,147L229,148 M229,147L230,148 M230,147L231,148 M231,147L232,148 M232,147L233,148 M233,147L234,148 M234,147L235,148 M235,147L236,148 M281,147L282,148 M282,147L283,148 M283,147L284,148 M284,147L285,148 M285,147L286,148 M286,147L287,148 M287,147L288,148 M288,147L289,148 M289,147L290,148 M290,147L291,148 M291,147L292,148 M292,147L293,148 M293,147L294,148 M294,147L295,148 M295,147L296,148 M296,147L297,148 M297,147L298,148 M298,147L299,148 M299,147L300,148 M300,147L301,148 M301,147L302,148 M302,147L303,148 M303,147L304,148 M304,147L305,148 M305,147L306,148 M306,147L307,148 M307,147L308,148 M308,147L309,148 M309,147L310,148 M310,147L311,148 M311,147L312,148 M312,147L313,148 M313,147L314,148 M314,147L315,148 M315,147L316,148 M316,147L317,148 M317,147L318,148 M318,147L319,148 M319,147L320,148 M320,147L321,148 M321,147L322,148 M322,147L323,148 M323,147L324,148 M324,147L325,148 M325,147L326,148 M326,147L327,148 M327,147L328,148 M328,147L329,148 M329,147L330,148 M430,147L431,148 M431,147L432,148 M221,148L222,149 M222,148L223,149 M223,148L224,149 M224,148L225,149 M225,148L226,149 M226,148L227,149 M227,148L228,149 M291,148L292,149 M292,148L293,149 M293,148L294,149 M294,148L295,149 M295,148L296,149 M296,148L297,149 M297,148L298,149 M298,148L299,149 M299,148L300,149 M300,148L301,149 M301,148L302,149 M302,148L303,149 M303,148L304,149 M304,148L305,149 M305,148L306,149 M306,148L307,149 M307,148L308,149 M308,148L309,149 M309,148L310,149 M310,148L311,149 M311,148L312,149 M312,148L313,149 M313,148L314,149 M314,148L315,149 M315,148L316,149 M316,148L317,149 M317,148L318,149 M318,148L319,149 M319,148L320,149 M430,148L431,149 M431,148L432,149 M221,149L222,150 M222,149L223,150 M223,149L224,150 M430,149L431,150 M431,149L432,150 M432,149L433,150 M220,150L221,151 M221,150L222,151 M431,150L432,151 M432,150L433,151 M219,151L220,152 M220,151L221,152 M221,151L222,152 M431,151L432,152 M432,151L433,152 M219,152L220,153 M220,152L221,153 M221,152L222,153 M431,152L432,153 M432,152L433,153 M433,152L434,153 M219,153L220,154 M220,153L221,154 M221,153L222,154 M432,153L433,154 M433,153L434,154 M219,154L220,155 M220,154L221,155 M221,154L222,155 M432,154L433,155 M433,154L434,155 M432,155L433,156 M433,155L434,156 M433,156L434,157 M434,156L435,157 M433,157L434,158 M434,157L435,158 M433,158L434,159 M434,158L435,159 M434,159L435,160 M435,159L436,160 M434,160L435,161 M435,160L436,161 M435,161L436,162 M436,161L437,162 M435,162L436,163 M436,162L437,163 M436,163L437,164 M437,163L438,164 M436,164L437,165 M437,164L438,165 M437,165L438,166 M438,165L439,166 M437,166L438,167 M438,166L439,167 M438,167L439,168 M439,167L440,168 M438,168L439,169 M439,168L440,169 M439,169L440,170 M440,169L441,170 M439,170L440,171 M440,170L441,171 M440,171L441,172 M441,171L442,172 M440,172L441,173 M441,172L442,173 M441,173L442,174 M442,173L443,174 M441,174L442,175 M442,174L443,175 M442,175L443,176 M443,175L444,176 M442,176L443,177 M443,176L444,177 M443,177L444,178 M444,177L445,178 M444,178L445,179 M445,178L446,179 M445,179L446,180 M446,179L447,180 M446,180L447,181 M447,180L448,181 M447,181L448,182 M448,181L449,182 M448,182L449,183 M449,182L450,183 M449,183L450,184 M450,183L451,184 M450,184L451,185 M451,184L452,185 M451,185L452,186 M452,185L453,186 M453,185L454,186 M452,186L453,187 M453,186L454,187 M454,186L455,187 M453,187L454,188 M454,187L455,188 M455,187L456,188 M454,188L455,189 M455,188L456,189 M456,188L457,189 M457,188L458,189 M456,189L457,190 M457,189L458,190 M458,189L459,190 M457,190L458,191 M458,190L459,191 M459,190L460,191 M458,191L459,192 M459,191L460,192 M460,191L461,192 M461,191L462,192 M460,192L461,193 M461,192L462,193 M462,192L463,193 M461,193L462,194 M462,193L463,194 M463,193L464,194 M464,193L465,194 M463,194L464,195 M464,194L465,195 M465,194L466,195 M466,194L467,195 M465,195L466,196 M466,195L467,196 M467,195L468,196 M466,196L467,197 M467,196L468,197 M468,196L469,197 M467,197L468,198 M468,197L469,198 M469,197L470,198 M468,198L469,199 M469,198L470,199 M469,199L470,200 M470,199L471,200 M470,200L471,201 M471,200L472,201 M471,201L472,202" fill="none" stroke="black" />
    </svg>