<svg xmlns="http://www.w3.org/2000/svg" width="800" height="250">
        <path d="M297,67L298,68 M298,67L299,68 M296,68L297,69 M297,68L298,69 M298,68L299,69 M295,69L296,70 M296,69L297,70 M297,69L298,70 M295,70L296,71 M296,70L297,71 M294,71L295,72 M295,71L296,72 M293,72L294,73 M294,72L295,73 M295,72L296,73 M292,73L293,74 M293,73L294,74 M294,73L295,74 M292,74L293,75 M293,74L294,75 M291,75L292,76 M292,75L293,76 M290,76L291,77 M291,76L292,77 M292,76L293,77 M289,77L290,78 M290,77L291,78 M291,77L292,78 M85,78L86,79 M86,78L87,79 M87,78L88,79 M88,78L89,79 M89,78L90,79 M90,78L91,79 M91,78L92,79 M92,78L93,79 M93,78L94,79 M94,78L95,79 M95,78L96,79 M96,78L97,79 M97,78L98,79 M98,78L99,79 M99,78L100,79 M100,78L101,79 M101,78L102,79 M102,78L103,79 M103,78L104,79 M104,78L105,79 M105,78L106,79 M106,78L107,79 M107,78L108,79 M108,78L109,79 M109,78L110,79 M110,78L111,79 M111,78L112,79 M112,78L113,79 M113,78L114,79 M114,78L115,79 M115,78L116,79 M116,78L117,79 M117,78L118,79 M118,78L119,79 M119,78L120,79 M120,78L121,79 M121,78L122,79 M122,78L123,79 M123,78L124,79 M124,78L125,79 M125,78L126,79 M126,78L127,79 M127,78L128,79 M128,78L129,79 M129,78L130,79 M130,78L131,79 M131,78L132,79 M288,78L289,79 M289,78L290,79 M290,78L291,79 M78,79L79,80 M79,79L80,80 M80,79L81,80 M81,79L82,80 M82,79L83,80 M83,79L84,80 M84,79L85,80 M85,79L86,80 M86,79L87,80 M87,79L88,80 M88,79L89,80 M89,79L90,80 M90,79L91,80 M91,79L92,80 M92,79L93,80 M93,79L94,80 M94,79L95,80 M95,79L96,80 M96,79L97,80 M97,79L98,80 M98,79L99,80 M99,79L100,80 M100,79L101,80 M101,79L102,80 M102,79L103,80 M103,79L104,80 M104,79L105,80 M105,79L106,80 M106,79L107,80 M107,79L108,80 M108,79L109,80 M109,79L110,80 M110,79L111,80 M111,79L112,80 M112,79L113,80 M113,79L114,80 M114,79L115,80 M115,79L116,80 M116,79L117,80 M117,79L118,80 M118,79L119,80 M119,79L120,80 M120,79L121,80 M121,79L122,80 M122,79L123,80 M123,79L124,80 M124,79L125,80 M125,79L126,80 M126,79L127,80 M127,79L128,80 M128,79L129,80 M129,79L130,80 M130,79L131,80 M131,79L132,80 M132,79L133,80 M133,79L134,80 M134,79L135,80 M135,79L136,80 M136,79L137,80 M137,79L138,80 M138,79L139,80 M139,79L140,80 M140,79L141,80 M141,79L142,80 M142,79L143,80 M143,79L144,80 M144,79L145,80 M145,79L146,80 M146,79L147,80 M147,79L148,80 M148,79L149,80 M149,79L150,80 M150,79L151,80 M151,79L152,80 M152,79L153,80 M153,79L154,80 M288,79L289,80 M289,79L290,80 M72,80L73,81 M73,80L74,81 M74,80L75,81 M75,80L76,81 M76,80L77,81 M77,80L78,81 M78,80L79,81 M79,80L80,81 M80,80L81,81 M81,80L82,81 M82,80L83,81 M83,80L84,81 M84,80L85,81 M132,80L133,81 M133,80L134,81 M134,80L135,81 M135,80L136,81 M136,80L137,81 M137,80L138,81 M138,80L139,81 M139,80L140,81 M140,80L141,81 M141,80L142,81 M142,80L143,81 M143,80L144,81 M144,80L145,81 M145,80L146,81 M146,80L147,81 M147,80L148,81 M148,80L149,81 M149,80L150,81 M150,80L151,81 M151,80L152,81 M152,80L153,81 M153,80L154,81 M154,80L155,81 M155,80L156,81 M156,80L157,81 M157,80L158,81 M158,80L159,81 M159,80L160,81 M160,80L161,81 M161,80L162,81 M162,80L163,81 M163,80L164,81 M164,80L165,81 M165,80L166,81 M166,80L167,81 M167,80L168,81 M168,80L169,81 M169,80L170,81 M287,80L288,81 M288,80L289,81 M65,81L66,82 M66,81L67,82 M67,81L68,82 M68,81L69,82 M69,81L70,82 M70,81L71,82 M71,81L72,82 M72,81L73,82 M73,81L74,82 M74,81L75,82 M75,81L76,82 M76,81L77,82 M77,81L78,82 M154,81L155,82 M155,81L156,82 M156,81L157,82 M157,81L158,82 M158,81L159,82 M159,81L160,82 M160,81L161,82 M161,81L162,82 M162,81L163,82 M163,81L164,82 M164,81L165,82 M165,81L166,82 M166,81L167,82 M167,81L168,82 M168,81L169,82 M169,81L170,82 M170,81L171,82 M171,81L172,82 M172,81L173,82 M173,81L174,82 M174,81L175,82 M286,81L287,82 M287,81L288,82 M288,81L289,82 M60,82L61,83 M61,82L62,83 M62,82L63,83 M63,82L64,83 M64,82L65,83 M65,82L66,83 M66,82L67,83 M67,82L68,83 M68,82L69,83 M69,82L70,83 M70,82L71,83 M71,82L72,83 M169,82L170,83 M170,82L171,83 M171,82L172,83 M172,82L173,83 M173,82L174,83 M174,82L175,83 M175,82L176,83 M176,82L177,83 M177,82L178,83 M178,82L179,83 M179,82L180,83 M286,82L287,83 M287,82L288,83 M56,83L57,84 M57,83L58,84 M58,83L59,84 M59,83L60,84 M60,83L61,84 M61,83L62,84 M62,83L63,84 M63,83L64,84 M64,83L65,84 M175,83L176,84 M176,83L177,84 M177,83L178,84 M178,83L179,84 M179,83L180,84 M180,83L181,84 M181,83L182,84 M182,83L183,84 M183,83L184,84 M184,83L185,84 M285,83L286,84 M286,83L287,84 M53,84L54,85 M54,84L55,85 M55,84L56,85 M56,84L57,85 M57,84L58,85 M58,84L59,85 M59,84L60,85 M180,84L181,85 M181,84L182,85 M182,84L183,85 M183,84L184,85 M184,84L185,85 M185,84L186,85 M186,84L187,85 M187,84L188,85 M188,84L189,85 M189,84L190,85 M190,84L191,85 M284,84L285,85 M285,84L286,85 M286,84L287,85 M49,85L50,86 M50,85L51,86 M51,85L52,86 M52,85L53,86 M53,85L54,86 M54,85L55,86 M55,85L56,86 M56,85L57,86 M185,85L186,86 M186,85L187,86 M187,85L188,86 M188,85L189,86 M189,85L190,86 M190,85L191,86 M191,85L192,86 M192,85L193,86 M193,85L194,86 M194,85L195,86 M195,85L196,86 M284,85L285,86 M285,85L286,86 M46,86L47,87 M47,86L48,87 M48,86L49,87 M49,86L50,87 M50,86L51,87 M51,86L52,87 M52,86L53,87 M191,86L192,87 M192,86L193,87 M193,86L194,87 M194,86L195,87 M195,86L196,87 M196,86L197,87 M197,86L198,87 M198,86L199,87 M199,86L200,87 M200,86L201,87 M245,86L246,87 M246,86L247,87 M247,86L248,87 M248,86L249,87 M249,86L250,87 M250,86L251,87 M251,86L252,87 M252,86L253,87 M253,86L254,87 M254,86L255,87 M255,86L256,87 M256,86L257,87 M257,86L258,87 M258,86L259,87 M259,86L260,87 M260,86L261,87 M261,86L262,87 M262,86L263,87 M263,86L264,87 M264,86L265,87 M265,86L266,87 M266,86L267,87 M267,86L268,87 M268,86L269,87 M269,86L270,87 M270,86L271,87 M271,86L272,87 M283,86L284,87 M284,86L285,87 M285,86L286,87 M44,87L45,88 M45,87L46,88 M46,87L47,88 M47,87L48,88 M48,87L49,88 M49,87L50,88 M196,87L197,88 M197,87L198,88 M198,87L199,88 M199,87L200,88 M200,87L201,88 M201,87L202,88 M202,87L203,88 M203,87L204,88 M204,87L205,88 M205,87L206,88 M206,87L207,88 M212,87L213,88 M213,87L214,88 M214,87L215,88 M215,87L216,88 M216,87L217,88 M217,87L218,88 M218,87L219,88 M219,87L220,88 M220,87L221,88 M221,87L222,88 M222,87L223,88 M223,87L224,88 M224,87L225,88 M225,87L226,88 M226,87L227,88 M227,87L228,88 M228,87L229,88 M229,87L230,88 M230,87L231,88 M231,87L232,88 M232,87L233,88 M233,87L234,88 M234,87L235,88 M235,87L236,88 M236,87L237,88 M237,87L238,88 M238,87L239,88 M239,87L240,88 M240,87L241,88 M241,87L242,88 M242,87L243,88 M243,87L244,88 M244,87L245,88 M245,87L246,88 M246,87L247,88 M247,87L248,88 M248,87L249,88 M249,87L250,88 M250,87L251,88 M251,87L252,88 M252,87L253,88 M253,87L254,88 M254,87L255,88 M255,87L256,88 M256,87L257,88 M257,87L258,88 M258,87L259,88 M259,87L260,88 M260,87L261,88 M261,87L262,88 M262,87L263,88 M263,87L264,88 M264,87L265,88 M265,87L266,88 M266,87L267,88 M267,87L268,88 M268,87L269,88 M269,87L270,88 M270,87L271,88 M271,87L272,88 M272,87L273,88 M273,87L274,88 M274,87L275,88 M275,87L276,88 M276,87L277,88 M277,87L278,88 M278,87L279,88 M279,87L280,88 M280,87L281,88 M281,87L282,88 M282,87L283,88 M283,87L284,88 M284,87L285,88 M285,87L286,88 M286,87L287,88 M287,87L288,88 M288,87L289,88 M289,87L290,88 M290,87L291,88 M291,87L292,88 M292,87L293,88 M293,87L294,88 M294,87L295,88 M295,87L296,88 M296,87L297,88 M297,87L298,88 M298,87L299,88 M299,87L300,88 M300,87L301,88 M301,87L302,88 M302,87L303,88 M303,87L304,88 M304,87L305,88 M305,87L306,88 M306,87L307,88 M307,87L308,88 M308,87L309,88 M309,87L310,88 M310,87L311,88 M311,87L312,88 M312,87L313,88 M42,88L43,89 M43,88L44,89 M44,88L45,89 M45,88L46,89 M46,88L47,89 M192,88L193,89 M193,88L194,89 M194,88L195,89 M195,88L196,89 M196,88L197,89 M197,88L198,89 M198,88L199,89 M199,88L200,89 M200,88L201,89 M201,88L202,89 M202,88L203,89 M203,88L204,89 M204,88L205,89 M205,88L206,89 M206,88L207,89 M207,88L208,89 M208,88L209,89 M209,88L210,89 M210,88L211,89 M211,88L212,89 M212,88L213,89 M213,88L214,89 M214,88L215,89 M215,88L216,89 M216,88L217,89 M217,88L218,89 M218,88L219,89 M219,88L220,89 M220,88L221,89 M221,88L222,89 M222,88L223,89 M223,88L224,89 M224,88L225,89 M225,88L226,89 M226,88L227,89 M227,88L228,89 M228,88L229,89 M229,88L230,89 M230,88L231,89 M231,88L232,89 M232,88L233,89 M233,88L234,89 M234,88L235,89 M235,88L236,89 M236,88L237,89 M237,88L238,89 M238,88L239,89 M239,88L240,89 M240,88L241,89 M241,88L242,89 M242,88L243,89 M243,88L244,89 M272,88L273,89 M273,88L274,89 M274,88L275,89 M275,88L276,89 M276,88L277,89 M277,88L278,89 M278,88L279,89 M279,88L280,89 M280,88L281,89 M281,88L282,89 M282,88L283,89 M283,88L284,89 M284,88L285,89 M285,88L286,89 M286,88L287,89 M287,88L288,89 M288,88L289,89 M289,88L290,89 M290,88L291,89 M291,88L292,89 M292,88L293,89 M293,88L294,89 M294,88L295,89 M295,88L296,89 M296,88L297,89 M297,88L298,89 M298,88L299,89 M299,88L300,89 M300,88L301,89 M301,88L302,89 M302,88L303,89 M303,88L304,89 M304,88L305,89 M305,88L306,89 M306,88L307,89 M307,88L308,89 M308,88L309,89 M309,88L310,89 M310,88L311,89 M311,88L312,89 M312,88L313,89 M313,88L314,89 M314,88L315,89 M315,88L316,89 M316,88L317,89 M317,88L318,89 M40,89L41,90 M41,89L42,90 M42,89L43,90 M43,89L44,90 M44,89L45,90 M175,89L176,90 M176,89L177,90 M177,89L178,90 M178,89L179,90 M179,89L180,90 M180,89L181,90 M181,89L182,90 M182,89L183,90 M183,89L184,90 M184,89L185,90 M185,89L186,90 M186,89L187,90 M187,89L188,90 M188,89L189,90 M189,89L190,90 M190,89L191,90 M191,89L192,90 M192,89L193,90 M193,89L194,90 M194,89L195,90 M195,89L196,90 M196,89L197,90 M197,89L198,90 M198,89L199,90 M199,89L200,90 M200,89L201,90 M201,89L202,90 M202,89L203,90 M203,89L204,90 M204,89L205,90 M205,89L206,90 M206,89L207,90 M207,89L208,90 M208,89L209,90 M209,89L210,90 M210,89L211,90 M211,89L212,90 M212,89L213,90 M213,89L214,90 M214,89L215,90 M215,89L216,90 M216,89L217,90 M281,89L282,90 M282,89L283,90 M283,89L284,90 M313,89L314,90 M314,89L315,90 M315,89L316,90 M316,89L317,90 M317,89L318,90 M318,89L319,90 M319,89L320,90 M320,89L321,90 M321,89L322,90 M38,90L39,91 M39,90L40,91 M40,90L41,91 M41,90L42,91 M42,90L43,91 M161,90L162,91 M162,90L163,91 M163,90L164,91 M164,90L165,91 M165,90L166,91 M166,90L167,91 M167,90L168,91 M168,90L169,91 M169,90L170,91 M170,90L171,91 M171,90L172,91 M172,90L173,91 M173,90L174,91 M174,90L175,91 M175,90L176,91 M176,90L177,91 M177,90L178,91 M178,90L179,91 M179,90L180,91 M180,90L181,91 M181,90L182,91 M182,90L183,91 M183,90L184,91 M184,90L185,91 M185,90L186,91 M186,90L187,91 M187,90L188,91 M188,90L189,91 M189,90L190,91 M190,90L191,91 M191,90L192,91 M212,90L213,91 M213,90L214,91 M214,90L215,91 M215,90L216,91 M216,90L217,91 M217,90L218,91 M218,90L219,91 M219,90L220,91 M220,90L221,91 M221,90L222,91 M280,90L281,91 M281,90L282,91 M282,90L283,91 M317,90L318,91 M318,90L319,91 M319,90L320,91 M320,90L321,91 M321,90L322,91 M322,90L323,91 M323,90L324,91 M324,90L325,91 M325,90L326,91 M37,91L38,92 M38,91L39,92 M39,91L40,92 M40,91L41,92 M148,91L149,92 M149,91L150,92 M150,91L151,92 M151,91L152,92 M152,91L153,92 M153,91L154,92 M154,91L155,92 M155,91L156,92 M156,91L157,92 M157,91L158,92 M158,91L159,92 M159,91L160,92 M160,91L161,92 M161,91L162,92 M162,91L163,92 M163,91L164,92 M164,91L165,92 M165,91L166,92 M166,91L167,92 M167,91L168,92 M168,91L169,92 M169,91L170,92 M170,91L171,92 M171,91L172,92 M172,91L173,92 M173,91L174,92 M174,91L175,92 M217,91L218,92 M218,91L219,92 M219,91L220,92 M220,91L221,92 M221,91L222,92 M222,91L223,92 M223,91L224,92 M224,91L225,92 M225,91L226,92 M279,91L280,92 M280,91L281,92 M281,91L282,92 M322,91L323,92 M323,91L324,92 M324,91L325,92 M325,91L326,92 M326,91L327,92 M327,91L328,92 M328,91L329,92 M329,91L330,92 M36,92L37,93 M37,92L38,93 M38,92L39,93 M132,92L133,93 M133,92L134,93 M134,92L135,93 M135,92L136,93 M136,92L137,93 M137,92L138,93 M138,92L139,93 M139,92L140,93 M140,92L141,93 M141,92L142,93 M142,92L143,93 M143,92L144,93 M144,92L145,93 M145,92L146,93 M146,92L147,93 M147,92L148,93 M148,92L149,93 M149,92L150,93 M150,92L151,93 M151,92L152,93 M152,92L153,93 M153,92L154,93 M154,92L155,93 M155,92L156,93 M156,92L157,93 M157,92L158,93 M158,92L159,93 M159,92L160,93 M160,92L161,93 M222,92L223,93 M223,92L224,93 M224,92L225,93 M225,92L226,93 M226,92L227,93 M227,92L228,93 M228,92L229,93 M229,92L230,93 M230,92L231,93 M278,92L279,93 M279,92L280,93 M280,92L281,93 M326,92L327,93 M327,92L328,93 M328,92L329,93 M329,92L330,93 M330,92L331,93 M331,92L332,93 M332,92L333,93 M35,93L36,94 M36,93L37,94 M112,93L113,94 M113,93L114,94 M114,93L115,94 M115,93L116,94 M116,93L117,94 M117,93L118,94 M118,93L119,94 M119,93L120,94 M120,93L121,94 M121,93L122,94 M122,93L123,94 M123,93L124,94 M124,93L125,94 M125,93L126,94 M126,93L127,94 M127,93L128,94 M128,93L129,94 M129,93L130,94 M130,93L131,94 M131,93L132,94 M132,93L133,94 M133,93L134,94 M134,93L135,94 M135,93L136,94 M136,93L137,94 M137,93L138,94 M138,93L139,94 M139,93L140,94 M140,93L141,94 M141,93L142,94 M142,93L143,94 M143,93L144,94 M144,93L145,94 M145,93L146,94 M146,93L147,94 M147,93L148,94 M226,93L227,94 M227,93L228,94 M228,93L229,94 M229,93L230,94 M230,93L231,94 M231,93L232,94 M232,93L233,94 M233,93L234,94 M234,93L235,94 M277,93L278,94 M278,93L279,94 M279,93L280,94 M330,93L331,94 M331,93L332,94 M332,93L333,94 M333,93L334,94 M334,93L335,94 M34,94L35,95 M35,94L36,95 M91,94L92,95 M92,94L93,95 M93,94L94,95 M94,94L95,95 M95,94L96,95 M96,94L97,95 M97,94L98,95 M98,94L99,95 M99,94L100,95 M100,94L101,95 M101,94L102,95 M102,94L103,95 M103,94L104,95 M104,94L105,95 M105,94L106,95 M106,94L107,95 M107,94L108,95 M108,94L109,95 M109,94L110,95 M110,94L111,95 M111,94L112,95 M112,94L113,95 M113,94L114,95 M114,94L115,95 M115,94L116,95 M116,94L117,95 M117,94L118,95 M118,94L119,95 M119,94L120,95 M120,94L121,95 M121,94L122,95 M122,94L123,95 M123,94L124,95 M124,94L125,95 M125,94L126,95 M126,94L127,95 M127,94L128,95 M128,94L129,95 M129,94L130,95 M130,94L131,95 M131,94L132,95 M230,94L231,95 M231,94L232,95 M232,94L233,95 M233,94L234,95 M234,94L235,95 M235,94L236,95 M236,94L237,95 M237,94L238,95 M238,94L239,95 M276,94L277,95 M277,94L278,95 M278,94L279,95 M333,94L334,95 M334,94L335,95 M335,94L336,95 M33,95L34,96 M34,95L35,96 M35,95L36,96 M36,95L37,96 M37,95L38,96 M38,95L39,96 M39,95L40,96 M40,95L41,96 M41,95L42,96 M66,95L67,96 M67,95L68,96 M68,95L69,96 M69,95L70,96 M70,95L71,96 M71,95L72,96 M72,95L73,96 M73,95L74,96 M74,95L75,96 M75,95L76,96 M76,95L77,96 M77,95L78,96 M78,95L79,96 M79,95L80,96 M80,95L81,96 M81,95L82,96 M82,95L83,96 M83,95L84,96 M84,95L85,96 M85,95L86,96 M86,95L87,96 M87,95L88,96 M88,95L89,96 M89,95L90,96 M90,95L91,96 M91,95L92,96 M92,95L93,96 M93,95L94,96 M94,95L95,96 M95,95L96,96 M96,95L97,96 M97,95L98,96 M98,95L99,96 M99,95L100,96 M100,95L101,96 M101,95L102,96 M102,95L103,96 M103,95L104,96 M104,95L105,96 M105,95L106,96 M106,95L107,96 M107,95L108,96 M108,95L109,96 M109,95L110,96 M110,95L111,96 M111,95L112,96 M235,95L236,96 M236,95L237,96 M237,95L238,96 M238,95L239,96 M239,95L240,96 M240,95L241,96 M241,95L242,96 M242,95L243,96 M276,95L277,96 M277,95L278,96 M334,95L335,96 M335,95L336,96 M34,96L35,97 M35,96L36,97 M36,96L37,97 M37,96L38,97 M38,96L39,97 M39,96L40,97 M40,96L41,97 M41,96L42,97 M42,96L43,97 M43,96L44,97 M44,96L45,97 M45,96L46,97 M46,96L47,97 M47,96L48,97 M48,96L49,97 M49,96L50,97 M50,96L51,97 M51,96L52,97 M52,96L53,97 M53,96L54,97 M54,96L55,97 M55,96L56,97 M56,96L57,97 M57,96L58,97 M58,96L59,97 M59,96L60,97 M60,96L61,97 M61,96L62,97 M62,96L63,97 M63,96L64,97 M64,96L65,97 M65,96L66,97 M66,96L67,97 M67,96L68,97 M68,96L69,97 M69,96L70,97 M70,96L71,97 M71,96L72,97 M72,96L73,97 M73,96L74,97 M74,96L75,97 M75,96L76,97 M76,96L77,97 M77,96L78,97 M78,96L79,97 M79,96L80,97 M80,96L81,97 M81,96L82,97 M82,96L83,97 M83,96L84,97 M84,96L85,97 M85,96L86,97 M86,96L87,97 M87,96L88,97 M88,96L89,97 M89,96L90,97 M90,96L91,97 M239,96L240,97 M240,96L241,97 M241,96L242,97 M242,96L243,97 M243,96L244,97 M244,96L245,97 M245,96L246,97 M246,96L247,97 M275,96L276,97 M276,96L277,97 M334,96L335,97 M335,96L336,97 M42,97L43,98 M43,97L44,98 M44,97L45,98 M45,97L46,98 M46,97L47,98 M47,97L48,98 M48,97L49,98 M49,97L50,98 M50,97L51,98 M51,97L52,98 M52,97L53,98 M53,97L54,98 M54,97L55,98 M55,97L56,98 M56,97L57,98 M57,97L58,98 M58,97L59,98 M59,97L60,98 M60,97L61,98 M61,97L62,98 M62,97L63,98 M63,97L64,98 M64,97L65,98 M65,97L66,98 M243,97L244,98 M244,97L245,98 M245,97L246,98 M246,97L247,98 M247,97L248,98 M248,97L249,98 M249,97L250,98 M250,97L251,98 M251,97L252,98 M275,97L276,98 M276,97L277,98 M334,97L335,98 M335,97L336,98 M247,98L248,99 M248,98L249,99 M249,98L250,99 M250,98L251,99 M251,98L252,99 M252,98L253,99 M253,98L254,99 M254,98L255,99 M255,98L256,99 M274,98L275,99 M275,98L276,99 M334,98L335,99 M335,98L336,99 M251,99L252,100 M252,99L253,100 M253,99L254,100 M254,99L255,100 M255,99L256,100 M256,99L257,100 M257,99L258,100 M258,99L259,100 M259,99L260,100 M273,99L274,100 M274,99L275,100 M275,99L276,100 M334,99L335,100 M335,99L336,100 M256,100L257,101 M257,100L258,101 M258,100L259,101 M259,100L260,101 M260,100L261,101 M261,100L262,101 M262,100L263,101 M263,100L264,101 M273,100L274,101 M274,100L275,101 M334,100L335,101 M335,100L336,101 M260,101L261,102 M261,101L262,102 M262,101L263,102 M263,101L264,102 M264,101L265,102 M265,101L266,102 M266,101L267,102 M267,101L268,102 M268,101L269,102 M272,101L273,102 M273,101L274,102 M274,101L275,102 M334,101L335,102 M335,101L336,102 M264,102L265,103 M265,102L266,103 M266,102L267,103 M267,102L268,103 M268,102L269,103 M269,102L270,103 M270,102L271,103 M271,102L272,103 M272,102L273,103 M273,102L274,103 M333,102L334,103 M334,102L335,103 M268,103L269,104 M269,103L270,104 M270,103L271,104 M271,103L272,104 M272,103L273,104 M273,103L274,104 M274,103L275,104 M275,103L276,104 M276,103L277,104 M332,103L333,104 M333,103L334,104 M334,103L335,104 M271,104L272,105 M272,104L273,105 M273,104L274,105 M274,104L275,105 M275,104L276,105 M276,104L277,105 M277,104L278,105 M278,104L279,105 M279,104L280,105 M280,104L281,105 M332,104L333,105 M333,104L334,105 M270,105L271,106 M271,105L272,106 M277,105L278,106 M278,105L279,106 M279,105L280,106 M280,105L281,106 M281,105L282,106 M282,105L283,106 M283,105L284,106 M331,105L332,106 M332,105L333,106 M333,105L334,106 M270,106L271,107 M271,106L272,107 M281,106L282,107 M282,106L283,107 M283,106L284,107 M284,106L285,107 M285,106L286,107 M286,106L287,107 M287,106L288,107 M331,106L332,107 M332,106L333,107 M269,107L270,108 M270,107L271,108 M284,107L285,108 M285,107L286,108 M286,107L287,108 M287,107L288,108 M288,107L289,108 M289,107L290,108 M290,107L291,108 M330,107L331,108 M331,107L332,108 M268,108L269,109 M269,108L270,109 M270,108L271,109 M288,108L289,109 M289,108L290,109 M290,108L291,109 M291,108L292,109 M292,108L293,109 M293,108L294,109 M294,108L295,109 M329,108L330,109 M330,108L331,109 M331,108L332,109 M267,109L268,110 M268,109L269,110 M269,109L270,110 M291,109L292,110 M292,109L293,110 M293,109L294,110 M294,109L295,110 M295,109L296,110 M296,109L297,110 M297,109L298,110 M328,109L329,110 M329,109L330,110 M330,109L331,110 M266,110L267,111 M267,110L268,111 M268,110L269,111 M294,110L295,111 M295,110L296,111 M296,110L297,111 M297,110L298,111 M298,110L299,111 M299,110L300,111 M300,110L301,111 M301,110L302,111 M327,110L328,111 M328,110L329,111 M329,110L330,111 M265,111L266,112 M266,111L267,112 M267,111L268,112 M298,111L299,112 M299,111L300,112 M300,111L301,112 M301,111L302,112 M302,111L303,112 M303,111L304,112 M304,111L305,112 M326,111L327,112 M327,111L328,112 M328,111L329,112 M264,112L265,113 M265,112L266,113 M266,112L267,113 M301,112L302,113 M302,112L303,113 M303,112L304,113 M304,112L305,113 M305,112L306,113 M306,112L307,113 M307,112L308,113 M308,112L309,113 M326,112L327,113 M327,112L328,113 M263,113L264,114 M264,113L265,114 M265,113L266,114 M305,113L306,114 M306,113L307,114 M307,113L308,114 M308,113L309,114 M309,113L310,114 M310,113L311,114 M311,113L312,114 M324,113L325,114 M325,113L326,114 M326,113L327,114 M263,114L264,115 M264,114L265,115 M308,114L309,115 M309,114L310,115 M310,114L311,115 M311,114L312,115 M312,114L313,115 M313,114L314,115 M314,114L315,115 M315,114L316,115 M323,114L324,115 M324,114L325,115 M325,114L326,115 M262,115L263,116 M263,115L264,116 M312,115L313,116 M313,115L314,116 M314,115L315,116 M315,115L316,116 M316,115L317,116 M317,115L318,116 M318,115L319,116 M322,115L323,116 M323,115L324,116 M324,115L325,116 M261,116L262,117 M262,116L263,117 M263,116L264,117 M315,116L316,117 M316,116L317,117 M317,116L318,117 M318,116L319,117 M319,116L320,117 M320,116L321,117 M321,116L322,117 M322,116L323,117 M323,116L324,117 M261,117L262,118 M262,117L263,118 M319,117L320,118 M320,117L321,118 M321,117L322,118 M322,117L323,118 M323,117L324,118 M324,117L325,118 M325,117L326,118 M260,118L261,119 M261,118L262,119 M318,118L319,119 M319,118L320,119 M320,118L321,119 M322,118L323,119 M323,118L324,119 M324,118L325,119 M325,118L326,119 M326,118L327,119 M327,118L328,119 M328,118L329,119 M259,119L260,120 M260,119L261,120 M261,119L262,120 M317,119L318,120 M318,119L319,120 M319,119L320,120 M326,119L327,120 M327,119L328,120 M328,119L329,120 M329,119L330,120 M330,119L331,120 M331,119L332,120 M332,119L333,120 M259,120L260,121 M260,120L261,121 M315,120L316,121 M316,120L317,121 M317,120L318,121 M318,120L319,121 M329,120L330,121 M330,120L331,121 M331,120L332,121 M332,120L333,121 M333,120L334,121 M334,120L335,121 M335,120L336,121 M258,121L259,122 M259,121L260,122 M260,121L261,122 M313,121L314,122 M314,121L315,122 M315,121L316,122 M316,121L317,122 M333,121L334,122 M334,121L335,122 M335,121L336,122 M336,121L337,122 M337,121L338,122 M338,121L339,122 M339,121L340,122 M258,122L259,123 M259,122L260,123 M312,122L313,123 M313,122L314,123 M314,122L315,123 M315,122L316,123 M336,122L337,123 M337,122L338,123 M338,122L339,123 M339,122L340,123 M340,122L341,123 M341,122L342,123 M342,122L343,123 M343,122L344,123 M257,123L258,124 M258,123L259,124 M310,123L311,124 M311,123L312,124 M312,123L313,124 M313,123L314,124 M340,123L341,124 M341,123L342,124 M342,123L343,124 M343,123L344,124 M344,123L345,124 M345,123L346,124 M346,123L347,124 M256,124L257,125 M257,124L258,125 M258,124L259,125 M309,124L310,125 M310,124L311,125 M311,124L312,125 M343,124L344,125 M344,124L345,125 M345,124L346,125 M346,124L347,125 M347,124L348,125 M348,124L349,125 M349,124L350,125 M350,124L351,125 M256,125L257,126 M257,125L258,126 M307,125L308,126 M308,125L309,126 M309,125L310,126 M310,125L311,126 M347,125L348,126 M348,125L349,126 M349,125L350,126 M350,125L351,126 M351,125L352,126 M352,125L353,126 M353,125L354,126 M354,125L355,126 M255,126L256,127 M256,126L257,127 M257,126L258,127 M305,126L306,127 M306,126L307,127 M307,126L308,127 M308,126L309,127 M351,126L352,127 M352,126L353,127 M353,126L354,127 M354,126L355,127 M355,126L356,127 M356,126L357,127 M357,126L358,127 M358,126L359,127 M255,127L256,128 M256,127L257,128 M304,127L305,128 M305,127L306,128 M306,127L307,128 M307,127L308,128 M355,127L356,128 M356,127L357,128 M357,127L358,128 M358,127L359,128 M359,127L360,128 M360,127L361,128 M361,127L362,128 M254,128L255,129 M255,128L256,129 M302,128L303,129 M303,128L304,129 M304,128L305,129 M305,128L306,129 M358,128L359,129 M359,128L360,129 M360,128L361,129 M361,128L362,129 M362,128L363,129 M363,128L364,129 M364,128L365,129 M365,128L366,129 M254,129L255,130 M255,129L256,130 M300,129L301,130 M301,129L302,130 M302,129L303,130 M303,129L304,130 M362,129L363,130 M363,129L364,130 M364,129L365,130 M365,129L366,130 M366,129L367,130 M367,129L368,130 M368,129L369,130 M369,129L370,130 M253,130L254,131 M254,130L255,131 M298,130L299,131 M299,130L300,131 M300,130L301,131 M301,130L302,131 M366,130L367,131 M367,130L368,131 M368,130L369,131 M369,130L370,131 M370,130L371,131 M371,130L372,131 M372,130L373,131 M373,130L374,131 M252,131L253,132 M253,131L254,132 M254,131L255,132 M296,131L297,132 M297,131L298,132 M298,131L299,132 M299,131L300,132 M370,131L371,132 M371,131L372,132 M372,131L373,132 M373,131L374,132 M374,131L375,132 M375,131L376,132 M376,131L377,132 M252,132L253,133 M253,132L254,133 M294,132L295,133 M295,132L296,133 M296,132L297,133 M297,132L298,133 M298,132L299,133 M373,132L374,133 M374,132L375,133 M375,132L376,133 M376,132L377,133 M377,132L378,133 M378,132L379,133 M379,132L380,133 M380,132L381,133 M251,133L252,134 M252,133L253,134 M292,133L293,134 M293,133L294,134 M294,133L295,134 M295,133L296,134 M296,133L297,134 M377,133L378,134 M378,133L379,134 M379,133L380,134 M380,133L381,134 M381,133L382,134 M382,133L383,134 M383,133L384,134 M384,133L385,134 M251,134L252,135 M252,134L253,135 M290,134L291,135 M291,134L292,135 M292,134L293,135 M293,134L294,135 M294,134L295,135 M381,134L382,135 M382,134L383,135 M383,134L384,135 M384,134L385,135 M385,134L386,135 M386,134L387,135 M387,134L388,135 M388,134L389,135 M250,135L251,136 M251,135L252,136 M287,135L288,136 M288,135L289,136 M289,135L290,136 M290,135L291,136 M291,135L292,136 M292,135L293,136 M385,135L386,136 M386,135L387,136 M387,135L388,136 M388,135L389,136 M389,135L390,136 M390,135L391,136 M391,135L392,136 M249,136L250,137 M250,136L251,137 M285,136L286,137 M286,136L287,137 M287,136L288,137 M288,136L289,137 M289,136L290,137 M388,136L389,137 M389,136L390,137 M390,136L391,137 M391,136L392,137 M392,136L393,137 M393,136L394,137 M394,136L395,137 M395,136L396,137 M249,137L250,138 M250,137L251,138 M283,137L284,138 M284,137L285,138 M285,137L286,138 M286,137L287,138 M287,137L288,138 M392,137L393,138 M393,137L394,138 M394,137L395,138 M395,137L396,138 M396,137L397,138 M397,137L398,138 M398,137L399,138 M399,137L400,138 M249,138L250,139 M250,138L251,139 M280,138L281,139 M281,138L282,139 M282,138L283,139 M283,138L284,139 M284,138L285,139 M396,138L397,139 M397,138L398,139 M398,138L399,139 M399,138L400,139 M400,138L401,139 M401,138L402,139 M402,138L403,139 M403,138L404,139 M248,139L249,140 M249,139L250,140 M278,139L279,140 M279,139L280,140 M280,139L281,140 M281,139L282,140 M282,139L283,140 M400,139L401,140 M401,139L402,140 M402,139L403,140 M403,139L404,140 M404,139L405,140 M405,139L406,140 M406,139L407,140 M407,139L408,140 M248,140L249,141 M249,140L250,141 M276,140L277,141 M277,140L278,141 M278,140L279,141 M279,140L280,141 M280,140L281,141 M404,140L405,141 M405,140L406,141 M406,140L407,141 M407,140L408,141 M408,140L409,141 M409,140L410,141 M410,140L411,141 M411,140L412,141 M412,140L413,141 M248,141L249,142 M249,141L250,142 M274,141L275,142 M275,141L276,142 M276,141L277,142 M277,141L278,142 M278,141L279,142 M408,141L409,142 M409,141L410,142 M410,141L411,142 M411,141L412,142 M412,141L413,142 M413,141L414,142 M414,141L415,142 M415,141L416,142 M416,141L417,142 M248,142L249,143 M249,142L250,143 M250,142L251,143 M272,142L273,143 M273,142L274,143 M274,142L275,143 M275,142L276,143 M276,142L277,143 M412,142L413,143 M413,142L414,143 M414,142L415,143 M415,142L416,143 M416,142L417,143 M417,142L418,143 M418,142L419,143 M419,142L420,143 M420,142L421,143 M248,143L249,144 M249,143L250,144 M250,143L251,144 M251,143L252,144 M252,143L253,144 M253,143L254,144 M254,143L255,144 M266,143L267,144 M267,143L268,144 M268,143L269,144 M269,143L270,144 M270,143L271,144 M271,143L272,144 M272,143L273,144 M273,143L274,144 M274,143L275,144 M416,143L417,144 M417,143L418,144 M418,143L419,144 M419,143L420,144 M420,143L421,144 M421,143L422,144 M422,143L423,144 M423,143L424,144 M424,143L425,144 M251,144L252,145 M252,144L253,145 M253,144L254,145 M254,144L255,145 M255,144L256,145 M256,144L257,145 M257,144L258,145 M258,144L259,145 M259,144L260,145 M260,144L261,145 M261,144L262,145 M262,144L263,145 M263,144L264,145 M264,144L265,145 M265,144L266,145 M266,144L267,145 M267,144L268,145 M268,144L269,145 M269,144L270,145 M270,144L271,145 M271,144L272,145 M272,144L273,145 M421,144L422,145 M422,144L423,145 M423,144L424,145 M424,144L425,145 M425,144L426,145 M426,144L427,145 M427,144L428,145 M428,144L429,145 M254,145L255,146 M255,145L256,146 M256,145L257,146 M257,145L258,146 M258,145L259,146 M259,145L260,146 M260,145L261,146 M261,145L262,146 M262,145L263,146 M263,145L264,146 M264,145L265,146 M265,145L266,146 M425,145L426,146 M426,145L427,146 M427,145L428,146 M428,145L429,146 M429,145L430,146 M430,145L431,146 M431,145L432,146 M432,145L433,146 M429,146L430,147 M430,146L431,147 M431,146L432,147 M432,146L433,147 M433,146L434,147 M434,146L435,147 M435,146L436,147 M436,146L437,147 M433,147L434,148 M434,147L435,148 M435,147L436,148 M436,147L437,148 M437,147L438,148 M438,147L439,148 M439,147L440,148 M440,147L441,148 M441,147L442,148 M437,148L438,149 M438,148L439,149 M439,148L440,149 M440,148L441,149 M441,148L442,149 M442,148L443,149 M443,148L444,149 M444,148L445,149 M445,148L446,149 M441,149L442,150 M442,149L443,150 M443,149L444,150 M444,149L445,150 M445,149L446,150 M446,149L447,150 M447,149L448,150 M448,149L449,150 M449,149L450,150 M445,150L446,151 M446,150L447,151 M447,150L448,151 M448,150L449,151 M449,150L450,151 M450,150L451,151 M451,150L452,151 M452,150L453,151 M453,150L454,151 M450,151L451,152 M451,151L452,152 M452,151L453,152 M453,151L454,152 M454,151L455,152 M455,151L456,152 M456,151L457,152 M457,151L458,152 M454,152L455,153 M455,152L456,153 M456,152L457,153 M457,152L458,153 M458,152L459,153 M459,152L460,153 M460,152L461,153 M458,153L459,154 M459,153L460,154 M460,153L461,154 M461,153L462,154 M462,153L463,154 M463,153L464,154 M464,153L465,154 M461,154L462,155 M462,154L463,155 M463,154L464,155 M464,154L465,155 M465,154L466,155 M466,154L467,155 M467,154L468,155 M464,155L465,156 M465,155L466,156 M466,155L467,156 M467,155L468,156 M468,155L469,156 M469,155L470,156 M470,155L471,156 M471,155L472,156 M468,156L469,157 M469,156L470,157 M470,156L471,157 M471,156L472,157 M472,156L473,157 M473,156L474,157 M474,156L475,157 M471,157L472,158 M472,157L473,158 M473,157L474,158 M474,157L475,158 M475,157L476,158 M476,157L477,158 M477,157L478,158 M475,158L476,159 M476,158L477,159 M477,158L478,159 M478,158L479,159 M479,158L480,159 M480,158L481,159 M481,158L482,159 M478,159L479,160 M479,159L480,160 M480,159L481,160 M481,159L482,160 M482,159L483,160 M483,159L484,160 M484,159L485,160 M482,160L483,161 M483,160L484,161 M484,160L485,161 M485,160L486,161 M486,160L487,161 M487,160L488,161 M488,160L489,161 M485,161L486,162 M486,161L487,162 M487,161L488,162 M488,161L489,162 M489,161L490,162 M490,161L491,162 M491,161L492,162 M489,162L490,163 M490,162L491,163 M491,162L492,163 M492,162L493,163 M493,162L494,163 M494,162L495,163 M495,162L496,163 M492,163L493,164 M493,163L494,164 M494,163L495,164 M495,163L496,164 M496,163L497,164 M497,163L498,164 M498,163L499,164 M780,163L781,164 M781,163L782,164 M782,163L783,164 M783,163L784,164 M784,163L785,164 M495,164L496,165 M496,164L497,165 M497,164L498,165 M498,164L499,165 M499,164L500,165 M500,164L501,165 M501,164L502,165 M502,164L503,165 M770,164L771,165 M771,164L772,165 M772,164L773,165 M773,164L774,165 M774,164L775,165 M775,164L776,165 M776,164L777,165 M777,164L778,165 M778,164L779,165 M779,164L780,165 M780,164L781,165 M781,164L782,165 M782,164L783,165 M783,164L784,165 M784,164L785,165 M499,165L500,166 M500,165L501,166 M501,165L502,166 M502,165L503,166 M503,165L504,166 M504,165L505,166 M505,165L506,166 M760,165L761,166 M761,165L762,166 M762,165L763,166 M763,165L764,166 M764,165L765,166 M765,165L766,166 M766,165L767,166 M767,165L768,166 M768,165L769,166 M769,165L770,166 M770,165L771,166 M771,165L772,166 M772,165L773,166 M773,165L774,166 M774,165L775,166 M775,165L776,166 M776,165L777,166 M777,165L778,166 M778,165L779,166 M779,165L780,166 M780,165L781,166 M502,166L503,167 M503,166L504,167 M504,166L505,167 M505,166L506,167 M506,166L507,167 M507,166L508,167 M508,166L509,167 M750,166L751,167 M751,166L752,167 M752,166L753,167 M753,166L754,167 M754,166L755,167 M755,166L756,167 M756,166L757,167 M757,166L758,167 M758,166L759,167 M759,166L760,167 M760,166L761,167 M761,166L762,167 M762,166L763,167 M763,166L764,167 M764,166L765,167 M765,166L766,167 M766,166L767,167 M767,166L768,167 M768,166L769,167 M769,166L770,167 M770,166L771,167 M506,167L507,168 M507,167L508,168 M508,167L509,168 M509,167L510,168 M510,167L511,168 M511,167L512,168 M512,167L513,168 M740,167L741,168 M741,167L742,168 M742,167L743,168 M743,167L744,168 M744,167L745,168 M745,167L746,168 M746,167L747,168 M747,167L748,168 M748,167L749,168 M749,167L750,168 M750,167L751,168 M751,167L752,168 M752,167L753,168 M753,167L754,168 M754,167L755,168 M755,167L756,168 M756,167L757,168 M757,167L758,168 M758,167L759,168 M759,167L760,168 M760,167L761,168 M509,168L510,169 M510,168L511,169 M511,168L512,169 M512,168L513,169 M513,168L514,169 M514,168L515,169 M515,168L516,169 M516,168L517,169 M731,168L732,169 M732,168L733,169 M733,168L734,169 M734,168L735,169 M735,168L736,169 M736,168L737,169 M737,168L738,169 M738,168L739,169 M739,168L740,169 M740,168L741,169 M741,168L742,169 M742,168L743,169 M743,168L744,169 M744,168L745,169 M745,168L746,169 M746,168L747,169 M747,168L748,169 M748,168L749,169 M749,168L750,169 M750,168L751,169 M510,169L511,170 M511,169L512,170 M512,169L513,170 M513,169L514,170 M514,169L515,170 M515,169L516,170 M516,169L517,170 M517,169L518,170 M518,169L519,170 M519,169L520,170 M520,169L521,170 M521,169L522,170 M700,169L701,170 M701,169L702,170 M702,169L703,170 M703,169L704,170 M704,169L705,170 M705,169L706,170 M706,169L707,170 M707,169L708,170 M708,169L709,170 M709,169L710,170 M710,169L711,170 M711,169L712,170 M712,169L713,170 M713,169L714,170 M714,169L715,170 M715,169L716,170 M716,169L717,170 M717,169L718,170 M718,169L719,170 M719,169L720,170 M720,169L721,170 M721,169L722,170 M722,169L723,170 M723,169L724,170 M724,169L725,170 M725,169L726,170 M726,169L727,170 M727,169L728,170 M728,169L729,170 M729,169L730,170 M730,169L731,170 M731,169L732,170 M732,169L733,170 M733,169L734,170 M734,169L735,170 M735,169L736,170 M736,169L737,170 M737,169L738,170 M738,169L739,170 M739,169L740,170 M740,169L741,170 M510,170L511,171 M511,170L512,171 M512,170L513,171 M513,170L514,171 M514,170L515,171 M515,170L516,171 M516,170L517,171 M517,170L518,171 M518,170L519,171 M519,170L520,171 M520,170L521,171 M521,170L522,171 M522,170L523,171 M523,170L524,171 M524,170L525,171 M525,170L526,171 M526,170L527,171 M527,170L528,171 M528,170L529,171 M529,170L530,171 M530,170L531,171 M531,170L532,171 M532,170L533,171 M533,170L534,171 M534,170L535,171 M535,170L536,171 M536,170L537,171 M537,170L538,171 M538,170L539,171 M539,170L540,171 M540,170L541,171 M541,170L542,171 M542,170L543,171 M543,170L544,171 M544,170L545,171 M545,170L546,171 M546,170L547,171 M547,170L548,171 M548,170L549,171 M549,170L550,171 M550,170L551,171 M551,170L552,171 M552,170L553,171 M553,170L554,171 M554,170L555,171 M555,170L556,171 M556,170L557,171 M557,170L558,171 M558,170L559,171 M559,170L560,171 M560,170L561,171 M561,170L562,171 M562,170L563,171 M563,170L564,171 M564,170L565,171 M565,170L566,171 M566,170L567,171 M567,170L568,171 M568,170L569,171 M569,170L570,171 M570,170L571,171 M571,170L572,171 M572,170L573,171 M573,170L574,171 M574,170L575,171 M575,170L576,171 M576,170L577,171 M577,170L578,171 M578,170L579,171 M579,170L580,171 M580,170L581,171 M581,170L582,171 M582,170L583,171 M583,170L584,171 M584,170L585,171 M585,170L586,171 M586,170L587,171 M587,170L588,171 M588,170L589,171 M589,170L590,171 M590,170L591,171 M591,170L592,171 M592,170L593,171 M593,170L594,171 M594,170L595,171 M595,170L596,171 M596,170L597,171 M597,170L598,171 M598,170L599,171 M599,170L600,171 M600,170L601,171 M601,170L602,171 M602,170L603,171 M603,170L604,171 M604,170L605,171 M605,170L606,171 M606,170L607,171 M607,170L608,171 M608,170L609,171 M609,170L610,171 M610,170L611,171 M611,170L612,171 M612,170L613,171 M613,170L614,171 M614,170L615,171 M615,170L616,171 M616,170L617,171 M617,170L618,171 M618,170L619,171 M619,170L620,171 M620,170L621,171 M621,170L622,171 M622,170L623,171 M623,170L624,171 M624,170L625,171 M625,170L626,171 M626,170L627,171 M627,170L628,171 M628,170L629,171 M629,170L630,171 M630,170L631,171 M631,170L632,171 M632,170L633,171 M633,170L634,171 M634,170L635,171 M635,170L636,171 M636,170L637,171 M637,170L638,171 M638,170L639,171 M639,170L640,171 M640,170L641,171 M641,170L642,171 M642,170L643,171 M643,170L644,171 M644,170L645,171 M645,170L646,171 M646,170L647,171 M647,170L648,171 M648,170L649,171 M649,170L650,171 M650,170L651,171 M651,170L652,171 M652,170L653,171 M653,170L654,171 M654,170L655,171 M655,170L656,171 M656,170L657,171 M657,170L658,171 M658,170L659,171 M659,170L660,171 M660,170L661,171 M661,170L662,171 M662,170L663,171 M663,170L664,171 M664,170L665,171 M665,170L666,171 M666,170L667,171 M667,170L668,171 M668,170L669,171 M669,170L670,171 M670,170L671,171 M671,170L672,171 M672,170L673,171 M673,170L674,171 M674,170L675,171 M675,170L676,171 M676,170L677,171 M677,170L678,171 M678,170L679,171 M679,170L680,171 M680,170L681,171 M681,170L682,171 M682,170L683,171 M683,170L684,171 M684,170L685,171 M685,170L686,171 M686,170L687,171 M687,170L688,171 M688,170L689,171 M689,170L690,171 M690,170L691,171 M691,170L692,171 M692,170L693,171 M693,170L694,171 M694,170L695,171 M695,170L696,171 M696,170L697,171 M697,170L698,171 M698,170L699,171 M699,170L700,171 M700,170L701,171 M701,170L702,171 M702,170L703,171 M703,170L704,171 M704,170L705,171 M705,170L706,171 M706,170L707,171 M707,170L708,171 M708,170L709,171 M709,170L710,171 M710,170L711,171 M711,170L712,171 M712,170L713,171 M713,170L714,171 M714,170L715,171 M715,170L716,171 M716,170L717,171 M717,170L718,171 M718,170L719,171 M719,170L720,171 M720,170L721,171 M721,170L722,171 M722,170L723,171 M723,170L724,171 M724,170L725,171 M725,170L726,171 M726,170L727,171 M727,170L728,171 M728,170L729,171 M729,170L730,171 M730,170L731,171 M511,171L512,172 M512,171L513,172 M513,171L514,172 M514,171L515,172 M515,171L516,172 M516,171L517,172 M517,171L518,172 M518,171L519,172 M519,171L520,172 M520,171L521,172 M521,171L522,172 M522,171L523,172 M523,171L524,172 M524,171L525,172 M525,171L526,172 M526,171L527,172 M527,171L528,172 M528,171L529,172 M529,171L530,172 M530,171L531,172 M531,171L532,172 M532,171L533,172 M533,171L534,172 M534,171L535,172 M535,171L536,172 M536,171L537,172 M537,171L538,172 M538,171L539,172 M539,171L540,172 M540,171L541,172 M541,171L542,172 M542,171L543,172 M543,171L544,172 M544,171L545,172 M545,171L546,172 M546,171L547,172 M547,171L548,172 M548,171L549,172 M549,171L550,172 M550,171L551,172 M551,171L552,172 M552,171L553,172 M553,171L554,172 M554,171L555,172 M555,171L556,172 M556,171L557,172 M557,171L558,172 M558,171L559,172 M559,171L560,172 M560,171L561,172 M561,171L562,172 M562,171L563,172 M563,171L564,172 M564,171L565,172 M565,171L566,172 M566,171L567,172 M567,171L568,172 M568,171L569,172 M569,171L570,172 M570,171L571,172 M571,171L572,172 M572,171L573,172 M573,171L574,172 M574,171L575,172 M575,171L576,172 M576,171L577,172 M577,171L578,172 M578,171L579,172 M579,171L580,172 M580,171L581,172 M581,171L582,172 M582,171L583,172 M583,171L584,172 M584,171L585,172 M585,171L586,172 M586,171L587,172 M587,171L588,172 M588,171L589,172 M589,171L590,172 M590,171L591,172 M591,171L592,172 M592,171L593,172 M593,171L594,172 M594,171L595,172 M595,171L596,172 M596,171L597,172 M597,171L598,172 M598,171L599,172 M599,171L600,172 M600,171L601,172 M601,171L602,172 M602,171L603,172 M603,171L604,172 M604,171L605,172 M605,171L606,172 M606,171L607,172 M607,171L608,172 M608,171L609,172 M609,171L610,172 M610,171L611,172 M611,171L612,172 M612,171L613,172 M613,171L614,172 M614,171L615,172 M615,171L616,172 M616,171L617,172 M617,171L618,172 M618,171L619,172 M619,171L620,172 M620,171L621,172 M621,171L622,172 M622,171L623,172 M623,171L624,172 M624,171L625,172 M625,171L626,172 M626,171L627,172 M627,171L628,172 M628,171L629,172 M629,171L630,172 M630,171L631,172 M631,171L632,172 M632,171L633,172 M633,171L634,172 M634,171L635,172 M635,171L636,172 M636,171L637,172 M637,171L638,172 M638,171L639,172 M639,171L640,172 M640,171L641,172 M641,171L642,172 M642,171L643,172 M643,171L644,172 M644,171L645,172 M645,171L646,172 M646,171L647,172 M647,171L648,172 M648,171L649,172 M649,171L650,172 M650,171L651,172 M651,171L652,172 M652,171L653,172 M653,171L654,172 M654,171L655,172 M655,171L656,172 M656,171L657,172 M657,171L658,172 M658,171L659,172 M659,171L660,172 M660,171L661,172 M661,171L662,172 M662,171L663,172 M663,171L664,172 M664,171L665,172 M665,171L666,172 M666,171L667,172 M667,171L668,172 M668,171L669,172 M669,171L670,172 M670,171L671,172 M671,171L672,172 M672,171L673,172 M673,171L674,172 M674,171L675,172 M675,171L676,172 M676,171L677,172 M677,171L678,172 M678,171L679,172 M679,171L680,172 M680,171L681,172 M681,171L682,172 M682,171L683,172 M683,171L684,172 M684,171L685,172 M685,171L686,172 M686,171L687,172 M687,171L688,172 M688,171L689,172 M689,171L690,172 M690,171L691,172 M691,171L692,172 M692,171L693,172 M693,171L694,172 M694,171L695,172 M695,171L696,172 M696,171L697,172 M697,171L698,172 M698,171L699,172 M699,171L700,172 M516,172L517,173 M517,172L518,173 M518,172L519,173 M519,172L520,173 M520,172L521,173 M521,172L522,173 M522,172L523,173 M523,172L524,173 M524,172L525,173 M525,172L526,173 M526,172L527,173 M527,172L528,173 M528,172L529,173 M529,172L530,173 M530,172L531,173 M531,172L532,173 M522,173L523,174 M523,173L524,174 M524,173L525,174 M525,173L526,174 M526,173L527,174 M527,173L528,174 M528,173L529,174 M529,173L530,174 M530,173L531,174 M531,173L532,174 M532,173L533,174 M533,173L534,174 M534,173L535,174 M535,173L536,174 M527,174L528,175 M528,174L529,175 M529,174L530,175 M530,174L531,175 M531,174L532,175 M532,174L533,175 M533,174L534,175 M534,174L535,175 M535,174L536,175 M536,174L537,175 M537,174L538,175 M538,174L539,175 M539,174L540,175 M531,175L532,176 M532,175L533,176 M533,175L534,176 M534,175L535,176 M535,175L536,176 M536,175L537,176 M537,175L538,176 M538,175L539,176 M539,175L540,176 M540,175L541,176 M541,175L542,176 M542,175L543,176 M535,176L536,177 M536,176L537,177 M537,176L538,177 M538,176L539,177 M539,176L540,177 M540,176L541,177 M541,176L542,177 M542,176L543,177 M543,176L544,177 M544,176L545,177 M545,176L546,177 M546,176L547,177 M539,177L540,178 M540,177L541,178 M541,177L542,178 M542,177L543,178 M543,177L544,178 M544,177L545,178 M545,177L546,178 M546,177L547,178 M547,177L548,178 M548,177L549,178 M549,177L550,178 M550,177L551,178 M543,178L544,179 M544,178L545,179 M545,178L546,179 M546,178L547,179 M547,178L548,179 M548,178L549,179 M549,178L550,179 M550,178L551,179 M551,178L552,179 M552,178L553,179 M553,178L554,179 M554,178L555,179 M547,179L548,180 M548,179L549,180 M549,179L550,180 M550,179L551,180 M551,179L552,180 M552,179L553,180 M553,179L554,180 M554,179L555,180 M555,179L556,180 M556,179L557,180 M557,179L558,180 M558,179L559,180 M551,180L552,181 M552,180L553,181 M553,180L554,181 M554,180L555,181 M555,180L556,181 M556,180L557,181 M557,180L558,181 M558,180L559,181 M559,180L560,181 M560,180L561,181 M561,180L562,181 M554,181L555,182 M555,181L556,182 M556,181L557,182 M557,181L558,182 M558,181L559,182 M559,181L560,182 M560,181L561,182 M561,181L562,182 M562,181L563,182 M563,181L564,182 M564,181L565,182 M565,181L566,182 M558,182L559,183 M559,182L560,183 M560,182L561,183 M561,182L562,183 M562,182L563,183 M563,182L564,183 M564,182L565,183 M565,182L566,183 M566,182L567,183 M567,182L568,183 M568,182L569,183 M569,182L570,183 M561,183L562,184 M562,183L563,184 M563,183L564,184 M564,183L565,184 M565,183L566,184 M566,183L567,184 M567,183L568,184 M568,183L569,184 M569,183L570,184 M570,183L571,184 M571,183L572,184 M572,183L573,184 M564,184L565,185 M565,184L566,185 M566,184L567,185 M567,184L568,185 M568,184L569,185 M569,184L570,185 M570,184L571,185 M571,184L572,185 M572,184L573,185 M573,184L574,185 M574,184L575,185 M575,184L576,185 M576,184L577,185 M568,185L569,186 M569,185L570,186 M570,185L571,186 M571,185L572,186 M572,185L573,186 M573,185L574,186 M574,185L575,186 M575,185L576,186 M576,185L577,186 M577,185L578,186 M578,185L579,186 M579,185L580,186 M571,186L572,187 M572,186L573,187 M573,186L574,187 M574,186L575,187 M575,186L576,187 M576,186L577,187 M577,186L578,187 M578,186L579,187 M579,186L580,187 M580,186L581,187 M581,186L582,187 M582,186L583,187 M583,186L584,187 M575,187L576,188 M576,187L577,188 M577,187L578,188 M578,187L579,188 M579,187L580,188 M580,187L581,188 M581,187L582,188 M582,187L583,188 M583,187L584,188 M584,187L585,188 M585,187L586,188 M586,187L587,188 M578,188L579,189 M579,188L580,189 M580,188L581,189 M581,188L582,189 M582,188L583,189 M583,188L584,189 M584,188L585,189 M585,188L586,189 M586,188L587,189 M587,188L588,189 M588,188L589,189 M589,188L590,189 M590,188L591,189 M582,189L583,190 M583,189L584,190 M584,189L585,190 M585,189L586,190 M586,189L587,190 M587,189L588,190 M588,189L589,190 M589,189L590,190 M590,189L591,190 M591,189L592,190 M592,189L593,190 M593,189L594,190 M585,190L586,191 M586,190L587,191 M587,190L588,191 M588,190L589,191 M589,190L590,191 M590,190L591,191 M591,190L592,191 M592,190L593,191 M593,190L594,191 M594,190L595,191 M595,190L596,191 M596,190L597,191 M597,190L598,191 M589,191L590,192 M590,191L591,192 M591,191L592,192 M592,191L593,192 M593,191L594,192 M594,191L595,192 M595,191L596,192 M596,191L597,192 M597,191L598,192 M598,191L599,192 M599,191L600,192 M600,191L601,192 M593,192L594,193 M594,192L595,193 M595,192L596,193 M596,192L597,193 M597,192L598,193 M598,192L599,193 M599,192L600,193 M600,192L601,193 M601,192L602,193 M602,192L603,193 M603,192L604,193 M597,193L598,194 M598,193L599,194 M599,193L600,194 M600,193L601,194 M601,193L602,194 M602,193L603,194 M603,193L604,194 M604,193L605,194 M605,193L606,194 M606,193L607,194 M607,193L608,194 M601,194L602,195 M602,194L603,195 M603,194L604,195 M604,194L605,195 M605,194L606,195 M606,194L607,195 M607,194L608,195 M608,194L609,195 M609,194L610,195 M610,194L611,195 M604,195L605,196 M605,195L606,196 M606,195L607,196 M607,195L608,196 M608,195L609,196 M609,195L610,196 M610,195L611,196 M611,195L612,196 M612,195L613,196 M613,195L614,196 M614,195L615,196 M608,196L609,197 M609,196L610,197 M610,196L611,197 M611,196L612,197 M612,196L613,197 M613,196L614,197 M614,196L615,197 M615,196L616,197 M616,196L617,197 M617,196L618,197 M618,196L619,197 M612,197L613,198 M613,197L614,198 M614,197L615,198 M615,197L616,198 M616,197L617,198 M617,197L618,198 M618,197L619,198 M619,197L620,198 M620,197L621,198 M621,197L622,198 M616,198L617,199 M617,198L618,199 M618,198L619,199 M619,198L620,199 M620,198L621,199 M621,198L622,199 M622,198L623,199 M623,198L624,199 M624,198L625,199 M625,198L626,199 M620,199L621,200 M621,199L622,200 M622,199L623,200 M623,199L624,200 M624,199L625,200 M625,199L626,200 M626,199L627,200 M627,199L628,200 M628,199L629,200 M629,199L630,200 M624,200L625,201 M625,200L626,201 M626,200L627,201 M627,200L628,201 M628,200L629,201 M629,200L630,201 M630,200L631,201 M631,200L632,201 M632,200L633,201 M633,200L634,201 M628,201L629,202 M629,201L630,202 M630,201L631,202 M631,201L632,202 M632,201L633,202 M633,201L634,202 M634,201L635,202 M635,201L636,202 M636,201L637,202 M632,202L633,203 M633,202L634,203 M634,202L635,203 M635,202L636,203 M636,202L637,203 M637,202L638,203 M638,202L639,203 M639,202L640,203 M640,202L641,203 M636,203L637,204 M637,203L638,204 M638,203L639,204 M639,203L640,204 M640,203L641,204 M641,203L642,204 M642,203L643,204 M643,203L644,204 M644,203L645,204 M645,203L646,204 M641,204L642,205 M642,204L643,205 M643,204L644,205 M644,204L645,205 M645,204L646,205 M646,204L647,205 M647,204L648,205 M648,204L649,205 M649,204L650,205 M645,205L646,206 M646,205L647,206 M647,205L648,206 M648,205L649,206 M649,205L650,206 M650,205L651,206 M651,205L652,206 M652,205L653,206 M653,205L654,206 M648,206L649,207 M649,206L650,207 M650,206L651,207 M651,206L652,207 M652,206L653,207 M653,206L654,207 M654,206L655,207 M655,206L656,207 M656,206L657,207 M657,206L658,207 M658,206L659,207 M652,207L653,208 M653,207L654,208 M654,207L655,208 M655,207L656,208 M656,207L657,208 M657,207L658,208 M658,207L659,208 M659,207L660,208 M660,207L661,208 M661,207L662,208 M662,207L663,208 M656,208L657,209 M657,208L658,209 M658,208L659,209 M659,208L660,209 M660,208L661,209 M661,208L662,209 M662,208L663,209 M663,208L664,209 M664,208L665,209 M665,208L666,209 M666,208L667,209 M667,208L668,209 M659,209L660,210 M660,209L661,210 M661,209L662,210 M662,209L663,210 M663,209L664,210 M664,209L665,210 M665,209L666,210 M666,209L667,210 M667,209L668,210 M668,209L669,210 M669,209L670,210 M670,209L671,210 M671,209L672,210 M663,210L664,211 M664,210L665,211 M665,210L666,211 M666,210L667,211 M667,210L668,211 M668,210L669,211 M669,210L670,211 M670,210L671,211 M671,210L672,211 M672,210L673,211 M673,210L674,211 M674,210L675,211 M675,210L676,211 M676,210L677,211 M667,211L668,212 M668,211L669,212 M669,211L670,212 M670,211L671,212 M671,211L672,212 M672,211L673,212 M673,211L674,212 M674,211L675,212 M675,211L676,212 M676,211L677,212 M677,211L678,212 M678,211L679,212 M679,211L680,212 M680,211L681,212 M671,212L672,213 M672,212L673,213 M673,212L674,213 M674,212L675,213 M675,212L676,213 M676,212L677,213 M677,212L678,213 M678,212L679,213 M679,212L680,213 M680,212L681,213 M681,212L682,213 M682,212L683,213 M683,212L684,213 M684,212L685,213 M674,213L675,214 M675,213L676,214 M676,213L677,214 M677,213L678,214 M678,213L679,214 M679,213L680,214 M680,213L681,214 M681,213L682,214 M682,213L683,214 M683,213L684,214 M684,213L685,214 M685,213L686,214 M686,213L687,214 M687,213L688,214 M688,213L689,214 M689,213L690,214 M678,214L679,215 M679,214L680,215 M680,214L681,215 M681,214L682,215 M682,214L683,215 M683,214L684,215 M684,214L685,215 M685,214L686,215 M686,214L687,215 M687,214L688,215 M688,214L689,215 M689,214L690,215 M690,214L691,215 M691,214L692,215 M692,214L693,215 M693,214L694,215 M682,215L683,216 M683,215L684,216 M684,215L685,216 M685,215L686,216 M686,215L687,216 M687,215L688,216 M688,215L689,216 M690,215L691,216 M691,215L692,216 M692,215L693,216 M693,215L694,216 M694,215L695,216 M695,215L696,216 M696,215L697,216 M697,215L698,216 M686,216L687,217 M687,216L688,217 M688,216L689,217 M689,216L690,217 M690,216L691,217 M691,216L692,217 M694,216L695,217 M695,216L696,217 M696,216L697,217 M697,216L698,217 M698,216L699,217 M699,216L700,217 M700,216L701,217 M701,216L702,217 M689,217L690,218 M690,217L691,218 M691,217L692,218 M692,217L693,218 M693,217L694,218 M694,217L695,218 M695,217L696,218 M698,217L699,218 M699,217L700,218 M700,217L701,218 M701,217L702,218 M702,217L703,218 M703,217L704,218 M704,217L705,218 M705,217L706,218 M692,218L693,219 M693,218L694,219 M694,218L695,219 M695,218L696,219 M696,218L697,219 M697,218L698,219 M698,218L699,219 M699,218L700,219 M700,218L701,219 M701,218L702,219 M702,218L703,219 M703,218L704,219 M704,218L705,219 M705,218L706,219 M706,218L707,219 M707,218L708,219 M708,218L709,219 M695,219L696,220 M696,219L697,220 M697,219L698,220 M698,219L699,220 M699,219L700,220 M700,219L701,220 M701,219L702,220 M702,219L703,220 M703,219L704,220 M704,219L705,220 M705,219L706,220 M706,219L707,220 M707,219L708,220 M708,219L709,220" fill="none" stroke="black" />
    </svg>