<svg xmlns="http://www.w3.org/2000/svg" width="800" height="250">
        <path d="M69,28L70,29 M70,28L71,29 M69,29L70,30 M70,29L71,30 M69,30L70,31 M70,30L71,31 M69,31L70,32 M70,31L71,32 M69,32L70,33 M70,32L71,33 M69,33L70,34 M70,33L71,34 M69,34L70,35 M70,34L71,35 M69,35L70,36 M70,35L71,36 M180,35L181,36 M69,36L70,37 M70,36L71,37 M179,36L180,37 M180,36L181,37 M181,36L182,37 M69,37L70,38 M70,37L71,38 M179,37L180,38 M180,37L181,38 M181,37L182,38 M69,38L70,39 M70,38L71,39 M178,38L179,39 M179,38L180,39 M180,38L181,39 M69,39L70,40 M70,39L71,40 M176,39L177,40 M177,39L178,40 M178,39L179,40 M69,40L70,41 M70,40L71,41 M175,40L176,41 M176,40L177,41 M177,40L178,41 M69,41L70,42 M70,41L71,42 M174,41L175,42 M175,41L176,42 M176,41L177,42 M69,42L70,43 M70,42L71,43 M173,42L174,43 M174,42L175,43 M69,43L70,44 M70,43L71,44 M172,43L173,44 M173,43L174,44 M174,43L175,44 M69,44L70,45 M70,44L71,45 M171,44L172,45 M172,44L173,45 M173,44L174,45 M69,45L70,46 M70,45L71,46 M170,45L171,46 M171,45L172,46 M172,45L173,46 M69,46L70,47 M70,46L71,47 M169,46L170,47 M170,46L171,47 M171,46L172,47 M69,47L70,48 M70,47L71,48 M168,47L169,48 M169,47L170,48 M170,47L171,48 M69,48L70,49 M70,48L71,49 M168,48L169,49 M169,48L170,49 M69,49L70,50 M70,49L71,50 M167,49L168,50 M168,49L169,50 M69,50L70,51 M70,50L71,51 M166,50L167,51 M167,50L168,51 M69,51L70,52 M70,51L71,52 M165,51L166,52 M166,51L167,52 M167,51L168,52 M69,52L70,53 M70,52L71,53 M164,52L165,53 M165,52L166,53 M166,52L167,53 M69,53L70,54 M70,53L71,54 M163,53L164,54 M164,53L165,54 M165,53L166,54 M69,54L70,55 M70,54L71,55 M162,54L163,55 M163,54L164,55 M164,54L165,55 M69,55L70,56 M70,55L71,56 M161,55L162,56 M162,55L163,56 M163,55L164,56 M69,56L70,57 M70,56L71,57 M160,56L161,57 M161,56L162,57 M162,56L163,57 M69,57L70,58 M70,57L71,58 M159,57L160,58 M160,57L161,58 M161,57L162,58 M69,58L70,59 M70,58L71,59 M159,58L160,59 M160,58L161,59 M69,59L70,60 M70,59L71,60 M158,59L159,60 M159,59L160,60 M69,60L70,61 M70,60L71,61 M157,60L158,61 M158,60L159,61 M69,61L70,62 M70,61L71,62 M156,61L157,62 M157,61L158,62 M158,61L159,62 M69,62L70,63 M70,62L71,63 M155,62L156,63 M156,62L157,63 M157,62L158,63 M69,63L70,64 M70,63L71,64 M154,63L155,64 M155,63L156,64 M156,63L157,64 M69,64L70,65 M70,64L71,65 M153,64L154,65 M154,64L155,65 M155,64L156,65 M69,65L70,66 M70,65L71,66 M152,65L153,66 M153,65L154,66 M154,65L155,66 M69,66L70,67 M70,66L71,67 M152,66L153,67 M153,66L154,67 M69,67L70,68 M70,67L71,68 M151,67L152,68 M152,67L153,68 M69,68L70,69 M70,68L71,69 M150,68L151,69 M151,68L152,69 M69,69L70,70 M70,69L71,70 M149,69L150,70 M150,69L151,70 M69,70L70,71 M70,70L71,71 M147,70L148,71 M148,70L149,71 M149,70L150,71 M69,71L70,72 M70,71L71,72 M147,71L148,72 M148,71L149,72 M69,72L70,73 M70,72L71,73 M146,72L147,73 M147,72L148,73 M148,72L149,73 M69,73L70,74 M70,73L71,74 M145,73L146,74 M146,73L147,74 M147,73L148,74 M69,74L70,75 M70,74L71,75 M145,74L146,75 M146,74L147,75 M562,74L563,75 M69,75L70,76 M70,75L71,76 M144,75L145,76 M145,75L146,76 M561,75L562,76 M562,75L563,76 M563,75L564,76 M69,76L70,77 M70,76L71,77 M142,76L143,77 M143,76L144,77 M144,76L145,77 M561,76L562,77 M562,76L563,77 M563,76L564,77 M69,77L70,78 M70,77L71,78 M142,77L143,78 M143,77L144,78 M560,77L561,78 M561,77L562,78 M562,77L563,78 M69,78L70,79 M70,78L71,79 M141,78L142,79 M142,78L143,79 M143,78L144,79 M560,78L561,79 M561,78L562,79 M69,79L70,80 M70,79L71,80 M140,79L141,80 M141,79L142,80 M142,79L143,80 M559,79L560,80 M560,79L561,80 M561,79L562,80 M69,80L70,81 M70,80L71,81 M139,80L140,81 M140,80L141,81 M141,80L142,81 M559,80L560,81 M560,80L561,81 M69,81L70,82 M70,81L71,82 M138,81L139,82 M139,81L140,82 M140,81L141,82 M485,81L486,82 M486,81L487,82 M558,81L559,82 M559,81L560,82 M69,82L70,83 M70,82L71,83 M136,82L137,83 M137,82L138,83 M138,82L139,83 M139,82L140,83 M304,82L305,83 M305,82L306,83 M485,82L486,83 M486,82L487,83 M557,82L558,83 M558,82L559,83 M68,83L69,84 M69,83L70,84 M135,83L136,84 M136,83L137,84 M137,83L138,84 M304,83L305,84 M305,83L306,84 M338,83L339,84 M339,83L340,84 M340,83L341,84 M341,83L342,84 M342,83L343,84 M343,83L344,84 M344,83L345,84 M424,83L425,84 M425,83L426,84 M426,83L427,84 M427,83L428,84 M428,83L429,84 M486,83L487,84 M487,83L488,84 M557,83L558,84 M558,83L559,84 M68,84L69,85 M69,84L70,85 M134,84L135,85 M135,84L136,85 M136,84L137,85 M304,84L305,85 M305,84L306,85 M332,84L333,85 M333,84L334,85 M334,84L335,85 M335,84L336,85 M336,84L337,85 M337,84L338,85 M338,84L339,85 M339,84L340,85 M340,84L341,85 M341,84L342,85 M342,84L343,85 M343,84L344,85 M344,84L345,85 M345,84L346,85 M419,84L420,85 M420,84L421,85 M421,84L422,85 M422,84L423,85 M423,84L424,85 M424,84L425,85 M425,84L426,85 M426,84L427,85 M427,84L428,85 M428,84L429,85 M429,84L430,85 M430,84L431,85 M431,84L432,85 M432,84L433,85 M433,84L434,85 M486,84L487,85 M487,84L488,85 M488,84L489,85 M556,84L557,85 M557,84L558,85 M68,85L69,86 M69,85L70,86 M133,85L134,86 M134,85L135,86 M135,85L136,86 M303,85L304,86 M304,85L305,86 M327,85L328,86 M328,85L329,86 M329,85L330,86 M330,85L331,86 M331,85L332,86 M332,85L333,86 M333,85L334,86 M334,85L335,86 M335,85L336,86 M336,85L337,86 M337,85L338,86 M344,85L345,86 M345,85L346,86 M415,85L416,86 M416,85L417,86 M417,85L418,86 M418,85L419,86 M419,85L420,86 M420,85L421,86 M421,85L422,86 M422,85L423,86 M423,85L424,86 M424,85L425,86 M429,85L430,86 M430,85L431,86 M431,85L432,86 M432,85L433,86 M433,85L434,86 M434,85L435,86 M435,85L436,86 M436,85L437,86 M437,85L438,86 M438,85L439,86 M439,85L440,86 M487,85L488,86 M488,85L489,86 M489,85L490,86 M556,85L557,86 M557,85L558,86 M68,86L69,87 M69,86L70,87 M132,86L133,87 M133,86L134,87 M134,86L135,87 M239,86L240,87 M240,86L241,87 M241,86L242,87 M242,86L243,87 M243,86L244,87 M244,86L245,87 M245,86L246,87 M303,86L304,87 M304,86L305,87 M320,86L321,87 M321,86L322,87 M322,86L323,87 M323,86L324,87 M324,86L325,87 M325,86L326,87 M326,86L327,87 M327,86L328,87 M328,86L329,87 M329,86L330,87 M330,86L331,87 M331,86L332,87 M345,86L346,87 M346,86L347,87 M413,86L414,87 M414,86L415,87 M415,86L416,87 M416,86L417,87 M417,86L418,87 M418,86L419,87 M419,86L420,87 M434,86L435,87 M435,86L436,87 M436,86L437,87 M437,86L438,87 M438,86L439,87 M439,86L440,87 M440,86L441,87 M441,86L442,87 M488,86L489,87 M489,86L490,87 M490,86L491,87 M555,86L556,87 M556,86L557,87 M557,86L558,87 M68,87L69,88 M69,87L70,88 M130,87L131,88 M131,87L132,88 M132,87L133,88 M133,87L134,88 M236,87L237,88 M237,87L238,88 M238,87L239,88 M239,87L240,88 M240,87L241,88 M241,87L242,88 M242,87L243,88 M243,87L244,88 M244,87L245,88 M245,87L246,88 M246,87L247,88 M247,87L248,88 M248,87L249,88 M249,87L250,88 M250,87L251,88 M303,87L304,88 M304,87L305,88 M318,87L319,88 M319,87L320,88 M320,87L321,88 M321,87L322,88 M322,87L323,88 M323,87L324,88 M324,87L325,88 M325,87L326,88 M326,87L327,88 M345,87L346,88 M346,87L347,88 M347,87L348,88 M385,87L386,88 M386,87L387,88 M408,87L409,88 M409,87L410,88 M410,87L411,88 M411,87L412,88 M412,87L413,88 M413,87L414,88 M414,87L415,88 M439,87L440,88 M440,87L441,88 M441,87L442,88 M442,87L443,88 M443,87L444,88 M444,87L445,88 M445,87L446,88 M489,87L490,88 M490,87L491,88 M491,87L492,88 M555,87L556,88 M556,87L557,88 M68,88L69,89 M69,88L70,89 M129,88L130,89 M130,88L131,89 M131,88L132,89 M232,88L233,89 M233,88L234,89 M234,88L235,89 M235,88L236,89 M236,88L237,89 M237,88L238,89 M238,88L239,89 M245,88L246,89 M246,88L247,89 M247,88L248,89 M248,88L249,89 M249,88L250,89 M250,88L251,89 M251,88L252,89 M302,88L303,89 M303,88L304,89 M316,88L317,89 M317,88L318,89 M318,88L319,89 M319,88L320,89 M346,88L347,89 M347,88L348,89 M348,88L349,89 M385,88L386,89 M386,88L387,89 M406,88L407,89 M407,88L408,89 M408,88L409,89 M409,88L410,89 M410,88L411,89 M411,88L412,89 M412,88L413,89 M441,88L442,89 M442,88L443,89 M443,88L444,89 M444,88L445,89 M445,88L446,89 M446,88L447,89 M490,88L491,89 M491,88L492,89 M492,88L493,89 M553,88L554,89 M554,88L555,89 M555,88L556,89 M68,89L69,90 M69,89L70,90 M128,89L129,90 M129,89L130,90 M130,89L131,90 M230,89L231,90 M231,89L232,90 M232,89L233,90 M233,89L234,90 M234,89L235,90 M235,89L236,90 M250,89L251,90 M251,89L252,90 M252,89L253,90 M302,89L303,90 M303,89L304,90 M313,89L314,90 M314,89L315,90 M315,89L316,90 M316,89L317,90 M317,89L318,90 M347,89L348,90 M348,89L349,90 M385,89L386,90 M386,89L387,90 M403,89L404,90 M404,89L405,90 M405,89L406,90 M406,89L407,90 M407,89L408,90 M445,89L446,90 M446,89L447,90 M447,89L448,90 M491,89L492,90 M492,89L493,90 M493,89L494,90 M553,89L554,90 M554,89L555,90 M67,90L68,91 M68,90L69,91 M125,90L126,91 M126,90L127,91 M127,90L128,91 M128,90L129,91 M129,90L130,91 M229,90L230,91 M230,90L231,91 M231,90L232,91 M251,90L252,91 M252,90L253,91 M301,90L302,91 M302,90L303,91 M311,90L312,91 M312,90L313,91 M313,90L314,91 M314,90L315,91 M315,90L316,91 M347,90L348,91 M348,90L349,91 M385,90L386,91 M386,90L387,91 M401,90L402,91 M402,90L403,91 M403,90L404,91 M404,90L405,91 M405,90L406,91 M446,90L447,91 M447,90L448,91 M448,90L449,91 M449,90L450,91 M492,90L493,91 M493,90L494,91 M494,90L495,91 M552,90L553,91 M553,90L554,91 M554,90L555,91 M67,91L68,92 M68,91L69,92 M123,91L124,92 M124,91L125,92 M125,91L126,92 M126,91L127,92 M127,91L128,92 M227,91L228,92 M228,91L229,92 M229,91L230,92 M230,91L231,92 M252,91L253,92 M253,91L254,92 M301,91L302,92 M302,91L303,92 M307,91L308,92 M308,91L309,92 M309,91L310,92 M310,91L311,92 M311,91L312,92 M312,91L313,92 M347,91L348,92 M348,91L349,92 M385,91L386,92 M386,91L387,92 M400,91L401,92 M401,91L402,92 M402,91L403,92 M448,91L449,92 M449,91L450,92 M493,91L494,92 M494,91L495,92 M552,91L553,92 M553,91L554,92 M67,92L68,93 M68,92L69,93 M72,92L73,93 M73,92L74,93 M74,92L75,93 M75,92L76,93 M76,92L77,93 M77,92L78,93 M78,92L79,93 M79,92L80,93 M80,92L81,93 M81,92L82,93 M82,92L83,93 M83,92L84,93 M84,92L85,93 M85,92L86,93 M86,92L87,93 M87,92L88,93 M88,92L89,93 M89,92L90,93 M90,92L91,93 M91,92L92,93 M92,92L93,93 M93,92L94,93 M94,92L95,93 M95,92L96,93 M96,92L97,93 M97,92L98,93 M98,92L99,93 M99,92L100,93 M100,92L101,93 M101,92L102,93 M102,92L103,93 M103,92L104,93 M104,92L105,93 M105,92L106,93 M106,92L107,93 M107,92L108,93 M108,92L109,93 M109,92L110,93 M110,92L111,93 M111,92L112,93 M112,92L113,93 M113,92L114,93 M114,92L115,93 M115,92L116,93 M116,92L117,93 M117,92L118,93 M118,92L119,93 M119,92L120,93 M120,92L121,93 M121,92L122,93 M122,92L123,93 M123,92L124,93 M124,92L125,93 M225,92L226,93 M226,92L227,93 M227,92L228,93 M228,92L229,93 M252,92L253,93 M253,92L254,93 M254,92L255,93 M300,92L301,93 M301,92L302,93 M302,92L303,93 M306,92L307,93 M307,92L308,93 M308,92L309,93 M309,92L310,93 M310,92L311,93 M347,92L348,93 M348,92L349,93 M385,92L386,93 M386,92L387,93 M398,92L399,93 M399,92L400,93 M400,92L401,93 M401,92L402,93 M448,92L449,93 M449,92L450,93 M494,92L495,93 M495,92L496,93 M551,92L552,93 M552,92L553,93 M553,92L554,93 M67,93L68,94 M68,93L69,94 M72,93L73,94 M73,93L74,94 M74,93L75,94 M75,93L76,94 M76,93L77,94 M77,93L78,94 M78,93L79,94 M79,93L80,94 M80,93L81,94 M81,93L82,94 M82,93L83,94 M83,93L84,94 M84,93L85,94 M85,93L86,94 M86,93L87,94 M87,93L88,94 M88,93L89,94 M89,93L90,94 M90,93L91,94 M91,93L92,94 M92,93L93,94 M93,93L94,94 M94,93L95,94 M95,93L96,94 M96,93L97,94 M97,93L98,94 M98,93L99,94 M99,93L100,94 M100,93L101,94 M101,93L102,94 M102,93L103,94 M103,93L104,94 M104,93L105,94 M105,93L106,94 M106,93L107,94 M107,93L108,94 M108,93L109,94 M109,93L110,94 M110,93L111,94 M111,93L112,94 M112,93L113,94 M113,93L114,94 M114,93L115,94 M115,93L116,94 M116,93L117,94 M117,93L118,94 M118,93L119,94 M119,93L120,94 M120,93L121,94 M121,93L122,94 M122,93L123,94 M123,93L124,94 M224,93L225,94 M225,93L226,94 M226,93L227,94 M253,93L254,94 M254,93L255,94 M300,93L301,94 M301,93L302,94 M304,93L305,94 M305,93L306,94 M306,93L307,94 M348,93L349,94 M349,93L350,94 M385,93L386,94 M386,93L387,94 M396,93L397,94 M397,93L398,94 M398,93L399,94 M399,93L400,94 M449,93L450,94 M450,93L451,94 M494,93L495,94 M495,93L496,94 M496,93L497,94 M551,93L552,94 M552,93L553,94 M67,94L68,95 M68,94L69,95 M73,94L74,95 M74,94L75,95 M75,94L76,95 M76,94L77,95 M77,94L78,95 M223,94L224,95 M224,94L225,95 M225,94L226,95 M253,94L254,95 M254,94L255,95 M300,94L301,95 M301,94L302,95 M304,94L305,95 M305,94L306,95 M348,94L349,95 M349,94L350,95 M385,94L386,95 M386,94L387,95 M395,94L396,95 M396,94L397,95 M397,94L398,95 M449,94L450,95 M450,94L451,95 M495,94L496,95 M496,94L497,95 M497,94L498,95 M550,94L551,95 M551,94L552,95 M552,94L553,95 M67,95L68,96 M68,95L69,96 M75,95L76,96 M76,95L77,96 M77,95L78,96 M78,95L79,96 M79,95L80,96 M223,95L224,96 M224,95L225,96 M253,95L254,96 M254,95L255,96 M299,95L300,96 M300,95L301,96 M348,95L349,96 M349,95L350,96 M385,95L386,96 M386,95L387,96 M393,95L394,96 M394,95L395,96 M395,95L396,96 M396,95L397,96 M449,95L450,96 M450,95L451,96 M496,95L497,96 M497,95L498,96 M550,95L551,96 M551,95L552,96 M67,96L68,97 M68,96L69,97 M77,96L78,97 M78,96L79,97 M79,96L80,97 M80,96L81,97 M81,96L82,97 M222,96L223,97 M223,96L224,97 M224,96L225,97 M253,96L254,97 M254,96L255,97 M299,96L300,97 M300,96L301,97 M348,96L349,97 M349,96L350,97 M385,96L386,97 M386,96L387,97 M391,96L392,97 M392,96L393,97 M393,96L394,97 M394,96L395,97 M450,96L451,97 M451,96L452,97 M497,96L498,97 M498,96L499,97 M549,96L550,97 M550,96L551,97 M551,96L552,97 M67,97L68,98 M68,97L69,98 M80,97L81,98 M81,97L82,98 M82,97L83,98 M83,97L84,98 M84,97L85,98 M222,97L223,98 M223,97L224,98 M253,97L254,98 M254,97L255,98 M299,97L300,98 M300,97L301,98 M348,97L349,98 M349,97L350,98 M385,97L386,98 M386,97L387,98 M390,97L391,98 M391,97L392,98 M392,97L393,98 M450,97L451,98 M451,97L452,98 M452,97L453,98 M497,97L498,98 M498,97L499,98 M499,97L500,98 M549,97L550,98 M550,97L551,98 M67,98L68,99 M68,98L69,99 M82,98L83,99 M83,98L84,99 M84,98L85,99 M85,98L86,99 M221,98L222,99 M222,98L223,99 M223,98L224,99 M253,98L254,99 M254,98L255,99 M298,98L299,99 M299,98L300,99 M348,98L349,99 M349,98L350,99 M385,98L386,99 M386,98L387,99 M389,98L390,99 M390,98L391,99 M391,98L392,99 M451,98L452,99 M452,98L453,99 M498,98L499,99 M499,98L500,99 M548,98L549,99 M549,98L550,99 M550,98L551,99 M67,99L68,100 M68,99L69,100 M84,99L85,100 M85,99L86,100 M86,99L87,100 M87,99L88,100 M220,99L221,100 M221,99L222,100 M222,99L223,100 M253,99L254,100 M254,99L255,100 M298,99L299,100 M299,99L300,100 M348,99L349,100 M349,99L350,100 M385,99L386,100 M386,99L387,100 M387,99L388,100 M388,99L389,100 M389,99L390,100 M390,99L391,100 M451,99L452,100 M452,99L453,100 M499,99L500,100 M500,99L501,100 M547,99L548,100 M548,99L549,100 M549,99L550,100 M67,100L68,101 M68,100L69,101 M86,100L87,101 M87,100L88,101 M88,100L89,101 M220,100L221,101 M221,100L222,101 M253,100L254,101 M254,100L255,101 M298,100L299,101 M299,100L300,101 M348,100L349,101 M349,100L350,101 M385,100L386,101 M386,100L387,101 M387,100L388,101 M388,100L389,101 M452,100L453,101 M453,100L454,101 M499,100L500,101 M500,100L501,101 M501,100L502,101 M547,100L548,101 M548,100L549,101 M66,101L67,102 M67,101L68,102 M87,101L88,102 M88,101L89,102 M89,101L90,102 M90,101L91,102 M219,101L220,102 M220,101L221,102 M221,101L222,102 M253,101L254,102 M254,101L255,102 M297,101L298,102 M298,101L299,102 M348,101L349,102 M349,101L350,102 M385,101L386,102 M386,101L387,102 M387,101L388,102 M452,101L453,102 M453,101L454,102 M500,101L501,102 M501,101L502,102 M546,101L547,102 M547,101L548,102 M548,101L549,102 M66,102L67,103 M67,102L68,103 M89,102L90,103 M90,102L91,103 M91,102L92,103 M92,102L93,103 M218,102L219,103 M219,102L220,103 M220,102L221,103 M253,102L254,103 M254,102L255,103 M297,102L298,103 M298,102L299,103 M348,102L349,103 M349,102L350,103 M385,102L386,103 M386,102L387,103 M452,102L453,103 M453,102L454,103 M501,102L502,103 M502,102L503,103 M546,102L547,103 M547,102L548,103 M66,103L67,104 M67,103L68,104 M90,103L91,104 M91,103L92,104 M92,103L93,104 M93,103L94,104 M94,103L95,104 M218,103L219,104 M219,103L220,104 M253,103L254,104 M254,103L255,104 M297,103L298,104 M298,103L299,104 M348,103L349,104 M349,103L350,104 M385,103L386,104 M386,103L387,104 M452,103L453,104 M453,103L454,104 M501,103L502,104 M502,103L503,104 M503,103L504,104 M546,103L547,104 M547,103L548,104 M66,104L67,105 M67,104L68,105 M92,104L93,105 M93,104L94,105 M94,104L95,105 M95,104L96,105 M96,104L97,105 M217,104L218,105 M218,104L219,105 M219,104L220,105 M253,104L254,105 M254,104L255,105 M296,104L297,105 M297,104L298,105 M348,104L349,105 M349,104L350,105 M385,104L386,105 M386,104L387,105 M452,104L453,105 M453,104L454,105 M502,104L503,105 M503,104L504,105 M504,104L505,105 M545,104L546,105 M546,104L547,105 M547,104L548,105 M66,105L67,106 M67,105L68,106 M95,105L96,106 M96,105L97,106 M97,105L98,106 M98,105L99,106 M99,105L100,106 M217,105L218,106 M218,105L219,106 M253,105L254,106 M254,105L255,106 M296,105L297,106 M297,105L298,106 M348,105L349,106 M349,105L350,106 M385,105L386,106 M386,105L387,106 M452,105L453,106 M453,105L454,106 M503,105L504,106 M504,105L505,106 M545,105L546,106 M546,105L547,106 M66,106L67,107 M67,106L68,107 M97,106L98,107 M98,106L99,107 M99,106L100,107 M100,106L101,107 M101,106L102,107 M216,106L217,107 M217,106L218,107 M218,106L219,107 M253,106L254,107 M254,106L255,107 M296,106L297,107 M297,106L298,107 M348,106L349,107 M349,106L350,107 M385,106L386,107 M386,106L387,107 M452,106L453,107 M453,106L454,107 M504,106L505,107 M505,106L506,107 M545,106L546,107 M546,106L547,107 M66,107L67,108 M67,107L68,108 M99,107L100,108 M100,107L101,108 M101,107L102,108 M102,107L103,108 M103,107L104,108 M216,107L217,108 M217,107L218,108 M252,107L253,108 M253,107L254,108 M254,107L255,108 M295,107L296,108 M296,107L297,108 M348,107L349,108 M349,107L350,108 M385,107L386,108 M386,107L387,108 M452,107L453,108 M453,107L454,108 M504,107L505,108 M505,107L506,108 M506,107L507,108 M544,107L545,108 M545,107L546,108 M546,107L547,108 M65,108L66,109 M66,108L67,109 M101,108L102,109 M102,108L103,109 M103,108L104,109 M104,108L105,109 M105,108L106,109 M215,108L216,109 M216,108L217,109 M217,108L218,109 M252,108L253,109 M253,108L254,109 M295,108L296,109 M296,108L297,109 M348,108L349,109 M349,108L350,109 M385,108L386,109 M386,108L387,109 M452,108L453,109 M453,108L454,109 M505,108L506,109 M506,108L507,109 M544,108L545,109 M545,108L546,109 M65,109L66,110 M66,109L67,110 M103,109L104,110 M104,109L105,110 M105,109L106,110 M106,109L107,110 M215,109L216,110 M216,109L217,110 M252,109L253,110 M253,109L254,110 M295,109L296,110 M296,109L297,110 M348,109L349,110 M349,109L350,110 M385,109L386,110 M386,109L387,110 M452,109L453,110 M453,109L454,110 M506,109L507,110 M507,109L508,110 M544,109L545,110 M545,109L546,110 M65,110L66,111 M66,110L67,111 M105,110L106,111 M106,110L107,111 M107,110L108,111 M108,110L109,111 M214,110L215,111 M215,110L216,111 M252,110L253,111 M253,110L254,111 M294,110L295,111 M295,110L296,111 M348,110L349,111 M349,110L350,111 M385,110L386,111 M386,110L387,111 M452,110L453,111 M453,110L454,111 M506,110L507,111 M507,110L508,111 M508,110L509,111 M543,110L544,111 M544,110L545,111 M545,110L546,111 M65,111L66,112 M66,111L67,112 M107,111L108,112 M108,111L109,112 M109,111L110,112 M110,111L111,112 M214,111L215,112 M215,111L216,112 M251,111L252,112 M252,111L253,112 M294,111L295,112 M295,111L296,112 M348,111L349,112 M349,111L350,112 M385,111L386,112 M386,111L387,112 M452,111L453,112 M453,111L454,112 M507,111L508,112 M508,111L509,112 M509,111L510,112 M543,111L544,112 M544,111L545,112 M65,112L66,113 M66,112L67,113 M109,112L110,113 M110,112L111,113 M111,112L112,113 M112,112L113,113 M214,112L215,113 M215,112L216,113 M251,112L252,113 M252,112L253,113 M294,112L295,113 M295,112L296,113 M348,112L349,113 M349,112L350,113 M385,112L386,113 M386,112L387,113 M452,112L453,113 M453,112L454,113 M508,112L509,113 M509,112L510,113 M543,112L544,113 M544,112L545,113 M64,113L65,114 M65,113L66,114 M66,113L67,114 M110,113L111,114 M111,113L112,114 M112,113L113,114 M113,113L114,114 M214,113L215,114 M215,113L216,114 M250,113L251,114 M251,113L252,114 M294,113L295,114 M295,113L296,114 M348,113L349,114 M349,113L350,114 M384,113L385,114 M385,113L386,114 M386,113L387,114 M452,113L453,114 M453,113L454,114 M509,113L510,114 M510,113L511,114 M543,113L544,114 M544,113L545,114 M64,114L65,115 M65,114L66,115 M112,114L113,115 M113,114L114,115 M114,114L115,115 M213,114L214,115 M214,114L215,115 M249,114L250,115 M250,114L251,115 M293,114L294,115 M294,114L295,115 M295,114L296,115 M348,114L349,115 M349,114L350,115 M384,114L385,115 M385,114L386,115 M452,114L453,115 M453,114L454,115 M509,114L510,115 M510,114L511,115 M511,114L512,115 M542,114L543,115 M543,114L544,115 M64,115L65,116 M65,115L66,116 M113,115L114,116 M114,115L115,116 M115,115L116,116 M116,115L117,116 M213,115L214,116 M214,115L215,116 M248,115L249,116 M249,115L250,116 M293,115L294,116 M294,115L295,116 M348,115L349,116 M349,115L350,116 M384,115L385,116 M385,115L386,116 M452,115L453,116 M453,115L454,116 M510,115L511,116 M511,115L512,116 M512,115L513,116 M542,115L543,116 M543,115L544,116 M64,116L65,117 M65,116L66,117 M115,116L116,117 M116,116L117,117 M117,116L118,117 M118,116L119,117 M213,116L214,117 M214,116L215,117 M247,116L248,117 M248,116L249,117 M293,116L294,117 M294,116L295,117 M348,116L349,117 M349,116L350,117 M384,116L385,117 M385,116L386,117 M452,116L453,117 M453,116L454,117 M511,116L512,117 M512,116L513,117 M513,116L514,117 M541,116L542,117 M542,116L543,117 M543,116L544,117 M64,117L65,118 M65,117L66,118 M116,117L117,118 M117,117L118,118 M118,117L119,118 M119,117L120,118 M212,117L213,118 M213,117L214,118 M246,117L247,118 M247,117L248,118 M293,117L294,118 M294,117L295,118 M348,117L349,118 M349,117L350,118 M384,117L385,118 M385,117L386,118 M452,117L453,118 M453,117L454,118 M512,117L513,118 M513,117L514,118 M514,117L515,118 M540,117L541,118 M541,117L542,118 M542,117L543,118 M64,118L65,119 M65,118L66,119 M118,118L119,119 M119,118L120,119 M120,118L121,119 M121,118L122,119 M212,118L213,119 M213,118L214,119 M244,118L245,119 M245,118L246,119 M246,118L247,119 M293,118L294,119 M294,118L295,119 M348,118L349,119 M349,118L350,119 M383,118L384,119 M384,118L385,119 M385,118L386,119 M452,118L453,119 M453,118L454,119 M513,118L514,119 M514,118L515,119 M515,118L516,119 M540,118L541,119 M541,118L542,119 M64,119L65,120 M65,119L66,120 M120,119L121,120 M121,119L122,120 M122,119L123,120 M211,119L212,120 M212,119L213,120 M213,119L214,120 M243,119L244,120 M244,119L245,120 M245,119L246,120 M293,119L294,120 M294,119L295,120 M348,119L349,120 M349,119L350,120 M383,119L384,120 M384,119L385,120 M452,119L453,120 M453,119L454,120 M514,119L515,120 M515,119L516,120 M516,119L517,120 M540,119L541,120 M541,119L542,120 M64,120L65,121 M65,120L66,121 M121,120L122,121 M122,120L123,121 M123,120L124,121 M210,120L211,121 M211,120L212,121 M212,120L213,121 M240,120L241,121 M241,120L242,121 M242,120L243,121 M243,120L244,121 M244,120L245,121 M293,120L294,121 M294,120L295,121 M348,120L349,121 M349,120L350,121 M383,120L384,121 M384,120L385,121 M451,120L452,121 M452,120L453,121 M515,120L516,121 M516,120L517,121 M517,120L518,121 M539,120L540,121 M540,120L541,121 M64,121L65,122 M65,121L66,122 M122,121L123,122 M123,121L124,122 M124,121L125,122 M210,121L211,122 M211,121L212,122 M236,121L237,122 M237,121L238,122 M238,121L239,122 M239,121L240,122 M240,121L241,122 M241,121L242,122 M242,121L243,122 M292,121L293,122 M293,121L294,122 M348,121L349,122 M349,121L350,122 M383,121L384,122 M384,121L385,122 M451,121L452,122 M452,121L453,122 M516,121L517,122 M517,121L518,122 M518,121L519,122 M539,121L540,122 M540,121L541,122 M63,122L64,123 M64,122L65,123 M123,122L124,123 M124,122L125,123 M125,122L126,123 M126,122L127,123 M210,122L211,123 M211,122L212,123 M232,122L233,123 M233,122L234,123 M234,122L235,123 M235,122L236,123 M236,122L237,123 M237,122L238,123 M238,122L239,123 M239,122L240,123 M292,122L293,123 M293,122L294,123 M348,122L349,123 M349,122L350,123 M383,122L384,123 M384,122L385,123 M451,122L452,123 M452,122L453,123 M517,122L518,123 M518,122L519,123 M519,122L520,123 M538,122L539,123 M539,122L540,123 M63,123L64,124 M64,123L65,124 M125,123L126,124 M126,123L127,124 M127,123L128,124 M128,123L129,124 M210,123L211,124 M211,123L212,124 M228,123L229,124 M229,123L230,124 M230,123L231,124 M231,123L232,124 M232,123L233,124 M233,123L234,124 M234,123L235,124 M235,123L236,124 M236,123L237,124 M292,123L293,124 M293,123L294,124 M348,123L349,124 M349,123L350,124 M383,123L384,124 M384,123L385,124 M451,123L452,124 M452,123L453,124 M518,123L519,124 M519,123L520,124 M520,123L521,124 M521,123L522,124 M538,123L539,124 M539,123L540,124 M63,124L64,125 M64,124L65,125 M126,124L127,125 M127,124L128,125 M128,124L129,125 M129,124L130,125 M209,124L210,125 M210,124L211,125 M224,124L225,125 M225,124L226,125 M226,124L227,125 M227,124L228,125 M228,124L229,125 M229,124L230,125 M230,124L231,125 M231,124L232,125 M232,124L233,125 M292,124L293,125 M293,124L294,125 M348,124L349,125 M349,124L350,125 M383,124L384,125 M384,124L385,125 M451,124L452,125 M452,124L453,125 M520,124L521,125 M521,124L522,125 M537,124L538,125 M538,124L539,125 M63,125L64,126 M64,125L65,126 M128,125L129,126 M129,125L130,126 M130,125L131,126 M209,125L210,126 M210,125L211,126 M211,125L212,126 M212,125L213,126 M213,125L214,126 M214,125L215,126 M215,125L216,126 M216,125L217,126 M217,125L218,126 M218,125L219,126 M219,125L220,126 M220,125L221,126 M221,125L222,126 M222,125L223,126 M223,125L224,126 M224,125L225,126 M225,125L226,126 M226,125L227,126 M227,125L228,126 M228,125L229,126 M292,125L293,126 M293,125L294,126 M348,125L349,126 M349,125L350,126 M383,125L384,126 M384,125L385,126 M451,125L452,126 M452,125L453,126 M521,125L522,126 M522,125L523,126 M537,125L538,126 M538,125L539,126 M62,126L63,127 M63,126L64,127 M129,126L130,127 M130,126L131,127 M131,126L132,127 M132,126L133,127 M208,126L209,127 M209,126L210,127 M210,126L211,127 M211,126L212,127 M212,126L213,127 M213,126L214,127 M214,126L215,127 M215,126L216,127 M216,126L217,127 M217,126L218,127 M218,126L219,127 M219,126L220,127 M220,126L221,127 M221,126L222,127 M222,126L223,127 M223,126L224,127 M224,126L225,127 M292,126L293,127 M293,126L294,127 M348,126L349,127 M349,126L350,127 M383,126L384,127 M384,126L385,127 M451,126L452,127 M452,126L453,127 M521,126L522,127 M522,126L523,127 M523,126L524,127 M536,126L537,127 M537,126L538,127 M538,126L539,127 M62,127L63,128 M63,127L64,128 M131,127L132,128 M132,127L133,128 M133,127L134,128 M208,127L209,128 M209,127L210,128 M292,127L293,128 M293,127L294,128 M348,127L349,128 M349,127L350,128 M383,127L384,128 M384,127L385,128 M451,127L452,128 M452,127L453,128 M522,127L523,128 M523,127L524,128 M536,127L537,128 M537,127L538,128 M62,128L63,129 M63,128L64,129 M132,128L133,129 M133,128L134,129 M134,128L135,129 M207,128L208,129 M208,128L209,129 M209,128L210,129 M292,128L293,129 M293,128L294,129 M348,128L349,129 M349,128L350,129 M383,128L384,129 M384,128L385,129 M451,128L452,129 M452,128L453,129 M522,128L523,129 M523,128L524,129 M524,128L525,129 M535,128L536,129 M536,128L537,129 M62,129L63,130 M63,129L64,130 M133,129L134,130 M134,129L135,130 M135,129L136,130 M207,129L208,130 M208,129L209,130 M292,129L293,130 M293,129L294,130 M347,129L348,130 M348,129L349,130 M383,129L384,130 M384,129L385,130 M451,129L452,130 M452,129L453,130 M523,129L524,130 M524,129L525,130 M525,129L526,130 M534,129L535,130 M535,129L536,130 M62,130L63,131 M63,130L64,131 M134,130L135,131 M135,130L136,131 M136,130L137,131 M207,130L208,131 M208,130L209,131 M292,130L293,131 M293,130L294,131 M347,130L348,131 M348,130L349,131 M383,130L384,131 M384,130L385,131 M451,130L452,131 M452,130L453,131 M524,130L525,131 M525,130L526,131 M526,130L527,131 M534,130L535,131 M535,130L536,131 M62,131L63,132 M63,131L64,132 M135,131L136,132 M136,131L137,132 M137,131L138,132 M207,131L208,132 M208,131L209,132 M292,131L293,132 M293,131L294,132 M347,131L348,132 M348,131L349,132 M383,131L384,132 M384,131L385,132 M451,131L452,132 M452,131L453,132 M525,131L526,132 M526,131L527,132 M527,131L528,132 M528,131L529,132 M533,131L534,132 M534,131L535,132 M62,132L63,133 M63,132L64,133 M137,132L138,133 M138,132L139,133 M139,132L140,133 M207,132L208,133 M208,132L209,133 M292,132L293,133 M293,132L294,133 M347,132L348,133 M348,132L349,133 M382,132L383,133 M383,132L384,133 M451,132L452,133 M452,132L453,133 M527,132L528,133 M528,132L529,133 M529,132L530,133 M533,132L534,133 M534,132L535,133 M62,133L63,134 M63,133L64,134 M138,133L139,134 M139,133L140,134 M140,133L141,134 M207,133L208,134 M208,133L209,134 M292,133L293,134 M293,133L294,134 M347,133L348,134 M348,133L349,134 M382,133L383,134 M383,133L384,134 M451,133L452,134 M452,133L453,134 M528,133L529,134 M529,133L530,134 M530,133L531,134 M532,133L533,134 M533,133L534,134 M534,133L535,134 M62,134L63,135 M63,134L64,135 M139,134L140,135 M140,134L141,135 M141,134L142,135 M207,134L208,135 M208,134L209,135 M292,134L293,135 M293,134L294,135 M347,134L348,135 M348,134L349,135 M382,134L383,135 M383,134L384,135 M451,134L452,135 M452,134L453,135 M529,134L530,135 M530,134L531,135 M531,134L532,135 M532,134L533,135 M533,134L534,135 M62,135L63,136 M63,135L64,136 M140,135L141,136 M141,135L142,136 M142,135L143,136 M207,135L208,136 M208,135L209,136 M292,135L293,136 M293,135L294,136 M346,135L347,136 M347,135L348,136 M382,135L383,136 M383,135L384,136 M451,135L452,136 M452,135L453,136 M530,135L531,136 M531,135L532,136 M532,135L533,136 M533,135L534,136 M61,136L62,137 M62,136L63,137 M63,136L64,137 M141,136L142,137 M142,136L143,137 M143,136L144,137 M207,136L208,137 M208,136L209,137 M292,136L293,137 M293,136L294,137 M346,136L347,137 M347,136L348,137 M382,136L383,137 M383,136L384,137 M450,136L451,137 M451,136L452,137 M531,136L532,137 M532,136L533,137 M533,136L534,137 M61,137L62,138 M62,137L63,138 M143,137L144,138 M144,137L145,138 M145,137L146,138 M207,137L208,138 M208,137L209,138 M292,137L293,138 M293,137L294,138 M346,137L347,138 M347,137L348,138 M382,137L383,138 M383,137L384,138 M450,137L451,138 M451,137L452,138 M531,137L532,138 M532,137L533,138 M533,137L534,138 M534,137L535,138 M61,138L62,139 M62,138L63,139 M144,138L145,139 M145,138L146,139 M146,138L147,139 M207,138L208,139 M208,138L209,139 M292,138L293,139 M293,138L294,139 M346,138L347,139 M347,138L348,139 M381,138L382,139 M382,138L383,139 M383,138L384,139 M450,138L451,139 M451,138L452,139 M531,138L532,139 M532,138L533,139 M533,138L534,139 M534,138L535,139 M535,138L536,139 M61,139L62,140 M62,139L63,140 M145,139L146,140 M146,139L147,140 M147,139L148,140 M207,139L208,140 M208,139L209,140 M292,139L293,140 M293,139L294,140 M346,139L347,140 M347,139L348,140 M381,139L382,140 M382,139L383,140 M450,139L451,140 M451,139L452,140 M531,139L532,140 M532,139L533,140 M533,139L534,140 M534,139L535,140 M535,139L536,140 M61,140L62,141 M62,140L63,141 M146,140L147,141 M147,140L148,141 M148,140L149,141 M207,140L208,141 M208,140L209,141 M292,140L293,141 M293,140L294,141 M345,140L346,141 M346,140L347,141 M381,140L382,141 M382,140L383,141 M449,140L450,141 M450,140L451,141 M451,140L452,141 M530,140L531,141 M531,140L532,141 M534,140L535,141 M535,140L536,141 M61,141L62,142 M62,141L63,142 M147,141L148,142 M148,141L149,142 M149,141L150,142 M207,141L208,142 M208,141L209,142 M292,141L293,142 M293,141L294,142 M345,141L346,142 M346,141L347,142 M381,141L382,142 M382,141L383,142 M449,141L450,142 M450,141L451,142 M530,141L531,142 M531,141L532,142 M61,142L62,143 M62,142L63,143 M148,142L149,143 M149,142L150,143 M150,142L151,143 M207,142L208,143 M208,142L209,143 M292,142L293,143 M293,142L294,143 M345,142L346,143 M346,142L347,143 M381,142L382,143 M382,142L383,143 M449,142L450,143 M450,142L451,143 M529,142L530,143 M530,142L531,143 M531,142L532,143 M60,143L61,144 M61,143L62,144 M62,143L63,144 M149,143L150,144 M150,143L151,144 M151,143L152,144 M152,143L153,144 M207,143L208,144 M208,143L209,144 M209,143L210,144 M292,143L293,144 M293,143L294,144 M345,143L346,144 M346,143L347,144 M380,143L381,144 M381,143L382,144 M449,143L450,144 M450,143L451,144 M529,143L530,144 M530,143L531,144 M60,144L61,145 M61,144L62,145 M151,144L152,145 M152,144L153,145 M153,144L154,145 M208,144L209,145 M209,144L210,145 M292,144L293,145 M293,144L294,145 M345,144L346,145 M346,144L347,145 M380,144L381,145 M381,144L382,145 M448,144L449,145 M449,144L450,145 M528,144L529,145 M529,144L530,145 M530,144L531,145 M60,145L61,146 M61,145L62,146 M152,145L153,146 M153,145L154,146 M154,145L155,146 M209,145L210,146 M210,145L211,146 M211,145L212,146 M292,145L293,146 M293,145L294,146 M345,145L346,146 M346,145L347,146 M380,145L381,146 M381,145L382,146 M448,145L449,146 M449,145L450,146 M528,145L529,146 M529,145L530,146 M60,146L61,147 M61,146L62,147 M153,146L154,147 M154,146L155,147 M155,146L156,147 M209,146L210,147 M210,146L211,147 M211,146L212,147 M292,146L293,147 M293,146L294,147 M344,146L345,147 M345,146L346,147 M380,146L381,147 M381,146L382,147 M448,146L449,147 M449,146L450,147 M527,146L528,147 M528,146L529,147 M529,146L530,147 M59,147L60,148 M60,147L61,148 M154,147L155,148 M155,147L156,148 M156,147L157,148 M211,147L212,148 M212,147L213,148 M292,147L293,148 M293,147L294,148 M344,147L345,148 M345,147L346,148 M380,147L381,148 M381,147L382,148 M448,147L449,148 M449,147L450,148 M527,147L528,148 M528,147L529,148 M59,148L60,149 M60,148L61,149 M155,148L156,149 M156,148L157,149 M157,148L158,149 M211,148L212,149 M212,148L213,149 M213,148L214,149 M214,148L215,149 M215,148L216,149 M292,148L293,149 M293,148L294,149 M343,148L344,149 M344,148L345,149 M345,148L346,149 M379,148L380,149 M380,148L381,149 M447,148L448,149 M448,148L449,149 M449,148L450,149 M526,148L527,149 M527,148L528,149 M528,148L529,149 M59,149L60,150 M60,149L61,150 M156,149L157,150 M157,149L158,150 M158,149L159,150 M212,149L213,150 M213,149L214,150 M214,149L215,150 M215,149L216,150 M216,149L217,150 M292,149L293,150 M293,149L294,150 M343,149L344,150 M344,149L345,150 M379,149L380,150 M380,149L381,150 M447,149L448,150 M448,149L449,150 M526,149L527,150 M527,149L528,150 M59,150L60,151 M60,150L61,151 M157,150L158,151 M158,150L159,151 M159,150L160,151 M215,150L216,151 M216,150L217,151 M217,150L218,151 M218,150L219,151 M219,150L220,151 M292,150L293,151 M293,150L294,151 M343,150L344,151 M344,150L345,151 M379,150L380,151 M380,150L381,151 M447,150L448,151 M448,150L449,151 M525,150L526,151 M526,150L527,151 M527,150L528,151 M58,151L59,152 M59,151L60,152 M158,151L159,152 M159,151L160,152 M160,151L161,152 M216,151L217,152 M217,151L218,152 M218,151L219,152 M219,151L220,152 M220,151L221,152 M221,151L222,152 M292,151L293,152 M293,151L294,152 M342,151L343,152 M343,151L344,152 M344,151L345,152 M379,151L380,152 M380,151L381,152 M447,151L448,152 M448,151L449,152 M525,151L526,152 M526,151L527,152 M58,152L59,153 M59,152L60,153 M159,152L160,153 M160,152L161,153 M161,152L162,153 M219,152L220,153 M220,152L221,153 M221,152L222,153 M292,152L293,153 M293,152L294,153 M342,152L343,153 M343,152L344,153 M379,152L380,153 M380,152L381,153 M446,152L447,153 M447,152L448,153 M524,152L525,153 M525,152L526,153 M526,152L527,153 M58,153L59,154 M59,153L60,154 M160,153L161,154 M161,153L162,154 M162,153L163,154 M221,153L222,154 M222,153L223,154 M292,153L293,154 M293,153L294,154 M342,153L343,154 M343,153L344,154 M379,153L380,154 M380,153L381,154 M446,153L447,154 M447,153L448,154 M524,153L525,154 M525,153L526,154 M58,154L59,155 M59,154L60,155 M161,154L162,155 M162,154L163,155 M163,154L164,155 M164,154L165,155 M221,154L222,155 M222,154L223,155 M223,154L224,155 M290,154L291,155 M291,154L292,155 M292,154L293,155 M293,154L294,155 M378,154L379,155 M379,154L380,155 M380,154L381,155 M445,154L446,155 M446,154L447,155 M447,154L448,155 M523,154L524,155 M524,154L525,155 M525,154L526,155 M57,155L58,156 M58,155L59,156 M59,155L60,156 M163,155L164,156 M164,155L165,156 M222,155L223,156 M223,155L224,156 M224,155L225,156 M225,155L226,156 M226,155L227,156 M227,155L228,156 M228,155L229,156 M229,155L230,156 M263,155L264,156 M264,155L265,156 M290,155L291,156 M291,155L292,156 M292,155L293,156 M293,155L294,156 M378,155L379,156 M379,155L380,156 M445,155L446,156 M446,155L447,156 M523,155L524,156 M524,155L525,156 M57,156L58,157 M58,156L59,157 M164,156L165,157 M165,156L166,157 M223,156L224,157 M224,156L225,157 M225,156L226,157 M226,156L227,157 M227,156L228,157 M228,156L229,157 M229,156L230,157 M230,156L231,157 M231,156L232,157 M232,156L233,157 M233,156L234,157 M234,156L235,157 M260,156L261,157 M261,156L262,157 M262,156L263,157 M263,156L264,157 M264,156L265,157 M378,156L379,157 M379,156L380,157 M445,156L446,157 M446,156L447,157 M522,156L523,157 M523,156L524,157 M524,156L525,157 M57,157L58,158 M58,157L59,158 M164,157L165,158 M165,157L166,158 M166,157L167,158 M228,157L229,158 M229,157L230,158 M230,157L231,158 M231,157L232,158 M232,157L233,158 M233,157L234,158 M234,157L235,158 M235,157L236,158 M236,157L237,158 M258,157L259,158 M259,157L260,158 M260,157L261,158 M261,157L262,158 M262,157L263,158 M263,157L264,158 M521,157L522,158 M522,157L523,158 M523,157L524,158 M57,158L58,159 M58,158L59,159 M165,158L166,159 M166,158L167,159 M234,158L235,159 M235,158L236,159 M236,158L237,159 M237,158L238,159 M256,158L257,159 M257,158L258,159 M258,158L259,159 M259,158L260,159 M521,158L522,159 M522,158L523,159 M57,159L58,160 M58,159L59,160 M165,159L166,160 M166,159L167,160 M236,159L237,160 M237,159L238,160 M238,159L239,160 M239,159L240,160 M255,159L256,160 M256,159L257,160 M257,159L258,160 M521,159L522,160 M522,159L523,160 M56,160L57,161 M57,160L58,161 M166,160L167,161 M167,160L168,161 M238,160L239,161 M239,160L240,161 M240,160L241,161 M241,160L242,161 M242,160L243,161 M243,160L244,161 M244,160L245,161 M245,160L246,161 M246,160L247,161 M247,160L248,161 M248,160L249,161 M249,160L250,161 M250,160L251,161 M251,160L252,161 M252,160L253,161 M253,160L254,161 M254,160L255,161 M255,160L256,161 M256,160L257,161 M520,160L521,161 M521,160L522,161 M56,161L57,162 M57,161L58,162 M166,161L167,162 M167,161L168,162 M240,161L241,162 M241,161L242,162 M242,161L243,162 M243,161L244,162 M244,161L245,162 M245,161L246,162 M246,161L247,162 M247,161L248,162 M248,161L249,162 M249,161L250,162 M250,161L251,162 M251,161L252,162 M252,161L253,162 M253,161L254,162 M254,161L255,162 M520,161L521,162 M521,161L522,162 M56,162L57,163 M57,162L58,163 M167,162L168,163 M168,162L169,163 M519,162L520,163 M520,162L521,163 M521,162L522,163 M56,163L57,164 M57,163L58,164 M167,163L168,164 M168,163L169,164 M518,163L519,164 M519,163L520,164 M520,163L521,164 M56,164L57,165 M57,164L58,165 M168,164L169,165 M169,164L170,165 M518,164L519,165 M519,164L520,165 M55,165L56,166 M56,165L57,166 M168,165L169,166 M169,165L170,166 M517,165L518,166 M518,165L519,166 M519,165L520,166 M55,166L56,167 M56,166L57,167 M168,166L169,167 M169,166L170,167 M517,166L518,167 M518,166L519,167 M55,167L56,168 M56,167L57,168 M169,167L170,168 M170,167L171,168 M516,167L517,168 M517,167L518,168 M518,167L519,168 M55,168L56,169 M56,168L57,169 M169,168L170,169 M170,168L171,169 M515,168L516,169 M516,168L517,169 M517,168L518,169 M55,169L56,170 M56,169L57,170 M169,169L170,170 M170,169L171,170 M515,169L516,170 M516,169L517,170 M55,170L56,171 M56,170L57,171 M170,170L171,171 M171,170L172,171 M514,170L515,171 M515,170L516,171 M516,170L517,171 M55,171L56,172 M56,171L57,172 M170,171L171,172 M171,171L172,172 M513,171L514,172 M514,171L515,172 M515,171L516,172 M54,172L55,173 M55,172L56,173 M56,172L57,173 M170,172L171,173 M171,172L172,173 M172,172L173,173 M513,172L514,173 M514,172L515,173 M54,173L55,174 M55,173L56,174 M171,173L172,174 M172,173L173,174 M512,173L513,174 M513,173L514,174 M514,173L515,174 M53,174L54,175 M54,174L55,175 M55,174L56,175 M171,174L172,175 M172,174L173,175 M512,174L513,175 M513,174L514,175 M53,175L54,176 M54,175L55,176 M171,175L172,176 M172,175L173,176 M511,175L512,176 M512,175L513,176 M513,175L514,176 M52,176L53,177 M53,176L54,177 M54,176L55,177 M511,176L512,177 M512,176L513,177 M52,177L53,178 M53,177L54,178 M510,177L511,178 M511,177L512,178 M512,177L513,178 M52,178L53,179 M53,178L54,179 M509,178L510,179 M510,178L511,179 M511,178L512,179 M52,179L53,180 M53,179L54,180 M509,179L510,180 M510,179L511,180 M52,180L53,181 M53,180L54,181 M508,180L509,181 M509,180L510,181 M510,180L511,181 M52,181L53,182 M53,181L54,182 M508,181L509,182 M509,181L510,182 M507,182L508,183 M508,182L509,183 M509,182L510,183 M507,183L508,184 M508,183L509,184 M506,184L507,185 M507,184L508,185 M508,184L509,185 M505,185L506,186 M506,185L507,186 M507,185L508,186 M505,186L506,187 M506,186L507,187 M504,187L505,188 M505,187L506,188 M503,188L504,189 M504,188L505,189 M505,188L506,189 M502,189L503,190 M503,189L504,190 M504,189L505,190 M502,190L503,191 M503,190L504,191 M500,191L501,192 M501,191L502,192 M502,191L503,192 M500,192L501,193 M501,192L502,193 M499,193L500,194 M500,193L501,194 M501,193L502,194 M499,194L500,195 M500,194L501,195 M498,195L499,196 M499,195L500,196 M498,196L499,197 M499,196L500,197 M497,197L498,198 M498,197L499,198 M497,198L498,199 M498,198L499,199 M496,199L497,200 M497,199L498,200 M498,199L499,200 M496,200L497,201 M497,200L498,201 M495,201L496,202 M496,201L497,202 M495,202L496,203 M496,202L497,203 M494,203L495,204 M495,203L496,204 M496,203L497,204 M494,204L495,205 M495,204L496,205 M492,205L493,206 M493,205L494,206 M494,205L495,206 M492,206L493,207 M493,206L494,207 M491,207L492,208 M492,207L493,208 M493,207L494,208 M491,208L492,209 M492,208L493,209 M490,209L491,210 M491,209L492,210 M490,210L491,211" fill="none" stroke="black" />
    </svg>