<svg xmlns="http://www.w3.org/2000/svg" width="800" height="250">
        <path d="M576,37L577,38 M577,37L578,38 M578,37L579,38 M579,37L580,38 M580,37L581,38 M581,37L582,38 M582,37L583,38 M583,37L584,38 M584,37L585,38 M585,37L586,38 M571,38L572,39 M572,38L573,39 M573,38L574,39 M574,38L575,39 M575,38L576,39 M576,38L577,39 M577,38L578,39 M578,38L579,39 M579,38L580,39 M580,38L581,39 M581,38L582,39 M582,38L583,39 M583,38L584,39 M584,38L585,39 M585,38L586,39 M586,38L587,39 M587,38L588,39 M588,38L589,39 M589,38L590,39 M590,38L591,39 M591,38L592,39 M565,39L566,40 M566,39L567,40 M567,39L568,40 M568,39L569,40 M569,39L570,40 M570,39L571,40 M571,39L572,40 M572,39L573,40 M573,39L574,40 M574,39L575,40 M575,39L576,40 M586,39L587,40 M587,39L588,40 M588,39L589,40 M589,39L590,40 M590,39L591,40 M591,39L592,40 M592,39L593,40 M561,40L562,41 M562,40L563,41 M563,40L564,41 M564,40L565,41 M565,40L566,41 M566,40L567,41 M567,40L568,41 M568,40L569,41 M569,40L570,41 M570,40L571,41 M592,40L593,41 M593,40L594,41 M559,41L560,42 M560,41L561,42 M561,41L562,42 M562,41L563,42 M563,41L564,42 M564,41L565,42 M593,41L594,42 M558,42L559,43 M559,42L560,43 M560,42L561,43 M561,42L562,43 M592,42L593,43 M593,42L594,43 M556,43L557,44 M557,43L558,44 M558,43L559,44 M559,43L560,44 M592,43L593,44 M593,43L594,44 M554,44L555,45 M555,44L556,45 M556,44L557,45 M557,44L558,45 M591,44L592,45 M592,44L593,45 M593,44L594,45 M552,45L553,46 M553,45L554,46 M554,45L555,46 M555,45L556,46 M591,45L592,46 M592,45L593,46 M551,46L552,47 M552,46L553,47 M553,46L554,47 M554,46L555,47 M591,46L592,47 M592,46L593,47 M549,47L550,48 M550,47L551,48 M551,47L552,48 M552,47L553,48 M590,47L591,48 M591,47L592,48 M547,48L548,49 M548,48L549,49 M549,48L550,49 M550,48L551,49 M590,48L591,49 M591,48L592,49 M545,49L546,50 M546,49L547,50 M547,49L548,50 M548,49L549,50 M589,49L590,50 M590,49L591,50 M591,49L592,50 M543,50L544,51 M544,50L545,51 M545,50L546,51 M546,50L547,51 M589,50L590,51 M590,50L591,51 M323,51L324,52 M324,51L325,52 M325,51L326,52 M542,51L543,52 M543,51L544,52 M544,51L545,52 M545,51L546,52 M589,51L590,52 M590,51L591,52 M320,52L321,53 M321,52L322,53 M322,52L323,53 M323,52L324,53 M324,52L325,53 M325,52L326,53 M540,52L541,53 M541,52L542,53 M542,52L543,53 M543,52L544,53 M588,52L589,53 M589,52L590,53 M319,53L320,54 M320,53L321,54 M321,53L322,54 M322,53L323,54 M324,53L325,54 M325,53L326,54 M538,53L539,54 M539,53L540,54 M540,53L541,54 M541,53L542,54 M587,53L588,54 M588,53L589,54 M318,54L319,55 M319,54L320,55 M320,54L321,55 M323,54L324,55 M324,54L325,55 M325,54L326,55 M536,54L537,55 M537,54L538,55 M538,54L539,55 M539,54L540,55 M586,54L587,55 M587,54L588,55 M588,54L589,55 M317,55L318,56 M318,55L319,56 M319,55L320,56 M323,55L324,56 M324,55L325,56 M535,55L536,56 M536,55L537,56 M537,55L538,56 M538,55L539,56 M585,55L586,56 M586,55L587,56 M587,55L588,56 M316,56L317,57 M317,56L318,57 M318,56L319,57 M322,56L323,57 M323,56L324,57 M534,56L535,57 M535,56L536,57 M536,56L537,57 M584,56L585,57 M585,56L586,57 M586,56L587,57 M315,57L316,58 M316,57L317,58 M317,57L318,58 M321,57L322,58 M322,57L323,58 M532,57L533,58 M533,57L534,58 M534,57L535,58 M535,57L536,58 M583,57L584,58 M584,57L585,58 M585,57L586,58 M314,58L315,59 M315,58L316,59 M316,58L317,59 M320,58L321,59 M321,58L322,59 M322,58L323,59 M531,58L532,59 M532,58L533,59 M533,58L534,59 M582,58L583,59 M583,58L584,59 M584,58L585,59 M312,59L313,60 M313,59L314,60 M314,59L315,60 M315,59L316,60 M319,59L320,60 M320,59L321,60 M321,59L322,60 M529,59L530,60 M530,59L531,60 M531,59L532,60 M532,59L533,60 M581,59L582,60 M582,59L583,60 M583,59L584,60 M312,60L313,61 M313,60L314,61 M318,60L319,61 M319,60L320,61 M320,60L321,61 M528,60L529,61 M529,60L530,61 M530,60L531,61 M580,60L581,61 M581,60L582,61 M582,60L583,61 M311,61L312,62 M312,61L313,62 M317,61L318,62 M318,61L319,62 M319,61L320,62 M526,61L527,62 M527,61L528,62 M528,61L529,62 M529,61L530,62 M580,61L581,62 M581,61L582,62 M310,62L311,63 M311,62L312,63 M312,62L313,63 M316,62L317,63 M317,62L318,63 M318,62L319,63 M525,62L526,63 M526,62L527,63 M527,62L528,63 M528,62L529,63 M578,62L579,63 M579,62L580,63 M580,62L581,63 M309,63L310,64 M310,63L311,64 M311,63L312,64 M316,63L317,64 M317,63L318,64 M524,63L525,64 M525,63L526,64 M526,63L527,64 M577,63L578,64 M578,63L579,64 M579,63L580,64 M308,64L309,65 M309,64L310,65 M310,64L311,65 M315,64L316,65 M316,64L317,65 M522,64L523,65 M523,64L524,65 M524,64L525,65 M525,64L526,65 M576,64L577,65 M577,64L578,65 M578,64L579,65 M307,65L308,66 M308,65L309,66 M309,65L310,66 M314,65L315,66 M315,65L316,66 M316,65L317,66 M521,65L522,66 M522,65L523,66 M523,65L524,66 M575,65L576,66 M576,65L577,66 M577,65L578,66 M306,66L307,67 M307,66L308,67 M308,66L309,67 M313,66L314,67 M314,66L315,67 M315,66L316,67 M519,66L520,67 M520,66L521,67 M521,66L522,67 M522,66L523,67 M574,66L575,67 M575,66L576,67 M576,66L577,67 M248,67L249,68 M249,67L250,68 M250,67L251,68 M251,67L252,68 M252,67L253,68 M253,67L254,68 M254,67L255,68 M255,67L256,68 M256,67L257,68 M257,67L258,68 M258,67L259,68 M259,67L260,68 M260,67L261,68 M261,67L262,68 M262,67L263,68 M263,67L264,68 M264,67L265,68 M265,67L266,68 M266,67L267,68 M267,67L268,68 M268,67L269,68 M269,67L270,68 M270,67L271,68 M305,67L306,68 M306,67L307,68 M307,67L308,68 M312,67L313,68 M313,67L314,68 M314,67L315,68 M518,67L519,68 M519,67L520,68 M520,67L521,68 M573,67L574,68 M574,67L575,68 M575,67L576,68 M240,68L241,69 M241,68L242,69 M242,68L243,69 M243,68L244,69 M244,68L245,69 M245,68L246,69 M246,68L247,69 M247,68L248,69 M248,68L249,69 M249,68L250,69 M250,68L251,69 M251,68L252,69 M252,68L253,69 M253,68L254,69 M254,68L255,69 M255,68L256,69 M256,68L257,69 M257,68L258,69 M258,68L259,69 M259,68L260,69 M260,68L261,69 M261,68L262,69 M262,68L263,69 M263,68L264,69 M264,68L265,69 M265,68L266,69 M266,68L267,69 M267,68L268,69 M268,68L269,69 M269,68L270,69 M270,68L271,69 M305,68L306,69 M306,68L307,69 M311,68L312,69 M312,68L313,69 M313,68L314,69 M517,68L518,69 M518,68L519,69 M519,68L520,69 M572,68L573,69 M573,68L574,69 M574,68L575,69 M237,69L238,70 M238,69L239,70 M239,69L240,70 M240,69L241,70 M241,69L242,70 M242,69L243,70 M243,69L244,70 M244,69L245,70 M245,69L246,70 M246,69L247,70 M247,69L248,70 M304,69L305,70 M305,69L306,70 M310,69L311,70 M311,69L312,70 M312,69L313,70 M515,69L516,70 M516,69L517,70 M517,69L518,70 M518,69L519,70 M571,69L572,70 M572,69L573,70 M573,69L574,70 M233,70L234,71 M234,70L235,71 M235,70L236,71 M236,70L237,71 M237,70L238,71 M238,70L239,71 M239,70L240,71 M240,70L241,71 M303,70L304,71 M304,70L305,71 M305,70L306,71 M310,70L311,71 M311,70L312,71 M514,70L515,71 M515,70L516,71 M516,70L517,71 M570,70L571,71 M571,70L572,71 M572,70L573,71 M230,71L231,72 M231,71L232,72 M232,71L233,72 M233,71L234,72 M234,71L235,72 M235,71L236,72 M236,71L237,72 M302,71L303,72 M303,71L304,72 M304,71L305,72 M309,71L310,72 M310,71L311,72 M512,71L513,72 M513,71L514,72 M514,71L515,72 M515,71L516,72 M569,71L570,72 M570,71L571,72 M571,71L572,72 M226,72L227,73 M227,72L228,73 M228,72L229,73 M229,72L230,73 M230,72L231,73 M231,72L232,73 M232,72L233,73 M233,72L234,73 M301,72L302,73 M302,72L303,73 M303,72L304,73 M308,72L309,73 M309,72L310,73 M511,72L512,73 M512,72L513,73 M513,72L514,73 M568,72L569,73 M569,72L570,73 M570,72L571,73 M223,73L224,74 M224,73L225,74 M225,73L226,74 M226,73L227,74 M227,73L228,74 M228,73L229,74 M229,73L230,74 M300,73L301,74 M301,73L302,74 M302,73L303,74 M307,73L308,74 M308,73L309,74 M510,73L511,74 M511,73L512,74 M512,73L513,74 M567,73L568,74 M568,73L569,74 M569,73L570,74 M219,74L220,75 M220,74L221,75 M221,74L222,75 M222,74L223,75 M223,74L224,75 M224,74L225,75 M225,74L226,75 M226,74L227,75 M299,74L300,75 M300,74L301,75 M301,74L302,75 M306,74L307,75 M307,74L308,75 M508,74L509,75 M509,74L510,75 M510,74L511,75 M511,74L512,75 M566,74L567,75 M567,74L568,75 M568,74L569,75 M216,75L217,76 M217,75L218,76 M218,75L219,76 M219,75L220,76 M220,75L221,76 M221,75L222,76 M222,75L223,76 M298,75L299,76 M299,75L300,76 M300,75L301,76 M305,75L306,76 M306,75L307,76 M507,75L508,76 M508,75L509,76 M509,75L510,76 M565,75L566,76 M566,75L567,76 M567,75L568,76 M213,76L214,77 M214,76L215,77 M215,76L216,77 M216,76L217,77 M217,76L218,77 M218,76L219,77 M219,76L220,77 M298,76L299,77 M299,76L300,77 M304,76L305,77 M305,76L306,77 M505,76L506,77 M506,76L507,77 M507,76L508,77 M508,76L509,77 M564,76L565,77 M565,76L566,77 M211,77L212,78 M212,77L213,78 M213,77L214,78 M214,77L215,78 M215,77L216,78 M297,77L298,78 M298,77L299,78 M303,77L304,78 M304,77L305,78 M504,77L505,78 M505,77L506,78 M506,77L507,78 M562,77L563,78 M563,77L564,78 M564,77L565,78 M209,78L210,79 M210,78L211,79 M211,78L212,79 M212,78L213,79 M296,78L297,79 M297,78L298,79 M301,78L302,79 M302,78L303,79 M303,78L304,79 M502,78L503,79 M503,78L504,79 M504,78L505,79 M505,78L506,79 M561,78L562,79 M562,78L563,79 M563,78L564,79 M206,79L207,80 M207,79L208,80 M208,79L209,80 M209,79L210,80 M210,79L211,80 M295,79L296,80 M296,79L297,80 M297,79L298,80 M300,79L301,80 M301,79L302,80 M302,79L303,80 M501,79L502,80 M502,79L503,80 M503,79L504,80 M504,79L505,80 M560,79L561,80 M561,79L562,80 M562,79L563,80 M204,80L205,81 M205,80L206,81 M206,80L207,81 M207,80L208,81 M208,80L209,81 M294,80L295,81 M295,80L296,81 M296,80L297,81 M299,80L300,81 M300,80L301,81 M301,80L302,81 M500,80L501,81 M501,80L502,81 M502,80L503,81 M559,80L560,81 M560,80L561,81 M561,80L562,81 M202,81L203,82 M203,81L204,82 M204,81L205,82 M205,81L206,82 M206,81L207,82 M293,81L294,82 M294,81L295,82 M295,81L296,82 M298,81L299,82 M299,81L300,82 M300,81L301,82 M498,81L499,82 M499,81L500,82 M500,81L501,82 M501,81L502,82 M558,81L559,82 M559,81L560,82 M560,81L561,82 M201,82L202,83 M202,82L203,83 M203,82L204,83 M204,82L205,83 M292,82L293,83 M293,82L294,83 M294,82L295,83 M296,82L297,83 M297,82L298,83 M298,82L299,83 M299,82L300,83 M497,82L498,83 M498,82L499,83 M499,82L500,83 M557,82L558,83 M558,82L559,83 M559,82L560,83 M703,82L704,83 M704,82L705,83 M705,82L706,83 M706,82L707,83 M707,82L708,83 M708,82L709,83 M709,82L710,83 M710,82L711,83 M711,82L712,83 M712,82L713,83 M713,82L714,83 M714,82L715,83 M715,82L716,83 M716,82L717,83 M717,82L718,83 M199,83L200,84 M200,83L201,84 M201,83L202,84 M202,83L203,84 M292,83L293,84 M293,83L294,84 M295,83L296,84 M296,83L297,84 M297,83L298,84 M495,83L496,84 M496,83L497,84 M497,83L498,84 M498,83L499,84 M555,83L556,84 M556,83L557,84 M557,83L558,84 M558,83L559,84 M699,83L700,84 M700,83L701,84 M701,83L702,84 M702,83L703,84 M703,83L704,84 M704,83L705,84 M705,83L706,84 M706,83L707,84 M707,83L708,84 M708,83L709,84 M709,83L710,84 M710,83L711,84 M711,83L712,84 M712,83L713,84 M713,83L714,84 M714,83L715,84 M715,83L716,84 M716,83L717,84 M717,83L718,84 M718,83L719,84 M198,84L199,85 M199,84L200,85 M200,84L201,85 M201,84L202,85 M291,84L292,85 M292,84L293,85 M294,84L295,85 M295,84L296,85 M296,84L297,85 M494,84L495,85 M495,84L496,85 M496,84L497,85 M554,84L555,85 M555,84L556,85 M556,84L557,85 M696,84L697,85 M697,84L698,85 M698,84L699,85 M699,84L700,85 M700,84L701,85 M701,84L702,85 M702,84L703,85 M717,84L718,85 M718,84L719,85 M719,84L720,85 M720,84L721,85 M197,85L198,86 M198,85L199,86 M199,85L200,86 M290,85L291,86 M291,85L292,86 M293,85L294,86 M294,85L295,86 M295,85L296,86 M321,85L322,86 M322,85L323,86 M493,85L494,86 M494,85L495,86 M495,85L496,86 M553,85L554,86 M554,85L555,86 M555,85L556,86 M693,85L694,86 M694,85L695,86 M695,85L696,86 M696,85L697,86 M697,85L698,86 M698,85L699,86 M699,85L700,86 M719,85L720,86 M720,85L721,86 M721,85L722,86 M195,86L196,87 M196,86L197,87 M197,86L198,87 M198,86L199,87 M289,86L290,87 M290,86L291,87 M291,86L292,87 M292,86L293,87 M293,86L294,87 M294,86L295,87 M319,86L320,87 M320,86L321,87 M321,86L322,87 M322,86L323,87 M492,86L493,87 M493,86L494,87 M494,86L495,87 M552,86L553,87 M553,86L554,87 M554,86L555,87 M690,86L691,87 M691,86L692,87 M692,86L693,87 M693,86L694,87 M694,86L695,87 M695,86L696,87 M696,86L697,87 M720,86L721,87 M721,86L722,87 M722,86L723,87 M194,87L195,88 M195,87L196,88 M196,87L197,88 M288,87L289,88 M289,87L290,88 M290,87L291,88 M291,87L292,88 M292,87L293,88 M317,87L318,88 M318,87L319,88 M319,87L320,88 M320,87L321,88 M321,87L322,88 M491,87L492,88 M492,87L493,88 M493,87L494,88 M551,87L552,88 M552,87L553,88 M553,87L554,88 M687,87L688,88 M688,87L689,88 M689,87L690,88 M690,87L691,88 M691,87L692,88 M692,87L693,88 M693,87L694,88 M721,87L722,88 M722,87L723,88 M192,88L193,89 M193,88L194,89 M194,88L195,89 M195,88L196,89 M287,88L288,89 M288,88L289,89 M289,88L290,89 M290,88L291,89 M291,88L292,89 M315,88L316,89 M316,88L317,89 M317,88L318,89 M318,88L319,89 M319,88L320,89 M320,88L321,89 M321,88L322,89 M490,88L491,89 M491,88L492,89 M492,88L493,89 M550,88L551,89 M551,88L552,89 M552,88L553,89 M684,88L685,89 M685,88L686,89 M686,88L687,89 M687,88L688,89 M688,88L689,89 M689,88L690,89 M722,88L723,89 M723,88L724,89 M191,89L192,90 M192,89L193,90 M193,89L194,90 M286,89L287,90 M287,89L288,90 M288,89L289,90 M289,89L290,90 M290,89L291,90 M313,89L314,90 M314,89L315,90 M315,89L316,90 M316,89L317,90 M317,89L318,90 M319,89L320,90 M320,89L321,90 M489,89L490,90 M490,89L491,90 M491,89L492,90 M548,89L549,90 M549,89L550,90 M550,89L551,90 M681,89L682,90 M682,89L683,90 M683,89L684,90 M684,89L685,90 M685,89L686,90 M686,89L687,90 M722,89L723,90 M723,89L724,90 M189,90L190,91 M190,90L191,91 M191,90L192,91 M192,90L193,91 M286,90L287,91 M287,90L288,91 M288,90L289,91 M289,90L290,91 M312,90L313,91 M313,90L314,91 M314,90L315,91 M315,90L316,91 M319,90L320,91 M320,90L321,91 M488,90L489,91 M489,90L490,91 M490,90L491,91 M547,90L548,91 M548,90L549,91 M549,90L550,91 M678,90L679,91 M679,90L680,91 M680,90L681,91 M681,90L682,91 M682,90L683,91 M683,90L684,91 M722,90L723,91 M723,90L724,91 M724,90L725,91 M188,91L189,92 M189,91L190,92 M190,91L191,92 M285,91L286,92 M286,91L287,92 M287,91L288,92 M310,91L311,92 M311,91L312,92 M312,91L313,92 M313,91L314,92 M318,91L319,92 M319,91L320,92 M487,91L488,92 M488,91L489,92 M489,91L490,92 M546,91L547,92 M547,91L548,92 M548,91L549,92 M675,91L676,92 M676,91L677,92 M677,91L678,92 M678,91L679,92 M679,91L680,92 M680,91L681,92 M723,91L724,92 M724,91L725,92 M186,92L187,93 M187,92L188,93 M188,92L189,93 M189,92L190,93 M284,92L285,93 M285,92L286,93 M286,92L287,93 M308,92L309,93 M309,92L310,93 M310,92L311,93 M311,92L312,93 M318,92L319,93 M319,92L320,93 M485,92L486,93 M486,92L487,93 M487,92L488,93 M545,92L546,93 M546,92L547,93 M547,92L548,93 M673,92L674,93 M674,92L675,93 M675,92L676,93 M676,92L677,93 M677,92L678,93 M723,92L724,93 M724,92L725,93 M185,93L186,94 M186,93L187,94 M187,93L188,94 M283,93L284,94 M284,93L285,94 M285,93L286,94 M307,93L308,94 M308,93L309,94 M309,93L310,94 M310,93L311,94 M317,93L318,94 M318,93L319,94 M484,93L485,94 M485,93L486,94 M486,93L487,94 M544,93L545,94 M545,93L546,94 M546,93L547,94 M671,93L672,94 M672,93L673,94 M673,93L674,94 M674,93L675,94 M675,93L676,94 M724,93L725,94 M725,93L726,94 M183,94L184,95 M184,94L185,95 M185,94L186,95 M186,94L187,95 M281,94L282,95 M282,94L283,95 M283,94L284,95 M284,94L285,95 M305,94L306,95 M306,94L307,95 M307,94L308,95 M308,94L309,95 M317,94L318,95 M318,94L319,95 M483,94L484,95 M484,94L485,95 M485,94L486,95 M543,94L544,95 M544,94L545,95 M545,94L546,95 M669,94L670,95 M670,94L671,95 M671,94L672,95 M672,94L673,95 M673,94L674,95 M724,94L725,95 M725,94L726,95 M182,95L183,96 M183,95L184,96 M184,95L185,96 M185,95L186,96 M280,95L281,96 M281,95L282,96 M282,95L283,96 M283,95L284,96 M303,95L304,96 M304,95L305,96 M305,95L306,96 M306,95L307,96 M317,95L318,96 M318,95L319,96 M482,95L483,96 M483,95L484,96 M484,95L485,96 M541,95L542,96 M542,95L543,96 M543,95L544,96 M668,95L669,96 M669,95L670,96 M670,95L671,96 M671,95L672,96 M724,95L725,96 M725,95L726,96 M181,96L182,97 M182,96L183,97 M183,96L184,97 M279,96L280,97 M280,96L281,97 M281,96L282,97 M282,96L283,97 M302,96L303,97 M303,96L304,97 M304,96L305,97 M305,96L306,97 M316,96L317,97 M317,96L318,97 M481,96L482,97 M482,96L483,97 M483,96L484,97 M540,96L541,97 M541,96L542,97 M542,96L543,97 M666,96L667,97 M667,96L668,97 M668,96L669,97 M669,96L670,97 M724,96L725,97 M725,96L726,97 M179,97L180,98 M180,97L181,98 M181,97L182,98 M182,97L183,98 M278,97L279,98 M279,97L280,98 M280,97L281,98 M281,97L282,98 M282,97L283,98 M300,97L301,98 M301,97L302,98 M302,97L303,98 M303,97L304,98 M315,97L316,98 M316,97L317,98 M480,97L481,98 M481,97L482,98 M482,97L483,98 M539,97L540,98 M540,97L541,98 M541,97L542,98 M598,97L599,98 M664,97L665,98 M665,97L666,98 M666,97L667,98 M667,97L668,98 M724,97L725,98 M725,97L726,98 M178,98L179,99 M179,98L180,99 M180,98L181,99 M276,98L277,99 M277,98L278,99 M278,98L279,99 M279,98L280,99 M280,98L281,99 M281,98L282,99 M299,98L300,99 M300,98L301,99 M301,98L302,99 M315,98L316,99 M479,98L480,99 M480,98L481,99 M481,98L482,99 M538,98L539,99 M539,98L540,99 M540,98L541,99 M598,98L599,99 M662,98L663,99 M663,98L664,99 M664,98L665,99 M665,98L666,99 M724,98L725,99 M725,98L726,99 M176,99L177,100 M177,99L178,100 M178,99L179,100 M179,99L180,100 M275,99L276,100 M276,99L277,100 M277,99L278,100 M279,99L280,100 M280,99L281,100 M297,99L298,100 M298,99L299,100 M299,99L300,100 M300,99L301,100 M315,99L316,100 M478,99L479,100 M479,99L480,100 M480,99L481,100 M537,99L538,100 M538,99L539,100 M539,99L540,100 M598,99L599,100 M660,99L661,100 M661,99L662,100 M662,99L663,100 M663,99L664,100 M724,99L725,100 M725,99L726,100 M175,100L176,101 M176,100L177,101 M177,100L178,101 M274,100L275,101 M275,100L276,101 M276,100L277,101 M278,100L279,101 M279,100L280,101 M295,100L296,101 M296,100L297,101 M297,100L298,101 M298,100L299,101 M314,100L315,101 M315,100L316,101 M476,100L477,101 M477,100L478,101 M478,100L479,101 M535,100L536,101 M536,100L537,101 M537,100L538,101 M538,100L539,101 M597,100L598,101 M598,100L599,101 M658,100L659,101 M659,100L660,101 M660,100L661,101 M661,100L662,101 M724,100L725,101 M725,100L726,101 M173,101L174,102 M174,101L175,102 M175,101L176,102 M176,101L177,102 M273,101L274,102 M274,101L275,102 M275,101L276,102 M277,101L278,102 M278,101L279,102 M279,101L280,102 M294,101L295,102 M295,101L296,102 M296,101L297,102 M314,101L315,102 M315,101L316,102 M475,101L476,102 M476,101L477,102 M477,101L478,102 M534,101L535,102 M535,101L536,102 M536,101L537,102 M596,101L597,102 M597,101L598,102 M598,101L599,102 M656,101L657,102 M657,101L658,102 M658,101L659,102 M659,101L660,102 M724,101L725,102 M725,101L726,102 M172,102L173,103 M173,102L174,103 M174,102L175,103 M271,102L272,103 M272,102L273,103 M273,102L274,103 M276,102L277,103 M277,102L278,103 M278,102L279,103 M293,102L294,103 M294,102L295,103 M295,102L296,103 M314,102L315,103 M315,102L316,103 M474,102L475,103 M475,102L476,103 M476,102L477,103 M533,102L534,103 M534,102L535,103 M535,102L536,103 M596,102L597,103 M597,102L598,103 M654,102L655,103 M655,102L656,103 M656,102L657,103 M657,102L658,103 M724,102L725,103 M725,102L726,103 M171,103L172,104 M172,103L173,104 M173,103L174,104 M270,103L271,104 M271,103L272,104 M272,103L273,104 M276,103L277,104 M277,103L278,104 M291,103L292,104 M292,103L293,104 M293,103L294,104 M294,103L295,104 M313,103L314,104 M314,103L315,104 M473,103L474,104 M474,103L475,104 M475,103L476,104 M531,103L532,104 M532,103L533,104 M533,103L534,104 M534,103L535,104 M595,103L596,104 M596,103L597,104 M653,103L654,104 M654,103L655,104 M655,103L656,104 M656,103L657,104 M724,103L725,104 M725,103L726,104 M170,104L171,105 M171,104L172,105 M269,104L270,105 M270,104L271,105 M271,104L272,105 M275,104L276,105 M276,104L277,105 M290,104L291,105 M291,104L292,105 M292,104L293,105 M313,104L314,105 M314,104L315,105 M472,104L473,105 M473,104L474,105 M474,104L475,105 M530,104L531,105 M531,104L532,105 M532,104L533,105 M594,104L595,105 M595,104L596,105 M596,104L597,105 M651,104L652,105 M652,104L653,105 M653,104L654,105 M654,104L655,105 M724,104L725,105 M725,104L726,105 M169,105L170,106 M170,105L171,106 M268,105L269,106 M269,105L270,106 M270,105L271,106 M275,105L276,106 M276,105L277,106 M288,105L289,106 M289,105L290,106 M290,105L291,106 M291,105L292,106 M313,105L314,106 M314,105L315,106 M471,105L472,106 M472,105L473,106 M473,105L474,106 M528,105L529,106 M529,105L530,106 M530,105L531,106 M531,105L532,106 M593,105L594,106 M594,105L595,106 M595,105L596,106 M649,105L650,106 M650,105L651,106 M651,105L652,106 M652,105L653,106 M724,105L725,106 M725,105L726,106 M168,106L169,107 M169,106L170,107 M170,106L171,107 M266,106L267,107 M267,106L268,107 M268,106L269,107 M274,106L275,107 M275,106L276,107 M287,106L288,107 M288,106L289,107 M289,106L290,107 M312,106L313,107 M313,106L314,107 M314,106L315,107 M470,106L471,107 M471,106L472,107 M472,106L473,107 M527,106L528,107 M528,106L529,107 M529,106L530,107 M593,106L594,107 M594,106L595,107 M647,106L648,107 M648,106L649,107 M649,106L650,107 M650,106L651,107 M724,106L725,107 M725,106L726,107 M167,107L168,108 M168,107L169,108 M169,107L170,108 M265,107L266,108 M266,107L267,108 M267,107L268,108 M274,107L275,108 M275,107L276,108 M285,107L286,108 M286,107L287,108 M287,107L288,108 M288,107L289,108 M312,107L313,108 M313,107L314,108 M469,107L470,108 M470,107L471,108 M471,107L472,108 M525,107L526,108 M526,107L527,108 M527,107L528,108 M528,107L529,108 M592,107L593,108 M593,107L594,108 M646,107L647,108 M647,107L648,108 M648,107L649,108 M649,107L650,108 M724,107L725,108 M725,107L726,108 M166,108L167,109 M167,108L168,109 M168,108L169,109 M264,108L265,109 M265,108L266,109 M266,108L267,109 M273,108L274,109 M274,108L275,109 M283,108L284,109 M284,108L285,109 M285,108L286,109 M286,108L287,109 M312,108L313,109 M313,108L314,109 M468,108L469,109 M469,108L470,109 M470,108L471,109 M524,108L525,109 M525,108L526,109 M526,108L527,109 M591,108L592,109 M592,108L593,109 M593,108L594,109 M644,108L645,109 M645,108L646,109 M646,108L647,109 M647,108L648,109 M724,108L725,109 M725,108L726,109 M165,109L166,110 M166,109L167,110 M167,109L168,110 M262,109L263,110 M263,109L264,110 M264,109L265,110 M265,109L266,110 M273,109L274,110 M274,109L275,110 M281,109L282,110 M282,109L283,110 M283,109L284,110 M284,109L285,110 M285,109L286,110 M312,109L313,110 M313,109L314,110 M466,109L467,110 M467,109L468,110 M468,109L469,110 M523,109L524,110 M524,109L525,110 M525,109L526,110 M590,109L591,110 M591,109L592,110 M592,109L593,110 M642,109L643,110 M643,109L644,110 M644,109L645,110 M645,109L646,110 M725,109L726,110 M165,110L166,111 M166,110L167,111 M261,110L262,111 M262,110L263,111 M263,110L264,111 M272,110L273,111 M273,110L274,111 M279,110L280,111 M280,110L281,111 M281,110L282,111 M282,110L283,111 M283,110L284,111 M311,110L312,111 M312,110L313,111 M465,110L466,111 M466,110L467,111 M467,110L468,111 M521,110L522,111 M522,110L523,111 M523,110L524,111 M524,110L525,111 M589,110L590,111 M590,110L591,111 M591,110L592,111 M640,110L641,111 M641,110L642,111 M642,110L643,111 M643,110L644,111 M663,110L664,111 M725,110L726,111 M164,111L165,112 M165,111L166,112 M260,111L261,112 M261,111L262,112 M262,111L263,112 M272,111L273,112 M273,111L274,112 M274,111L275,112 M275,111L276,112 M276,111L277,112 M277,111L278,112 M278,111L279,112 M279,111L280,112 M280,111L281,112 M281,111L282,112 M311,111L312,112 M312,111L313,112 M464,111L465,112 M465,111L466,112 M466,111L467,112 M520,111L521,112 M521,111L522,112 M522,111L523,112 M589,111L590,112 M590,111L591,112 M639,111L640,112 M640,111L641,112 M641,111L642,112 M642,111L643,112 M662,111L663,112 M663,111L664,112 M725,111L726,112 M163,112L164,113 M164,112L165,113 M259,112L260,113 M260,112L261,113 M261,112L262,113 M272,112L273,113 M273,112L274,113 M274,112L275,113 M275,112L276,113 M276,112L277,113 M277,112L278,113 M278,112L279,113 M279,112L280,113 M310,112L311,113 M311,112L312,113 M463,112L464,113 M464,112L465,113 M465,112L466,113 M518,112L519,113 M519,112L520,113 M520,112L521,113 M521,112L522,113 M588,112L589,113 M589,112L590,113 M637,112L638,113 M638,112L639,113 M639,112L640,113 M640,112L641,113 M660,112L661,113 M661,112L662,113 M662,112L663,113 M663,112L664,113 M725,112L726,113 M162,113L163,114 M163,113L164,114 M164,113L165,114 M257,113L258,114 M258,113L259,114 M259,113L260,114 M260,113L261,114 M310,113L311,114 M311,113L312,114 M371,113L372,114 M372,113L373,114 M373,113L374,114 M374,113L375,114 M375,113L376,114 M376,113L377,114 M377,113L378,114 M378,113L379,114 M379,113L380,114 M380,113L381,114 M381,113L382,114 M462,113L463,114 M463,113L464,114 M464,113L465,114 M517,113L518,114 M518,113L519,114 M519,113L520,114 M587,113L588,114 M588,113L589,114 M635,113L636,114 M636,113L637,114 M637,113L638,114 M638,113L639,114 M659,113L660,114 M660,113L661,114 M661,113L662,114 M662,113L663,114 M663,113L664,114 M725,113L726,114 M161,114L162,115 M162,114L163,115 M163,114L164,115 M256,114L257,115 M257,114L258,115 M258,114L259,115 M309,114L310,115 M310,114L311,115 M362,114L363,115 M363,114L364,115 M364,114L365,115 M365,114L366,115 M366,114L367,115 M367,114L368,115 M368,114L369,115 M369,114L370,115 M370,114L371,115 M371,114L372,115 M372,114L373,115 M373,114L374,115 M374,114L375,115 M375,114L376,115 M376,114L377,115 M377,114L378,115 M378,114L379,115 M379,114L380,115 M380,114L381,115 M381,114L382,115 M382,114L383,115 M461,114L462,115 M462,114L463,115 M463,114L464,115 M515,114L516,115 M516,114L517,115 M517,114L518,115 M518,114L519,115 M586,114L587,115 M587,114L588,115 M632,114L633,115 M633,114L634,115 M634,114L635,115 M635,114L636,115 M636,114L637,115 M637,114L638,115 M658,114L659,115 M659,114L660,115 M660,114L661,115 M662,114L663,115 M663,114L664,115 M725,114L726,115 M160,115L161,116 M161,115L162,116 M162,115L163,116 M255,115L256,116 M256,115L257,116 M257,115L258,116 M309,115L310,116 M310,115L311,116 M358,115L359,116 M359,115L360,116 M360,115L361,116 M361,115L362,116 M362,115L363,116 M363,115L364,116 M364,115L365,116 M365,115L366,116 M366,115L367,116 M367,115L368,116 M368,115L369,116 M369,115L370,116 M370,115L371,116 M381,115L382,116 M382,115L383,116 M383,115L384,116 M384,115L385,116 M460,115L461,116 M461,115L462,116 M462,115L463,116 M514,115L515,116 M515,115L516,116 M516,115L517,116 M517,115L518,116 M585,115L586,116 M586,115L587,116 M630,115L631,116 M631,115L632,116 M632,115L633,116 M633,115L634,116 M634,115L635,116 M657,115L658,116 M658,115L659,116 M659,115L660,116 M662,115L663,116 M663,115L664,116 M725,115L726,116 M159,116L160,117 M160,116L161,117 M161,116L162,117 M254,116L255,117 M255,116L256,117 M256,116L257,117 M308,116L309,117 M309,116L310,117 M354,116L355,117 M355,116L356,117 M356,116L357,117 M357,116L358,117 M358,116L359,117 M359,116L360,117 M360,116L361,117 M361,116L362,117 M383,116L384,117 M384,116L385,117 M385,116L386,117 M459,116L460,117 M460,116L461,117 M461,116L462,117 M513,116L514,117 M514,116L515,117 M515,116L516,117 M584,116L585,117 M585,116L586,117 M627,116L628,117 M628,116L629,117 M629,116L630,117 M630,116L631,117 M631,116L632,117 M632,116L633,117 M656,116L657,117 M657,116L658,117 M658,116L659,117 M662,116L663,117 M663,116L664,117 M725,116L726,117 M159,117L160,118 M160,117L161,118 M252,117L253,118 M253,117L254,118 M254,117L255,118 M255,117L256,118 M307,117L308,118 M308,117L309,118 M309,117L310,118 M349,117L350,118 M350,117L351,118 M351,117L352,118 M352,117L353,118 M353,117L354,118 M354,117L355,118 M355,117L356,118 M356,117L357,118 M357,117L358,118 M384,117L385,118 M385,117L386,118 M386,117L387,118 M387,117L388,118 M457,117L458,118 M458,117L459,118 M459,117L460,118 M511,117L512,118 M512,117L513,118 M513,117L514,118 M514,117L515,118 M583,117L584,118 M584,117L585,118 M624,117L625,118 M625,117L626,118 M626,117L627,118 M627,117L628,118 M628,117L629,118 M629,117L630,118 M655,117L656,118 M656,117L657,118 M657,117L658,118 M661,117L662,118 M662,117L663,118 M725,117L726,118 M158,118L159,119 M159,118L160,119 M251,118L252,119 M252,118L253,119 M253,118L254,119 M307,118L308,119 M308,118L309,119 M345,118L346,119 M346,118L347,119 M347,118L348,119 M348,118L349,119 M349,118L350,119 M350,118L351,119 M351,118L352,119 M352,118L353,119 M353,118L354,119 M386,118L387,119 M387,118L388,119 M388,118L389,119 M456,118L457,119 M457,118L458,119 M458,118L459,119 M510,118L511,119 M511,118L512,119 M512,118L513,119 M582,118L583,119 M583,118L584,119 M622,118L623,119 M623,118L624,119 M624,118L625,119 M625,118L626,119 M626,118L627,119 M653,118L654,119 M654,118L655,119 M655,118L656,119 M656,118L657,119 M661,118L662,119 M662,118L663,119 M725,118L726,119 M157,119L158,120 M158,119L159,120 M249,119L250,120 M250,119L251,120 M251,119L252,120 M252,119L253,120 M306,119L307,120 M307,119L308,120 M342,119L343,120 M343,119L344,120 M344,119L345,120 M345,119L346,120 M346,119L347,120 M347,119L348,120 M348,119L349,120 M349,119L350,120 M388,119L389,120 M389,119L390,120 M455,119L456,120 M456,119L457,120 M457,119L458,120 M508,119L509,120 M509,119L510,120 M510,119L511,120 M511,119L512,120 M581,119L582,120 M582,119L583,120 M621,119L622,120 M622,119L623,120 M623,119L624,120 M624,119L625,120 M651,119L652,120 M652,119L653,120 M653,119L654,120 M654,119L655,120 M661,119L662,120 M662,119L663,120 M725,119L726,120 M156,120L157,121 M157,120L158,121 M158,120L159,121 M248,120L249,121 M249,120L250,121 M250,120L251,121 M251,120L252,121 M306,120L307,121 M307,120L308,121 M340,120L341,121 M341,120L342,121 M342,120L343,121 M343,120L344,121 M344,120L345,121 M388,120L389,121 M389,120L390,121 M454,120L455,121 M455,120L456,121 M456,120L457,121 M507,120L508,121 M508,120L509,121 M509,120L510,121 M580,120L581,121 M581,120L582,121 M621,120L622,121 M622,120L623,121 M623,120L624,121 M624,120L625,121 M625,120L626,121 M649,120L650,121 M650,120L651,121 M651,120L652,121 M652,120L653,121 M653,120L654,121 M660,120L661,121 M661,120L662,121 M725,120L726,121 M155,121L156,122 M156,121L157,122 M157,121L158,122 M247,121L248,122 M248,121L249,122 M249,121L250,122 M305,121L306,122 M306,121L307,122 M338,121L339,122 M339,121L340,122 M340,121L341,122 M341,121L342,122 M389,121L390,122 M390,121L391,122 M453,121L454,122 M454,121L455,122 M455,121L456,122 M505,121L506,122 M506,121L507,122 M507,121L508,122 M508,121L509,122 M579,121L580,122 M580,121L581,122 M624,121L625,122 M625,121L626,122 M647,121L648,122 M648,121L649,122 M649,121L650,122 M650,121L651,122 M651,121L652,122 M660,121L661,122 M661,121L662,122 M725,121L726,122 M154,122L155,123 M155,122L156,123 M156,122L157,123 M245,122L246,123 M246,122L247,123 M247,122L248,123 M248,122L249,123 M304,122L305,123 M305,122L306,123 M306,122L307,123 M335,122L336,123 M336,122L337,123 M337,122L338,123 M338,122L339,123 M339,122L340,123 M389,122L390,123 M390,122L391,123 M452,122L453,123 M453,122L454,123 M454,122L455,123 M503,122L504,123 M504,122L505,123 M505,122L506,123 M506,122L507,123 M578,122L579,123 M579,122L580,123 M645,122L646,123 M646,122L647,123 M647,122L648,123 M648,122L649,123 M649,122L650,123 M660,122L661,123 M661,122L662,123 M725,122L726,123 M153,123L154,124 M154,123L155,124 M155,123L156,124 M244,123L245,124 M245,123L246,124 M246,123L247,124 M304,123L305,124 M305,123L306,124 M333,123L334,124 M334,123L335,124 M335,123L336,124 M336,123L337,124 M337,123L338,124 M389,123L390,124 M390,123L391,124 M391,123L392,124 M451,123L452,124 M452,123L453,124 M453,123L454,124 M502,123L503,124 M503,123L504,124 M504,123L505,124 M577,123L578,124 M578,123L579,124 M643,123L644,124 M644,123L645,124 M645,123L646,124 M646,123L647,124 M647,123L648,124 M659,123L660,124 M660,123L661,124 M725,123L726,124 M153,124L154,125 M154,124L155,125 M242,124L243,125 M243,124L244,125 M244,124L245,125 M245,124L246,125 M303,124L304,125 M304,124L305,125 M331,124L332,125 M332,124L333,125 M333,124L334,125 M334,124L335,125 M335,124L336,125 M390,124L391,125 M391,124L392,125 M450,124L451,125 M451,124L452,125 M452,124L453,125 M500,124L501,125 M501,124L502,125 M502,124L503,125 M503,124L504,125 M576,124L577,125 M577,124L578,125 M641,124L642,125 M642,124L643,125 M643,124L644,125 M644,124L645,125 M645,124L646,125 M659,124L660,125 M660,124L661,125 M724,124L725,125 M725,124L726,125 M152,125L153,126 M153,125L154,126 M241,125L242,126 M242,125L243,126 M243,125L244,126 M302,125L303,126 M303,125L304,126 M304,125L305,126 M329,125L330,126 M330,125L331,126 M331,125L332,126 M332,125L333,126 M333,125L334,126 M390,125L391,126 M391,125L392,126 M392,125L393,126 M448,125L449,126 M449,125L450,126 M450,125L451,126 M498,125L499,126 M499,125L500,126 M500,125L501,126 M501,125L502,126 M574,125L575,126 M575,125L576,126 M576,125L577,126 M639,125L640,126 M640,125L641,126 M641,125L642,126 M642,125L643,126 M643,125L644,126 M658,125L659,126 M659,125L660,126 M724,125L725,126 M725,125L726,126 M151,126L152,127 M152,126L153,127 M153,126L154,127 M239,126L240,127 M240,126L241,127 M241,126L242,127 M242,126L243,127 M302,126L303,127 M303,126L304,127 M326,126L327,127 M327,126L328,127 M328,126L329,127 M329,126L330,127 M330,126L331,127 M391,126L392,127 M392,126L393,127 M448,126L449,127 M449,126L450,127 M496,126L497,127 M497,126L498,127 M498,126L499,127 M499,126L500,127 M573,126L574,127 M574,126L575,127 M575,126L576,127 M637,126L638,127 M638,126L639,127 M639,126L640,127 M640,126L641,127 M641,126L642,127 M658,126L659,127 M659,126L660,127 M724,126L725,127 M725,126L726,127 M151,127L152,128 M152,127L153,128 M238,127L239,128 M239,127L240,128 M240,127L241,128 M301,127L302,128 M302,127L303,128 M303,127L304,128 M324,127L325,128 M325,127L326,128 M326,127L327,128 M327,127L328,128 M328,127L329,128 M391,127L392,128 M392,127L393,128 M447,127L448,128 M448,127L449,128 M495,127L496,128 M496,127L497,128 M497,127L498,128 M498,127L499,128 M571,127L572,128 M572,127L573,128 M573,127L574,128 M574,127L575,128 M635,127L636,128 M636,127L637,128 M637,127L638,128 M638,127L639,128 M657,127L658,128 M658,127L659,128 M723,127L724,128 M724,127L725,128 M150,128L151,129 M151,128L152,129 M236,128L237,129 M237,128L238,129 M238,128L239,129 M239,128L240,129 M301,128L302,129 M302,128L303,129 M322,128L323,129 M323,128L324,129 M324,128L325,129 M325,128L326,129 M326,128L327,129 M392,128L393,129 M393,128L394,129 M446,128L447,129 M447,128L448,129 M493,128L494,129 M494,128L495,129 M495,128L496,129 M496,128L497,129 M569,128L570,129 M570,128L571,129 M571,128L572,129 M572,128L573,129 M632,128L633,129 M633,128L634,129 M634,128L635,129 M635,128L636,129 M636,128L637,129 M657,128L658,129 M658,128L659,129 M723,128L724,129 M724,128L725,129 M150,129L151,130 M151,129L152,130 M235,129L236,130 M236,129L237,130 M237,129L238,130 M300,129L301,130 M301,129L302,130 M320,129L321,130 M321,129L322,130 M322,129L323,130 M323,129L324,130 M324,129L325,130 M392,129L393,130 M393,129L394,130 M445,129L446,130 M446,129L447,130 M447,129L448,130 M491,129L492,130 M492,129L493,130 M493,129L494,130 M494,129L495,130 M568,129L569,130 M569,129L570,130 M570,129L571,130 M571,129L572,130 M630,129L631,130 M631,129L632,130 M632,129L633,130 M633,129L634,130 M634,129L635,130 M656,129L657,130 M657,129L658,130 M658,129L659,130 M723,129L724,130 M724,129L725,130 M149,130L150,131 M150,130L151,131 M233,130L234,131 M234,130L235,131 M235,130L236,131 M236,130L237,131 M299,130L300,131 M300,130L301,131 M301,130L302,131 M317,130L318,131 M318,130L319,131 M319,130L320,131 M320,130L321,131 M321,130L322,131 M393,130L394,131 M394,130L395,131 M444,130L445,131 M445,130L446,131 M446,130L447,131 M490,130L491,131 M491,130L492,131 M492,130L493,131 M493,130L494,131 M566,130L567,131 M567,130L568,131 M568,130L569,131 M569,130L570,131 M628,130L629,131 M629,130L630,131 M630,130L631,131 M631,130L632,131 M632,130L633,131 M656,130L657,131 M657,130L658,131 M723,130L724,131 M148,131L149,132 M149,131L150,132 M150,131L151,132 M231,131L232,132 M232,131L233,132 M233,131L234,132 M234,131L235,132 M299,131L300,132 M300,131L301,132 M315,131L316,132 M316,131L317,132 M317,131L318,132 M318,131L319,132 M319,131L320,132 M393,131L394,132 M394,131L395,132 M443,131L444,132 M444,131L445,132 M445,131L446,132 M488,131L489,132 M489,131L490,132 M490,131L491,132 M491,131L492,132 M564,131L565,132 M565,131L566,132 M566,131L567,132 M567,131L568,132 M625,131L626,132 M626,131L627,132 M627,131L628,132 M628,131L629,132 M629,131L630,132 M630,131L631,132 M655,131L656,132 M656,131L657,132 M657,131L658,132 M723,131L724,132 M148,132L149,133 M149,132L150,133 M230,132L231,133 M231,132L232,133 M232,132L233,133 M233,132L234,133 M298,132L299,133 M299,132L300,133 M300,132L301,133 M313,132L314,133 M314,132L315,133 M315,132L316,133 M316,132L317,133 M317,132L318,133 M394,132L395,133 M395,132L396,133 M442,132L443,133 M443,132L444,133 M444,132L445,133 M486,132L487,133 M487,132L488,133 M488,132L489,133 M489,132L490,133 M562,132L563,133 M563,132L564,133 M564,132L565,133 M565,132L566,133 M566,132L567,133 M623,132L624,133 M624,132L625,133 M625,132L626,133 M626,132L627,133 M627,132L628,133 M655,132L656,133 M656,132L657,133 M723,132L724,133 M147,133L148,134 M148,133L149,134 M228,133L229,134 M229,133L230,134 M230,133L231,134 M231,133L232,134 M298,133L299,134 M299,133L300,134 M312,133L313,134 M313,133L314,134 M314,133L315,134 M315,133L316,134 M394,133L395,134 M395,133L396,134 M441,133L442,134 M442,133L443,134 M443,133L444,134 M485,133L486,134 M486,133L487,134 M487,133L488,134 M488,133L489,134 M560,133L561,134 M561,133L562,134 M562,133L563,134 M563,133L564,134 M564,133L565,134 M620,133L621,134 M621,133L622,134 M622,133L623,134 M623,133L624,134 M624,133L625,134 M625,133L626,134 M654,133L655,134 M655,133L656,134 M656,133L657,134 M723,133L724,134 M146,134L147,135 M147,134L148,135 M148,134L149,135 M226,134L227,135 M227,134L228,135 M228,134L229,135 M229,134L230,135 M297,134L298,135 M298,134L299,135 M310,134L311,135 M311,134L312,135 M312,134L313,135 M313,134L314,135 M394,134L395,135 M395,134L396,135 M396,134L397,135 M440,134L441,135 M441,134L442,135 M442,134L443,135 M483,134L484,135 M484,134L485,135 M485,134L486,135 M486,134L487,135 M558,134L559,135 M559,134L560,135 M560,134L561,135 M561,134L562,135 M562,134L563,135 M618,134L619,135 M619,134L620,135 M620,134L621,135 M621,134L622,135 M622,134L623,135 M654,134L655,135 M655,134L656,135 M723,134L724,135 M146,135L147,136 M147,135L148,136 M224,135L225,136 M225,135L226,136 M226,135L227,136 M227,135L228,136 M296,135L297,136 M297,135L298,136 M298,135L299,136 M308,135L309,136 M309,135L310,136 M310,135L311,136 M311,135L312,136 M395,135L396,136 M396,135L397,136 M439,135L440,136 M440,135L441,136 M441,135L442,136 M481,135L482,136 M482,135L483,136 M483,135L484,136 M484,135L485,136 M556,135L557,136 M557,135L558,136 M558,135L559,136 M559,135L560,136 M560,135L561,136 M615,135L616,136 M616,135L617,136 M617,135L618,136 M618,135L619,136 M619,135L620,136 M620,135L621,136 M654,135L655,136 M655,135L656,136 M723,135L724,136 M145,136L146,137 M146,136L147,137 M147,136L148,137 M223,136L224,137 M224,136L225,137 M225,136L226,137 M226,136L227,137 M295,136L296,137 M296,136L297,137 M297,136L298,137 M307,136L308,137 M308,136L309,137 M309,136L310,137 M310,136L311,137 M395,136L396,137 M396,136L397,137 M397,136L398,137 M438,136L439,137 M439,136L440,137 M440,136L441,137 M480,136L481,137 M481,136L482,137 M482,136L483,137 M483,136L484,137 M554,136L555,137 M555,136L556,137 M556,136L557,137 M557,136L558,137 M558,136L559,137 M613,136L614,137 M614,136L615,137 M615,136L616,137 M616,136L617,137 M617,136L618,137 M653,136L654,137 M654,136L655,137 M722,136L723,137 M723,136L724,137 M145,137L146,138 M146,137L147,138 M221,137L222,138 M222,137L223,138 M223,137L224,138 M224,137L225,138 M295,137L296,138 M296,137L297,138 M305,137L306,138 M306,137L307,138 M307,137L308,138 M308,137L309,138 M396,137L397,138 M397,137L398,138 M437,137L438,138 M438,137L439,138 M439,137L440,138 M475,137L476,138 M476,137L477,138 M477,137L478,138 M478,137L479,138 M479,137L480,138 M480,137L481,138 M481,137L482,138 M482,137L483,138 M483,137L484,138 M484,137L485,138 M485,137L486,138 M486,137L487,138 M487,137L488,138 M488,137L489,138 M489,137L490,138 M490,137L491,138 M491,137L492,138 M492,137L493,138 M493,137L494,138 M552,137L553,138 M553,137L554,138 M554,137L555,138 M555,137L556,138 M556,137L557,138 M610,137L611,138 M611,137L612,138 M612,137L613,138 M613,137L614,138 M614,137L615,138 M615,137L616,138 M653,137L654,138 M654,137L655,138 M670,137L671,138 M671,137L672,138 M720,137L721,138 M721,137L722,138 M722,137L723,138 M144,138L145,139 M145,138L146,139 M219,138L220,139 M220,138L221,139 M221,138L222,139 M222,138L223,139 M294,138L295,139 M295,138L296,139 M303,138L304,139 M304,138L305,139 M305,138L306,139 M306,138L307,139 M396,138L397,139 M397,138L398,139 M436,138L437,139 M437,138L438,139 M438,138L439,139 M471,138L472,139 M472,138L473,139 M473,138L474,139 M474,138L475,139 M475,138L476,139 M476,138L477,139 M477,138L478,139 M478,138L479,139 M479,138L480,139 M480,138L481,139 M481,138L482,139 M482,138L483,139 M483,138L484,139 M484,138L485,139 M485,138L486,139 M486,138L487,139 M487,138L488,139 M488,138L489,139 M489,138L490,139 M490,138L491,139 M491,138L492,139 M492,138L493,139 M493,138L494,139 M494,138L495,139 M549,138L550,139 M550,138L551,139 M551,138L552,139 M552,138L553,139 M553,138L554,139 M554,138L555,139 M607,138L608,139 M608,138L609,139 M609,138L610,139 M610,138L611,139 M611,138L612,139 M612,138L613,139 M652,138L653,139 M653,138L654,139 M669,138L670,139 M670,138L671,139 M671,138L672,139 M719,138L720,139 M720,138L721,139 M721,138L722,139 M144,139L145,140 M145,139L146,140 M217,139L218,140 M218,139L219,140 M219,139L220,140 M220,139L221,140 M293,139L294,140 M294,139L295,140 M295,139L296,140 M302,139L303,140 M303,139L304,140 M304,139L305,140 M305,139L306,140 M397,139L398,140 M398,139L399,140 M436,139L437,140 M437,139L438,140 M468,139L469,140 M469,139L470,140 M470,139L471,140 M471,139L472,140 M472,139L473,140 M473,139L474,140 M474,139L475,140 M475,139L476,140 M476,139L477,140 M477,139L478,140 M478,139L479,140 M493,139L494,140 M494,139L495,140 M495,139L496,140 M496,139L497,140 M546,139L547,140 M547,139L548,140 M548,139L549,140 M549,139L550,140 M550,139L551,140 M551,139L552,140 M604,139L605,140 M605,139L606,140 M606,139L607,140 M607,139L608,140 M608,139L609,140 M609,139L610,140 M610,139L611,140 M652,139L653,140 M653,139L654,140 M667,139L668,140 M668,139L669,140 M669,139L670,140 M670,139L671,140 M671,139L672,140 M672,139L673,140 M717,139L718,140 M718,139L719,140 M719,139L720,140 M720,139L721,140 M143,140L144,141 M144,140L145,141 M145,140L146,141 M215,140L216,141 M216,140L217,141 M217,140L218,141 M218,140L219,141 M292,140L293,141 M293,140L294,141 M294,140L295,141 M300,140L301,141 M301,140L302,141 M302,140L303,141 M303,140L304,141 M397,140L398,141 M398,140L399,141 M435,140L436,141 M436,140L437,141 M465,140L466,141 M466,140L467,141 M467,140L468,141 M468,140L469,141 M469,140L470,141 M470,140L471,141 M472,140L473,141 M473,140L474,141 M474,140L475,141 M475,140L476,141 M476,140L477,141 M495,140L496,141 M496,140L497,141 M497,140L498,141 M498,140L499,141 M543,140L544,141 M544,140L545,141 M545,140L546,141 M546,140L547,141 M547,140L548,141 M548,140L549,141 M600,140L601,141 M601,140L602,141 M602,140L603,141 M603,140L604,141 M604,140L605,141 M605,140L606,141 M606,140L607,141 M607,140L608,141 M651,140L652,141 M652,140L653,141 M653,140L654,141 M666,140L667,141 M667,140L668,141 M668,140L669,141 M671,140L672,141 M672,140L673,141 M716,140L717,141 M717,140L718,141 M718,140L719,141 M143,141L144,142 M144,141L145,142 M214,141L215,142 M215,141L216,142 M216,141L217,142 M217,141L218,142 M292,141L293,142 M293,141L294,142 M298,141L299,142 M299,141L300,142 M300,141L301,142 M301,141L302,142 M398,141L399,142 M399,141L400,142 M434,141L435,142 M435,141L436,142 M464,141L465,142 M465,141L466,142 M466,141L467,142 M467,141L468,142 M470,141L471,142 M471,141L472,142 M472,141L473,142 M473,141L474,142 M497,141L498,142 M498,141L499,142 M499,141L500,142 M500,141L501,142 M541,141L542,142 M542,141L543,142 M543,141L544,142 M544,141L545,142 M545,141L546,142 M596,141L597,142 M597,141L598,142 M598,141L599,142 M599,141L600,142 M600,141L601,142 M601,141L602,142 M602,141L603,142 M603,141L604,142 M651,141L652,142 M652,141L653,142 M665,141L666,142 M666,141L667,142 M667,141L668,142 M672,141L673,142 M673,141L674,142 M714,141L715,142 M715,141L716,142 M716,141L717,142 M717,141L718,142 M143,142L144,143 M144,142L145,143 M212,142L213,143 M213,142L214,143 M214,142L215,143 M215,142L216,143 M291,142L292,143 M292,142L293,143 M293,142L294,143 M297,142L298,143 M298,142L299,143 M299,142L300,143 M300,142L301,143 M398,142L399,143 M399,142L400,143 M433,142L434,143 M434,142L435,143 M435,142L436,143 M462,142L463,143 M463,142L464,143 M464,142L465,143 M465,142L466,143 M468,142L469,143 M469,142L470,143 M470,142L471,143 M471,142L472,143 M498,142L499,143 M499,142L500,143 M500,142L501,143 M501,142L502,143 M502,142L503,143 M503,142L504,143 M537,142L538,143 M538,142L539,143 M539,142L540,143 M540,142L541,143 M541,142L542,143 M542,142L543,143 M543,142L544,143 M591,142L592,143 M592,142L593,143 M593,142L594,143 M594,142L595,143 M595,142L596,143 M596,142L597,143 M597,142L598,143 M598,142L599,143 M599,142L600,143 M651,142L652,143 M652,142L653,143 M664,142L665,143 M665,142L666,143 M672,142L673,143 M673,142L674,143 M713,142L714,143 M714,142L715,143 M715,142L716,143 M142,143L143,144 M143,143L144,144 M210,143L211,144 M211,143L212,144 M212,143L213,144 M213,143L214,144 M290,143L291,144 M291,143L292,144 M292,143L293,144 M295,143L296,144 M296,143L297,144 M297,143L298,144 M298,143L299,144 M398,143L399,144 M399,143L400,144 M432,143L433,144 M433,143L434,144 M434,143L435,144 M461,143L462,144 M462,143L463,144 M463,143L464,144 M466,143L467,144 M467,143L468,144 M468,143L469,144 M469,143L470,144 M501,143L502,144 M502,143L503,144 M503,143L504,144 M504,143L505,144 M505,143L506,144 M506,143L507,144 M507,143L508,144 M508,143L509,144 M534,143L535,144 M535,143L536,144 M536,143L537,144 M537,143L538,144 M538,143L539,144 M539,143L540,144 M540,143L541,144 M587,143L588,144 M588,143L589,144 M589,143L590,144 M590,143L591,144 M591,143L592,144 M592,143L593,144 M593,143L594,144 M594,143L595,144 M595,143L596,144 M650,143L651,144 M651,143L652,144 M663,143L664,144 M664,143L665,144 M665,143L666,144 M672,143L673,144 M673,143L674,144 M712,143L713,144 M713,143L714,144 M714,143L715,144 M142,144L143,145 M143,144L144,145 M208,144L209,145 M209,144L210,145 M210,144L211,145 M211,144L212,145 M290,144L291,145 M291,144L292,145 M293,144L294,145 M294,144L295,145 M295,144L296,145 M296,144L297,145 M399,144L400,145 M400,144L401,145 M431,144L432,145 M432,144L433,145 M433,144L434,145 M459,144L460,145 M460,144L461,145 M461,144L462,145 M462,144L463,145 M464,144L465,145 M465,144L466,145 M466,144L467,145 M467,144L468,145 M503,144L504,145 M504,144L505,145 M505,144L506,145 M506,144L507,145 M507,144L508,145 M508,144L509,145 M509,144L510,145 M510,144L511,145 M511,144L512,145 M512,144L513,145 M513,144L514,145 M514,144L515,145 M515,144L516,145 M516,144L517,145 M517,144L518,145 M531,144L532,145 M532,144L533,145 M533,144L534,145 M534,144L535,145 M535,144L536,145 M536,144L537,145 M537,144L538,145 M582,144L583,145 M583,144L584,145 M584,144L585,145 M585,144L586,145 M586,144L587,145 M587,144L588,145 M588,144L589,145 M589,144L590,145 M590,144L591,145 M650,144L651,145 M651,144L652,145 M662,144L663,145 M663,144L664,145 M664,144L665,145 M673,144L674,145 M710,144L711,145 M711,144L712,145 M712,144L713,145 M713,144L714,145 M142,145L143,146 M143,145L144,146 M206,145L207,146 M207,145L208,146 M208,145L209,146 M209,145L210,146 M210,145L211,146 M289,145L290,146 M290,145L291,146 M292,145L293,146 M293,145L294,146 M294,145L295,146 M295,145L296,146 M399,145L400,146 M400,145L401,146 M430,145L431,146 M431,145L432,146 M432,145L433,146 M457,145L458,146 M458,145L459,146 M459,145L460,146 M460,145L461,146 M462,145L463,146 M463,145L464,146 M464,145L465,146 M465,145L466,146 M509,145L510,146 M510,145L511,146 M511,145L512,146 M512,145L513,146 M513,145L514,146 M514,145L515,146 M515,145L516,146 M516,145L517,146 M517,145L518,146 M518,145L519,146 M519,145L520,146 M520,145L521,146 M521,145L522,146 M522,145L523,146 M523,145L524,146 M524,145L525,146 M525,145L526,146 M527,145L528,146 M528,145L529,146 M529,145L530,146 M530,145L531,146 M531,145L532,146 M532,145L533,146 M533,145L534,146 M572,145L573,146 M573,145L574,146 M574,145L575,146 M575,145L576,146 M576,145L577,146 M577,145L578,146 M578,145L579,146 M579,145L580,146 M580,145L581,146 M581,145L582,146 M582,145L583,146 M583,145L584,146 M584,145L585,146 M585,145L586,146 M586,145L587,146 M650,145L651,146 M651,145L652,146 M661,145L662,146 M662,145L663,146 M663,145L664,146 M673,145L674,146 M709,145L710,146 M710,145L711,146 M711,145L712,146 M141,146L142,147 M142,146L143,147 M205,146L206,147 M206,146L207,147 M207,146L208,147 M208,146L209,147 M288,146L289,147 M289,146L290,147 M290,146L291,147 M291,146L292,147 M292,146L293,147 M293,146L294,147 M399,146L400,147 M400,146L401,147 M429,146L430,147 M430,146L431,147 M431,146L432,147 M456,146L457,147 M457,146L458,147 M458,146L459,147 M459,146L460,147 M460,146L461,147 M461,146L462,147 M462,146L463,147 M463,146L464,147 M517,146L518,147 M518,146L519,147 M519,146L520,147 M520,146L521,147 M521,146L522,147 M522,146L523,147 M523,146L524,147 M524,146L525,147 M525,146L526,147 M526,146L527,147 M527,146L528,147 M528,146L529,147 M529,146L530,147 M530,146L531,147 M531,146L532,147 M532,146L533,147 M533,146L534,147 M534,146L535,147 M535,146L536,147 M536,146L537,147 M537,146L538,147 M538,146L539,147 M539,146L540,147 M540,146L541,147 M541,146L542,147 M542,146L543,147 M543,146L544,147 M544,146L545,147 M545,146L546,147 M546,146L547,147 M547,146L548,147 M548,146L549,147 M549,146L550,147 M550,146L551,147 M551,146L552,147 M552,146L553,147 M553,146L554,147 M554,146L555,147 M555,146L556,147 M556,146L557,147 M557,146L558,147 M558,146L559,147 M559,146L560,147 M560,146L561,147 M561,146L562,147 M562,146L563,147 M563,146L564,147 M564,146L565,147 M565,146L566,147 M566,146L567,147 M567,146L568,147 M568,146L569,147 M569,146L570,147 M570,146L571,147 M571,146L572,147 M572,146L573,147 M573,146L574,147 M574,146L575,147 M575,146L576,147 M576,146L577,147 M577,146L578,147 M578,146L579,147 M579,146L580,147 M580,146L581,147 M581,146L582,147 M582,146L583,147 M649,146L650,147 M650,146L651,147 M660,146L661,147 M661,146L662,147 M662,146L663,147 M673,146L674,147 M707,146L708,147 M708,146L709,147 M709,146L710,147 M710,146L711,147 M141,147L142,148 M142,147L143,148 M203,147L204,148 M204,147L205,148 M205,147L206,148 M206,147L207,148 M287,147L288,148 M288,147L289,148 M289,147L290,148 M290,147L291,148 M291,147L292,148 M400,147L401,148 M401,147L402,148 M428,147L429,148 M429,147L430,148 M430,147L431,148 M455,147L456,148 M456,147L457,148 M457,147L458,148 M458,147L459,148 M459,147L460,148 M460,147L461,148 M461,147L462,148 M521,147L522,148 M522,147L523,148 M523,147L524,148 M524,147L525,148 M525,147L526,148 M526,147L527,148 M527,147L528,148 M528,147L529,148 M529,147L530,148 M530,147L531,148 M531,147L532,148 M532,147L533,148 M533,147L534,148 M534,147L535,148 M535,147L536,148 M536,147L537,148 M537,147L538,148 M538,147L539,148 M539,147L540,148 M540,147L541,148 M541,147L542,148 M542,147L543,148 M543,147L544,148 M544,147L545,148 M545,147L546,148 M546,147L547,148 M547,147L548,148 M548,147L549,148 M549,147L550,148 M550,147L551,148 M551,147L552,148 M552,147L553,148 M553,147L554,148 M554,147L555,148 M555,147L556,148 M556,147L557,148 M557,147L558,148 M558,147L559,148 M559,147L560,148 M560,147L561,148 M561,147L562,148 M562,147L563,148 M563,147L564,148 M564,147L565,148 M565,147L566,148 M566,147L567,148 M567,147L568,148 M568,147L569,148 M569,147L570,148 M570,147L571,148 M571,147L572,148 M649,147L650,148 M650,147L651,148 M659,147L660,148 M660,147L661,148 M661,147L662,148 M673,147L674,148 M706,147L707,148 M707,147L708,148 M708,147L709,148 M140,148L141,149 M141,148L142,149 M142,148L143,149 M201,148L202,149 M202,148L203,149 M203,148L204,149 M204,148L205,149 M287,148L288,149 M288,148L289,149 M289,148L290,149 M290,148L291,149 M400,148L401,149 M401,148L402,149 M427,148L428,149 M428,148L429,149 M429,148L430,149 M454,148L455,149 M455,148L456,149 M456,148L457,149 M457,148L458,149 M458,148L459,149 M459,148L460,149 M518,148L519,149 M519,148L520,149 M520,148L521,149 M521,148L522,149 M522,148L523,149 M523,148L524,149 M648,148L649,149 M649,148L650,149 M650,148L651,149 M659,148L660,149 M660,148L661,149 M673,148L674,149 M705,148L706,149 M706,148L707,149 M707,148L708,149 M140,149L141,150 M141,149L142,150 M199,149L200,150 M200,149L201,150 M201,149L202,150 M202,149L203,150 M285,149L286,150 M286,149L287,150 M287,149L288,150 M288,149L289,150 M400,149L401,150 M401,149L402,150 M426,149L427,150 M427,149L428,150 M428,149L429,150 M453,149L454,150 M454,149L455,150 M455,149L456,150 M456,149L457,150 M457,149L458,150 M515,149L516,150 M516,149L517,150 M517,149L518,150 M518,149L519,150 M519,149L520,150 M520,149L521,150 M648,149L649,150 M649,149L650,150 M658,149L659,150 M659,149L660,150 M673,149L674,150 M704,149L705,150 M705,149L706,150 M140,150L141,151 M141,150L142,151 M198,150L199,151 M199,150L200,151 M200,150L201,151 M201,150L202,151 M284,150L285,151 M285,150L286,151 M286,150L287,151 M287,150L288,151 M401,150L402,151 M402,150L403,151 M425,150L426,151 M426,150L427,151 M427,150L428,151 M451,150L452,151 M452,150L453,151 M453,150L454,151 M454,150L455,151 M455,150L456,151 M512,150L513,151 M513,150L514,151 M514,150L515,151 M515,150L516,151 M516,150L517,151 M517,150L518,151 M648,150L649,151 M649,150L650,151 M657,150L658,151 M658,150L659,151 M659,150L660,151 M673,150L674,151 M674,150L675,151 M703,150L704,151 M704,150L705,151 M139,151L140,152 M140,151L141,152 M196,151L197,152 M197,151L198,152 M198,151L199,152 M199,151L200,152 M282,151L283,152 M283,151L284,152 M284,151L285,152 M285,151L286,152 M286,151L287,152 M401,151L402,152 M402,151L403,152 M424,151L425,152 M425,151L426,152 M426,151L427,152 M449,151L450,152 M450,151L451,152 M451,151L452,152 M452,151L453,152 M453,151L454,152 M509,151L510,152 M510,151L511,152 M511,151L512,152 M512,151L513,152 M513,151L514,152 M514,151L515,152 M647,151L648,152 M648,151L649,152 M657,151L658,152 M658,151L659,152 M673,151L674,152 M674,151L675,152 M702,151L703,152 M703,151L704,152 M139,152L140,153 M140,152L141,153 M194,152L195,153 M195,152L196,153 M196,152L197,153 M197,152L198,153 M280,152L281,153 M281,152L282,153 M282,152L283,153 M283,152L284,153 M284,152L285,153 M285,152L286,153 M401,152L402,153 M402,152L403,153 M424,152L425,153 M425,152L426,153 M447,152L448,153 M448,152L449,153 M449,152L450,153 M450,152L451,153 M451,152L452,153 M452,152L453,153 M505,152L506,153 M506,152L507,153 M507,152L508,153 M508,152L509,153 M509,152L510,153 M510,152L511,153 M511,152L512,153 M647,152L648,153 M648,152L649,153 M656,152L657,153 M657,152L658,153 M673,152L674,153 M674,152L675,153 M700,152L701,153 M701,152L702,153 M702,152L703,153 M138,153L139,154 M139,153L140,154 M140,153L141,154 M192,153L193,154 M193,153L194,154 M194,153L195,154 M195,153L196,154 M279,153L280,154 M280,153L281,154 M281,153L282,154 M283,153L284,154 M284,153L285,154 M285,153L286,154 M402,153L403,154 M403,153L404,154 M423,153L424,154 M424,153L425,154 M444,153L445,154 M445,153L446,154 M446,153L447,154 M447,153L448,154 M448,153L449,154 M450,153L451,154 M451,153L452,154 M500,153L501,154 M501,153L502,154 M502,153L503,154 M503,153L504,154 M504,153L505,154 M505,153L506,154 M506,153L507,154 M507,153L508,154 M508,153L509,154 M647,153L648,154 M648,153L649,154 M655,153L656,154 M656,153L657,154 M657,153L658,154 M673,153L674,154 M674,153L675,154 M698,153L699,154 M699,153L700,154 M700,153L701,154 M701,153L702,154 M138,154L139,155 M139,154L140,155 M190,154L191,155 M191,154L192,155 M192,154L193,155 M193,154L194,155 M278,154L279,155 M279,154L280,155 M280,154L281,155 M282,154L283,155 M283,154L284,155 M284,154L285,155 M402,154L403,155 M403,154L404,155 M422,154L423,155 M423,154L424,155 M442,154L443,155 M443,154L444,155 M444,154L445,155 M445,154L446,155 M446,154L447,155 M450,154L451,155 M451,154L452,155 M495,154L496,155 M496,154L497,155 M497,154L498,155 M498,154L499,155 M499,154L500,155 M500,154L501,155 M501,154L502,155 M502,154L503,155 M503,154L504,155 M504,154L505,155 M646,154L647,155 M647,154L648,155 M654,154L655,155 M655,154L656,155 M656,154L657,155 M673,154L674,155 M674,154L675,155 M682,154L683,155 M683,154L684,155 M684,154L685,155 M685,154L686,155 M686,154L687,155 M687,154L688,155 M688,154L689,155 M689,154L690,155 M690,154L691,155 M691,154L692,155 M692,154L693,155 M693,154L694,155 M694,154L695,155 M695,154L696,155 M696,154L697,155 M697,154L698,155 M698,154L699,155 M699,154L700,155 M700,154L701,155 M138,155L139,156 M139,155L140,156 M189,155L190,156 M190,155L191,156 M191,155L192,156 M192,155L193,156 M276,155L277,156 M277,155L278,156 M278,155L279,156 M279,155L280,156 M282,155L283,156 M283,155L284,156 M402,155L403,156 M403,155L404,156 M421,155L422,156 M422,155L423,156 M440,155L441,156 M441,155L442,156 M442,155L443,156 M443,155L444,156 M444,155L445,156 M450,155L451,156 M470,155L471,156 M471,155L472,156 M472,155L473,156 M473,155L474,156 M474,155L475,156 M475,155L476,156 M476,155L477,156 M477,155L478,156 M478,155L479,156 M479,155L480,156 M480,155L481,156 M481,155L482,156 M482,155L483,156 M483,155L484,156 M484,155L485,156 M485,155L486,156 M486,155L487,156 M487,155L488,156 M488,155L489,156 M489,155L490,156 M490,155L491,156 M491,155L492,156 M492,155L493,156 M493,155L494,156 M494,155L495,156 M495,155L496,156 M496,155L497,156 M497,155L498,156 M498,155L499,156 M499,155L500,156 M646,155L647,156 M647,155L648,156 M654,155L655,156 M655,155L656,156 M673,155L674,156 M674,155L675,156 M679,155L680,156 M680,155L681,156 M681,155L682,156 M682,155L683,156 M683,155L684,156 M684,155L685,156 M685,155L686,156 M686,155L687,156 M687,155L688,156 M688,155L689,156 M689,155L690,156 M690,155L691,156 M691,155L692,156 M692,155L693,156 M693,155L694,156 M694,155L695,156 M695,155L696,156 M696,155L697,156 M697,155L698,156 M137,156L138,157 M138,156L139,157 M187,156L188,157 M188,156L189,157 M189,156L190,157 M190,156L191,157 M275,156L276,157 M276,156L277,157 M277,156L278,157 M281,156L282,157 M282,156L283,157 M403,156L404,157 M404,156L405,157 M420,156L421,157 M421,156L422,157 M422,156L423,157 M437,156L438,157 M438,156L439,157 M439,156L440,157 M440,156L441,157 M441,156L442,157 M450,156L451,157 M451,156L452,157 M452,156L453,157 M453,156L454,157 M454,156L455,157 M455,156L456,157 M456,156L457,157 M457,156L458,157 M458,156L459,157 M459,156L460,157 M460,156L461,157 M461,156L462,157 M462,156L463,157 M463,156L464,157 M464,156L465,157 M465,156L466,157 M466,156L467,157 M467,156L468,157 M468,156L469,157 M469,156L470,157 M470,156L471,157 M471,156L472,157 M472,156L473,157 M473,156L474,157 M474,156L475,157 M475,156L476,157 M476,156L477,157 M477,156L478,157 M478,156L479,157 M479,156L480,157 M480,156L481,157 M481,156L482,157 M482,156L483,157 M483,156L484,157 M484,156L485,157 M485,156L486,157 M486,156L487,157 M487,156L488,157 M488,156L489,157 M489,156L490,157 M490,156L491,157 M491,156L492,157 M492,156L493,157 M493,156L494,157 M494,156L495,157 M495,156L496,157 M645,156L646,157 M646,156L647,157 M647,156L648,157 M653,156L654,157 M654,156L655,157 M673,156L674,157 M674,156L675,157 M678,156L679,157 M679,156L680,157 M680,156L681,157 M681,156L682,157 M137,157L138,158 M138,157L139,158 M185,157L186,158 M186,157L187,158 M187,157L188,158 M188,157L189,158 M274,157L275,158 M275,157L276,158 M276,157L277,158 M280,157L281,158 M281,157L282,158 M282,157L283,158 M403,157L404,158 M404,157L405,158 M419,157L420,158 M420,157L421,158 M421,157L422,158 M435,157L436,158 M436,157L437,158 M437,157L438,158 M438,157L439,158 M439,157L440,158 M450,157L451,158 M451,157L452,158 M452,157L453,158 M453,157L454,158 M454,157L455,158 M455,157L456,158 M456,157L457,158 M457,157L458,158 M458,157L459,158 M459,157L460,158 M460,157L461,158 M461,157L462,158 M462,157L463,158 M463,157L464,158 M464,157L465,158 M465,157L466,158 M466,157L467,158 M467,157L468,158 M468,157L469,158 M469,157L470,158 M645,157L646,158 M646,157L647,158 M652,157L653,158 M653,157L654,158 M654,157L655,158 M674,157L675,158 M677,157L678,158 M678,157L679,158 M679,157L680,158 M137,158L138,159 M138,158L139,159 M183,158L184,159 M184,158L185,159 M185,158L186,159 M186,158L187,159 M273,158L274,159 M274,158L275,159 M275,158L276,159 M279,158L280,159 M280,158L281,159 M281,158L282,159 M403,158L404,159 M404,158L405,159 M405,158L406,159 M418,158L419,159 M419,158L420,159 M420,158L421,159 M433,158L434,159 M434,158L435,159 M435,158L436,159 M436,158L437,159 M437,158L438,159 M645,158L646,159 M646,158L647,159 M652,158L653,159 M653,158L654,159 M674,158L675,159 M676,158L677,159 M677,158L678,159 M136,159L137,160 M137,159L138,160 M181,159L182,160 M182,159L183,160 M183,159L184,160 M184,159L185,160 M185,159L186,160 M271,159L272,160 M272,159L273,160 M273,159L274,160 M274,159L275,160 M279,159L280,160 M280,159L281,160 M404,159L405,160 M405,159L406,160 M417,159L418,160 M418,159L419,160 M419,159L420,160 M430,159L431,160 M431,159L432,160 M432,159L433,160 M433,159L434,160 M434,159L435,160 M644,159L645,160 M645,159L646,160 M651,159L652,160 M652,159L653,160 M674,159L675,160 M675,159L676,160 M676,159L677,160 M136,160L137,161 M137,160L138,161 M180,160L181,161 M181,160L182,161 M182,160L183,161 M183,160L184,161 M270,160L271,161 M271,160L272,161 M272,160L273,161 M278,160L279,161 M279,160L280,161 M404,160L405,161 M405,160L406,161 M406,160L407,161 M416,160L417,161 M417,160L418,161 M418,160L419,161 M426,160L427,161 M427,160L428,161 M428,160L429,161 M429,160L430,161 M430,160L431,161 M431,160L432,161 M432,160L433,161 M644,160L645,161 M645,160L646,161 M650,160L651,161 M651,160L652,161 M652,160L653,161 M674,160L675,161 M675,160L676,161 M135,161L136,162 M136,161L137,162 M137,161L138,162 M178,161L179,162 M179,161L180,162 M180,161L181,162 M181,161L182,162 M269,161L270,162 M270,161L271,162 M271,161L272,162 M277,161L278,162 M278,161L279,162 M279,161L280,162 M405,161L406,162 M406,161L407,162 M407,161L408,162 M415,161L416,162 M416,161L417,162 M417,161L418,162 M420,161L421,162 M421,161L422,162 M422,161L423,162 M423,161L424,162 M424,161L425,162 M425,161L426,162 M426,161L427,162 M427,161L428,162 M428,161L429,162 M429,161L430,162 M430,161L431,162 M644,161L645,162 M645,161L646,162 M650,161L651,162 M651,161L652,162 M674,161L675,162 M675,161L676,162 M135,162L136,163 M136,162L137,163 M176,162L177,163 M177,162L178,163 M178,162L179,163 M179,162L180,163 M267,162L268,163 M268,162L269,163 M269,162L270,163 M270,162L271,163 M276,162L277,163 M277,162L278,163 M278,162L279,163 M406,162L407,163 M407,162L408,163 M408,162L409,163 M414,162L415,163 M415,162L416,163 M416,162L417,163 M417,162L418,163 M418,162L419,163 M419,162L420,163 M420,162L421,163 M421,162L422,163 M422,162L423,163 M423,162L424,163 M424,162L425,163 M425,162L426,163 M643,162L644,163 M644,162L645,163 M649,162L650,163 M650,162L651,163 M135,163L136,164 M136,163L137,164 M174,163L175,164 M175,163L176,164 M176,163L177,164 M177,163L178,164 M266,163L267,164 M267,163L268,164 M268,163L269,164 M276,163L277,164 M277,163L278,164 M407,163L408,164 M408,163L409,164 M409,163L410,164 M410,163L411,164 M411,163L412,164 M412,163L413,164 M413,163L414,164 M414,163L415,164 M415,163L416,164 M416,163L417,164 M417,163L418,164 M418,163L419,164 M419,163L420,164 M643,163L644,164 M644,163L645,164 M648,163L649,164 M649,163L650,164 M134,164L135,165 M135,164L136,165 M173,164L174,165 M174,164L175,165 M175,164L176,165 M176,164L177,165 M265,164L266,165 M266,164L267,165 M267,164L268,165 M275,164L276,165 M276,164L277,165 M277,164L278,165 M409,164L410,165 M410,164L411,165 M411,164L412,165 M412,164L413,165 M413,164L414,165 M414,164L415,165 M642,164L643,165 M643,164L644,165 M644,164L645,165 M647,164L648,165 M648,164L649,165 M134,165L135,166 M135,165L136,166 M171,165L172,166 M172,165L173,166 M173,165L174,166 M174,165L175,166 M263,165L264,166 M264,165L265,166 M265,165L266,166 M266,165L267,166 M274,165L275,166 M275,165L276,166 M276,165L277,166 M411,165L412,166 M412,165L413,166 M413,165L414,166 M642,165L643,166 M643,165L644,166 M646,165L647,166 M647,165L648,166 M134,166L135,167 M135,166L136,167 M169,166L170,167 M170,166L171,167 M171,166L172,167 M172,166L173,167 M262,166L263,167 M263,166L264,167 M264,166L265,167 M274,166L275,167 M275,166L276,167 M411,166L412,167 M412,166L413,167 M642,166L643,167 M643,166L644,167 M645,166L646,167 M646,166L647,167 M133,167L134,168 M134,167L135,168 M167,167L168,168 M168,167L169,168 M169,167L170,168 M170,167L171,168 M261,167L262,168 M262,167L263,168 M263,167L264,168 M273,167L274,168 M274,167L275,168 M410,167L411,168 M411,167L412,168 M641,167L642,168 M642,167L643,168 M644,167L645,168 M645,167L646,168 M646,167L647,168 M133,168L134,169 M134,168L135,169 M166,168L167,169 M167,168L168,169 M168,168L169,169 M169,168L170,169 M259,168L260,169 M260,168L261,169 M261,168L262,169 M262,168L263,169 M272,168L273,169 M273,168L274,169 M274,168L275,169 M409,168L410,169 M410,168L411,169 M411,168L412,169 M641,168L642,169 M642,168L643,169 M643,168L644,169 M644,168L645,169 M645,168L646,169 M132,169L133,170 M133,169L134,170 M164,169L165,170 M165,169L166,170 M166,169L167,170 M167,169L168,170 M258,169L259,170 M259,169L260,170 M260,169L261,170 M271,169L272,170 M272,169L273,170 M273,169L274,170 M409,169L410,170 M410,169L411,170 M641,169L642,170 M642,169L643,170 M643,169L644,170 M644,169L645,170 M132,170L133,171 M133,170L134,171 M162,170L163,171 M163,170L164,171 M164,170L165,171 M165,170L166,171 M257,170L258,171 M258,170L259,171 M259,170L260,171 M271,170L272,171 M272,170L273,171 M408,170L409,171 M409,170L410,171 M640,170L641,171 M641,170L642,171 M642,170L643,171 M643,170L644,171 M132,171L133,172 M133,171L134,172 M160,171L161,172 M161,171L162,172 M162,171L163,172 M163,171L164,172 M256,171L257,172 M257,171L258,172 M258,171L259,172 M270,171L271,172 M271,171L272,172 M407,171L408,172 M408,171L409,172 M409,171L410,172 M640,171L641,172 M641,171L642,172 M642,171L643,172 M131,172L132,173 M132,172L133,173 M157,172L158,173 M158,172L159,173 M159,172L160,173 M160,172L161,173 M161,172L162,173 M162,172L163,173 M255,172L256,173 M256,172L257,173 M269,172L270,173 M270,172L271,173 M271,172L272,173 M407,172L408,173 M408,172L409,173 M640,172L641,173 M641,172L642,173 M131,173L132,174 M132,173L133,174 M155,173L156,174 M156,173L157,174 M157,173L158,174 M158,173L159,174 M159,173L160,174 M254,173L255,174 M255,173L256,174 M268,173L269,174 M269,173L270,174 M270,173L271,174 M406,173L407,174 M407,173L408,174 M131,174L132,175 M132,174L133,175 M152,174L153,175 M153,174L154,175 M154,174L155,175 M155,174L156,175 M156,174L157,175 M157,174L158,175 M253,174L254,175 M254,174L255,175 M268,174L269,175 M269,174L270,175 M405,174L406,175 M406,174L407,175 M407,174L408,175 M131,175L132,176 M132,175L133,176 M150,175L151,176 M151,175L152,176 M152,175L153,176 M153,175L154,176 M154,175L155,176 M252,175L253,176 M253,175L254,176 M267,175L268,176 M268,175L269,176 M269,175L270,176 M405,175L406,176 M406,175L407,176 M131,176L132,177 M132,176L133,177 M147,176L148,177 M148,176L149,177 M149,176L150,177 M150,176L151,177 M151,176L152,177 M152,176L153,177 M251,176L252,177 M252,176L253,177 M266,176L267,177 M267,176L268,177 M268,176L269,177 M404,176L405,177 M405,176L406,177 M131,177L132,178 M132,177L133,178 M144,177L145,178 M145,177L146,178 M146,177L147,178 M147,177L148,178 M148,177L149,178 M149,177L150,178 M250,177L251,178 M251,177L252,178 M252,177L253,178 M266,177L267,178 M267,177L268,178 M403,177L404,178 M404,177L405,178 M405,177L406,178 M131,178L132,179 M140,178L141,179 M141,178L142,179 M142,178L143,179 M143,178L144,179 M144,178L145,179 M145,178L146,179 M146,178L147,179 M249,178L250,179 M250,178L251,179 M251,178L252,179 M265,178L266,179 M266,178L267,179 M403,178L404,179 M404,178L405,179 M131,179L132,180 M132,179L133,180 M133,179L134,180 M134,179L135,180 M135,179L136,180 M136,179L137,180 M137,179L138,180 M138,179L139,180 M139,179L140,180 M140,179L141,180 M141,179L142,180 M142,179L143,180 M143,179L144,180 M144,179L145,180 M248,179L249,180 M249,179L250,180 M250,179L251,180 M264,179L265,180 M265,179L266,180 M402,179L403,180 M403,179L404,180 M131,180L132,181 M132,180L133,181 M133,180L134,181 M134,180L135,181 M135,180L136,181 M136,180L137,181 M137,180L138,181 M138,180L139,181 M139,180L140,181 M247,180L248,181 M248,180L249,181 M249,180L250,181 M263,180L264,181 M264,180L265,181 M265,180L266,181 M401,180L402,181 M402,180L403,181 M403,180L404,181 M246,181L247,182 M247,181L248,182 M248,181L249,182 M262,181L263,182 M263,181L264,182 M264,181L265,182 M401,181L402,182 M402,181L403,182 M245,182L246,183 M246,182L247,183 M247,182L248,183 M261,182L262,183 M262,182L263,183 M263,182L264,183 M400,182L401,183 M401,182L402,183 M244,183L245,184 M245,183L246,184 M246,183L247,184 M260,183L261,184 M261,183L262,184 M262,183L263,184 M399,183L400,184 M400,183L401,184 M401,183L402,184 M243,184L244,185 M244,184L245,185 M245,184L246,185 M259,184L260,185 M260,184L261,185 M261,184L262,185 M399,184L400,185 M400,184L401,185 M242,185L243,186 M243,185L244,186 M244,185L245,186 M258,185L259,186 M259,185L260,186 M260,185L261,186 M398,185L399,186 M399,185L400,186 M241,186L242,187 M242,186L243,187 M243,186L244,187 M257,186L258,187 M258,186L259,187 M259,186L260,187 M397,186L398,187 M398,186L399,187 M399,186L400,187 M240,187L241,188 M241,187L242,188 M242,187L243,188 M256,187L257,188 M257,187L258,188 M258,187L259,188 M397,187L398,188 M398,187L399,188 M239,188L240,189 M240,188L241,189 M241,188L242,189 M256,188L257,189 M257,188L258,189 M396,188L397,189 M397,188L398,189 M238,189L239,190 M239,189L240,190 M240,189L241,190 M255,189L256,190 M256,189L257,190 M395,189L396,190 M396,189L397,190 M397,189L398,190 M237,190L238,191 M238,190L239,191 M239,190L240,191 M254,190L255,191 M255,190L256,191 M395,190L396,191 M396,190L397,191 M236,191L237,192 M237,191L238,192 M238,191L239,192 M253,191L254,192 M254,191L255,192 M255,191L256,192 M394,191L395,192 M395,191L396,192 M235,192L236,193 M236,192L237,193 M237,192L238,193 M252,192L253,193 M253,192L254,193 M254,192L255,193 M393,192L394,193 M394,192L395,193 M395,192L396,193 M234,193L235,194 M235,193L236,194 M236,193L237,194 M251,193L252,194 M252,193L253,194 M253,193L254,194 M393,193L394,194 M394,193L395,194 M233,194L234,195 M234,194L235,195 M235,194L236,195 M250,194L251,195 M251,194L252,195 M252,194L253,195 M392,194L393,195 M393,194L394,195 M232,195L233,196 M233,195L234,196 M234,195L235,196 M249,195L250,196 M250,195L251,196 M251,195L252,196 M391,195L392,196 M392,195L393,196 M393,195L394,196 M231,196L232,197 M232,196L233,197 M233,196L234,197 M248,196L249,197 M249,196L250,197 M250,196L251,197 M391,196L392,197 M392,196L393,197 M231,197L232,198 M232,197L233,198 M247,197L248,198 M248,197L249,198 M249,197L250,198 M390,197L391,198 M391,197L392,198 M230,198L231,199 M231,198L232,199 M246,198L247,199 M247,198L248,199 M248,198L249,199 M389,198L390,199 M390,198L391,199 M391,198L392,199 M229,199L230,200 M230,199L231,200 M246,199L247,200 M247,199L248,200 M389,199L390,200 M390,199L391,200 M228,200L229,201 M229,200L230,201 M230,200L231,201 M245,200L246,201 M246,200L247,201 M388,200L389,201 M389,200L390,201 M227,201L228,202 M228,201L229,202 M229,201L230,202 M244,201L245,202 M245,201L246,202 M246,201L247,202 M387,201L388,202 M388,201L389,202 M389,201L390,202 M227,202L228,203 M228,202L229,203 M243,202L244,203 M244,202L245,203 M245,202L246,203 M387,202L388,203 M388,202L389,203 M226,203L227,204 M227,203L228,204 M242,203L243,204 M243,203L244,204 M244,203L245,204 M386,203L387,204 M387,203L388,204 M388,203L389,204 M225,204L226,205 M226,204L227,205 M227,204L228,205 M242,204L243,205 M243,204L244,205 M386,204L387,205 M387,204L388,205 M224,205L225,206 M225,205L226,206 M226,205L227,206 M241,205L242,206 M242,205L243,206 M385,205L386,206 M386,205L387,206 M387,205L388,206 M224,206L225,207 M225,206L226,207 M240,206L241,207 M241,206L242,207 M242,206L243,207 M385,206L386,207 M386,206L387,207 M223,207L224,208 M224,207L225,208 M239,207L240,208 M240,207L241,208 M241,207L242,208 M384,207L385,208 M385,207L386,208 M222,208L223,209 M223,208L224,209 M224,208L225,209 M238,208L239,209 M239,208L240,209 M240,208L241,209 M384,208L385,209 M385,208L386,209 M221,209L222,210 M222,209L223,210 M223,209L224,210 M237,209L238,210 M238,209L239,210 M239,209L240,210 M383,209L384,210 M384,209L385,210 M221,210L222,211 M222,210L223,211 M235,210L236,211 M236,210L237,211 M237,210L238,211 M238,210L239,211 M382,210L383,211 M383,210L384,211 M384,210L385,211 M220,211L221,212 M221,211L222,212 M233,211L234,212 M234,211L235,212 M235,211L236,212 M236,211L237,212 M382,211L383,212 M383,211L384,212 M219,212L220,213 M220,212L221,213 M221,212L222,213 M231,212L232,213 M232,212L233,213 M233,212L234,213 M234,212L235,213 M381,212L382,213 M382,212L383,213 M383,212L384,213 M218,213L219,214 M219,213L220,214 M220,213L221,214 M230,213L231,214 M231,213L232,214 M232,213L233,214 M233,213L234,214 M381,213L382,214 M382,213L383,214 M218,214L219,215 M219,214L220,215 M228,214L229,215 M229,214L230,215 M230,214L231,215 M231,214L232,215 M380,214L381,215 M381,214L382,215 M382,214L383,215 M218,215L219,216 M219,215L220,216 M226,215L227,216 M227,215L228,216 M228,215L229,216 M229,215L230,216 M380,215L381,216 M381,215L382,216 M218,216L219,217 M219,216L220,217 M224,216L225,217 M225,216L226,217 M226,216L227,217 M227,216L228,217 M379,216L380,217 M380,216L381,217 M218,217L219,218 M219,217L220,218 M223,217L224,218 M224,217L225,218 M225,217L226,218 M226,217L227,218 M379,217L380,218 M380,217L381,218 M218,218L219,219 M219,218L220,219 M221,218L222,219 M222,218L223,219 M223,218L224,219 M224,218L225,219 M378,218L379,219 M379,218L380,219 M218,219L219,220 M219,219L220,220 M220,219L221,220 M221,219L222,220 M222,219L223,220 M378,219L379,220 M379,219L380,220 M218,220L219,221 M219,220L220,221 M220,220L221,221 M221,220L222,221 M378,220L379,221 M379,220L380,221 M219,221L220,222 M377,221L378,222 M378,221L379,222 M377,222L378,223 M378,222L379,223 M376,223L377,224 M377,223L378,224 M378,223L379,224 M376,224L377,225 M377,224L378,225 M376,225L377,226 M377,225L378,226 M375,226L376,227 M376,226L377,227 M375,227L376,228 M376,227L377,228 M375,228L376,229 M376,228L377,229 M375,229L376,230 M375,230L376,231 M375,231L376,232 M375,232L376,233 M375,233L376,234 M375,234L376,235 M375,235L376,236 M375,236L376,237 M375,237L376,238 M375,238L376,239 M375,239L376,240 M375,240L376,241 M375,241L376,242 M375,242L376,243 M374,243L375,244 M375,243L376,244 M374,244L375,245 M375,244L376,245 M374,245L375,246 M375,245L376,246 M374,246L375,247 M375,246L376,247 M374,247L375,248 M375,247L376,248" fill="none" stroke="black" />
    </svg>