<svg xmlns="http://www.w3.org/2000/svg" width="670" height="250">
        <path d="M182,56L183,57 M183,56L184,57 M182,57L183,58 M183,57L184,58 M182,58L183,59 M183,58L184,59 M182,59L183,60 M183,59L184,60 M182,60L183,61 M183,60L184,61 M182,61L183,62 M183,61L184,62 M182,62L183,63 M183,62L184,63 M182,63L183,64 M183,63L184,64 M182,64L183,65 M183,64L184,65 M181,65L182,66 M182,65L183,66 M183,65L184,66 M181,66L182,67 M182,66L183,67 M181,67L182,68 M182,67L183,68 M181,68L182,69 M182,68L183,69 M181,69L182,70 M182,69L183,70 M181,70L182,71 M182,70L183,71 M181,71L182,72 M182,71L183,72 M181,72L182,73 M182,72L183,73 M304,72L305,73 M305,72L306,73 M306,72L307,73 M307,72L308,73 M308,72L309,73 M309,72L310,73 M310,72L311,73 M311,72L312,73 M312,72L313,73 M313,72L314,73 M314,72L315,73 M315,72L316,73 M316,72L317,73 M317,72L318,73 M318,72L319,73 M319,72L320,73 M320,72L321,73 M321,72L322,73 M322,72L323,73 M323,72L324,73 M324,72L325,73 M181,73L182,74 M182,73L183,74 M297,73L298,74 M298,73L299,74 M299,73L300,74 M300,73L301,74 M301,73L302,74 M302,73L303,74 M303,73L304,74 M304,73L305,74 M305,73L306,74 M306,73L307,74 M307,73L308,74 M308,73L309,74 M309,73L310,74 M310,73L311,74 M311,73L312,74 M312,73L313,74 M313,73L314,74 M314,73L315,74 M315,73L316,74 M316,73L317,74 M317,73L318,74 M318,73L319,74 M319,73L320,74 M320,73L321,74 M321,73L322,74 M322,73L323,74 M323,73L324,74 M324,73L325,74 M325,73L326,74 M326,73L327,74 M327,73L328,74 M328,73L329,74 M181,74L182,75 M182,74L183,75 M292,74L293,75 M293,74L294,75 M294,74L295,75 M295,74L296,75 M296,74L297,75 M297,74L298,75 M298,74L299,75 M299,74L300,75 M300,74L301,75 M301,74L302,75 M302,74L303,75 M303,74L304,75 M325,74L326,75 M326,74L327,75 M327,74L328,75 M328,74L329,75 M329,74L330,75 M330,74L331,75 M331,74L332,75 M181,75L182,76 M182,75L183,76 M285,75L286,76 M286,75L287,76 M287,75L288,76 M288,75L289,76 M289,75L290,76 M290,75L291,76 M291,75L292,76 M292,75L293,76 M293,75L294,76 M294,75L295,76 M295,75L296,76 M296,75L297,76 M297,75L298,76 M329,75L330,76 M330,75L331,76 M331,75L332,76 M332,75L333,76 M333,75L334,76 M181,76L182,77 M182,76L183,77 M278,76L279,77 M279,76L280,77 M280,76L281,77 M281,76L282,77 M282,76L283,77 M283,76L284,77 M284,76L285,77 M285,76L286,77 M286,76L287,77 M287,76L288,77 M288,76L289,77 M289,76L290,77 M290,76L291,77 M291,76L292,77 M331,76L332,77 M332,76L333,77 M333,76L334,77 M334,76L335,77 M335,76L336,77 M181,77L182,78 M182,77L183,78 M273,77L274,78 M274,77L275,78 M275,77L276,78 M276,77L277,78 M277,77L278,78 M278,77L279,78 M279,77L280,78 M280,77L281,78 M281,77L282,78 M282,77L283,78 M283,77L284,78 M284,77L285,78 M333,77L334,78 M334,77L335,78 M335,77L336,78 M336,77L337,78 M337,77L338,78 M181,78L182,79 M182,78L183,79 M269,78L270,79 M270,78L271,79 M271,78L272,79 M272,78L273,79 M273,78L274,79 M274,78L275,79 M275,78L276,79 M276,78L277,79 M277,78L278,79 M336,78L337,79 M337,78L338,79 M338,78L339,79 M339,78L340,79 M340,78L341,79 M181,79L182,80 M182,79L183,80 M265,79L266,80 M266,79L267,80 M267,79L268,80 M268,79L269,80 M269,79L270,80 M270,79L271,80 M271,79L272,80 M272,79L273,80 M273,79L274,80 M338,79L339,80 M339,79L340,80 M340,79L341,80 M341,79L342,80 M342,79L343,80 M181,80L182,81 M182,80L183,81 M261,80L262,81 M262,80L263,81 M263,80L264,81 M264,80L265,81 M265,80L266,81 M266,80L267,81 M267,80L268,81 M268,80L269,81 M341,80L342,81 M342,80L343,81 M343,80L344,81 M344,80L345,81 M345,80L346,81 M346,80L347,81 M347,80L348,81 M348,80L349,81 M349,80L350,81 M181,81L182,82 M182,81L183,82 M257,81L258,82 M258,81L259,82 M259,81L260,82 M260,81L261,82 M261,81L262,82 M262,81L263,82 M263,81L264,82 M264,81L265,82 M343,81L344,82 M344,81L345,82 M345,81L346,82 M346,81L347,82 M347,81L348,82 M348,81L349,82 M349,81L350,82 M350,81L351,82 M351,81L352,82 M352,81L353,82 M353,81L354,82 M181,82L182,83 M182,82L183,83 M253,82L254,83 M254,82L255,83 M255,82L256,83 M256,82L257,83 M257,82L258,83 M258,82L259,83 M259,82L260,83 M260,82L261,83 M350,82L351,83 M351,82L352,83 M352,82L353,83 M353,82L354,83 M354,82L355,83 M355,82L356,83 M356,82L357,83 M180,83L181,84 M181,83L182,84 M249,83L250,84 M250,83L251,84 M251,83L252,84 M252,83L253,84 M253,83L254,84 M254,83L255,84 M255,83L256,84 M256,83L257,84 M354,83L355,84 M355,83L356,84 M356,83L357,84 M357,83L358,84 M358,83L359,84 M359,83L360,84 M180,84L181,85 M181,84L182,85 M245,84L246,85 M246,84L247,85 M247,84L248,85 M248,84L249,85 M249,84L250,85 M250,84L251,85 M251,84L252,85 M252,84L253,85 M357,84L358,85 M358,84L359,85 M359,84L360,85 M360,84L361,85 M361,84L362,85 M362,84L363,85 M363,84L364,85 M364,84L365,85 M365,84L366,85 M366,84L367,85 M367,84L368,85 M368,84L369,85 M369,84L370,85 M370,84L371,85 M371,84L372,85 M372,84L373,85 M373,84L374,85 M374,84L375,85 M375,84L376,85 M376,84L377,85 M377,84L378,85 M378,84L379,85 M379,84L380,85 M380,84L381,85 M381,84L382,85 M382,84L383,85 M383,84L384,85 M384,84L385,85 M385,84L386,85 M386,84L387,85 M387,84L388,85 M388,84L389,85 M389,84L390,85 M390,84L391,85 M391,84L392,85 M392,84L393,85 M393,84L394,85 M394,84L395,85 M395,84L396,85 M396,84L397,85 M180,85L181,86 M181,85L182,86 M241,85L242,86 M242,85L243,86 M243,85L244,86 M244,85L245,86 M245,85L246,86 M246,85L247,86 M247,85L248,86 M248,85L249,86 M360,85L361,86 M361,85L362,86 M362,85L363,86 M363,85L364,86 M364,85L365,86 M365,85L366,86 M366,85L367,86 M367,85L368,86 M368,85L369,86 M369,85L370,86 M370,85L371,86 M371,85L372,86 M372,85L373,86 M373,85L374,86 M374,85L375,86 M375,85L376,86 M376,85L377,86 M377,85L378,86 M378,85L379,86 M379,85L380,86 M380,85L381,86 M381,85L382,86 M382,85L383,86 M383,85L384,86 M384,85L385,86 M385,85L386,86 M386,85L387,86 M387,85L388,86 M388,85L389,86 M389,85L390,86 M390,85L391,86 M391,85L392,86 M392,85L393,86 M393,85L394,86 M394,85L395,86 M395,85L396,86 M396,85L397,86 M397,85L398,86 M398,85L399,86 M399,85L400,86 M400,85L401,86 M401,85L402,86 M402,85L403,86 M403,85L404,86 M404,85L405,86 M180,86L181,87 M181,86L182,87 M237,86L238,87 M238,86L239,87 M239,86L240,87 M240,86L241,87 M241,86L242,87 M242,86L243,87 M243,86L244,87 M244,86L245,87 M397,86L398,87 M398,86L399,87 M399,86L400,87 M400,86L401,87 M401,86L402,87 M402,86L403,87 M403,86L404,87 M404,86L405,87 M405,86L406,87 M406,86L407,87 M407,86L408,87 M408,86L409,87 M409,86L410,87 M410,86L411,87 M411,86L412,87 M180,87L181,88 M181,87L182,88 M204,87L205,88 M205,87L206,88 M206,87L207,88 M207,87L208,88 M208,87L209,88 M229,87L230,88 M230,87L231,88 M231,87L232,88 M232,87L233,88 M233,87L234,88 M234,87L235,88 M235,87L236,88 M236,87L237,88 M237,87L238,88 M238,87L239,88 M239,87L240,88 M240,87L241,88 M405,87L406,88 M406,87L407,88 M407,87L408,88 M408,87L409,88 M409,87L410,88 M410,87L411,88 M411,87L412,88 M412,87L413,88 M413,87L414,88 M414,87L415,88 M415,87L416,88 M416,87L417,88 M417,87L418,88 M418,87L419,88 M419,87L420,88 M420,87L421,88 M421,87L422,88 M422,87L423,88 M423,87L424,88 M424,87L425,88 M425,87L426,88 M426,87L427,88 M142,88L143,89 M143,88L144,89 M144,88L145,89 M145,88L146,89 M146,88L147,89 M147,88L148,89 M148,88L149,89 M149,88L150,89 M150,88L151,89 M151,88L152,89 M180,88L181,89 M181,88L182,89 M199,88L200,89 M200,88L201,89 M201,88L202,89 M202,88L203,89 M203,88L204,89 M204,88L205,89 M205,88L206,89 M206,88L207,89 M207,88L208,89 M208,88L209,89 M209,88L210,89 M210,88L211,89 M211,88L212,89 M212,88L213,89 M213,88L214,89 M214,88L215,89 M215,88L216,89 M216,88L217,89 M217,88L218,89 M218,88L219,89 M219,88L220,89 M220,88L221,89 M221,88L222,89 M222,88L223,89 M223,88L224,89 M224,88L225,89 M225,88L226,89 M226,88L227,89 M227,88L228,89 M228,88L229,89 M229,88L230,89 M230,88L231,89 M231,88L232,89 M232,88L233,89 M233,88L234,89 M234,88L235,89 M235,88L236,89 M236,88L237,89 M412,88L413,89 M413,88L414,89 M414,88L415,89 M415,88L416,89 M416,88L417,89 M417,88L418,89 M418,88L419,89 M419,88L420,89 M420,88L421,89 M421,88L422,89 M422,88L423,89 M423,88L424,89 M424,88L425,89 M425,88L426,89 M426,88L427,89 M427,88L428,89 M428,88L429,89 M429,88L430,89 M430,88L431,89 M431,88L432,89 M432,88L433,89 M433,88L434,89 M434,88L435,89 M435,88L436,89 M436,88L437,89 M139,89L140,90 M140,89L141,90 M141,89L142,90 M142,89L143,90 M143,89L144,90 M144,89L145,90 M145,89L146,90 M146,89L147,90 M147,89L148,90 M148,89L149,90 M149,89L150,90 M150,89L151,90 M151,89L152,90 M180,89L181,90 M181,89L182,90 M196,89L197,90 M197,89L198,90 M198,89L199,90 M199,89L200,90 M200,89L201,90 M201,89L202,90 M202,89L203,90 M203,89L204,90 M204,89L205,90 M207,89L208,90 M208,89L209,90 M209,89L210,90 M210,89L211,90 M211,89L212,90 M212,89L213,90 M213,89L214,90 M214,89L215,90 M215,89L216,90 M216,89L217,90 M217,89L218,90 M218,89L219,90 M219,89L220,90 M220,89L221,90 M221,89L222,90 M222,89L223,90 M223,89L224,90 M224,89L225,90 M225,89L226,90 M226,89L227,90 M227,89L228,90 M228,89L229,90 M427,89L428,90 M428,89L429,90 M429,89L430,90 M430,89L431,90 M431,89L432,90 M432,89L433,90 M433,89L434,90 M434,89L435,90 M435,89L436,90 M436,89L437,90 M437,89L438,90 M438,89L439,90 M439,89L440,90 M440,89L441,90 M441,89L442,90 M442,89L443,90 M443,89L444,90 M444,89L445,90 M445,89L446,90 M137,90L138,91 M138,90L139,91 M139,90L140,91 M140,90L141,91 M141,90L142,91 M151,90L152,91 M152,90L153,91 M180,90L181,91 M181,90L182,91 M193,90L194,91 M194,90L195,91 M195,90L196,91 M196,90L197,91 M197,90L198,91 M198,90L199,91 M437,90L438,91 M438,90L439,91 M439,90L440,91 M440,90L441,91 M441,90L442,91 M442,90L443,91 M443,90L444,91 M444,90L445,91 M445,90L446,91 M446,90L447,91 M447,90L448,91 M448,90L449,91 M449,90L450,91 M450,90L451,91 M451,90L452,91 M452,90L453,91 M453,90L454,91 M135,91L136,92 M136,91L137,92 M137,91L138,92 M138,91L139,92 M139,91L140,92 M151,91L152,92 M152,91L153,92 M153,91L154,92 M154,91L155,92 M180,91L181,92 M181,91L182,92 M190,91L191,92 M191,91L192,92 M192,91L193,92 M193,91L194,92 M194,91L195,92 M195,91L196,92 M446,91L447,92 M447,91L448,92 M448,91L449,92 M449,91L450,92 M450,91L451,92 M451,91L452,92 M452,91L453,92 M453,91L454,92 M454,91L455,92 M455,91L456,92 M456,91L457,92 M457,91L458,92 M458,91L459,92 M459,91L460,92 M460,91L461,92 M461,91L462,92 M134,92L135,93 M135,92L136,93 M136,92L137,93 M137,92L138,93 M153,92L154,93 M154,92L155,93 M155,92L156,93 M180,92L181,93 M181,92L182,93 M187,92L188,93 M188,92L189,93 M189,92L190,93 M190,92L191,93 M191,92L192,93 M192,92L193,93 M454,92L455,93 M455,92L456,93 M456,92L457,93 M457,92L458,93 M458,92L459,93 M459,92L460,93 M460,92L461,93 M461,92L462,93 M462,92L463,93 M463,92L464,93 M464,92L465,93 M465,92L466,93 M466,92L467,93 M132,93L133,94 M133,93L134,94 M134,93L135,94 M135,93L136,94 M154,93L155,94 M155,93L156,94 M180,93L181,94 M181,93L182,94 M185,93L186,94 M186,93L187,94 M187,93L188,94 M188,93L189,94 M189,93L190,94 M462,93L463,94 M463,93L464,94 M464,93L465,94 M465,93L466,94 M466,93L467,94 M467,93L468,94 M468,93L469,94 M469,93L470,94 M470,93L471,94 M131,94L132,95 M132,94L133,95 M133,94L134,95 M154,94L155,95 M155,94L156,95 M179,94L180,95 M180,94L181,95 M181,94L182,95 M183,94L184,95 M184,94L185,95 M185,94L186,95 M186,94L187,95 M187,94L188,95 M467,94L468,95 M468,94L469,95 M469,94L470,95 M470,94L471,95 M471,94L472,95 M472,94L473,95 M473,94L474,95 M474,94L475,95 M129,95L130,96 M130,95L131,96 M131,95L132,96 M132,95L133,96 M155,95L156,96 M156,95L157,96 M179,95L180,96 M180,95L181,96 M182,95L183,96 M183,95L184,96 M184,95L185,96 M185,95L186,96 M471,95L472,96 M472,95L473,96 M473,95L474,96 M474,95L475,96 M475,95L476,96 M476,95L477,96 M477,95L478,96 M128,96L129,97 M129,96L130,97 M130,96L131,97 M155,96L156,97 M156,96L157,97 M179,96L180,97 M180,96L181,97 M181,96L182,97 M182,96L183,97 M183,96L184,97 M475,96L476,97 M476,96L477,97 M477,96L478,97 M478,96L479,97 M479,96L480,97 M127,97L128,98 M128,97L129,98 M129,97L130,98 M155,97L156,98 M156,97L157,98 M157,97L158,98 M178,97L179,98 M179,97L180,98 M180,97L181,98 M181,97L182,98 M477,97L478,98 M478,97L479,98 M479,97L480,98 M480,97L481,98 M481,97L482,98 M125,98L126,99 M126,98L127,99 M127,98L128,99 M128,98L129,99 M156,98L157,99 M157,98L158,99 M158,98L159,99 M176,98L177,99 M177,98L178,99 M178,98L179,99 M179,98L180,99 M180,98L181,99 M479,98L480,99 M480,98L481,99 M481,98L482,99 M482,98L483,99 M483,98L484,99 M124,99L125,100 M125,99L126,100 M126,99L127,100 M157,99L158,100 M158,99L159,100 M159,99L160,100 M174,99L175,100 M175,99L176,100 M176,99L177,100 M177,99L178,100 M179,99L180,100 M180,99L181,100 M481,99L482,100 M482,99L483,100 M483,99L484,100 M484,99L485,100 M485,99L486,100 M123,100L124,101 M124,100L125,101 M125,100L126,101 M158,100L159,101 M159,100L160,101 M160,100L161,101 M173,100L174,101 M174,100L175,101 M175,100L176,101 M176,100L177,101 M179,100L180,101 M180,100L181,101 M483,100L484,101 M484,100L485,101 M485,100L486,101 M486,100L487,101 M487,100L488,101 M121,101L122,102 M122,101L123,102 M123,101L124,102 M124,101L125,102 M159,101L160,102 M160,101L161,102 M171,101L172,102 M172,101L173,102 M173,101L174,102 M174,101L175,102 M179,101L180,102 M180,101L181,102 M485,101L486,102 M486,101L487,102 M487,101L488,102 M488,101L489,102 M489,101L490,102 M120,102L121,103 M121,102L122,103 M122,102L123,103 M160,102L161,103 M161,102L162,103 M170,102L171,103 M171,102L172,103 M172,102L173,103 M173,102L174,103 M179,102L180,103 M180,102L181,103 M487,102L488,103 M488,102L489,103 M489,102L490,103 M490,102L491,103 M491,102L492,103 M119,103L120,104 M120,103L121,104 M121,103L122,104 M160,103L161,104 M161,103L162,104 M168,103L169,104 M169,103L170,104 M170,103L171,104 M171,103L172,104 M179,103L180,104 M180,103L181,104 M490,103L491,104 M491,103L492,104 M492,103L493,104 M117,104L118,105 M118,104L119,105 M119,104L120,105 M120,104L121,105 M160,104L161,105 M161,104L162,105 M167,104L168,105 M168,104L169,105 M169,104L170,105 M170,104L171,105 M179,104L180,105 M180,104L181,105 M491,104L492,105 M492,104L493,105 M493,104L494,105 M116,105L117,106 M117,105L118,106 M118,105L119,106 M119,105L120,106 M161,105L162,106 M162,105L163,106 M165,105L166,106 M166,105L167,106 M167,105L168,106 M168,105L169,106 M179,105L180,106 M180,105L181,106 M492,105L493,106 M493,105L494,106 M114,106L115,107 M115,106L116,107 M116,106L117,107 M117,106L118,107 M161,106L162,107 M162,106L163,107 M164,106L165,107 M165,106L166,107 M166,106L167,107 M167,106L168,107 M179,106L180,107 M180,106L181,107 M492,106L493,107 M493,106L494,107 M113,107L114,108 M114,107L115,108 M115,107L116,108 M116,107L117,108 M162,107L163,108 M163,107L164,108 M164,107L165,108 M165,107L166,108 M178,107L179,108 M179,107L180,108 M492,107L493,108 M493,107L494,108 M111,108L112,109 M112,108L113,109 M113,108L114,109 M114,108L115,109 M161,108L162,109 M162,108L163,109 M163,108L164,109 M164,108L165,109 M178,108L179,109 M179,108L180,109 M493,108L494,109 M494,108L495,109 M110,109L111,110 M111,109L112,110 M112,109L113,110 M113,109L114,110 M160,109L161,110 M161,109L162,110 M162,109L163,110 M163,109L164,110 M164,109L165,110 M178,109L179,110 M179,109L180,110 M492,109L493,110 M493,109L494,110 M494,109L495,110 M109,110L110,111 M110,110L111,111 M111,110L112,111 M159,110L160,111 M160,110L161,111 M161,110L162,111 M163,110L164,111 M164,110L165,111 M178,110L179,111 M179,110L180,111 M492,110L493,111 M493,110L494,111 M108,111L109,112 M109,111L110,112 M110,111L111,112 M157,111L158,112 M158,111L159,112 M159,111L160,112 M160,111L161,112 M164,111L165,112 M165,111L166,112 M177,111L178,112 M178,111L179,112 M492,111L493,112 M493,111L494,112 M107,112L108,113 M108,112L109,113 M109,112L110,113 M156,112L157,113 M157,112L158,113 M158,112L159,113 M164,112L165,113 M165,112L166,113 M166,112L167,113 M177,112L178,113 M178,112L179,113 M492,112L493,113 M493,112L494,113 M106,113L107,114 M107,113L108,114 M108,113L109,114 M155,113L156,114 M156,113L157,114 M157,113L158,114 M165,113L166,114 M166,113L167,114 M177,113L178,114 M178,113L179,114 M491,113L492,114 M492,113L493,114 M493,113L494,114 M105,114L106,115 M106,114L107,115 M107,114L108,115 M153,114L154,115 M154,114L155,115 M155,114L156,115 M156,114L157,115 M165,114L166,115 M166,114L167,115 M167,114L168,115 M176,114L177,115 M177,114L178,115 M491,114L492,115 M492,114L493,115 M104,115L105,116 M105,115L106,116 M106,115L107,116 M152,115L153,116 M153,115L154,116 M154,115L155,116 M166,115L167,116 M167,115L168,116 M176,115L177,116 M177,115L178,116 M491,115L492,116 M492,115L493,116 M104,116L105,117 M105,116L106,117 M151,116L152,117 M152,116L153,117 M153,116L154,117 M167,116L168,117 M168,116L169,117 M176,116L177,117 M177,116L178,117 M491,116L492,117 M492,116L493,117 M103,117L104,118 M104,117L105,118 M149,117L150,118 M150,117L151,118 M151,117L152,118 M152,117L153,118 M167,117L168,118 M168,117L169,118 M169,117L170,118 M175,117L176,118 M176,117L177,118 M491,117L492,118 M492,117L493,118 M102,118L103,119 M103,118L104,119 M148,118L149,119 M149,118L150,119 M150,118L151,119 M168,118L169,119 M169,118L170,119 M175,118L176,119 M176,118L177,119 M490,118L491,119 M491,118L492,119 M100,119L101,120 M101,119L102,120 M102,119L103,120 M103,119L104,120 M147,119L148,120 M148,119L149,120 M149,119L150,120 M168,119L169,120 M169,119L170,120 M170,119L171,120 M175,119L176,120 M176,119L177,120 M490,119L491,120 M491,119L492,120 M99,120L100,121 M100,120L101,121 M101,120L102,121 M146,120L147,121 M147,120L148,121 M148,120L149,121 M169,120L170,121 M170,120L171,121 M175,120L176,121 M176,120L177,121 M490,120L491,121 M491,120L492,121 M98,121L99,122 M99,121L100,122 M100,121L101,122 M144,121L145,122 M145,121L146,122 M146,121L147,122 M147,121L148,122 M170,121L171,122 M171,121L172,122 M174,121L175,122 M175,121L176,122 M490,121L491,122 M491,121L492,122 M97,122L98,123 M98,122L99,123 M99,122L100,123 M143,122L144,123 M144,122L145,123 M145,122L146,123 M170,122L171,123 M171,122L172,123 M172,122L173,123 M174,122L175,123 M175,122L176,123 M490,122L491,123 M491,122L492,123 M96,123L97,124 M97,123L98,124 M98,123L99,124 M142,123L143,124 M143,123L144,124 M144,123L145,124 M171,123L172,124 M172,123L173,124 M174,123L175,124 M175,123L176,124 M490,123L491,124 M491,123L492,124 M95,124L96,125 M96,124L97,125 M97,124L98,125 M141,124L142,125 M142,124L143,125 M143,124L144,125 M172,124L173,125 M173,124L174,125 M174,124L175,125 M175,124L176,125 M490,124L491,125 M491,124L492,125 M95,125L96,126 M96,125L97,126 M140,125L141,126 M141,125L142,126 M142,125L143,126 M172,125L173,126 M173,125L174,126 M174,125L175,126 M175,125L176,126 M489,125L490,126 M490,125L491,126 M491,125L492,126 M94,126L95,127 M95,126L96,127 M139,126L140,127 M140,126L141,127 M141,126L142,127 M173,126L174,127 M174,126L175,127 M175,126L176,127 M489,126L490,127 M490,126L491,127 M94,127L95,128 M95,127L96,128 M137,127L138,128 M138,127L139,128 M139,127L140,128 M173,127L174,128 M174,127L175,128 M489,127L490,128 M490,127L491,128 M94,128L95,129 M95,128L96,129 M136,128L137,129 M137,128L138,129 M138,128L139,129 M489,128L490,129 M490,128L491,129 M93,129L94,130 M94,129L95,130 M135,129L136,130 M136,129L137,130 M137,129L138,130 M488,129L489,130 M489,129L490,130 M93,130L94,131 M94,130L95,131 M134,130L135,131 M135,130L136,131 M136,130L137,131 M488,130L489,131 M489,130L490,131 M93,131L94,132 M94,131L95,132 M133,131L134,132 M134,131L135,132 M135,131L136,132 M488,131L489,132 M489,131L490,132 M92,132L93,133 M93,132L94,133 M132,132L133,133 M133,132L134,133 M134,132L135,133 M487,132L488,133 M488,132L489,133 M92,133L93,134 M93,133L94,134 M131,133L132,134 M132,133L133,134 M133,133L134,134 M487,133L488,134 M488,133L489,134 M92,134L93,135 M93,134L94,135 M129,134L130,135 M130,134L131,135 M131,134L132,135 M132,134L133,135 M487,134L488,135 M488,134L489,135 M91,135L92,136 M92,135L93,136 M128,135L129,136 M129,135L130,136 M130,135L131,136 M486,135L487,136 M487,135L488,136 M91,136L92,137 M92,136L93,137 M127,136L128,137 M128,136L129,137 M129,136L130,137 M485,136L486,137 M486,136L487,137 M487,136L488,137 M91,137L92,138 M92,137L93,138 M125,137L126,138 M126,137L127,138 M127,137L128,138 M128,137L129,138 M485,137L486,138 M486,137L487,138 M91,138L92,139 M92,138L93,139 M124,138L125,139 M125,138L126,139 M126,138L127,139 M484,138L485,139 M485,138L486,139 M486,138L487,139 M91,139L92,140 M92,139L93,140 M123,139L124,140 M124,139L125,140 M125,139L126,140 M484,139L485,140 M485,139L486,140 M91,140L92,141 M92,140L93,141 M122,140L123,141 M123,140L124,141 M124,140L125,141 M483,140L484,141 M484,140L485,141 M91,141L92,142 M92,141L93,142 M120,141L121,142 M121,141L122,142 M122,141L123,142 M123,141L124,142 M482,141L483,142 M483,141L484,142 M484,141L485,142 M91,142L92,143 M92,142L93,143 M119,142L120,143 M120,142L121,143 M121,142L122,143 M482,142L483,143 M483,142L484,143 M91,143L92,144 M92,143L93,144 M117,143L118,144 M118,143L119,144 M119,143L120,144 M120,143L121,144 M481,143L482,144 M482,143L483,144 M483,143L484,144 M91,144L92,145 M92,144L93,145 M116,144L117,145 M117,144L118,145 M118,144L119,145 M481,144L482,145 M482,144L483,145 M92,145L93,146 M93,145L94,146 M94,145L95,146 M114,145L115,146 M115,145L116,146 M116,145L117,146 M117,145L118,146 M480,145L481,146 M481,145L482,146 M92,146L93,147 M93,146L94,147 M94,146L95,147 M95,146L96,147 M112,146L113,147 M113,146L114,147 M114,146L115,147 M115,146L116,147 M116,146L117,147 M479,146L480,147 M480,146L481,147 M481,146L482,147 M94,147L95,148 M95,147L96,148 M96,147L97,148 M97,147L98,148 M109,147L110,148 M110,147L111,148 M111,147L112,148 M112,147L113,148 M113,147L114,148 M479,147L480,148 M480,147L481,148 M96,148L97,149 M97,148L98,149 M98,148L99,149 M99,148L100,149 M100,148L101,149 M101,148L102,149 M102,148L103,149 M103,148L104,149 M104,148L105,149 M105,148L106,149 M106,148L107,149 M107,148L108,149 M108,148L109,149 M109,148L110,149 M110,148L111,149 M111,148L112,149 M478,148L479,149 M479,148L480,149 M97,149L98,150 M98,149L99,150 M99,149L100,150 M100,149L101,150 M101,149L102,150 M102,149L103,150 M103,149L104,150 M104,149L105,150 M105,149L106,150 M106,149L107,150 M107,149L108,150 M108,149L109,150 M109,149L110,150 M478,149L479,150 M479,149L480,150 M477,150L478,151 M478,150L479,151 M476,151L477,152 M477,151L478,152 M478,151L479,152 M476,152L477,153 M477,152L478,153 M475,153L476,154 M476,153L477,154 M475,154L476,155 M476,154L477,155 M475,155L476,156 M476,155L477,156 M474,156L475,157 M475,156L476,157 M474,157L475,158 M475,157L476,158 M473,158L474,159 M474,158L475,159 M473,159L474,160 M474,159L475,160 M473,160L474,161 M474,160L475,161 M472,161L473,162 M473,161L474,162 M472,162L473,163 M473,162L474,163 M471,163L472,164 M472,163L473,164 M471,164L472,165 M472,164L473,165 M470,165L471,166 M471,165L472,166 M472,165L473,166 M470,166L471,167 M471,166L472,167 M470,167L471,168 M471,167L472,168 M469,168L470,169 M470,168L471,169 M469,169L470,170 M470,169L471,170 M468,170L469,171 M469,170L470,171 M468,171L469,172 M469,171L470,172 M467,172L468,173 M468,172L469,173 M469,172L470,173 M467,173L468,174 M468,173L469,174 M467,174L468,175 M468,174L469,175 M466,175L467,176 M467,175L468,176 M466,176L467,177 M467,176L468,177 M465,177L466,178 M466,177L467,178 M465,178L466,179 M466,178L467,179 M465,179L466,180 M466,179L467,180 M464,180L465,181 M465,180L466,181 M464,181L465,182 M465,181L466,182 M463,182L464,183 M464,182L465,183 M465,182L466,183 M463,183L464,184 M464,183L465,184 M463,184L464,185 M464,184L465,185 M462,185L463,186 M463,185L464,186 M462,186L463,187 M463,186L464,187 M461,187L462,188 M462,187L463,188 M461,188L462,189 M462,188L463,189 M460,189L461,190 M461,189L462,190 M460,190L461,191 M461,190L462,191 M459,191L460,192 M460,191L461,192 M459,192L460,193 M460,192L461,193 M458,193L459,194 M459,193L460,194 M457,194L458,195 M458,194L459,195 M459,194L460,195 M457,195L458,196 M458,195L459,196 M456,196L457,197 M457,196L458,197 M455,197L456,198 M456,197L457,198 M457,197L458,198 M454,198L455,199 M455,198L456,199 M456,198L457,199 M454,199L455,200 M455,199L456,200 M453,200L454,201 M454,200L455,201 M452,201L453,202 M453,201L454,202 M454,201L455,202 M452,202L453,203 M453,202L454,203 M451,203L452,204 M452,203L453,204 M450,204L451,205 M451,204L452,205 M452,204L453,205 M449,205L450,206 M450,205L451,206 M451,205L452,206 M449,206L450,207 M450,206L451,207 M448,207L449,208 M449,207L450,208 M447,208L448,209 M448,208L449,209 M449,208L450,209 M447,209L448,210 M448,209L449,210 M446,210L447,211 M447,210L448,211 M445,211L446,212 M446,211L447,212 M447,211L448,212 M445,212L446,213 M446,212L447,213 M444,213L445,214 M445,213L446,214 M444,214L445,215 M445,214L446,215 M444,215L445,216 M445,215L446,216 M443,216L444,217 M444,216L445,217 M443,217L444,218 M444,217L445,218 M442,218L443,219 M443,218L444,219 M441,219L442,220 M442,219L443,220 M443,219L444,220 M441,220L442,221 M442,220L443,221 M441,221L442,222 M442,221L443,222 M440,222L441,223 M441,222L442,223 M440,223L441,224 M441,223L442,224 M439,224L440,225 M440,224L441,225 M441,224L442,225 M439,225L440,226 M440,225L441,226" fill="none" stroke="black" />
    </svg>