<svg xmlns="http://www.w3.org/2000/svg" width="800" height="250">
        <path d="M381,29L382,30 M382,29L383,30 M381,30L382,31 M382,30L383,31 M381,31L382,32 M382,31L383,32 M381,32L382,33 M382,32L383,33 M381,33L382,34 M382,33L383,34 M381,34L382,35 M382,34L383,35 M381,35L382,36 M382,35L383,36 M381,36L382,37 M382,36L383,37 M380,37L381,38 M381,37L382,38 M380,38L381,39 M381,38L382,39 M380,39L381,40 M381,39L382,40 M380,40L381,41 M381,40L382,41 M380,41L381,42 M381,41L382,42 M380,42L381,43 M381,42L382,43 M380,43L381,44 M381,43L382,44 M380,44L381,45 M381,44L382,45 M379,45L380,46 M380,45L381,46 M379,46L380,47 M380,46L381,47 M379,47L380,48 M380,47L381,48 M379,48L380,49 M380,48L381,49 M379,49L380,50 M380,49L381,50 M379,50L380,51 M380,50L381,51 M379,51L380,52 M380,51L381,52 M147,52L148,53 M148,52L149,53 M379,52L380,53 M380,52L381,53 M147,53L148,54 M148,53L149,54 M379,53L380,54 M380,53L381,54 M139,54L140,55 M140,54L141,55 M141,54L142,55 M142,54L143,55 M143,54L144,55 M144,54L145,55 M145,54L146,55 M146,54L147,55 M147,54L148,55 M148,54L149,55 M149,54L150,55 M150,54L151,55 M151,54L152,55 M152,54L153,55 M153,54L154,55 M154,54L155,55 M155,54L156,55 M156,54L157,55 M157,54L158,55 M158,54L159,55 M159,54L160,55 M379,54L380,55 M380,54L381,55 M139,55L140,56 M140,55L141,56 M141,55L142,56 M142,55L143,56 M143,55L144,56 M144,55L145,56 M145,55L146,56 M146,55L147,56 M147,55L148,56 M148,55L149,56 M149,55L150,56 M150,55L151,56 M151,55L152,56 M152,55L153,56 M153,55L154,56 M154,55L155,56 M155,55L156,56 M156,55L157,56 M157,55L158,56 M158,55L159,56 M159,55L160,56 M379,55L380,56 M380,55L381,56 M147,56L148,57 M148,56L149,57 M379,56L380,57 M380,56L381,57 M147,57L148,58 M148,57L149,58 M379,57L380,58 M380,57L381,58 M147,58L148,59 M148,58L149,59 M379,58L380,59 M380,58L381,59 M147,59L148,60 M148,59L149,60 M379,59L380,60 M380,59L381,60 M147,60L148,61 M148,60L149,61 M379,60L380,61 M380,60L381,61 M147,61L148,62 M148,61L149,62 M379,61L380,62 M380,61L381,62 M147,62L148,63 M148,62L149,63 M379,62L380,63 M380,62L381,63 M146,63L147,64 M147,63L148,64 M148,63L149,64 M379,63L380,64 M380,63L381,64 M146,64L147,65 M147,64L148,65 M378,64L379,65 M379,64L380,65 M146,65L147,66 M147,65L148,66 M378,65L379,66 M379,65L380,66 M146,66L147,67 M147,66L148,67 M378,66L379,67 M379,66L380,67 M146,67L147,68 M147,67L148,68 M378,67L379,68 M379,67L380,68 M146,68L147,69 M147,68L148,69 M378,68L379,69 M379,68L380,69 M146,69L147,70 M147,69L148,70 M378,69L379,70 M379,69L380,70 M146,70L147,71 M147,70L148,71 M378,70L379,71 M379,70L380,71 M146,71L147,72 M147,71L148,72 M378,71L379,72 M379,71L380,72 M146,72L147,73 M147,72L148,73 M378,72L379,73 M379,72L380,73 M146,73L147,74 M147,73L148,74 M265,73L266,74 M378,73L379,74 M379,73L380,74 M146,74L147,75 M147,74L148,75 M264,74L265,75 M265,74L266,75 M266,74L267,75 M378,74L379,75 M379,74L380,75 M145,75L146,76 M146,75L147,76 M264,75L265,76 M265,75L266,76 M266,75L267,76 M378,75L379,76 M379,75L380,76 M145,76L146,77 M146,76L147,77 M207,76L208,77 M208,76L209,77 M209,76L210,77 M210,76L211,77 M211,76L212,77 M212,76L213,77 M213,76L214,77 M214,76L215,77 M215,76L216,77 M216,76L217,77 M217,76L218,77 M218,76L219,77 M219,76L220,77 M220,76L221,77 M221,76L222,77 M222,76L223,77 M223,76L224,77 M224,76L225,77 M225,76L226,77 M226,76L227,77 M227,76L228,77 M228,76L229,77 M229,76L230,77 M230,76L231,77 M231,76L232,77 M265,76L266,77 M266,76L267,77 M267,76L268,77 M378,76L379,77 M379,76L380,77 M145,77L146,78 M146,77L147,78 M205,77L206,78 M206,77L207,78 M207,77L208,78 M208,77L209,78 M209,77L210,78 M210,77L211,78 M211,77L212,78 M212,77L213,78 M213,77L214,78 M214,77L215,78 M215,77L216,78 M216,77L217,78 M217,77L218,78 M218,77L219,78 M219,77L220,78 M220,77L221,78 M221,77L222,78 M222,77L223,78 M223,77L224,78 M224,77L225,78 M225,77L226,78 M226,77L227,78 M227,77L228,78 M228,77L229,78 M229,77L230,78 M230,77L231,78 M231,77L232,78 M232,77L233,78 M233,77L234,78 M234,77L235,78 M235,77L236,78 M266,77L267,78 M267,77L268,78 M268,77L269,78 M378,77L379,78 M379,77L380,78 M145,78L146,79 M146,78L147,79 M204,78L205,79 M205,78L206,79 M206,78L207,79 M232,78L233,79 M233,78L234,79 M234,78L235,79 M235,78L236,79 M236,78L237,79 M237,78L238,79 M267,78L268,79 M268,78L269,79 M269,78L270,79 M378,78L379,79 M379,78L380,79 M526,78L527,79 M527,78L528,79 M538,78L539,79 M539,78L540,79 M540,78L541,79 M541,78L542,79 M542,78L543,79 M543,78L544,79 M544,78L545,79 M545,78L546,79 M546,78L547,79 M547,78L548,79 M548,78L549,79 M549,78L550,79 M550,78L551,79 M551,78L552,79 M552,78L553,79 M553,78L554,79 M554,78L555,79 M555,78L556,79 M556,78L557,79 M557,78L558,79 M558,78L559,79 M559,78L560,79 M560,78L561,79 M561,78L562,79 M562,78L563,79 M563,78L564,79 M564,78L565,79 M565,78L566,79 M566,78L567,79 M567,78L568,79 M568,78L569,79 M569,78L570,79 M570,78L571,79 M571,78L572,79 M572,78L573,79 M573,78L574,79 M574,78L575,79 M575,78L576,79 M145,79L146,80 M146,79L147,80 M202,79L203,80 M203,79L204,80 M204,79L205,80 M205,79L206,80 M236,79L237,80 M237,79L238,80 M268,79L269,80 M269,79L270,80 M377,79L378,80 M378,79L379,80 M526,79L527,80 M527,79L528,80 M536,79L537,80 M537,79L538,80 M538,79L539,80 M539,79L540,80 M540,79L541,80 M541,79L542,80 M542,79L543,80 M543,79L544,80 M544,79L545,80 M545,79L546,80 M546,79L547,80 M547,79L548,80 M548,79L549,80 M549,79L550,80 M550,79L551,80 M551,79L552,80 M552,79L553,80 M553,79L554,80 M554,79L555,80 M555,79L556,80 M556,79L557,80 M557,79L558,80 M558,79L559,80 M559,79L560,80 M560,79L561,80 M561,79L562,80 M562,79L563,80 M563,79L564,80 M564,79L565,80 M565,79L566,80 M566,79L567,80 M567,79L568,80 M568,79L569,80 M569,79L570,80 M570,79L571,80 M571,79L572,80 M572,79L573,80 M573,79L574,80 M574,79L575,80 M575,79L576,80 M576,79L577,80 M577,79L578,80 M578,79L579,80 M579,79L580,80 M580,79L581,80 M581,79L582,80 M582,79L583,80 M145,80L146,81 M146,80L147,81 M200,80L201,81 M201,80L202,81 M202,80L203,81 M203,80L204,81 M236,80L237,81 M237,80L238,81 M269,80L270,81 M270,80L271,81 M377,80L378,81 M378,80L379,81 M403,80L404,81 M404,80L405,81 M405,80L406,81 M406,80L407,81 M407,80L408,81 M408,80L409,81 M409,80L410,81 M410,80L411,81 M411,80L412,81 M412,80L413,81 M413,80L414,81 M414,80L415,81 M415,80L416,81 M416,80L417,81 M417,80L418,81 M418,80L419,81 M419,80L420,81 M420,80L421,81 M526,80L527,81 M527,80L528,81 M534,80L535,81 M535,80L536,81 M536,80L537,81 M537,80L538,81 M576,80L577,81 M577,80L578,81 M578,80L579,81 M579,80L580,81 M580,80L581,81 M581,80L582,81 M582,80L583,81 M583,80L584,81 M584,80L585,81 M585,80L586,81 M586,80L587,81 M144,81L145,82 M145,81L146,82 M199,81L200,82 M200,81L201,82 M201,81L202,82 M236,81L237,82 M237,81L238,82 M269,81L270,82 M270,81L271,82 M271,81L272,82 M377,81L378,82 M378,81L379,82 M394,81L395,82 M395,81L396,82 M396,81L397,82 M397,81L398,82 M398,81L399,82 M399,81L400,82 M400,81L401,82 M401,81L402,82 M402,81L403,82 M403,81L404,82 M404,81L405,82 M405,81L406,82 M406,81L407,82 M407,81L408,82 M408,81L409,82 M409,81L410,82 M410,81L411,82 M411,81L412,82 M412,81L413,82 M413,81L414,82 M414,81L415,82 M415,81L416,82 M416,81L417,82 M417,81L418,82 M418,81L419,82 M419,81L420,82 M420,81L421,82 M421,81L422,82 M422,81L423,82 M423,81L424,82 M424,81L425,82 M525,81L526,82 M526,81L527,82 M527,81L528,82 M532,81L533,82 M533,81L534,82 M534,81L535,82 M535,81L536,82 M583,81L584,82 M584,81L585,82 M585,81L586,82 M586,81L587,82 M587,81L588,82 M588,81L589,82 M589,81L590,82 M106,82L107,83 M107,82L108,83 M144,82L145,83 M145,82L146,83 M198,82L199,83 M199,82L200,83 M200,82L201,83 M236,82L237,83 M237,82L238,83 M271,82L272,83 M272,82L273,83 M273,82L274,83 M377,82L378,83 M378,82L379,83 M389,82L390,83 M390,82L391,83 M391,82L392,83 M392,82L393,83 M393,82L394,83 M394,82L395,83 M395,82L396,83 M396,82L397,83 M397,82L398,83 M398,82L399,83 M399,82L400,83 M400,82L401,83 M401,82L402,83 M402,82L403,83 M421,82L422,83 M422,82L423,83 M423,82L424,83 M424,82L425,83 M425,82L426,83 M455,82L456,83 M456,82L457,83 M501,82L502,83 M502,82L503,83 M525,82L526,83 M526,82L527,83 M527,82L528,83 M530,82L531,83 M531,82L532,83 M532,82L533,83 M533,82L534,83 M534,82L535,83 M586,82L587,83 M587,82L588,83 M588,82L589,83 M589,82L590,83 M590,82L591,83 M591,82L592,83 M592,82L593,83 M593,82L594,83 M106,83L107,84 M107,83L108,84 M144,83L145,84 M145,83L146,84 M197,83L198,84 M198,83L199,84 M199,83L200,84 M236,83L237,84 M237,83L238,84 M272,83L273,84 M273,83L274,84 M274,83L275,84 M377,83L378,84 M378,83L379,84 M387,83L388,84 M388,83L389,84 M389,83L390,84 M390,83L391,84 M391,83L392,84 M392,83L393,84 M393,83L394,84 M424,83L425,84 M425,83L426,84 M426,83L427,84 M455,83L456,84 M456,83L457,84 M501,83L502,84 M502,83L503,84 M525,83L526,84 M526,83L527,84 M528,83L529,84 M529,83L530,84 M530,83L531,84 M531,83L532,84 M590,83L591,84 M591,83L592,84 M592,83L593,84 M593,83L594,84 M594,83L595,84 M595,83L596,84 M596,83L597,84 M106,84L107,85 M107,84L108,85 M144,84L145,85 M145,84L146,85 M196,84L197,85 M197,84L198,85 M198,84L199,85 M236,84L237,85 M237,84L238,85 M273,84L274,85 M274,84L275,85 M275,84L276,85 M377,84L378,85 M378,84L379,85 M385,84L386,85 M386,84L387,85 M387,84L388,85 M388,84L389,85 M425,84L426,85 M426,84L427,85 M455,84L456,85 M456,84L457,85 M501,84L502,85 M502,84L503,85 M525,84L526,85 M526,84L527,85 M527,84L528,85 M528,84L529,85 M529,84L530,85 M594,84L595,85 M595,84L596,85 M596,84L597,85 M597,84L598,85 M598,84L599,85 M106,85L107,86 M107,85L108,86 M144,85L145,86 M145,85L146,86 M195,85L196,86 M196,85L197,86 M197,85L198,86 M235,85L236,86 M236,85L237,86 M274,85L275,86 M275,85L276,86 M276,85L277,86 M345,85L346,86 M346,85L347,86 M377,85L378,86 M378,85L379,86 M383,85L384,86 M384,85L385,86 M385,85L386,86 M386,85L387,86 M425,85L426,86 M426,85L427,86 M455,85L456,86 M456,85L457,86 M501,85L502,86 M502,85L503,86 M525,85L526,86 M526,85L527,86 M527,85L528,86 M528,85L529,86 M596,85L597,86 M597,85L598,86 M598,85L599,86 M599,85L600,86 M600,85L601,86 M105,86L106,87 M106,86L107,87 M143,86L144,87 M144,86L145,87 M193,86L194,87 M194,86L195,87 M195,86L196,87 M196,86L197,87 M235,86L236,87 M236,86L237,87 M275,86L276,87 M276,86L277,87 M277,86L278,87 M344,86L345,87 M345,86L346,87 M346,86L347,87 M377,86L378,87 M378,86L379,87 M379,86L380,87 M380,86L381,87 M381,86L382,87 M382,86L383,87 M383,86L384,87 M384,86L385,87 M426,86L427,87 M427,86L428,87 M455,86L456,87 M456,86L457,87 M500,86L501,87 M501,86L502,87 M524,86L525,87 M525,86L526,87 M526,86L527,87 M599,86L600,87 M600,86L601,87 M601,86L602,87 M602,86L603,87 M603,86L604,87 M105,87L106,88 M106,87L107,88 M143,87L144,88 M144,87L145,88 M192,87L193,88 M193,87L194,88 M194,87L195,88 M234,87L235,88 M235,87L236,88 M276,87L277,88 M277,87L278,88 M278,87L279,88 M344,87L345,88 M345,87L346,88 M346,87L347,88 M377,87L378,88 M378,87L379,88 M379,87L380,88 M380,87L381,88 M381,87L382,88 M382,87L383,88 M426,87L427,88 M427,87L428,88 M455,87L456,88 M456,87L457,88 M500,87L501,88 M501,87L502,88 M523,87L524,88 M524,87L525,88 M525,87L526,88 M526,87L527,88 M601,87L602,88 M602,87L603,88 M603,87L604,88 M604,87L605,88 M105,88L106,89 M106,88L107,89 M143,88L144,89 M144,88L145,89 M191,88L192,89 M192,88L193,89 M193,88L194,89 M233,88L234,89 M234,88L235,89 M235,88L236,89 M277,88L278,89 M278,88L279,89 M279,88L280,89 M343,88L344,89 M344,88L345,89 M345,88L346,89 M346,88L347,89 M377,88L378,89 M378,88L379,89 M379,88L380,89 M380,88L381,89 M426,88L427,89 M427,88L428,89 M455,88L456,89 M456,88L457,89 M500,88L501,89 M501,88L502,89 M522,88L523,89 M523,88L524,89 M524,88L525,89 M525,88L526,89 M526,88L527,89 M603,88L604,89 M604,88L605,89 M605,88L606,89 M105,89L106,90 M106,89L107,90 M143,89L144,90 M144,89L145,90 M190,89L191,90 M191,89L192,90 M192,89L193,90 M232,89L233,90 M233,89L234,90 M234,89L235,90 M278,89L279,90 M279,89L280,90 M280,89L281,90 M342,89L343,90 M343,89L344,90 M344,89L345,90 M345,89L346,90 M377,89L378,90 M378,89L379,90 M379,89L380,90 M380,89L381,90 M426,89L427,90 M427,89L428,90 M455,89L456,90 M456,89L457,90 M500,89L501,90 M501,89L502,90 M520,89L521,90 M521,89L522,90 M522,89L523,90 M523,89L524,90 M525,89L526,90 M526,89L527,90 M604,89L605,90 M605,89L606,90 M105,90L106,91 M106,90L107,91 M143,90L144,91 M144,90L145,91 M189,90L190,91 M190,90L191,91 M191,90L192,91 M231,90L232,91 M232,90L233,91 M233,90L234,91 M280,90L281,91 M281,90L282,91 M282,90L283,91 M341,90L342,91 M342,90L343,91 M343,90L344,91 M344,90L345,91 M345,90L346,91 M377,90L378,91 M378,90L379,91 M426,90L427,91 M427,90L428,91 M455,90L456,91 M456,90L457,91 M500,90L501,91 M501,90L502,91 M520,90L521,91 M521,90L522,91 M525,90L526,91 M526,90L527,91 M605,90L606,91 M606,90L607,91 M104,91L105,92 M105,91L106,92 M143,91L144,92 M144,91L145,92 M188,91L189,92 M189,91L190,92 M190,91L191,92 M231,91L232,92 M232,91L233,92 M281,91L282,92 M282,91L283,92 M283,91L284,92 M340,91L341,92 M341,91L342,92 M342,91L343,92 M343,91L344,92 M344,91L345,92 M377,91L378,92 M378,91L379,92 M426,91L427,92 M427,91L428,92 M455,91L456,92 M456,91L457,92 M500,91L501,92 M501,91L502,92 M518,91L519,92 M519,91L520,92 M520,91L521,92 M525,91L526,92 M526,91L527,92 M605,91L606,92 M606,91L607,92 M104,92L105,93 M105,92L106,93 M142,92L143,93 M143,92L144,93 M187,92L188,93 M188,92L189,93 M189,92L190,93 M230,92L231,93 M231,92L232,93 M232,92L233,93 M282,92L283,93 M283,92L284,93 M284,92L285,93 M339,92L340,93 M340,92L341,93 M341,92L342,93 M342,92L343,93 M343,92L344,93 M344,92L345,93 M377,92L378,93 M378,92L379,93 M426,92L427,93 M427,92L428,93 M455,92L456,93 M456,92L457,93 M500,92L501,93 M501,92L502,93 M518,92L519,93 M519,92L520,93 M520,92L521,93 M525,92L526,93 M526,92L527,93 M606,92L607,93 M607,92L608,93 M104,93L105,94 M105,93L106,94 M142,93L143,94 M143,93L144,94 M186,93L187,94 M187,93L188,94 M188,93L189,94 M228,93L229,94 M229,93L230,94 M230,93L231,94 M231,93L232,94 M283,93L284,94 M284,93L285,94 M285,93L286,94 M338,93L339,94 M339,93L340,94 M340,93L341,94 M342,93L343,94 M343,93L344,94 M377,93L378,94 M378,93L379,94 M426,93L427,94 M427,93L428,94 M455,93L456,94 M456,93L457,94 M500,93L501,94 M501,93L502,94 M525,93L526,94 M526,93L527,94 M606,93L607,94 M607,93L608,94 M104,94L105,95 M105,94L106,95 M142,94L143,95 M143,94L144,95 M186,94L187,95 M187,94L188,95 M227,94L228,95 M228,94L229,95 M229,94L230,95 M284,94L285,95 M285,94L286,95 M286,94L287,95 M337,94L338,95 M338,94L339,95 M339,94L340,95 M342,94L343,95 M343,94L344,95 M377,94L378,95 M378,94L379,95 M426,94L427,95 M427,94L428,95 M455,94L456,95 M456,94L457,95 M500,94L501,95 M501,94L502,95 M525,94L526,95 M526,94L527,95 M606,94L607,95 M607,94L608,95 M104,95L105,96 M105,95L106,96 M142,95L143,96 M143,95L144,96 M186,95L187,96 M187,95L188,96 M224,95L225,96 M225,95L226,96 M226,95L227,96 M227,95L228,96 M228,95L229,96 M285,95L286,96 M286,95L287,96 M287,95L288,96 M337,95L338,96 M338,95L339,96 M341,95L342,96 M342,95L343,96 M343,95L344,96 M377,95L378,96 M378,95L379,96 M426,95L427,96 M427,95L428,96 M455,95L456,96 M456,95L457,96 M500,95L501,96 M501,95L502,96 M525,95L526,96 M526,95L527,96 M606,95L607,96 M607,95L608,96 M104,96L105,97 M105,96L106,97 M142,96L143,97 M143,96L144,97 M185,96L186,97 M186,96L187,97 M187,96L188,97 M221,96L222,97 M222,96L223,97 M223,96L224,97 M224,96L225,97 M225,96L226,97 M226,96L227,97 M286,96L287,97 M287,96L288,97 M288,96L289,97 M336,96L337,97 M337,96L338,97 M341,96L342,97 M342,96L343,97 M377,96L378,97 M378,96L379,97 M426,96L427,97 M427,96L428,97 M455,96L456,97 M456,96L457,97 M500,96L501,97 M501,96L502,97 M525,96L526,97 M526,96L527,97 M606,96L607,97 M607,96L608,97 M104,97L105,98 M105,97L106,98 M141,97L142,98 M142,97L143,98 M185,97L186,98 M186,97L187,98 M218,97L219,98 M219,97L220,98 M220,97L221,98 M221,97L222,98 M222,97L223,98 M223,97L224,98 M287,97L288,98 M288,97L289,98 M289,97L290,98 M335,97L336,98 M336,97L337,98 M340,97L341,98 M341,97L342,98 M377,97L378,98 M378,97L379,98 M426,97L427,98 M427,97L428,98 M455,97L456,98 M456,97L457,98 M499,97L500,98 M500,97L501,98 M525,97L526,98 M526,97L527,98 M606,97L607,98 M607,97L608,98 M104,98L105,99 M105,98L106,99 M141,98L142,99 M142,98L143,99 M184,98L185,99 M185,98L186,99 M186,98L187,99 M216,98L217,99 M217,98L218,99 M218,98L219,99 M219,98L220,99 M220,98L221,99 M288,98L289,99 M289,98L290,99 M290,98L291,99 M334,98L335,99 M335,98L336,99 M340,98L341,99 M341,98L342,99 M377,98L378,99 M378,98L379,99 M426,98L427,99 M427,98L428,99 M455,98L456,99 M456,98L457,99 M499,98L500,99 M500,98L501,99 M525,98L526,99 M526,98L527,99 M606,98L607,99 M607,98L608,99 M103,99L104,100 M104,99L105,100 M141,99L142,100 M142,99L143,100 M184,99L185,100 M185,99L186,100 M214,99L215,100 M215,99L216,100 M216,99L217,100 M217,99L218,100 M218,99L219,100 M289,99L290,100 M290,99L291,100 M291,99L292,100 M333,99L334,100 M334,99L335,100 M335,99L336,100 M339,99L340,100 M340,99L341,100 M377,99L378,100 M378,99L379,100 M426,99L427,100 M427,99L428,100 M455,99L456,100 M456,99L457,100 M499,99L500,100 M500,99L501,100 M525,99L526,100 M526,99L527,100 M606,99L607,100 M607,99L608,100 M103,100L104,101 M104,100L105,101 M141,100L142,101 M142,100L143,101 M184,100L185,101 M185,100L186,101 M212,100L213,101 M213,100L214,101 M214,100L215,101 M215,100L216,101 M216,100L217,101 M290,100L291,101 M291,100L292,101 M292,100L293,101 M332,100L333,101 M333,100L334,101 M334,100L335,101 M339,100L340,101 M340,100L341,101 M376,100L377,101 M377,100L378,101 M425,100L426,101 M426,100L427,101 M427,100L428,101 M455,100L456,101 M456,100L457,101 M499,100L500,101 M500,100L501,101 M525,100L526,101 M526,100L527,101 M606,100L607,101 M607,100L608,101 M103,101L104,102 M104,101L105,102 M141,101L142,102 M142,101L143,102 M183,101L184,102 M184,101L185,102 M210,101L211,102 M211,101L212,102 M212,101L213,102 M213,101L214,102 M291,101L292,102 M292,101L293,102 M293,101L294,102 M331,101L332,102 M332,101L333,102 M333,101L334,102 M339,101L340,102 M340,101L341,102 M376,101L377,102 M377,101L378,102 M425,101L426,102 M426,101L427,102 M455,101L456,102 M456,101L457,102 M499,101L500,102 M500,101L501,102 M525,101L526,102 M526,101L527,102 M606,101L607,102 M607,101L608,102 M103,102L104,103 M104,102L105,103 M140,102L141,103 M141,102L142,103 M183,102L184,103 M184,102L185,103 M207,102L208,103 M208,102L209,103 M209,102L210,103 M210,102L211,103 M211,102L212,103 M292,102L293,103 M293,102L294,103 M294,102L295,103 M331,102L332,103 M332,102L333,103 M338,102L339,103 M339,102L340,103 M376,102L377,103 M377,102L378,103 M425,102L426,103 M426,102L427,103 M455,102L456,103 M456,102L457,103 M499,102L500,103 M500,102L501,103 M525,102L526,103 M526,102L527,103 M606,102L607,103 M607,102L608,103 M102,103L103,104 M103,103L104,104 M140,103L141,104 M141,103L142,104 M183,103L184,104 M184,103L185,104 M204,103L205,104 M205,103L206,104 M206,103L207,104 M207,103L208,104 M208,103L209,104 M209,103L210,104 M293,103L294,104 M294,103L295,104 M330,103L331,104 M331,103L332,104 M338,103L339,104 M339,103L340,104 M376,103L377,104 M377,103L378,104 M425,103L426,104 M426,103L427,104 M455,103L456,104 M456,103L457,104 M498,103L499,104 M499,103L500,104 M525,103L526,104 M526,103L527,104 M606,103L607,104 M607,103L608,104 M102,104L103,105 M103,104L104,105 M140,104L141,105 M141,104L142,105 M183,104L184,105 M184,104L185,105 M201,104L202,105 M202,104L203,105 M203,104L204,105 M204,104L205,105 M205,104L206,105 M206,104L207,105 M294,104L295,105 M295,104L296,105 M330,104L331,105 M331,104L332,105 M337,104L338,105 M338,104L339,105 M339,104L340,105 M376,104L377,105 M377,104L378,105 M425,104L426,105 M426,104L427,105 M455,104L456,105 M456,104L457,105 M498,104L499,105 M499,104L500,105 M525,104L526,105 M526,104L527,105 M606,104L607,105 M607,104L608,105 M102,105L103,106 M103,105L104,106 M140,105L141,106 M141,105L142,106 M182,105L183,106 M183,105L184,106 M198,105L199,106 M199,105L200,106 M200,105L201,106 M201,105L202,106 M202,105L203,106 M203,105L204,106 M295,105L296,106 M296,105L297,106 M329,105L330,106 M330,105L331,106 M331,105L332,106 M337,105L338,106 M338,105L339,106 M376,105L377,106 M377,105L378,106 M425,105L426,106 M426,105L427,106 M455,105L456,106 M456,105L457,106 M498,105L499,106 M499,105L500,106 M525,105L526,106 M526,105L527,106 M606,105L607,106 M607,105L608,106 M102,106L103,107 M103,106L104,107 M139,106L140,107 M140,106L141,107 M182,106L183,107 M183,106L184,107 M196,106L197,107 M197,106L198,107 M198,106L199,107 M199,106L200,107 M200,106L201,107 M201,106L202,107 M295,106L296,107 M296,106L297,107 M297,106L298,107 M329,106L330,107 M330,106L331,107 M336,106L337,107 M337,106L338,107 M376,106L377,107 M377,106L378,107 M424,106L425,107 M425,106L426,107 M455,106L456,107 M456,106L457,107 M498,106L499,107 M499,106L500,107 M525,106L526,107 M526,106L527,107 M606,106L607,107 M607,106L608,107 M102,107L103,108 M103,107L104,108 M139,107L140,108 M140,107L141,108 M182,107L183,108 M183,107L184,108 M193,107L194,108 M194,107L195,108 M195,107L196,108 M196,107L197,108 M197,107L198,108 M198,107L199,108 M296,107L297,108 M297,107L298,108 M298,107L299,108 M329,107L330,108 M330,107L331,108 M335,107L336,108 M336,107L337,108 M337,107L338,108 M376,107L377,108 M377,107L378,108 M424,107L425,108 M425,107L426,108 M455,107L456,108 M456,107L457,108 M498,107L499,108 M499,107L500,108 M525,107L526,108 M526,107L527,108 M606,107L607,108 M607,107L608,108 M101,108L102,109 M102,108L103,109 M103,108L104,109 M139,108L140,109 M140,108L141,109 M181,108L182,109 M182,108L183,109 M190,108L191,109 M191,108L192,109 M192,108L193,109 M193,108L194,109 M194,108L195,109 M195,108L196,109 M297,108L298,109 M298,108L299,109 M299,108L300,109 M328,108L329,109 M329,108L330,109 M335,108L336,109 M336,108L337,109 M376,108L377,109 M377,108L378,109 M424,108L425,109 M425,108L426,109 M455,108L456,109 M456,108L457,109 M497,108L498,109 M498,108L499,109 M499,108L500,109 M525,108L526,109 M526,108L527,109 M606,108L607,109 M607,108L608,109 M101,109L102,110 M102,109L103,110 M139,109L140,110 M140,109L141,110 M181,109L182,110 M182,109L183,110 M187,109L188,110 M188,109L189,110 M189,109L190,110 M190,109L191,110 M191,109L192,110 M192,109L193,110 M298,109L299,110 M299,109L300,110 M300,109L301,110 M328,109L329,110 M329,109L330,110 M334,109L335,110 M335,109L336,110 M376,109L377,110 M377,109L378,110 M424,109L425,110 M425,109L426,110 M455,109L456,110 M456,109L457,110 M497,109L498,110 M498,109L499,110 M525,109L526,110 M526,109L527,110 M605,109L606,110 M606,109L607,110 M607,109L608,110 M101,110L102,111 M102,110L103,111 M139,110L140,111 M140,110L141,111 M181,110L182,111 M182,110L183,111 M184,110L185,111 M185,110L186,111 M186,110L187,111 M187,110L188,111 M188,110L189,111 M189,110L190,111 M299,110L300,111 M300,110L301,111 M301,110L302,111 M327,110L328,111 M328,110L329,111 M333,110L334,111 M334,110L335,111 M335,110L336,111 M375,110L376,111 M376,110L377,111 M424,110L425,111 M425,110L426,111 M455,110L456,111 M456,110L457,111 M497,110L498,111 M498,110L499,111 M525,110L526,111 M526,110L527,111 M605,110L606,111 M606,110L607,111 M101,111L102,112 M102,111L103,112 M138,111L139,112 M139,111L140,112 M180,111L181,112 M181,111L182,112 M182,111L183,112 M183,111L184,112 M184,111L185,112 M185,111L186,112 M186,111L187,112 M300,111L301,112 M301,111L302,112 M302,111L303,112 M327,111L328,112 M328,111L329,112 M333,111L334,112 M334,111L335,112 M375,111L376,112 M376,111L377,112 M423,111L424,112 M424,111L425,112 M455,111L456,112 M456,111L457,112 M497,111L498,112 M498,111L499,112 M525,111L526,112 M526,111L527,112 M605,111L606,112 M606,111L607,112 M101,112L102,113 M102,112L103,113 M138,112L139,113 M139,112L140,113 M177,112L178,113 M178,112L179,113 M179,112L180,113 M180,112L181,113 M181,112L182,113 M182,112L183,113 M183,112L184,113 M301,112L302,113 M302,112L303,113 M326,112L327,113 M327,112L328,113 M332,112L333,113 M333,112L334,113 M375,112L376,113 M376,112L377,113 M423,112L424,113 M424,112L425,113 M455,112L456,113 M456,112L457,113 M497,112L498,113 M498,112L499,113 M524,112L525,113 M525,112L526,113 M605,112L606,113 M606,112L607,113 M101,113L102,114 M102,113L103,114 M138,113L139,114 M139,113L140,114 M174,113L175,114 M175,113L176,114 M176,113L177,114 M177,113L178,114 M178,113L179,114 M179,113L180,114 M180,113L181,114 M181,113L182,114 M302,113L303,114 M303,113L304,114 M325,113L326,114 M326,113L327,114 M327,113L328,114 M332,113L333,114 M333,113L334,114 M375,113L376,114 M376,113L377,114 M423,113L424,114 M424,113L425,114 M455,113L456,114 M456,113L457,114 M496,113L497,114 M497,113L498,114 M524,113L525,114 M525,113L526,114 M605,113L606,114 M606,113L607,114 M101,114L102,115 M102,114L103,115 M137,114L138,115 M138,114L139,115 M172,114L173,115 M173,114L174,115 M174,114L175,115 M175,114L176,115 M176,114L177,115 M180,114L181,115 M181,114L182,115 M303,114L304,115 M304,114L305,115 M325,114L326,115 M326,114L327,115 M331,114L332,115 M332,114L333,115 M375,114L376,115 M376,114L377,115 M423,114L424,115 M424,114L425,115 M455,114L456,115 M456,114L457,115 M496,114L497,115 M497,114L498,115 M524,114L525,115 M525,114L526,115 M605,114L606,115 M606,114L607,115 M101,115L102,116 M102,115L103,116 M137,115L138,116 M138,115L139,116 M170,115L171,116 M171,115L172,116 M172,115L173,116 M173,115L174,116 M174,115L175,116 M180,115L181,116 M181,115L182,116 M303,115L304,116 M304,115L305,116 M305,115L306,116 M324,115L325,116 M325,115L326,116 M330,115L331,116 M331,115L332,116 M332,115L333,116 M375,115L376,116 M376,115L377,116 M423,115L424,116 M424,115L425,116 M455,115L456,116 M456,115L457,116 M496,115L497,116 M497,115L498,116 M524,115L525,116 M525,115L526,116 M604,115L605,116 M605,115L606,116 M606,115L607,116 M101,116L102,117 M102,116L103,117 M136,116L137,117 M137,116L138,117 M170,116L171,117 M171,116L172,117 M180,116L181,117 M181,116L182,117 M304,116L305,117 M305,116L306,117 M324,116L325,117 M325,116L326,117 M330,116L331,117 M331,116L332,117 M375,116L376,117 M376,116L377,117 M423,116L424,117 M424,116L425,117 M455,116L456,117 M456,116L457,117 M495,116L496,117 M496,116L497,117 M524,116L525,117 M525,116L526,117 M604,116L605,117 M605,116L606,117 M101,117L102,118 M102,117L103,118 M136,117L137,118 M137,117L138,118 M180,117L181,118 M181,117L182,118 M305,117L306,118 M306,117L307,118 M323,117L324,118 M324,117L325,118 M329,117L330,118 M330,117L331,118 M374,117L375,118 M375,117L376,118 M423,117L424,118 M424,117L425,118 M455,117L456,118 M456,117L457,118 M494,117L495,118 M495,117L496,118 M496,117L497,118 M524,117L525,118 M525,117L526,118 M604,117L605,118 M605,117L606,118 M101,118L102,119 M102,118L103,119 M136,118L137,119 M137,118L138,119 M180,118L181,119 M181,118L182,119 M305,118L306,119 M306,118L307,119 M307,118L308,119 M323,118L324,119 M324,118L325,119 M328,118L329,119 M329,118L330,119 M330,118L331,119 M374,118L375,119 M375,118L376,119 M423,118L424,119 M424,118L425,119 M455,118L456,119 M456,118L457,119 M457,118L458,119 M494,118L495,119 M495,118L496,119 M524,118L525,119 M525,118L526,119 M604,118L605,119 M605,118L606,119 M101,119L102,120 M102,119L103,120 M103,119L104,120 M135,119L136,120 M136,119L137,120 M180,119L181,120 M181,119L182,120 M306,119L307,120 M307,119L308,120 M323,119L324,120 M324,119L325,120 M328,119L329,120 M329,119L330,120 M374,119L375,120 M375,119L376,120 M423,119L424,120 M424,119L425,120 M456,119L457,120 M457,119L458,120 M493,119L494,120 M494,119L495,120 M495,119L496,120 M524,119L525,120 M525,119L526,120 M603,119L604,120 M604,119L605,120 M102,120L103,121 M103,120L104,121 M135,120L136,121 M136,120L137,121 M180,120L181,121 M181,120L182,121 M307,120L308,121 M308,120L309,121 M322,120L323,121 M323,120L324,121 M324,120L325,121 M328,120L329,121 M329,120L330,121 M374,120L375,121 M375,120L376,121 M423,120L424,121 M424,120L425,121 M456,120L457,121 M457,120L458,121 M458,120L459,121 M492,120L493,121 M493,120L494,121 M494,120L495,121 M524,120L525,121 M525,120L526,121 M603,120L604,121 M604,120L605,121 M102,121L103,122 M103,121L104,122 M135,121L136,122 M136,121L137,122 M180,121L181,122 M181,121L182,122 M307,121L308,122 M308,121L309,122 M309,121L310,122 M322,121L323,122 M323,121L324,122 M328,121L329,122 M329,121L330,122 M373,121L374,122 M374,121L375,122 M423,121L424,122 M424,121L425,122 M457,121L458,122 M458,121L459,122 M492,121L493,122 M493,121L494,122 M524,121L525,122 M525,121L526,122 M602,121L603,122 M603,121L604,122 M604,121L605,122 M102,122L103,123 M103,122L104,123 M134,122L135,123 M135,122L136,123 M136,122L137,123 M180,122L181,123 M181,122L182,123 M308,122L309,123 M309,122L310,123 M321,122L322,123 M322,122L323,123 M323,122L324,123 M328,122L329,123 M329,122L330,123 M373,122L374,123 M374,122L375,123 M423,122L424,123 M424,122L425,123 M458,122L459,123 M459,122L460,123 M491,122L492,123 M492,122L493,123 M493,122L494,123 M524,122L525,123 M525,122L526,123 M602,122L603,123 M603,122L604,123 M102,123L103,124 M103,123L104,124 M134,123L135,124 M135,123L136,124 M180,123L181,124 M181,123L182,124 M309,123L310,124 M310,123L311,124 M321,123L322,124 M322,123L323,124 M327,123L328,124 M328,123L329,124 M373,123L374,124 M374,123L375,124 M422,123L423,124 M423,123L424,124 M458,123L459,124 M459,123L460,124 M460,123L461,124 M490,123L491,124 M491,123L492,124 M492,123L493,124 M524,123L525,124 M525,123L526,124 M602,123L603,124 M603,123L604,124 M102,124L103,125 M103,124L104,125 M134,124L135,125 M135,124L136,125 M180,124L181,125 M181,124L182,125 M182,124L183,125 M309,124L310,125 M310,124L311,125 M311,124L312,125 M320,124L321,125 M321,124L322,125 M326,124L327,125 M327,124L328,125 M328,124L329,125 M373,124L374,125 M374,124L375,125 M422,124L423,125 M423,124L424,125 M459,124L460,125 M460,124L461,125 M461,124L462,125 M489,124L490,125 M490,124L491,125 M491,124L492,125 M524,124L525,125 M525,124L526,125 M601,124L602,125 M602,124L603,125 M103,125L104,126 M104,125L105,126 M134,125L135,126 M135,125L136,126 M181,125L182,126 M182,125L183,126 M183,125L184,126 M310,125L311,126 M311,125L312,126 M320,125L321,126 M321,125L322,126 M326,125L327,126 M327,125L328,126 M373,125L374,126 M374,125L375,126 M422,125L423,126 M423,125L424,126 M460,125L461,126 M461,125L462,126 M462,125L463,126 M463,125L464,126 M464,125L465,126 M465,125L466,126 M466,125L467,126 M467,125L468,126 M468,125L469,126 M469,125L470,126 M487,125L488,126 M488,125L489,126 M489,125L490,126 M490,125L491,126 M524,125L525,126 M525,125L526,126 M601,125L602,126 M602,125L603,126 M103,126L104,127 M104,126L105,127 M134,126L135,127 M135,126L136,127 M182,126L183,127 M183,126L184,127 M184,126L185,127 M311,126L312,127 M312,126L313,127 M319,126L320,127 M320,126L321,127 M325,126L326,127 M326,126L327,127 M373,126L374,127 M374,126L375,127 M421,126L422,127 M422,126L423,127 M423,126L424,127 M461,126L462,127 M462,126L463,127 M463,126L464,127 M464,126L465,127 M465,126L466,127 M466,126L467,127 M467,126L468,127 M468,126L469,127 M469,126L470,127 M470,126L471,127 M471,126L472,127 M472,126L473,127 M486,126L487,127 M487,126L488,127 M488,126L489,127 M524,126L525,127 M525,126L526,127 M601,126L602,127 M602,126L603,127 M103,127L104,128 M104,127L105,128 M133,127L134,128 M134,127L135,128 M183,127L184,128 M184,127L185,128 M224,127L225,128 M225,127L226,128 M226,127L227,128 M227,127L228,128 M228,127L229,128 M229,127L230,128 M230,127L231,128 M231,127L232,128 M232,127L233,128 M233,127L234,128 M311,127L312,128 M312,127L313,128 M313,127L314,128 M319,127L320,128 M320,127L321,128 M325,127L326,128 M326,127L327,128 M373,127L374,128 M374,127L375,128 M421,127L422,128 M422,127L423,128 M469,127L470,128 M470,127L471,128 M471,127L472,128 M472,127L473,128 M473,127L474,128 M474,127L475,128 M475,127L476,128 M485,127L486,128 M486,127L487,128 M487,127L488,128 M524,127L525,128 M525,127L526,128 M601,127L602,128 M602,127L603,128 M103,128L104,129 M104,128L105,129 M133,128L134,129 M134,128L135,129 M183,128L184,129 M184,128L185,129 M185,128L186,129 M186,128L187,129 M187,128L188,129 M188,128L189,129 M189,128L190,129 M222,128L223,129 M223,128L224,129 M224,128L225,129 M225,128L226,129 M226,128L227,129 M227,128L228,129 M228,128L229,129 M229,128L230,129 M230,128L231,129 M231,128L232,129 M232,128L233,129 M233,128L234,129 M312,128L313,129 M313,128L314,129 M318,128L319,129 M319,128L320,129 M324,128L325,129 M325,128L326,129 M326,128L327,129 M373,128L374,129 M374,128L375,129 M473,128L474,129 M474,128L475,129 M475,128L476,129 M476,128L477,129 M477,128L478,129 M478,128L479,129 M479,128L480,129 M480,128L481,129 M481,128L482,129 M482,128L483,129 M483,128L484,129 M484,128L485,129 M485,128L486,129 M486,128L487,129 M524,128L525,129 M525,128L526,129 M600,128L601,129 M601,128L602,129 M602,128L603,129 M104,129L105,130 M105,129L106,130 M133,129L134,130 M134,129L135,130 M184,129L185,130 M185,129L186,130 M186,129L187,130 M187,129L188,130 M188,129L189,130 M189,129L190,130 M190,129L191,130 M191,129L192,130 M192,129L193,130 M193,129L194,130 M194,129L195,130 M195,129L196,130 M196,129L197,130 M197,129L198,130 M198,129L199,130 M199,129L200,130 M200,129L201,130 M201,129L202,130 M202,129L203,130 M219,129L220,130 M220,129L221,130 M221,129L222,130 M222,129L223,130 M223,129L224,130 M224,129L225,130 M313,129L314,130 M314,129L315,130 M318,129L319,130 M319,129L320,130 M324,129L325,130 M325,129L326,130 M373,129L374,130 M374,129L375,130 M476,129L477,130 M477,129L478,130 M478,129L479,130 M479,129L480,130 M480,129L481,130 M481,129L482,130 M482,129L483,130 M483,129L484,130 M484,129L485,130 M485,129L486,130 M523,129L524,130 M524,129L525,130 M600,129L601,130 M601,129L602,130 M104,130L105,131 M105,130L106,131 M132,130L133,131 M133,130L134,131 M190,130L191,131 M191,130L192,131 M192,130L193,131 M193,130L194,131 M194,130L195,131 M195,130L196,131 M196,130L197,131 M197,130L198,131 M198,130L199,131 M199,130L200,131 M200,130L201,131 M201,130L202,131 M202,130L203,131 M203,130L204,131 M204,130L205,131 M205,130L206,131 M206,130L207,131 M207,130L208,131 M208,130L209,131 M209,130L210,131 M210,130L211,131 M211,130L212,131 M212,130L213,131 M213,130L214,131 M214,130L215,131 M215,130L216,131 M216,130L217,131 M217,130L218,131 M218,130L219,131 M219,130L220,131 M220,130L221,131 M221,130L222,131 M313,130L314,131 M314,130L315,131 M315,130L316,131 M317,130L318,131 M318,130L319,131 M319,130L320,131 M324,130L325,131 M325,130L326,131 M373,130L374,131 M374,130L375,131 M523,130L524,131 M524,130L525,131 M600,130L601,131 M601,130L602,131 M104,131L105,132 M105,131L106,132 M131,131L132,132 M132,131L133,132 M133,131L134,132 M203,131L204,132 M204,131L205,132 M205,131L206,132 M206,131L207,132 M207,131L208,132 M208,131L209,132 M209,131L210,132 M210,131L211,132 M211,131L212,132 M212,131L213,132 M213,131L214,132 M214,131L215,132 M215,131L216,132 M216,131L217,132 M217,131L218,132 M218,131L219,132 M314,131L315,132 M315,131L316,132 M316,131L317,132 M317,131L318,132 M318,131L319,132 M323,131L324,132 M324,131L325,132 M373,131L374,132 M374,131L375,132 M600,131L601,132 M601,131L602,132 M104,132L105,133 M105,132L106,133 M130,132L131,133 M131,132L132,133 M132,132L133,133 M315,132L316,133 M316,132L317,133 M317,132L318,133 M318,132L319,133 M322,132L323,133 M323,132L324,133 M324,132L325,133 M600,132L601,133 M601,132L602,133 M105,133L106,134 M106,133L107,134 M128,133L129,134 M129,133L130,134 M130,133L131,134 M131,133L132,134 M316,133L317,134 M317,133L318,134 M318,133L319,134 M322,133L323,134 M323,133L324,134 M105,134L106,135 M106,134L107,135 M127,134L128,135 M128,134L129,135 M129,134L130,135 M316,134L317,135 M317,134L318,135 M318,134L319,135 M321,134L322,135 M322,134L323,135 M105,135L106,136 M106,135L107,136 M125,135L126,136 M126,135L127,136 M127,135L128,136 M128,135L129,136 M316,135L317,136 M317,135L318,136 M318,135L319,136 M319,135L320,136 M320,135L321,136 M321,135L322,136 M105,136L106,137 M106,136L107,137 M123,136L124,137 M124,136L125,137 M125,136L126,137 M126,136L127,137 M315,136L316,137 M316,136L317,137 M319,136L320,137 M320,136L321,137 M321,136L322,137 M106,137L107,138 M107,137L108,138 M120,137L121,138 M121,137L122,138 M122,137L123,138 M123,137L124,138 M124,137L125,138 M125,137L126,138 M315,137L316,138 M316,137L317,138 M319,137L320,138 M320,137L321,138 M106,138L107,139 M107,138L108,139 M108,138L109,139 M109,138L110,139 M110,138L111,139 M111,138L112,139 M112,138L113,139 M113,138L114,139 M114,138L115,139 M115,138L116,139 M116,138L117,139 M117,138L118,139 M118,138L119,139 M119,138L120,139 M120,138L121,139 M121,138L122,139 M122,138L123,139 M314,138L315,139 M315,138L316,139 M316,138L317,139 M106,139L107,140 M107,139L108,140 M108,139L109,140 M109,139L110,140 M110,139L111,140 M111,139L112,140 M112,139L113,140 M113,139L114,140 M114,139L115,140 M115,139L116,140 M116,139L117,140 M117,139L118,140 M118,139L119,140 M119,139L120,140 M314,139L315,140 M315,139L316,140 M314,140L315,141 M315,140L316,141 M313,141L314,142 M314,141L315,142 M313,142L314,143 M314,142L315,143 M313,143L314,144 M314,143L315,144 M312,144L313,145 M313,144L314,145 M312,145L313,146 M313,145L314,146 M311,146L312,147 M312,146L313,147 M311,147L312,148 M312,147L313,148 M310,148L311,149 M311,148L312,149 M310,149L311,150 M311,149L312,150 M309,150L310,151 M310,150L311,151 M309,151L310,152 M310,151L311,152 M308,152L309,153 M309,152L310,153 M308,153L309,154 M309,153L310,154 M307,154L308,155 M308,154L309,155 M306,155L307,156 M307,155L308,156 M308,155L309,156 M306,156L307,157 M307,156L308,157 M305,157L306,158 M306,157L307,158 M307,157L308,158 M305,158L306,159 M306,158L307,159 M304,159L305,160 M305,159L306,160 M304,160L305,161 M305,160L306,161 M303,161L304,162 M304,161L305,162 M305,161L306,162 M303,162L304,163 M304,162L305,163 M303,163L304,164 M304,163L305,164 M302,164L303,165 M303,164L304,165 M300,165L301,166 M301,165L302,166 M302,165L303,166 M303,165L304,166 M299,166L300,167 M300,166L301,167 M301,166L302,167 M298,167L299,168 M299,167L300,168 M300,167L301,168 M298,168L299,169 M299,168L300,169 M297,169L298,170 M298,169L299,170 M299,169L300,170 M296,170L297,171 M297,170L298,171 M298,170L299,171 M296,171L297,172 M297,171L298,172 M295,172L296,173 M296,172L297,173 M297,172L298,173 M294,173L295,174 M295,173L296,174 M296,173L297,174 M294,174L295,175 M295,174L296,175 M293,175L294,176 M294,175L295,176 M292,176L293,177 M293,176L294,177 M294,176L295,177 M291,177L292,178 M292,177L293,178 M293,177L294,178 M290,178L291,179 M291,178L292,179 M292,178L293,179 M289,179L290,180 M290,179L291,180 M291,179L292,180 M289,180L290,181 M290,180L291,181 M288,181L289,182 M289,181L290,182 M287,182L288,183 M288,182L289,183 M289,182L290,183 M286,183L287,184 M287,183L288,184 M288,183L289,184 M286,184L287,185 M287,184L288,185 M285,185L286,186 M286,185L287,186 M287,185L288,186 M284,186L285,187 M285,186L286,187 M286,186L287,187 M284,187L285,188 M285,187L286,188 M284,188L285,189 M285,188L286,189 M283,189L284,190 M284,189L285,190 M283,190L284,191 M284,190L285,191 M283,191L284,192 M284,191L285,192 M282,192L283,193 M283,192L284,193 M282,193L283,194 M283,193L284,194 M282,194L283,195 M283,194L284,195" fill="none" stroke="black" />
    </svg>