<svg xmlns="http://www.w3.org/2000/svg" width="800" height="250">
        <path d="M192,50L193,51 M193,50L194,51 M191,51L192,52 M192,51L193,52 M193,51L194,52 M194,51L195,52 M190,52L191,53 M191,52L192,53 M192,52L193,53 M193,52L194,53 M189,53L190,54 M190,53L191,54 M191,53L192,54 M192,53L193,54 M189,54L190,55 M190,54L191,55 M191,54L192,55 M188,55L189,56 M189,55L190,56 M190,55L191,56 M187,56L188,57 M188,56L189,57 M189,56L190,57 M186,57L187,58 M187,57L188,58 M188,57L189,58 M186,58L187,59 M187,58L188,59 M185,59L186,60 M186,59L187,60 M184,60L185,61 M185,60L186,61 M186,60L187,61 M183,61L184,62 M184,61L185,62 M185,61L186,62 M183,62L184,63 M184,62L185,63 M182,63L183,64 M183,63L184,64 M181,64L182,65 M182,64L183,65 M183,64L184,65 M180,65L181,66 M181,65L182,66 M182,65L183,66 M180,66L181,67 M181,66L182,67 M179,67L180,68 M180,67L181,68 M178,68L179,69 M179,68L180,69 M180,68L181,69 M177,69L178,70 M178,69L179,70 M179,69L180,70 M176,70L177,71 M177,70L178,71 M178,70L179,71 M176,71L177,72 M177,71L178,72 M175,72L176,73 M176,72L177,73 M174,73L175,74 M175,73L176,74 M176,73L177,74 M173,74L174,75 M174,74L175,75 M175,74L176,75 M173,75L174,76 M174,75L175,76 M172,76L173,77 M173,76L174,77 M171,77L172,78 M172,77L173,78 M173,77L174,78 M170,78L171,79 M171,78L172,79 M172,78L173,79 M170,79L171,80 M171,79L172,80 M169,80L170,81 M170,80L171,81 M168,81L169,82 M169,81L170,82 M170,81L171,82 M167,82L168,83 M168,82L169,83 M169,82L170,83 M167,83L168,84 M168,83L169,84 M166,84L167,85 M167,84L168,85 M165,85L166,86 M166,85L167,86 M167,85L168,86 M165,86L166,87 M166,86L167,87 M164,87L165,88 M165,87L166,88 M163,88L164,89 M164,88L165,89 M165,88L166,89 M254,88L255,89 M255,88L256,89 M256,88L257,89 M162,89L163,90 M163,89L164,90 M164,89L165,90 M253,89L254,90 M254,89L255,90 M255,89L256,90 M256,89L257,90 M162,90L163,91 M163,90L164,91 M252,90L253,91 M253,90L254,91 M254,90L255,91 M255,90L256,91 M256,90L257,91 M161,91L162,92 M162,91L163,92 M163,91L164,92 M252,91L253,92 M253,91L254,92 M254,91L255,92 M255,91L256,92 M256,91L257,92 M160,92L161,93 M161,92L162,93 M162,92L163,93 M201,92L202,93 M202,92L203,93 M251,92L252,93 M252,92L253,93 M253,92L254,93 M254,92L255,93 M255,92L256,93 M160,93L161,94 M161,93L162,94 M200,93L201,94 M201,93L202,94 M202,93L203,94 M203,93L204,94 M251,93L252,94 M252,93L253,94 M254,93L255,94 M255,93L256,94 M159,94L160,95 M160,94L161,95 M199,94L200,95 M200,94L201,95 M201,94L202,95 M202,94L203,95 M250,94L251,95 M251,94L252,95 M253,94L254,95 M254,94L255,95 M158,95L159,96 M159,95L160,96 M160,95L161,96 M198,95L199,96 M199,95L200,96 M200,95L201,96 M201,95L202,96 M250,95L251,96 M251,95L252,96 M253,95L254,96 M254,95L255,96 M158,96L159,97 M159,96L160,97 M197,96L198,97 M198,96L199,97 M199,96L200,97 M200,96L201,97 M249,96L250,97 M250,96L251,97 M252,96L253,97 M253,96L254,97 M157,97L158,98 M158,97L159,98 M196,97L197,98 M197,97L198,98 M198,97L199,98 M199,97L200,98 M200,97L201,98 M249,97L250,98 M250,97L251,98 M252,97L253,98 M253,97L254,98 M156,98L157,99 M157,98L158,99 M158,98L159,99 M195,98L196,99 M196,98L197,99 M197,98L198,99 M198,98L199,99 M199,98L200,99 M248,98L249,99 M249,98L250,99 M251,98L252,99 M252,98L253,99 M155,99L156,100 M156,99L157,100 M157,99L158,100 M194,99L195,100 M195,99L196,100 M196,99L197,100 M197,99L198,100 M198,99L199,100 M248,99L249,100 M249,99L250,100 M250,99L251,100 M251,99L252,100 M252,99L253,100 M155,100L156,101 M156,100L157,101 M193,100L194,101 M194,100L195,101 M195,100L196,101 M196,100L197,101 M247,100L248,101 M248,100L249,101 M249,100L250,101 M250,100L251,101 M251,100L252,101 M154,101L155,102 M155,101L156,102 M156,101L157,102 M192,101L193,102 M193,101L194,102 M194,101L195,102 M195,101L196,102 M247,101L248,102 M248,101L249,102 M249,101L250,102 M250,101L251,102 M251,101L252,102 M154,102L155,103 M155,102L156,103 M191,102L192,103 M192,102L193,103 M193,102L194,103 M246,102L247,103 M247,102L248,103 M248,102L249,103 M249,102L250,103 M250,102L251,103 M153,103L154,104 M154,103L155,104 M190,103L191,104 M191,103L192,104 M192,103L193,104 M193,103L194,104 M246,103L247,104 M247,103L248,104 M248,103L249,104 M249,103L250,104 M153,104L154,105 M154,104L155,105 M189,104L190,105 M190,104L191,105 M191,104L192,105 M192,104L193,105 M246,104L247,105 M247,104L248,105 M248,104L249,105 M249,104L250,105 M152,105L153,106 M153,105L154,106 M188,105L189,106 M189,105L190,106 M190,105L191,106 M191,105L192,106 M245,105L246,106 M246,105L247,106 M247,105L248,106 M248,105L249,106 M151,106L152,107 M152,106L153,107 M153,106L154,107 M187,106L188,107 M188,106L189,107 M189,106L190,107 M190,106L191,107 M191,106L192,107 M244,106L245,107 M245,106L246,107 M246,106L247,107 M247,106L248,107 M248,106L249,107 M151,107L152,108 M152,107L153,108 M185,107L186,108 M186,107L187,108 M187,107L188,108 M188,107L189,108 M189,107L190,108 M190,107L191,108 M244,107L245,108 M245,107L246,108 M246,107L247,108 M247,107L248,108 M150,108L151,109 M151,108L152,109 M152,108L153,109 M184,108L185,109 M185,108L186,109 M186,108L187,109 M188,108L189,109 M189,108L190,109 M243,108L244,109 M244,108L245,109 M246,108L247,109 M247,108L248,109 M150,109L151,110 M151,109L152,110 M183,109L184,110 M184,109L185,110 M185,109L186,110 M187,109L188,110 M188,109L189,110 M189,109L190,110 M242,109L243,110 M243,109L244,110 M245,109L246,110 M246,109L247,110 M149,110L150,111 M150,110L151,111 M151,110L152,111 M182,110L183,111 M183,110L184,111 M184,110L185,111 M186,110L187,111 M187,110L188,111 M188,110L189,111 M241,110L242,111 M242,110L243,111 M243,110L244,111 M245,110L246,111 M246,110L247,111 M149,111L150,112 M150,111L151,112 M181,111L182,112 M182,111L183,112 M183,111L184,112 M186,111L187,112 M187,111L188,112 M240,111L241,112 M241,111L242,112 M242,111L243,112 M244,111L245,112 M245,111L246,112 M148,112L149,113 M149,112L150,113 M150,112L151,113 M180,112L181,113 M181,112L182,113 M182,112L183,113 M185,112L186,113 M186,112L187,113 M240,112L241,113 M241,112L242,113 M244,112L245,113 M245,112L246,113 M148,113L149,114 M149,113L150,114 M179,113L180,114 M180,113L181,114 M181,113L182,114 M184,113L185,114 M185,113L186,114 M186,113L187,114 M239,113L240,114 M240,113L241,114 M243,113L244,114 M244,113L245,114 M147,114L148,115 M148,114L149,115 M178,114L179,115 M179,114L180,115 M180,114L181,115 M183,114L184,115 M184,114L185,115 M185,114L186,115 M238,114L239,115 M239,114L240,115 M240,114L241,115 M243,114L244,115 M244,114L245,115 M147,115L148,116 M148,115L149,116 M177,115L178,116 M178,115L179,116 M179,115L180,116 M183,115L184,116 M184,115L185,116 M237,115L238,116 M238,115L239,116 M239,115L240,116 M242,115L243,116 M243,115L244,116 M302,115L303,116 M303,115L304,116 M304,115L305,116 M305,115L306,116 M306,115L307,116 M146,116L147,117 M147,116L148,117 M176,116L177,117 M177,116L178,117 M178,116L179,117 M182,116L183,117 M183,116L184,117 M236,116L237,117 M237,116L238,117 M238,116L239,117 M242,116L243,117 M243,116L244,117 M302,116L303,117 M303,116L304,117 M304,116L305,117 M305,116L306,117 M306,116L307,117 M146,117L147,118 M147,117L148,118 M175,117L176,118 M176,117L177,118 M177,117L178,118 M181,117L182,118 M182,117L183,118 M183,117L184,118 M236,117L237,118 M237,117L238,118 M241,117L242,118 M242,117L243,118 M145,118L146,119 M146,118L147,119 M174,118L175,119 M175,118L176,119 M176,118L177,119 M180,118L181,119 M181,118L182,119 M182,118L183,119 M235,118L236,119 M236,118L237,119 M241,118L242,119 M242,118L243,119 M145,119L146,120 M146,119L147,120 M173,119L174,120 M174,119L175,120 M175,119L176,120 M180,119L181,120 M181,119L182,120 M234,119L235,120 M235,119L236,120 M240,119L241,120 M241,119L242,120 M144,120L145,121 M145,120L146,121 M172,120L173,121 M173,120L174,121 M174,120L175,121 M179,120L180,121 M180,120L181,121 M233,120L234,121 M234,120L235,121 M235,120L236,121 M240,120L241,121 M241,120L242,121 M143,121L144,122 M144,121L145,122 M145,121L146,122 M171,121L172,122 M172,121L173,122 M173,121L174,122 M178,121L179,122 M179,121L180,122 M180,121L181,122 M232,121L233,122 M233,121L234,122 M234,121L235,122 M240,121L241,122 M241,121L242,122 M143,122L144,123 M144,122L145,123 M170,122L171,123 M171,122L172,123 M172,122L173,123 M177,122L178,123 M178,122L179,123 M179,122L180,123 M230,122L231,123 M231,122L232,123 M232,122L233,123 M233,122L234,123 M239,122L240,123 M240,122L241,123 M142,123L143,124 M143,123L144,124 M144,123L145,124 M169,123L170,124 M170,123L171,124 M171,123L172,124 M177,123L178,124 M178,123L179,124 M212,123L213,124 M213,123L214,124 M214,123L215,124 M215,123L216,124 M216,123L217,124 M217,123L218,124 M228,123L229,124 M229,123L230,124 M230,123L231,124 M231,123L232,124 M232,123L233,124 M239,123L240,124 M240,123L241,124 M142,124L143,125 M143,124L144,125 M168,124L169,125 M169,124L170,125 M170,124L171,125 M176,124L177,125 M177,124L178,125 M209,124L210,125 M210,124L211,125 M211,124L212,125 M212,124L213,125 M213,124L214,125 M214,124L215,125 M215,124L216,125 M216,124L217,125 M217,124L218,125 M227,124L228,125 M228,124L229,125 M229,124L230,125 M239,124L240,125 M240,124L241,125 M141,125L142,126 M142,125L143,126 M143,125L144,126 M167,125L168,126 M168,125L169,126 M169,125L170,126 M175,125L176,126 M176,125L177,126 M177,125L178,126 M208,125L209,126 M209,125L210,126 M210,125L211,126 M211,125L212,126 M216,125L217,126 M217,125L218,126 M222,125L223,126 M223,125L224,126 M224,125L225,126 M225,125L226,126 M226,125L227,126 M227,125L228,126 M228,125L229,126 M238,125L239,126 M239,125L240,126 M240,125L241,126 M141,126L142,127 M142,126L143,127 M166,126L167,127 M167,126L168,127 M168,126L169,127 M174,126L175,127 M175,126L176,127 M176,126L177,127 M207,126L208,127 M208,126L209,127 M209,126L210,127 M216,126L217,127 M217,126L218,127 M218,126L219,127 M219,126L220,127 M221,126L222,127 M222,126L223,127 M223,126L224,127 M224,126L225,127 M225,126L226,127 M226,126L227,127 M227,126L228,127 M238,126L239,127 M239,126L240,127 M140,127L141,128 M141,127L142,128 M165,127L166,128 M166,127L167,128 M167,127L168,128 M174,127L175,128 M175,127L176,128 M206,127L207,128 M207,127L208,128 M208,127L209,128 M217,127L218,128 M218,127L219,128 M219,127L220,128 M220,127L221,128 M221,127L222,128 M222,127L223,128 M223,127L224,128 M224,127L225,128 M225,127L226,128 M226,127L227,128 M227,127L228,128 M238,127L239,128 M239,127L240,128 M140,128L141,129 M141,128L142,129 M164,128L165,129 M165,128L166,129 M166,128L167,129 M173,128L174,129 M174,128L175,129 M205,128L206,129 M206,128L207,129 M207,128L208,129 M218,128L219,129 M219,128L220,129 M220,128L221,129 M221,128L222,129 M222,128L223,129 M223,128L224,129 M224,128L225,129 M225,128L226,129 M238,128L239,129 M239,128L240,129 M139,129L140,130 M140,129L141,130 M163,129L164,130 M164,129L165,130 M165,129L166,130 M172,129L173,130 M173,129L174,130 M203,129L204,130 M204,129L205,130 M205,129L206,130 M217,129L218,130 M218,129L219,130 M219,129L220,130 M223,129L224,130 M224,129L225,130 M225,129L226,130 M237,129L238,130 M238,129L239,130 M274,129L275,130 M275,129L276,130 M276,129L277,130 M277,129L278,130 M278,129L279,130 M279,129L280,130 M280,129L281,130 M281,129L282,130 M282,129L283,130 M139,130L140,131 M140,130L141,131 M162,130L163,131 M163,130L164,131 M164,130L165,131 M171,130L172,131 M172,130L173,131 M173,130L174,131 M202,130L203,131 M203,130L204,131 M204,130L205,131 M216,130L217,131 M217,130L218,131 M218,130L219,131 M222,130L223,131 M223,130L224,131 M224,130L225,131 M237,130L238,131 M238,130L239,131 M271,130L272,131 M272,130L273,131 M273,130L274,131 M274,130L275,131 M275,130L276,131 M276,130L277,131 M277,130L278,131 M278,130L279,131 M279,130L280,131 M280,130L281,131 M281,130L282,131 M282,130L283,131 M138,131L139,132 M139,131L140,132 M161,131L162,132 M162,131L163,132 M163,131L164,132 M170,131L171,132 M171,131L172,132 M172,131L173,132 M201,131L202,132 M202,131L203,132 M203,131L204,132 M215,131L216,132 M216,131L217,132 M217,131L218,132 M222,131L223,132 M223,131L224,132 M237,131L238,132 M238,131L239,132 M267,131L268,132 M268,131L269,132 M269,131L270,132 M270,131L271,132 M271,131L272,132 M272,131L273,132 M273,131L274,132 M281,131L282,132 M282,131L283,132 M138,132L139,133 M139,132L140,133 M160,132L161,133 M161,132L162,133 M162,132L163,133 M170,132L171,133 M171,132L172,133 M199,132L200,133 M200,132L201,133 M201,132L202,133 M202,132L203,133 M214,132L215,133 M215,132L216,133 M216,132L217,133 M221,132L222,133 M222,132L223,133 M237,132L238,133 M238,132L239,133 M264,132L265,133 M265,132L266,133 M266,132L267,133 M267,132L268,133 M268,132L269,133 M269,132L270,133 M270,132L271,133 M281,132L282,133 M282,132L283,133 M138,133L139,134 M139,133L140,134 M159,133L160,134 M160,133L161,134 M161,133L162,134 M169,133L170,134 M170,133L171,134 M197,133L198,134 M198,133L199,134 M199,133L200,134 M200,133L201,134 M201,133L202,134 M213,133L214,134 M214,133L215,134 M215,133L216,134 M220,133L221,134 M221,133L222,134 M222,133L223,134 M236,133L237,134 M237,133L238,134 M261,133L262,134 M262,133L263,134 M263,133L264,134 M264,133L265,134 M265,133L266,134 M266,133L267,134 M267,133L268,134 M281,133L282,134 M282,133L283,134 M137,134L138,135 M138,134L139,135 M157,134L158,135 M158,134L159,135 M159,134L160,135 M168,134L169,135 M169,134L170,135 M170,134L171,135 M195,134L196,135 M196,134L197,135 M197,134L198,135 M198,134L199,135 M199,134L200,135 M212,134L213,135 M213,134L214,135 M214,134L215,135 M219,134L220,135 M220,134L221,135 M221,134L222,135 M236,134L237,135 M237,134L238,135 M258,134L259,135 M259,134L260,135 M260,134L261,135 M261,134L262,135 M262,134L263,135 M263,134L264,135 M281,134L282,135 M282,134L283,135 M137,135L138,136 M138,135L139,136 M156,135L157,136 M157,135L158,136 M158,135L159,136 M167,135L168,136 M168,135L169,136 M169,135L170,136 M193,135L194,136 M194,135L195,136 M195,135L196,136 M196,135L197,136 M197,135L198,136 M198,135L199,136 M211,135L212,136 M212,135L213,136 M213,135L214,136 M218,135L219,136 M219,135L220,136 M220,135L221,136 M236,135L237,136 M237,135L238,136 M255,135L256,136 M256,135L257,136 M257,135L258,136 M258,135L259,136 M259,135L260,136 M260,135L261,136 M280,135L281,136 M281,135L282,136 M136,136L137,137 M137,136L138,137 M138,136L139,137 M155,136L156,137 M156,136L157,137 M157,136L158,137 M167,136L168,137 M168,136L169,137 M190,136L191,137 M191,136L192,137 M192,136L193,137 M193,136L194,137 M194,136L195,137 M195,136L196,137 M196,136L197,137 M210,136L211,137 M211,136L212,137 M212,136L213,137 M217,136L218,137 M218,136L219,137 M219,136L220,137 M235,136L236,137 M236,136L237,137 M237,136L238,137 M253,136L254,137 M254,136L255,137 M255,136L256,137 M256,136L257,137 M257,136L258,137 M280,136L281,137 M281,136L282,137 M296,136L297,137 M297,136L298,137 M298,136L299,137 M299,136L300,137 M136,137L137,138 M137,137L138,138 M153,137L154,138 M154,137L155,138 M155,137L156,138 M156,137L157,138 M166,137L167,138 M167,137L168,138 M168,137L169,138 M169,137L170,138 M170,137L171,138 M171,137L172,138 M172,137L173,138 M173,137L174,138 M174,137L175,138 M175,137L176,138 M176,137L177,138 M177,137L178,138 M178,137L179,138 M179,137L180,138 M180,137L181,138 M181,137L182,138 M187,137L188,138 M188,137L189,138 M189,137L190,138 M190,137L191,138 M191,137L192,138 M192,137L193,138 M193,137L194,138 M194,137L195,138 M195,137L196,138 M209,137L210,138 M210,137L211,138 M211,137L212,138 M216,137L217,138 M217,137L218,138 M218,137L219,138 M235,137L236,138 M236,137L237,138 M251,137L252,138 M252,137L253,138 M253,137L254,138 M254,137L255,138 M279,137L280,138 M280,137L281,138 M281,137L282,138 M287,137L288,138 M288,137L289,138 M289,137L290,138 M295,137L296,138 M296,137L297,138 M297,137L298,138 M298,137L299,138 M299,137L300,138 M136,138L137,139 M137,138L138,139 M152,138L153,139 M153,138L154,139 M154,138L155,139 M155,138L156,139 M164,138L165,139 M165,138L166,139 M166,138L167,139 M167,138L168,139 M168,138L169,139 M169,138L170,139 M170,138L171,139 M171,138L172,139 M172,138L173,139 M173,138L174,139 M174,138L175,139 M175,138L176,139 M176,138L177,139 M177,138L178,139 M178,138L179,139 M179,138L180,139 M180,138L181,139 M181,138L182,139 M185,138L186,139 M186,138L187,139 M187,138L188,139 M188,138L189,139 M189,138L190,139 M192,138L193,139 M193,138L194,139 M194,138L195,139 M209,138L210,139 M210,138L211,139 M215,138L216,139 M216,138L217,139 M217,138L218,139 M235,138L236,139 M236,138L237,139 M249,138L250,139 M250,138L251,139 M251,138L252,139 M252,138L253,139 M279,138L280,139 M280,138L281,139 M286,138L287,139 M287,138L288,139 M288,138L289,139 M289,138L290,139 M294,138L295,139 M295,138L296,139 M296,138L297,139 M298,138L299,139 M299,138L300,139 M135,139L136,140 M136,139L137,140 M151,139L152,140 M152,139L153,140 M153,139L154,140 M163,139L164,140 M164,139L165,140 M165,139L166,140 M166,139L167,140 M180,139L181,140 M181,139L182,140 M182,139L183,140 M183,139L184,140 M184,139L185,140 M185,139L186,140 M186,139L187,140 M187,139L188,140 M191,139L192,140 M192,139L193,140 M193,139L194,140 M208,139L209,140 M209,139L210,140 M214,139L215,140 M215,139L216,140 M216,139L217,140 M235,139L236,140 M236,139L237,140 M247,139L248,140 M248,139L249,140 M249,139L250,140 M250,139L251,140 M279,139L280,140 M280,139L281,140 M285,139L286,140 M286,139L287,140 M287,139L288,140 M288,139L289,140 M289,139L290,140 M294,139L295,140 M295,139L296,140 M297,139L298,140 M298,139L299,140 M308,139L309,140 M309,139L310,140 M310,139L311,140 M135,140L136,141 M136,140L137,141 M149,140L150,141 M150,140L151,141 M151,140L152,141 M152,140L153,141 M162,140L163,141 M163,140L164,141 M164,140L165,141 M165,140L166,141 M166,140L167,141 M178,140L179,141 M179,140L180,141 M180,140L181,141 M181,140L182,141 M182,140L183,141 M183,140L184,141 M184,140L185,141 M190,140L191,141 M191,140L192,141 M192,140L193,141 M207,140L208,141 M208,140L209,141 M209,140L210,141 M213,140L214,141 M214,140L215,141 M215,140L216,141 M234,140L235,141 M235,140L236,141 M245,140L246,141 M246,140L247,141 M247,140L248,141 M248,140L249,141 M278,140L279,141 M279,140L280,141 M284,140L285,141 M285,140L286,141 M286,140L287,141 M287,140L288,141 M288,140L289,141 M293,140L294,141 M294,140L295,141 M297,140L298,141 M298,140L299,141 M304,140L305,141 M305,140L306,141 M306,140L307,141 M307,140L308,141 M308,140L309,141 M309,140L310,141 M310,140L311,141 M134,141L135,142 M135,141L136,142 M148,141L149,142 M149,141L150,142 M150,141L151,142 M161,141L162,142 M162,141L163,142 M163,141L164,142 M164,141L165,142 M165,141L166,142 M174,141L175,142 M175,141L176,142 M176,141L177,142 M177,141L178,142 M178,141L179,142 M179,141L180,142 M180,141L181,142 M181,141L182,142 M190,141L191,142 M191,141L192,142 M192,141L193,142 M207,141L208,142 M208,141L209,142 M212,141L213,142 M213,141L214,142 M214,141L215,142 M234,141L235,142 M235,141L236,142 M243,141L244,142 M244,141L245,142 M245,141L246,142 M246,141L247,142 M247,141L248,142 M278,141L279,142 M279,141L280,142 M284,141L285,142 M285,141L286,142 M286,141L287,142 M287,141L288,142 M288,141L289,142 M292,141L293,142 M293,141L294,142 M297,141L298,142 M298,141L299,142 M301,141L302,142 M302,141L303,142 M303,141L304,142 M304,141L305,142 M305,141L306,142 M306,141L307,142 M307,141L308,142 M309,141L310,142 M310,141L311,142 M133,142L134,143 M134,142L135,143 M135,142L136,143 M147,142L148,143 M148,142L149,143 M149,142L150,143 M161,142L162,143 M162,142L163,143 M163,142L164,143 M164,142L165,143 M165,142L166,143 M166,142L167,143 M167,142L168,143 M168,142L169,143 M169,142L170,143 M170,142L171,143 M171,142L172,143 M172,142L173,143 M173,142L174,143 M174,142L175,143 M175,142L176,143 M176,142L177,143 M177,142L178,143 M178,142L179,143 M179,142L180,143 M189,142L190,143 M190,142L191,143 M191,142L192,143 M206,142L207,143 M207,142L208,143 M211,142L212,143 M212,142L213,143 M213,142L214,143 M234,142L235,143 M235,142L236,143 M242,142L243,143 M243,142L244,143 M244,142L245,143 M245,142L246,143 M277,142L278,143 M278,142L279,143 M279,142L280,143 M283,142L284,143 M284,142L285,143 M286,142L287,143 M287,142L288,143 M291,142L292,143 M292,142L293,143 M293,142L294,143 M296,142L297,143 M297,142L298,143 M300,142L301,143 M301,142L302,143 M302,142L303,143 M303,142L304,143 M309,142L310,143 M310,142L311,143 M322,142L323,143 M323,142L324,143 M324,142L325,143 M325,142L326,143 M133,143L134,144 M134,143L135,144 M146,143L147,144 M147,143L148,144 M148,143L149,144 M162,143L163,144 M163,143L164,144 M164,143L165,144 M165,143L166,144 M166,143L167,144 M167,143L168,144 M168,143L169,144 M169,143L170,144 M170,143L171,144 M171,143L172,144 M172,143L173,144 M173,143L174,144 M178,143L179,144 M179,143L180,144 M188,143L189,144 M189,143L190,144 M190,143L191,144 M206,143L207,144 M207,143L208,144 M210,143L211,144 M211,143L212,144 M212,143L213,144 M233,143L234,144 M234,143L235,144 M235,143L236,144 M240,143L241,144 M241,143L242,144 M242,143L243,144 M243,143L244,144 M277,143L278,144 M278,143L279,144 M282,143L283,144 M283,143L284,144 M284,143L285,144 M285,143L286,144 M286,143L287,144 M290,143L291,144 M291,143L292,144 M292,143L293,144 M296,143L297,144 M297,143L298,144 M298,143L299,144 M299,143L300,144 M300,143L301,144 M301,143L302,144 M309,143L310,144 M310,143L311,144 M319,143L320,144 M320,143L321,144 M321,143L322,144 M322,143L323,144 M323,143L324,144 M324,143L325,144 M325,143L326,144 M132,144L133,145 M133,144L134,145 M134,144L135,145 M144,144L145,145 M145,144L146,145 M146,144L147,145 M147,144L148,145 M162,144L163,145 M163,144L164,145 M177,144L178,145 M178,144L179,145 M187,144L188,145 M188,144L189,145 M189,144L190,145 M205,144L206,145 M206,144L207,145 M207,144L208,145 M209,144L210,145 M210,144L211,145 M211,144L212,145 M233,144L234,145 M234,144L235,145 M238,144L239,145 M239,144L240,145 M240,144L241,145 M241,144L242,145 M277,144L278,145 M278,144L279,145 M281,144L282,145 M282,144L283,145 M283,144L284,145 M285,144L286,145 M286,144L287,145 M289,144L290,145 M290,144L291,145 M291,144L292,145 M295,144L296,145 M296,144L297,145 M297,144L298,145 M298,144L299,145 M299,144L300,145 M309,144L310,145 M310,144L311,145 M315,144L316,145 M316,144L317,145 M317,144L318,145 M318,144L319,145 M319,144L320,145 M320,144L321,145 M321,144L322,145 M324,144L325,145 M325,144L326,145 M132,145L133,146 M133,145L134,146 M143,145L144,146 M144,145L145,146 M145,145L146,146 M162,145L163,146 M163,145L164,146 M176,145L177,146 M177,145L178,146 M178,145L179,146 M186,145L187,146 M187,145L188,146 M188,145L189,146 M205,145L206,146 M206,145L207,146 M207,145L208,146 M208,145L209,146 M209,145L210,146 M210,145L211,146 M233,145L234,146 M234,145L235,146 M237,145L238,146 M238,145L239,146 M239,145L240,146 M276,145L277,146 M277,145L278,146 M278,145L279,146 M281,145L282,146 M282,145L283,146 M284,145L285,146 M285,145L286,146 M286,145L287,146 M288,145L289,146 M289,145L290,146 M290,145L291,146 M295,145L296,146 M296,145L297,146 M297,145L298,146 M298,145L299,146 M309,145L310,146 M310,145L311,146 M312,145L313,146 M313,145L314,146 M314,145L315,146 M315,145L316,146 M316,145L317,146 M317,145L318,146 M318,145L319,146 M324,145L325,146 M325,145L326,146 M131,146L132,147 M132,146L133,147 M142,146L143,147 M143,146L144,147 M144,146L145,147 M161,146L162,147 M162,146L163,147 M176,146L177,147 M177,146L178,147 M185,146L186,147 M186,146L187,147 M187,146L188,147 M205,146L206,147 M206,146L207,147 M207,146L208,147 M208,146L209,147 M209,146L210,147 M232,146L233,147 M233,146L234,147 M234,146L235,147 M235,146L236,147 M236,146L237,147 M237,146L238,147 M238,146L239,147 M276,146L277,147 M277,146L278,147 M280,146L281,147 M281,146L282,147 M284,146L285,147 M285,146L286,147 M286,146L287,147 M287,146L288,147 M288,146L289,147 M289,146L290,147 M294,146L295,147 M295,146L296,147 M296,146L297,147 M297,146L298,147 M309,146L310,147 M310,146L311,147 M311,146L312,147 M312,146L313,147 M313,146L314,147 M314,146L315,147 M324,146L325,147 M325,146L326,147 M131,147L132,148 M132,147L133,148 M141,147L142,148 M142,147L143,148 M143,147L144,148 M161,147L162,148 M162,147L163,148 M175,147L176,148 M176,147L177,148 M177,147L178,148 M184,147L185,148 M185,147L186,148 M186,147L187,148 M206,147L207,148 M232,147L233,148 M233,147L234,148 M234,147L235,148 M235,147L236,148 M236,147L237,148 M276,147L277,148 M277,147L278,148 M279,147L280,148 M280,147L281,148 M284,147L285,148 M285,147L286,148 M286,147L287,148 M287,147L288,148 M295,147L296,148 M308,147L309,148 M309,147L310,148 M310,147L311,148 M311,147L312,148 M312,147L313,148 M323,147L324,148 M324,147L325,148 M325,147L326,148 M130,148L131,149 M131,148L132,149 M139,148L140,149 M140,148L141,149 M141,148L142,149 M142,148L143,149 M160,148L161,149 M161,148L162,149 M175,148L176,149 M176,148L177,149 M183,148L184,149 M184,148L185,149 M185,148L186,149 M232,148L233,149 M233,148L234,149 M234,148L235,149 M235,148L236,149 M275,148L276,149 M276,148L277,149 M277,148L278,149 M278,148L279,149 M279,148L280,149 M280,148L281,149 M283,148L284,149 M284,148L285,149 M285,148L286,149 M286,148L287,149 M308,148L309,149 M309,148L310,149 M310,148L311,149 M311,148L312,149 M323,148L324,149 M324,148L325,149 M130,149L131,150 M131,149L132,150 M138,149L139,150 M139,149L140,150 M140,149L141,150 M160,149L161,150 M161,149L162,150 M174,149L175,150 M175,149L176,150 M182,149L183,150 M183,149L184,150 M184,149L185,150 M232,149L233,150 M233,149L234,150 M275,149L276,150 M276,149L277,150 M277,149L278,150 M278,149L279,150 M279,149L280,150 M284,149L285,150 M285,149L286,150 M308,149L309,150 M309,149L310,150 M310,149L311,150 M322,149L323,150 M323,149L324,150 M130,150L131,151 M131,150L132,151 M136,150L137,151 M137,150L138,151 M138,150L139,151 M139,150L140,151 M159,150L160,151 M160,150L161,151 M173,150L174,151 M174,150L175,151 M175,150L176,151 M181,150L182,151 M182,150L183,151 M183,150L184,151 M231,150L232,151 M232,150L233,151 M233,150L234,151 M275,150L276,151 M276,150L277,151 M277,150L278,151 M278,150L279,151 M308,150L309,151 M309,150L310,151 M310,150L311,151 M311,150L312,151 M312,150L313,151 M321,150L322,151 M322,150L323,151 M323,150L324,151 M129,151L130,152 M130,151L131,152 M135,151L136,152 M136,151L137,152 M137,151L138,152 M159,151L160,152 M160,151L161,152 M171,151L172,152 M172,151L173,152 M173,151L174,152 M174,151L175,152 M180,151L181,152 M181,151L182,152 M182,151L183,152 M231,151L232,152 M232,151L233,152 M275,151L276,152 M276,151L277,152 M277,151L278,152 M278,151L279,152 M309,151L310,152 M311,151L312,152 M312,151L313,152 M313,151L314,152 M314,151L315,152 M315,151L316,152 M316,151L317,152 M317,151L318,152 M318,151L319,152 M319,151L320,152 M320,151L321,152 M321,151L322,152 M322,151L323,152 M128,152L129,153 M129,152L130,153 M130,152L131,153 M132,152L133,153 M133,152L134,153 M134,152L135,153 M135,152L136,153 M136,152L137,153 M158,152L159,153 M159,152L160,153 M170,152L171,153 M171,152L172,153 M172,152L173,153 M179,152L180,153 M180,152L181,153 M181,152L182,153 M232,152L233,153 M275,152L276,153 M276,152L277,153 M277,152L278,153 M312,152L313,153 M313,152L314,153 M314,152L315,153 M315,152L316,153 M316,152L317,153 M317,152L318,153 M318,152L319,153 M319,152L320,153 M320,152L321,153 M127,153L128,154 M128,153L129,154 M129,153L130,154 M130,153L131,154 M131,153L132,154 M132,153L133,154 M133,153L134,154 M134,153L135,154 M158,153L159,154 M159,153L160,154 M169,153L170,154 M170,153L171,154 M171,153L172,154 M178,153L179,154 M179,153L180,154 M180,153L181,154 M181,153L182,154 M275,153L276,154 M276,153L277,154 M125,154L126,155 M126,154L127,155 M127,154L128,155 M128,154L129,155 M129,154L130,155 M130,154L131,155 M131,154L132,155 M132,154L133,155 M157,154L158,155 M158,154L159,155 M168,154L169,155 M169,154L170,155 M170,154L171,155 M178,154L179,155 M179,154L180,155 M180,154L181,155 M274,154L275,155 M275,154L276,155 M276,154L277,155 M125,155L126,156 M126,155L127,156 M127,155L128,156 M128,155L129,156 M129,155L130,156 M156,155L157,156 M157,155L158,156 M158,155L159,156 M167,155L168,156 M168,155L169,156 M169,155L170,156 M177,155L178,156 M178,155L179,156 M179,155L180,156 M273,155L274,156 M274,155L275,156 M275,155L276,156 M126,156L127,157 M156,156L157,157 M157,156L158,157 M166,156L167,157 M167,156L168,157 M168,156L169,157 M177,156L178,157 M178,156L179,157 M179,156L180,157 M272,156L273,157 M273,156L274,157 M274,156L275,157 M155,157L156,158 M156,157L157,158 M157,157L158,158 M165,157L166,158 M166,157L167,158 M167,157L168,158 M178,157L179,158 M272,157L273,158 M273,157L274,158 M274,157L275,158 M155,158L156,159 M156,158L157,159 M164,158L165,159 M165,158L166,159 M166,158L167,159 M271,158L272,159 M272,158L273,159 M273,158L274,159 M154,159L155,160 M155,159L156,160 M162,159L163,160 M163,159L164,160 M164,159L165,160 M165,159L166,160 M271,159L272,160 M272,159L273,160 M273,159L274,160 M154,160L155,161 M155,160L156,161 M161,160L162,161 M162,160L163,161 M163,160L164,161 M271,160L272,161 M272,160L273,161 M153,161L154,162 M154,161L155,162 M155,161L156,162 M159,161L160,162 M160,161L161,162 M161,161L162,162 M162,161L163,162 M272,161L273,162 M153,162L154,163 M154,162L155,163 M156,162L157,163 M157,162L158,163 M158,162L159,163 M159,162L160,163 M160,162L161,163 M152,163L153,164 M153,163L154,164 M154,163L155,164 M155,163L156,164 M156,163L157,164 M157,163L158,164 M158,163L159,164 M153,164L154,165 M154,164L155,165 M155,164L156,165" fill="none" stroke="black" />
    </svg>