<svg xmlns="http://www.w3.org/2000/svg" width="800" height="250">
        <path d="M447,4L448,5 M448,4L449,5 M449,4L450,5 M450,4L451,5 M451,4L452,5 M452,4L453,5 M453,4L454,5 M454,4L455,5 M455,4L456,5 M456,4L457,5 M457,4L458,5 M458,4L459,5 M459,4L460,5 M460,4L461,5 M461,4L462,5 M462,4L463,5 M463,4L464,5 M464,4L465,5 M465,4L466,5 M466,4L467,5 M467,4L468,5 M444,5L445,6 M445,5L446,6 M446,5L447,6 M447,5L448,6 M448,5L449,6 M449,5L450,6 M450,5L451,6 M451,5L452,6 M452,5L453,6 M453,5L454,6 M454,5L455,6 M455,5L456,6 M456,5L457,6 M457,5L458,6 M458,5L459,6 M459,5L460,6 M460,5L461,6 M461,5L462,6 M462,5L463,6 M463,5L464,6 M464,5L465,6 M465,5L466,6 M466,5L467,6 M467,5L468,6 M468,5L469,6 M469,5L470,6 M470,5L471,6 M471,5L472,6 M472,5L473,6 M442,6L443,7 M443,6L444,7 M444,6L445,7 M445,6L446,7 M446,6L447,7 M447,6L448,7 M468,6L469,7 M469,6L470,7 M470,6L471,7 M471,6L472,7 M472,6L473,7 M473,6L474,7 M474,6L475,7 M439,7L440,8 M440,7L441,8 M441,7L442,8 M442,7L443,8 M443,7L444,8 M444,7L445,8 M473,7L474,8 M474,7L475,8 M475,7L476,8 M476,7L477,8 M436,8L437,9 M437,8L438,9 M438,8L439,9 M439,8L440,9 M440,8L441,9 M441,8L442,9 M475,8L476,9 M476,8L477,9 M477,8L478,9 M478,8L479,9 M434,9L435,10 M435,9L436,10 M436,9L437,10 M437,9L438,10 M438,9L439,10 M477,9L478,10 M478,9L479,10 M479,9L480,10 M480,9L481,10 M432,10L433,11 M433,10L434,11 M434,10L435,11 M435,10L436,11 M479,10L480,11 M480,10L481,11 M430,11L431,12 M431,11L432,12 M432,11L433,12 M433,11L434,12 M479,11L480,12 M480,11L481,12 M428,12L429,13 M429,12L430,13 M430,12L431,13 M431,12L432,13 M479,12L480,13 M480,12L481,13 M427,13L428,14 M428,13L429,14 M429,13L430,14 M430,13L431,14 M479,13L480,14 M480,13L481,14 M425,14L426,15 M426,14L427,15 M427,14L428,15 M428,14L429,15 M479,14L480,15 M480,14L481,15 M423,15L424,16 M424,15L425,16 M425,15L426,16 M426,15L427,16 M478,15L479,16 M479,15L480,16 M421,16L422,17 M422,16L423,17 M423,16L424,17 M424,16L425,17 M478,16L479,17 M479,16L480,17 M420,17L421,18 M421,17L422,18 M422,17L423,18 M423,17L424,18 M477,17L478,18 M478,17L479,18 M479,17L480,18 M418,18L419,19 M419,18L420,19 M420,18L421,19 M421,18L422,19 M477,18L478,19 M478,18L479,19 M417,19L418,20 M418,19L419,20 M419,19L420,20 M476,19L477,20 M477,19L478,20 M416,20L417,21 M417,20L418,21 M418,20L419,21 M475,20L476,21 M476,20L477,21 M477,20L478,21 M415,21L416,22 M416,21L417,22 M417,21L418,22 M474,21L475,22 M475,21L476,22 M476,21L477,22 M414,22L415,23 M415,22L416,23 M416,22L417,23 M473,22L474,23 M474,22L475,23 M475,22L476,23 M412,23L413,24 M413,23L414,24 M414,23L415,24 M473,23L474,24 M474,23L475,24 M411,24L412,25 M412,24L413,25 M413,24L414,25 M472,24L473,25 M473,24L474,25 M410,25L411,26 M411,25L412,26 M412,25L413,26 M471,25L472,26 M472,25L473,26 M473,25L474,26 M409,26L410,27 M410,26L411,27 M411,26L412,27 M470,26L471,27 M471,26L472,27 M472,26L473,27 M408,27L409,28 M409,27L410,28 M410,27L411,28 M470,27L471,28 M471,27L472,28 M407,28L408,29 M408,28L409,29 M409,28L410,29 M469,28L470,29 M470,28L471,29 M406,29L407,30 M407,29L408,30 M408,29L409,30 M468,29L469,30 M469,29L470,30 M470,29L471,30 M405,30L406,31 M406,30L407,31 M407,30L408,31 M467,30L468,31 M468,30L469,31 M469,30L470,31 M404,31L405,32 M405,31L406,32 M406,31L407,32 M466,31L467,32 M467,31L468,32 M468,31L469,32 M402,32L403,33 M403,32L404,33 M404,32L405,33 M465,32L466,33 M466,32L467,33 M467,32L468,33 M401,33L402,34 M402,33L403,34 M403,33L404,34 M464,33L465,34 M465,33L466,34 M466,33L467,34 M400,34L401,35 M401,34L402,35 M402,34L403,35 M464,34L465,35 M465,34L466,35 M399,35L400,36 M400,35L401,36 M401,35L402,36 M463,35L464,36 M464,35L465,36 M398,36L399,37 M399,36L400,37 M400,36L401,37 M462,36L463,37 M463,36L464,37 M464,36L465,37 M397,37L398,38 M398,37L399,38 M399,37L400,38 M461,37L462,38 M462,37L463,38 M463,37L464,38 M396,38L397,39 M397,38L398,39 M398,38L399,39 M460,38L461,39 M461,38L462,39 M462,38L463,39 M395,39L396,40 M396,39L397,40 M397,39L398,40 M459,39L460,40 M460,39L461,40 M461,39L462,40 M393,40L394,41 M394,40L395,41 M395,40L396,41 M458,40L459,41 M459,40L460,41 M460,40L461,41 M392,41L393,42 M393,41L394,42 M394,41L395,42 M456,41L457,42 M457,41L458,42 M458,41L459,42 M391,42L392,43 M392,42L393,43 M393,42L394,43 M455,42L456,43 M456,42L457,43 M457,42L458,43 M390,43L391,44 M391,43L392,44 M392,43L393,44 M454,43L455,44 M455,43L456,44 M456,43L457,44 M389,44L390,45 M390,44L391,45 M391,44L392,45 M453,44L454,45 M454,44L455,45 M455,44L456,45 M388,45L389,46 M389,45L390,46 M390,45L391,46 M452,45L453,46 M453,45L454,46 M454,45L455,46 M387,46L388,47 M388,46L389,47 M389,46L390,47 M450,46L451,47 M451,46L452,47 M452,46L453,47 M386,47L387,48 M387,47L388,48 M388,47L389,48 M449,47L450,48 M450,47L451,48 M451,47L452,48 M385,48L386,49 M386,48L387,49 M387,48L388,49 M448,48L449,49 M449,48L450,49 M450,48L451,49 M383,49L384,50 M384,49L385,50 M385,49L386,50 M445,49L446,50 M446,49L447,50 M447,49L448,50 M448,49L449,50 M449,49L450,50 M382,50L383,51 M383,50L384,51 M384,50L385,51 M443,50L444,51 M444,50L445,51 M445,50L446,51 M446,50L447,51 M447,50L448,51 M381,51L382,52 M382,51L383,52 M383,51L384,52 M441,51L442,52 M442,51L443,52 M443,51L444,52 M444,51L445,52 M445,51L446,52 M380,52L381,53 M381,52L382,53 M382,52L383,53 M439,52L440,53 M440,52L441,53 M441,52L442,53 M442,52L443,53 M379,53L380,54 M380,53L381,54 M381,53L382,54 M436,53L437,54 M437,53L438,54 M438,53L439,54 M439,53L440,54 M440,53L441,54 M378,54L379,55 M379,54L380,55 M380,54L381,55 M434,54L435,55 M435,54L436,55 M436,54L437,55 M437,54L438,55 M438,54L439,55 M377,55L378,56 M378,55L379,56 M379,55L380,56 M432,55L433,56 M433,55L434,56 M434,55L435,56 M435,55L436,56 M436,55L437,56 M376,56L377,57 M377,56L378,57 M378,56L379,57 M429,56L430,57 M430,56L431,57 M431,56L432,57 M432,56L433,57 M433,56L434,57 M375,57L376,58 M376,57L377,58 M377,57L378,58 M427,57L428,58 M428,57L429,58 M429,57L430,58 M430,57L431,58 M431,57L432,58 M373,58L374,59 M374,58L375,59 M375,58L376,59 M425,58L426,59 M426,58L427,59 M427,58L428,59 M428,58L429,59 M429,58L430,59 M372,59L373,60 M373,59L374,60 M374,59L375,60 M422,59L423,60 M423,59L424,60 M424,59L425,60 M425,59L426,60 M426,59L427,60 M427,59L428,60 M371,60L372,61 M372,60L373,61 M373,60L374,61 M420,60L421,61 M421,60L422,61 M422,60L423,61 M423,60L424,61 M424,60L425,61 M370,61L371,62 M371,61L372,62 M372,61L373,62 M418,61L419,62 M419,61L420,62 M420,61L421,62 M421,61L422,62 M422,61L423,62 M369,62L370,63 M370,62L371,63 M371,62L372,63 M415,62L416,63 M416,62L417,63 M417,62L418,63 M418,62L419,63 M419,62L420,63 M368,63L369,64 M369,63L370,64 M370,63L371,64 M413,63L414,64 M414,63L415,64 M415,63L416,64 M416,63L417,64 M417,63L418,64 M367,64L368,65 M368,64L369,65 M369,64L370,65 M411,64L412,65 M412,64L413,65 M413,64L414,65 M414,64L415,65 M415,64L416,65 M366,65L367,66 M367,65L368,66 M368,65L369,66 M408,65L409,66 M409,65L410,66 M410,65L411,66 M411,65L412,66 M412,65L413,66 M366,66L367,67 M367,66L368,67 M406,66L407,67 M407,66L408,67 M408,66L409,67 M409,66L410,67 M410,66L411,67 M365,67L366,68 M366,67L367,68 M403,67L404,68 M404,67L405,68 M405,67L406,68 M406,67L407,68 M407,67L408,68 M408,67L409,68 M364,68L365,69 M365,68L366,69 M401,68L402,69 M402,68L403,69 M403,68L404,69 M404,68L405,69 M405,68L406,69 M363,69L364,70 M364,69L365,70 M365,69L366,70 M398,69L399,70 M399,69L400,70 M400,69L401,70 M401,69L402,70 M402,69L403,70 M403,69L404,70 M362,70L363,71 M363,70L364,71 M364,70L365,71 M395,70L396,71 M396,70L397,71 M397,70L398,71 M398,70L399,71 M399,70L400,71 M400,70L401,71 M361,71L362,72 M362,71L363,72 M363,71L364,72 M393,71L394,72 M394,71L395,72 M395,71L396,72 M396,71L397,72 M397,71L398,72 M360,72L361,73 M361,72L362,73 M362,72L363,73 M390,72L391,73 M391,72L392,73 M392,72L393,73 M393,72L394,73 M394,72L395,73 M395,72L396,73 M359,73L360,74 M360,73L361,74 M361,73L362,74 M387,73L388,74 M388,73L389,74 M389,73L390,74 M390,73L391,74 M391,73L392,74 M392,73L393,74 M359,74L360,75 M360,74L361,75 M385,74L386,75 M386,74L387,75 M387,74L388,75 M388,74L389,75 M389,74L390,75 M358,75L359,76 M359,75L360,76 M382,75L383,76 M383,75L384,76 M384,75L385,76 M385,75L386,76 M386,75L387,76 M387,75L388,76 M357,76L358,77 M358,76L359,77 M359,76L360,77 M380,76L381,77 M381,76L382,77 M382,76L383,77 M383,76L384,77 M384,76L385,77 M356,77L357,78 M357,77L358,78 M358,77L359,78 M377,77L378,78 M378,77L379,78 M379,77L380,78 M380,77L381,78 M381,77L382,78 M382,77L383,78 M355,78L356,79 M356,78L357,79 M357,78L358,79 M374,78L375,79 M375,78L376,79 M376,78L377,79 M377,78L378,79 M378,78L379,79 M379,78L380,79 M354,79L355,80 M355,79L356,80 M356,79L357,80 M372,79L373,80 M373,79L374,80 M374,79L375,80 M375,79L376,80 M376,79L377,80 M353,80L354,81 M354,80L355,81 M355,80L356,81 M369,80L370,81 M370,80L371,81 M371,80L372,81 M372,80L373,81 M373,80L374,81 M374,80L375,81 M353,81L354,82 M354,81L355,82 M366,81L367,82 M367,81L368,82 M368,81L369,82 M369,81L370,82 M370,81L371,82 M371,81L372,82 M352,82L353,83 M353,82L354,83 M364,82L365,83 M365,82L366,83 M366,82L367,83 M367,82L368,83 M368,82L369,83 M351,83L352,84 M352,83L353,84 M361,83L362,84 M362,83L363,84 M363,83L364,84 M364,83L365,84 M365,83L366,84 M366,83L367,84 M350,84L351,85 M351,84L352,85 M352,84L353,85 M358,84L359,85 M359,84L360,85 M360,84L361,85 M361,84L362,85 M362,84L363,85 M363,84L364,85 M349,85L350,86 M350,85L351,86 M351,85L352,86 M356,85L357,86 M357,85L358,86 M358,85L359,86 M359,85L360,86 M360,85L361,86 M348,86L349,87 M349,86L350,87 M350,86L351,87 M353,86L354,87 M354,86L355,87 M355,86L356,87 M356,86L357,87 M357,86L358,87 M358,86L359,87 M347,87L348,88 M348,87L349,88 M349,87L350,88 M351,87L352,88 M352,87L353,88 M353,87L354,88 M354,87L355,88 M355,87L356,88 M346,88L347,89 M347,88L348,89 M348,88L349,89 M349,88L350,89 M350,88L351,89 M351,88L352,89 M352,88L353,89 M353,88L354,89 M345,89L346,90 M346,89L347,90 M347,89L348,90 M348,89L349,90 M349,89L350,90 M350,89L351,90 M343,90L344,91 M344,90L345,91 M345,90L346,91 M346,90L347,91 M347,90L348,91 M340,91L341,92 M341,91L342,92 M342,91L343,92 M343,91L344,92 M344,91L345,92 M345,91L346,92 M337,92L338,93 M338,92L339,93 M339,92L340,93 M340,92L341,93 M341,92L342,93 M342,92L343,93 M343,92L344,93 M344,92L345,93 M345,92L346,93 M334,93L335,94 M335,93L336,94 M336,93L337,94 M337,93L338,94 M338,93L339,94 M339,93L340,94 M342,93L343,94 M343,93L344,94 M344,93L345,94 M331,94L332,95 M332,94L333,95 M333,94L334,95 M334,94L335,95 M335,94L336,95 M336,94L337,95 M341,94L342,95 M342,94L343,95 M343,94L344,95 M328,95L329,96 M329,95L330,96 M330,95L331,96 M331,95L332,96 M332,95L333,96 M333,95L334,96 M340,95L341,96 M341,95L342,96 M342,95L343,96 M325,96L326,97 M326,96L327,97 M327,96L328,97 M328,96L329,97 M329,96L330,97 M330,96L331,97 M339,96L340,97 M340,96L341,97 M341,96L342,97 M322,97L323,98 M323,97L324,98 M324,97L325,98 M325,97L326,98 M326,97L327,98 M327,97L328,98 M338,97L339,98 M339,97L340,98 M340,97L341,98 M319,98L320,99 M320,98L321,99 M321,98L322,99 M322,98L323,99 M323,98L324,99 M324,98L325,99 M338,98L339,99 M339,98L340,99 M316,99L317,100 M317,99L318,100 M318,99L319,100 M319,99L320,100 M320,99L321,100 M321,99L322,100 M337,99L338,100 M338,99L339,100 M313,100L314,101 M314,100L315,101 M315,100L316,101 M316,100L317,101 M317,100L318,101 M318,100L319,101 M336,100L337,101 M337,100L338,101 M310,101L311,102 M311,101L312,102 M312,101L313,102 M313,101L314,102 M314,101L315,102 M315,101L316,102 M335,101L336,102 M336,101L337,102 M337,101L338,102 M307,102L308,103 M308,102L309,103 M309,102L310,103 M310,102L311,103 M311,102L312,103 M312,102L313,103 M334,102L335,103 M335,102L336,103 M336,102L337,103 M304,103L305,104 M305,103L306,104 M306,103L307,104 M307,103L308,104 M308,103L309,104 M309,103L310,104 M333,103L334,104 M334,103L335,104 M335,103L336,104 M302,104L303,105 M303,104L304,105 M304,104L305,105 M305,104L306,105 M306,104L307,105 M332,104L333,105 M333,104L334,105 M334,104L335,105 M299,105L300,106 M300,105L301,106 M301,105L302,106 M302,105L303,106 M303,105L304,106 M331,105L332,106 M332,105L333,106 M333,105L334,106 M297,106L298,107 M298,106L299,107 M299,106L300,107 M300,106L301,107 M301,106L302,107 M330,106L331,107 M331,106L332,107 M332,106L333,107 M295,107L296,108 M296,107L297,108 M297,107L298,108 M298,107L299,108 M299,107L300,108 M330,107L331,108 M331,107L332,108 M293,108L294,109 M294,108L295,109 M295,108L296,109 M296,108L297,109 M297,108L298,109 M329,108L330,109 M330,108L331,109 M290,109L291,110 M291,109L292,110 M292,109L293,110 M293,109L294,110 M294,109L295,110 M328,109L329,110 M329,109L330,110 M288,110L289,111 M289,110L290,111 M290,110L291,111 M291,110L292,111 M292,110L293,111 M327,110L328,111 M328,110L329,111 M329,110L330,111 M286,111L287,112 M287,111L288,112 M288,111L289,112 M289,111L290,112 M290,111L291,112 M326,111L327,112 M327,111L328,112 M328,111L329,112 M511,111L512,112 M512,111L513,112 M513,111L514,112 M514,111L515,112 M515,111L516,112 M516,111L517,112 M517,111L518,112 M518,111L519,112 M519,111L520,112 M520,111L521,112 M521,111L522,112 M284,112L285,113 M285,112L286,113 M286,112L287,113 M287,112L288,113 M288,112L289,113 M325,112L326,113 M326,112L327,113 M327,112L328,113 M508,112L509,113 M509,112L510,113 M510,112L511,113 M511,112L512,113 M512,112L513,113 M513,112L514,113 M514,112L515,113 M515,112L516,113 M516,112L517,113 M517,112L518,113 M518,112L519,113 M519,112L520,113 M520,112L521,113 M521,112L522,113 M282,113L283,114 M283,113L284,114 M284,113L285,114 M285,113L286,114 M324,113L325,114 M325,113L326,114 M326,113L327,114 M504,113L505,114 M505,113L506,114 M506,113L507,114 M507,113L508,114 M508,113L509,114 M509,113L510,114 M510,113L511,114 M520,113L521,114 M521,113L522,114 M522,113L523,114 M279,114L280,115 M280,114L281,115 M281,114L282,115 M282,114L283,115 M283,114L284,115 M323,114L324,115 M324,114L325,115 M325,114L326,115 M501,114L502,115 M502,114L503,115 M503,114L504,115 M504,114L505,115 M505,114L506,115 M506,114L507,115 M507,114L508,115 M521,114L522,115 M522,114L523,115 M277,115L278,116 M278,115L279,116 M279,115L280,116 M280,115L281,116 M281,115L282,116 M322,115L323,116 M323,115L324,116 M324,115L325,116 M498,115L499,116 M499,115L500,116 M500,115L501,116 M501,115L502,116 M502,115L503,116 M503,115L504,116 M504,115L505,116 M521,115L522,116 M522,115L523,116 M275,116L276,117 M276,116L277,117 M277,116L278,117 M278,116L279,117 M279,116L280,117 M322,116L323,117 M323,116L324,117 M495,116L496,117 M496,116L497,117 M497,116L498,117 M498,116L499,117 M499,116L500,117 M500,116L501,117 M521,116L522,117 M522,116L523,117 M273,117L274,118 M274,117L275,118 M275,117L276,118 M276,117L277,118 M277,117L278,118 M321,117L322,118 M322,117L323,118 M491,117L492,118 M492,117L493,118 M493,117L494,118 M494,117L495,118 M495,117L496,118 M496,117L497,118 M497,117L498,118 M521,117L522,118 M522,117L523,118 M271,118L272,119 M272,118L273,119 M273,118L274,119 M274,118L275,119 M320,118L321,119 M321,118L322,119 M487,118L488,119 M488,118L489,119 M489,118L490,119 M490,118L491,119 M491,118L492,119 M492,118L493,119 M493,118L494,119 M494,118L495,119 M521,118L522,119 M522,118L523,119 M269,119L270,120 M270,119L271,120 M271,119L272,120 M272,119L273,120 M319,119L320,120 M320,119L321,120 M321,119L322,120 M482,119L483,120 M483,119L484,120 M484,119L485,120 M485,119L486,120 M486,119L487,120 M487,119L488,120 M488,119L489,120 M489,119L490,120 M490,119L491,120 M491,119L492,120 M521,119L522,120 M522,119L523,120 M267,120L268,121 M268,120L269,121 M269,120L270,121 M270,120L271,121 M318,120L319,121 M319,120L320,121 M320,120L321,121 M478,120L479,121 M479,120L480,121 M480,120L481,121 M481,120L482,121 M482,120L483,121 M483,120L484,121 M484,120L485,121 M485,120L486,121 M486,120L487,121 M521,120L522,121 M522,120L523,121 M265,121L266,122 M266,121L267,122 M267,121L268,122 M268,121L269,122 M317,121L318,122 M318,121L319,122 M319,121L320,122 M473,121L474,122 M474,121L475,122 M475,121L476,122 M476,121L477,122 M477,121L478,122 M478,121L479,122 M479,121L480,122 M480,121L481,122 M481,121L482,122 M482,121L483,122 M521,121L522,122 M522,121L523,122 M263,122L264,123 M264,122L265,123 M265,122L266,123 M266,122L267,123 M316,122L317,123 M317,122L318,123 M318,122L319,123 M470,122L471,123 M471,122L472,123 M472,122L473,123 M473,122L474,123 M474,122L475,123 M475,122L476,123 M476,122L477,123 M477,122L478,123 M521,122L522,123 M522,122L523,123 M261,123L262,124 M262,123L263,124 M263,123L264,124 M264,123L265,124 M316,123L317,124 M317,123L318,124 M468,123L469,124 M469,123L470,124 M470,123L471,124 M471,123L472,124 M472,123L473,124 M521,123L522,124 M522,123L523,124 M259,124L260,125 M260,124L261,125 M261,124L262,125 M262,124L263,125 M263,124L264,125 M315,124L316,125 M316,124L317,125 M466,124L467,125 M467,124L468,125 M468,124L469,125 M469,124L470,125 M521,124L522,125 M522,124L523,125 M257,125L258,126 M258,125L259,126 M259,125L260,126 M260,125L261,126 M261,125L262,126 M314,125L315,126 M315,125L316,126 M316,125L317,126 M464,125L465,126 M465,125L466,126 M466,125L467,126 M467,125L468,126 M521,125L522,126 M522,125L523,126 M255,126L256,127 M256,126L257,127 M257,126L258,127 M258,126L259,127 M259,126L260,127 M314,126L315,127 M315,126L316,127 M462,126L463,127 M463,126L464,127 M464,126L465,127 M465,126L466,127 M521,126L522,127 M522,126L523,127 M254,127L255,128 M255,127L256,128 M256,127L257,128 M257,127L258,128 M313,127L314,128 M314,127L315,128 M460,127L461,128 M461,127L462,128 M462,127L463,128 M463,127L464,128 M464,127L465,128 M521,127L522,128 M522,127L523,128 M252,128L253,129 M253,128L254,129 M254,128L255,129 M255,128L256,129 M312,128L313,129 M313,128L314,129 M314,128L315,129 M458,128L459,129 M459,128L460,129 M460,128L461,129 M461,128L462,129 M462,128L463,129 M521,128L522,129 M522,128L523,129 M250,129L251,130 M251,129L252,130 M252,129L253,130 M253,129L254,130 M312,129L313,130 M313,129L314,130 M457,129L458,130 M458,129L459,130 M459,129L460,130 M460,129L461,130 M521,129L522,130 M522,129L523,130 M248,130L249,131 M249,130L250,131 M250,130L251,131 M251,130L252,131 M311,130L312,131 M312,130L313,131 M455,130L456,131 M456,130L457,131 M457,130L458,131 M458,130L459,131 M521,130L522,131 M522,130L523,131 M246,131L247,132 M247,131L248,132 M248,131L249,132 M249,131L250,132 M310,131L311,132 M311,131L312,132 M312,131L313,132 M453,131L454,132 M454,131L455,132 M455,131L456,132 M456,131L457,132 M521,131L522,132 M522,131L523,132 M244,132L245,133 M245,132L246,133 M246,132L247,133 M247,132L248,133 M310,132L311,133 M311,132L312,133 M451,132L452,133 M452,132L453,133 M453,132L454,133 M454,132L455,133 M521,132L522,133 M522,132L523,133 M242,133L243,134 M243,133L244,134 M244,133L245,134 M245,133L246,134 M309,133L310,134 M310,133L311,134 M449,133L450,134 M450,133L451,134 M451,133L452,134 M452,133L453,134 M521,133L522,134 M522,133L523,134 M240,134L241,135 M241,134L242,135 M242,134L243,135 M243,134L244,135 M308,134L309,135 M309,134L310,135 M310,134L311,135 M447,134L448,135 M448,134L449,135 M449,134L450,135 M450,134L451,135 M521,134L522,135 M522,134L523,135 M238,135L239,136 M239,135L240,136 M240,135L241,136 M241,135L242,136 M242,135L243,136 M307,135L308,136 M308,135L309,136 M309,135L310,136 M445,135L446,136 M446,135L447,136 M447,135L448,136 M448,135L449,136 M449,135L450,136 M521,135L522,136 M522,135L523,136 M236,136L237,137 M237,136L238,137 M238,136L239,137 M239,136L240,137 M240,136L241,137 M307,136L308,137 M308,136L309,137 M443,136L444,137 M444,136L445,137 M445,136L446,137 M446,136L447,137 M447,136L448,137 M521,136L522,137 M522,136L523,137 M234,137L235,138 M235,137L236,138 M236,137L237,138 M237,137L238,138 M238,137L239,138 M306,137L307,138 M307,137L308,138 M442,137L443,138 M443,137L444,138 M444,137L445,138 M445,137L446,138 M521,137L522,138 M522,137L523,138 M233,138L234,139 M234,138L235,139 M235,138L236,139 M236,138L237,139 M305,138L306,139 M306,138L307,139 M307,138L308,139 M440,138L441,139 M441,138L442,139 M442,138L443,139 M443,138L444,139 M521,138L522,139 M522,138L523,139 M231,139L232,140 M232,139L233,140 M233,139L234,140 M234,139L235,140 M305,139L306,140 M306,139L307,140 M438,139L439,140 M439,139L440,140 M440,139L441,140 M441,139L442,140 M521,139L522,140 M522,139L523,140 M229,140L230,141 M230,140L231,141 M231,140L232,141 M232,140L233,141 M304,140L305,141 M305,140L306,141 M436,140L437,141 M437,140L438,141 M438,140L439,141 M439,140L440,141 M521,140L522,141 M522,140L523,141 M227,141L228,142 M228,141L229,142 M229,141L230,142 M230,141L231,142 M303,141L304,142 M304,141L305,142 M305,141L306,142 M434,141L435,142 M435,141L436,142 M436,141L437,142 M437,141L438,142 M521,141L522,142 M522,141L523,142 M225,142L226,143 M226,142L227,143 M227,142L228,143 M228,142L229,143 M303,142L304,143 M304,142L305,143 M432,142L433,143 M433,142L434,143 M434,142L435,143 M435,142L436,143 M521,142L522,143 M522,142L523,143 M223,143L224,144 M224,143L225,144 M225,143L226,144 M226,143L227,144 M302,143L303,144 M303,143L304,144 M430,143L431,144 M431,143L432,144 M432,143L433,144 M433,143L434,144 M434,143L435,144 M521,143L522,144 M522,143L523,144 M221,144L222,145 M222,144L223,145 M223,144L224,145 M224,144L225,145 M301,144L302,145 M302,144L303,145 M303,144L304,145 M428,144L429,145 M429,144L430,145 M430,144L431,145 M431,144L432,145 M432,144L433,145 M521,144L522,145 M522,144L523,145 M219,145L220,146 M220,145L221,146 M221,145L222,146 M222,145L223,146 M223,145L224,146 M301,145L302,146 M302,145L303,146 M427,145L428,146 M428,145L429,146 M429,145L430,146 M430,145L431,146 M521,145L522,146 M522,145L523,146 M218,146L219,147 M219,146L220,147 M220,146L221,147 M221,146L222,147 M300,146L301,147 M301,146L302,147 M425,146L426,147 M426,146L427,147 M427,146L428,147 M428,146L429,147 M521,146L522,147 M522,146L523,147 M216,147L217,148 M217,147L218,148 M218,147L219,148 M219,147L220,148 M299,147L300,148 M300,147L301,148 M301,147L302,148 M424,147L425,148 M425,147L426,148 M426,147L427,148 M521,147L522,148 M522,147L523,148 M215,148L216,149 M216,148L217,149 M217,148L218,149 M298,148L299,149 M299,148L300,149 M300,148L301,149 M423,148L424,149 M424,148L425,149 M425,148L426,149 M521,148L522,149 M522,148L523,149 M214,149L215,150 M215,149L216,150 M216,149L217,150 M298,149L299,150 M299,149L300,150 M422,149L423,150 M423,149L424,150 M424,149L425,150 M521,149L522,150 M522,149L523,150 M213,150L214,151 M214,150L215,151 M215,150L216,151 M297,150L298,151 M298,150L299,151 M299,150L300,151 M421,150L422,151 M422,150L423,151 M423,150L424,151 M521,150L522,151 M522,150L523,151 M211,151L212,152 M212,151L213,152 M213,151L214,152 M296,151L297,152 M297,151L298,152 M298,151L299,152 M420,151L421,152 M421,151L422,152 M422,151L423,152 M521,151L522,152 M522,151L523,152 M210,152L211,153 M211,152L212,153 M212,152L213,153 M296,152L297,153 M297,152L298,153 M419,152L420,153 M420,152L421,153 M421,152L422,153 M521,152L522,153 M522,152L523,153 M209,153L210,154 M210,153L211,154 M211,153L212,154 M295,153L296,154 M296,153L297,154 M418,153L419,154 M419,153L420,154 M420,153L421,154 M521,153L522,154 M522,153L523,154 M208,154L209,155 M209,154L210,155 M210,154L211,155 M294,154L295,155 M295,154L296,155 M296,154L297,155 M417,154L418,155 M418,154L419,155 M521,154L522,155 M522,154L523,155 M207,155L208,156 M208,155L209,156 M209,155L210,156 M294,155L295,156 M295,155L296,156 M415,155L416,156 M416,155L417,156 M417,155L418,156 M521,155L522,156 M522,155L523,156 M205,156L206,157 M206,156L207,157 M207,156L208,157 M208,156L209,157 M293,156L294,157 M294,156L295,157 M414,156L415,157 M415,156L416,157 M416,156L417,157 M521,156L522,157 M522,156L523,157 M204,157L205,158 M205,157L206,158 M206,157L207,158 M292,157L293,158 M293,157L294,158 M294,157L295,158 M413,157L414,158 M414,157L415,158 M415,157L416,158 M521,157L522,158 M522,157L523,158 M203,158L204,159 M204,158L205,159 M205,158L206,159 M292,158L293,159 M293,158L294,159 M412,158L413,159 M413,158L414,159 M414,158L415,159 M521,158L522,159 M522,158L523,159 M201,159L202,160 M202,159L203,160 M203,159L204,160 M204,159L205,160 M291,159L292,160 M292,159L293,160 M411,159L412,160 M412,159L413,160 M413,159L414,160 M521,159L522,160 M522,159L523,160 M200,160L201,161 M201,160L202,161 M202,160L203,161 M290,160L291,161 M291,160L292,161 M292,160L293,161 M410,160L411,161 M411,160L412,161 M412,160L413,161 M521,160L522,161 M522,160L523,161 M199,161L200,162 M200,161L201,162 M201,161L202,162 M290,161L291,162 M291,161L292,162 M409,161L410,162 M410,161L411,162 M411,161L412,162 M521,161L522,162 M522,161L523,162 M198,162L199,163 M199,162L200,163 M200,162L201,163 M289,162L290,163 M290,162L291,163 M408,162L409,163 M409,162L410,163 M410,162L411,163 M521,162L522,163 M522,162L523,163 M197,163L198,164 M198,163L199,164 M199,163L200,164 M288,163L289,164 M289,163L290,164 M290,163L291,164 M407,163L408,164 M408,163L409,164 M409,163L410,164 M521,163L522,164 M522,163L523,164 M196,164L197,165 M197,164L198,165 M198,164L199,165 M287,164L288,165 M288,164L289,165 M289,164L290,165 M406,164L407,165 M407,164L408,165 M408,164L409,165 M521,164L522,165 M522,164L523,165 M197,165L198,166 M198,165L199,166 M287,165L288,166 M288,165L289,166 M405,165L406,166 M406,165L407,166 M407,165L408,166 M521,165L522,166 M522,165L523,166 M286,166L287,167 M287,166L288,167 M405,166L406,167 M406,166L407,167 M521,166L522,167 M522,166L523,167 M285,167L286,168 M286,167L287,168 M287,167L288,168 M404,167L405,168 M405,167L406,168 M521,167L522,168 M522,167L523,168 M285,168L286,169 M286,168L287,169 M403,168L404,169 M404,168L405,169 M521,168L522,169 M522,168L523,169 M284,169L285,170 M285,169L286,170 M402,169L403,170 M403,169L404,170 M404,169L405,170 M521,169L522,170 M522,169L523,170 M283,170L284,171 M284,170L285,171 M285,170L286,171 M401,170L402,171 M402,170L403,171 M403,170L404,171 M521,170L522,171 M522,170L523,171 M283,171L284,172 M284,171L285,172 M400,171L401,172 M401,171L402,172 M402,171L403,172 M521,171L522,172 M522,171L523,172 M282,172L283,173 M283,172L284,173 M400,172L401,173 M401,172L402,173 M521,172L522,173 M522,172L523,173 M281,173L282,174 M282,173L283,174 M283,173L284,174 M399,173L400,174 M400,173L401,174 M521,173L522,174 M522,173L523,174 M281,174L282,175 M282,174L283,175 M398,174L399,175 M399,174L400,175 M521,174L522,175 M522,174L523,175 M189,175L190,176 M190,175L191,176 M191,175L192,176 M192,175L193,176 M193,175L194,176 M194,175L195,176 M195,175L196,176 M196,175L197,176 M197,175L198,176 M198,175L199,176 M199,175L200,176 M200,175L201,176 M201,175L202,176 M202,175L203,176 M203,175L204,176 M204,175L205,176 M205,175L206,176 M206,175L207,176 M207,175L208,176 M208,175L209,176 M209,175L210,176 M210,175L211,176 M211,175L212,176 M212,175L213,176 M213,175L214,176 M214,175L215,176 M215,175L216,176 M216,175L217,176 M217,175L218,176 M218,175L219,176 M219,175L220,176 M220,175L221,176 M221,175L222,176 M222,175L223,176 M223,175L224,176 M224,175L225,176 M225,175L226,176 M226,175L227,176 M227,175L228,176 M228,175L229,176 M229,175L230,176 M230,175L231,176 M231,175L232,176 M232,175L233,176 M233,175L234,176 M234,175L235,176 M235,175L236,176 M280,175L281,176 M281,175L282,176 M397,175L398,176 M398,175L399,176 M399,175L400,176 M521,175L522,176 M522,175L523,176 M176,176L177,177 M177,176L178,177 M178,176L179,177 M179,176L180,177 M180,176L181,177 M181,176L182,177 M182,176L183,177 M183,176L184,177 M184,176L185,177 M185,176L186,177 M186,176L187,177 M187,176L188,177 M188,176L189,177 M189,176L190,177 M190,176L191,177 M191,176L192,177 M192,176L193,177 M193,176L194,177 M194,176L195,177 M195,176L196,177 M196,176L197,177 M197,176L198,177 M198,176L199,177 M199,176L200,177 M200,176L201,177 M201,176L202,177 M202,176L203,177 M203,176L204,177 M204,176L205,177 M205,176L206,177 M206,176L207,177 M207,176L208,177 M208,176L209,177 M209,176L210,177 M210,176L211,177 M211,176L212,177 M212,176L213,177 M213,176L214,177 M214,176L215,177 M215,176L216,177 M216,176L217,177 M217,176L218,177 M218,176L219,177 M219,176L220,177 M220,176L221,177 M221,176L222,177 M222,176L223,177 M223,176L224,177 M224,176L225,177 M225,176L226,177 M226,176L227,177 M227,176L228,177 M228,176L229,177 M229,176L230,177 M230,176L231,177 M231,176L232,177 M232,176L233,177 M233,176L234,177 M234,176L235,177 M235,176L236,177 M236,176L237,177 M237,176L238,177 M238,176L239,177 M239,176L240,177 M240,176L241,177 M241,176L242,177 M242,176L243,177 M243,176L244,177 M244,176L245,177 M245,176L246,177 M246,176L247,177 M247,176L248,177 M279,176L280,177 M280,176L281,177 M281,176L282,177 M396,176L397,177 M397,176L398,177 M398,176L399,177 M521,176L522,177 M522,176L523,177 M170,177L171,178 M171,177L172,178 M172,177L173,178 M173,177L174,178 M174,177L175,178 M175,177L176,178 M176,177L177,178 M177,177L178,178 M178,177L179,178 M179,177L180,178 M180,177L181,178 M181,177L182,178 M182,177L183,178 M183,177L184,178 M184,177L185,178 M185,177L186,178 M186,177L187,178 M187,177L188,178 M188,177L189,178 M236,177L237,178 M237,177L238,178 M238,177L239,178 M239,177L240,178 M240,177L241,178 M241,177L242,178 M242,177L243,178 M243,177L244,178 M244,177L245,178 M245,177L246,178 M246,177L247,178 M247,177L248,178 M248,177L249,178 M249,177L250,178 M250,177L251,178 M251,177L252,178 M252,177L253,178 M253,177L254,178 M254,177L255,178 M255,177L256,178 M256,177L257,178 M257,177L258,178 M258,177L259,178 M259,177L260,178 M260,177L261,178 M278,177L279,178 M279,177L280,178 M280,177L281,178 M396,177L397,178 M397,177L398,178 M521,177L522,178 M522,177L523,178 M165,178L166,179 M166,178L167,179 M167,178L168,179 M168,178L169,179 M169,178L170,179 M170,178L171,179 M171,178L172,179 M172,178L173,179 M173,178L174,179 M174,178L175,179 M175,178L176,179 M248,178L249,179 M249,178L250,179 M250,178L251,179 M251,178L252,179 M252,178L253,179 M253,178L254,179 M254,178L255,179 M255,178L256,179 M256,178L257,179 M257,178L258,179 M258,178L259,179 M259,178L260,179 M260,178L261,179 M261,178L262,179 M262,178L263,179 M263,178L264,179 M264,178L265,179 M265,178L266,179 M266,178L267,179 M267,178L268,179 M268,178L269,179 M269,178L270,179 M270,178L271,179 M271,178L272,179 M272,178L273,179 M278,178L279,179 M279,178L280,179 M395,178L396,179 M396,178L397,179 M521,178L522,179 M522,178L523,179 M160,179L161,180 M161,179L162,180 M162,179L163,180 M163,179L164,180 M164,179L165,180 M165,179L166,180 M166,179L167,180 M167,179L168,180 M168,179L169,180 M169,179L170,180 M170,179L171,180 M261,179L262,180 M262,179L263,180 M263,179L264,180 M264,179L265,180 M265,179L266,180 M266,179L267,180 M267,179L268,180 M268,179L269,180 M269,179L270,180 M270,179L271,180 M271,179L272,180 M272,179L273,180 M273,179L274,180 M274,179L275,180 M275,179L276,180 M276,179L277,180 M277,179L278,180 M278,179L279,180 M279,179L280,180 M280,179L281,180 M281,179L282,180 M282,179L283,180 M283,179L284,180 M284,179L285,180 M285,179L286,180 M394,179L395,180 M395,179L396,180 M521,179L522,180 M522,179L523,180 M154,180L155,181 M155,180L156,181 M156,180L157,181 M157,180L158,181 M158,180L159,181 M159,180L160,181 M160,180L161,181 M161,180L162,181 M162,180L163,181 M163,180L164,181 M164,180L165,181 M273,180L274,181 M274,180L275,181 M275,180L276,181 M276,180L277,181 M277,180L278,181 M278,180L279,181 M279,180L280,181 M280,180L281,181 M281,180L282,181 M282,180L283,181 M283,180L284,181 M284,180L285,181 M285,180L286,181 M286,180L287,181 M287,180L288,181 M288,180L289,181 M289,180L290,181 M290,180L291,181 M291,180L292,181 M292,180L293,181 M293,180L294,181 M393,180L394,181 M394,180L395,181 M395,180L396,181 M521,180L522,181 M522,180L523,181 M150,181L151,182 M151,181L152,182 M152,181L153,182 M153,181L154,182 M154,181L155,182 M155,181L156,182 M156,181L157,182 M157,181L158,182 M158,181L159,182 M159,181L160,182 M276,181L277,182 M277,181L278,182 M286,181L287,182 M287,181L288,182 M288,181L289,182 M289,181L290,182 M290,181L291,182 M291,181L292,182 M292,181L293,182 M293,181L294,182 M294,181L295,182 M295,181L296,182 M296,181L297,182 M297,181L298,182 M298,181L299,182 M392,181L393,182 M393,181L394,182 M394,181L395,182 M521,181L522,182 M522,181L523,182 M147,182L148,183 M148,182L149,183 M149,182L150,183 M150,182L151,183 M151,182L152,183 M152,182L153,183 M153,182L154,183 M275,182L276,183 M276,182L277,183 M294,182L295,183 M295,182L296,183 M296,182L297,183 M297,182L298,183 M298,182L299,183 M299,182L300,183 M300,182L301,183 M301,182L302,183 M302,182L303,183 M392,182L393,183 M393,182L394,183 M521,182L522,183 M522,182L523,183 M144,183L145,184 M145,183L146,184 M146,183L147,184 M147,183L148,184 M148,183L149,184 M149,183L150,184 M274,183L275,184 M275,183L276,184 M276,183L277,184 M298,183L299,184 M299,183L300,184 M300,183L301,184 M301,183L302,184 M302,183L303,184 M303,183L304,184 M304,183L305,184 M305,183L306,184 M306,183L307,184 M307,183L308,184 M391,183L392,184 M392,183L393,184 M521,183L522,184 M522,183L523,184 M142,184L143,185 M143,184L144,185 M144,184L145,185 M145,184L146,185 M146,184L147,185 M274,184L275,185 M275,184L276,185 M303,184L304,185 M304,184L305,185 M305,184L306,185 M306,184L307,185 M307,184L308,185 M308,184L309,185 M309,184L310,185 M310,184L311,185 M311,184L312,185 M312,184L313,185 M390,184L391,185 M391,184L392,185 M392,184L393,185 M521,184L522,185 M522,184L523,185 M141,185L142,186 M142,185L143,186 M143,185L144,186 M273,185L274,186 M274,185L275,186 M308,185L309,186 M309,185L310,186 M310,185L311,186 M311,185L312,186 M312,185L313,186 M313,185L314,186 M314,185L315,186 M315,185L316,186 M316,185L317,186 M317,185L318,186 M389,185L390,186 M390,185L391,186 M391,185L392,186 M521,185L522,186 M522,185L523,186 M141,186L142,187 M142,186L143,187 M272,186L273,187 M273,186L274,187 M274,186L275,187 M313,186L314,187 M314,186L315,187 M315,186L316,187 M316,186L317,187 M317,186L318,187 M318,186L319,187 M319,186L320,187 M320,186L321,187 M321,186L322,187 M389,186L390,187 M390,186L391,187 M521,186L522,187 M522,186L523,187 M140,187L141,188 M141,187L142,188 M272,187L273,188 M273,187L274,188 M317,187L318,188 M318,187L319,188 M319,187L320,188 M320,187L321,188 M321,187L322,188 M322,187L323,188 M323,187L324,188 M324,187L325,188 M325,187L326,188 M326,187L327,188 M388,187L389,188 M389,187L390,188 M390,187L391,188 M521,187L522,188 M522,187L523,188 M139,188L140,189 M140,188L141,189 M141,188L142,189 M271,188L272,189 M272,188L273,189 M322,188L323,189 M323,188L324,189 M324,188L325,189 M325,188L326,189 M326,188L327,189 M327,188L328,189 M328,188L329,189 M329,188L330,189 M330,188L331,189 M388,188L389,189 M389,188L390,189 M521,188L522,189 M522,188L523,189 M139,189L140,190 M140,189L141,190 M270,189L271,190 M271,189L272,190 M272,189L273,190 M326,189L327,190 M327,189L328,190 M328,189L329,190 M329,189L330,190 M330,189L331,190 M331,189L332,190 M332,189L333,190 M333,189L334,190 M334,189L335,190 M335,189L336,190 M336,189L337,190 M337,189L338,190 M387,189L388,190 M388,189L389,190 M521,189L522,190 M522,189L523,190 M138,190L139,191 M139,190L140,191 M270,190L271,191 M271,190L272,191 M331,190L332,191 M332,190L333,191 M333,190L334,191 M334,190L335,191 M335,190L336,191 M336,190L337,191 M337,190L338,191 M338,190L339,191 M339,190L340,191 M340,190L341,191 M341,190L342,191 M342,190L343,191 M343,190L344,191 M344,190L345,191 M345,190L346,191 M386,190L387,191 M387,190L388,191 M388,190L389,191 M521,190L522,191 M522,190L523,191 M138,191L139,192 M139,191L140,192 M269,191L270,192 M270,191L271,192 M337,191L338,192 M338,191L339,192 M339,191L340,192 M340,191L341,192 M341,191L342,192 M342,191L343,192 M343,191L344,192 M344,191L345,192 M345,191L346,192 M346,191L347,192 M347,191L348,192 M348,191L349,192 M349,191L350,192 M350,191L351,192 M386,191L387,192 M387,191L388,192 M521,191L522,192 M522,191L523,192 M138,192L139,193 M139,192L140,193 M268,192L269,193 M269,192L270,193 M270,192L271,193 M345,192L346,193 M346,192L347,193 M347,192L348,193 M348,192L349,193 M349,192L350,193 M350,192L351,193 M351,192L352,193 M352,192L353,193 M353,192L354,193 M354,192L355,193 M385,192L386,193 M386,192L387,193 M138,193L139,194 M139,193L140,194 M268,193L269,194 M269,193L270,194 M351,193L352,194 M352,193L353,194 M353,193L354,194 M354,193L355,194 M355,193L356,194 M356,193L357,194 M357,193L358,194 M358,193L359,194 M384,193L385,194 M385,193L386,194 M386,193L387,194 M138,194L139,195 M139,194L140,195 M267,194L268,195 M268,194L269,195 M355,194L356,195 M356,194L357,195 M357,194L358,195 M358,194L359,195 M359,194L360,195 M360,194L361,195 M361,194L362,195 M362,194L363,195 M363,194L364,195 M383,194L384,195 M384,194L385,195 M385,194L386,195 M138,195L139,196 M139,195L140,196 M266,195L267,196 M267,195L268,196 M268,195L269,196 M359,195L360,196 M360,195L361,196 M361,195L362,196 M362,195L363,196 M363,195L364,196 M364,195L365,196 M365,195L366,196 M366,195L367,196 M367,195L368,196 M382,195L383,196 M383,195L384,196 M384,195L385,196 M138,196L139,197 M139,196L140,197 M266,196L267,197 M267,196L268,197 M364,196L365,197 M365,196L366,197 M366,196L367,197 M367,196L368,197 M368,196L369,197 M369,196L370,197 M370,196L371,197 M371,196L372,197 M372,196L373,197 M381,196L382,197 M382,196L383,197 M383,196L384,197 M138,197L139,198 M139,197L140,198 M140,197L141,198 M265,197L266,198 M266,197L267,198 M368,197L369,198 M369,197L370,198 M370,197L371,198 M371,197L372,198 M372,197L373,198 M373,197L374,198 M374,197L375,198 M375,197L376,198 M380,197L381,198 M381,197L382,198 M382,197L383,198 M139,198L140,199 M140,198L141,199 M264,198L265,199 M265,198L266,199 M266,198L267,199 M373,198L374,199 M374,198L375,199 M375,198L376,199 M376,198L377,199 M379,198L380,199 M380,198L381,199 M381,198L382,199 M139,199L140,200 M140,199L141,200 M264,199L265,200 M265,199L266,200 M375,199L376,200 M376,199L377,200 M377,199L378,200 M378,199L379,200 M379,199L380,200 M380,199L381,200 M139,200L140,201 M140,200L141,201 M263,200L264,201 M264,200L265,201 M376,200L377,201 M377,200L378,201 M378,200L379,201 M379,200L380,201 M140,201L141,202 M141,201L142,202 M263,201L264,202 M264,201L265,202 M140,202L141,203 M141,202L142,203 M262,202L263,203 M263,202L264,203 M140,203L141,204 M141,203L142,204 M261,203L262,204 M262,203L263,204 M263,203L264,204 M141,204L142,205 M142,204L143,205 M261,204L262,205 M262,204L263,205 M141,205L142,206 M142,205L143,206 M260,205L261,206 M261,205L262,206 M262,205L263,206 M141,206L142,207 M142,206L143,207 M143,206L144,207 M260,206L261,207 M261,206L262,207 M142,207L143,208 M143,207L144,208 M259,207L260,208 M260,207L261,208 M261,207L262,208 M142,208L143,209 M143,208L144,209 M144,208L145,209 M259,208L260,209 M260,208L261,209 M143,209L144,210 M144,209L145,210 M145,209L146,210 M146,209L147,210 M258,209L259,210 M259,209L260,210 M260,209L261,210 M145,210L146,211 M146,210L147,211 M147,210L148,211 M258,210L259,211 M259,210L260,211 M146,211L147,212 M147,211L148,212 M148,211L149,212 M257,211L258,212 M258,211L259,212 M147,212L148,213 M148,212L149,213 M149,212L150,213 M150,212L151,213 M257,212L258,213 M258,212L259,213 M148,213L149,214 M149,213L150,214 M150,213L151,214 M151,213L152,214 M256,213L257,214 M257,213L258,214 M150,214L151,215 M151,214L152,215 M152,214L153,215 M255,214L256,215 M256,214L257,215 M257,214L258,215 M151,215L152,216 M152,215L153,216 M153,215L154,216 M154,215L155,216 M255,215L256,216 M256,215L257,216 M153,216L154,217 M154,216L155,217 M155,216L156,217 M254,216L255,217 M255,216L256,217 M154,217L155,218 M155,217L156,218 M156,217L157,218 M157,217L158,218 M253,217L254,218 M254,217L255,218 M255,217L256,218 M156,218L157,219 M157,218L158,219 M158,218L159,219 M253,218L254,219 M254,218L255,219 M157,219L158,220 M158,219L159,220 M159,219L160,220 M160,219L161,220 M161,219L162,220 M252,219L253,220 M253,219L254,220 M159,220L160,221 M160,220L161,221 M161,220L162,221 M162,220L163,221 M163,220L164,221 M251,220L252,221 M252,220L253,221 M253,220L254,221 M161,221L162,222 M162,221L163,222 M163,221L164,222 M164,221L165,222 M165,221L166,222 M251,221L252,222 M252,221L253,222 M164,222L165,223 M165,222L166,223 M166,222L167,223 M167,222L168,223 M250,222L251,223 M251,222L252,223 M166,223L167,224 M167,223L168,224 M168,223L169,224 M169,223L170,224 M170,223L171,224 M249,223L250,224 M250,223L251,224 M251,223L252,224 M168,224L169,225 M169,224L170,225 M170,224L171,225 M171,224L172,225 M172,224L173,225 M248,224L249,225 M249,224L250,225 M250,224L251,225 M170,225L171,226 M171,225L172,226 M172,225L173,226 M173,225L174,226 M174,225L175,226 M248,225L249,226 M249,225L250,226 M173,226L174,227 M174,226L175,227 M175,226L176,227 M176,226L177,227 M247,226L248,227 M248,226L249,227 M175,227L176,228 M176,227L177,228 M177,227L178,228 M178,227L179,228 M179,227L180,228 M246,227L247,228 M247,227L248,228 M177,228L178,229 M178,228L179,229 M179,228L180,229 M180,228L181,229 M181,228L182,229 M245,228L246,229 M246,228L247,229 M247,228L248,229 M179,229L180,230 M180,229L181,230 M181,229L182,230 M182,229L183,230 M183,229L184,230 M244,229L245,230 M245,229L246,230 M246,229L247,230 M182,230L183,231 M183,230L184,231 M184,230L185,231 M185,230L186,231 M186,230L187,231 M243,230L244,231 M244,230L245,231 M245,230L246,231 M184,231L185,232 M185,231L186,232 M186,231L187,232 M187,231L188,232 M188,231L189,232 M189,231L190,232 M190,231L191,232 M242,231L243,232 M243,231L244,232 M244,231L245,232 M187,232L188,233 M188,232L189,233 M189,232L190,233 M190,232L191,233 M191,232L192,233 M192,232L193,233 M193,232L194,233 M194,232L195,233 M240,232L241,233 M241,232L242,233 M242,232L243,233 M191,233L192,234 M192,233L193,234 M193,233L194,234 M194,233L195,234 M195,233L196,234 M196,233L197,234 M197,233L198,234 M239,233L240,234 M240,233L241,234 M241,233L242,234 M194,234L195,235 M195,234L196,235 M196,234L197,235 M197,234L198,235 M198,234L199,235 M199,234L200,235 M200,234L201,235 M238,234L239,235 M239,234L240,235 M240,234L241,235 M198,235L199,236 M199,235L200,236 M200,235L201,236 M201,235L202,236 M202,235L203,236 M203,235L204,236 M237,235L238,236 M238,235L239,236 M239,235L240,236 M201,236L202,237 M202,236L203,237 M203,236L204,237 M204,236L205,237 M205,236L206,237 M206,236L207,237 M207,236L208,237 M208,236L209,237 M209,236L210,237 M232,236L233,237 M233,236L234,237 M234,236L235,237 M235,236L236,237 M236,236L237,237 M237,236L238,237 M238,236L239,237 M204,237L205,238 M205,237L206,238 M206,237L207,238 M207,237L208,238 M208,237L209,238 M209,237L210,238 M210,237L211,238 M211,237L212,238 M212,237L213,238 M213,237L214,238 M214,237L215,238 M215,237L216,238 M216,237L217,238 M217,237L218,238 M218,237L219,238 M219,237L220,238 M220,237L221,238 M221,237L222,238 M222,237L223,238 M223,237L224,238 M224,237L225,238 M225,237L226,238 M226,237L227,238 M227,237L228,238 M228,237L229,238 M229,237L230,238 M230,237L231,238 M231,237L232,238 M232,237L233,238 M233,237L234,238 M234,237L235,238 M235,237L236,238 M236,237L237,238 M237,237L238,238 M210,238L211,239 M211,238L212,239 M212,238L213,239 M213,238L214,239 M214,238L215,239 M215,238L216,239 M216,238L217,239 M217,238L218,239 M218,238L219,239 M219,238L220,239 M220,238L221,239 M221,238L222,239 M222,238L223,239 M223,238L224,239 M224,238L225,239 M225,238L226,239 M226,238L227,239 M227,238L228,239 M228,238L229,239 M229,238L230,239 M230,238L231,239 M231,238L232,239" fill="none" stroke="black" />
    </svg>