<svg xmlns="http://www.w3.org/2000/svg" width="670" height="250">
        <path d="M280,0L281,1 M281,0L282,1 M282,0L283,1 M283,0L284,1 M284,0L285,1 M285,0L286,1 M286,0L287,1 M287,0L288,1 M288,0L289,1 M289,0L290,1 M290,0L291,1 M291,0L292,1 M292,0L293,1 M293,0L294,1 M294,0L295,1 M295,0L296,1 M296,0L297,1 M297,0L298,1 M298,0L299,1 M299,0L300,1 M300,0L301,1 M301,0L302,1 M302,0L303,1 M303,0L304,1 M304,0L305,1 M305,0L306,1 M306,0L307,1 M307,0L308,1 M274,1L275,2 M275,1L276,2 M276,1L277,2 M277,1L278,2 M278,1L279,2 M279,1L280,2 M280,1L281,2 M281,1L282,2 M282,1L283,2 M283,1L284,2 M284,1L285,2 M285,1L286,2 M286,1L287,2 M287,1L288,2 M288,1L289,2 M289,1L290,2 M290,1L291,2 M291,1L292,2 M292,1L293,2 M293,1L294,2 M294,1L295,2 M295,1L296,2 M296,1L297,2 M297,1L298,2 M298,1L299,2 M299,1L300,2 M300,1L301,2 M301,1L302,2 M302,1L303,2 M303,1L304,2 M304,1L305,2 M305,1L306,2 M306,1L307,2 M307,1L308,2 M308,1L309,2 M309,1L310,2 M310,1L311,2 M269,2L270,3 M270,2L271,3 M271,2L272,3 M272,2L273,3 M273,2L274,3 M274,2L275,3 M275,2L276,3 M276,2L277,3 M277,2L278,3 M278,2L279,3 M279,2L280,3 M308,2L309,3 M309,2L310,3 M310,2L311,3 M311,2L312,3 M312,2L313,3 M265,3L266,4 M266,3L267,4 M267,3L268,4 M268,3L269,4 M269,3L270,4 M270,3L271,4 M271,3L272,4 M272,3L273,4 M273,3L274,4 M310,3L311,4 M311,3L312,4 M312,3L313,4 M313,3L314,4 M314,3L315,4 M261,4L262,5 M262,4L263,5 M263,4L264,5 M264,4L265,5 M265,4L266,5 M266,4L267,5 M267,4L268,5 M268,4L269,5 M313,4L314,5 M314,4L315,5 M315,4L316,5 M316,4L317,5 M257,5L258,6 M258,5L259,6 M259,5L260,6 M260,5L261,6 M261,5L262,6 M262,5L263,6 M263,5L264,6 M264,5L265,6 M315,5L316,6 M316,5L317,6 M317,5L318,6 M318,5L319,6 M253,6L254,7 M254,6L255,7 M255,6L256,7 M256,6L257,7 M257,6L258,7 M258,6L259,7 M259,6L260,7 M260,6L261,7 M317,6L318,7 M318,6L319,7 M319,6L320,7 M320,6L321,7 M250,7L251,8 M251,7L252,8 M252,7L253,8 M253,7L254,8 M254,7L255,8 M255,7L256,8 M256,7L257,8 M318,7L319,8 M319,7L320,8 M320,7L321,8 M321,7L322,8 M247,8L248,9 M248,8L249,9 M249,8L250,9 M250,8L251,9 M251,8L252,9 M252,8L253,9 M253,8L254,9 M320,8L321,9 M321,8L322,9 M322,8L323,9 M244,9L245,10 M245,9L246,10 M246,9L247,10 M247,9L248,10 M248,9L249,10 M249,9L250,10 M321,9L322,10 M322,9L323,10 M323,9L324,10 M242,10L243,11 M243,10L244,11 M244,10L245,11 M245,10L246,11 M246,10L247,11 M323,10L324,11 M324,10L325,11 M325,10L326,11 M239,11L240,12 M240,11L241,12 M241,11L242,12 M242,11L243,12 M243,11L244,12 M324,11L325,12 M325,11L326,12 M326,11L327,12 M236,12L237,13 M237,12L238,13 M238,12L239,13 M239,12L240,13 M240,12L241,13 M241,12L242,13 M325,12L326,13 M326,12L327,13 M327,12L328,13 M234,13L235,14 M235,13L236,14 M236,13L237,14 M237,13L238,14 M238,13L239,14 M326,13L327,14 M327,13L328,14 M328,13L329,14 M231,14L232,15 M232,14L233,15 M233,14L234,15 M234,14L235,15 M235,14L236,15 M236,14L237,15 M327,14L328,15 M328,14L329,15 M329,14L330,15 M229,15L230,16 M230,15L231,16 M231,15L232,16 M232,15L233,16 M233,15L234,16 M328,15L329,16 M329,15L330,16 M226,16L227,17 M227,16L228,17 M228,16L229,17 M229,16L230,17 M230,16L231,17 M231,16L232,17 M329,16L330,17 M330,16L331,17 M224,17L225,18 M225,17L226,18 M226,17L227,18 M227,17L228,18 M228,17L229,18 M329,17L330,18 M330,17L331,18 M331,17L332,18 M222,18L223,19 M223,18L224,19 M224,18L225,19 M225,18L226,19 M226,18L227,19 M330,18L331,19 M331,18L332,19 M220,19L221,20 M221,19L222,20 M222,19L223,20 M223,19L224,20 M331,19L332,20 M332,19L333,20 M218,20L219,21 M219,20L220,21 M220,20L221,21 M221,20L222,21 M331,20L332,21 M332,20L333,21 M333,20L334,21 M216,21L217,22 M217,21L218,22 M218,21L219,22 M219,21L220,22 M332,21L333,22 M333,21L334,22 M334,21L335,22 M214,22L215,23 M215,22L216,23 M216,22L217,23 M217,22L218,23 M333,22L334,23 M334,22L335,23 M212,23L213,24 M213,23L214,24 M214,23L215,24 M215,23L216,24 M333,23L334,24 M334,23L335,24 M335,23L336,24 M210,24L211,25 M211,24L212,25 M212,24L213,25 M213,24L214,25 M334,24L335,25 M335,24L336,25 M336,24L337,25 M207,25L208,26 M208,25L209,26 M209,25L210,26 M210,25L211,26 M211,25L212,26 M335,25L336,26 M336,25L337,26 M205,26L206,27 M206,26L207,27 M207,26L208,27 M208,26L209,27 M209,26L210,27 M336,26L337,27 M337,26L338,27 M203,27L204,28 M204,27L205,28 M205,27L206,28 M206,27L207,28 M207,27L208,28 M336,27L337,28 M337,27L338,28 M338,27L339,28 M201,28L202,29 M202,28L203,29 M203,28L204,29 M204,28L205,29 M205,28L206,29 M337,28L338,29 M338,28L339,29 M199,29L200,30 M200,29L201,30 M201,29L202,30 M202,29L203,30 M203,29L204,30 M338,29L339,30 M339,29L340,30 M197,30L198,31 M198,30L199,31 M199,30L200,31 M200,30L201,31 M201,30L202,31 M338,30L339,31 M339,30L340,31 M340,30L341,31 M195,31L196,32 M196,31L197,32 M197,31L198,32 M198,31L199,32 M199,31L200,32 M339,31L340,32 M340,31L341,32 M194,32L195,33 M195,32L196,33 M196,32L197,33 M197,32L198,33 M340,32L341,33 M341,32L342,33 M192,33L193,34 M193,33L194,34 M194,33L195,34 M195,33L196,34 M340,33L341,34 M341,33L342,34 M191,34L192,35 M192,34L193,35 M193,34L194,35 M341,34L342,35 M342,34L343,35 M189,35L190,36 M190,35L191,36 M191,35L192,36 M192,35L193,36 M341,35L342,36 M342,35L343,36 M188,36L189,37 M189,36L190,37 M190,36L191,37 M342,36L343,37 M343,36L344,37 M186,37L187,38 M187,37L188,38 M188,37L189,38 M189,37L190,38 M342,37L343,38 M343,37L344,38 M185,38L186,39 M186,38L187,39 M187,38L188,39 M343,38L344,39 M344,38L345,39 M183,39L184,40 M184,39L185,40 M185,39L186,40 M186,39L187,40 M343,39L344,40 M344,39L345,40 M182,40L183,41 M183,40L184,41 M184,40L185,41 M344,40L345,41 M345,40L346,41 M180,41L181,42 M181,41L182,42 M182,41L183,42 M183,41L184,42 M344,41L345,42 M345,41L346,42 M179,42L180,43 M180,42L181,43 M181,42L182,43 M345,42L346,43 M346,42L347,43 M177,43L178,44 M178,43L179,44 M179,43L180,44 M180,43L181,44 M345,43L346,44 M346,43L347,44 M347,43L348,44 M176,44L177,45 M177,44L178,45 M178,44L179,45 M346,44L347,45 M347,44L348,45 M174,45L175,46 M175,45L176,46 M176,45L177,46 M177,45L178,46 M347,45L348,46 M348,45L349,46 M173,46L174,47 M174,46L175,47 M175,46L176,47 M347,46L348,47 M348,46L349,47 M171,47L172,48 M172,47L173,48 M173,47L174,48 M174,47L175,48 M348,47L349,48 M349,47L350,48 M169,48L170,49 M170,48L171,49 M171,48L172,49 M172,48L173,49 M348,48L349,49 M349,48L350,49 M350,48L351,49 M168,49L169,50 M169,49L170,50 M170,49L171,50 M171,49L172,50 M349,49L350,50 M350,49L351,50 M166,50L167,51 M167,50L168,51 M168,50L169,51 M169,50L170,51 M350,50L351,51 M351,50L352,51 M165,51L166,52 M166,51L167,52 M167,51L168,52 M168,51L169,52 M350,51L351,52 M351,51L352,52 M352,51L353,52 M164,52L165,53 M165,52L166,53 M166,52L167,53 M351,52L352,53 M352,52L353,53 M162,53L163,54 M163,53L164,54 M164,53L165,54 M165,53L166,54 M351,53L352,54 M352,53L353,54 M353,53L354,54 M161,54L162,55 M162,54L163,55 M163,54L164,55 M352,54L353,55 M353,54L354,55 M160,55L161,56 M161,55L162,56 M162,55L163,56 M353,55L354,56 M354,55L355,56 M158,56L159,57 M159,56L160,57 M160,56L161,57 M161,56L162,57 M353,56L354,57 M354,56L355,57 M355,56L356,57 M157,57L158,58 M158,57L159,58 M159,57L160,58 M354,57L355,58 M355,57L356,58 M156,58L157,59 M157,58L158,59 M158,58L159,59 M354,58L355,59 M355,58L356,59 M356,58L357,59 M154,59L155,60 M155,59L156,60 M156,59L157,60 M157,59L158,60 M355,59L356,60 M356,59L357,60 M153,60L154,61 M154,60L155,61 M155,60L156,61 M356,60L357,61 M357,60L358,61 M151,61L152,62 M152,61L153,62 M153,61L154,62 M154,61L155,62 M356,61L357,62 M357,61L358,62 M358,61L359,62 M150,62L151,63 M151,62L152,63 M152,62L153,63 M357,62L358,63 M358,62L359,63 M149,63L150,64 M150,63L151,64 M151,63L152,64 M357,63L358,64 M358,63L359,64 M359,63L360,64 M147,64L148,65 M148,64L149,65 M149,64L150,65 M150,64L151,65 M358,64L359,65 M359,64L360,65 M360,64L361,65 M146,65L147,66 M147,65L148,66 M148,65L149,66 M359,65L360,66 M360,65L361,66 M145,66L146,67 M146,66L147,67 M147,66L148,67 M360,66L361,67 M361,66L362,67 M143,67L144,68 M144,67L145,68 M145,67L146,68 M146,67L147,68 M360,67L361,68 M361,67L362,68 M362,67L363,68 M142,68L143,69 M143,68L144,69 M144,68L145,69 M361,68L362,69 M362,68L363,69 M140,69L141,70 M141,69L142,70 M142,69L143,70 M143,69L144,70 M362,69L363,70 M363,69L364,70 M139,70L140,71 M140,70L141,71 M141,70L142,71 M362,70L363,71 M363,70L364,71 M364,70L365,71 M138,71L139,72 M139,71L140,72 M140,71L141,72 M363,71L364,72 M364,71L365,72 M136,72L137,73 M137,72L138,73 M138,72L139,73 M139,72L140,73 M364,72L365,73 M365,72L366,73 M135,73L136,74 M136,73L137,74 M137,73L138,74 M364,73L365,74 M365,73L366,74 M366,73L367,74 M133,74L134,75 M134,74L135,75 M135,74L136,75 M136,74L137,75 M365,74L366,75 M366,74L367,75 M132,75L133,76 M133,75L134,76 M134,75L135,76 M135,75L136,76 M366,75L367,76 M367,75L368,76 M131,76L132,77 M132,76L133,77 M133,76L134,77 M366,76L367,77 M367,76L368,77 M368,76L369,77 M129,77L130,78 M130,77L131,78 M131,77L132,78 M132,77L133,78 M367,77L368,78 M368,77L369,78 M369,77L370,78 M128,78L129,79 M129,78L130,79 M130,78L131,79 M368,78L369,79 M369,78L370,79 M126,79L127,80 M127,79L128,80 M128,79L129,80 M129,79L130,80 M368,79L369,80 M369,79L370,80 M370,79L371,80 M125,80L126,81 M126,80L127,81 M127,80L128,81 M369,80L370,81 M370,80L371,81 M371,80L372,81 M123,81L124,82 M124,81L125,82 M125,81L126,82 M126,81L127,82 M370,81L371,82 M371,81L372,82 M122,82L123,83 M123,82L124,83 M124,82L125,83 M125,82L126,83 M371,82L372,83 M372,82L373,83 M121,83L122,84 M122,83L123,84 M123,83L124,84 M371,83L372,84 M372,83L373,84 M373,83L374,84 M119,84L120,85 M120,84L121,85 M121,84L122,85 M122,84L123,85 M372,84L373,85 M373,84L374,85 M118,85L119,86 M119,85L120,86 M120,85L121,86 M373,85L374,86 M374,85L375,86 M116,86L117,87 M117,86L118,87 M118,86L119,87 M119,86L120,87 M373,86L374,87 M374,86L375,87 M375,86L376,87 M115,87L116,88 M116,87L117,88 M117,87L118,88 M374,87L375,88 M375,87L376,88 M113,88L114,89 M114,88L115,89 M115,88L116,89 M116,88L117,89 M375,88L376,89 M376,88L377,89 M112,89L113,90 M113,89L114,90 M114,89L115,90 M115,89L116,90 M375,89L376,90 M376,89L377,90 M377,89L378,90 M111,90L112,91 M112,90L113,91 M113,90L114,91 M376,90L377,91 M377,90L378,91 M378,90L379,91 M109,91L110,92 M110,91L111,92 M111,91L112,92 M112,91L113,92 M377,91L378,92 M378,91L379,92 M108,92L109,93 M109,92L110,93 M110,92L111,93 M378,92L379,93 M379,92L380,93 M106,93L107,94 M107,93L108,94 M108,93L109,94 M109,93L110,94 M378,93L379,94 M379,93L380,94 M380,93L381,94 M105,94L106,95 M106,94L107,95 M107,94L108,95 M379,94L380,95 M380,94L381,95 M104,95L105,96 M105,95L106,96 M106,95L107,96 M380,95L381,96 M381,95L382,96 M103,96L104,97 M104,96L105,97 M105,96L106,97 M380,96L381,97 M381,96L382,97 M382,96L383,97 M102,97L103,98 M103,97L104,98 M381,97L382,98 M382,97L383,98 M383,97L384,98 M100,98L101,99 M101,98L102,99 M102,98L103,99 M382,98L383,99 M383,98L384,99 M99,99L100,100 M100,99L101,100 M101,99L102,100 M383,99L384,100 M384,99L385,100 M98,100L99,101 M99,100L100,101 M100,100L101,101 M383,100L384,101 M384,100L385,101 M385,100L386,101 M97,101L98,102 M98,101L99,102 M99,101L100,102 M384,101L385,102 M385,101L386,102 M386,101L387,102 M96,102L97,103 M97,102L98,103 M98,102L99,103 M385,102L386,103 M386,102L387,103 M95,103L96,104 M96,103L97,104 M97,103L98,104 M385,103L386,104 M386,103L387,104 M387,103L388,104 M94,104L95,105 M95,104L96,105 M96,104L97,105 M386,104L387,105 M387,104L388,105 M388,104L389,105 M93,105L94,106 M94,105L95,106 M95,105L96,106 M387,105L388,106 M388,105L389,106 M92,106L93,107 M93,106L94,107 M94,106L95,107 M388,106L389,107 M389,106L390,107 M91,107L92,108 M92,107L93,108 M93,107L94,108 M388,107L389,108 M389,107L390,108 M390,107L391,108 M90,108L91,109 M91,108L92,109 M92,108L93,109 M389,108L390,109 M390,108L391,109 M391,108L392,109 M89,109L90,110 M90,109L91,110 M390,109L391,110 M391,109L392,110 M392,109L393,110 M87,110L88,111 M88,110L89,111 M89,110L90,111 M391,110L392,111 M392,110L393,111 M393,110L394,111 M86,111L87,112 M87,111L88,112 M88,111L89,112 M392,111L393,112 M393,111L394,112 M394,111L395,112 M85,112L86,113 M86,112L87,113 M87,112L88,113 M393,112L394,113 M394,112L395,113 M395,112L396,113 M84,113L85,114 M85,113L86,114 M86,113L87,114 M394,113L395,114 M395,113L396,114 M396,113L397,114 M83,114L84,115 M84,114L85,115 M85,114L86,115 M395,114L396,115 M396,114L397,115 M397,114L398,115 M82,115L83,116 M83,115L84,116 M84,115L85,116 M397,115L398,116 M398,115L399,116 M81,116L82,117 M82,116L83,117 M83,116L84,117 M398,116L399,117 M399,116L400,117 M400,116L401,117 M80,117L81,118 M81,117L82,118 M82,117L83,118 M399,117L400,118 M400,117L401,118 M401,117L402,118 M79,118L80,119 M80,118L81,119 M81,118L82,119 M400,118L401,119 M401,118L402,119 M402,118L403,119 M78,119L79,120 M79,119L80,120 M80,119L81,120 M401,119L402,120 M402,119L403,120 M403,119L404,120 M77,120L78,121 M78,120L79,121 M79,120L80,121 M402,120L403,121 M403,120L404,121 M404,120L405,121 M76,121L77,122 M77,121L78,122 M78,121L79,122 M403,121L404,122 M404,121L405,122 M405,121L406,122 M75,122L76,123 M76,122L77,123 M77,122L78,123 M404,122L405,123 M405,122L406,123 M406,122L407,123 M74,123L75,124 M75,123L76,124 M76,123L77,124 M405,123L406,124 M406,123L407,124 M407,123L408,124 M73,124L74,125 M74,124L75,125 M75,124L76,125 M406,124L407,125 M407,124L408,125 M408,124L409,125 M72,125L73,126 M73,125L74,126 M74,125L75,126 M407,125L408,126 M408,125L409,126 M409,125L410,126 M71,126L72,127 M72,126L73,127 M73,126L74,127 M408,126L409,127 M409,126L410,127 M410,126L411,127 M70,127L71,128 M71,127L72,128 M72,127L73,128 M409,127L410,128 M410,127L411,128 M411,127L412,128 M69,128L70,129 M70,128L71,129 M71,128L72,129 M410,128L411,129 M411,128L412,129 M412,128L413,129 M68,129L69,130 M69,129L70,130 M70,129L71,130 M411,129L412,130 M412,129L413,130 M413,129L414,130 M67,130L68,131 M68,130L69,131 M69,130L70,131 M412,130L413,131 M413,130L414,131 M414,130L415,131 M66,131L67,132 M67,131L68,132 M68,131L69,132 M413,131L414,132 M414,131L415,132 M415,131L416,132 M65,132L66,133 M66,132L67,133 M67,132L68,133 M414,132L415,133 M415,132L416,133 M416,132L417,133 M64,133L65,134 M65,133L66,134 M66,133L67,134 M415,133L416,134 M416,133L417,134 M417,133L418,134 M63,134L64,135 M64,134L65,135 M65,134L66,135 M237,134L238,135 M238,134L239,135 M239,134L240,135 M240,134L241,135 M241,134L242,135 M242,134L243,135 M243,134L244,135 M244,134L245,135 M245,134L246,135 M246,134L247,135 M247,134L248,135 M248,134L249,135 M249,134L250,135 M250,134L251,135 M251,134L252,135 M252,134L253,135 M253,134L254,135 M254,134L255,135 M255,134L256,135 M256,134L257,135 M257,134L258,135 M258,134L259,135 M259,134L260,135 M260,134L261,135 M261,134L262,135 M262,134L263,135 M263,134L264,135 M264,134L265,135 M265,134L266,135 M266,134L267,135 M267,134L268,135 M268,134L269,135 M269,134L270,135 M270,134L271,135 M271,134L272,135 M272,134L273,135 M273,134L274,135 M274,134L275,135 M416,134L417,135 M417,134L418,135 M418,134L419,135 M62,135L63,136 M63,135L64,136 M64,135L65,136 M226,135L227,136 M227,135L228,136 M228,135L229,136 M229,135L230,136 M230,135L231,136 M231,135L232,136 M232,135L233,136 M233,135L234,136 M234,135L235,136 M235,135L236,136 M236,135L237,136 M237,135L238,136 M238,135L239,136 M239,135L240,136 M240,135L241,136 M241,135L242,136 M242,135L243,136 M243,135L244,136 M244,135L245,136 M245,135L246,136 M246,135L247,136 M247,135L248,136 M248,135L249,136 M249,135L250,136 M250,135L251,136 M251,135L252,136 M252,135L253,136 M253,135L254,136 M254,135L255,136 M255,135L256,136 M256,135L257,136 M257,135L258,136 M258,135L259,136 M259,135L260,136 M260,135L261,136 M261,135L262,136 M262,135L263,136 M263,135L264,136 M264,135L265,136 M265,135L266,136 M266,135L267,136 M267,135L268,136 M268,135L269,136 M269,135L270,136 M270,135L271,136 M271,135L272,136 M272,135L273,136 M273,135L274,136 M274,135L275,136 M417,135L418,136 M418,135L419,136 M419,135L420,136 M61,136L62,137 M62,136L63,137 M63,136L64,137 M217,136L218,137 M218,136L219,137 M219,136L220,137 M220,136L221,137 M221,136L222,137 M222,136L223,137 M223,136L224,137 M224,136L225,137 M225,136L226,137 M226,136L227,137 M227,136L228,137 M228,136L229,137 M229,136L230,137 M230,136L231,137 M231,136L232,137 M232,136L233,137 M233,136L234,137 M234,136L235,137 M235,136L236,137 M236,136L237,137 M418,136L419,137 M419,136L420,137 M420,136L421,137 M60,137L61,138 M61,137L62,138 M62,137L63,138 M212,137L213,138 M213,137L214,138 M214,137L215,138 M215,137L216,138 M216,137L217,138 M217,137L218,138 M218,137L219,138 M219,137L220,138 M220,137L221,138 M221,137L222,138 M222,137L223,138 M223,137L224,138 M224,137L225,138 M225,137L226,138 M419,137L420,138 M420,137L421,138 M421,137L422,138 M59,138L60,139 M60,138L61,139 M61,138L62,139 M208,138L209,139 M209,138L210,139 M210,138L211,139 M211,138L212,139 M212,138L213,139 M213,138L214,139 M214,138L215,139 M215,138L216,139 M216,138L217,139 M420,138L421,139 M421,138L422,139 M422,138L423,139 M58,139L59,140 M59,139L60,140 M60,139L61,140 M204,139L205,140 M205,139L206,140 M206,139L207,140 M207,139L208,140 M208,139L209,140 M209,139L210,140 M210,139L211,140 M211,139L212,140 M421,139L422,140 M422,139L423,140 M423,139L424,140 M57,140L58,141 M58,140L59,141 M59,140L60,141 M200,140L201,141 M201,140L202,141 M202,140L203,141 M203,140L204,141 M204,140L205,141 M205,140L206,141 M206,140L207,141 M207,140L208,141 M422,140L423,141 M423,140L424,141 M424,140L425,141 M56,141L57,142 M57,141L58,142 M58,141L59,142 M196,141L197,142 M197,141L198,142 M198,141L199,142 M199,141L200,142 M200,141L201,142 M201,141L202,142 M202,141L203,142 M203,141L204,142 M423,141L424,142 M424,141L425,142 M425,141L426,142 M55,142L56,143 M56,142L57,143 M57,142L58,143 M192,142L193,143 M193,142L194,143 M194,142L195,143 M195,142L196,143 M196,142L197,143 M197,142L198,143 M198,142L199,143 M199,142L200,143 M424,142L425,143 M425,142L426,143 M426,142L427,143 M427,142L428,143 M54,143L55,144 M55,143L56,144 M56,143L57,144 M189,143L190,144 M190,143L191,144 M191,143L192,144 M192,143L193,144 M193,143L194,144 M194,143L195,144 M195,143L196,144 M196,143L197,144 M426,143L427,144 M427,143L428,144 M428,143L429,144 M54,144L55,145 M55,144L56,145 M184,144L185,145 M185,144L186,145 M186,144L187,145 M187,144L188,145 M188,144L189,145 M189,144L190,145 M190,144L191,145 M191,144L192,145 M192,144L193,145 M427,144L428,145 M428,144L429,145 M429,144L430,145 M430,144L431,145 M53,145L54,146 M54,145L55,146 M179,145L180,146 M180,145L181,146 M181,145L182,146 M182,145L183,146 M183,145L184,146 M184,145L185,146 M185,145L186,146 M186,145L187,146 M187,145L188,146 M188,145L189,146 M429,145L430,146 M430,145L431,146 M431,145L432,146 M52,146L53,147 M53,146L54,147 M54,146L55,147 M174,146L175,147 M175,146L176,147 M176,146L177,147 M177,146L178,147 M178,146L179,147 M179,146L180,147 M180,146L181,147 M181,146L182,147 M182,146L183,147 M183,146L184,147 M430,146L431,147 M431,146L432,147 M432,146L433,147 M433,146L434,147 M51,147L52,148 M52,147L53,148 M53,147L54,148 M170,147L171,148 M171,147L172,148 M172,147L173,148 M173,147L174,148 M174,147L175,148 M175,147L176,148 M176,147L177,148 M177,147L178,148 M178,147L179,148 M432,147L433,148 M433,147L434,148 M434,147L435,148 M50,148L51,149 M51,148L52,149 M52,148L53,149 M165,148L166,149 M166,148L167,149 M167,148L168,149 M168,148L169,149 M169,148L170,149 M170,148L171,149 M171,148L172,149 M172,148L173,149 M173,148L174,149 M174,148L175,149 M433,148L434,149 M434,148L435,149 M435,148L436,149 M436,148L437,149 M49,149L50,150 M50,149L51,150 M51,149L52,150 M160,149L161,150 M161,149L162,150 M162,149L163,150 M163,149L164,150 M164,149L165,150 M165,149L166,150 M166,149L167,150 M167,149L168,150 M168,149L169,150 M169,149L170,150 M435,149L436,150 M436,149L437,150 M437,149L438,150 M438,149L439,150 M49,150L50,151 M50,150L51,151 M155,150L156,151 M156,150L157,151 M157,150L158,151 M158,150L159,151 M159,150L160,151 M160,150L161,151 M161,150L162,151 M162,150L163,151 M163,150L164,151 M164,150L165,151 M436,150L437,151 M437,150L438,151 M438,150L439,151 M439,150L440,151 M48,151L49,152 M49,151L50,152 M151,151L152,152 M152,151L153,152 M153,151L154,152 M154,151L155,152 M155,151L156,152 M156,151L157,152 M157,151L158,152 M158,151L159,152 M159,151L160,152 M438,151L439,152 M439,151L440,152 M440,151L441,152 M441,151L442,152 M47,152L48,153 M48,152L49,153 M49,152L50,153 M146,152L147,153 M147,152L148,153 M148,152L149,153 M149,152L150,153 M150,152L151,153 M151,152L152,153 M152,152L153,153 M153,152L154,153 M154,152L155,153 M439,152L440,153 M440,152L441,153 M441,152L442,153 M442,152L443,153 M46,153L47,154 M47,153L48,154 M48,153L49,154 M142,153L143,154 M143,153L144,154 M144,153L145,154 M145,153L146,154 M146,153L147,154 M147,153L148,154 M148,153L149,154 M149,153L150,154 M150,153L151,154 M441,153L442,154 M442,153L443,154 M443,153L444,154 M444,153L445,154 M45,154L46,155 M46,154L47,155 M47,154L48,155 M137,154L138,155 M138,154L139,155 M139,154L140,155 M140,154L141,155 M141,154L142,155 M142,154L143,155 M143,154L144,155 M144,154L145,155 M145,154L146,155 M443,154L444,155 M444,154L445,155 M445,154L446,155 M45,155L46,156 M46,155L47,156 M133,155L134,156 M134,155L135,156 M135,155L136,156 M136,155L137,156 M137,155L138,156 M138,155L139,156 M139,155L140,156 M140,155L141,156 M141,155L142,156 M444,155L445,156 M445,155L446,156 M446,155L447,156 M447,155L448,156 M44,156L45,157 M45,156L46,157 M129,156L130,157 M130,156L131,157 M131,156L132,157 M132,156L133,157 M133,156L134,157 M134,156L135,157 M135,156L136,157 M136,156L137,157 M446,156L447,157 M447,156L448,157 M448,156L449,157 M43,157L44,158 M44,157L45,158 M126,157L127,158 M127,157L128,158 M128,157L129,158 M129,157L130,158 M130,157L131,158 M131,157L132,158 M132,157L133,158 M447,157L448,158 M448,157L449,158 M449,157L450,158 M450,157L451,158 M42,158L43,159 M43,158L44,159 M44,158L45,159 M122,158L123,159 M123,158L124,159 M124,158L125,159 M125,158L126,159 M126,158L127,159 M127,158L128,159 M128,158L129,159 M449,158L450,159 M450,158L451,159 M451,158L452,159 M41,159L42,160 M42,159L43,160 M43,159L44,160 M119,159L120,160 M120,159L121,160 M121,159L122,160 M122,159L123,160 M123,159L124,160 M124,159L125,160 M125,159L126,160 M450,159L451,160 M451,159L452,160 M452,159L453,160 M453,159L454,160 M40,160L41,161 M41,160L42,161 M42,160L43,161 M115,160L116,161 M116,160L117,161 M117,160L118,161 M118,160L119,161 M119,160L120,161 M120,160L121,161 M121,160L122,161 M452,160L453,161 M453,160L454,161 M454,160L455,161 M455,160L456,161 M40,161L41,162 M41,161L42,162 M112,161L113,162 M113,161L114,162 M114,161L115,162 M115,161L116,162 M116,161L117,162 M117,161L118,162 M118,161L119,162 M454,161L455,162 M455,161L456,162 M456,161L457,162 M39,162L40,163 M40,162L41,163 M108,162L109,163 M109,162L110,163 M110,162L111,163 M111,162L112,163 M112,162L113,163 M113,162L114,163 M114,162L115,163 M455,162L456,163 M456,162L457,163 M457,162L458,163 M458,162L459,163 M38,163L39,164 M39,163L40,164 M40,163L41,164 M105,163L106,164 M106,163L107,164 M107,163L108,164 M108,163L109,164 M109,163L110,164 M110,163L111,164 M111,163L112,164 M457,163L458,164 M458,163L459,164 M459,163L460,164 M37,164L38,165 M38,164L39,165 M39,164L40,165 M101,164L102,165 M102,164L103,165 M103,164L104,165 M104,164L105,165 M105,164L106,165 M106,164L107,165 M107,164L108,165 M458,164L459,165 M459,164L460,165 M460,164L461,165 M461,164L462,165 M36,165L37,166 M37,165L38,166 M38,165L39,166 M98,165L99,166 M99,165L100,166 M100,165L101,166 M101,165L102,166 M102,165L103,166 M103,165L104,166 M104,165L105,166 M460,165L461,166 M461,165L462,166 M462,165L463,166 M463,165L464,166 M36,166L37,167 M37,166L38,167 M94,166L95,167 M95,166L96,167 M96,166L97,167 M97,166L98,167 M98,166L99,167 M99,166L100,167 M100,166L101,167 M462,166L463,167 M463,166L464,167 M464,166L465,167 M35,167L36,168 M36,167L37,168 M91,167L92,168 M92,167L93,168 M93,167L94,168 M94,167L95,168 M95,167L96,168 M96,167L97,168 M97,167L98,168 M463,167L464,168 M464,167L465,168 M465,167L466,168 M466,167L467,168 M34,168L35,169 M35,168L36,169 M87,168L88,169 M88,168L89,169 M89,168L90,169 M90,168L91,169 M91,168L92,169 M92,168L93,169 M93,168L94,169 M94,168L95,169 M465,168L466,169 M466,168L467,169 M467,168L468,169 M33,169L34,170 M34,169L35,170 M35,169L36,170 M84,169L85,170 M85,169L86,170 M86,169L87,170 M87,169L88,170 M88,169L89,170 M89,169L90,170 M90,169L91,170 M466,169L467,170 M467,169L468,170 M468,169L469,170 M469,169L470,170 M33,170L34,171 M34,170L35,171 M81,170L82,171 M82,170L83,171 M83,170L84,171 M84,170L85,171 M85,170L86,171 M86,170L87,171 M87,170L88,171 M468,170L469,171 M469,170L470,171 M470,170L471,171 M471,170L472,171 M32,171L33,172 M33,171L34,172 M76,171L77,172 M77,171L78,172 M78,171L79,172 M79,171L80,172 M80,171L81,172 M81,171L82,172 M82,171L83,172 M83,171L84,172 M469,171L470,172 M470,171L471,172 M471,171L472,172 M472,171L473,172 M473,171L474,172 M31,172L32,173 M32,172L33,173 M33,172L34,173 M72,172L73,173 M73,172L74,173 M74,172L75,173 M75,172L76,173 M76,172L77,173 M77,172L78,173 M78,172L79,173 M79,172L80,173 M80,172L81,173 M471,172L472,173 M472,172L473,173 M473,172L474,173 M474,172L475,173 M475,172L476,173 M31,173L32,174 M32,173L33,174 M67,173L68,174 M68,173L69,174 M69,173L70,174 M70,173L71,174 M71,173L72,174 M72,173L73,174 M73,173L74,174 M74,173L75,174 M75,173L76,174 M76,173L77,174 M473,173L474,174 M474,173L475,174 M475,173L476,174 M476,173L477,174 M477,173L478,174 M30,174L31,175 M31,174L32,175 M63,174L64,175 M64,174L65,175 M65,174L66,175 M66,174L67,175 M67,174L68,175 M68,174L69,175 M69,174L70,175 M70,174L71,175 M71,174L72,175 M475,174L476,175 M476,174L477,175 M477,174L478,175 M478,174L479,175 M479,174L480,175 M29,175L30,176 M30,175L31,176 M31,175L32,176 M58,175L59,176 M59,175L60,176 M60,175L61,176 M61,175L62,176 M62,175L63,176 M63,175L64,176 M64,175L65,176 M65,175L66,176 M66,175L67,176 M67,175L68,176 M478,175L479,176 M479,175L480,176 M480,175L481,176 M481,175L482,176 M29,176L30,177 M30,176L31,177 M53,176L54,177 M54,176L55,177 M55,176L56,177 M56,176L57,177 M57,176L58,177 M58,176L59,177 M59,176L60,177 M60,176L61,177 M61,176L62,177 M62,176L63,177 M480,176L481,177 M481,176L482,177 M482,176L483,177 M483,176L484,177 M28,177L29,178 M29,177L30,178 M47,177L48,178 M48,177L49,178 M49,177L50,178 M50,177L51,178 M51,177L52,178 M52,177L53,178 M53,177L54,178 M54,177L55,178 M55,177L56,178 M56,177L57,178 M57,177L58,178 M482,177L483,178 M483,177L484,178 M484,177L485,178 M485,177L486,178 M486,177L487,178 M27,178L28,179 M28,178L29,179 M29,178L30,179 M42,178L43,179 M43,178L44,179 M44,178L45,179 M45,178L46,179 M46,178L47,179 M47,178L48,179 M48,178L49,179 M49,178L50,179 M50,178L51,179 M51,178L52,179 M52,178L53,179 M484,178L485,179 M485,178L486,179 M486,178L487,179 M487,178L488,179 M488,178L489,179 M27,179L28,180 M28,179L29,180 M37,179L38,180 M38,179L39,180 M39,179L40,180 M40,179L41,180 M41,179L42,180 M42,179L43,180 M43,179L44,180 M44,179L45,180 M45,179L46,180 M46,179L47,180 M47,179L48,180 M486,179L487,180 M487,179L488,180 M488,179L489,180 M489,179L490,180 M490,179L491,180 M26,180L27,181 M27,180L28,181 M28,180L29,181 M29,180L30,181 M30,180L31,181 M31,180L32,181 M32,180L33,181 M33,180L34,181 M34,180L35,181 M35,180L36,181 M36,180L37,181 M37,180L38,181 M38,180L39,181 M39,180L40,181 M40,180L41,181 M41,180L42,181 M488,180L489,181 M489,180L490,181 M490,180L491,181 M491,180L492,181 M492,180L493,181 M26,181L27,182 M27,181L28,182 M28,181L29,182 M29,181L30,182 M30,181L31,182 M31,181L32,182 M32,181L33,182 M33,181L34,182 M34,181L35,182 M35,181L36,182 M36,181L37,182 M490,181L491,182 M491,181L492,182 M492,181L493,182 M493,181L494,182 M494,181L495,182 M493,182L494,183 M494,182L495,183 M495,182L496,183 M496,182L497,183 M495,183L496,184 M496,183L497,184 M497,183L498,184 M498,183L499,184 M497,184L498,185 M498,184L499,185 M499,184L500,185 M500,184L501,185 M501,184L502,185 M499,185L500,186 M500,185L501,186 M501,185L502,186 M502,185L503,186 M503,185L504,186 M504,185L505,186 M502,186L503,187 M503,186L504,187 M504,186L505,187 M505,186L506,187 M506,186L507,187 M504,187L505,188 M505,187L506,188 M506,187L507,188 M507,187L508,188 M508,187L509,188 M509,187L510,188 M507,188L508,189 M508,188L509,189 M509,188L510,189 M510,188L511,189 M511,188L512,189 M509,189L510,190 M510,189L511,190 M511,189L512,190 M512,189L513,190 M513,189L514,190 M514,189L515,190 M512,190L513,191 M513,190L514,191 M514,190L515,191 M515,190L516,191 M516,190L517,191 M514,191L515,192 M515,191L516,192 M516,191L517,192 M517,191L518,192 M518,191L519,192 M519,191L520,192 M517,192L518,193 M518,192L519,193 M519,192L520,193 M520,192L521,193 M521,192L522,193 M522,192L523,193 M520,193L521,194 M521,193L522,194 M522,193L523,194 M523,193L524,194 M524,193L525,194 M522,194L523,195 M523,194L524,195 M524,194L525,195 M525,194L526,195 M526,194L527,195 M527,194L528,195 M525,195L526,196 M526,195L527,196 M527,195L528,196 M528,195L529,196 M529,195L530,196 M527,196L528,197 M528,196L529,197 M529,196L530,197 M530,196L531,197 M531,196L532,197 M532,196L533,197 M533,196L534,197 M530,197L531,198 M531,197L532,198 M532,197L533,198 M533,197L534,198 M534,197L535,198 M535,197L536,198 M536,197L537,198 M533,198L534,199 M534,198L535,199 M535,198L536,199 M536,198L537,199 M537,198L538,199 M538,198L539,199 M539,198L540,199 M540,198L541,199 M537,199L538,200 M538,199L539,200 M539,199L540,200 M540,199L541,200 M541,199L542,200 M542,199L543,200 M543,199L544,200 M544,199L545,200 M541,200L542,201 M542,200L543,201 M543,200L544,201 M544,200L545,201 M545,200L546,201 M546,200L547,201 M547,200L548,201 M544,201L545,202 M545,201L546,202 M546,201L547,202 M547,201L548,202 M548,201L549,202 M549,201L550,202 M550,201L551,202 M551,201L552,202 M548,202L549,203 M549,202L550,203 M550,202L551,203 M551,202L552,203 M552,202L553,203 M553,202L554,203 M554,202L555,203 M555,202L556,203 M552,203L553,204 M553,203L554,204 M554,203L555,204 M555,203L556,204 M556,203L557,204 M557,203L558,204 M558,203L559,204 M555,204L556,205 M556,204L557,205 M557,204L558,205 M558,204L559,205 M559,204L560,205 M560,204L561,205 M561,204L562,205 M562,204L563,205 M559,205L560,206 M560,205L561,206 M561,205L562,206 M562,205L563,206 M563,205L564,206 M564,205L565,206 M565,205L566,206 M566,205L567,206 M567,205L568,206 M563,206L564,207 M564,206L565,207 M565,206L566,207 M566,206L567,207 M567,206L568,207 M568,206L569,207 M569,206L570,207 M570,206L571,207 M571,206L572,207 M567,207L568,208 M568,207L569,208 M569,207L570,208 M570,207L571,208 M571,207L572,208 M572,207L573,208 M573,207L574,208 M574,207L575,208 M575,207L576,208 M576,207L577,208 M572,208L573,209 M573,208L574,209 M574,208L575,209 M575,208L576,209 M576,208L577,209 M577,208L578,209 M578,208L579,209 M579,208L580,209 M580,208L581,209 M581,208L582,209 M577,209L578,210 M578,209L579,210 M579,209L580,210 M580,209L581,210 M581,209L582,210 M582,209L583,210 M583,209L584,210 M584,209L585,210 M585,209L586,210 M586,209L587,210 M582,210L583,211 M583,210L584,211 M584,210L585,211 M585,210L586,211 M586,210L587,211 M587,210L588,211 M588,210L589,211 M589,210L590,211 M590,210L591,211 M591,210L592,211 M587,211L588,212 M588,211L589,212 M589,211L590,212 M590,211L591,212 M591,211L592,212 M592,211L593,212 M593,211L594,212 M594,211L595,212 M595,211L596,212 M596,211L597,212 M592,212L593,213 M593,212L594,213 M594,212L595,213 M595,212L596,213 M596,212L597,213 M597,212L598,213 M597,213L598,214" fill="none" stroke="black" />
    </svg>