<svg xmlns="http://www.w3.org/2000/svg" width="800" height="250">
        <path d="M373,46L374,47 M374,46L375,47 M375,46L376,47 M371,47L372,48 M372,47L373,48 M373,47L374,48 M374,47L375,48 M375,47L376,48 M369,48L370,49 M370,48L371,49 M371,48L372,49 M372,48L373,49 M374,48L375,49 M375,48L376,49 M368,49L369,50 M369,49L370,50 M370,49L371,50 M371,49L372,50 M374,49L375,50 M375,49L376,50 M366,50L367,51 M367,50L368,51 M368,50L369,51 M369,50L370,51 M374,50L375,51 M375,50L376,51 M364,51L365,52 M365,51L366,52 M366,51L367,52 M367,51L368,52 M374,51L375,52 M375,51L376,52 M362,52L363,53 M363,52L364,53 M364,52L365,53 M365,52L366,53 M374,52L375,53 M375,52L376,53 M361,53L362,54 M362,53L363,54 M363,53L364,54 M364,53L365,54 M374,53L375,54 M375,53L376,54 M359,54L360,55 M360,54L361,55 M361,54L362,55 M362,54L363,55 M374,54L375,55 M375,54L376,55 M357,55L358,56 M358,55L359,56 M359,55L360,56 M360,55L361,56 M374,55L375,56 M375,55L376,56 M355,56L356,57 M356,56L357,57 M357,56L358,57 M358,56L359,57 M374,56L375,57 M375,56L376,57 M353,57L354,58 M354,57L355,58 M355,57L356,58 M356,57L357,58 M374,57L375,58 M375,57L376,58 M351,58L352,59 M352,58L353,59 M353,58L354,59 M354,58L355,59 M374,58L375,59 M375,58L376,59 M349,59L350,60 M350,59L351,60 M351,59L352,60 M352,59L353,60 M374,59L375,60 M375,59L376,60 M347,60L348,61 M348,60L349,61 M349,60L350,61 M350,60L351,61 M374,60L375,61 M375,60L376,61 M346,61L347,62 M347,61L348,62 M348,61L349,62 M349,61L350,62 M374,61L375,62 M375,61L376,62 M344,62L345,63 M345,62L346,63 M346,62L347,63 M347,62L348,63 M374,62L375,63 M375,62L376,63 M342,63L343,64 M343,63L344,64 M344,63L345,64 M345,63L346,64 M374,63L375,64 M375,63L376,64 M340,64L341,65 M341,64L342,65 M342,64L343,65 M343,64L344,65 M374,64L375,65 M375,64L376,65 M339,65L340,66 M340,65L341,66 M341,65L342,66 M342,65L343,66 M374,65L375,66 M375,65L376,66 M337,66L338,67 M338,66L339,67 M339,66L340,67 M340,66L341,67 M374,66L375,67 M375,66L376,67 M336,67L337,68 M337,67L338,68 M338,67L339,68 M374,67L375,68 M375,67L376,68 M334,68L335,69 M335,68L336,69 M336,68L337,69 M337,68L338,69 M374,68L375,69 M375,68L376,69 M333,69L334,70 M334,69L335,70 M335,69L336,70 M374,69L375,70 M375,69L376,70 M331,70L332,71 M332,70L333,71 M333,70L334,71 M334,70L335,71 M374,70L375,71 M375,70L376,71 M330,71L331,72 M331,71L332,72 M332,71L333,72 M374,71L375,72 M375,71L376,72 M329,72L330,73 M330,72L331,73 M331,72L332,73 M374,72L375,73 M375,72L376,73 M327,73L328,74 M328,73L329,74 M329,73L330,74 M330,73L331,74 M374,73L375,74 M375,73L376,74 M326,74L327,75 M327,74L328,75 M328,74L329,75 M373,74L374,75 M374,74L375,75 M325,75L326,76 M326,75L327,76 M327,75L328,76 M373,75L374,76 M374,75L375,76 M323,76L324,77 M324,76L325,77 M325,76L326,77 M326,76L327,77 M373,76L374,77 M374,76L375,77 M322,77L323,78 M323,77L324,78 M324,77L325,78 M373,77L374,78 M374,77L375,78 M321,78L322,79 M322,78L323,79 M323,78L324,79 M373,78L374,79 M374,78L375,79 M319,79L320,80 M320,79L321,80 M321,79L322,80 M322,79L323,80 M373,79L374,80 M374,79L375,80 M318,80L319,81 M319,80L320,81 M320,80L321,81 M373,80L374,81 M374,80L375,81 M316,81L317,82 M317,81L318,82 M318,81L319,82 M319,81L320,82 M373,81L374,82 M374,81L375,82 M314,82L315,83 M315,82L316,83 M316,82L317,83 M317,82L318,83 M373,82L374,83 M374,82L375,83 M312,83L313,84 M313,83L314,84 M314,83L315,84 M315,83L316,84 M372,83L373,84 M373,83L374,84 M310,84L311,85 M311,84L312,85 M312,84L313,85 M313,84L314,85 M372,84L373,85 M373,84L374,85 M308,85L309,86 M309,85L310,86 M310,85L311,86 M311,85L312,86 M372,85L373,86 M373,85L374,86 M306,86L307,87 M307,86L308,87 M308,86L309,87 M309,86L310,87 M372,86L373,87 M373,86L374,87 M304,87L305,88 M305,87L306,88 M306,87L307,88 M307,87L308,88 M372,87L373,88 M373,87L374,88 M302,88L303,89 M303,88L304,89 M304,88L305,89 M305,88L306,89 M371,88L372,89 M372,88L373,89 M402,88L403,89 M403,88L404,89 M404,88L405,89 M405,88L406,89 M406,88L407,89 M407,88L408,89 M408,88L409,89 M409,88L410,89 M410,88L411,89 M411,88L412,89 M412,88L413,89 M413,88L414,89 M414,88L415,89 M415,88L416,89 M416,88L417,89 M417,88L418,89 M418,88L419,89 M419,88L420,89 M420,88L421,89 M421,88L422,89 M422,88L423,89 M300,89L301,90 M301,89L302,90 M302,89L303,90 M303,89L304,90 M371,89L372,90 M372,89L373,90 M399,89L400,90 M400,89L401,90 M401,89L402,90 M402,89L403,90 M403,89L404,90 M404,89L405,90 M405,89L406,90 M406,89L407,90 M407,89L408,90 M408,89L409,90 M409,89L410,90 M410,89L411,90 M411,89L412,90 M412,89L413,90 M413,89L414,90 M414,89L415,90 M415,89L416,90 M416,89L417,90 M417,89L418,90 M418,89L419,90 M419,89L420,90 M420,89L421,90 M421,89L422,90 M422,89L423,90 M423,89L424,90 M424,89L425,90 M425,89L426,90 M426,89L427,90 M427,89L428,90 M428,89L429,90 M298,90L299,91 M299,90L300,91 M300,90L301,91 M301,90L302,91 M371,90L372,91 M372,90L373,91 M396,90L397,91 M397,90L398,91 M398,90L399,91 M399,90L400,91 M400,90L401,91 M401,90L402,91 M423,90L424,91 M424,90L425,91 M425,90L426,91 M426,90L427,91 M427,90L428,91 M428,90L429,91 M429,90L430,91 M430,90L431,91 M296,91L297,92 M297,91L298,92 M298,91L299,92 M299,91L300,92 M371,91L372,92 M372,91L373,92 M393,91L394,92 M394,91L395,92 M395,91L396,92 M396,91L397,92 M397,91L398,92 M398,91L399,92 M429,91L430,92 M430,91L431,92 M431,91L432,92 M294,92L295,93 M295,92L296,93 M296,92L297,93 M297,92L298,93 M371,92L372,93 M372,92L373,93 M389,92L390,93 M390,92L391,93 M391,92L392,93 M392,92L393,93 M393,92L394,93 M394,92L395,93 M395,92L396,93 M430,92L431,93 M431,92L432,93 M432,92L433,93 M433,92L434,93 M291,93L292,94 M292,93L293,94 M293,93L294,94 M294,93L295,94 M295,93L296,94 M370,93L371,94 M371,93L372,94 M386,93L387,94 M387,93L388,94 M388,93L389,94 M389,93L390,94 M390,93L391,94 M391,93L392,94 M392,93L393,94 M432,93L433,94 M433,93L434,94 M434,93L435,94 M289,94L290,95 M290,94L291,95 M291,94L292,95 M292,94L293,95 M293,94L294,95 M370,94L371,95 M371,94L372,95 M384,94L385,95 M385,94L386,95 M386,94L387,95 M387,94L388,95 M388,94L389,95 M389,94L390,95 M433,94L434,95 M434,94L435,95 M435,94L436,95 M436,94L437,95 M287,95L288,96 M288,95L289,96 M289,95L290,96 M290,95L291,96 M291,95L292,96 M370,95L371,96 M371,95L372,96 M383,95L384,96 M384,95L385,96 M385,95L386,96 M386,95L387,96 M435,95L436,96 M436,95L437,96 M437,95L438,96 M285,96L286,97 M286,96L287,97 M287,96L288,97 M288,96L289,97 M289,96L290,97 M369,96L370,97 M370,96L371,97 M371,96L372,97 M382,96L383,97 M383,96L384,97 M384,96L385,97 M436,96L437,97 M437,96L438,97 M438,96L439,97 M439,96L440,97 M283,97L284,98 M284,97L285,98 M285,97L286,98 M286,97L287,98 M287,97L288,98 M369,97L370,98 M370,97L371,98 M381,97L382,98 M382,97L383,98 M383,97L384,98 M438,97L439,98 M439,97L440,98 M440,97L441,98 M441,97L442,98 M281,98L282,99 M282,98L283,99 M283,98L284,99 M284,98L285,99 M369,98L370,99 M370,98L371,99 M379,98L380,99 M380,98L381,99 M381,98L382,99 M439,98L440,99 M440,98L441,99 M441,98L442,99 M442,98L443,99 M278,99L279,100 M279,99L280,100 M280,99L281,100 M281,99L282,100 M282,99L283,100 M368,99L369,100 M369,99L370,100 M370,99L371,100 M378,99L379,100 M379,99L380,100 M380,99L381,100 M441,99L442,100 M442,99L443,100 M443,99L444,100 M444,99L445,100 M276,100L277,101 M277,100L278,101 M278,100L279,101 M279,100L280,101 M280,100L281,101 M368,100L369,101 M369,100L370,101 M377,100L378,101 M378,100L379,101 M379,100L380,101 M442,100L443,101 M443,100L444,101 M444,100L445,101 M445,100L446,101 M274,101L275,102 M275,101L276,102 M276,101L277,102 M277,101L278,102 M278,101L279,102 M368,101L369,102 M369,101L370,102 M376,101L377,102 M377,101L378,102 M378,101L379,102 M444,101L445,102 M445,101L446,102 M446,101L447,102 M272,102L273,103 M273,102L274,103 M274,102L275,103 M275,102L276,103 M276,102L277,103 M367,102L368,103 M368,102L369,103 M369,102L370,103 M375,102L376,103 M376,102L377,103 M377,102L378,103 M445,102L446,103 M446,102L447,103 M447,102L448,103 M270,103L271,104 M271,103L272,104 M272,103L273,104 M273,103L274,104 M274,103L275,104 M367,103L368,104 M368,103L369,104 M374,103L375,104 M375,103L376,104 M376,103L377,104 M446,103L447,104 M447,103L448,104 M448,103L449,104 M268,104L269,105 M269,104L270,105 M270,104L271,105 M271,104L272,105 M367,104L368,105 M368,104L369,105 M373,104L374,105 M374,104L375,105 M375,104L376,105 M447,104L448,105 M448,104L449,105 M449,104L450,105 M265,105L266,106 M266,105L267,106 M267,105L268,106 M268,105L269,106 M269,105L270,106 M366,105L367,106 M367,105L368,106 M368,105L369,106 M373,105L374,106 M374,105L375,106 M448,105L449,106 M449,105L450,106 M450,105L451,106 M263,106L264,107 M264,106L265,107 M265,106L266,107 M266,106L267,107 M267,106L268,107 M366,106L367,107 M367,106L368,107 M372,106L373,107 M373,106L374,107 M449,106L450,107 M450,106L451,107 M451,106L452,107 M261,107L262,108 M262,107L263,108 M263,107L264,108 M264,107L265,108 M265,107L266,108 M366,107L367,108 M367,107L368,108 M371,107L372,108 M372,107L373,108 M373,107L374,108 M450,107L451,108 M451,107L452,108 M259,108L260,109 M260,108L261,109 M261,108L262,109 M262,108L263,109 M263,108L264,109 M365,108L366,109 M366,108L367,109 M367,108L368,109 M370,108L371,109 M371,108L372,109 M372,108L373,109 M451,108L452,109 M452,108L453,109 M257,109L258,110 M258,109L259,110 M259,109L260,110 M260,109L261,110 M261,109L262,110 M365,109L366,110 M366,109L367,110 M369,109L370,110 M370,109L371,110 M371,109L372,110 M451,109L452,110 M452,109L453,110 M255,110L256,111 M256,110L257,111 M257,110L258,111 M258,110L259,111 M365,110L366,111 M366,110L367,111 M369,110L370,111 M370,110L371,111 M452,110L453,111 M453,110L454,111 M253,111L254,112 M254,111L255,112 M255,111L256,112 M256,111L257,112 M364,111L365,112 M365,111L366,112 M366,111L367,112 M368,111L369,112 M369,111L370,112 M452,111L453,112 M453,111L454,112 M250,112L251,113 M251,112L252,113 M252,112L253,113 M253,112L254,113 M254,112L255,113 M364,112L365,113 M365,112L366,113 M367,112L368,113 M368,112L369,113 M369,112L370,113 M453,112L454,113 M454,112L455,113 M248,113L249,114 M249,113L250,114 M250,113L251,114 M251,113L252,114 M252,113L253,114 M364,113L365,114 M365,113L366,114 M367,113L368,114 M368,113L369,114 M453,113L454,114 M454,113L455,114 M246,114L247,115 M247,114L248,115 M248,114L249,115 M249,114L250,115 M250,114L251,115 M364,114L365,115 M365,114L366,115 M366,114L367,115 M367,114L368,115 M454,114L455,115 M455,114L456,115 M244,115L245,116 M245,115L246,116 M246,115L247,116 M247,115L248,116 M248,115L249,116 M364,115L365,116 M365,115L366,116 M366,115L367,116 M367,115L368,116 M454,115L455,116 M455,115L456,116 M242,116L243,117 M243,116L244,117 M244,116L245,117 M245,116L246,117 M365,116L366,117 M454,116L455,117 M455,116L456,117 M456,116L457,117 M239,117L240,118 M240,117L241,118 M241,117L242,118 M242,117L243,118 M243,117L244,118 M455,117L456,118 M456,117L457,118 M236,118L237,119 M237,118L238,119 M238,118L239,119 M239,118L240,119 M240,118L241,119 M241,118L242,119 M455,118L456,119 M456,118L457,119 M234,119L235,120 M235,119L236,120 M236,119L237,120 M237,119L238,120 M238,119L239,120 M239,119L240,120 M455,119L456,120 M456,119L457,120 M231,120L232,121 M232,120L233,121 M233,120L234,121 M234,120L235,121 M235,120L236,121 M236,120L237,121 M456,120L457,121 M457,120L458,121 M228,121L229,122 M229,121L230,122 M230,121L231,122 M231,121L232,122 M232,121L233,122 M233,121L234,122 M456,121L457,122 M457,121L458,122 M225,122L226,123 M226,122L227,123 M227,122L228,123 M228,122L229,123 M229,122L230,123 M230,122L231,123 M456,122L457,123 M457,122L458,123 M171,123L172,124 M172,123L173,124 M173,123L174,124 M174,123L175,124 M175,123L176,124 M176,123L177,124 M222,123L223,124 M223,123L224,124 M224,123L225,124 M225,123L226,124 M226,123L227,124 M227,123L228,124 M457,123L458,124 M458,123L459,124 M170,124L171,125 M171,124L172,125 M172,124L173,125 M173,124L174,125 M174,124L175,125 M175,124L176,125 M176,124L177,125 M177,124L178,125 M178,124L179,125 M179,124L180,125 M180,124L181,125 M181,124L182,125 M182,124L183,125 M183,124L184,125 M184,124L185,125 M185,124L186,125 M186,124L187,125 M187,124L188,125 M188,124L189,125 M189,124L190,125 M190,124L191,125 M191,124L192,125 M192,124L193,125 M193,124L194,125 M194,124L195,125 M195,124L196,125 M196,124L197,125 M197,124L198,125 M198,124L199,125 M199,124L200,125 M200,124L201,125 M201,124L202,125 M202,124L203,125 M203,124L204,125 M204,124L205,125 M205,124L206,125 M206,124L207,125 M207,124L208,125 M208,124L209,125 M209,124L210,125 M210,124L211,125 M211,124L212,125 M212,124L213,125 M213,124L214,125 M214,124L215,125 M215,124L216,125 M216,124L217,125 M217,124L218,125 M218,124L219,125 M219,124L220,125 M220,124L221,125 M221,124L222,125 M222,124L223,125 M223,124L224,125 M224,124L225,125 M457,124L458,125 M458,124L459,125 M177,125L178,126 M178,125L179,126 M179,125L180,126 M180,125L181,126 M181,125L182,126 M182,125L183,126 M183,125L184,126 M184,125L185,126 M185,125L186,126 M186,125L187,126 M187,125L188,126 M188,125L189,126 M189,125L190,126 M190,125L191,126 M191,125L192,126 M192,125L193,126 M193,125L194,126 M194,125L195,126 M195,125L196,126 M196,125L197,126 M197,125L198,126 M198,125L199,126 M199,125L200,126 M200,125L201,126 M201,125L202,126 M202,125L203,126 M203,125L204,126 M204,125L205,126 M205,125L206,126 M206,125L207,126 M207,125L208,126 M208,125L209,126 M209,125L210,126 M210,125L211,126 M211,125L212,126 M212,125L213,126 M213,125L214,126 M214,125L215,126 M215,125L216,126 M216,125L217,126 M217,125L218,126 M218,125L219,126 M219,125L220,126 M220,125L221,126 M221,125L222,126 M457,125L458,126 M458,125L459,126 M457,126L458,127 M458,126L459,127 M457,127L458,128 M458,127L459,128 M459,127L460,128 M458,128L459,129 M459,128L460,129 M458,129L459,130 M459,129L460,130 M458,130L459,131 M459,130L460,131 M458,131L459,132 M459,131L460,132 M458,132L459,133 M459,132L460,133 M460,132L461,133 M459,133L460,134 M460,133L461,134 M459,134L460,135 M460,134L461,135 M459,135L460,136 M460,135L461,136 M459,136L460,137 M460,136L461,137 M459,137L460,138 M460,137L461,138 M459,138L460,139 M460,138L461,139 M459,139L460,140 M460,139L461,140 M459,140L460,141 M460,140L461,141 M459,141L460,142 M460,141L461,142 M459,142L460,143 M460,142L461,143 M459,143L460,144 M460,143L461,144 M460,144L461,145 M461,144L462,145 M460,145L461,146 M461,145L462,146 M460,146L461,147 M461,146L462,147 M460,147L461,148 M461,147L462,148 M460,148L461,149 M461,148L462,149 M460,149L461,150 M461,149L462,150 M460,150L461,151 M461,150L462,151 M460,151L461,152 M461,151L462,152 M460,152L461,153 M461,152L462,153 M460,153L461,154 M461,153L462,154 M460,154L461,155 M461,154L462,155 M460,155L461,156 M461,155L462,156 M460,156L461,157 M461,156L462,157 M460,157L461,158 M461,157L462,158 M460,158L461,159 M461,158L462,159 M460,159L461,160 M461,159L462,160 M460,160L461,161 M461,160L462,161 M460,161L461,162 M461,161L462,162 M460,162L461,163 M461,162L462,163 M459,163L460,164 M460,163L461,164 M459,164L460,165 M460,164L461,165 M459,165L460,166 M460,165L461,166 M458,166L459,167 M459,166L460,167 M458,167L459,168 M459,167L460,168 M458,168L459,169 M459,168L460,169 M458,169L459,170 M459,169L460,170 M457,170L458,171 M458,170L459,171 M457,171L458,172 M458,171L459,172 M457,172L458,173 M458,172L459,173 M457,173L458,174 M458,173L459,174 M457,174L458,175 M458,174L459,175 M457,175L458,176 M458,175L459,176 M457,176L458,177 M458,176L459,177 M457,177L458,178 M458,177L459,178 M457,178L458,179 M458,178L459,179 M457,179L458,180 M458,179L459,180 M457,180L458,181 M458,180L459,181 M457,181L458,182 M458,181L459,182 M457,182L458,183 M458,182L459,183 M457,183L458,184 M458,183L459,184 M457,184L458,185 M458,184L459,185 M457,185L458,186 M458,185L459,186 M457,186L458,187 M458,186L459,187 M457,187L458,188 M458,187L459,188 M457,188L458,189 M458,188L459,189 M457,189L458,190 M458,189L459,190 M457,190L458,191 M458,190L459,191 M457,191L458,192 M458,191L459,192 M457,192L458,193 M458,192L459,193 M457,193L458,194 M458,193L459,194 M457,194L458,195 M458,194L459,195 M457,195L458,196 M458,195L459,196 M457,196L458,197 M458,196L459,197 M457,197L458,198 M458,197L459,198 M457,198L458,199 M458,198L459,199 M457,199L458,200 M458,199L459,200 M457,200L458,201 M458,200L459,201 M457,201L458,202 M458,201L459,202 M457,202L458,203 M458,202L459,203 M457,203L458,204 M458,203L459,204 M457,204L458,205 M458,204L459,205 M457,205L458,206 M458,205L459,206 M458,206L459,207 M459,206L460,207 M458,207L459,208 M459,207L460,208 M458,208L459,209 M459,208L460,209 M458,209L459,210 M459,209L460,210 M458,210L459,211 M459,210L460,211 M459,211L460,212 M460,211L461,212 M459,212L460,213 M460,212L461,213 M459,213L460,214 M460,213L461,214 M459,214L460,215 M460,214L461,215 M459,215L460,216 M460,215L461,216 M460,216L461,217 M461,216L462,217 M460,217L461,218 M461,217L462,218 M460,218L461,219 M461,218L462,219 M460,219L461,220 M461,219L462,220 M460,220L461,221 M461,220L462,221 M461,221L462,222 M462,221L463,222 M461,222L462,223 M462,222L463,223 M461,223L462,224 M462,223L463,224 M461,224L462,225 M462,224L463,225 M461,225L462,226 M462,225L463,226 M462,226L463,227 M463,226L464,227 M462,227L463,228 M463,227L464,228 M462,228L463,229 M463,228L464,229 M462,229L463,230 M463,229L464,230 M462,230L463,231 M463,230L464,231 M462,231L463,232 M463,231L464,232 M462,232L463,233 M463,232L464,233 M462,233L463,234 M463,233L464,234 M462,234L463,235 M463,234L464,235 M462,235L463,236 M463,235L464,236 M462,236L463,237 M463,236L464,237 M462,237L463,238 M463,237L464,238 M462,238L463,239 M463,238L464,239 M462,239L463,240 M463,239L464,240 M462,240L463,241 M463,240L464,241 M462,241L463,242 M463,241L464,242 M462,242L463,243 M463,242L464,243 M462,243L463,244 M463,243L464,244 M462,244L463,245 M463,244L464,245 M462,245L463,246 M463,245L464,246 M462,246L463,247 M463,246L464,247 M462,247L463,248 M463,247L464,248 M462,248L463,249 M463,248L464,249" fill="none" stroke="black" />
    </svg>