<svg xmlns="http://www.w3.org/2000/svg" width="800" height="250">
        <path d="M263,77L264,78 M264,77L265,78 M265,77L266,78 M266,77L267,78 M267,77L268,78 M268,77L269,78 M269,77L270,78 M270,77L271,78 M271,77L272,78 M272,77L273,78 M273,77L274,78 M274,77L275,78 M275,77L276,78 M276,77L277,78 M277,77L278,78 M278,77L279,78 M279,77L280,78 M280,77L281,78 M281,77L282,78 M282,77L283,78 M283,77L284,78 M284,77L285,78 M285,77L286,78 M286,77L287,78 M287,77L288,78 M288,77L289,78 M289,77L290,78 M290,77L291,78 M291,77L292,78 M292,77L293,78 M228,78L229,79 M229,78L230,79 M230,78L231,79 M231,78L232,79 M232,78L233,79 M233,78L234,79 M234,78L235,79 M235,78L236,79 M236,78L237,79 M237,78L238,79 M238,78L239,79 M239,78L240,79 M240,78L241,79 M241,78L242,79 M242,78L243,79 M243,78L244,79 M244,78L245,79 M245,78L246,79 M246,78L247,79 M247,78L248,79 M248,78L249,79 M249,78L250,79 M250,78L251,79 M251,78L252,79 M252,78L253,79 M253,78L254,79 M254,78L255,79 M255,78L256,79 M256,78L257,79 M257,78L258,79 M258,78L259,79 M259,78L260,79 M260,78L261,79 M261,78L262,79 M262,78L263,79 M263,78L264,79 M264,78L265,79 M265,78L266,79 M266,78L267,79 M267,78L268,79 M268,78L269,79 M269,78L270,79 M270,78L271,79 M271,78L272,79 M272,78L273,79 M273,78L274,79 M274,78L275,79 M275,78L276,79 M276,78L277,79 M277,78L278,79 M278,78L279,79 M279,78L280,79 M280,78L281,79 M281,78L282,79 M282,78L283,79 M283,78L284,79 M284,78L285,79 M285,78L286,79 M286,78L287,79 M287,78L288,79 M288,78L289,79 M289,78L290,79 M290,78L291,79 M291,78L292,79 M292,78L293,79 M293,78L294,79 M294,78L295,79 M295,78L296,79 M296,78L297,79 M227,79L228,80 M228,79L229,80 M229,79L230,80 M230,79L231,80 M231,79L232,80 M232,79L233,80 M233,79L234,80 M234,79L235,80 M235,79L236,80 M236,79L237,80 M237,79L238,80 M238,79L239,80 M239,79L240,80 M240,79L241,80 M241,79L242,80 M242,79L243,80 M243,79L244,80 M244,79L245,80 M245,79L246,80 M246,79L247,80 M247,79L248,80 M248,79L249,80 M249,79L250,80 M250,79L251,80 M251,79L252,80 M252,79L253,80 M253,79L254,80 M254,79L255,80 M255,79L256,80 M256,79L257,80 M257,79L258,80 M258,79L259,80 M259,79L260,80 M260,79L261,80 M261,79L262,80 M293,79L294,80 M294,79L295,80 M295,79L296,80 M296,79L297,80 M297,79L298,80 M298,79L299,80 M299,79L300,80 M300,79L301,80 M225,80L226,81 M226,80L227,81 M227,80L228,81 M228,80L229,81 M297,80L298,81 M298,80L299,81 M299,80L300,81 M300,80L301,81 M301,80L302,81 M302,80L303,81 M303,80L304,81 M304,80L305,81 M223,81L224,82 M224,81L225,82 M225,81L226,82 M226,81L227,82 M301,81L302,82 M302,81L303,82 M303,81L304,82 M304,81L305,82 M305,81L306,82 M306,81L307,82 M307,81L308,82 M308,81L309,82 M221,82L222,83 M222,82L223,83 M223,82L224,83 M224,82L225,83 M305,82L306,83 M306,82L307,83 M307,82L308,83 M308,82L309,83 M309,82L310,83 M310,82L311,83 M311,82L312,83 M312,82L313,83 M219,83L220,84 M220,83L221,84 M221,83L222,84 M222,83L223,84 M223,83L224,84 M309,83L310,84 M310,83L311,84 M311,83L312,84 M312,83L313,84 M313,83L314,84 M314,83L315,84 M315,83L316,84 M316,83L317,84 M218,84L219,85 M219,84L220,85 M220,84L221,85 M221,84L222,85 M313,84L314,85 M314,84L315,85 M315,84L316,85 M316,84L317,85 M317,84L318,85 M318,84L319,85 M319,84L320,85 M320,84L321,85 M216,85L217,86 M217,85L218,86 M218,85L219,86 M219,85L220,86 M317,85L318,86 M318,85L319,86 M319,85L320,86 M320,85L321,86 M321,85L322,86 M322,85L323,86 M323,85L324,86 M324,85L325,86 M214,86L215,87 M215,86L216,87 M216,86L217,87 M217,86L218,87 M321,86L322,87 M322,86L323,87 M323,86L324,87 M324,86L325,87 M325,86L326,87 M326,86L327,87 M327,86L328,87 M328,86L329,87 M212,87L213,88 M213,87L214,88 M214,87L215,88 M215,87L216,88 M325,87L326,88 M326,87L327,88 M327,87L328,88 M328,87L329,88 M329,87L330,88 M330,87L331,88 M331,87L332,88 M332,87L333,88 M211,88L212,89 M212,88L213,89 M213,88L214,89 M214,88L215,89 M329,88L330,89 M330,88L331,89 M331,88L332,89 M332,88L333,89 M333,88L334,89 M334,88L335,89 M335,88L336,89 M336,88L337,89 M209,89L210,90 M210,89L211,90 M211,89L212,90 M212,89L213,90 M333,89L334,90 M334,89L335,90 M335,89L336,90 M336,89L337,90 M337,89L338,90 M338,89L339,90 M339,89L340,90 M340,89L341,90 M207,90L208,91 M208,90L209,91 M209,90L210,91 M210,90L211,91 M337,90L338,91 M338,90L339,91 M339,90L340,91 M340,90L341,91 M341,90L342,91 M342,90L343,91 M343,90L344,91 M344,90L345,91 M205,91L206,92 M206,91L207,92 M207,91L208,92 M208,91L209,92 M340,91L341,92 M341,91L342,92 M342,91L343,92 M343,91L344,92 M344,91L345,92 M345,91L346,92 M346,91L347,92 M347,91L348,92 M348,91L349,92 M203,92L204,93 M204,92L205,93 M205,92L206,93 M206,92L207,93 M232,92L233,93 M233,92L234,93 M234,92L235,93 M235,92L236,93 M236,92L237,93 M237,92L238,93 M238,92L239,93 M239,92L240,93 M240,92L241,93 M241,92L242,93 M242,92L243,93 M243,92L244,93 M244,92L245,93 M245,92L246,93 M246,92L247,93 M247,92L248,93 M248,92L249,93 M249,92L250,93 M250,92L251,93 M251,92L252,93 M252,92L253,93 M253,92L254,93 M254,92L255,93 M255,92L256,93 M256,92L257,93 M257,92L258,93 M258,92L259,93 M344,92L345,93 M345,92L346,93 M346,92L347,93 M347,92L348,93 M348,92L349,93 M349,92L350,93 M350,92L351,93 M351,92L352,93 M352,92L353,93 M202,93L203,94 M203,93L204,94 M204,93L205,94 M205,93L206,94 M225,93L226,94 M226,93L227,94 M227,93L228,94 M228,93L229,94 M229,93L230,94 M230,93L231,94 M231,93L232,94 M232,93L233,94 M233,93L234,94 M234,93L235,94 M235,93L236,94 M236,93L237,94 M237,93L238,94 M238,93L239,94 M239,93L240,94 M240,93L241,94 M241,93L242,94 M242,93L243,94 M243,93L244,94 M244,93L245,94 M245,93L246,94 M246,93L247,94 M247,93L248,94 M248,93L249,94 M249,93L250,94 M250,93L251,94 M251,93L252,94 M252,93L253,94 M253,93L254,94 M254,93L255,94 M255,93L256,94 M256,93L257,94 M257,93L258,94 M258,93L259,94 M348,93L349,94 M349,93L350,94 M350,93L351,94 M351,93L352,94 M352,93L353,94 M353,93L354,94 M354,93L355,94 M355,93L356,94 M200,94L201,95 M201,94L202,95 M202,94L203,95 M203,94L204,95 M217,94L218,95 M218,94L219,95 M219,94L220,95 M220,94L221,95 M221,94L222,95 M222,94L223,95 M223,94L224,95 M224,94L225,95 M225,94L226,95 M226,94L227,95 M227,94L228,95 M228,94L229,95 M229,94L230,95 M230,94L231,95 M231,94L232,95 M352,94L353,95 M353,94L354,95 M354,94L355,95 M355,94L356,95 M356,94L357,95 M357,94L358,95 M198,95L199,96 M199,95L200,96 M200,95L201,96 M201,95L202,96 M212,95L213,96 M213,95L214,96 M214,95L215,96 M215,95L216,96 M216,95L217,96 M217,95L218,96 M218,95L219,96 M219,95L220,96 M220,95L221,96 M221,95L222,96 M222,95L223,96 M223,95L224,96 M224,95L225,96 M355,95L356,96 M356,95L357,96 M357,95L358,96 M358,95L359,96 M359,95L360,96 M196,96L197,97 M197,96L198,97 M198,96L199,97 M199,96L200,97 M210,96L211,97 M211,96L212,97 M212,96L213,97 M213,96L214,97 M214,96L215,97 M215,96L216,97 M216,96L217,97 M357,96L358,97 M358,96L359,97 M359,96L360,97 M360,96L361,97 M194,97L195,98 M195,97L196,98 M196,97L197,98 M197,97L198,98 M198,97L199,98 M208,97L209,98 M209,97L210,98 M210,97L211,98 M211,97L212,98 M212,97L213,98 M359,97L360,98 M360,97L361,98 M361,97L362,98 M362,97L363,98 M193,98L194,99 M194,98L195,99 M195,98L196,99 M196,98L197,99 M206,98L207,99 M207,98L208,99 M208,98L209,99 M209,98L210,99 M361,98L362,99 M362,98L363,99 M363,98L364,99 M364,98L365,99 M191,99L192,100 M192,99L193,100 M193,99L194,100 M194,99L195,100 M203,99L204,100 M204,99L205,100 M205,99L206,100 M206,99L207,100 M207,99L208,100 M363,99L364,100 M364,99L365,100 M365,99L366,100 M366,99L367,100 M189,100L190,101 M190,100L191,101 M191,100L192,101 M192,100L193,101 M201,100L202,101 M202,100L203,101 M203,100L204,101 M204,100L205,101 M205,100L206,101 M365,100L366,101 M366,100L367,101 M367,100L368,101 M368,100L369,101 M187,101L188,102 M188,101L189,102 M189,101L190,102 M190,101L191,102 M199,101L200,102 M200,101L201,102 M201,101L202,102 M202,101L203,102 M203,101L204,102 M367,101L368,102 M368,101L369,102 M369,101L370,102 M370,101L371,102 M185,102L186,103 M186,102L187,103 M187,102L188,103 M188,102L189,103 M189,102L190,103 M197,102L198,103 M198,102L199,103 M199,102L200,103 M200,102L201,103 M201,102L202,103 M369,102L370,103 M370,102L371,103 M371,102L372,103 M372,102L373,103 M184,103L185,104 M185,103L186,104 M186,103L187,104 M187,103L188,104 M194,103L195,104 M195,103L196,104 M196,103L197,104 M197,103L198,104 M198,103L199,104 M371,103L372,104 M372,103L373,104 M373,103L374,104 M374,103L375,104 M182,104L183,105 M183,104L184,105 M184,104L185,105 M185,104L186,105 M192,104L193,105 M193,104L194,105 M194,104L195,105 M195,104L196,105 M196,104L197,105 M373,104L374,105 M374,104L375,105 M375,104L376,105 M376,104L377,105 M180,105L181,106 M181,105L182,106 M182,105L183,106 M183,105L184,106 M189,105L190,106 M190,105L191,106 M191,105L192,106 M192,105L193,106 M193,105L194,106 M194,105L195,106 M375,105L376,106 M376,105L377,106 M377,105L378,106 M378,105L379,106 M178,106L179,107 M179,106L180,107 M180,106L181,107 M181,106L182,107 M187,106L188,107 M188,106L189,107 M189,106L190,107 M190,106L191,107 M191,106L192,107 M377,106L378,107 M378,106L379,107 M379,106L380,107 M380,106L381,107 M177,107L178,108 M178,107L179,108 M179,107L180,108 M180,107L181,108 M184,107L185,108 M185,107L186,108 M186,107L187,108 M187,107L188,108 M188,107L189,108 M189,107L190,108 M379,107L380,108 M380,107L381,108 M381,107L382,108 M382,107L383,108 M175,108L176,109 M176,108L177,109 M177,108L178,109 M178,108L179,109 M181,108L182,109 M182,108L183,109 M183,108L184,109 M184,108L185,109 M185,108L186,109 M186,108L187,109 M380,108L381,109 M381,108L382,109 M382,108L383,109 M383,108L384,109 M384,108L385,109 M173,109L174,110 M174,109L175,110 M175,109L176,110 M176,109L177,110 M179,109L180,110 M180,109L181,110 M181,109L182,110 M182,109L183,110 M183,109L184,110 M382,109L383,110 M383,109L384,110 M384,109L385,110 M385,109L386,110 M386,109L387,110 M171,110L172,111 M172,110L173,111 M173,110L174,111 M174,110L175,111 M175,110L176,111 M176,110L177,111 M177,110L178,111 M178,110L179,111 M179,110L180,111 M180,110L181,111 M181,110L182,111 M384,110L385,111 M385,110L386,111 M386,110L387,111 M387,110L388,111 M388,110L389,111 M170,111L171,112 M171,111L172,112 M172,111L173,112 M173,111L174,112 M174,111L175,112 M175,111L176,112 M176,111L177,112 M177,111L178,112 M178,111L179,112 M386,111L387,112 M387,111L388,112 M388,111L389,112 M389,111L390,112 M390,111L391,112 M170,112L171,113 M171,112L172,113 M172,112L173,113 M173,112L174,113 M388,112L389,113 M389,112L390,113 M390,112L391,113 M391,112L392,113 M390,113L391,114 M391,113L392,114 M392,113L393,114 M391,114L392,115 M392,114L393,115 M393,114L394,115 M392,115L393,116 M393,115L394,116 M394,115L395,116 M393,116L394,117 M394,116L395,117 M395,116L396,117 M394,117L395,118 M395,117L396,118 M396,117L397,118 M395,118L396,119 M396,118L397,119 M397,118L398,119 M396,119L397,120 M397,119L398,120 M397,120L398,121 M398,120L399,121 M397,121L398,122 M398,121L399,122 M399,121L400,122 M398,122L399,123 M399,122L400,123 M400,122L401,123 M399,123L400,124 M400,123L401,124 M401,123L402,124 M400,124L401,125 M401,124L402,125 M402,124L403,125 M488,124L489,125 M489,124L490,125 M490,124L491,125 M491,124L492,125 M492,124L493,125 M401,125L402,126 M402,125L403,126 M403,125L404,126 M482,125L483,126 M483,125L484,126 M484,125L485,126 M485,125L486,126 M486,125L487,126 M487,125L488,126 M488,125L489,126 M489,125L490,126 M490,125L491,126 M491,125L492,126 M492,125L493,126 M493,125L494,126 M402,126L403,127 M403,126L404,127 M480,126L481,127 M481,126L482,127 M482,126L483,127 M483,126L484,127 M484,126L485,127 M485,126L486,127 M486,126L487,127 M487,126L488,127 M492,126L493,127 M493,126L494,127 M403,127L404,128 M404,127L405,128 M477,127L478,128 M478,127L479,128 M479,127L480,128 M480,127L481,128 M481,127L482,128 M482,127L483,128 M493,127L494,128 M404,128L405,129 M405,128L406,129 M475,128L476,129 M476,128L477,129 M477,128L478,129 M478,128L479,129 M479,128L480,129 M493,128L494,129 M404,129L405,130 M405,129L406,130 M406,129L407,130 M472,129L473,130 M473,129L474,130 M474,129L475,130 M475,129L476,130 M476,129L477,130 M477,129L478,130 M493,129L494,130 M405,130L406,131 M406,130L407,131 M407,130L408,131 M470,130L471,131 M471,130L472,131 M472,130L473,131 M473,130L474,131 M474,130L475,131 M493,130L494,131 M406,131L407,132 M407,131L408,132 M408,131L409,132 M467,131L468,132 M468,131L469,132 M469,131L470,132 M470,131L471,132 M471,131L472,132 M472,131L473,132 M493,131L494,132 M407,132L408,133 M408,132L409,133 M409,132L410,133 M465,132L466,133 M466,132L467,133 M467,132L468,133 M468,132L469,133 M469,132L470,133 M493,132L494,133 M408,133L409,134 M409,133L410,134 M463,133L464,134 M464,133L465,134 M465,133L466,134 M466,133L467,134 M467,133L468,134 M493,133L494,134 M409,134L410,135 M410,134L411,135 M461,134L462,135 M462,134L463,135 M463,134L464,135 M464,134L465,135 M493,134L494,135 M410,135L411,136 M411,135L412,136 M460,135L461,136 M461,135L462,136 M462,135L463,136 M493,135L494,136 M410,136L411,137 M411,136L412,137 M459,136L460,137 M460,136L461,137 M461,136L462,137 M493,136L494,137 M410,137L411,138 M411,137L412,138 M458,137L459,138 M459,137L460,138 M460,137L461,138 M493,137L494,138 M410,138L411,139 M411,138L412,139 M412,138L413,139 M457,138L458,139 M458,138L459,139 M459,138L460,139 M493,138L494,139 M411,139L412,140 M412,139L413,140 M456,139L457,140 M457,139L458,140 M458,139L459,140 M493,139L494,140 M411,140L412,141 M412,140L413,141 M454,140L455,141 M455,140L456,141 M456,140L457,141 M493,140L494,141 M411,141L412,142 M412,141L413,142 M453,141L454,142 M454,141L455,142 M455,141L456,142 M493,141L494,142 M412,142L413,143 M413,142L414,143 M452,142L453,143 M453,142L454,143 M454,142L455,143 M493,142L494,143 M412,143L413,144 M413,143L414,144 M451,143L452,144 M452,143L453,144 M453,143L454,144 M493,143L494,144 M412,144L413,145 M413,144L414,145 M450,144L451,145 M451,144L452,145 M452,144L453,145 M493,144L494,145 M413,145L414,146 M414,145L415,146 M449,145L450,146 M450,145L451,146 M451,145L452,146 M493,145L494,146 M413,146L414,147 M414,146L415,147 M447,146L448,147 M448,146L449,147 M449,146L450,147 M493,146L494,147 M413,147L414,148 M414,147L415,148 M446,147L447,148 M447,147L448,148 M448,147L449,148 M493,147L494,148 M413,148L414,149 M414,148L415,149 M415,148L416,149 M445,148L446,149 M446,148L447,149 M447,148L448,149 M493,148L494,149 M414,149L415,150 M415,149L416,150 M444,149L445,150 M445,149L446,150 M446,149L447,150 M493,149L494,150 M414,150L415,151 M415,150L416,151 M443,150L444,151 M444,150L445,151 M445,150L446,151 M493,150L494,151 M414,151L415,152 M415,151L416,152 M442,151L443,152 M443,151L444,152 M444,151L445,152 M493,151L494,152 M415,152L416,153 M416,152L417,153 M441,152L442,153 M442,152L443,153 M493,152L494,153 M415,153L416,154 M416,153L417,154 M440,153L441,154 M441,153L442,154 M493,153L494,154 M415,154L416,155 M416,154L417,155 M439,154L440,155 M440,154L441,155 M493,154L494,155 M416,155L417,156 M438,155L439,156 M439,155L440,156 M493,155L494,156 M416,156L417,157 M437,156L438,157 M438,156L439,157 M493,156L494,157 M416,157L417,158 M436,157L437,158 M437,157L438,158 M493,157L494,158 M416,158L417,159 M435,158L436,159 M436,158L437,159 M493,158L494,159 M416,159L417,160 M434,159L435,160 M435,159L436,160 M493,159L494,160 M416,160L417,161 M433,160L434,161 M434,160L435,161 M493,160L494,161 M416,161L417,162 M432,161L433,162 M433,161L434,162 M493,161L494,162 M416,162L417,163 M431,162L432,163 M432,162L433,163 M493,162L494,163 M416,163L417,164 M430,163L431,164 M431,163L432,164 M493,163L494,164 M416,164L417,165 M429,164L430,165 M430,164L431,165 M493,164L494,165 M416,165L417,166 M428,165L429,166 M429,165L430,166 M493,165L494,166 M416,166L417,167 M427,166L428,167 M428,166L429,167 M493,166L494,167 M416,167L417,168 M426,167L427,168 M427,167L428,168 M493,167L494,168 M416,168L417,169 M425,168L426,169 M426,168L427,169 M493,168L494,169 M416,169L417,170 M423,169L424,170 M424,169L425,170 M425,169L426,170 M492,169L493,170 M493,169L494,170 M415,170L416,171 M416,170L417,171 M422,170L423,171 M423,170L424,171 M424,170L425,171 M492,170L493,171 M493,170L494,171 M415,171L416,172 M416,171L417,172 M421,171L422,172 M422,171L423,172 M423,171L424,172 M492,171L493,172 M493,171L494,172 M415,172L416,173 M416,172L417,173 M420,172L421,173 M421,172L422,173 M422,172L423,173 M492,172L493,173 M493,172L494,173 M415,173L416,174 M416,173L417,174 M419,173L420,174 M420,173L421,174 M421,173L422,174 M492,173L493,174 M493,173L494,174 M415,174L416,175 M416,174L417,175 M417,174L418,175 M418,174L419,175 M419,174L420,175 M420,174L421,175 M492,174L493,175 M493,174L494,175 M415,175L416,176 M416,175L417,176 M417,175L418,176 M418,175L419,176 M492,175L493,176 M493,175L494,176 M415,176L416,177 M416,176L417,177 M492,176L493,177 M493,176L494,177 M492,177L493,178 M493,177L494,178 M491,178L492,179 M492,178L493,179 M491,179L492,180 M492,179L493,180 M491,180L492,181 M492,180L493,181 M491,181L492,182 M492,181L493,182 M491,182L492,183 M492,182L493,183 M491,183L492,184 M492,183L493,184 M491,184L492,185 M492,184L493,185 M491,185L492,186 M492,185L493,186 M490,186L491,187 M491,186L492,187 M490,187L491,188 M491,187L492,188 M490,188L491,189 M491,188L492,189 M490,189L491,190 M491,189L492,190 M490,190L491,191 M491,190L492,191 M490,191L491,192 M491,191L492,192 M490,192L491,193 M491,192L492,193 M490,193L491,194 M491,193L492,194 M490,194L491,195 M491,194L492,195 M489,195L490,196 M490,195L491,196 M489,196L490,197 M490,196L491,197 M489,197L490,198 M490,197L491,198 M489,198L490,199 M490,198L491,199 M489,199L490,200 M490,199L491,200 M489,200L490,201 M490,200L491,201 M488,201L489,202 M489,201L490,202 M488,202L489,203 M489,202L490,203 M488,203L489,204 M489,203L490,204 M488,204L489,205 M489,204L490,205 M488,205L489,206 M489,205L490,206 M488,206L489,207 M489,206L490,207 M487,207L488,208 M488,207L489,208 M487,208L488,209 M488,208L489,209 M487,209L488,210 M488,209L489,210 M487,210L488,211 M488,210L489,211 M487,211L488,212 M488,211L489,212 M487,212L488,213 M488,212L489,213 M486,213L487,214 M487,213L488,214 M486,214L487,215 M487,214L488,215 M486,215L487,216 M487,215L488,216 M486,216L487,217 M487,216L488,217 M486,217L487,218 M487,217L488,218 M486,218L487,219 M487,218L488,219 M485,219L486,220 M486,219L487,220 M485,220L486,221 M486,220L487,221 M485,221L486,222 M486,221L487,222 M485,222L486,223 M486,222L487,223 M485,223L486,224 M486,223L487,224 M485,224L486,225 M486,224L487,225 M485,225L486,226 M486,225L487,226 M484,226L485,227 M485,226L486,227 M484,227L485,228 M485,227L486,228 M484,228L485,229 M485,228L486,229 M484,229L485,230 M485,229L486,230 M484,230L485,231 M485,230L486,231 M484,231L485,232 M485,231L486,232 M483,232L484,233 M484,232L485,233 M483,233L484,234 M484,233L485,234 M483,234L484,235 M484,234L485,235 M483,235L484,236 M484,235L485,236 M483,236L484,237 M484,236L485,237 M483,237L484,238 M484,237L485,238 M482,238L483,239 M483,238L484,239 M482,239L483,240 M483,239L484,240 M482,240L483,241 M483,240L484,241 M482,241L483,242 M483,241L484,242 M481,242L482,243 M482,242L483,243 M481,243L482,244 M482,243L483,244 M481,244L482,245 M482,244L483,245 M481,245L482,246 M482,245L483,246 M481,246L482,247" fill="none" stroke="black" />
    </svg>