<svg xmlns="http://www.w3.org/2000/svg" width="800" height="250">
        <path d="M484,47L485,48 M485,47L486,48 M486,47L487,48 M487,47L488,48 M488,47L489,48 M489,47L490,48 M480,48L481,49 M481,48L482,49 M482,48L483,49 M483,48L484,49 M484,48L485,49 M485,48L486,49 M486,48L487,49 M487,48L488,49 M488,48L489,49 M489,48L490,49 M476,49L477,50 M477,49L478,50 M478,49L479,50 M479,49L480,50 M480,49L481,50 M481,49L482,50 M482,49L483,50 M483,49L484,50 M489,49L490,50 M490,49L491,50 M472,50L473,51 M473,50L474,51 M474,50L475,51 M475,50L476,51 M476,50L477,51 M477,50L478,51 M478,50L479,51 M479,50L480,51 M489,50L490,51 M490,50L491,51 M470,51L471,52 M471,51L472,52 M472,51L473,52 M473,51L474,52 M474,51L475,52 M475,51L476,52 M489,51L490,52 M490,51L491,52 M468,52L469,53 M469,52L470,53 M470,52L471,53 M471,52L472,53 M472,52L473,53 M490,52L491,53 M491,52L492,53 M466,53L467,54 M467,53L468,54 M468,53L469,54 M469,53L470,54 M490,53L491,54 M491,53L492,54 M464,54L465,55 M465,54L466,55 M466,54L467,55 M467,54L468,55 M490,54L491,55 M491,54L492,55 M462,55L463,56 M463,55L464,56 M464,55L465,56 M465,55L466,56 M490,55L491,56 M491,55L492,56 M460,56L461,57 M461,56L462,57 M462,56L463,57 M463,56L464,57 M464,56L465,57 M490,56L491,57 M491,56L492,57 M458,57L459,58 M459,57L460,58 M460,57L461,58 M461,57L462,58 M462,57L463,58 M490,57L491,58 M491,57L492,58 M457,58L458,59 M458,58L459,59 M459,58L460,59 M460,58L461,59 M490,58L491,59 M491,58L492,59 M455,59L456,60 M456,59L457,60 M457,59L458,60 M458,59L459,60 M490,59L491,60 M491,59L492,60 M453,60L454,61 M454,60L455,61 M455,60L456,61 M456,60L457,61 M490,60L491,61 M491,60L492,61 M451,61L452,62 M452,61L453,62 M453,61L454,62 M454,61L455,62 M490,61L491,62 M491,61L492,62 M449,62L450,63 M450,62L451,63 M451,62L452,63 M452,62L453,63 M490,62L491,63 M491,62L492,63 M447,63L448,64 M448,63L449,64 M449,63L450,64 M450,63L451,64 M490,63L491,64 M491,63L492,64 M445,64L446,65 M446,64L447,65 M447,64L448,65 M448,64L449,65 M449,64L450,65 M490,64L491,65 M491,64L492,65 M443,65L444,66 M444,65L445,66 M445,65L446,66 M446,65L447,66 M447,65L448,66 M490,65L491,66 M491,65L492,66 M442,66L443,67 M443,66L444,67 M444,66L445,67 M445,66L446,67 M490,66L491,67 M491,66L492,67 M440,67L441,68 M441,67L442,68 M442,67L443,68 M443,67L444,68 M490,67L491,68 M491,67L492,68 M438,68L439,69 M439,68L440,69 M440,68L441,69 M441,68L442,69 M490,68L491,69 M491,68L492,69 M436,69L437,70 M437,69L438,70 M438,69L439,70 M439,69L440,70 M490,69L491,70 M491,69L492,70 M434,70L435,71 M435,70L436,71 M436,70L437,71 M437,70L438,71 M490,70L491,71 M491,70L492,71 M432,71L433,72 M433,71L434,72 M434,71L435,72 M435,71L436,72 M490,71L491,72 M491,71L492,72 M430,72L431,73 M431,72L432,73 M432,72L433,73 M433,72L434,73 M434,72L435,73 M490,72L491,73 M491,72L492,73 M428,73L429,74 M429,73L430,74 M430,73L431,74 M431,73L432,74 M432,73L433,74 M490,73L491,74 M491,73L492,74 M427,74L428,75 M428,74L429,75 M429,74L430,75 M430,74L431,75 M490,74L491,75 M491,74L492,75 M425,75L426,76 M426,75L427,76 M427,75L428,76 M428,75L429,76 M490,75L491,76 M491,75L492,76 M423,76L424,77 M424,76L425,77 M425,76L426,77 M426,76L427,77 M490,76L491,77 M491,76L492,77 M420,77L421,78 M421,77L422,78 M422,77L423,78 M423,77L424,78 M424,77L425,78 M490,77L491,78 M491,77L492,78 M418,78L419,79 M419,78L420,79 M420,78L421,79 M421,78L422,79 M422,78L423,79 M490,78L491,79 M491,78L492,79 M416,79L417,80 M417,79L418,80 M418,79L419,80 M419,79L420,80 M420,79L421,80 M490,79L491,80 M491,79L492,80 M414,80L415,81 M415,80L416,81 M416,80L417,81 M417,80L418,81 M418,80L419,81 M490,80L491,81 M491,80L492,81 M412,81L413,82 M413,81L414,82 M414,81L415,82 M415,81L416,82 M416,81L417,82 M490,81L491,82 M491,81L492,82 M410,82L411,83 M411,82L412,83 M412,82L413,83 M413,82L414,83 M414,82L415,83 M490,82L491,83 M491,82L492,83 M408,83L409,84 M409,83L410,84 M410,83L411,84 M411,83L412,84 M412,83L413,84 M490,83L491,84 M491,83L492,84 M406,84L407,85 M407,84L408,85 M408,84L409,85 M409,84L410,85 M410,84L411,85 M490,84L491,85 M491,84L492,85 M404,85L405,86 M405,85L406,86 M406,85L407,86 M407,85L408,86 M408,85L409,86 M490,85L491,86 M491,85L492,86 M70,86L71,87 M71,86L72,87 M72,86L73,87 M73,86L74,87 M74,86L75,87 M75,86L76,87 M76,86L77,87 M77,86L78,87 M78,86L79,87 M79,86L80,87 M80,86L81,87 M81,86L82,87 M82,86L83,87 M83,86L84,87 M84,86L85,87 M85,86L86,87 M86,86L87,87 M87,86L88,87 M88,86L89,87 M89,86L90,87 M90,86L91,87 M91,86L92,87 M92,86L93,87 M93,86L94,87 M94,86L95,87 M95,86L96,87 M96,86L97,87 M402,86L403,87 M403,86L404,87 M404,86L405,87 M405,86L406,87 M490,86L491,87 M491,86L492,87 M70,87L71,88 M71,87L72,88 M72,87L73,88 M73,87L74,88 M74,87L75,88 M75,87L76,88 M76,87L77,88 M77,87L78,88 M78,87L79,88 M79,87L80,88 M80,87L81,88 M81,87L82,88 M82,87L83,88 M83,87L84,88 M84,87L85,88 M85,87L86,88 M86,87L87,88 M87,87L88,88 M88,87L89,88 M89,87L90,88 M90,87L91,88 M91,87L92,88 M92,87L93,88 M93,87L94,88 M94,87L95,88 M95,87L96,88 M96,87L97,88 M97,87L98,88 M98,87L99,88 M99,87L100,88 M100,87L101,88 M101,87L102,88 M102,87L103,88 M103,87L104,88 M104,87L105,88 M105,87L106,88 M106,87L107,88 M107,87L108,88 M108,87L109,88 M400,87L401,88 M401,87L402,88 M402,87L403,88 M403,87L404,88 M489,87L490,88 M490,87L491,88 M70,88L71,89 M71,88L72,89 M97,88L98,89 M98,88L99,89 M99,88L100,89 M100,88L101,89 M101,88L102,89 M102,88L103,89 M103,88L104,89 M104,88L105,89 M105,88L106,89 M106,88L107,89 M107,88L108,89 M108,88L109,89 M109,88L110,89 M110,88L111,89 M111,88L112,89 M112,88L113,89 M113,88L114,89 M114,88L115,89 M115,88L116,89 M116,88L117,89 M117,88L118,89 M118,88L119,89 M119,88L120,89 M120,88L121,89 M121,88L122,89 M398,88L399,89 M399,88L400,89 M400,88L401,89 M401,88L402,89 M489,88L490,89 M490,88L491,89 M690,88L691,89 M691,88L692,89 M692,88L693,89 M693,88L694,89 M694,88L695,89 M695,88L696,89 M71,89L72,90 M72,89L73,90 M109,89L110,90 M110,89L111,90 M111,89L112,90 M112,89L113,90 M113,89L114,90 M114,89L115,90 M115,89L116,90 M116,89L117,90 M117,89L118,90 M118,89L119,90 M119,89L120,90 M120,89L121,90 M121,89L122,90 M122,89L123,90 M123,89L124,90 M124,89L125,90 M125,89L126,90 M126,89L127,90 M127,89L128,90 M128,89L129,90 M129,89L130,90 M130,89L131,90 M396,89L397,90 M397,89L398,90 M398,89L399,90 M399,89L400,90 M488,89L489,90 M489,89L490,90 M490,89L491,90 M684,89L685,90 M685,89L686,90 M686,89L687,90 M687,89L688,90 M688,89L689,90 M689,89L690,90 M690,89L691,90 M691,89L692,90 M692,89L693,90 M693,89L694,90 M694,89L695,90 M695,89L696,90 M696,89L697,90 M697,89L698,90 M698,89L699,90 M699,89L700,90 M700,89L701,90 M701,89L702,90 M71,90L72,91 M72,90L73,91 M122,90L123,91 M123,90L124,91 M124,90L125,91 M125,90L126,91 M126,90L127,91 M127,90L128,91 M128,90L129,91 M129,90L130,91 M130,90L131,91 M131,90L132,91 M132,90L133,91 M133,90L134,91 M134,90L135,91 M135,90L136,91 M136,90L137,91 M137,90L138,91 M394,90L395,91 M395,90L396,91 M396,90L397,91 M397,90L398,91 M488,90L489,91 M489,90L490,91 M674,90L675,91 M675,90L676,91 M676,90L677,91 M677,90L678,91 M678,90L679,91 M679,90L680,91 M680,90L681,91 M681,90L682,91 M682,90L683,91 M683,90L684,91 M684,90L685,91 M685,90L686,91 M686,90L687,91 M687,90L688,91 M688,90L689,91 M689,90L690,91 M696,90L697,91 M697,90L698,91 M698,90L699,91 M699,90L700,91 M700,90L701,91 M701,90L702,91 M702,90L703,91 M703,90L704,91 M704,90L705,91 M705,90L706,91 M72,91L73,92 M73,91L74,92 M131,91L132,92 M132,91L133,92 M133,91L134,92 M134,91L135,92 M135,91L136,92 M136,91L137,92 M137,91L138,92 M138,91L139,92 M139,91L140,92 M140,91L141,92 M141,91L142,92 M142,91L143,92 M143,91L144,92 M391,91L392,92 M392,91L393,92 M393,91L394,92 M394,91L395,92 M395,91L396,92 M487,91L488,92 M488,91L489,92 M489,91L490,92 M667,91L668,92 M668,91L669,92 M669,91L670,92 M670,91L671,92 M671,91L672,92 M672,91L673,92 M673,91L674,92 M674,91L675,92 M675,91L676,92 M676,91L677,92 M677,91L678,92 M678,91L679,92 M679,91L680,92 M680,91L681,92 M681,91L682,92 M682,91L683,92 M683,91L684,92 M702,91L703,92 M703,91L704,92 M704,91L705,92 M705,91L706,92 M72,92L73,93 M73,92L74,93 M138,92L139,93 M139,92L140,93 M140,92L141,93 M141,92L142,93 M142,92L143,93 M143,92L144,93 M144,92L145,93 M145,92L146,93 M146,92L147,93 M147,92L148,93 M148,92L149,93 M149,92L150,93 M150,92L151,93 M389,92L390,93 M390,92L391,93 M391,92L392,93 M392,92L393,93 M393,92L394,93 M487,92L488,93 M488,92L489,93 M663,92L664,93 M664,92L665,93 M665,92L666,93 M666,92L667,93 M667,92L668,93 M668,92L669,93 M669,92L670,93 M670,92L671,93 M671,92L672,93 M672,92L673,93 M673,92L674,93 M704,92L705,93 M705,92L706,93 M72,93L73,94 M73,93L74,94 M74,93L75,94 M144,93L145,94 M145,93L146,94 M146,93L147,94 M147,93L148,94 M148,93L149,94 M149,93L150,94 M150,93L151,94 M151,93L152,94 M152,93L153,94 M153,93L154,94 M154,93L155,94 M155,93L156,94 M156,93L157,94 M157,93L158,94 M387,93L388,94 M388,93L389,94 M389,93L390,94 M390,93L391,94 M391,93L392,94 M487,93L488,94 M488,93L489,94 M660,93L661,94 M661,93L662,94 M662,93L663,94 M663,93L664,94 M664,93L665,94 M665,93L666,94 M666,93L667,94 M704,93L705,94 M705,93L706,94 M706,93L707,94 M73,94L74,95 M74,94L75,95 M151,94L152,95 M152,94L153,95 M153,94L154,95 M154,94L155,95 M155,94L156,95 M156,94L157,95 M157,94L158,95 M158,94L159,95 M159,94L160,95 M160,94L161,95 M161,94L162,95 M162,94L163,95 M163,94L164,95 M385,94L386,95 M386,94L387,95 M387,94L388,95 M388,94L389,95 M389,94L390,95 M486,94L487,95 M487,94L488,95 M656,94L657,95 M657,94L658,95 M658,94L659,95 M659,94L660,95 M660,94L661,95 M661,94L662,95 M662,94L663,95 M663,94L664,95 M705,94L706,95 M706,94L707,95 M73,95L74,96 M74,95L75,96 M75,95L76,96 M158,95L159,96 M159,95L160,96 M160,95L161,96 M161,95L162,96 M162,95L163,96 M163,95L164,96 M164,95L165,96 M165,95L166,96 M166,95L167,96 M167,95L168,96 M168,95L169,96 M382,95L383,96 M383,95L384,96 M384,95L385,96 M385,95L386,96 M386,95L387,96 M486,95L487,96 M487,95L488,96 M653,95L654,96 M654,95L655,96 M655,95L656,96 M656,95L657,96 M657,95L658,96 M658,95L659,96 M659,95L660,96 M705,95L706,96 M706,95L707,96 M74,96L75,97 M75,96L76,97 M164,96L165,97 M165,96L166,97 M166,96L167,97 M167,96L168,97 M168,96L169,97 M169,96L170,97 M170,96L171,97 M171,96L172,97 M172,96L173,97 M380,96L381,97 M381,96L382,97 M382,96L383,97 M383,96L384,97 M384,96L385,97 M485,96L486,97 M486,96L487,97 M649,96L650,97 M650,96L651,97 M651,96L652,97 M652,96L653,97 M653,96L654,97 M654,96L655,97 M655,96L656,97 M705,96L706,97 M706,96L707,97 M74,97L75,98 M75,97L76,98 M168,97L169,98 M169,97L170,98 M170,97L171,98 M171,97L172,98 M172,97L173,98 M173,97L174,98 M174,97L175,98 M175,97L176,98 M176,97L177,98 M177,97L178,98 M378,97L379,98 M379,97L380,98 M380,97L381,98 M381,97L382,98 M382,97L383,98 M485,97L486,98 M486,97L487,98 M645,97L646,98 M646,97L647,98 M647,97L648,98 M648,97L649,98 M649,97L650,98 M650,97L651,98 M651,97L652,98 M652,97L653,98 M705,97L706,98 M706,97L707,98 M75,98L76,99 M76,98L77,99 M173,98L174,99 M174,98L175,99 M175,98L176,99 M176,98L177,99 M177,98L178,99 M178,98L179,99 M179,98L180,99 M180,98L181,99 M181,98L182,99 M182,98L183,99 M376,98L377,99 M377,98L378,99 M378,98L379,99 M379,98L380,99 M380,98L381,99 M484,98L485,99 M485,98L486,99 M486,98L487,99 M642,98L643,99 M643,98L644,99 M644,98L645,99 M645,98L646,99 M646,98L647,99 M647,98L648,99 M648,98L649,99 M705,98L706,99 M706,98L707,99 M75,99L76,100 M76,99L77,100 M77,99L78,100 M178,99L179,100 M179,99L180,100 M180,99L181,100 M181,99L182,100 M182,99L183,100 M183,99L184,100 M184,99L185,100 M185,99L186,100 M186,99L187,100 M187,99L188,100 M374,99L375,100 M375,99L376,100 M376,99L377,100 M377,99L378,100 M484,99L485,100 M485,99L486,100 M638,99L639,100 M639,99L640,100 M640,99L641,100 M641,99L642,100 M642,99L643,100 M643,99L644,100 M644,99L645,100 M645,99L646,100 M706,99L707,100 M707,99L708,100 M76,100L77,101 M77,100L78,101 M78,100L79,101 M183,100L184,101 M184,100L185,101 M185,100L186,101 M186,100L187,101 M187,100L188,101 M188,100L189,101 M189,100L190,101 M190,100L191,101 M191,100L192,101 M371,100L372,101 M372,100L373,101 M373,100L374,101 M374,100L375,101 M375,100L376,101 M484,100L485,101 M485,100L486,101 M635,100L636,101 M636,100L637,101 M637,100L638,101 M638,100L639,101 M639,100L640,101 M640,100L641,101 M641,100L642,101 M706,100L707,101 M707,100L708,101 M77,101L78,102 M78,101L79,102 M79,101L80,102 M187,101L188,102 M188,101L189,102 M189,101L190,102 M190,101L191,102 M191,101L192,102 M192,101L193,102 M193,101L194,102 M194,101L195,102 M195,101L196,102 M196,101L197,102 M369,101L370,102 M370,101L371,102 M371,101L372,102 M372,101L373,102 M373,101L374,102 M483,101L484,102 M484,101L485,102 M631,101L632,102 M632,101L633,102 M633,101L634,102 M634,101L635,102 M635,101L636,102 M636,101L637,102 M637,101L638,102 M706,101L707,102 M707,101L708,102 M78,102L79,103 M79,102L80,103 M80,102L81,103 M192,102L193,103 M193,102L194,103 M194,102L195,103 M195,102L196,103 M196,102L197,103 M197,102L198,103 M198,102L199,103 M199,102L200,103 M200,102L201,103 M201,102L202,103 M367,102L368,103 M368,102L369,103 M369,102L370,103 M370,102L371,103 M371,102L372,103 M483,102L484,103 M484,102L485,103 M627,102L628,103 M628,102L629,103 M629,102L630,103 M630,102L631,103 M631,102L632,103 M632,102L633,103 M633,102L634,103 M634,102L635,103 M706,102L707,103 M707,102L708,103 M79,103L80,104 M80,103L81,104 M197,103L198,104 M198,103L199,104 M199,103L200,104 M200,103L201,104 M201,103L202,104 M202,103L203,104 M203,103L204,104 M204,103L205,104 M205,103L206,104 M365,103L366,104 M366,103L367,104 M367,103L368,104 M368,103L369,104 M369,103L370,104 M482,103L483,104 M483,103L484,104 M624,103L625,104 M625,103L626,104 M626,103L627,104 M627,103L628,104 M628,103L629,104 M629,103L630,104 M630,103L631,104 M706,103L707,104 M707,103L708,104 M80,104L81,105 M81,104L82,105 M202,104L203,105 M203,104L204,105 M204,104L205,105 M205,104L206,105 M206,104L207,105 M207,104L208,105 M208,104L209,105 M209,104L210,105 M363,104L364,105 M364,104L365,105 M365,104L366,105 M366,104L367,105 M482,104L483,105 M483,104L484,105 M622,104L623,105 M623,104L624,105 M624,104L625,105 M625,104L626,105 M626,104L627,105 M627,104L628,105 M707,104L708,105 M708,104L709,105 M81,105L82,106 M82,105L83,106 M206,105L207,106 M207,105L208,106 M208,105L209,106 M209,105L210,106 M210,105L211,106 M211,105L212,106 M212,105L213,106 M213,105L214,106 M361,105L362,106 M362,105L363,106 M363,105L364,106 M364,105L365,106 M481,105L482,106 M482,105L483,106 M483,105L484,106 M620,105L621,106 M621,105L622,106 M622,105L623,106 M623,105L624,106 M624,105L625,106 M707,105L708,106 M708,105L709,106 M82,106L83,107 M83,106L84,107 M210,106L211,107 M211,106L212,107 M212,106L213,107 M213,106L214,107 M214,106L215,107 M215,106L216,107 M216,106L217,107 M359,106L360,107 M360,106L361,107 M361,106L362,107 M362,106L363,107 M481,106L482,107 M482,106L483,107 M617,106L618,107 M618,106L619,107 M619,106L620,107 M620,106L621,107 M621,106L622,107 M707,106L708,107 M708,106L709,107 M82,107L83,108 M83,107L84,108 M84,107L85,108 M213,107L214,108 M214,107L215,108 M215,107L216,108 M216,107L217,108 M217,107L218,108 M218,107L219,108 M219,107L220,108 M220,107L221,108 M357,107L358,108 M358,107L359,108 M359,107L360,108 M360,107L361,108 M481,107L482,108 M482,107L483,108 M615,107L616,108 M616,107L617,108 M617,107L618,108 M618,107L619,108 M619,107L620,108 M707,107L708,108 M708,107L709,108 M83,108L84,109 M84,108L85,109 M85,108L86,109 M217,108L218,109 M218,108L219,109 M219,108L220,109 M220,108L221,109 M221,108L222,109 M222,108L223,109 M223,108L224,109 M224,108L225,109 M355,108L356,109 M356,108L357,109 M357,108L358,109 M358,108L359,109 M359,108L360,109 M480,108L481,109 M481,108L482,109 M612,108L613,109 M613,108L614,109 M614,108L615,109 M615,108L616,109 M616,108L617,109 M617,108L618,109 M707,108L708,109 M708,108L709,109 M84,109L85,110 M85,109L86,110 M86,109L87,110 M221,109L222,110 M222,109L223,110 M223,109L224,110 M224,109L225,110 M225,109L226,110 M226,109L227,110 M227,109L228,110 M354,109L355,110 M355,109L356,110 M356,109L357,110 M357,109L358,110 M480,109L481,110 M481,109L482,110 M610,109L611,110 M611,109L612,110 M612,109L613,110 M613,109L614,110 M614,109L615,110 M707,109L708,110 M708,109L709,110 M85,110L86,111 M86,110L87,111 M87,110L88,111 M224,110L225,111 M225,110L226,111 M226,110L227,111 M227,110L228,111 M228,110L229,111 M229,110L230,111 M230,110L231,111 M231,110L232,111 M352,110L353,111 M353,110L354,111 M354,110L355,111 M355,110L356,111 M479,110L480,111 M480,110L481,111 M608,110L609,111 M609,110L610,111 M610,110L611,111 M611,110L612,111 M612,110L613,111 M707,110L708,111 M708,110L709,111 M86,111L87,112 M87,111L88,112 M88,111L89,112 M228,111L229,112 M229,111L230,112 M230,111L231,112 M231,111L232,112 M232,111L233,112 M233,111L234,112 M234,111L235,112 M235,111L236,112 M350,111L351,112 M351,111L352,112 M352,111L353,112 M353,111L354,112 M479,111L480,112 M480,111L481,112 M605,111L606,112 M606,111L607,112 M607,111L608,112 M608,111L609,112 M609,111L610,112 M707,111L708,112 M708,111L709,112 M87,112L88,113 M88,112L89,113 M89,112L90,113 M232,112L233,113 M233,112L234,113 M234,112L235,113 M235,112L236,113 M236,112L237,113 M237,112L238,113 M238,112L239,113 M348,112L349,113 M349,112L350,113 M350,112L351,113 M351,112L352,113 M478,112L479,113 M479,112L480,113 M480,112L481,113 M603,112L604,113 M604,112L605,113 M605,112L606,113 M606,112L607,113 M607,112L608,113 M707,112L708,113 M708,112L709,113 M88,113L89,114 M89,113L90,114 M90,113L91,114 M235,113L236,114 M236,113L237,114 M237,113L238,114 M238,113L239,114 M239,113L240,114 M240,113L241,114 M241,113L242,114 M242,113L243,114 M346,113L347,114 M347,113L348,114 M348,113L349,114 M349,113L350,114 M350,113L351,114 M478,113L479,114 M479,113L480,114 M600,113L601,114 M601,113L602,114 M602,113L603,114 M603,113L604,114 M604,113L605,114 M707,113L708,114 M708,113L709,114 M89,114L90,115 M90,114L91,115 M239,114L240,115 M240,114L241,115 M241,114L242,115 M242,114L243,115 M243,114L244,115 M244,114L245,115 M245,114L246,115 M246,114L247,115 M345,114L346,115 M346,114L347,115 M347,114L348,115 M348,114L349,115 M477,114L478,115 M478,114L479,115 M479,114L480,115 M598,114L599,115 M599,114L600,115 M600,114L601,115 M601,114L602,115 M602,114L603,115 M707,114L708,115 M708,114L709,115 M90,115L91,116 M91,115L92,116 M243,115L244,116 M244,115L245,116 M245,115L246,116 M246,115L247,116 M247,115L248,116 M248,115L249,116 M249,115L250,116 M343,115L344,116 M344,115L345,116 M345,115L346,116 M346,115L347,116 M477,115L478,116 M478,115L479,116 M596,115L597,116 M597,115L598,116 M598,115L599,116 M599,115L600,116 M600,115L601,116 M707,115L708,116 M708,115L709,116 M91,116L92,117 M92,116L93,117 M246,116L247,117 M247,116L248,117 M248,116L249,117 M249,116L250,117 M250,116L251,117 M251,116L252,117 M252,116L253,117 M253,116L254,117 M341,116L342,117 M342,116L343,117 M343,116L344,117 M344,116L345,117 M477,116L478,117 M478,116L479,117 M594,116L595,117 M595,116L596,117 M596,116L597,117 M597,116L598,117 M707,116L708,117 M708,116L709,117 M92,117L93,118 M93,117L94,118 M250,117L251,118 M251,117L252,118 M252,117L253,118 M253,117L254,118 M254,117L255,118 M255,117L256,118 M256,117L257,118 M257,117L258,118 M339,117L340,118 M340,117L341,118 M341,117L342,118 M342,117L343,118 M476,117L477,118 M477,117L478,118 M591,117L592,118 M592,117L593,118 M593,117L594,118 M594,117L595,118 M595,117L596,118 M707,117L708,118 M708,117L709,118 M92,118L93,119 M93,118L94,119 M94,118L95,119 M254,118L255,119 M255,118L256,119 M256,118L257,119 M257,118L258,119 M258,118L259,119 M259,118L260,119 M260,118L261,119 M337,118L338,119 M338,118L339,119 M339,118L340,119 M340,118L341,119 M476,118L477,119 M477,118L478,119 M589,118L590,119 M590,118L591,119 M591,118L592,119 M592,118L593,119 M593,118L594,119 M707,118L708,119 M708,118L709,119 M93,119L94,120 M94,119L95,120 M95,119L96,120 M257,119L258,120 M258,119L259,120 M259,119L260,120 M260,119L261,120 M261,119L262,120 M262,119L263,120 M263,119L264,120 M264,119L265,120 M335,119L336,120 M336,119L337,120 M337,119L338,120 M338,119L339,120 M339,119L340,120 M475,119L476,120 M476,119L477,120 M587,119L588,120 M588,119L589,120 M589,119L590,120 M590,119L591,120 M591,119L592,120 M707,119L708,120 M708,119L709,120 M94,120L95,121 M95,120L96,121 M96,120L97,121 M261,120L262,121 M262,120L263,121 M263,120L264,121 M264,120L265,121 M265,120L266,121 M266,120L267,121 M267,120L268,121 M268,120L269,121 M334,120L335,121 M335,120L336,121 M336,120L337,121 M337,120L338,121 M475,120L476,121 M476,120L477,121 M585,120L586,121 M586,120L587,121 M587,120L588,121 M588,120L589,121 M589,120L590,121 M707,120L708,121 M708,120L709,121 M95,121L96,122 M96,121L97,122 M97,121L98,122 M265,121L266,122 M266,121L267,122 M267,121L268,122 M268,121L269,122 M269,121L270,122 M270,121L271,122 M271,121L272,122 M332,121L333,122 M333,121L334,122 M334,121L335,122 M335,121L336,122 M474,121L475,122 M475,121L476,122 M476,121L477,122 M583,121L584,122 M584,121L585,122 M585,121L586,122 M586,121L587,122 M587,121L588,122 M707,121L708,122 M708,121L709,122 M96,122L97,123 M97,122L98,123 M98,122L99,123 M269,122L270,123 M270,122L271,123 M271,122L272,123 M272,122L273,123 M273,122L274,123 M274,122L275,123 M275,122L276,123 M330,122L331,123 M331,122L332,123 M332,122L333,123 M333,122L334,123 M474,122L475,123 M475,122L476,123 M581,122L582,123 M582,122L583,123 M583,122L584,123 M584,122L585,123 M585,122L586,123 M707,122L708,123 M708,122L709,123 M97,123L98,124 M98,123L99,124 M99,123L100,124 M272,123L273,124 M273,123L274,124 M274,123L275,124 M275,123L276,124 M276,123L277,124 M277,123L278,124 M278,123L279,124 M279,123L280,124 M328,123L329,124 M329,123L330,124 M330,123L331,124 M331,123L332,124 M474,123L475,124 M475,123L476,124 M579,123L580,124 M580,123L581,124 M581,123L582,124 M582,123L583,124 M583,123L584,124 M707,123L708,124 M708,123L709,124 M98,124L99,125 M99,124L100,125 M100,124L101,125 M276,124L277,125 M277,124L278,125 M278,124L279,125 M279,124L280,125 M280,124L281,125 M281,124L282,125 M282,124L283,125 M294,124L295,125 M295,124L296,125 M326,124L327,125 M327,124L328,125 M328,124L329,125 M329,124L330,125 M330,124L331,125 M473,124L474,125 M474,124L475,125 M577,124L578,125 M578,124L579,125 M579,124L580,125 M580,124L581,125 M581,124L582,125 M707,124L708,125 M708,124L709,125 M99,125L100,126 M100,125L101,126 M280,125L281,126 M281,125L282,126 M282,125L283,126 M283,125L284,126 M284,125L285,126 M285,125L286,126 M286,125L287,126 M294,125L295,126 M295,125L296,126 M325,125L326,126 M326,125L327,126 M327,125L328,126 M328,125L329,126 M473,125L474,126 M474,125L475,126 M575,125L576,126 M576,125L577,126 M577,125L578,126 M578,125L579,126 M579,125L580,126 M707,125L708,126 M708,125L709,126 M100,126L101,127 M101,126L102,127 M283,126L284,127 M284,126L285,127 M285,126L286,127 M286,126L287,127 M287,126L288,127 M288,126L289,127 M289,126L290,127 M290,126L291,127 M294,126L295,127 M295,126L296,127 M323,126L324,127 M324,126L325,127 M325,126L326,127 M326,126L327,127 M472,126L473,127 M473,126L474,127 M573,126L574,127 M574,126L575,127 M575,126L576,127 M576,126L577,127 M707,126L708,127 M708,126L709,127 M101,127L102,128 M102,127L103,128 M287,127L288,128 M288,127L289,128 M289,127L290,128 M290,127L291,128 M291,127L292,128 M292,127L293,128 M293,127L294,128 M294,127L295,128 M295,127L296,128 M321,127L322,128 M322,127L323,128 M323,127L324,128 M324,127L325,128 M472,127L473,128 M473,127L474,128 M571,127L572,128 M572,127L573,128 M573,127L574,128 M574,127L575,128 M707,127L708,128 M708,127L709,128 M102,128L103,129 M103,128L104,129 M291,128L292,129 M292,128L293,129 M293,128L294,129 M294,128L295,129 M295,128L296,129 M296,128L297,129 M297,128L298,129 M319,128L320,129 M320,128L321,129 M321,128L322,129 M322,128L323,129 M471,128L472,129 M472,128L473,129 M473,128L474,129 M569,128L570,129 M570,128L571,129 M571,128L572,129 M572,128L573,129 M707,128L708,129 M708,128L709,129 M102,129L103,130 M103,129L104,130 M104,129L105,130 M294,129L295,130 M295,129L296,130 M296,129L297,130 M297,129L298,130 M298,129L299,130 M299,129L300,130 M300,129L301,130 M301,129L302,130 M317,129L318,130 M318,129L319,130 M319,129L320,130 M320,129L321,130 M471,129L472,130 M472,129L473,130 M567,129L568,130 M568,129L569,130 M569,129L570,130 M570,129L571,130 M707,129L708,130 M708,129L709,130 M103,130L104,131 M104,130L105,131 M105,130L106,131 M294,130L295,131 M295,130L296,131 M298,130L299,131 M299,130L300,131 M300,130L301,131 M301,130L302,131 M302,130L303,131 M303,130L304,131 M304,130L305,131 M316,130L317,131 M317,130L318,131 M318,130L319,131 M319,130L320,131 M471,130L472,131 M472,130L473,131 M565,130L566,131 M566,130L567,131 M567,130L568,131 M568,130L569,131 M706,130L707,131 M707,130L708,131 M104,131L105,132 M105,131L106,132 M106,131L107,132 M294,131L295,132 M295,131L296,132 M301,131L302,132 M302,131L303,132 M303,131L304,132 M304,131L305,132 M305,131L306,132 M306,131L307,132 M307,131L308,132 M308,131L309,132 M314,131L315,132 M315,131L316,132 M316,131L317,132 M317,131L318,132 M470,131L471,132 M471,131L472,132 M563,131L564,132 M564,131L565,132 M565,131L566,132 M566,131L567,132 M706,131L707,132 M707,131L708,132 M105,132L106,133 M106,132L107,133 M107,132L108,133 M294,132L295,133 M295,132L296,133 M305,132L306,133 M306,132L307,133 M307,132L308,133 M308,132L309,133 M309,132L310,133 M310,132L311,133 M311,132L312,133 M312,132L313,133 M313,132L314,133 M314,132L315,133 M315,132L316,133 M470,132L471,133 M471,132L472,133 M561,132L562,133 M562,132L563,133 M563,132L564,133 M564,132L565,133 M706,132L707,133 M707,132L708,133 M106,133L107,134 M107,133L108,134 M108,133L109,134 M294,133L295,134 M295,133L296,134 M308,133L309,134 M309,133L310,134 M310,133L311,134 M311,133L312,134 M312,133L313,134 M313,133L314,134 M314,133L315,134 M315,133L316,134 M469,133L470,134 M470,133L471,134 M559,133L560,134 M560,133L561,134 M561,133L562,134 M562,133L563,134 M706,133L707,134 M707,133L708,134 M107,134L108,135 M108,134L109,135 M109,134L110,135 M294,134L295,135 M295,134L296,135 M308,134L309,135 M309,134L310,135 M310,134L311,135 M311,134L312,135 M312,134L313,135 M313,134L314,135 M314,134L315,135 M315,134L316,135 M316,134L317,135 M317,134L318,135 M318,134L319,135 M469,134L470,135 M470,134L471,135 M557,134L558,135 M558,134L559,135 M559,134L560,135 M560,134L561,135 M706,134L707,135 M707,134L708,135 M108,135L109,136 M109,135L110,136 M110,135L111,136 M294,135L295,136 M295,135L296,136 M306,135L307,136 M307,135L308,136 M308,135L309,136 M309,135L310,136 M310,135L311,136 M315,135L316,136 M316,135L317,136 M317,135L318,136 M318,135L319,136 M319,135L320,136 M320,135L321,136 M321,135L322,136 M322,135L323,136 M468,135L469,136 M469,135L470,136 M470,135L471,136 M555,135L556,136 M556,135L557,136 M557,135L558,136 M558,135L559,136 M706,135L707,136 M707,135L708,136 M109,136L110,137 M110,136L111,137 M111,136L112,137 M294,136L295,137 M295,136L296,137 M305,136L306,137 M306,136L307,137 M307,136L308,137 M308,136L309,137 M319,136L320,137 M320,136L321,137 M321,136L322,137 M322,136L323,137 M323,136L324,137 M324,136L325,137 M325,136L326,137 M468,136L469,137 M469,136L470,137 M553,136L554,137 M554,136L555,137 M555,136L556,137 M556,136L557,137 M706,136L707,137 M707,136L708,137 M110,137L111,138 M111,137L112,138 M112,137L113,138 M294,137L295,138 M295,137L296,138 M303,137L304,138 M304,137L305,138 M305,137L306,138 M306,137L307,138 M322,137L323,138 M323,137L324,138 M324,137L325,138 M325,137L326,138 M326,137L327,138 M327,137L328,138 M328,137L329,138 M329,137L330,138 M467,137L468,138 M468,137L469,138 M469,137L470,138 M551,137L552,138 M552,137L553,138 M553,137L554,138 M554,137L555,138 M706,137L707,138 M707,137L708,138 M111,138L112,139 M112,138L113,139 M113,138L114,139 M294,138L295,139 M295,138L296,139 M301,138L302,139 M302,138L303,139 M303,138L304,139 M304,138L305,139 M326,138L327,139 M327,138L328,139 M328,138L329,139 M329,138L330,139 M330,138L331,139 M331,138L332,139 M332,138L333,139 M467,138L468,139 M468,138L469,139 M549,138L550,139 M550,138L551,139 M551,138L552,139 M552,138L553,139 M706,138L707,139 M707,138L708,139 M112,139L113,140 M113,139L114,140 M114,139L115,140 M293,139L294,140 M294,139L295,140 M295,139L296,140 M299,139L300,140 M300,139L301,140 M301,139L302,140 M302,139L303,140 M329,139L330,140 M330,139L331,140 M331,139L332,140 M332,139L333,140 M333,139L334,140 M334,139L335,140 M335,139L336,140 M336,139L337,140 M467,139L468,140 M468,139L469,140 M547,139L548,140 M548,139L549,140 M549,139L550,140 M550,139L551,140 M706,139L707,140 M707,139L708,140 M114,140L115,141 M115,140L116,141 M293,140L294,141 M294,140L295,141 M297,140L298,141 M298,140L299,141 M299,140L300,141 M300,140L301,141 M333,140L334,141 M334,140L335,141 M335,140L336,141 M336,140L337,141 M337,140L338,141 M338,140L339,141 M339,140L340,141 M466,140L467,141 M467,140L468,141 M545,140L546,141 M546,140L547,141 M547,140L548,141 M548,140L549,141 M705,140L706,141 M706,140L707,141 M115,141L116,142 M116,141L117,142 M293,141L294,142 M294,141L295,142 M296,141L297,142 M297,141L298,142 M298,141L299,142 M299,141L300,142 M336,141L337,142 M337,141L338,142 M338,141L339,142 M339,141L340,142 M340,141L341,142 M341,141L342,142 M342,141L343,142 M343,141L344,142 M466,141L467,142 M467,141L468,142 M543,141L544,142 M544,141L545,142 M545,141L546,142 M546,141L547,142 M705,141L706,142 M706,141L707,142 M116,142L117,143 M117,142L118,143 M293,142L294,143 M294,142L295,143 M295,142L296,143 M296,142L297,143 M297,142L298,143 M340,142L341,143 M341,142L342,143 M342,142L343,143 M343,142L344,143 M344,142L345,143 M345,142L346,143 M346,142L347,143 M465,142L466,143 M466,142L467,143 M541,142L542,143 M542,142L543,143 M543,142L544,143 M544,142L545,143 M705,142L706,143 M706,142L707,143 M117,143L118,144 M118,143L119,144 M119,143L120,144 M293,143L294,144 M294,143L295,144 M295,143L296,144 M343,143L344,144 M344,143L345,144 M345,143L346,144 M346,143L347,144 M347,143L348,144 M348,143L349,144 M349,143L350,144 M350,143L351,144 M465,143L466,144 M466,143L467,144 M539,143L540,144 M540,143L541,144 M541,143L542,144 M542,143L543,144 M704,143L705,144 M705,143L706,144 M706,143L707,144 M118,144L119,145 M119,144L120,145 M120,144L121,145 M294,144L295,145 M347,144L348,145 M348,144L349,145 M349,144L350,145 M350,144L351,145 M351,144L352,145 M352,144L353,145 M353,144L354,145 M464,144L465,145 M465,144L466,145 M466,144L467,145 M537,144L538,145 M538,144L539,145 M539,144L540,145 M540,144L541,145 M704,144L705,145 M705,144L706,145 M119,145L120,146 M120,145L121,146 M121,145L122,146 M350,145L351,146 M351,145L352,146 M352,145L353,146 M353,145L354,146 M354,145L355,146 M355,145L356,146 M356,145L357,146 M357,145L358,146 M464,145L465,146 M465,145L466,146 M535,145L536,146 M536,145L537,146 M537,145L538,146 M538,145L539,146 M704,145L705,146 M705,145L706,146 M120,146L121,147 M121,146L122,147 M122,146L123,147 M354,146L355,147 M355,146L356,147 M356,146L357,147 M357,146L358,147 M358,146L359,147 M359,146L360,147 M360,146L361,147 M464,146L465,147 M465,146L466,147 M533,146L534,147 M534,146L535,147 M535,146L536,147 M536,146L537,147 M704,146L705,147 M705,146L706,147 M121,147L122,148 M122,147L123,148 M123,147L124,148 M357,147L358,148 M358,147L359,148 M359,147L360,148 M360,147L361,148 M361,147L362,148 M362,147L363,148 M363,147L364,148 M364,147L365,148 M463,147L464,148 M464,147L465,148 M531,147L532,148 M532,147L533,148 M533,147L534,148 M534,147L535,148 M703,147L704,148 M704,147L705,148 M122,148L123,149 M123,148L124,149 M124,148L125,149 M361,148L362,149 M362,148L363,149 M363,148L364,149 M364,148L365,149 M365,148L366,149 M366,148L367,149 M367,148L368,149 M462,148L463,149 M463,148L464,149 M464,148L465,149 M529,148L530,149 M530,148L531,149 M531,148L532,149 M532,148L533,149 M703,148L704,149 M704,148L705,149 M123,149L124,150 M124,149L125,150 M125,149L126,150 M364,149L365,150 M365,149L366,150 M366,149L367,150 M367,149L368,150 M368,149L369,150 M369,149L370,150 M370,149L371,150 M371,149L372,150 M460,149L461,150 M461,149L462,150 M462,149L463,150 M463,149L464,150 M527,149L528,150 M528,149L529,150 M529,149L530,150 M530,149L531,150 M531,149L532,150 M703,149L704,150 M704,149L705,150 M124,150L125,151 M125,150L126,151 M126,150L127,151 M368,150L369,151 M369,150L370,151 M370,150L371,151 M371,150L372,151 M372,150L373,151 M373,150L374,151 M374,150L375,151 M459,150L460,151 M460,150L461,151 M461,150L462,151 M525,150L526,151 M526,150L527,151 M527,150L528,151 M528,150L529,151 M529,150L530,151 M703,150L704,151 M704,150L705,151 M125,151L126,152 M126,151L127,152 M127,151L128,152 M371,151L372,152 M372,151L373,152 M373,151L374,152 M374,151L375,152 M375,151L376,152 M376,151L377,152 M377,151L378,152 M378,151L379,152 M458,151L459,152 M459,151L460,152 M460,151L461,152 M523,151L524,152 M524,151L525,152 M525,151L526,152 M526,151L527,152 M527,151L528,152 M702,151L703,152 M703,151L704,152 M126,152L127,153 M127,152L128,153 M128,152L129,153 M375,152L376,153 M376,152L377,153 M377,152L378,153 M378,152L379,153 M379,152L380,153 M380,152L381,153 M381,152L382,153 M456,152L457,153 M457,152L458,153 M458,152L459,153 M459,152L460,153 M522,152L523,153 M523,152L524,153 M524,152L525,153 M525,152L526,153 M702,152L703,153 M703,152L704,153 M127,153L128,154 M128,153L129,154 M129,153L130,154 M378,153L379,154 M379,153L380,154 M380,153L381,154 M381,153L382,154 M382,153L383,154 M383,153L384,154 M384,153L385,154 M455,153L456,154 M456,153L457,154 M457,153L458,154 M520,153L521,154 M521,153L522,154 M522,153L523,154 M523,153L524,154 M702,153L703,154 M703,153L704,154 M128,154L129,155 M129,154L130,155 M130,154L131,155 M382,154L383,155 M383,154L384,155 M384,154L385,155 M385,154L386,155 M386,154L387,155 M387,154L388,155 M454,154L455,155 M455,154L456,155 M456,154L457,155 M518,154L519,155 M519,154L520,155 M520,154L521,155 M521,154L522,155 M702,154L703,155 M703,154L704,155 M129,155L130,156 M130,155L131,156 M131,155L132,156 M132,155L133,156 M385,155L386,156 M386,155L387,156 M387,155L388,156 M388,155L389,156 M389,155L390,156 M390,155L391,156 M452,155L453,156 M453,155L454,156 M454,155L455,156 M455,155L456,156 M516,155L517,156 M517,155L518,156 M518,155L519,156 M519,155L520,156 M701,155L702,156 M702,155L703,156 M131,156L132,157 M132,156L133,157 M133,156L134,157 M388,156L389,157 M389,156L390,157 M390,156L391,157 M391,156L392,157 M392,156L393,157 M393,156L394,157 M451,156L452,157 M452,156L453,157 M453,156L454,157 M514,156L515,157 M515,156L516,157 M516,156L517,157 M517,156L518,157 M701,156L702,157 M702,156L703,157 M132,157L133,158 M133,157L134,158 M134,157L135,158 M391,157L392,158 M392,157L393,158 M393,157L394,158 M394,157L395,158 M395,157L396,158 M396,157L397,158 M450,157L451,158 M451,157L452,158 M452,157L453,158 M512,157L513,158 M513,157L514,158 M514,157L515,158 M515,157L516,158 M701,157L702,158 M702,157L703,158 M133,158L134,159 M134,158L135,159 M135,158L136,159 M136,158L137,159 M394,158L395,159 M395,158L396,159 M396,158L397,159 M397,158L398,159 M398,158L399,159 M399,158L400,159 M448,158L449,159 M449,158L450,159 M450,158L451,159 M451,158L452,159 M510,158L511,159 M511,158L512,159 M512,158L513,159 M513,158L514,159 M700,158L701,159 M701,158L702,159 M702,158L703,159 M135,159L136,160 M136,159L137,160 M137,159L138,160 M397,159L398,160 M398,159L399,160 M399,159L400,160 M400,159L401,160 M401,159L402,160 M402,159L403,160 M447,159L448,160 M448,159L449,160 M449,159L450,160 M508,159L509,160 M509,159L510,160 M510,159L511,160 M511,159L512,160 M700,159L701,160 M701,159L702,160 M136,160L137,161 M137,160L138,161 M138,160L139,161 M139,160L140,161 M400,160L401,161 M401,160L402,161 M402,160L403,161 M403,160L404,161 M404,160L405,161 M405,160L406,161 M446,160L447,161 M447,160L448,161 M448,160L449,161 M506,160L507,161 M507,160L508,161 M508,160L509,161 M509,160L510,161 M700,160L701,161 M701,160L702,161 M138,161L139,162 M139,161L140,162 M140,161L141,162 M403,161L404,162 M404,161L405,162 M405,161L406,162 M406,161L407,162 M407,161L408,162 M408,161L409,162 M444,161L445,162 M445,161L446,162 M446,161L447,162 M447,161L448,162 M504,161L505,162 M505,161L506,162 M506,161L507,162 M507,161L508,162 M508,161L509,162 M700,161L701,162 M701,161L702,162 M139,162L140,163 M140,162L141,163 M141,162L142,163 M406,162L407,163 M407,162L408,163 M408,162L409,163 M409,162L410,163 M410,162L411,163 M411,162L412,163 M443,162L444,163 M444,162L445,163 M445,162L446,163 M502,162L503,163 M503,162L504,163 M504,162L505,163 M505,162L506,163 M506,162L507,163 M699,162L700,163 M700,162L701,163 M140,163L141,164 M141,163L142,164 M142,163L143,164 M143,163L144,164 M409,163L410,164 M410,163L411,164 M411,163L412,164 M412,163L413,164 M413,163L414,164 M414,163L415,164 M442,163L443,164 M443,163L444,164 M444,163L445,164 M500,163L501,164 M501,163L502,164 M502,163L503,164 M503,163L504,164 M504,163L505,164 M699,163L700,164 M700,163L701,164 M142,164L143,165 M143,164L144,165 M144,164L145,165 M412,164L413,165 M413,164L414,165 M414,164L415,165 M415,164L416,165 M416,164L417,165 M417,164L418,165 M440,164L441,165 M441,164L442,165 M442,164L443,165 M443,164L444,165 M498,164L499,165 M499,164L500,165 M500,164L501,165 M501,164L502,165 M502,164L503,165 M699,164L700,165 M700,164L701,165 M143,165L144,166 M144,165L145,166 M145,165L146,166 M415,165L416,166 M416,165L417,166 M417,165L418,166 M418,165L419,166 M419,165L420,166 M420,165L421,166 M421,165L422,166 M439,165L440,166 M440,165L441,166 M441,165L442,166 M496,165L497,166 M497,165L498,166 M498,165L499,166 M499,165L500,166 M500,165L501,166 M699,165L700,166 M700,165L701,166 M144,166L145,167 M145,166L146,167 M146,166L147,167 M147,166L148,167 M418,166L419,167 M419,166L420,167 M420,166L421,167 M421,166L422,167 M422,166L423,167 M423,166L424,167 M424,166L425,167 M438,166L439,167 M439,166L440,167 M440,166L441,167 M495,166L496,167 M496,166L497,167 M497,166L498,167 M498,166L499,167 M698,166L699,167 M699,166L700,167 M146,167L147,168 M147,167L148,168 M148,167L149,168 M422,167L423,168 M423,167L424,168 M424,167L425,168 M425,167L426,168 M426,167L427,168 M427,167L428,168 M428,167L429,168 M437,167L438,168 M438,167L439,168 M439,167L440,168 M493,167L494,168 M494,167L495,168 M495,167L496,168 M496,167L497,168 M698,167L699,168 M699,167L700,168 M147,168L148,169 M148,168L149,169 M149,168L150,169 M425,168L426,169 M426,168L427,169 M427,168L428,169 M428,168L429,169 M429,168L430,169 M430,168L431,169 M431,168L432,169 M435,168L436,169 M436,168L437,169 M437,168L438,169 M438,168L439,169 M490,168L491,169 M491,168L492,169 M492,168L493,169 M493,168L494,169 M494,168L495,169 M698,168L699,169 M699,168L700,169 M148,169L149,170 M149,169L150,170 M150,169L151,170 M151,169L152,170 M429,169L430,170 M430,169L431,170 M431,169L432,170 M432,169L433,170 M433,169L434,170 M434,169L435,170 M435,169L436,170 M436,169L437,170 M487,169L488,170 M488,169L489,170 M489,169L490,170 M490,169L491,170 M491,169L492,170 M492,169L493,170 M697,169L698,170 M698,169L699,170 M699,169L700,170 M150,170L151,171 M151,170L152,171 M152,170L153,171 M153,170L154,171 M432,170L433,171 M433,170L434,171 M434,170L435,171 M435,170L436,171 M436,170L437,171 M437,170L438,171 M438,170L439,171 M439,170L440,171 M440,170L441,171 M441,170L442,171 M442,170L443,171 M485,170L486,171 M486,170L487,171 M487,170L488,171 M488,170L489,171 M489,170L490,171 M490,170L491,171 M697,170L698,171 M698,170L699,171 M151,171L152,172 M152,171L153,172 M153,171L154,172 M154,171L155,172 M155,171L156,172 M431,171L432,172 M432,171L433,172 M433,171L434,172 M434,171L435,172 M435,171L436,172 M436,171L437,172 M437,171L438,172 M438,171L439,172 M439,171L440,172 M440,171L441,172 M441,171L442,172 M442,171L443,172 M443,171L444,172 M444,171L445,172 M445,171L446,172 M446,171L447,172 M447,171L448,172 M448,171L449,172 M449,171L450,172 M450,171L451,172 M451,171L452,172 M452,171L453,172 M482,171L483,172 M483,171L484,172 M484,171L485,172 M485,171L486,172 M486,171L487,172 M487,171L488,172 M697,171L698,172 M698,171L699,172 M153,172L154,173 M154,172L155,173 M155,172L156,173 M156,172L157,173 M157,172L158,173 M430,172L431,173 M431,172L432,173 M432,172L433,173 M443,172L444,173 M444,172L445,173 M445,172L446,173 M446,172L447,173 M447,172L448,173 M448,172L449,173 M449,172L450,173 M450,172L451,173 M451,172L452,173 M452,172L453,173 M453,172L454,173 M454,172L455,173 M455,172L456,173 M456,172L457,173 M457,172L458,173 M458,172L459,173 M459,172L460,173 M460,172L461,173 M461,172L462,173 M462,172L463,173 M479,172L480,173 M480,172L481,173 M481,172L482,173 M482,172L483,173 M483,172L484,173 M484,172L485,173 M697,172L698,173 M698,172L699,173 M155,173L156,174 M156,173L157,174 M157,173L158,174 M158,173L159,174 M159,173L160,174 M429,173L430,174 M430,173L431,174 M431,173L432,174 M453,173L454,174 M454,173L455,174 M455,173L456,174 M456,173L457,174 M457,173L458,174 M458,173L459,174 M459,173L460,174 M460,173L461,174 M461,173L462,174 M462,173L463,174 M463,173L464,174 M464,173L465,174 M465,173L466,174 M466,173L467,174 M467,173L468,174 M468,173L469,174 M469,173L470,174 M470,173L471,174 M471,173L472,174 M472,173L473,174 M473,173L474,174 M474,173L475,174 M475,173L476,174 M476,173L477,174 M477,173L478,174 M478,173L479,174 M479,173L480,174 M480,173L481,174 M481,173L482,174 M696,173L697,174 M697,173L698,174 M158,174L159,175 M159,174L160,175 M160,174L161,175 M161,174L162,175 M162,174L163,175 M427,174L428,175 M428,174L429,175 M429,174L430,175 M430,174L431,175 M463,174L464,175 M464,174L465,175 M465,174L466,175 M466,174L467,175 M467,174L468,175 M468,174L469,175 M469,174L470,175 M470,174L471,175 M471,174L472,175 M472,174L473,175 M473,174L474,175 M474,174L475,175 M475,174L476,175 M476,174L477,175 M477,174L478,175 M478,174L479,175 M696,174L697,175 M697,174L698,175 M160,175L161,176 M161,175L162,176 M162,175L163,176 M163,175L164,176 M164,175L165,176 M426,175L427,176 M427,175L428,176 M428,175L429,176 M696,175L697,176 M697,175L698,176 M162,176L163,177 M163,176L164,177 M164,176L165,177 M165,176L166,177 M166,176L167,177 M425,176L426,177 M426,176L427,177 M427,176L428,177 M696,176L697,177 M697,176L698,177 M165,177L166,178 M166,177L167,178 M167,177L168,178 M168,177L169,178 M169,177L170,178 M423,177L424,178 M424,177L425,178 M425,177L426,178 M426,177L427,178 M695,177L696,178 M696,177L697,178 M167,178L168,179 M168,178L169,179 M169,178L170,179 M170,178L171,179 M171,178L172,179 M422,178L423,179 M423,178L424,179 M424,178L425,179 M695,178L696,179 M696,178L697,179 M169,179L170,180 M170,179L171,180 M171,179L172,180 M172,179L173,180 M173,179L174,180 M421,179L422,180 M422,179L423,180 M423,179L424,180 M695,179L696,180 M696,179L697,180 M172,180L173,181 M173,180L174,181 M174,180L175,181 M175,180L176,181 M176,180L177,181 M419,180L420,181 M420,180L421,181 M421,180L422,181 M422,180L423,181 M694,180L695,181 M695,180L696,181 M696,180L697,181 M174,181L175,182 M175,181L176,182 M176,181L177,182 M177,181L178,182 M178,181L179,182 M418,181L419,182 M419,181L420,182 M420,181L421,182 M694,181L695,182 M695,181L696,182 M176,182L177,183 M177,182L178,183 M178,182L179,183 M179,182L180,183 M180,182L181,183 M417,182L418,183 M418,182L419,183 M419,182L420,183 M694,182L695,183 M695,182L696,183 M179,183L180,184 M180,183L181,184 M181,183L182,184 M182,183L183,184 M183,183L184,184 M415,183L416,184 M416,183L417,184 M417,183L418,184 M418,183L419,184 M693,183L694,184 M694,183L695,184 M181,184L182,185 M182,184L183,185 M183,184L184,185 M184,184L185,185 M185,184L186,185 M414,184L415,185 M415,184L416,185 M416,184L417,185 M693,184L694,185 M694,184L695,185 M183,185L184,186 M184,185L185,186 M185,185L186,186 M186,185L187,186 M187,185L188,186 M413,185L414,186 M414,185L415,186 M415,185L416,186 M693,185L694,186 M694,185L695,186 M186,186L187,187 M187,186L188,187 M188,186L189,187 M189,186L190,187 M190,186L191,187 M411,186L412,187 M412,186L413,187 M413,186L414,187 M414,186L415,187 M692,186L693,187 M693,186L694,187 M188,187L189,188 M189,187L190,188 M190,187L191,188 M191,187L192,188 M192,187L193,188 M410,187L411,188 M411,187L412,188 M412,187L413,188 M692,187L693,188 M693,187L694,188 M190,188L191,189 M191,188L192,189 M192,188L193,189 M193,188L194,189 M194,188L195,189 M409,188L410,189 M410,188L411,189 M411,188L412,189 M692,188L693,189 M693,188L694,189 M193,189L194,190 M194,189L195,190 M195,189L196,190 M196,189L197,190 M197,189L198,190 M407,189L408,190 M408,189L409,190 M409,189L410,190 M410,189L411,190 M691,189L692,190 M692,189L693,190 M195,190L196,191 M196,190L197,191 M197,190L198,191 M198,190L199,191 M199,190L200,191 M406,190L407,191 M407,190L408,191 M408,190L409,191 M691,190L692,191 M692,190L693,191 M197,191L198,192 M198,191L199,192 M199,191L200,192 M200,191L201,192 M201,191L202,192 M405,191L406,192 M406,191L407,192 M407,191L408,192 M691,191L692,192 M692,191L693,192 M200,192L201,193 M201,192L202,193 M202,192L203,193 M203,192L204,193 M204,192L205,193 M404,192L405,193 M405,192L406,193 M406,192L407,193 M690,192L691,193 M691,192L692,193 M202,193L203,194 M203,193L204,194 M204,193L205,194 M205,193L206,194 M206,193L207,194 M402,193L403,194 M403,193L404,194 M404,193L405,194 M405,193L406,194 M690,193L691,194 M691,193L692,194 M204,194L205,195 M205,194L206,195 M206,194L207,195 M207,194L208,195 M208,194L209,195 M401,194L402,195 M402,194L403,195 M403,194L404,195 M689,194L690,195 M690,194L691,195 M691,194L692,195 M207,195L208,196 M208,195L209,196 M209,195L210,196 M210,195L211,196 M211,195L212,196 M400,195L401,196 M401,195L402,196 M402,195L403,196 M689,195L690,196 M690,195L691,196 M209,196L210,197 M210,196L211,197 M211,196L212,197 M212,196L213,197 M213,196L214,197 M398,196L399,197 M399,196L400,197 M400,196L401,197 M401,196L402,197 M689,196L690,197 M690,196L691,197 M211,197L212,198 M212,197L213,198 M213,197L214,198 M214,197L215,198 M215,197L216,198 M396,197L397,198 M397,197L398,198 M398,197L399,198 M399,197L400,198 M688,197L689,198 M689,197L690,198 M690,197L691,198 M213,198L214,199 M214,198L215,199 M215,198L216,199 M216,198L217,199 M217,198L218,199 M218,198L219,199 M392,198L393,199 M393,198L394,199 M394,198L395,199 M395,198L396,199 M396,198L397,199 M397,198L398,199 M398,198L399,199 M688,198L689,199 M689,198L690,199 M216,199L217,200 M217,199L218,200 M218,199L219,200 M219,199L220,200 M220,199L221,200 M389,199L390,200 M390,199L391,200 M391,199L392,200 M392,199L393,200 M393,199L394,200 M394,199L395,200 M395,199L396,200 M688,199L689,200 M689,199L690,200 M218,200L219,201 M219,200L220,201 M220,200L221,201 M221,200L222,201 M222,200L223,201 M385,200L386,201 M386,200L387,201 M387,200L388,201 M388,200L389,201 M389,200L390,201 M390,200L391,201 M391,200L392,201 M687,200L688,201 M688,200L689,201 M689,200L690,201 M220,201L221,202 M221,201L222,202 M222,201L223,202 M223,201L224,202 M224,201L225,202 M225,201L226,202 M226,201L227,202 M381,201L382,202 M382,201L383,202 M383,201L384,202 M384,201L385,202 M385,201L386,202 M386,201L387,202 M387,201L388,202 M388,201L389,202 M687,201L688,202 M688,201L689,202 M223,202L224,203 M224,202L225,203 M225,202L226,203 M226,202L227,203 M227,202L228,203 M228,202L229,203 M229,202L230,203 M230,202L231,203 M231,202L232,203 M378,202L379,203 M379,202L380,203 M380,202L381,203 M381,202L382,203 M382,202L383,203 M383,202L384,203 M384,202L385,203 M687,202L688,203 M688,202L689,203 M227,203L228,204 M228,203L229,204 M229,203L230,204 M230,203L231,204 M231,203L232,204 M232,203L233,204 M233,203L234,204 M234,203L235,204 M235,203L236,204 M236,203L237,204 M374,203L375,204 M375,203L376,204 M376,203L377,204 M377,203L378,204 M378,203L379,204 M379,203L380,204 M380,203L381,204 M381,203L382,204 M686,203L687,204 M687,203L688,204 M232,204L233,205 M233,204L234,205 M234,204L235,205 M235,204L236,205 M236,204L237,205 M237,204L238,205 M238,204L239,205 M239,204L240,205 M240,204L241,205 M241,204L242,205 M370,204L371,205 M371,204L372,205 M372,204L373,205 M373,204L374,205 M374,204L375,205 M375,204L376,205 M376,204L377,205 M377,204L378,205 M686,204L687,205 M687,204L688,205 M237,205L238,206 M238,205L239,206 M239,205L240,206 M240,205L241,206 M241,205L242,206 M242,205L243,206 M243,205L244,206 M244,205L245,206 M245,205L246,206 M246,205L247,206 M367,205L368,206 M368,205L369,206 M369,205L370,206 M370,205L371,206 M371,205L372,206 M372,205L373,206 M373,205L374,206 M686,205L687,206 M687,205L688,206 M242,206L243,207 M243,206L244,207 M244,206L245,207 M245,206L246,207 M246,206L247,207 M247,206L248,207 M248,206L249,207 M249,206L250,207 M250,206L251,207 M251,206L252,207 M252,206L253,207 M363,206L364,207 M364,206L365,207 M365,206L366,207 M366,206L367,207 M367,206L368,207 M368,206L369,207 M369,206L370,207 M370,206L371,207 M685,206L686,207 M686,206L687,207 M247,207L248,208 M248,207L249,208 M249,207L250,208 M250,207L251,208 M251,207L252,208 M252,207L253,208 M253,207L254,208 M254,207L255,208 M255,207L256,208 M256,207L257,208 M257,207L258,208 M359,207L360,208 M360,207L361,208 M361,207L362,208 M362,207L363,208 M363,207L364,208 M364,207L365,208 M365,207L366,208 M366,207L367,208 M685,207L686,208 M686,207L687,208 M252,208L253,209 M253,208L254,209 M254,208L255,209 M255,208L256,209 M256,208L257,209 M257,208L258,209 M258,208L259,209 M259,208L260,209 M260,208L261,209 M261,208L262,209 M262,208L263,209 M350,208L351,209 M351,208L352,209 M352,208L353,209 M353,208L354,209 M354,208L355,209 M355,208L356,209 M356,208L357,209 M357,208L358,209 M358,208L359,209 M359,208L360,209 M360,208L361,209 M361,208L362,209 M362,208L363,209 M685,208L686,209 M686,208L687,209 M257,209L258,210 M258,209L259,210 M259,209L260,210 M260,209L261,210 M261,209L262,210 M262,209L263,210 M263,209L264,210 M264,209L265,210 M265,209L266,210 M266,209L267,210 M267,209L268,210 M335,209L336,210 M336,209L337,210 M337,209L338,210 M338,209L339,210 M339,209L340,210 M340,209L341,210 M341,209L342,210 M342,209L343,210 M343,209L344,210 M344,209L345,210 M345,209L346,210 M346,209L347,210 M347,209L348,210 M348,209L349,210 M349,209L350,210 M350,209L351,210 M351,209L352,210 M352,209L353,210 M353,209L354,210 M354,209L355,210 M355,209L356,210 M356,209L357,210 M357,209L358,210 M358,209L359,210 M359,209L360,210 M684,209L685,210 M685,209L686,210 M263,210L264,211 M264,210L265,211 M265,210L266,211 M266,210L267,211 M267,210L268,211 M268,210L269,211 M269,210L270,211 M270,210L271,211 M271,210L272,211 M272,210L273,211 M273,210L274,211 M274,210L275,211 M275,210L276,211 M276,210L277,211 M277,210L278,211 M278,210L279,211 M279,210L280,211 M280,210L281,211 M281,210L282,211 M282,210L283,211 M283,210L284,211 M284,210L285,211 M285,210L286,211 M286,210L287,211 M287,210L288,211 M288,210L289,211 M289,210L290,211 M290,210L291,211 M291,210L292,211 M292,210L293,211 M293,210L294,211 M294,210L295,211 M320,210L321,211 M321,210L322,211 M322,210L323,211 M323,210L324,211 M324,210L325,211 M325,210L326,211 M326,210L327,211 M327,210L328,211 M328,210L329,211 M329,210L330,211 M330,210L331,211 M331,210L332,211 M332,210L333,211 M333,210L334,211 M334,210L335,211 M335,210L336,211 M336,210L337,211 M337,210L338,211 M338,210L339,211 M339,210L340,211 M340,210L341,211 M341,210L342,211 M342,210L343,211 M343,210L344,211 M344,210L345,211 M345,210L346,211 M346,210L347,211 M347,210L348,211 M348,210L349,211 M349,210L350,211 M684,210L685,211 M685,210L686,211 M268,211L269,212 M269,211L270,212 M270,211L271,212 M271,211L272,212 M272,211L273,212 M273,211L274,212 M274,211L275,212 M275,211L276,212 M276,211L277,212 M277,211L278,212 M278,211L279,212 M279,211L280,212 M280,211L281,212 M281,211L282,212 M282,211L283,212 M283,211L284,212 M284,211L285,212 M285,211L286,212 M286,211L287,212 M287,211L288,212 M288,211L289,212 M289,211L290,212 M290,211L291,212 M291,211L292,212 M292,211L293,212 M293,211L294,212 M294,211L295,212 M295,211L296,212 M296,211L297,212 M297,211L298,212 M298,211L299,212 M299,211L300,212 M300,211L301,212 M301,211L302,212 M302,211L303,212 M303,211L304,212 M304,211L305,212 M305,211L306,212 M306,211L307,212 M307,211L308,212 M308,211L309,212 M309,211L310,212 M310,211L311,212 M311,211L312,212 M312,211L313,212 M313,211L314,212 M314,211L315,212 M315,211L316,212 M316,211L317,212 M317,211L318,212 M318,211L319,212 M319,211L320,212 M320,211L321,212 M321,211L322,212 M322,211L323,212 M323,211L324,212 M324,211L325,212 M325,211L326,212 M326,211L327,212 M327,211L328,212 M328,211L329,212 M329,211L330,212 M330,211L331,212 M331,211L332,212 M332,211L333,212 M333,211L334,212 M334,211L335,212 M683,211L684,212 M684,211L685,212 M685,211L686,212 M295,212L296,213 M296,212L297,213 M297,212L298,213 M298,212L299,213 M299,212L300,213 M300,212L301,213 M301,212L302,213 M302,212L303,213 M303,212L304,213 M304,212L305,213 M305,212L306,213 M306,212L307,213 M307,212L308,213 M308,212L309,213 M309,212L310,213 M310,212L311,213 M311,212L312,213 M312,212L313,213 M313,212L314,213 M314,212L315,213 M315,212L316,213 M316,212L317,213 M317,212L318,213 M318,212L319,213 M319,212L320,213 M683,212L684,213 M684,212L685,213 M683,213L684,214 M684,213L685,214 M683,214L684,215 M684,214L685,215 M682,215L683,216 M683,215L684,216 M682,216L683,217 M683,216L684,217 M682,217L683,218 M683,217L684,218 M682,218L683,219 M683,218L684,219 M682,219L683,220 M683,219L684,220 M681,220L682,221 M682,220L683,221 M681,221L682,222 M682,221L683,222 M681,222L682,223 M682,222L683,223 M681,223L682,224 M682,223L683,224 M680,224L681,225 M681,224L682,225 M680,225L681,226 M681,225L682,226 M680,226L681,227 M681,226L682,227 M680,227L681,228 M681,227L682,228 M680,228L681,229 M681,228L682,229 M679,229L680,230 M680,229L681,230 M679,230L680,231 M680,230L681,231 M679,231L680,232 M680,231L681,232 M679,232L680,233 M680,232L681,233 M679,233L680,234 M680,233L681,234 M678,234L679,235 M679,234L680,235 M678,235L679,236 M679,235L680,236 M678,236L679,237 M679,236L680,237 M678,237L679,238 M679,237L680,238 M678,238L679,239 M679,238L680,239 M678,239L679,240 M679,239L680,240 M678,240L679,241 M679,240L680,241 M678,241L679,242 M679,241L680,242 M678,242L679,243 M679,242L680,243" fill="none" stroke="black" />
    </svg>