<svg xmlns="http://www.w3.org/2000/svg" width="800" height="250">
        <path d="M297,37L298,38 M298,37L299,38 M299,37L300,38 M300,37L301,38 M301,37L302,38 M302,37L303,38 M303,37L304,38 M304,37L305,38 M305,37L306,38 M306,37L307,38 M307,37L308,38 M295,38L296,39 M296,38L297,39 M297,38L298,39 M298,38L299,39 M299,38L300,39 M300,38L301,39 M301,38L302,39 M302,38L303,39 M303,38L304,39 M304,38L305,39 M305,38L306,39 M293,39L294,40 M294,39L295,40 M295,39L296,40 M296,39L297,40 M301,39L302,40 M302,39L303,40 M303,39L304,40 M291,40L292,41 M292,40L293,41 M293,40L294,41 M294,40L295,41 M300,40L301,41 M301,40L302,41 M302,40L303,41 M289,41L290,42 M290,41L291,42 M291,41L292,42 M298,41L299,42 M299,41L300,42 M300,41L301,42 M288,42L289,43 M289,42L290,43 M290,42L291,43 M297,42L298,43 M298,42L299,43 M299,42L300,43 M287,43L288,44 M288,43L289,44 M289,43L290,44 M296,43L297,44 M297,43L298,44 M298,43L299,44 M285,44L286,45 M286,44L287,45 M287,44L288,45 M295,44L296,45 M296,44L297,45 M284,45L285,46 M285,45L286,46 M286,45L287,46 M293,45L294,46 M294,45L295,46 M295,45L296,46 M283,46L284,47 M284,46L285,47 M285,46L286,47 M292,46L293,47 M293,46L294,47 M294,46L295,47 M282,47L283,48 M283,47L284,48 M291,47L292,48 M292,47L293,48 M293,47L294,48 M280,48L281,49 M281,48L282,49 M282,48L283,49 M290,48L291,49 M291,48L292,49 M292,48L293,49 M279,49L280,50 M280,49L281,50 M281,49L282,50 M289,49L290,50 M290,49L291,50 M278,50L279,51 M279,50L280,51 M280,50L281,51 M287,50L288,51 M288,50L289,51 M289,50L290,51 M276,51L277,52 M277,51L278,52 M278,51L279,52 M285,51L286,52 M286,51L287,52 M287,51L288,52 M288,51L289,52 M275,52L276,53 M276,52L277,53 M277,52L278,53 M284,52L285,53 M285,52L286,53 M286,52L287,53 M274,53L275,54 M275,53L276,54 M276,53L277,54 M282,53L283,54 M283,53L284,54 M284,53L285,54 M272,54L273,55 M273,54L274,55 M274,54L275,55 M280,54L281,55 M281,54L282,55 M282,54L283,55 M283,54L284,55 M271,55L272,56 M272,55L273,56 M273,55L274,56 M279,55L280,56 M280,55L281,56 M281,55L282,56 M270,56L271,57 M271,56L272,57 M272,56L273,57 M277,56L278,57 M278,56L279,57 M279,56L280,57 M268,57L269,58 M269,57L270,58 M270,57L271,58 M276,57L277,58 M277,57L278,58 M278,57L279,58 M267,58L268,59 M268,58L269,59 M269,58L270,59 M275,58L276,59 M276,58L277,59 M277,58L278,59 M266,59L267,60 M267,59L268,60 M268,59L269,60 M274,59L275,60 M275,59L276,60 M276,59L277,60 M264,60L265,61 M265,60L266,61 M266,60L267,61 M273,60L274,61 M274,60L275,61 M263,61L264,62 M264,61L265,62 M265,61L266,62 M271,61L272,62 M272,61L273,62 M273,61L274,62 M262,62L263,63 M263,62L264,63 M270,62L271,63 M271,62L272,63 M272,62L273,63 M260,63L261,64 M261,63L262,64 M262,63L263,64 M269,63L270,64 M270,63L271,64 M271,63L272,64 M259,64L260,65 M260,64L261,65 M261,64L262,65 M268,64L269,65 M269,64L270,65 M257,65L258,66 M258,65L259,66 M259,65L260,66 M266,65L267,66 M267,65L268,66 M268,65L269,66 M256,66L257,67 M257,66L258,67 M258,66L259,67 M264,66L265,67 M265,66L266,67 M266,66L267,67 M267,66L268,67 M255,67L256,68 M256,67L257,68 M257,67L258,68 M263,67L264,68 M264,67L265,68 M265,67L266,68 M253,68L254,69 M254,68L255,69 M255,68L256,69 M261,68L262,69 M262,68L263,69 M263,68L264,69 M264,68L265,69 M252,69L253,70 M253,69L254,70 M254,69L255,70 M260,69L261,70 M261,69L262,70 M262,69L263,70 M251,70L252,71 M252,70L253,71 M253,70L254,71 M258,70L259,71 M259,70L260,71 M260,70L261,71 M249,71L250,72 M250,71L251,72 M251,71L252,72 M257,71L258,72 M258,71L259,72 M259,71L260,72 M248,72L249,73 M249,72L250,73 M250,72L251,73 M255,72L256,73 M256,72L257,73 M257,72L258,73 M247,73L248,74 M248,73L249,74 M249,73L250,74 M254,73L255,74 M255,73L256,74 M256,73L257,74 M245,74L246,75 M246,74L247,75 M247,74L248,75 M252,74L253,75 M253,74L254,75 M254,74L255,75 M244,75L245,76 M245,75L246,76 M246,75L247,76 M250,75L251,76 M251,75L252,76 M252,75L253,76 M253,75L254,76 M243,76L244,77 M244,76L245,77 M245,76L246,77 M249,76L250,77 M250,76L251,77 M251,76L252,77 M241,77L242,78 M242,77L243,78 M243,77L244,78 M247,77L248,78 M248,77L249,78 M249,77L250,78 M250,77L251,78 M240,78L241,79 M241,78L242,79 M242,78L243,79 M246,78L247,79 M247,78L248,79 M248,78L249,79 M239,79L240,80 M240,79L241,80 M241,79L242,80 M244,79L245,80 M245,79L246,80 M246,79L247,80 M237,80L238,81 M238,80L239,81 M239,80L240,81 M243,80L244,81 M244,80L245,81 M245,80L246,81 M236,81L237,82 M237,81L238,82 M238,81L239,82 M241,81L242,82 M242,81L243,82 M243,81L244,82 M234,82L235,83 M235,82L236,83 M236,82L237,83 M240,82L241,83 M241,82L242,83 M242,82L243,83 M233,83L234,84 M234,83L235,84 M235,83L236,84 M238,83L239,84 M239,83L240,84 M240,83L241,84 M231,84L232,85 M232,84L233,85 M233,84L234,85 M234,84L235,85 M237,84L238,85 M238,84L239,85 M239,84L240,85 M230,85L231,86 M231,85L232,86 M232,85L233,86 M235,85L236,86 M236,85L237,86 M237,85L238,86 M229,86L230,87 M230,86L231,87 M231,86L232,87 M234,86L235,87 M235,86L236,87 M236,86L237,87 M227,87L228,88 M228,87L229,88 M229,87L230,88 M232,87L233,88 M233,87L234,88 M234,87L235,88 M226,88L227,89 M227,88L228,89 M228,88L229,89 M231,88L232,89 M232,88L233,89 M233,88L234,89 M224,89L225,90 M225,89L226,90 M226,89L227,90 M229,89L230,90 M230,89L231,90 M231,89L232,90 M223,90L224,91 M224,90L225,91 M225,90L226,91 M227,90L228,91 M228,90L229,91 M229,90L230,91 M230,90L231,91 M181,91L182,92 M182,91L183,92 M221,91L222,92 M222,91L223,92 M223,91L224,92 M224,91L225,92 M226,91L227,92 M227,91L228,92 M228,91L229,92 M180,92L181,93 M181,92L182,93 M182,92L183,93 M183,92L184,93 M220,92L221,93 M221,92L222,93 M222,92L223,93 M224,92L225,93 M225,92L226,93 M226,92L227,93 M181,93L182,94 M182,93L183,94 M183,93L184,94 M184,93L185,94 M185,93L186,94 M219,93L220,94 M220,93L221,94 M221,93L222,94 M222,93L223,94 M223,93L224,94 M224,93L225,94 M225,93L226,94 M182,94L183,95 M183,94L184,95 M184,94L185,95 M185,94L186,95 M186,94L187,95 M217,94L218,95 M218,94L219,95 M219,94L220,95 M220,94L221,95 M221,94L222,95 M222,94L223,95 M223,94L224,95 M184,95L185,96 M185,95L186,96 M186,95L187,96 M187,95L188,96 M216,95L217,96 M217,95L218,96 M218,95L219,96 M219,95L220,96 M220,95L221,96 M221,95L222,96 M185,96L186,97 M186,96L187,97 M187,96L188,97 M214,96L215,97 M215,96L216,97 M216,96L217,97 M217,96L218,97 M218,96L219,97 M219,96L220,97 M186,97L187,98 M187,97L188,98 M188,97L189,98 M213,97L214,98 M214,97L215,98 M215,97L216,98 M216,97L217,98 M217,97L218,98 M187,98L188,99 M188,98L189,99 M189,98L190,99 M210,98L211,99 M211,98L212,99 M212,98L213,99 M213,98L214,99 M214,98L215,99 M215,98L216,99 M188,99L189,100 M189,99L190,100 M190,99L191,100 M191,99L192,100 M192,99L193,100 M203,99L204,100 M204,99L205,100 M205,99L206,100 M206,99L207,100 M207,99L208,100 M208,99L209,100 M209,99L210,100 M210,99L211,100 M211,99L212,100 M212,99L213,100 M191,100L192,101 M192,100L193,101 M193,100L194,101 M194,100L195,101 M195,100L196,101 M196,100L197,101 M197,100L198,101 M198,100L199,101 M199,100L200,101 M200,100L201,101 M201,100L202,101 M202,100L203,101 M203,100L204,101 M204,100L205,101 M205,100L206,101 M206,100L207,101 M207,100L208,101 M208,100L209,101 M209,100L210,101 M210,100L211,101 M211,100L212,101 M194,101L195,102 M195,101L196,102 M196,101L197,102 M197,101L198,102 M198,101L199,102 M199,101L200,102 M207,101L208,102 M208,101L209,102 M209,101L210,102 M206,102L207,103 M207,102L208,103 M208,102L209,103 M204,103L205,104 M205,103L206,104 M206,103L207,104 M203,104L204,105 M204,104L205,105 M205,104L206,105 M201,105L202,106 M202,105L203,106 M203,105L204,106 M204,105L205,106 M200,106L201,107 M201,106L202,107 M202,106L203,107 M199,107L200,108 M200,107L201,108 M201,107L202,108 M197,108L198,109 M198,108L199,109 M199,108L200,109 M196,109L197,110 M197,109L198,110 M198,109L199,110 M195,110L196,111 M196,110L197,111 M193,111L194,112 M194,111L195,112 M195,111L196,112 M192,112L193,113 M193,112L194,113 M194,112L195,113 M190,113L191,114 M191,113L192,114 M192,113L193,114 M189,114L190,115 M190,114L191,115 M191,114L192,115 M188,115L189,116 M189,115L190,116 M190,115L191,116 M186,116L187,117 M187,116L188,117 M188,116L189,117 M185,117L186,118 M186,117L187,118 M187,117L188,118 M184,118L185,119 M185,118L186,119 M186,118L187,119 M182,119L183,120 M183,119L184,120 M184,119L185,120 M181,120L182,121 M182,120L183,121 M183,120L184,121 M180,121L181,122 M181,121L182,122 M182,121L183,122 M178,122L179,123 M179,122L180,123 M180,122L181,123 M177,123L178,124 M178,123L179,124 M179,123L180,124 M175,124L176,125 M176,124L177,125 M177,124L178,125 M174,125L175,126 M175,125L176,126 M176,125L177,126 M172,126L173,127 M173,126L174,127 M174,126L175,127 M171,127L172,128 M172,127L173,128 M173,127L174,128 M169,128L170,129 M170,128L171,129 M171,128L172,129 M168,129L169,130 M169,129L170,130 M170,129L171,130 M166,130L167,131 M167,130L168,131 M168,130L169,131 M165,131L166,132 M166,131L167,132 M167,131L168,132 M163,132L164,133 M164,132L165,133 M165,132L166,133 M162,133L163,134 M163,133L164,134 M164,133L165,134 M160,134L161,135 M161,134L162,135 M162,134L163,135 M159,135L160,136 M160,135L161,136 M161,135L162,136 M157,136L158,137 M158,136L159,137 M159,136L160,137 M156,137L157,138 M157,137L158,138 M158,137L159,138 M154,138L155,139 M155,138L156,139 M156,138L157,139 M153,139L154,140 M154,139L155,140 M155,139L156,140 M151,140L152,141 M152,140L153,141 M153,140L154,141 M150,141L151,142 M151,141L152,142 M152,141L153,142 M148,142L149,143 M149,142L150,143 M150,142L151,143 M147,143L148,144 M148,143L149,144 M149,143L150,144 M145,144L146,145 M146,144L147,145 M147,144L148,145 M144,145L145,146 M145,145L146,146 M146,145L147,146 M143,146L144,147 M144,146L145,147 M145,146L146,147 M141,147L142,148 M142,147L143,148 M143,147L144,148 M140,148L141,149 M141,148L142,149 M142,148L143,149 M139,149L140,150 M140,149L141,150 M141,149L142,150 M137,150L138,151 M138,150L139,151 M139,150L140,151 M136,151L137,152 M137,151L138,152 M138,151L139,152 M135,152L136,153 M136,152L137,153 M137,152L138,153 M133,153L134,154 M134,153L135,154 M135,153L136,154 M132,154L133,155 M133,154L134,155 M134,154L135,155 M131,155L132,156 M132,155L133,156 M133,155L134,156 M130,156L131,157 M131,156L132,157 M128,157L129,158 M129,157L130,158 M130,157L131,158 M127,158L128,159 M128,158L129,159 M129,158L130,159 M126,159L127,160 M127,159L128,160 M128,159L129,160 M125,160L126,161 M126,160L127,161 M123,161L124,162 M124,161L125,162 M125,161L126,162 M122,162L123,163 M123,162L124,163 M124,162L125,163 M121,163L122,164 M122,163L123,164 M123,163L124,164 M119,164L120,165 M120,164L121,165 M121,164L122,165 M118,165L119,166 M119,165L120,166 M120,165L121,166 M117,166L118,167 M118,166L119,167 M119,166L120,167 M115,167L116,168 M116,167L117,168 M117,167L118,168 M114,168L115,169 M115,168L116,169 M116,168L117,169 M113,169L114,170 M114,169L115,170 M115,169L116,170 M112,170L113,171 M113,170L114,171 M110,171L111,172 M111,171L112,172 M112,171L113,172 M109,172L110,173 M110,172L111,173 M111,172L112,173 M108,173L109,174 M109,173L110,174 M110,173L111,174 M107,174L108,175 M108,174L109,175 M107,175L108,176 M107,176L108,177 M108,176L109,177 M109,176L110,177 M110,176L111,177 M107,177L108,178 M108,177L109,178 M109,177L110,178 M110,177L111,178 M111,177L112,178 M112,177L113,178 M113,177L114,178 M112,178L113,179 M113,178L114,179 M114,178L115,179 M115,178L116,179 M116,178L117,179 M115,179L116,180 M116,179L117,180 M117,179L118,180 M118,179L119,180 M119,179L120,180 M118,180L119,181 M119,180L120,181 M120,180L121,181 M121,180L122,181 M122,180L123,181 M121,181L122,182 M122,181L123,182 M123,181L124,182 M124,181L125,182 M125,181L126,182 M124,182L125,183 M125,182L126,183 M126,182L127,183 M127,182L128,183 M128,182L129,183 M129,182L130,183 M127,183L128,184 M128,183L129,184 M129,183L130,184 M130,183L131,184 M131,183L132,184 M132,183L133,184 M133,183L134,184 M134,183L135,184 M135,183L136,184 M131,184L132,185 M132,184L133,185 M133,184L134,185 M134,184L135,185 M135,184L136,185 M136,184L137,185 M137,184L138,185 M138,184L139,185 M139,184L140,185 M140,184L141,185 M141,184L142,185 M142,184L143,185 M143,184L144,185 M138,185L139,186 M139,185L140,186 M140,185L141,186 M141,185L142,186 M142,185L143,186 M143,185L144,186 M144,185L145,186 M145,185L146,186 M146,185L147,186 M147,185L148,186 M148,185L149,186 M149,185L150,186 M146,186L147,187 M147,186L148,187 M148,186L149,187 M149,186L150,187 M150,186L151,187 M151,186L152,187 M152,186L153,187 M153,186L154,187 M154,186L155,187 M155,186L156,187 M156,186L157,187 M157,186L158,187 M152,187L153,188 M153,187L154,188 M154,187L155,188 M155,187L156,188 M156,187L157,188 M157,187L158,188 M158,187L159,188 M159,187L160,188 M160,187L161,188 M161,187L162,188 M162,187L163,188 M163,187L164,188 M164,187L165,188 M165,187L166,188 M166,187L167,188 M167,187L168,188 M160,188L161,189 M161,188L162,189 M162,188L163,189 M163,188L164,189 M164,188L165,189 M165,188L166,189 M166,188L167,189 M167,188L168,189 M168,188L169,189 M169,188L170,189 M170,188L171,189 M171,188L172,189 M172,188L173,189 M173,188L174,189 M174,188L175,189 M175,188L176,189 M176,188L177,189 M170,189L171,190 M171,189L172,190 M172,189L173,190 M173,189L174,190 M174,189L175,190 M175,189L176,190 M176,189L177,190 M177,189L178,190 M178,189L179,190 M179,189L180,190 M180,189L181,190 M181,189L182,190 M182,189L183,190 M183,189L184,190 M184,189L185,190 M185,189L186,190 M180,190L181,191 M181,190L182,191 M182,190L183,191 M183,190L184,191 M184,190L185,191 M185,190L186,191 M186,190L187,191 M187,190L188,191 M188,190L189,191 M189,190L190,191 M190,190L191,191 M191,190L192,191 M192,190L193,191 M193,190L194,191 M194,190L195,191 M195,190L196,191 M196,190L197,191 M197,190L198,191 M198,190L199,191 M199,190L200,191 M200,190L201,191 M188,191L189,192 M189,191L190,192 M190,191L191,192 M191,191L192,192 M192,191L193,192 M193,191L194,192 M194,191L195,192 M195,191L196,192 M196,191L197,192 M197,191L198,192 M198,191L199,192 M199,191L200,192 M200,191L201,192 M201,191L202,192 M202,191L203,192 M203,191L204,192 M204,191L205,192 M205,191L206,192 M206,191L207,192 M207,191L208,192 M208,191L209,192 M209,191L210,192 M203,192L204,193 M204,192L205,193 M205,192L206,193 M206,192L207,193 M207,192L208,193 M208,192L209,193 M209,192L210,193 M210,192L211,193 M209,193L210,194 M210,193L211,194 M211,193L212,194 M211,194L212,195 M212,194L213,195 M213,194L214,195 M212,195L213,196 M213,195L214,196 M214,195L215,196 M215,195L216,196 M214,196L215,197 M215,196L216,197 M216,196L217,197 M216,197L217,198 M217,197L218,198 M217,198L218,199 M218,198L219,199 M219,198L220,199 M220,198L221,199 M219,199L220,200 M220,199L221,200 M221,199L222,200 M222,199L223,200 M223,199L224,200 M222,200L223,201 M223,200L224,201 M224,200L225,201 M225,200L226,201 M226,200L227,201 M225,201L226,202 M226,201L227,202 M227,201L228,202 M228,201L229,202 M229,201L230,202 M228,202L229,203 M229,202L230,203 M230,202L231,203 M231,202L232,203 M232,202L233,203 M231,203L232,204 M232,203L233,204 M233,203L234,204 M234,203L235,204 M235,203L236,204 M234,204L235,205 M235,204L236,205 M236,204L237,205 M237,204L238,205 M238,204L239,205 M237,205L238,206 M238,205L239,206 M239,205L240,206 M240,205L241,206 M241,205L242,206 M242,205L243,206 M243,205L244,206 M244,205L245,206 M240,206L241,207 M241,206L242,207 M242,206L243,207 M243,206L244,207 M244,206L245,207 M245,206L246,207 M246,206L247,207 M247,206L248,207 M248,206L249,207 M249,206L250,207 M250,206L251,207 M247,207L248,208 M248,207L249,208 M249,207L250,208 M250,207L251,208 M251,207L252,208 M252,207L253,208 M253,207L254,208 M254,207L255,208 M255,207L256,208 M253,208L254,209 M254,208L255,209 M255,208L256,209 M256,208L257,209 M257,208L258,209 M258,208L259,209 M259,208L260,209 M260,208L261,209 M257,209L258,210 M258,209L259,210 M259,209L260,210 M260,209L261,210 M261,209L262,210 M262,209L263,210 M263,209L264,210 M264,209L265,210 M265,209L266,210 M266,209L267,210 M263,210L264,211 M264,210L265,211 M265,210L266,211 M266,210L267,211 M267,210L268,211 M268,210L269,211 M269,210L270,211 M270,210L271,211 M271,210L272,211 M272,210L273,211 M269,211L270,212 M270,211L271,212 M271,211L272,212 M272,211L273,212 M273,211L274,212 M274,211L275,212 M275,211L276,212 M276,211L277,212 M277,211L278,212 M275,212L276,213 M276,212L277,213 M277,212L278,213 M278,212L279,213 M279,212L280,213 M280,212L281,213 M281,212L282,213 M282,212L283,213 M280,213L281,214 M281,213L282,214 M282,213L283,214 M283,213L284,214 M284,213L285,214 M285,213L286,214 M286,213L287,214 M287,213L288,214 M284,214L285,215 M285,214L286,215 M286,214L287,215 M287,214L288,215 M288,214L289,215 M289,214L290,215 M290,214L291,215 M291,214L292,215 M292,214L293,215 M289,215L290,216 M290,215L291,216 M291,215L292,216 M292,215L293,216 M293,215L294,216 M294,215L295,216 M295,215L296,216 M296,215L297,216 M294,216L295,217 M295,216L296,217 M296,216L297,217 M297,216L298,217 M298,216L299,217 M299,216L300,217 M298,217L299,218 M299,217L300,218 M300,217L301,218 M301,217L302,218 M302,217L303,218 M303,217L304,218 M301,218L302,219 M302,218L303,219 M303,218L304,219 M304,218L305,219 M305,218L306,219 M306,218L307,219 M305,219L306,220 M306,219L307,220 M307,219L308,220 M308,219L309,220 M309,219L310,220 M308,220L309,221 M309,220L310,221 M310,220L311,221 M311,220L312,221 M312,220L313,221 M313,220L314,221 M311,221L312,222 M312,221L313,222 M313,221L314,222 M314,221L315,222 M315,221L316,222 M315,222L316,223" fill="none" stroke="black" />
    </svg>