<svg xmlns="http://www.w3.org/2000/svg" width="800" height="250">
        <path d="M327,2L328,3 M328,2L329,3 M326,3L327,4 M327,3L328,4 M328,3L329,4 M325,4L326,5 M326,4L327,5 M327,4L328,5 M328,4L329,5 M324,5L325,6 M325,5L326,6 M326,5L327,6 M327,5L328,6 M323,6L324,7 M324,6L325,7 M326,6L327,7 M327,6L328,7 M322,7L323,8 M323,7L324,8 M325,7L326,8 M326,7L327,8 M321,8L322,9 M322,8L323,9 M325,8L326,9 M326,8L327,9 M320,9L321,10 M321,9L322,10 M324,9L325,10 M325,9L326,10 M319,10L320,11 M320,10L321,11 M323,10L324,11 M324,10L325,11 M325,10L326,11 M319,11L320,12 M320,11L321,12 M323,11L324,12 M324,11L325,12 M318,12L319,13 M319,12L320,13 M322,12L323,13 M323,12L324,13 M317,13L318,14 M318,13L319,14 M319,13L320,14 M321,13L322,14 M322,13L323,14 M323,13L324,14 M317,14L318,15 M318,14L319,15 M321,14L322,15 M322,14L323,15 M316,15L317,16 M317,15L318,16 M318,15L319,16 M320,15L321,16 M321,15L322,16 M322,15L323,16 M316,16L317,17 M317,16L318,17 M320,16L321,17 M321,16L322,17 M315,17L316,18 M316,17L317,18 M317,17L318,18 M319,17L320,18 M320,17L321,18 M315,18L316,19 M316,18L317,19 M318,18L319,19 M319,18L320,19 M320,18L321,19 M314,19L315,20 M315,19L316,20 M318,19L319,20 M319,19L320,20 M314,20L315,21 M315,20L316,21 M317,20L318,21 M318,20L319,21 M313,21L314,22 M314,21L315,22 M316,21L317,22 M317,21L318,22 M318,21L319,22 M313,22L314,23 M314,22L315,23 M316,22L317,23 M317,22L318,23 M312,23L313,24 M313,23L314,24 M314,23L315,24 M315,23L316,24 M316,23L317,24 M312,24L313,25 M313,24L314,25 M314,24L315,25 M315,24L316,25 M316,24L317,25 M312,25L313,26 M313,25L314,26 M314,25L315,26 M315,25L316,26 M311,26L312,27 M312,26L313,27 M313,26L314,27 M314,26L315,27 M315,26L316,27 M311,27L312,28 M312,27L313,28 M313,27L314,28 M314,27L315,28 M311,28L312,29 M312,28L313,29 M313,28L314,29 M310,29L311,30 M311,29L312,30 M312,29L313,30 M313,29L314,30 M310,30L311,31 M311,30L312,31 M312,30L313,31 M309,31L310,32 M310,31L311,32 M311,31L312,32 M309,32L310,33 M310,32L311,33 M311,32L312,33 M309,33L310,34 M310,33L311,34 M308,34L309,35 M309,34L310,35 M307,35L308,36 M308,35L309,36 M309,35L310,36 M307,36L308,37 M308,36L309,37 M309,36L310,37 M306,37L307,38 M307,37L308,38 M308,37L309,38 M306,38L307,39 M307,38L308,39 M308,38L309,39 M305,39L306,40 M306,39L307,40 M307,39L308,40 M308,39L309,40 M304,40L305,41 M305,40L306,41 M306,40L307,41 M307,40L308,41 M304,41L305,42 M305,41L306,42 M306,41L307,42 M307,41L308,42 M303,42L304,43 M304,42L305,43 M305,42L306,43 M306,42L307,43 M302,43L303,44 M303,43L304,44 M305,43L306,44 M306,43L307,44 M301,44L302,45 M302,44L303,45 M303,44L304,45 M304,44L305,45 M305,44L306,45 M306,44L307,45 M300,45L301,46 M301,45L302,46 M302,45L303,46 M304,45L305,46 M305,45L306,46 M299,46L300,47 M300,46L301,47 M301,46L302,47 M304,46L305,47 M305,46L306,47 M298,47L299,48 M299,47L300,48 M300,47L301,48 M303,47L304,48 M304,47L305,48 M298,48L299,49 M299,48L300,49 M303,48L304,49 M304,48L305,49 M297,49L298,50 M298,49L299,50 M303,49L304,50 M304,49L305,50 M296,50L297,51 M297,50L298,51 M302,50L303,51 M303,50L304,51 M295,51L296,52 M296,51L297,52 M297,51L298,52 M302,51L303,52 M303,51L304,52 M294,52L295,53 M295,52L296,53 M296,52L297,53 M301,52L302,53 M302,52L303,53 M303,52L304,53 M293,53L294,54 M294,53L295,54 M295,53L296,54 M301,53L302,54 M302,53L303,54 M292,54L293,55 M293,54L294,55 M294,54L295,55 M301,54L302,55 M302,54L303,55 M292,55L293,56 M293,55L294,56 M300,55L301,56 M301,55L302,56 M291,56L292,57 M292,56L293,57 M300,56L301,57 M301,56L302,57 M290,57L291,58 M291,57L292,58 M300,57L301,58 M301,57L302,58 M289,58L290,59 M290,58L291,59 M291,58L292,59 M299,58L300,59 M300,58L301,59 M288,59L289,60 M289,59L290,60 M290,59L291,60 M299,59L300,60 M300,59L301,60 M287,60L288,61 M288,60L289,61 M289,60L290,61 M298,60L299,61 M299,60L300,61 M300,60L301,61 M286,61L287,62 M287,61L288,62 M288,61L289,62 M298,61L299,62 M299,61L300,62 M286,62L287,63 M287,62L288,63 M298,62L299,63 M299,62L300,63 M285,63L286,64 M286,63L287,64 M297,63L298,64 M298,63L299,64 M284,64L285,65 M285,64L286,65 M297,64L298,65 M298,64L299,65 M283,65L284,66 M284,65L285,66 M285,65L286,66 M296,65L297,66 M297,65L298,66 M298,65L299,66 M282,66L283,67 M283,66L284,67 M284,66L285,67 M296,66L297,67 M297,66L298,67 M281,67L282,68 M282,67L283,68 M283,67L284,68 M296,67L297,68 M297,67L298,68 M280,68L281,69 M281,68L282,69 M282,68L283,69 M295,68L296,69 M296,68L297,69 M279,69L280,70 M280,69L281,70 M281,69L282,70 M295,69L296,70 M296,69L297,70 M278,70L279,71 M279,70L280,71 M280,70L281,71 M295,70L296,71 M296,70L297,71 M277,71L278,72 M278,71L279,72 M279,71L280,72 M294,71L295,72 M295,71L296,72 M276,72L277,73 M277,72L278,73 M278,72L279,73 M294,72L295,73 M295,72L296,73 M274,73L275,74 M275,73L276,74 M276,73L277,74 M277,73L278,74 M294,73L295,74 M295,73L296,74 M194,74L195,75 M195,74L196,75 M273,74L274,75 M274,74L275,75 M275,74L276,75 M294,74L295,75 M295,74L296,75 M193,75L194,76 M194,75L195,76 M195,75L196,76 M196,75L197,76 M272,75L273,76 M273,75L274,76 M274,75L275,76 M294,75L295,76 M295,75L296,76 M194,76L195,77 M195,76L196,77 M196,76L197,77 M271,76L272,77 M272,76L273,77 M273,76L274,77 M293,76L294,77 M294,76L295,77 M195,77L196,78 M196,77L197,78 M197,77L198,78 M269,77L270,78 M270,77L271,78 M271,77L272,78 M272,77L273,78 M293,77L294,78 M294,77L295,78 M195,78L196,79 M196,78L197,79 M197,78L198,79 M268,78L269,79 M269,78L270,79 M270,78L271,79 M293,78L294,79 M294,78L295,79 M196,79L197,80 M197,79L198,80 M198,79L199,80 M267,79L268,80 M268,79L269,80 M269,79L270,80 M293,79L294,80 M294,79L295,80 M197,80L198,81 M198,80L199,81 M266,80L267,81 M267,80L268,81 M268,80L269,81 M293,80L294,81 M294,80L295,81 M198,81L199,82 M199,81L200,82 M264,81L265,82 M265,81L266,82 M266,81L267,82 M267,81L268,82 M293,81L294,82 M294,81L295,82 M198,82L199,83 M199,82L200,83 M200,82L201,83 M263,82L264,83 M264,82L265,83 M265,82L266,83 M292,82L293,83 M293,82L294,83 M199,83L200,84 M200,83L201,84 M201,83L202,84 M262,83L263,84 M263,83L264,84 M264,83L265,84 M292,83L293,84 M293,83L294,84 M200,84L201,85 M201,84L202,85 M261,84L262,85 M262,84L263,85 M263,84L264,85 M292,84L293,85 M293,84L294,85 M200,85L201,86 M201,85L202,86 M202,85L203,86 M259,85L260,86 M260,85L261,86 M261,85L262,86 M262,85L263,86 M292,85L293,86 M293,85L294,86 M201,86L202,87 M202,86L203,87 M203,86L204,87 M258,86L259,87 M259,86L260,87 M260,86L261,87 M292,86L293,87 M293,86L294,87 M202,87L203,88 M203,87L204,88 M257,87L258,88 M258,87L259,88 M259,87L260,88 M291,87L292,88 M292,87L293,88 M203,88L204,89 M204,88L205,89 M256,88L257,89 M257,88L258,89 M258,88L259,89 M291,88L292,89 M292,88L293,89 M203,89L204,90 M204,89L205,90 M205,89L206,90 M254,89L255,90 M255,89L256,90 M256,89L257,90 M257,89L258,90 M291,89L292,90 M292,89L293,90 M204,90L205,91 M205,90L206,91 M253,90L254,91 M254,90L255,91 M255,90L256,91 M291,90L292,91 M292,90L293,91 M205,91L206,92 M206,91L207,92 M251,91L252,92 M252,91L253,92 M253,91L254,92 M254,91L255,92 M291,91L292,92 M292,91L293,92 M205,92L206,93 M206,92L207,93 M207,92L208,93 M249,92L250,93 M250,92L251,93 M251,92L252,93 M252,92L253,93 M290,92L291,93 M291,92L292,93 M206,93L207,94 M207,93L208,94 M248,93L249,94 M249,93L250,94 M250,93L251,94 M251,93L252,94 M290,93L291,94 M291,93L292,94 M207,94L208,95 M208,94L209,95 M246,94L247,95 M247,94L248,95 M248,94L249,95 M249,94L250,95 M290,94L291,95 M291,94L292,95 M208,95L209,96 M209,95L210,96 M244,95L245,96 M245,95L246,96 M246,95L247,96 M247,95L248,96 M290,95L291,96 M291,95L292,96 M209,96L210,97 M210,96L211,97 M243,96L244,97 M244,96L245,97 M245,96L246,97 M246,96L247,97 M290,96L291,97 M291,96L292,97 M210,97L211,98 M211,97L212,98 M241,97L242,98 M242,97L243,98 M243,97L244,98 M244,97L245,98 M290,97L291,98 M291,97L292,98 M211,98L212,99 M212,98L213,99 M239,98L240,99 M240,98L241,99 M241,98L242,99 M242,98L243,99 M289,98L290,99 M290,98L291,99 M212,99L213,100 M213,99L214,100 M238,99L239,100 M239,99L240,100 M240,99L241,100 M241,99L242,100 M289,99L290,100 M290,99L291,100 M213,100L214,101 M214,100L215,101 M236,100L237,101 M237,100L238,101 M238,100L239,101 M239,100L240,101 M289,100L290,101 M290,100L291,101 M214,101L215,102 M215,101L216,102 M233,101L234,102 M234,101L235,102 M235,101L236,102 M236,101L237,102 M237,101L238,102 M289,101L290,102 M290,101L291,102 M215,102L216,103 M216,102L217,103 M217,102L218,103 M218,102L219,103 M229,102L230,103 M230,102L231,103 M231,102L232,103 M232,102L233,103 M233,102L234,103 M234,102L235,103 M235,102L236,103 M236,102L237,103 M289,102L290,103 M290,102L291,103 M216,103L217,104 M217,103L218,104 M218,103L219,104 M219,103L220,104 M220,103L221,104 M221,103L222,104 M225,103L226,104 M226,103L227,104 M227,103L228,104 M228,103L229,104 M229,103L230,104 M230,103L231,104 M231,103L232,104 M232,103L233,104 M289,103L290,104 M218,104L219,105 M219,104L220,105 M220,104L221,105 M221,104L222,105 M222,104L223,105 M223,104L224,105 M224,104L225,105 M225,104L226,105 M226,104L227,105 M227,104L228,105 M228,104L229,105 M289,104L290,105 M222,105L223,106 M223,105L224,106 M224,105L225,106 M289,105L290,106 M289,106L290,107 M289,107L290,108 M289,108L290,109 M289,109L290,110 M289,110L290,111 M289,111L290,112 M289,112L290,113 M289,113L290,114 M289,114L290,115 M289,115L290,116 M289,116L290,117 M289,117L290,118 M289,118L290,119 M289,119L290,120 M289,120L290,121 M289,121L290,122 M289,122L290,123 M289,123L290,124 M289,124L290,125 M289,125L290,126 M289,126L290,127 M289,127L290,128 M289,128L290,129 M289,129L290,130 M289,130L290,131 M289,131L290,132 M290,131L291,132 M289,132L290,133 M290,132L291,133 M289,133L290,134 M290,133L291,134 M290,134L291,135 M291,134L292,135 M290,135L291,136 M291,135L292,136 M290,136L291,137 M291,136L292,137 M291,137L292,138 M292,137L293,138 M291,138L292,139 M292,138L293,139 M291,139L292,140 M292,139L293,140 M292,140L293,141 M293,140L294,141 M292,141L293,142 M293,141L294,142 M292,142L293,143 M293,142L294,143 M293,143L294,144 M294,143L295,144 M293,144L294,145 M294,144L295,145 M293,145L294,146 M294,145L295,146 M294,146L295,147 M295,146L296,147 M294,147L295,148 M295,147L296,148 M294,148L295,149 M295,148L296,149 M295,149L296,150 M296,149L297,150 M295,150L296,151 M296,150L297,151 M295,151L296,152 M296,151L297,152 M296,152L297,153 M297,152L298,153 M296,153L297,154 M297,153L298,154 M296,154L297,155 M297,154L298,155 M297,155L298,156 M298,155L299,156 M297,156L298,157 M298,156L299,157 M299,156L300,157 M298,157L299,158 M299,157L300,158 M300,157L301,158 M299,158L300,159 M300,158L301,159 M300,159L301,160 M301,159L302,160 M300,160L301,161 M301,160L302,161 M302,160L303,161 M301,161L302,162 M302,161L303,162 M302,162L303,163 M303,162L304,163 M302,163L303,164 M303,163L304,164 M304,163L305,164 M303,164L304,165 M304,164L305,165 M305,164L306,165 M304,165L305,166 M305,165L306,166 M305,166L306,167 M306,166L307,167 M305,167L306,168 M306,167L307,168 M307,167L308,168 M306,168L307,169 M307,168L308,169 M308,168L309,169 M440,168L441,169 M441,168L442,169 M307,169L308,170 M308,169L309,170 M436,169L437,170 M437,169L438,170 M438,169L439,170 M439,169L440,170 M440,169L441,170 M441,169L442,170 M308,170L309,171 M309,170L310,171 M433,170L434,171 M434,170L435,171 M435,170L436,171 M436,170L437,171 M437,170L438,171 M438,170L439,171 M439,170L440,171 M308,171L309,172 M309,171L310,172 M310,171L311,172 M430,171L431,172 M431,171L432,172 M432,171L433,172 M433,171L434,172 M434,171L435,172 M435,171L436,172 M436,171L437,172 M309,172L310,173 M310,172L311,173 M311,172L312,173 M426,172L427,173 M427,172L428,173 M428,172L429,173 M429,172L430,173 M430,172L431,173 M431,172L432,173 M432,172L433,173 M310,173L311,174 M311,173L312,174 M312,173L313,174 M423,173L424,174 M424,173L425,174 M425,173L426,174 M426,173L427,174 M427,173L428,174 M428,173L429,174 M429,173L430,174 M311,174L312,175 M312,174L313,175 M313,174L314,175 M420,174L421,175 M421,174L422,175 M422,174L423,175 M423,174L424,175 M424,174L425,175 M425,174L426,175 M426,174L427,175 M312,175L313,176 M313,175L314,176 M314,175L315,176 M417,175L418,176 M418,175L419,176 M419,175L420,176 M420,175L421,176 M421,175L422,176 M422,175L423,176 M313,176L314,177 M314,176L315,177 M315,176L316,177 M413,176L414,177 M414,176L415,177 M415,176L416,177 M416,176L417,177 M417,176L418,177 M418,176L419,177 M419,176L420,177 M315,177L316,178 M316,177L317,178 M317,177L318,178 M410,177L411,178 M411,177L412,178 M412,177L413,178 M413,177L414,178 M414,177L415,178 M415,177L416,178 M416,177L417,178 M316,178L317,179 M317,178L318,179 M318,178L319,179 M407,178L408,179 M408,178L409,179 M409,178L410,179 M410,178L411,179 M411,178L412,179 M412,178L413,179 M413,178L414,179 M317,179L318,180 M318,179L319,180 M319,179L320,180 M403,179L404,180 M404,179L405,180 M405,179L406,180 M406,179L407,180 M407,179L408,180 M408,179L409,180 M409,179L410,180 M318,180L319,181 M319,180L320,181 M320,180L321,181 M400,180L401,181 M401,180L402,181 M402,180L403,181 M403,180L404,181 M404,180L405,181 M405,180L406,181 M406,180L407,181 M319,181L320,182 M320,181L321,182 M321,181L322,182 M322,181L323,182 M397,181L398,182 M398,181L399,182 M399,181L400,182 M400,181L401,182 M401,181L402,182 M402,181L403,182 M403,181L404,182 M321,182L322,183 M322,182L323,183 M323,182L324,183 M394,182L395,183 M395,182L396,183 M396,182L397,183 M397,182L398,183 M398,182L399,183 M399,182L400,183 M322,183L323,184 M323,183L324,184 M324,183L325,184 M393,183L394,184 M394,183L395,184 M395,183L396,184 M396,183L397,184 M323,184L324,185 M324,184L325,185 M325,184L326,185 M391,184L392,185 M392,184L393,185 M393,184L394,185 M394,184L395,185 M324,185L325,186 M325,185L326,186 M326,185L327,186 M327,185L328,186 M390,185L391,186 M391,185L392,186 M392,185L393,186 M326,186L327,187 M327,186L328,187 M328,186L329,187 M329,186L330,187 M330,186L331,187 M388,186L389,187 M389,186L390,187 M390,186L391,187 M391,186L392,187 M328,187L329,188 M329,187L330,188 M330,187L331,188 M331,187L332,188 M332,187L333,188 M387,187L388,188 M388,187L389,188 M389,187L390,188 M330,188L331,189 M331,188L332,189 M332,188L333,189 M333,188L334,189 M334,188L335,189 M335,188L336,189 M385,188L386,189 M386,188L387,189 M387,188L388,189 M388,188L389,189 M333,189L334,190 M334,189L335,190 M335,189L336,190 M336,189L337,190 M337,189L338,190 M383,189L384,190 M384,189L385,190 M385,189L386,190 M386,189L387,190 M335,190L336,191 M336,190L337,191 M337,190L338,191 M338,190L339,191 M339,190L340,191 M340,190L341,191 M381,190L382,191 M382,190L383,191 M383,190L384,191 M384,190L385,191 M338,191L339,192 M339,191L340,192 M340,191L341,192 M341,191L342,192 M342,191L343,192 M343,191L344,192 M344,191L345,192 M345,191L346,192 M346,191L347,192 M347,191L348,192 M348,191L349,192 M349,191L350,192 M350,191L351,192 M351,191L352,192 M352,191L353,192 M353,191L354,192 M378,191L379,192 M379,191L380,192 M380,191L381,192 M381,191L382,192 M382,191L383,192 M340,192L341,193 M341,192L342,193 M342,192L343,193 M343,192L344,193 M344,192L345,193 M345,192L346,193 M346,192L347,193 M347,192L348,193 M348,192L349,193 M349,192L350,193 M350,192L351,193 M351,192L352,193 M352,192L353,193 M353,192L354,193 M354,192L355,193 M355,192L356,193 M356,192L357,193 M357,192L358,193 M358,192L359,193 M359,192L360,193 M360,192L361,193 M361,192L362,193 M362,192L363,193 M363,192L364,193 M364,192L365,193 M365,192L366,193 M366,192L367,193 M367,192L368,193 M368,192L369,193 M369,192L370,193 M370,192L371,193 M371,192L372,193 M372,192L373,193 M373,192L374,193 M374,192L375,193 M375,192L376,193 M376,192L377,193 M377,192L378,193 M378,192L379,193 M379,192L380,193 M380,192L381,193 M354,193L355,194 M355,193L356,194 M356,193L357,194 M357,193L358,194 M358,193L359,194 M359,193L360,194 M360,193L361,194 M361,193L362,194 M362,193L363,194 M363,193L364,194 M364,193L365,194 M365,193L366,194 M366,193L367,194 M367,193L368,194 M368,193L369,194 M369,193L370,194 M370,193L371,194 M371,193L372,194 M372,193L373,194 M373,193L374,194 M374,193L375,194 M375,193L376,194 M376,193L377,194 M377,193L378,194 M378,193L379,194" fill="none" stroke="black" />
    </svg>