<svg xmlns="http://www.w3.org/2000/svg" width="800" height="250">
        <path d="M387,58L388,59 M388,58L389,59 M389,58L390,59 M390,58L391,59 M391,58L392,59 M392,58L393,59 M393,58L394,59 M394,58L395,59 M395,58L396,59 M396,58L397,59 M397,58L398,59 M398,58L399,59 M399,58L400,59 M400,58L401,59 M379,59L380,60 M380,59L381,60 M381,59L382,60 M382,59L383,60 M383,59L384,60 M384,59L385,60 M385,59L386,60 M386,59L387,60 M387,59L388,60 M388,59L389,60 M389,59L390,60 M390,59L391,60 M391,59L392,60 M392,59L393,60 M393,59L394,60 M394,59L395,60 M395,59L396,60 M396,59L397,60 M397,59L398,60 M398,59L399,60 M399,59L400,60 M400,59L401,60 M401,59L402,60 M402,59L403,60 M403,59L404,60 M376,60L377,61 M377,60L378,61 M378,60L379,61 M379,60L380,61 M380,60L381,61 M381,60L382,61 M382,60L383,61 M383,60L384,61 M384,60L385,61 M402,60L403,61 M403,60L404,61 M404,60L405,61 M405,60L406,61 M374,61L375,62 M375,61L376,62 M376,61L377,62 M377,61L378,62 M378,61L379,62 M404,61L405,62 M405,61L406,62 M406,61L407,62 M407,61L408,62 M408,61L409,62 M371,62L372,63 M372,62L373,63 M373,62L374,63 M374,62L375,63 M375,62L376,63 M407,62L408,63 M408,62L409,63 M409,62L410,63 M410,62L411,63 M368,63L369,64 M369,63L370,64 M370,63L371,64 M371,63L372,64 M372,63L373,64 M409,63L410,64 M410,63L411,64 M411,63L412,64 M412,63L413,64 M413,63L414,64 M365,64L366,65 M366,64L367,65 M367,64L368,65 M368,64L369,65 M369,64L370,65 M370,64L371,65 M412,64L413,65 M413,64L414,65 M414,64L415,65 M415,64L416,65 M363,65L364,66 M364,65L365,66 M365,65L366,66 M366,65L367,66 M367,65L368,66 M414,65L415,66 M415,65L416,66 M416,65L417,66 M417,65L418,66 M361,66L362,67 M362,66L363,67 M363,66L364,67 M364,66L365,67 M417,66L418,67 M418,66L419,67 M419,66L420,67 M420,66L421,67 M360,67L361,68 M361,67L362,68 M362,67L363,68 M419,67L420,68 M420,67L421,68 M421,67L422,68 M422,67L423,68 M359,68L360,69 M360,68L361,69 M361,68L362,69 M422,68L423,69 M423,68L424,69 M424,68L425,69 M357,69L358,70 M358,69L359,70 M359,69L360,70 M424,69L425,70 M425,69L426,70 M426,69L427,70 M356,70L357,71 M357,70L358,71 M358,70L359,71 M425,70L426,71 M426,70L427,71 M427,70L428,71 M428,70L429,71 M355,71L356,72 M356,71L357,72 M427,71L428,72 M428,71L429,72 M429,71L430,72 M430,71L431,72 M354,72L355,73 M355,72L356,73 M429,72L430,73 M430,72L431,73 M431,72L432,73 M353,73L354,74 M354,73L355,74 M431,73L432,74 M432,73L433,74 M433,73L434,74 M325,74L326,75 M326,74L327,75 M327,74L328,75 M328,74L329,75 M329,74L330,75 M330,74L331,75 M331,74L332,75 M332,74L333,75 M333,74L334,75 M334,74L335,75 M335,74L336,75 M336,74L337,75 M352,74L353,75 M353,74L354,75 M433,74L434,75 M434,74L435,75 M435,74L436,75 M320,75L321,76 M321,75L322,76 M322,75L323,76 M323,75L324,76 M324,75L325,76 M325,75L326,76 M326,75L327,76 M327,75L328,76 M328,75L329,76 M329,75L330,76 M330,75L331,76 M331,75L332,76 M332,75L333,76 M333,75L334,76 M334,75L335,76 M335,75L336,76 M351,75L352,76 M352,75L353,76 M435,75L436,76 M436,75L437,76 M437,75L438,76 M160,76L161,77 M161,76L162,77 M318,76L319,77 M319,76L320,77 M320,76L321,77 M321,76L322,77 M322,76L323,77 M323,76L324,77 M333,76L334,77 M334,76L335,77 M350,76L351,77 M351,76L352,77 M436,76L437,77 M437,76L438,77 M438,76L439,77 M159,77L160,78 M160,77L161,78 M161,77L162,78 M316,77L317,78 M317,77L318,78 M318,77L319,78 M319,77L320,78 M332,77L333,78 M333,77L334,78 M349,77L350,78 M350,77L351,78 M438,77L439,78 M439,77L440,78 M440,77L441,78 M160,78L161,79 M161,78L162,79 M162,78L163,79 M315,78L316,79 M316,78L317,79 M317,78L318,79 M331,78L332,79 M332,78L333,79 M348,78L349,79 M349,78L350,79 M439,78L440,79 M440,78L441,79 M441,78L442,79 M160,79L161,80 M161,79L162,80 M162,79L163,80 M313,79L314,80 M314,79L315,80 M315,79L316,80 M316,79L317,80 M330,79L331,80 M331,79L332,80 M346,79L347,80 M347,79L348,80 M348,79L349,80 M441,79L442,80 M442,79L443,80 M443,79L444,80 M161,80L162,81 M162,80L163,81 M163,80L164,81 M312,80L313,81 M313,80L314,81 M314,80L315,81 M328,80L329,81 M329,80L330,81 M330,80L331,81 M345,80L346,81 M346,80L347,81 M347,80L348,81 M443,80L444,81 M444,80L445,81 M445,80L446,81 M161,81L162,82 M162,81L163,82 M163,81L164,82 M311,81L312,82 M312,81L313,82 M327,81L328,82 M328,81L329,82 M329,81L330,82 M344,81L345,82 M345,81L346,82 M346,81L347,82 M444,81L445,82 M445,81L446,82 M446,81L447,82 M530,81L531,82 M531,81L532,82 M532,81L533,82 M533,81L534,82 M162,82L163,83 M163,82L164,83 M164,82L165,83 M310,82L311,83 M311,82L312,83 M326,82L327,83 M327,82L328,83 M328,82L329,83 M343,82L344,83 M344,82L345,83 M345,82L346,83 M446,82L447,83 M447,82L448,83 M448,82L449,83 M528,82L529,83 M529,82L530,83 M530,82L531,83 M531,82L532,83 M162,83L163,84 M163,83L164,84 M164,83L165,84 M309,83L310,84 M310,83L311,84 M325,83L326,84 M326,83L327,84 M327,83L328,84 M342,83L343,84 M343,83L344,84 M447,83L448,84 M448,83L449,84 M449,83L450,84 M526,83L527,84 M527,83L528,84 M528,83L529,84 M529,83L530,84 M530,83L531,84 M163,84L164,85 M164,84L165,85 M165,84L166,85 M308,84L309,85 M309,84L310,85 M324,84L325,85 M325,84L326,85 M341,84L342,85 M342,84L343,85 M449,84L450,85 M450,84L451,85 M524,84L525,85 M525,84L526,85 M526,84L527,85 M527,84L528,85 M528,84L529,85 M163,85L164,86 M164,85L165,86 M165,85L166,86 M307,85L308,86 M308,85L309,86 M323,85L324,86 M324,85L325,86 M341,85L342,86 M342,85L343,86 M450,85L451,86 M451,85L452,86 M452,85L453,86 M523,85L524,86 M524,85L525,86 M525,85L526,86 M526,85L527,86 M627,85L628,86 M628,85L629,86 M164,86L165,87 M165,86L166,87 M306,86L307,87 M307,86L308,87 M321,86L322,87 M322,86L323,87 M323,86L324,87 M340,86L341,87 M341,86L342,87 M451,86L452,87 M452,86L453,87 M453,86L454,87 M522,86L523,87 M523,86L524,87 M524,86L525,87 M627,86L628,87 M628,86L629,87 M165,87L166,88 M166,87L167,88 M305,87L306,88 M306,87L307,88 M320,87L321,88 M321,87L322,88 M322,87L323,88 M339,87L340,88 M340,87L341,88 M453,87L454,88 M454,87L455,88 M520,87L521,88 M521,87L522,88 M522,87L523,88 M628,87L629,88 M629,87L630,88 M165,88L166,89 M166,88L167,89 M304,88L305,89 M305,88L306,89 M319,88L320,89 M320,88L321,89 M321,88L322,89 M339,88L340,89 M340,88L341,89 M454,88L455,89 M455,88L456,89 M456,88L457,89 M518,88L519,89 M519,88L520,89 M520,88L521,89 M521,88L522,89 M629,88L630,89 M630,88L631,89 M165,89L166,90 M166,89L167,90 M303,89L304,90 M304,89L305,90 M318,89L319,90 M319,89L320,90 M338,89L339,90 M339,89L340,90 M455,89L456,90 M456,89L457,90 M457,89L458,90 M517,89L518,90 M518,89L519,90 M519,89L520,90 M520,89L521,90 M629,89L630,90 M630,89L631,90 M166,90L167,91 M167,90L168,91 M303,90L304,91 M316,90L317,91 M317,90L318,91 M318,90L319,91 M338,90L339,91 M456,90L457,91 M457,90L458,91 M458,90L459,91 M515,90L516,91 M516,90L517,91 M517,90L518,91 M518,90L519,91 M519,90L520,91 M630,90L631,91 M631,90L632,91 M166,91L167,92 M167,91L168,92 M302,91L303,92 M303,91L304,92 M315,91L316,92 M316,91L317,92 M317,91L318,92 M337,91L338,92 M338,91L339,92 M458,91L459,92 M459,91L460,92 M514,91L515,92 M515,91L516,92 M516,91L517,92 M517,91L518,92 M518,91L519,92 M630,91L631,92 M631,91L632,92 M632,91L633,92 M167,92L168,93 M168,92L169,93 M301,92L302,93 M302,92L303,93 M314,92L315,93 M315,92L316,93 M316,92L317,93 M336,92L337,93 M337,92L338,93 M459,92L460,93 M460,92L461,93 M461,92L462,93 M512,92L513,93 M513,92L514,93 M514,92L515,93 M516,92L517,93 M517,92L518,93 M631,92L632,93 M632,92L633,93 M167,93L168,94 M168,93L169,94 M300,93L301,94 M301,93L302,94 M313,93L314,94 M314,93L315,94 M336,93L337,94 M337,93L338,94 M460,93L461,94 M461,93L462,94 M462,93L463,94 M511,93L512,94 M512,93L513,94 M513,93L514,94 M515,93L516,94 M516,93L517,94 M632,93L633,94 M633,93L634,94 M168,94L169,95 M300,94L301,95 M301,94L302,95 M311,94L312,95 M312,94L313,95 M313,94L314,95 M336,94L337,95 M461,94L462,95 M462,94L463,95 M463,94L464,95 M509,94L510,95 M510,94L511,95 M511,94L512,95 M514,94L515,95 M515,94L516,95 M632,94L633,95 M633,94L634,95 M168,95L169,96 M169,95L170,96 M299,95L300,96 M300,95L301,96 M310,95L311,96 M311,95L312,96 M312,95L313,96 M335,95L336,96 M336,95L337,96 M463,95L464,96 M464,95L465,96 M465,95L466,96 M507,95L508,96 M508,95L509,96 M509,95L510,96 M510,95L511,96 M513,95L514,96 M514,95L515,96 M632,95L633,96 M633,95L634,96 M168,96L169,97 M169,96L170,97 M298,96L299,97 M299,96L300,97 M309,96L310,97 M310,96L311,97 M311,96L312,97 M335,96L336,97 M336,96L337,97 M464,96L465,97 M465,96L466,97 M466,96L467,97 M506,96L507,97 M507,96L508,97 M508,96L509,97 M512,96L513,97 M513,96L514,97 M633,96L634,97 M169,97L170,98 M170,97L171,98 M298,97L299,98 M299,97L300,98 M307,97L308,98 M308,97L309,98 M309,97L310,98 M334,97L335,98 M335,97L336,98 M465,97L466,98 M466,97L467,98 M467,97L468,98 M504,97L505,98 M505,97L506,98 M506,97L507,98 M507,97L508,98 M511,97L512,98 M512,97L513,98 M633,97L634,98 M634,97L635,98 M169,98L170,99 M170,98L171,99 M297,98L298,99 M298,98L299,99 M306,98L307,99 M307,98L308,99 M308,98L309,99 M334,98L335,99 M335,98L336,99 M467,98L468,99 M468,98L469,99 M469,98L470,99 M503,98L504,99 M504,98L505,99 M505,98L506,99 M510,98L511,99 M511,98L512,99 M633,98L634,99 M634,98L635,99 M170,99L171,100 M171,99L172,100 M296,99L297,100 M297,99L298,100 M304,99L305,100 M305,99L306,100 M306,99L307,100 M307,99L308,100 M334,99L335,100 M468,99L469,100 M469,99L470,100 M470,99L471,100 M501,99L502,100 M502,99L503,100 M503,99L504,100 M509,99L510,100 M510,99L511,100 M633,99L634,100 M634,99L635,100 M171,100L172,101 M172,100L173,101 M296,100L297,101 M297,100L298,101 M303,100L304,101 M304,100L305,101 M305,100L306,101 M333,100L334,101 M334,100L335,101 M469,100L470,101 M470,100L471,101 M471,100L472,101 M499,100L500,101 M500,100L501,101 M501,100L502,101 M502,100L503,101 M508,100L509,101 M509,100L510,101 M634,100L635,101 M171,101L172,102 M172,101L173,102 M295,101L296,102 M296,101L297,102 M302,101L303,102 M303,101L304,102 M304,101L305,102 M333,101L334,102 M334,101L335,102 M471,101L472,102 M472,101L473,102 M473,101L474,102 M498,101L499,102 M499,101L500,102 M500,101L501,102 M507,101L508,102 M508,101L509,102 M634,101L635,102 M635,101L636,102 M172,102L173,103 M173,102L174,103 M294,102L295,103 M295,102L296,103 M300,102L301,103 M301,102L302,103 M302,102L303,103 M332,102L333,103 M333,102L334,103 M472,102L473,103 M473,102L474,103 M474,102L475,103 M496,102L497,103 M497,102L498,103 M498,102L499,103 M507,102L508,103 M508,102L509,103 M634,102L635,103 M635,102L636,103 M173,103L174,104 M174,103L175,104 M294,103L295,104 M295,103L296,104 M299,103L300,104 M300,103L301,104 M301,103L302,104 M332,103L333,104 M333,103L334,104 M474,103L475,104 M475,103L476,104 M494,103L495,104 M495,103L496,104 M496,103L497,104 M497,103L498,104 M506,103L507,104 M507,103L508,104 M634,103L635,104 M635,103L636,104 M173,104L174,105 M174,104L175,105 M293,104L294,105 M294,104L295,105 M296,104L297,105 M297,104L298,105 M298,104L299,105 M299,104L300,105 M332,104L333,105 M475,104L476,105 M476,104L477,105 M477,104L478,105 M493,104L494,105 M494,104L495,105 M495,104L496,105 M505,104L506,105 M506,104L507,105 M634,104L635,105 M635,104L636,105 M174,105L175,106 M175,105L176,106 M292,105L293,106 M293,105L294,106 M294,105L295,106 M295,105L296,106 M296,105L297,106 M297,105L298,106 M331,105L332,106 M332,105L333,106 M476,105L477,106 M477,105L478,106 M478,105L479,106 M491,105L492,106 M492,105L493,106 M493,105L494,106 M505,105L506,106 M506,105L507,106 M634,105L635,106 M635,105L636,106 M175,106L176,107 M176,106L177,107 M177,106L178,107 M292,106L293,107 M293,106L294,107 M294,106L295,107 M295,106L296,107 M331,106L332,107 M332,106L333,107 M478,106L479,107 M479,106L480,107 M489,106L490,107 M490,106L491,107 M491,106L492,107 M492,106L493,107 M504,106L505,107 M505,106L506,107 M635,106L636,107 M176,107L177,108 M177,107L178,108 M178,107L179,108 M290,107L291,108 M291,107L292,108 M292,107L293,108 M293,107L294,108 M331,107L332,108 M479,107L480,108 M480,107L481,108 M481,107L482,108 M487,107L488,108 M488,107L489,108 M489,107L490,108 M490,107L491,108 M503,107L504,108 M504,107L505,108 M635,107L636,108 M636,107L637,108 M178,108L179,109 M179,108L180,109 M180,108L181,109 M287,108L288,109 M288,108L289,109 M289,108L290,109 M290,108L291,109 M291,108L292,109 M331,108L332,109 M480,108L481,109 M481,108L482,109 M482,108L483,109 M486,108L487,109 M487,108L488,109 M488,108L489,109 M502,108L503,109 M503,108L504,109 M635,108L636,109 M636,108L637,109 M179,109L180,110 M180,109L181,110 M181,109L182,110 M284,109L285,110 M285,109L286,110 M286,109L287,110 M287,109L288,110 M288,109L289,110 M289,109L290,110 M290,109L291,110 M291,109L292,110 M331,109L332,110 M482,109L483,110 M483,109L484,110 M484,109L485,110 M485,109L486,110 M486,109L487,110 M487,109L488,110 M502,109L503,110 M503,109L504,110 M635,109L636,110 M636,109L637,110 M181,110L182,111 M182,110L183,111 M183,110L184,111 M282,110L283,111 M283,110L284,111 M284,110L285,111 M285,110L286,111 M286,110L287,111 M289,110L290,111 M290,110L291,111 M331,110L332,111 M482,110L483,111 M483,110L484,111 M484,110L485,111 M485,110L486,111 M501,110L502,111 M502,110L503,111 M635,110L636,111 M636,110L637,111 M182,111L183,112 M183,111L184,112 M184,111L185,112 M279,111L280,112 M280,111L281,112 M281,111L282,112 M282,111L283,112 M283,111L284,112 M288,111L289,112 M289,111L290,112 M331,111L332,112 M481,111L482,112 M482,111L483,112 M483,111L484,112 M484,111L485,112 M485,111L486,112 M486,111L487,112 M500,111L501,112 M501,111L502,112 M635,111L636,112 M636,111L637,112 M184,112L185,113 M185,112L186,113 M186,112L187,113 M187,112L188,113 M276,112L277,113 M277,112L278,113 M278,112L279,113 M279,112L280,113 M280,112L281,113 M288,112L289,113 M289,112L290,113 M331,112L332,113 M479,112L480,113 M480,112L481,113 M481,112L482,113 M482,112L483,113 M486,112L487,113 M487,112L488,113 M499,112L500,113 M500,112L501,113 M636,112L637,113 M186,113L187,114 M187,113L188,114 M188,113L189,114 M189,113L190,114 M273,113L274,114 M274,113L275,114 M275,113L276,114 M276,113L277,114 M277,113L278,114 M287,113L288,114 M288,113L289,114 M331,113L332,114 M477,113L478,114 M478,113L479,114 M479,113L480,114 M480,113L481,114 M487,113L488,114 M488,113L489,114 M489,113L490,114 M498,113L499,114 M499,113L500,114 M500,113L501,114 M636,113L637,114 M188,114L189,115 M189,114L190,115 M190,114L191,115 M191,114L192,115 M270,114L271,115 M271,114L272,115 M272,114L273,115 M273,114L274,115 M274,114L275,115 M275,114L276,115 M286,114L287,115 M287,114L288,115 M331,114L332,115 M332,114L333,115 M475,114L476,115 M476,114L477,115 M477,114L478,115 M478,114L479,115 M488,114L489,115 M489,114L490,115 M490,114L491,115 M498,114L499,115 M499,114L500,115 M636,114L637,115 M191,115L192,116 M192,115L193,116 M193,115L194,116 M194,115L195,116 M267,115L268,116 M268,115L269,116 M269,115L270,116 M270,115L271,116 M271,115L272,116 M272,115L273,116 M286,115L287,116 M287,115L288,116 M331,115L332,116 M332,115L333,116 M473,115L474,116 M474,115L475,116 M475,115L476,116 M476,115L477,116 M490,115L491,116 M491,115L492,116 M492,115L493,116 M497,115L498,116 M498,115L499,116 M636,115L637,116 M193,116L194,117 M194,116L195,117 M195,116L196,117 M196,116L197,117 M264,116L265,117 M265,116L266,117 M266,116L267,117 M267,116L268,117 M268,116L269,117 M269,116L270,117 M286,116L287,117 M331,116L332,117 M332,116L333,117 M471,116L472,117 M472,116L473,117 M473,116L474,117 M474,116L475,117 M491,116L492,117 M492,116L493,117 M493,116L494,117 M496,116L497,117 M497,116L498,117 M636,116L637,117 M195,117L196,118 M196,117L197,118 M197,117L198,118 M198,117L199,118 M199,117L200,118 M200,117L201,118 M260,117L261,118 M261,117L262,118 M262,117L263,118 M263,117L264,118 M264,117L265,118 M265,117L266,118 M266,117L267,118 M285,117L286,118 M286,117L287,118 M331,117L332,118 M332,117L333,118 M468,117L469,118 M469,117L470,118 M470,117L471,118 M471,117L472,118 M472,117L473,118 M493,117L494,118 M494,117L495,118 M495,117L496,118 M496,117L497,118 M636,117L637,118 M198,118L199,119 M199,118L200,119 M200,118L201,119 M201,118L202,119 M202,118L203,119 M203,118L204,119 M204,118L205,119 M205,118L206,119 M206,118L207,119 M257,118L258,119 M258,118L259,119 M259,118L260,119 M260,118L261,119 M261,118L262,119 M262,118L263,119 M263,118L264,119 M285,118L286,119 M332,118L333,119 M333,118L334,119 M466,118L467,119 M467,118L468,119 M468,118L469,119 M469,118L470,119 M494,118L495,119 M495,118L496,119 M496,118L497,119 M636,118L637,119 M203,119L204,120 M204,119L205,120 M205,119L206,120 M206,119L207,120 M207,119L208,120 M208,119L209,120 M209,119L210,120 M210,119L211,120 M251,119L252,120 M252,119L253,120 M253,119L254,120 M254,119L255,120 M255,119L256,120 M256,119L257,120 M257,119L258,120 M258,119L259,120 M259,119L260,120 M284,119L285,120 M285,119L286,120 M333,119L334,120 M334,119L335,120 M463,119L464,120 M464,119L465,120 M465,119L466,120 M466,119L467,120 M467,119L468,120 M494,119L495,120 M495,119L496,120 M496,119L497,120 M497,119L498,120 M635,119L636,120 M636,119L637,120 M208,120L209,121 M209,120L210,121 M210,120L211,121 M211,120L212,121 M212,120L213,121 M213,120L214,121 M214,120L215,121 M215,120L216,121 M216,120L217,121 M217,120L218,121 M218,120L219,121 M219,120L220,121 M220,120L221,121 M221,120L222,121 M222,120L223,121 M223,120L224,121 M224,120L225,121 M225,120L226,121 M226,120L227,121 M227,120L228,121 M228,120L229,121 M229,120L230,121 M230,120L231,121 M231,120L232,121 M232,120L233,121 M233,120L234,121 M234,120L235,121 M235,120L236,121 M236,120L237,121 M237,120L238,121 M238,120L239,121 M239,120L240,121 M240,120L241,121 M241,120L242,121 M242,120L243,121 M243,120L244,121 M244,120L245,121 M245,120L246,121 M246,120L247,121 M247,120L248,121 M248,120L249,121 M249,120L250,121 M250,120L251,121 M251,120L252,121 M252,120L253,121 M253,120L254,121 M254,120L255,121 M255,120L256,121 M284,120L285,121 M285,120L286,121 M334,120L335,121 M335,120L336,121 M461,120L462,121 M462,120L463,121 M463,120L464,121 M464,120L465,121 M465,120L466,121 M493,120L494,121 M494,120L495,121 M497,120L498,121 M498,120L499,121 M499,120L500,121 M635,120L636,121 M636,120L637,121 M213,121L214,122 M214,121L215,122 M215,121L216,122 M216,121L217,122 M217,121L218,122 M218,121L219,122 M219,121L220,122 M220,121L221,122 M221,121L222,122 M222,121L223,122 M223,121L224,122 M224,121L225,122 M225,121L226,122 M226,121L227,122 M227,121L228,122 M228,121L229,122 M229,121L230,122 M230,121L231,122 M231,121L232,122 M232,121L233,122 M233,121L234,122 M234,121L235,122 M235,121L236,122 M236,121L237,122 M237,121L238,122 M238,121L239,122 M239,121L240,122 M240,121L241,122 M241,121L242,122 M242,121L243,122 M243,121L244,122 M244,121L245,122 M245,121L246,122 M246,121L247,122 M247,121L248,122 M248,121L249,122 M283,121L284,122 M284,121L285,122 M335,121L336,122 M336,121L337,122 M337,121L338,122 M458,121L459,122 M459,121L460,122 M460,121L461,122 M461,121L462,122 M462,121L463,122 M492,121L493,122 M493,121L494,122 M498,121L499,122 M499,121L500,122 M500,121L501,122 M635,121L636,122 M283,122L284,123 M284,122L285,123 M337,122L338,123 M338,122L339,123 M339,122L340,123 M340,122L341,123 M454,122L455,123 M455,122L456,123 M456,122L457,123 M457,122L458,123 M458,122L459,123 M459,122L460,123 M460,122L461,123 M491,122L492,123 M492,122L493,123 M500,122L501,123 M501,122L502,123 M502,122L503,123 M634,122L635,123 M635,122L636,123 M282,123L283,124 M283,123L284,124 M339,123L340,124 M340,123L341,124 M341,123L342,124 M342,123L343,124 M451,123L452,124 M452,123L453,124 M453,123L454,124 M454,123L455,124 M455,123L456,124 M456,123L457,124 M457,123L458,124 M490,123L491,124 M491,123L492,124 M501,123L502,124 M502,123L503,124 M503,123L504,124 M634,123L635,124 M635,123L636,124 M282,124L283,125 M283,124L284,125 M341,124L342,125 M342,124L343,125 M343,124L344,125 M344,124L345,125 M447,124L448,125 M448,124L449,125 M449,124L450,125 M450,124L451,125 M451,124L452,125 M452,124L453,125 M453,124L454,125 M490,124L491,125 M491,124L492,125 M503,124L504,125 M504,124L505,125 M505,124L506,125 M633,124L634,125 M634,124L635,125 M282,125L283,126 M343,125L344,126 M344,125L345,126 M345,125L346,126 M346,125L347,126 M444,125L445,126 M445,125L446,126 M446,125L447,126 M447,125L448,126 M448,125L449,126 M449,125L450,126 M489,125L490,126 M490,125L491,126 M505,125L506,126 M506,125L507,126 M507,125L508,126 M508,125L509,126 M633,125L634,126 M634,125L635,126 M281,126L282,127 M282,126L283,127 M345,126L346,127 M346,126L347,127 M347,126L348,127 M348,126L349,127 M349,126L350,127 M440,126L441,127 M441,126L442,127 M442,126L443,127 M443,126L444,127 M444,126L445,127 M445,126L446,127 M446,126L447,127 M488,126L489,127 M489,126L490,127 M507,126L508,127 M508,126L509,127 M509,126L510,127 M510,126L511,127 M632,126L633,127 M633,126L634,127 M281,127L282,128 M348,127L349,128 M349,127L350,128 M350,127L351,128 M351,127L352,128 M352,127L353,128 M435,127L436,128 M436,127L437,128 M437,127L438,128 M438,127L439,128 M439,127L440,128 M440,127L441,128 M441,127L442,128 M442,127L443,128 M487,127L488,128 M488,127L489,128 M509,127L510,128 M510,127L511,128 M511,127L512,128 M512,127L513,128 M630,127L631,128 M631,127L632,128 M632,127L633,128 M280,128L281,129 M281,128L282,129 M351,128L352,129 M352,128L353,129 M353,128L354,129 M354,128L355,129 M355,128L356,129 M356,128L357,129 M431,128L432,129 M432,128L433,129 M433,128L434,129 M434,128L435,129 M435,128L436,129 M436,128L437,129 M437,128L438,129 M438,128L439,129 M486,128L487,129 M487,128L488,129 M511,128L512,129 M512,128L513,129 M513,128L514,129 M514,128L515,129 M629,128L630,129 M630,128L631,129 M631,128L632,129 M280,129L281,130 M281,129L282,130 M354,129L355,130 M355,129L356,130 M356,129L357,130 M357,129L358,130 M358,129L359,130 M359,129L360,130 M360,129L361,130 M361,129L362,130 M362,129L363,130 M363,129L364,130 M426,129L427,130 M427,129L428,130 M428,129L429,130 M429,129L430,130 M430,129L431,130 M431,129L432,130 M432,129L433,130 M433,129L434,130 M434,129L435,130 M485,129L486,130 M486,129L487,130 M487,129L488,130 M513,129L514,130 M514,129L515,130 M515,129L516,130 M516,129L517,130 M628,129L629,130 M629,129L630,130 M630,129L631,130 M279,130L280,131 M280,130L281,131 M358,130L359,131 M359,130L360,131 M360,130L361,131 M361,130L362,131 M362,130L363,131 M363,130L364,131 M364,130L365,131 M365,130L366,131 M366,130L367,131 M367,130L368,131 M368,130L369,131 M369,130L370,131 M370,130L371,131 M371,130L372,131 M372,130L373,131 M373,130L374,131 M374,130L375,131 M375,130L376,131 M376,130L377,131 M377,130L378,131 M378,130L379,131 M379,130L380,131 M380,130L381,131 M381,130L382,131 M382,130L383,131 M417,130L418,131 M418,130L419,131 M419,130L420,131 M420,130L421,131 M421,130L422,131 M422,130L423,131 M423,130L424,131 M424,130L425,131 M425,130L426,131 M426,130L427,131 M427,130L428,131 M428,130L429,131 M429,130L430,131 M485,130L486,131 M486,130L487,131 M516,130L517,131 M517,130L518,131 M518,130L519,131 M519,130L520,131 M627,130L628,131 M628,130L629,131 M279,131L280,132 M280,131L281,132 M367,131L368,132 M368,131L369,132 M369,131L370,132 M370,131L371,132 M371,131L372,132 M372,131L373,132 M373,131L374,132 M374,131L375,132 M375,131L376,132 M376,131L377,132 M377,131L378,132 M378,131L379,132 M379,131L380,132 M380,131L381,132 M381,131L382,132 M382,131L383,132 M383,131L384,132 M384,131L385,132 M385,131L386,132 M386,131L387,132 M387,131L388,132 M388,131L389,132 M389,131L390,132 M390,131L391,132 M391,131L392,132 M392,131L393,132 M393,131L394,132 M394,131L395,132 M395,131L396,132 M396,131L397,132 M397,131L398,132 M398,131L399,132 M399,131L400,132 M400,131L401,132 M401,131L402,132 M402,131L403,132 M403,131L404,132 M404,131L405,132 M405,131L406,132 M406,131L407,132 M407,131L408,132 M408,131L409,132 M409,131L410,132 M410,131L411,132 M411,131L412,132 M412,131L413,132 M413,131L414,132 M414,131L415,132 M415,131L416,132 M416,131L417,132 M417,131L418,132 M418,131L419,132 M419,131L420,132 M420,131L421,132 M421,131L422,132 M422,131L423,132 M423,131L424,132 M424,131L425,132 M425,131L426,132 M484,131L485,132 M485,131L486,132 M518,131L519,132 M519,131L520,132 M520,131L521,132 M521,131L522,132 M522,131L523,132 M625,131L626,132 M626,131L627,132 M627,131L628,132 M279,132L280,133 M392,132L393,133 M393,132L394,133 M394,132L395,133 M395,132L396,133 M396,132L397,133 M397,132L398,133 M398,132L399,133 M399,132L400,133 M400,132L401,133 M401,132L402,133 M402,132L403,133 M403,132L404,133 M404,132L405,133 M405,132L406,133 M406,132L407,133 M407,132L408,133 M408,132L409,133 M409,132L410,133 M410,132L411,133 M411,132L412,133 M483,132L484,133 M484,132L485,133 M521,132L522,133 M522,132L523,133 M523,132L524,133 M524,132L525,133 M525,132L526,133 M624,132L625,133 M625,132L626,133 M626,132L627,133 M278,133L279,134 M279,133L280,134 M482,133L483,134 M483,133L484,134 M524,133L525,134 M525,133L526,134 M526,133L527,134 M527,133L528,134 M528,133L529,134 M622,133L623,134 M623,133L624,134 M624,133L625,134 M625,133L626,134 M278,134L279,135 M279,134L280,135 M481,134L482,135 M482,134L483,135 M483,134L484,135 M527,134L528,135 M528,134L529,135 M529,134L530,135 M530,134L531,135 M531,134L532,135 M619,134L620,135 M620,134L621,135 M621,134L622,135 M622,134L623,135 M623,134L624,135 M278,135L279,136 M481,135L482,136 M482,135L483,136 M529,135L530,136 M530,135L531,136 M531,135L532,136 M532,135L533,136 M533,135L534,136 M534,135L535,136 M535,135L536,136 M615,135L616,136 M616,135L617,136 M617,135L618,136 M618,135L619,136 M619,135L620,136 M620,135L621,136 M621,135L622,136 M277,136L278,137 M278,136L279,137 M480,136L481,137 M481,136L482,137 M533,136L534,137 M534,136L535,137 M535,136L536,137 M536,136L537,137 M537,136L538,137 M538,136L539,137 M539,136L540,137 M611,136L612,137 M612,136L613,137 M613,136L614,137 M614,136L615,137 M615,136L616,137 M616,136L617,137 M617,136L618,137 M277,137L278,138 M278,137L279,138 M479,137L480,138 M480,137L481,138 M537,137L538,138 M538,137L539,138 M539,137L540,138 M540,137L541,138 M541,137L542,138 M542,137L543,138 M543,137L544,138 M607,137L608,138 M608,137L609,138 M609,137L610,138 M610,137L611,138 M611,137L612,138 M612,137L613,138 M613,137L614,138 M276,138L277,139 M277,138L278,139 M478,138L479,139 M479,138L480,139 M541,138L542,139 M542,138L543,139 M543,138L544,139 M544,138L545,139 M545,138L546,139 M546,138L547,139 M547,138L548,139 M548,138L549,139 M603,138L604,139 M604,138L605,139 M605,138L606,139 M606,138L607,139 M607,138L608,139 M608,138L609,139 M609,138L610,139 M276,139L277,140 M277,139L278,140 M477,139L478,140 M478,139L479,140 M479,139L480,140 M546,139L547,140 M547,139L548,140 M548,139L549,140 M549,139L550,140 M550,139L551,140 M551,139L552,140 M552,139L553,140 M599,139L600,140 M600,139L601,140 M601,139L602,140 M602,139L603,140 M603,139L604,140 M604,139L605,140 M605,139L606,140 M276,140L277,141 M477,140L478,141 M478,140L479,141 M550,140L551,141 M551,140L552,141 M552,140L553,141 M553,140L554,141 M554,140L555,141 M555,140L556,141 M556,140L557,141 M557,140L558,141 M558,140L559,141 M594,140L595,141 M595,140L596,141 M596,140L597,141 M597,140L598,141 M598,140L599,141 M599,140L600,141 M600,140L601,141 M601,140L602,141 M275,141L276,142 M276,141L277,142 M476,141L477,142 M477,141L478,142 M554,141L555,142 M555,141L556,142 M556,141L557,142 M557,141L558,142 M558,141L559,142 M559,141L560,142 M560,141L561,142 M561,141L562,142 M562,141L563,142 M563,141L564,142 M564,141L565,142 M565,141L566,142 M566,141L567,142 M567,141L568,142 M568,141L569,142 M569,141L570,142 M570,141L571,142 M571,141L572,142 M572,141L573,142 M573,141L574,142 M574,141L575,142 M575,141L576,142 M576,141L577,142 M577,141L578,142 M578,141L579,142 M579,141L580,142 M580,141L581,142 M581,141L582,142 M582,141L583,142 M583,141L584,142 M584,141L585,142 M585,141L586,142 M586,141L587,142 M587,141L588,142 M588,141L589,142 M589,141L590,142 M590,141L591,142 M591,141L592,142 M592,141L593,142 M593,141L594,142 M594,141L595,142 M595,141L596,142 M596,141L597,142 M597,141L598,142 M275,142L276,143 M276,142L277,143 M475,142L476,143 M476,142L477,143 M562,142L563,143 M563,142L564,143 M564,142L565,143 M565,142L566,143 M566,142L567,143 M567,142L568,143 M568,142L569,143 M569,142L570,143 M570,142L571,143 M571,142L572,143 M572,142L573,143 M573,142L574,143 M574,142L575,143 M575,142L576,143 M576,142L577,143 M577,142L578,143 M578,142L579,143 M579,142L580,143 M580,142L581,143 M581,142L582,143 M582,142L583,143 M583,142L584,143 M584,142L585,143 M585,142L586,143 M586,142L587,143 M587,142L588,143 M588,142L589,143 M589,142L590,143 M590,142L591,143 M591,142L592,143 M592,142L593,143 M275,143L276,144 M475,143L476,144 M476,143L477,144 M274,144L275,145 M275,144L276,145 M474,144L475,145 M475,144L476,145 M274,145L275,146 M275,145L276,146 M473,145L474,146 M474,145L475,146 M274,146L275,147 M473,146L474,147 M474,146L475,147 M273,147L274,148 M274,147L275,148 M472,147L473,148 M473,147L474,148 M273,148L274,149 M274,148L275,149 M471,148L472,149 M472,148L473,149 M273,149L274,150 M471,149L472,150 M472,149L473,150 M272,150L273,151 M273,150L274,151 M470,150L471,151 M471,150L472,151 M272,151L273,152 M273,151L274,152 M470,151L471,152 M272,152L273,153 M469,152L470,153 M470,152L471,153 M271,153L272,154 M272,153L273,154 M468,153L469,154 M469,153L470,154 M271,154L272,155 M272,154L273,155 M467,154L468,155 M468,154L469,155 M271,155L272,156 M272,155L273,156 M467,155L468,156 M468,155L469,156 M271,156L272,157 M466,156L467,157 M467,156L468,157 M270,157L271,158 M271,157L272,158 M465,157L466,158 M466,157L467,158 M270,158L271,159 M271,158L272,159 M464,158L465,159 M465,158L466,159 M270,159L271,160 M464,159L465,160 M465,159L466,160 M269,160L270,161 M270,160L271,161 M463,160L464,161 M464,160L465,161 M269,161L270,162 M270,161L271,162 M462,161L463,162 M463,161L464,162 M269,162L270,163 M270,162L271,163 M462,162L463,163 M463,162L464,163 M269,163L270,164 M461,163L462,164 M462,163L463,164 M268,164L269,165 M269,164L270,165 M460,164L461,165 M461,164L462,165 M268,165L269,166 M269,165L270,166 M460,165L461,166 M461,165L462,166 M268,166L269,167 M459,166L460,167 M460,166L461,167 M267,167L268,168 M268,167L269,168 M459,167L460,168 M267,168L268,169 M268,168L269,169 M458,168L459,169 M459,168L460,169 M267,169L268,170 M268,169L269,170 M408,169L409,170 M409,169L410,170 M410,169L411,170 M411,169L412,170 M412,169L413,170 M413,169L414,170 M414,169L415,170 M415,169L416,170 M416,169L417,170 M417,169L418,170 M418,169L419,170 M419,169L420,170 M420,169L421,170 M421,169L422,170 M422,169L423,170 M423,169L424,170 M424,169L425,170 M425,169L426,170 M457,169L458,170 M458,169L459,170 M267,170L268,171 M405,170L406,171 M406,170L407,171 M407,170L408,171 M408,170L409,171 M409,170L410,171 M410,170L411,171 M411,170L412,171 M412,170L413,171 M413,170L414,171 M414,170L415,171 M415,170L416,171 M416,170L417,171 M417,170L418,171 M418,170L419,171 M419,170L420,171 M420,170L421,171 M421,170L422,171 M422,170L423,171 M423,170L424,171 M424,170L425,171 M425,170L426,171 M426,170L427,171 M427,170L428,171 M428,170L429,171 M429,170L430,171 M457,170L458,171 M458,170L459,171 M266,171L267,172 M267,171L268,172 M401,171L402,172 M402,171L403,172 M403,171L404,172 M404,171L405,172 M405,171L406,172 M406,171L407,172 M407,171L408,172 M428,171L429,172 M429,171L430,172 M430,171L431,172 M456,171L457,172 M457,171L458,172 M266,172L267,173 M267,172L268,173 M398,172L399,173 M399,172L400,173 M400,172L401,173 M401,172L402,173 M402,172L403,173 M403,172L404,173 M430,172L431,173 M431,172L432,173 M456,172L457,173 M266,173L267,174 M267,173L268,174 M395,173L396,174 M396,173L397,174 M397,173L398,174 M398,173L399,174 M399,173L400,174 M400,173L401,174 M430,173L431,174 M431,173L432,174 M432,173L433,174 M455,173L456,174 M456,173L457,174 M266,174L267,175 M391,174L392,175 M392,174L393,175 M393,174L394,175 M394,174L395,175 M395,174L396,175 M396,174L397,175 M397,174L398,175 M431,174L432,175 M432,174L433,175 M454,174L455,175 M455,174L456,175 M265,175L266,176 M266,175L267,176 M388,175L389,176 M389,175L390,176 M390,175L391,176 M391,175L392,176 M392,175L393,176 M393,175L394,176 M432,175L433,176 M433,175L434,176 M454,175L455,176 M455,175L456,176 M265,176L266,177 M266,176L267,177 M386,176L387,177 M387,176L388,177 M388,176L389,177 M389,176L390,177 M390,176L391,177 M433,176L434,177 M434,176L435,177 M453,176L454,177 M454,176L455,177 M265,177L266,178 M266,177L267,178 M383,177L384,178 M384,177L385,178 M385,177L386,178 M386,177L387,178 M387,177L388,178 M433,177L434,178 M434,177L435,178 M452,177L453,178 M453,177L454,178 M265,178L266,179 M381,178L382,179 M382,178L383,179 M383,178L384,179 M384,178L385,179 M385,178L386,179 M433,178L434,179 M434,178L435,179 M452,178L453,179 M453,178L454,179 M264,179L265,180 M265,179L266,180 M378,179L379,180 M379,179L380,180 M380,179L381,180 M381,179L382,180 M382,179L383,180 M433,179L434,180 M434,179L435,180 M451,179L452,180 M452,179L453,180 M264,180L265,181 M265,180L266,181 M375,180L376,181 M376,180L377,181 M377,180L378,181 M378,180L379,181 M379,180L380,181 M434,180L435,181 M435,180L436,181 M450,180L451,181 M451,180L452,181 M264,181L265,182 M265,181L266,182 M372,181L373,182 M373,181L374,182 M374,181L375,182 M375,181L376,182 M376,181L377,182 M377,181L378,182 M434,181L435,182 M435,181L436,182 M450,181L451,182 M451,181L452,182 M264,182L265,183 M368,182L369,183 M369,182L370,183 M370,182L371,183 M371,182L372,183 M372,182L373,183 M373,182L374,183 M374,182L375,183 M434,182L435,183 M435,182L436,183 M449,182L450,183 M450,182L451,183 M263,183L264,184 M264,183L265,184 M365,183L366,184 M366,183L367,184 M367,183L368,184 M368,183L369,184 M369,183L370,184 M370,183L371,184 M434,183L435,184 M435,183L436,184 M448,183L449,184 M449,183L450,184 M263,184L264,185 M264,184L265,185 M361,184L362,185 M362,184L363,185 M363,184L364,185 M364,184L365,185 M365,184L366,185 M366,184L367,185 M367,184L368,185 M435,184L436,185 M448,184L449,185 M449,184L450,185 M263,185L264,186 M359,185L360,186 M360,185L361,186 M361,185L362,186 M362,185L363,186 M363,185L364,186 M435,185L436,186 M447,185L448,186 M448,185L449,186 M263,186L264,187 M357,186L358,187 M358,186L359,187 M359,186L360,187 M360,186L361,187 M435,186L436,187 M446,186L447,187 M447,186L448,187 M262,187L263,188 M263,187L264,188 M354,187L355,188 M355,187L356,188 M356,187L357,188 M357,187L358,188 M358,187L359,188 M435,187L436,188 M445,187L446,188 M446,187L447,188 M262,188L263,189 M263,188L264,189 M352,188L353,189 M353,188L354,189 M354,188L355,189 M355,188L356,189 M356,188L357,189 M435,188L436,189 M444,188L445,189 M445,188L446,189 M446,188L447,189 M262,189L263,190 M263,189L264,190 M350,189L351,190 M351,189L352,190 M352,189L353,190 M353,189L354,190 M435,189L436,190 M444,189L445,190 M445,189L446,190 M262,190L263,191 M263,190L264,191 M347,190L348,191 M348,190L349,191 M349,190L350,191 M350,190L351,191 M351,190L352,191 M435,190L436,191 M443,190L444,191 M444,190L445,191 M262,191L263,192 M263,191L264,192 M343,191L344,192 M344,191L345,192 M345,191L346,192 M346,191L347,192 M347,191L348,192 M348,191L349,192 M349,191L350,192 M435,191L436,192 M442,191L443,192 M443,191L444,192 M262,192L263,193 M340,192L341,193 M341,192L342,193 M342,192L343,193 M343,192L344,193 M344,192L345,193 M345,192L346,193 M435,192L436,193 M441,192L442,193 M442,192L443,193 M262,193L263,194 M263,193L264,194 M336,193L337,194 M337,193L338,194 M338,193L339,194 M339,193L340,194 M340,193L341,194 M341,193L342,194 M342,193L343,194 M435,193L436,194 M440,193L441,194 M441,193L442,194 M262,194L263,195 M263,194L264,195 M332,194L333,195 M333,194L334,195 M334,194L335,195 M335,194L336,195 M336,194L337,195 M337,194L338,195 M338,194L339,195 M435,194L436,195 M439,194L440,195 M440,194L441,195 M262,195L263,196 M263,195L264,196 M328,195L329,196 M329,195L330,196 M330,195L331,196 M331,195L332,196 M332,195L333,196 M333,195L334,196 M334,195L335,196 M435,195L436,196 M437,195L438,196 M438,195L439,196 M439,195L440,196 M263,196L264,197 M264,196L265,197 M325,196L326,197 M326,196L327,197 M327,196L328,197 M328,196L329,197 M329,196L330,197 M330,196L331,197 M435,196L436,197 M436,196L437,197 M437,196L438,197 M438,196L439,197 M263,197L264,198 M264,197L265,198 M321,197L322,198 M322,197L323,198 M323,197L324,198 M324,197L325,198 M325,197L326,198 M326,197L327,198 M327,197L328,198 M436,197L437,198 M263,198L264,199 M264,198L265,199 M317,198L318,199 M318,198L319,199 M319,198L320,199 M320,198L321,199 M321,198L322,199 M322,198L323,199 M323,198L324,199 M264,199L265,200 M265,199L266,200 M266,199L267,200 M312,199L313,200 M313,199L314,200 M314,199L315,200 M315,199L316,200 M316,199L317,200 M317,199L318,200 M318,199L319,200 M319,199L320,200 M266,200L267,201 M267,200L268,201 M268,200L269,201 M269,200L270,201 M270,200L271,201 M308,200L309,201 M309,200L310,201 M310,200L311,201 M311,200L312,201 M312,200L313,201 M313,200L314,201 M314,200L315,201 M315,200L316,201 M268,201L269,202 M269,201L270,202 M270,201L271,202 M271,201L272,202 M272,201L273,202 M273,201L274,202 M274,201L275,202 M275,201L276,202 M276,201L277,202 M277,201L278,202 M301,201L302,202 M302,201L303,202 M303,201L304,202 M304,201L305,202 M305,201L306,202 M306,201L307,202 M307,201L308,202 M308,201L309,202 M309,201L310,202 M310,201L311,202 M311,201L312,202 M273,202L274,203 M274,202L275,203 M275,202L276,203 M276,202L277,203 M277,202L278,203 M278,202L279,203 M279,202L280,203 M280,202L281,203 M281,202L282,203 M282,202L283,203 M283,202L284,203 M284,202L285,203 M285,202L286,203 M286,202L287,203 M287,202L288,203 M288,202L289,203 M289,202L290,203 M290,202L291,203 M291,202L292,203 M292,202L293,203 M293,202L294,203 M294,202L295,203 M295,202L296,203 M296,202L297,203 M297,202L298,203 M298,202L299,203 M299,202L300,203 M300,202L301,203 M301,202L302,203 M302,202L303,203 M303,202L304,203 M304,202L305,203 M305,202L306,203 M306,202L307,203 M280,203L281,204 M281,203L282,204 M282,203L283,204 M283,203L284,204 M284,203L285,204 M285,203L286,204 M286,203L287,204 M287,203L288,204 M288,203L289,204 M289,203L290,204 M290,203L291,204 M291,203L292,204 M292,203L293,204 M293,203L294,204 M294,203L295,204 M295,203L296,204 M296,203L297,204 M297,203L298,204" fill="none" stroke="black" />
    </svg>