<svg xmlns="http://www.w3.org/2000/svg" width="800" height="250">
        <path d="M397,38L398,39 M398,38L399,39 M397,39L398,40 M398,39L399,40 M397,40L398,41 M398,40L399,41 M397,41L398,42 M398,41L399,42 M397,42L398,43 M398,42L399,43 M397,43L398,44 M398,43L399,44 M397,44L398,45 M398,44L399,45 M397,45L398,46 M398,45L399,46 M397,46L398,47 M398,46L399,47 M397,47L398,48 M398,47L399,48 M397,48L398,49 M398,48L399,49 M397,49L398,50 M398,49L399,50 M397,50L398,51 M398,50L399,51 M397,51L398,52 M398,51L399,52 M397,52L398,53 M398,52L399,53 M397,53L398,54 M398,53L399,54 M397,54L398,55 M398,54L399,55 M397,55L398,56 M398,55L399,56 M397,56L398,57 M398,56L399,57 M397,57L398,58 M398,57L399,58 M397,58L398,59 M398,58L399,59 M78,59L79,60 M79,59L80,60 M80,59L81,60 M81,59L82,60 M82,59L83,60 M83,59L84,60 M84,59L85,60 M85,59L86,60 M86,59L87,60 M87,59L88,60 M88,59L89,60 M89,59L90,60 M397,59L398,60 M398,59L399,60 M72,60L73,61 M73,60L74,61 M74,60L75,61 M75,60L76,61 M76,60L77,61 M77,60L78,61 M78,60L79,61 M79,60L80,61 M80,60L81,61 M81,60L82,61 M82,60L83,61 M83,60L84,61 M84,60L85,61 M85,60L86,61 M86,60L87,61 M87,60L88,61 M88,60L89,61 M89,60L90,61 M90,60L91,61 M91,60L92,61 M125,60L126,61 M126,60L127,61 M127,60L128,61 M128,60L129,61 M129,60L130,61 M130,60L131,61 M131,60L132,61 M132,60L133,61 M133,60L134,61 M134,60L135,61 M135,60L136,61 M136,60L137,61 M397,60L398,61 M398,60L399,61 M70,61L71,62 M71,61L72,62 M72,61L73,62 M73,61L74,62 M74,61L75,62 M75,61L76,62 M76,61L77,62 M77,61L78,62 M89,61L90,62 M90,61L91,62 M91,61L92,62 M114,61L115,62 M115,61L116,62 M116,61L117,62 M117,61L118,62 M118,61L119,62 M119,61L120,62 M120,61L121,62 M121,61L122,62 M122,61L123,62 M123,61L124,62 M124,61L125,62 M125,61L126,62 M126,61L127,62 M127,61L128,62 M128,61L129,62 M129,61L130,62 M130,61L131,62 M131,61L132,62 M132,61L133,62 M133,61L134,62 M134,61L135,62 M135,61L136,62 M136,61L137,62 M397,61L398,62 M398,61L399,62 M50,62L51,63 M51,62L52,63 M68,62L69,63 M69,62L70,63 M70,62L71,63 M71,62L72,63 M90,62L91,63 M91,62L92,63 M112,62L113,63 M113,62L114,63 M114,62L115,63 M115,62L116,63 M116,62L117,63 M117,62L118,63 M118,62L119,63 M119,62L120,63 M120,62L121,63 M121,62L122,63 M122,62L123,63 M123,62L124,63 M124,62L125,63 M136,62L137,63 M137,62L138,63 M397,62L398,63 M398,62L399,63 M50,63L51,64 M51,63L52,64 M67,63L68,64 M68,63L69,64 M69,63L70,64 M90,63L91,64 M91,63L92,64 M111,63L112,64 M112,63L113,64 M113,63L114,64 M136,63L137,64 M137,63L138,64 M397,63L398,64 M398,63L399,64 M50,64L51,65 M51,64L52,65 M65,64L66,65 M66,64L67,65 M67,64L68,65 M91,64L92,65 M92,64L93,65 M110,64L111,65 M111,64L112,65 M136,64L137,65 M137,64L138,65 M397,64L398,65 M398,64L399,65 M50,65L51,66 M51,65L52,66 M63,65L64,66 M64,65L65,66 M65,65L66,66 M66,65L67,66 M91,65L92,66 M92,65L93,66 M109,65L110,66 M110,65L111,66 M137,65L138,66 M138,65L139,66 M397,65L398,66 M398,65L399,66 M50,66L51,67 M51,66L52,67 M62,66L63,67 M63,66L64,67 M64,66L65,67 M91,66L92,67 M92,66L93,67 M107,66L108,67 M108,66L109,67 M109,66L110,67 M137,66L138,67 M138,66L139,67 M397,66L398,67 M398,66L399,67 M50,67L51,68 M51,67L52,68 M61,67L62,68 M62,67L63,68 M91,67L92,68 M92,67L93,68 M106,67L107,68 M107,67L108,68 M108,67L109,68 M137,67L138,68 M138,67L139,68 M139,67L140,68 M397,67L398,68 M398,67L399,68 M50,68L51,69 M51,68L52,69 M60,68L61,69 M61,68L62,69 M91,68L92,69 M92,68L93,69 M104,68L105,69 M105,68L106,69 M106,68L107,69 M138,68L139,69 M139,68L140,69 M397,68L398,69 M398,68L399,69 M49,69L50,70 M50,69L51,70 M51,69L52,70 M59,69L60,70 M60,69L61,70 M61,69L62,70 M91,69L92,70 M92,69L93,70 M104,69L105,70 M105,69L106,70 M138,69L139,70 M139,69L140,70 M397,69L398,70 M398,69L399,70 M49,70L50,71 M50,70L51,71 M58,70L59,71 M59,70L60,71 M60,70L61,71 M91,70L92,71 M92,70L93,71 M103,70L104,71 M104,70L105,71 M105,70L106,71 M138,70L139,71 M139,70L140,71 M397,70L398,71 M398,70L399,71 M49,71L50,72 M50,71L51,72 M57,71L58,72 M58,71L59,72 M59,71L60,72 M91,71L92,72 M92,71L93,72 M102,71L103,72 M103,71L104,72 M104,71L105,72 M138,71L139,72 M139,71L140,72 M397,71L398,72 M398,71L399,72 M49,72L50,73 M50,72L51,73 M57,72L58,73 M58,72L59,73 M91,72L92,73 M92,72L93,73 M102,72L103,73 M103,72L104,73 M138,72L139,73 M139,72L140,73 M397,72L398,73 M398,72L399,73 M49,73L50,74 M50,73L51,74 M56,73L57,74 M57,73L58,74 M58,73L59,74 M92,73L93,74 M93,73L94,74 M101,73L102,74 M102,73L103,74 M103,73L104,74 M138,73L139,74 M139,73L140,74 M397,73L398,74 M398,73L399,74 M49,74L50,75 M50,74L51,75 M56,74L57,75 M57,74L58,75 M92,74L93,75 M93,74L94,75 M100,74L101,75 M101,74L102,75 M102,74L103,75 M138,74L139,75 M139,74L140,75 M397,74L398,75 M398,74L399,75 M49,75L50,76 M50,75L51,76 M55,75L56,76 M56,75L57,76 M57,75L58,76 M92,75L93,76 M93,75L94,76 M100,75L101,76 M101,75L102,76 M138,75L139,76 M139,75L140,76 M397,75L398,76 M398,75L399,76 M49,76L50,77 M50,76L51,77 M55,76L56,77 M56,76L57,77 M92,76L93,77 M93,76L94,77 M99,76L100,77 M100,76L101,77 M139,76L140,77 M140,76L141,77 M397,76L398,77 M398,76L399,77 M49,77L50,78 M50,77L51,78 M54,77L55,78 M55,77L56,78 M92,77L93,78 M93,77L94,78 M98,77L99,78 M99,77L100,78 M139,77L140,78 M140,77L141,78 M397,77L398,78 M398,77L399,78 M49,78L50,79 M50,78L51,79 M54,78L55,79 M55,78L56,79 M92,78L93,79 M93,78L94,79 M98,78L99,79 M99,78L100,79 M139,78L140,79 M140,78L141,79 M397,78L398,79 M398,78L399,79 M49,79L50,80 M50,79L51,80 M92,79L93,80 M93,79L94,80 M139,79L140,80 M140,79L141,80 M397,79L398,80 M398,79L399,80 M49,80L50,81 M50,80L51,81 M92,80L93,81 M93,80L94,81 M140,80L141,81 M141,80L142,81 M397,80L398,81 M398,80L399,81 M49,81L50,82 M50,81L51,82 M92,81L93,82 M93,81L94,82 M140,81L141,82 M141,81L142,82 M397,81L398,82 M398,81L399,82 M48,82L49,83 M49,82L50,83 M92,82L93,83 M93,82L94,83 M140,82L141,83 M141,82L142,83 M397,82L398,83 M398,82L399,83 M48,83L49,84 M49,83L50,84 M92,83L93,84 M93,83L94,84 M140,83L141,84 M141,83L142,84 M397,83L398,84 M398,83L399,84 M48,84L49,85 M49,84L50,85 M92,84L93,85 M93,84L94,85 M140,84L141,85 M141,84L142,85 M397,84L398,85 M398,84L399,85 M48,85L49,86 M49,85L50,86 M92,85L93,86 M93,85L94,86 M140,85L141,86 M141,85L142,86 M397,85L398,86 M398,85L399,86 M48,86L49,87 M49,86L50,87 M92,86L93,87 M93,86L94,87 M140,86L141,87 M141,86L142,87 M397,86L398,87 M398,86L399,87 M48,87L49,88 M49,87L50,88 M92,87L93,88 M93,87L94,88 M140,87L141,88 M141,87L142,88 M397,87L398,88 M398,87L399,88 M47,88L48,89 M48,88L49,89 M49,88L50,89 M92,88L93,89 M93,88L94,89 M140,88L141,89 M141,88L142,89 M397,88L398,89 M398,88L399,89 M47,89L48,90 M48,89L49,90 M92,89L93,90 M93,89L94,90 M140,89L141,90 M141,89L142,90 M397,89L398,90 M398,89L399,90 M47,90L48,91 M48,90L49,91 M92,90L93,91 M93,90L94,91 M140,90L141,91 M141,90L142,91 M397,90L398,91 M398,90L399,91 M47,91L48,92 M48,91L49,92 M92,91L93,92 M93,91L94,92 M140,91L141,92 M141,91L142,92 M397,91L398,92 M398,91L399,92 M47,92L48,93 M48,92L49,93 M92,92L93,93 M93,92L94,93 M140,92L141,93 M141,92L142,93 M397,92L398,93 M398,92L399,93 M452,92L453,93 M453,92L454,93 M47,93L48,94 M48,93L49,94 M92,93L93,94 M93,93L94,94 M140,93L141,94 M141,93L142,94 M397,93L398,94 M398,93L399,94 M452,93L453,94 M453,93L454,94 M464,93L465,94 M465,93L466,94 M466,93L467,94 M467,93L468,94 M468,93L469,94 M469,93L470,94 M47,94L48,95 M48,94L49,95 M92,94L93,95 M93,94L94,95 M140,94L141,95 M141,94L142,95 M397,94L398,95 M398,94L399,95 M438,94L439,95 M439,94L440,95 M440,94L441,95 M441,94L442,95 M442,94L443,95 M443,94L444,95 M444,94L445,95 M445,94L446,95 M446,94L447,95 M447,94L448,95 M448,94L449,95 M449,94L450,95 M450,94L451,95 M451,94L452,95 M452,94L453,95 M453,94L454,95 M454,94L455,95 M455,94L456,95 M456,94L457,95 M457,94L458,95 M458,94L459,95 M459,94L460,95 M460,94L461,95 M461,94L462,95 M462,94L463,95 M463,94L464,95 M464,94L465,95 M465,94L466,95 M466,94L467,95 M467,94L468,95 M468,94L469,95 M469,94L470,95 M501,94L502,95 M502,94L503,95 M503,94L504,95 M504,94L505,95 M505,94L506,95 M506,94L507,95 M507,94L508,95 M508,94L509,95 M509,94L510,95 M510,94L511,95 M511,94L512,95 M512,94L513,95 M513,94L514,95 M514,94L515,95 M515,94L516,95 M516,94L517,95 M517,94L518,95 M518,94L519,95 M519,94L520,95 M520,94L521,95 M521,94L522,95 M522,94L523,95 M523,94L524,95 M524,94L525,95 M525,94L526,95 M526,94L527,95 M527,94L528,95 M47,95L48,96 M48,95L49,96 M92,95L93,96 M93,95L94,96 M140,95L141,96 M141,95L142,96 M359,95L360,96 M360,95L361,96 M361,95L362,96 M362,95L363,96 M363,95L364,96 M364,95L365,96 M365,95L366,96 M396,95L397,96 M397,95L398,96 M398,95L399,96 M438,95L439,96 M439,95L440,96 M440,95L441,96 M441,95L442,96 M442,95L443,96 M443,95L444,96 M444,95L445,96 M445,95L446,96 M446,95L447,96 M447,95L448,96 M448,95L449,96 M449,95L450,96 M450,95L451,96 M451,95L452,96 M452,95L453,96 M453,95L454,96 M454,95L455,96 M455,95L456,96 M456,95L457,96 M457,95L458,96 M458,95L459,96 M459,95L460,96 M460,95L461,96 M461,95L462,96 M462,95L463,96 M463,95L464,96 M501,95L502,96 M502,95L503,96 M503,95L504,96 M504,95L505,96 M505,95L506,96 M506,95L507,96 M507,95L508,96 M508,95L509,96 M509,95L510,96 M510,95L511,96 M511,95L512,96 M512,95L513,96 M513,95L514,96 M514,95L515,96 M515,95L516,96 M516,95L517,96 M517,95L518,96 M518,95L519,96 M519,95L520,96 M520,95L521,96 M521,95L522,96 M522,95L523,96 M523,95L524,96 M524,95L525,96 M525,95L526,96 M526,95L527,96 M527,95L528,96 M528,95L529,96 M529,95L530,96 M530,95L531,96 M531,95L532,96 M532,95L533,96 M47,96L48,97 M48,96L49,97 M92,96L93,97 M93,96L94,97 M140,96L141,97 M141,96L142,97 M359,96L360,97 M360,96L361,97 M361,96L362,97 M362,96L363,97 M363,96L364,97 M364,96L365,97 M365,96L366,97 M366,96L367,97 M367,96L368,97 M368,96L369,97 M369,96L370,97 M396,96L397,97 M397,96L398,97 M452,96L453,97 M453,96L454,97 M505,96L506,97 M506,96L507,97 M507,96L508,97 M527,96L528,97 M528,96L529,97 M529,96L530,97 M530,96L531,97 M531,96L532,97 M532,96L533,97 M533,96L534,97 M534,96L535,97 M535,96L536,97 M586,96L587,97 M587,96L588,97 M588,96L589,97 M589,96L590,97 M590,96L591,97 M591,96L592,97 M592,96L593,97 M593,96L594,97 M594,96L595,97 M595,96L596,97 M596,96L597,97 M597,96L598,97 M598,96L599,97 M599,96L600,97 M600,96L601,97 M601,96L602,97 M602,96L603,97 M603,96L604,97 M604,96L605,97 M605,96L606,97 M606,96L607,97 M607,96L608,97 M608,96L609,97 M609,96L610,97 M610,96L611,97 M611,96L612,97 M612,96L613,97 M613,96L614,97 M614,96L615,97 M615,96L616,97 M616,96L617,97 M617,96L618,97 M618,96L619,97 M619,96L620,97 M620,96L621,97 M621,96L622,97 M622,96L623,97 M623,96L624,97 M624,96L625,97 M47,97L48,98 M48,97L49,98 M91,97L92,98 M92,97L93,98 M140,97L141,98 M141,97L142,98 M246,97L247,98 M247,97L248,98 M248,97L249,98 M249,97L250,98 M250,97L251,98 M251,97L252,98 M252,97L253,98 M253,97L254,98 M254,97L255,98 M255,97L256,98 M365,97L366,98 M366,97L367,98 M367,97L368,98 M368,97L369,98 M369,97L370,98 M370,97L371,98 M371,97L372,98 M396,97L397,98 M397,97L398,98 M452,97L453,98 M453,97L454,98 M503,97L504,98 M504,97L505,98 M505,97L506,98 M532,97L533,98 M533,97L534,98 M534,97L535,98 M535,97L536,98 M536,97L537,98 M583,97L584,98 M584,97L585,98 M585,97L586,98 M586,97L587,98 M587,97L588,98 M588,97L589,98 M589,97L590,98 M590,97L591,98 M591,97L592,98 M592,97L593,98 M593,97L594,98 M594,97L595,98 M595,97L596,98 M596,97L597,98 M597,97L598,98 M598,97L599,98 M599,97L600,98 M600,97L601,98 M601,97L602,98 M602,97L603,98 M603,97L604,98 M604,97L605,98 M605,97L606,98 M606,97L607,98 M607,97L608,98 M608,97L609,98 M609,97L610,98 M610,97L611,98 M611,97L612,98 M612,97L613,98 M613,97L614,98 M614,97L615,98 M615,97L616,98 M616,97L617,98 M617,97L618,98 M618,97L619,98 M619,97L620,98 M620,97L621,98 M621,97L622,98 M622,97L623,98 M623,97L624,98 M624,97L625,98 M625,97L626,98 M626,97L627,98 M627,97L628,98 M628,97L629,98 M629,97L630,98 M630,97L631,98 M631,97L632,98 M47,98L48,99 M48,98L49,99 M91,98L92,99 M92,98L93,99 M140,98L141,99 M141,98L142,99 M242,98L243,99 M243,98L244,99 M244,98L245,99 M245,98L246,99 M246,98L247,99 M247,98L248,99 M248,98L249,99 M249,98L250,99 M250,98L251,99 M251,98L252,99 M252,98L253,99 M253,98L254,99 M254,98L255,99 M255,98L256,99 M256,98L257,99 M257,98L258,99 M368,98L369,99 M369,98L370,99 M370,98L371,99 M371,98L372,99 M372,98L373,99 M373,98L374,99 M374,98L375,99 M396,98L397,99 M397,98L398,99 M452,98L453,99 M453,98L454,99 M502,98L503,99 M503,98L504,99 M504,98L505,99 M535,98L536,99 M536,98L537,99 M537,98L538,99 M538,98L539,99 M581,98L582,99 M582,98L583,99 M583,98L584,99 M584,98L585,99 M585,98L586,99 M625,98L626,99 M626,98L627,99 M627,98L628,99 M628,98L629,99 M629,98L630,99 M630,98L631,99 M631,98L632,99 M632,98L633,99 M47,99L48,100 M48,99L49,100 M91,99L92,100 M92,99L93,100 M140,99L141,100 M141,99L142,100 M241,99L242,100 M242,99L243,100 M243,99L244,100 M244,99L245,100 M245,99L246,100 M246,99L247,100 M255,99L256,100 M256,99L257,100 M257,99L258,100 M258,99L259,100 M259,99L260,100 M300,99L301,100 M301,99L302,100 M302,99L303,100 M303,99L304,100 M359,99L360,100 M360,99L361,100 M361,99L362,100 M362,99L363,100 M371,99L372,100 M372,99L373,100 M373,99L374,100 M374,99L375,100 M375,99L376,100 M376,99L377,100 M396,99L397,100 M397,99L398,100 M452,99L453,100 M453,99L454,100 M500,99L501,100 M501,99L502,100 M502,99L503,100 M503,99L504,100 M537,99L538,100 M538,99L539,100 M539,99L540,100 M540,99L541,100 M541,99L542,100 M580,99L581,100 M581,99L582,100 M582,99L583,100 M631,99L632,100 M632,99L633,100 M47,100L48,101 M48,100L49,101 M91,100L92,101 M92,100L93,101 M140,100L141,101 M141,100L142,101 M240,100L241,101 M241,100L242,101 M257,100L258,101 M258,100L259,101 M259,100L260,101 M260,100L261,101 M300,100L301,101 M301,100L302,101 M302,100L303,101 M303,100L304,101 M304,100L305,101 M305,100L306,101 M306,100L307,101 M307,100L308,101 M308,100L309,101 M309,100L310,101 M310,100L311,101 M311,100L312,101 M358,100L359,101 M359,100L360,101 M360,100L361,101 M361,100L362,101 M362,100L363,101 M373,100L374,101 M374,100L375,101 M375,100L376,101 M376,100L377,101 M377,100L378,101 M395,100L396,101 M396,100L397,101 M452,100L453,101 M453,100L454,101 M499,100L500,101 M500,100L501,101 M501,100L502,101 M538,100L539,101 M539,100L540,101 M540,100L541,101 M541,100L542,101 M542,100L543,101 M574,100L575,101 M575,100L576,101 M578,100L579,101 M579,100L580,101 M580,100L581,101 M581,100L582,101 M631,100L632,101 M632,100L633,101 M633,100L634,101 M46,101L47,102 M47,101L48,102 M91,101L92,102 M92,101L93,102 M140,101L141,102 M141,101L142,102 M238,101L239,102 M239,101L240,102 M240,101L241,102 M259,101L260,102 M260,101L261,102 M261,101L262,102 M299,101L300,102 M300,101L301,102 M303,101L304,102 M304,101L305,102 M305,101L306,102 M306,101L307,102 M307,101L308,102 M308,101L309,102 M309,101L310,102 M310,101L311,102 M311,101L312,102 M312,101L313,102 M313,101L314,102 M314,101L315,102 M315,101L316,102 M356,101L357,102 M357,101L358,102 M358,101L359,102 M376,101L377,102 M377,101L378,102 M378,101L379,102 M379,101L380,102 M394,101L395,102 M395,101L396,102 M452,101L453,102 M453,101L454,102 M498,101L499,102 M499,101L500,102 M500,101L501,102 M541,101L542,102 M542,101L543,102 M574,101L575,102 M575,101L576,102 M576,101L577,102 M577,101L578,102 M578,101L579,102 M579,101L580,102 M632,101L633,102 M633,101L634,102 M46,102L47,103 M47,102L48,103 M91,102L92,103 M92,102L93,103 M140,102L141,103 M141,102L142,103 M237,102L238,103 M238,102L239,103 M239,102L240,103 M260,102L261,103 M261,102L262,103 M262,102L263,103 M297,102L298,103 M298,102L299,103 M299,102L300,103 M300,102L301,103 M311,102L312,103 M312,102L313,103 M313,102L314,103 M314,102L315,103 M315,102L316,103 M316,102L317,103 M317,102L318,103 M355,102L356,103 M356,102L357,103 M357,102L358,103 M377,102L378,103 M378,102L379,103 M379,102L380,103 M380,102L381,103 M381,102L382,103 M382,102L383,103 M394,102L395,103 M395,102L396,103 M452,102L453,103 M453,102L454,103 M497,102L498,103 M498,102L499,103 M499,102L500,103 M541,102L542,103 M542,102L543,103 M574,102L575,103 M575,102L576,103 M576,102L577,103 M577,102L578,103 M632,102L633,103 M633,102L634,103 M634,102L635,103 M46,103L47,104 M47,103L48,104 M90,103L91,104 M91,103L92,104 M140,103L141,104 M141,103L142,104 M212,103L213,104 M213,103L214,104 M236,103L237,104 M237,103L238,104 M261,103L262,104 M262,103L263,104 M263,103L264,104 M264,103L265,104 M295,103L296,104 M296,103L297,104 M297,103L298,104 M298,103L299,104 M315,103L316,104 M316,103L317,104 M317,103L318,104 M353,103L354,104 M354,103L355,104 M355,103L356,104 M379,103L380,104 M380,103L381,104 M381,103L382,104 M382,103L383,104 M383,103L384,104 M384,103L385,104 M385,103L386,104 M394,103L395,104 M395,103L396,104 M452,103L453,104 M453,103L454,104 M496,103L497,104 M497,103L498,104 M541,103L542,104 M542,103L543,104 M572,103L573,104 M573,103L574,104 M574,103L575,104 M575,103L576,104 M633,103L634,104 M634,103L635,104 M635,103L636,104 M46,104L47,105 M47,104L48,105 M90,104L91,105 M91,104L92,105 M140,104L141,105 M141,104L142,105 M212,104L213,105 M213,104L214,105 M235,104L236,105 M236,104L237,105 M263,104L264,105 M264,104L265,105 M294,104L295,105 M295,104L296,105 M296,104L297,105 M316,104L317,105 M317,104L318,105 M318,104L319,105 M353,104L354,105 M354,104L355,105 M382,104L383,105 M383,104L384,105 M384,104L385,105 M385,104L386,105 M386,104L387,105 M387,104L388,105 M394,104L395,105 M395,104L396,105 M452,104L453,105 M453,104L454,105 M496,104L497,105 M497,104L498,105 M541,104L542,105 M542,104L543,105 M570,104L571,105 M571,104L572,105 M572,104L573,105 M573,104L574,105 M574,104L575,105 M575,104L576,105 M634,104L635,105 M635,104L636,105 M46,105L47,106 M47,105L48,106 M90,105L91,106 M91,105L92,106 M140,105L141,106 M141,105L142,106 M212,105L213,106 M213,105L214,106 M234,105L235,106 M235,105L236,106 M293,105L294,106 M294,105L295,106 M295,105L296,106 M317,105L318,106 M318,105L319,106 M319,105L320,106 M320,105L321,106 M352,105L353,106 M353,105L354,106 M354,105L355,106 M385,105L386,106 M386,105L387,106 M387,105L388,106 M388,105L389,106 M389,105L390,106 M390,105L391,106 M393,105L394,106 M394,105L395,106 M452,105L453,106 M453,105L454,106 M495,105L496,106 M496,105L497,106 M541,105L542,106 M542,105L543,106 M570,105L571,106 M571,105L572,106 M572,105L573,106 M574,105L575,106 M575,105L576,106 M634,105L635,106 M635,105L636,106 M46,106L47,107 M47,106L48,107 M90,106L91,107 M91,106L92,107 M140,106L141,107 M141,106L142,107 M211,106L212,107 M212,106L213,107 M229,106L230,107 M230,106L231,107 M232,106L233,107 M233,106L234,107 M234,106L235,107 M292,106L293,107 M293,106L294,107 M294,106L295,107 M318,106L319,107 M319,106L320,107 M320,106L321,107 M352,106L353,107 M353,106L354,107 M387,106L388,107 M388,106L389,107 M389,106L390,107 M390,106L391,107 M391,106L392,107 M393,106L394,107 M394,106L395,107 M452,106L453,107 M453,106L454,107 M494,106L495,107 M495,106L496,107 M496,106L497,107 M541,106L542,107 M542,106L543,107 M574,106L575,107 M575,106L576,107 M634,106L635,107 M635,106L636,107 M46,107L47,108 M47,107L48,108 M90,107L91,108 M91,107L92,108 M140,107L141,108 M141,107L142,108 M170,107L171,108 M171,107L172,108 M211,107L212,108 M212,107L213,108 M229,107L230,108 M230,107L231,108 M231,107L232,108 M232,107L233,108 M233,107L234,108 M291,107L292,108 M292,107L293,108 M293,107L294,108 M319,107L320,108 M320,107L321,108 M321,107L322,108 M352,107L353,108 M353,107L354,108 M390,107L391,108 M391,107L392,108 M392,107L393,108 M393,107L394,108 M394,107L395,108 M452,107L453,108 M453,107L454,108 M494,107L495,108 M495,107L496,108 M541,107L542,108 M542,107L543,108 M574,107L575,108 M575,107L576,108 M634,107L635,108 M635,107L636,108 M45,108L46,109 M46,108L47,109 M90,108L91,109 M91,108L92,109 M140,108L141,109 M141,108L142,109 M170,108L171,109 M171,108L172,109 M211,108L212,109 M212,108L213,109 M229,108L230,109 M230,108L231,109 M231,108L232,109 M290,108L291,109 M291,108L292,109 M320,108L321,109 M321,108L322,109 M322,108L323,109 M351,108L352,109 M352,108L353,109 M391,108L392,109 M392,108L393,109 M393,108L394,109 M394,108L395,109 M452,108L453,109 M453,108L454,109 M493,108L494,109 M494,108L495,109 M495,108L496,109 M541,108L542,109 M542,108L543,109 M574,108L575,109 M575,108L576,109 M634,108L635,109 M635,108L636,109 M45,109L46,110 M46,109L47,110 M89,109L90,110 M90,109L91,110 M140,109L141,110 M141,109L142,110 M170,109L171,110 M171,109L172,110 M211,109L212,110 M212,109L213,110 M229,109L230,110 M230,109L231,110 M289,109L290,110 M290,109L291,110 M321,109L322,110 M322,109L323,110 M350,109L351,110 M351,109L352,110 M393,109L394,110 M394,109L395,110 M452,109L453,110 M453,109L454,110 M493,109L494,110 M494,109L495,110 M541,109L542,110 M542,109L543,110 M574,109L575,110 M575,109L576,110 M634,109L635,110 M635,109L636,110 M45,110L46,111 M46,110L47,111 M89,110L90,111 M90,110L91,111 M140,110L141,111 M141,110L142,111 M170,110L171,111 M171,110L172,111 M210,110L211,111 M211,110L212,111 M212,110L213,111 M229,110L230,111 M230,110L231,111 M287,110L288,111 M288,110L289,111 M289,110L290,111 M321,110L322,111 M322,110L323,111 M323,110L324,111 M349,110L350,111 M350,110L351,111 M393,110L394,111 M394,110L395,111 M452,110L453,111 M453,110L454,111 M492,110L493,111 M493,110L494,111 M494,110L495,111 M541,110L542,111 M542,110L543,111 M574,110L575,111 M575,110L576,111 M634,110L635,111 M635,110L636,111 M45,111L46,112 M46,111L47,112 M89,111L90,112 M90,111L91,112 M140,111L141,112 M141,111L142,112 M170,111L171,112 M171,111L172,112 M210,111L211,112 M211,111L212,112 M229,111L230,112 M230,111L231,112 M286,111L287,112 M287,111L288,112 M288,111L289,112 M322,111L323,112 M323,111L324,112 M349,111L350,112 M350,111L351,112 M393,111L394,112 M394,111L395,112 M452,111L453,112 M453,111L454,112 M492,111L493,112 M493,111L494,112 M541,111L542,112 M542,111L543,112 M574,111L575,112 M575,111L576,112 M634,111L635,112 M635,111L636,112 M45,112L46,113 M46,112L47,113 M89,112L90,113 M90,112L91,113 M140,112L141,113 M141,112L142,113 M170,112L171,113 M171,112L172,113 M210,112L211,113 M211,112L212,113 M229,112L230,113 M230,112L231,113 M285,112L286,113 M286,112L287,113 M287,112L288,113 M323,112L324,113 M324,112L325,113 M349,112L350,113 M350,112L351,113 M393,112L394,113 M394,112L395,113 M395,112L396,113 M452,112L453,113 M453,112L454,113 M492,112L493,113 M493,112L494,113 M541,112L542,113 M542,112L543,113 M574,112L575,113 M575,112L576,113 M634,112L635,113 M635,112L636,113 M45,113L46,114 M46,113L47,114 M89,113L90,114 M90,113L91,114 M140,113L141,114 M141,113L142,114 M170,113L171,114 M171,113L172,114 M210,113L211,114 M211,113L212,114 M229,113L230,114 M230,113L231,114 M284,113L285,114 M285,113L286,114 M286,113L287,114 M323,113L324,114 M324,113L325,114 M325,113L326,114 M349,113L350,114 M350,113L351,114 M393,113L394,114 M394,113L395,114 M395,113L396,114 M452,113L453,114 M453,113L454,114 M491,113L492,114 M492,113L493,114 M541,113L542,114 M542,113L543,114 M574,113L575,114 M575,113L576,114 M634,113L635,114 M635,113L636,114 M45,114L46,115 M46,114L47,115 M88,114L89,115 M89,114L90,115 M140,114L141,115 M141,114L142,115 M170,114L171,115 M171,114L172,115 M210,114L211,115 M211,114L212,115 M229,114L230,115 M230,114L231,115 M283,114L284,115 M284,114L285,115 M324,114L325,115 M325,114L326,115 M349,114L350,115 M350,114L351,115 M393,114L394,115 M394,114L395,115 M395,114L396,115 M452,114L453,115 M453,114L454,115 M491,114L492,115 M492,114L493,115 M541,114L542,115 M542,114L543,115 M574,114L575,115 M575,114L576,115 M634,114L635,115 M635,114L636,115 M44,115L45,116 M45,115L46,116 M88,115L89,116 M89,115L90,116 M140,115L141,116 M141,115L142,116 M170,115L171,116 M171,115L172,116 M209,115L210,116 M210,115L211,116 M229,115L230,116 M230,115L231,116 M282,115L283,116 M283,115L284,116 M324,115L325,116 M325,115L326,116 M348,115L349,116 M349,115L350,116 M350,115L351,116 M393,115L394,116 M394,115L395,116 M395,115L396,116 M452,115L453,116 M453,115L454,116 M491,115L492,116 M492,115L493,116 M541,115L542,116 M542,115L543,116 M574,115L575,116 M575,115L576,116 M634,115L635,116 M635,115L636,116 M44,116L45,117 M45,116L46,117 M88,116L89,117 M89,116L90,117 M140,116L141,117 M141,116L142,117 M170,116L171,117 M171,116L172,117 M209,116L210,117 M210,116L211,117 M229,116L230,117 M230,116L231,117 M280,116L281,117 M281,116L282,117 M282,116L283,117 M324,116L325,117 M325,116L326,117 M326,116L327,117 M348,116L349,117 M349,116L350,117 M393,116L394,117 M394,116L395,117 M395,116L396,117 M452,116L453,117 M453,116L454,117 M491,116L492,117 M492,116L493,117 M541,116L542,117 M542,116L543,117 M574,116L575,117 M575,116L576,117 M634,116L635,117 M635,116L636,117 M44,117L45,118 M45,117L46,118 M88,117L89,118 M89,117L90,118 M140,117L141,118 M141,117L142,118 M170,117L171,118 M171,117L172,118 M209,117L210,118 M210,117L211,118 M229,117L230,118 M230,117L231,118 M279,117L280,118 M280,117L281,118 M281,117L282,118 M325,117L326,118 M326,117L327,118 M348,117L349,118 M349,117L350,118 M393,117L394,118 M394,117L395,118 M395,117L396,118 M453,117L454,118 M454,117L455,118 M491,117L492,118 M492,117L493,118 M541,117L542,118 M542,117L543,118 M573,117L574,118 M574,117L575,118 M634,117L635,118 M635,117L636,118 M44,118L45,119 M45,118L46,119 M88,118L89,119 M89,118L90,119 M140,118L141,119 M141,118L142,119 M170,118L171,119 M171,118L172,119 M209,118L210,119 M210,118L211,119 M229,118L230,119 M230,118L231,119 M279,118L280,119 M280,118L281,119 M325,118L326,119 M326,118L327,119 M347,118L348,119 M348,118L349,119 M349,118L350,119 M393,118L394,119 M394,118L395,119 M395,118L396,119 M453,118L454,119 M454,118L455,119 M491,118L492,119 M492,118L493,119 M541,118L542,119 M542,118L543,119 M573,118L574,119 M574,118L575,119 M634,118L635,119 M635,118L636,119 M43,119L44,120 M44,119L45,120 M88,119L89,120 M89,119L90,120 M140,119L141,120 M141,119L142,120 M170,119L171,120 M171,119L172,120 M208,119L209,120 M209,119L210,120 M210,119L211,120 M229,119L230,120 M230,119L231,120 M278,119L279,120 M279,119L280,120 M325,119L326,120 M326,119L327,120 M347,119L348,120 M348,119L349,120 M393,119L394,120 M394,119L395,120 M453,119L454,120 M454,119L455,120 M491,119L492,120 M492,119L493,120 M541,119L542,120 M542,119L543,120 M573,119L574,120 M574,119L575,120 M634,119L635,120 M635,119L636,120 M43,120L44,121 M44,120L45,121 M88,120L89,121 M89,120L90,121 M140,120L141,121 M141,120L142,121 M170,120L171,121 M171,120L172,121 M208,120L209,121 M209,120L210,121 M229,120L230,121 M230,120L231,121 M278,120L279,121 M279,120L280,121 M325,120L326,121 M326,120L327,121 M347,120L348,121 M348,120L349,121 M393,120L394,121 M394,120L395,121 M453,120L454,121 M454,120L455,121 M491,120L492,121 M492,120L493,121 M541,120L542,121 M542,120L543,121 M573,120L574,121 M574,120L575,121 M634,120L635,121 M635,120L636,121 M43,121L44,122 M44,121L45,122 M88,121L89,122 M89,121L90,122 M140,121L141,122 M141,121L142,122 M170,121L171,122 M171,121L172,122 M208,121L209,122 M209,121L210,122 M229,121L230,122 M230,121L231,122 M277,121L278,122 M278,121L279,122 M279,121L280,122 M325,121L326,122 M326,121L327,122 M347,121L348,122 M348,121L349,122 M393,121L394,122 M394,121L395,122 M453,121L454,122 M454,121L455,122 M491,121L492,122 M492,121L493,122 M540,121L541,122 M541,121L542,122 M542,121L543,122 M572,121L573,122 M573,121L574,122 M574,121L575,122 M634,121L635,122 M635,121L636,122 M43,122L44,123 M44,122L45,123 M88,122L89,123 M89,122L90,123 M140,122L141,123 M141,122L142,123 M170,122L171,123 M171,122L172,123 M208,122L209,123 M209,122L210,123 M228,122L229,123 M229,122L230,123 M276,122L277,123 M277,122L278,123 M278,122L279,123 M325,122L326,123 M326,122L327,123 M347,122L348,123 M348,122L349,123 M393,122L394,123 M394,122L395,123 M453,122L454,123 M454,122L455,123 M491,122L492,123 M492,122L493,123 M540,122L541,123 M541,122L542,123 M572,122L573,123 M573,122L574,123 M634,122L635,123 M635,122L636,123 M43,123L44,124 M44,123L45,124 M88,123L89,124 M89,123L90,124 M140,123L141,124 M141,123L142,124 M170,123L171,124 M171,123L172,124 M208,123L209,124 M209,123L210,124 M228,123L229,124 M229,123L230,124 M276,123L277,124 M277,123L278,124 M325,123L326,124 M326,123L327,124 M347,123L348,124 M348,123L349,124 M393,123L394,124 M394,123L395,124 M453,123L454,124 M454,123L455,124 M491,123L492,124 M492,123L493,124 M540,123L541,124 M541,123L542,124 M572,123L573,124 M573,123L574,124 M634,123L635,124 M635,123L636,124 M42,124L43,125 M43,124L44,125 M87,124L88,125 M88,124L89,125 M89,124L90,125 M140,124L141,125 M141,124L142,125 M170,124L171,125 M171,124L172,125 M208,124L209,125 M209,124L210,125 M228,124L229,125 M229,124L230,125 M276,124L277,125 M277,124L278,125 M325,124L326,125 M326,124L327,125 M347,124L348,125 M348,124L349,125 M393,124L394,125 M394,124L395,125 M453,124L454,125 M454,124L455,125 M492,124L493,125 M493,124L494,125 M540,124L541,125 M541,124L542,125 M572,124L573,125 M573,124L574,125 M633,124L634,125 M634,124L635,125 M42,125L43,126 M43,125L44,126 M87,125L88,126 M88,125L89,126 M140,125L141,126 M141,125L142,126 M170,125L171,126 M171,125L172,126 M207,125L208,126 M208,125L209,126 M228,125L229,126 M229,125L230,126 M276,125L277,126 M277,125L278,126 M325,125L326,126 M326,125L327,126 M347,125L348,126 M348,125L349,126 M393,125L394,126 M394,125L395,126 M453,125L454,126 M454,125L455,126 M492,125L493,126 M493,125L494,126 M539,125L540,126 M540,125L541,126 M571,125L572,126 M572,125L573,126 M633,125L634,126 M634,125L635,126 M42,126L43,127 M43,126L44,127 M87,126L88,127 M88,126L89,127 M140,126L141,127 M141,126L142,127 M170,126L171,127 M171,126L172,127 M207,126L208,127 M208,126L209,127 M228,126L229,127 M229,126L230,127 M275,126L276,127 M276,126L277,127 M277,126L278,127 M325,126L326,127 M326,126L327,127 M347,126L348,127 M348,126L349,127 M393,126L394,127 M394,126L395,127 M453,126L454,127 M454,126L455,127 M492,126L493,127 M493,126L494,127 M539,126L540,127 M540,126L541,127 M571,126L572,127 M572,126L573,127 M633,126L634,127 M634,126L635,127 M42,127L43,128 M43,127L44,128 M87,127L88,128 M88,127L89,128 M140,127L141,128 M141,127L142,128 M170,127L171,128 M171,127L172,128 M207,127L208,128 M208,127L209,128 M228,127L229,128 M229,127L230,128 M275,127L276,128 M276,127L277,128 M325,127L326,128 M326,127L327,128 M347,127L348,128 M348,127L349,128 M392,127L393,128 M393,127L394,128 M394,127L395,128 M453,127L454,128 M454,127L455,128 M493,127L494,128 M494,127L495,128 M539,127L540,128 M540,127L541,128 M571,127L572,128 M572,127L573,128 M633,127L634,128 M634,127L635,128 M42,128L43,129 M43,128L44,129 M86,128L87,129 M87,128L88,129 M139,128L140,129 M140,128L141,129 M170,128L171,129 M171,128L172,129 M206,128L207,129 M207,128L208,129 M228,128L229,129 M229,128L230,129 M275,128L276,129 M276,128L277,129 M325,128L326,129 M326,128L327,129 M347,128L348,129 M348,128L349,129 M392,128L393,129 M393,128L394,129 M453,128L454,129 M454,128L455,129 M493,128L494,129 M494,128L495,129 M495,128L496,129 M539,128L540,129 M540,128L541,129 M571,128L572,129 M572,128L573,129 M633,128L634,129 M634,128L635,129 M42,129L43,130 M43,129L44,130 M86,129L87,130 M87,129L88,130 M139,129L140,130 M140,129L141,130 M170,129L171,130 M171,129L172,130 M206,129L207,130 M207,129L208,130 M228,129L229,130 M229,129L230,130 M275,129L276,130 M276,129L277,130 M325,129L326,130 M326,129L327,130 M347,129L348,130 M348,129L349,130 M392,129L393,130 M393,129L394,130 M453,129L454,130 M454,129L455,130 M494,129L495,130 M495,129L496,130 M496,129L497,130 M538,129L539,130 M539,129L540,130 M571,129L572,130 M572,129L573,130 M633,129L634,130 M634,129L635,130 M42,130L43,131 M43,130L44,131 M86,130L87,131 M87,130L88,131 M139,130L140,131 M140,130L141,131 M170,130L171,131 M171,130L172,131 M205,130L206,131 M206,130L207,131 M207,130L208,131 M228,130L229,131 M229,130L230,131 M275,130L276,131 M276,130L277,131 M325,130L326,131 M326,130L327,131 M347,130L348,131 M348,130L349,131 M391,130L392,131 M392,130L393,131 M453,130L454,131 M454,130L455,131 M495,130L496,131 M496,130L497,131 M497,130L498,131 M538,130L539,131 M539,130L540,131 M571,130L572,131 M572,130L573,131 M632,130L633,131 M633,130L634,131 M41,131L42,132 M42,131L43,132 M86,131L87,132 M87,131L88,132 M139,131L140,132 M140,131L141,132 M169,131L170,132 M170,131L171,132 M205,131L206,132 M206,131L207,132 M228,131L229,132 M229,131L230,132 M275,131L276,132 M276,131L277,132 M325,131L326,132 M326,131L327,132 M347,131L348,132 M348,131L349,132 M349,131L350,132 M390,131L391,132 M391,131L392,132 M453,131L454,132 M454,131L455,132 M496,131L497,132 M497,131L498,132 M498,131L499,132 M537,131L538,132 M538,131L539,132 M571,131L572,132 M572,131L573,132 M632,131L633,132 M633,131L634,132 M41,132L42,133 M42,132L43,133 M86,132L87,133 M87,132L88,133 M139,132L140,133 M140,132L141,133 M169,132L170,133 M170,132L171,133 M204,132L205,133 M205,132L206,133 M206,132L207,133 M228,132L229,133 M229,132L230,133 M275,132L276,133 M276,132L277,133 M325,132L326,133 M326,132L327,133 M348,132L349,133 M349,132L350,133 M350,132L351,133 M388,132L389,133 M389,132L390,133 M390,132L391,133 M453,132L454,133 M454,132L455,133 M497,132L498,133 M498,132L499,133 M499,132L500,133 M536,132L537,133 M537,132L538,133 M571,132L572,133 M572,132L573,133 M632,132L633,133 M633,132L634,133 M41,133L42,134 M42,133L43,134 M86,133L87,134 M87,133L88,134 M139,133L140,134 M140,133L141,134 M169,133L170,134 M170,133L171,134 M204,133L205,134 M205,133L206,134 M228,133L229,134 M229,133L230,134 M275,133L276,134 M276,133L277,134 M325,133L326,134 M326,133L327,134 M348,133L349,134 M349,133L350,134 M350,133L351,134 M388,133L389,134 M389,133L390,134 M453,133L454,134 M454,133L455,134 M498,133L499,134 M499,133L500,134 M500,133L501,134 M534,133L535,134 M535,133L536,134 M536,133L537,134 M571,133L572,134 M572,133L573,134 M632,133L633,134 M633,133L634,134 M41,134L42,135 M42,134L43,135 M86,134L87,135 M87,134L88,135 M139,134L140,135 M140,134L141,135 M169,134L170,135 M170,134L171,135 M203,134L204,135 M204,134L205,135 M228,134L229,135 M229,134L230,135 M276,134L277,135 M277,134L278,135 M325,134L326,135 M326,134L327,135 M349,134L350,135 M350,134L351,135 M387,134L388,135 M388,134L389,135 M389,134L390,135 M453,134L454,135 M454,134L455,135 M499,134L500,135 M500,134L501,135 M501,134L502,135 M502,134L503,135 M533,134L534,135 M534,134L535,135 M535,134L536,135 M571,134L572,135 M572,134L573,135 M632,134L633,135 M633,134L634,135 M41,135L42,136 M42,135L43,136 M86,135L87,136 M87,135L88,136 M139,135L140,136 M140,135L141,136 M169,135L170,136 M170,135L171,136 M202,135L203,136 M203,135L204,136 M204,135L205,136 M228,135L229,136 M229,135L230,136 M276,135L277,136 M277,135L278,136 M325,135L326,136 M326,135L327,136 M349,135L350,136 M350,135L351,136 M351,135L352,136 M386,135L387,136 M387,135L388,136 M388,135L389,136 M453,135L454,136 M454,135L455,136 M500,135L501,136 M501,135L502,136 M502,135L503,136 M503,135L504,136 M531,135L532,136 M532,135L533,136 M533,135L534,136 M534,135L535,136 M570,135L571,136 M571,135L572,136 M631,135L632,136 M632,135L633,136 M41,136L42,137 M42,136L43,137 M85,136L86,137 M86,136L87,137 M139,136L140,137 M140,136L141,137 M169,136L170,137 M170,136L171,137 M202,136L203,137 M203,136L204,137 M228,136L229,137 M229,136L230,137 M277,136L278,137 M278,136L279,137 M325,136L326,137 M326,136L327,137 M350,136L351,137 M351,136L352,137 M352,136L353,137 M353,136L354,137 M385,136L386,137 M386,136L387,137 M387,136L388,137 M453,136L454,137 M454,136L455,137 M502,136L503,137 M503,136L504,137 M504,136L505,137 M505,136L506,137 M506,136L507,137 M507,136L508,137 M508,136L509,137 M530,136L531,137 M531,136L532,137 M532,136L533,137 M570,136L571,137 M571,136L572,137 M631,136L632,137 M632,136L633,137 M41,137L42,138 M42,137L43,138 M85,137L86,138 M86,137L87,138 M139,137L140,138 M140,137L141,138 M169,137L170,138 M170,137L171,138 M202,137L203,138 M203,137L204,138 M228,137L229,138 M229,137L230,138 M277,137L278,138 M278,137L279,138 M325,137L326,138 M326,137L327,138 M351,137L352,138 M352,137L353,138 M353,137L354,138 M354,137L355,138 M355,137L356,138 M384,137L385,138 M385,137L386,138 M452,137L453,138 M453,137L454,138 M454,137L455,138 M504,137L505,138 M505,137L506,138 M506,137L507,138 M507,137L508,138 M508,137L509,138 M509,137L510,138 M510,137L511,138 M528,137L529,138 M529,137L530,138 M530,137L531,138 M531,137L532,138 M570,137L571,138 M571,137L572,138 M631,137L632,138 M632,137L633,138 M41,138L42,139 M42,138L43,139 M85,138L86,139 M86,138L87,139 M139,138L140,139 M140,138L141,139 M169,138L170,139 M170,138L171,139 M201,138L202,139 M202,138L203,139 M228,138L229,139 M229,138L230,139 M277,138L278,139 M278,138L279,139 M279,138L280,139 M324,138L325,139 M325,138L326,139 M326,138L327,139 M353,138L354,139 M354,138L355,139 M355,138L356,139 M356,138L357,139 M357,138L358,139 M381,138L382,139 M382,138L383,139 M383,138L384,139 M384,138L385,139 M452,138L453,139 M453,138L454,139 M508,138L509,139 M509,138L510,139 M510,138L511,139 M511,138L512,139 M512,138L513,139 M513,138L514,139 M514,138L515,139 M515,138L516,139 M516,138L517,139 M517,138L518,139 M518,138L519,139 M519,138L520,139 M520,138L521,139 M521,138L522,139 M522,138L523,139 M523,138L524,139 M524,138L525,139 M525,138L526,139 M526,138L527,139 M527,138L528,139 M528,138L529,139 M529,138L530,139 M569,138L570,139 M570,138L571,139 M571,138L572,139 M631,138L632,139 M632,138L633,139 M41,139L42,140 M42,139L43,140 M85,139L86,140 M86,139L87,140 M139,139L140,140 M140,139L141,140 M169,139L170,140 M170,139L171,140 M200,139L201,140 M201,139L202,140 M228,139L229,140 M229,139L230,140 M278,139L279,140 M279,139L280,140 M324,139L325,140 M325,139L326,140 M355,139L356,140 M356,139L357,140 M357,139L358,140 M358,139L359,140 M359,139L360,140 M381,139L382,140 M382,139L383,140 M383,139L384,140 M452,139L453,140 M453,139L454,140 M511,139L512,140 M512,139L513,140 M513,139L514,140 M514,139L515,140 M515,139L516,140 M516,139L517,140 M517,139L518,140 M518,139L519,140 M519,139L520,140 M520,139L521,140 M521,139L522,140 M522,139L523,140 M523,139L524,140 M524,139L525,140 M525,139L526,140 M526,139L527,140 M527,139L528,140 M569,139L570,140 M570,139L571,140 M631,139L632,140 M632,139L633,140 M41,140L42,141 M42,140L43,141 M85,140L86,141 M86,140L87,141 M138,140L139,141 M139,140L140,141 M140,140L141,141 M169,140L170,141 M170,140L171,141 M199,140L200,141 M200,140L201,141 M228,140L229,141 M229,140L230,141 M278,140L279,141 M279,140L280,141 M323,140L324,141 M324,140L325,141 M325,140L326,141 M357,140L358,141 M358,140L359,141 M359,140L360,141 M360,140L361,141 M361,140L362,141 M362,140L363,141 M363,140L364,141 M364,140L365,141 M365,140L366,141 M380,140L381,141 M381,140L382,141 M382,140L383,141 M452,140L453,141 M453,140L454,141 M569,140L570,141 M570,140L571,141 M631,140L632,141 M632,140L633,141 M41,141L42,142 M42,141L43,142 M84,141L85,142 M85,141L86,142 M86,141L87,142 M138,141L139,142 M139,141L140,142 M169,141L170,142 M170,141L171,142 M198,141L199,142 M199,141L200,142 M228,141L229,142 M229,141L230,142 M279,141L280,142 M280,141L281,142 M323,141L324,142 M324,141L325,142 M359,141L360,142 M360,141L361,142 M361,141L362,142 M362,141L363,142 M363,141L364,142 M364,141L365,142 M365,141L366,142 M366,141L367,142 M367,141L368,142 M368,141L369,142 M369,141L370,142 M370,141L371,142 M371,141L372,142 M372,141L373,142 M373,141L374,142 M374,141L375,142 M375,141L376,142 M376,141L377,142 M377,141L378,142 M378,141L379,142 M379,141L380,142 M380,141L381,142 M381,141L382,142 M452,141L453,142 M453,141L454,142 M569,141L570,142 M570,141L571,142 M630,141L631,142 M631,141L632,142 M632,141L633,142 M41,142L42,143 M42,142L43,143 M84,142L85,143 M85,142L86,143 M138,142L139,143 M139,142L140,143 M169,142L170,143 M170,142L171,143 M197,142L198,143 M198,142L199,143 M228,142L229,143 M229,142L230,143 M279,142L280,143 M280,142L281,143 M281,142L282,143 M322,142L323,143 M323,142L324,143 M365,142L366,143 M366,142L367,143 M367,142L368,143 M368,142L369,143 M369,142L370,143 M370,142L371,143 M371,142L372,143 M372,142L373,143 M373,142L374,143 M374,142L375,143 M375,142L376,143 M376,142L377,143 M377,142L378,143 M378,142L379,143 M379,142L380,143 M380,142L381,143 M451,142L452,143 M452,142L453,143 M453,142L454,143 M569,142L570,143 M570,142L571,143 M630,142L631,143 M631,142L632,143 M41,143L42,144 M42,143L43,144 M84,143L85,144 M85,143L86,144 M138,143L139,144 M139,143L140,144 M169,143L170,144 M170,143L171,144 M171,143L172,144 M196,143L197,144 M197,143L198,144 M227,143L228,144 M228,143L229,144 M280,143L281,144 M281,143L282,144 M282,143L283,144 M283,143L284,144 M321,143L322,144 M322,143L323,144 M323,143L324,144 M451,143L452,144 M452,143L453,144 M568,143L569,144 M569,143L570,144 M630,143L631,144 M631,143L632,144 M41,144L42,145 M42,144L43,145 M84,144L85,145 M85,144L86,145 M138,144L139,145 M139,144L140,145 M170,144L171,145 M171,144L172,145 M195,144L196,145 M196,144L197,145 M227,144L228,145 M228,144L229,145 M281,144L282,145 M282,144L283,145 M283,144L284,145 M284,144L285,145 M320,144L321,145 M321,144L322,145 M322,144L323,145 M451,144L452,145 M452,144L453,145 M568,144L569,145 M569,144L570,145 M630,144L631,145 M631,144L632,145 M41,145L42,146 M42,145L43,146 M83,145L84,146 M84,145L85,146 M85,145L86,146 M137,145L138,146 M138,145L139,146 M171,145L172,146 M172,145L173,146 M194,145L195,146 M195,145L196,146 M227,145L228,146 M228,145L229,146 M283,145L284,146 M284,145L285,146 M285,145L286,146 M320,145L321,146 M321,145L322,146 M451,145L452,146 M452,145L453,146 M568,145L569,146 M569,145L570,146 M629,145L630,146 M630,145L631,146 M41,146L42,147 M42,146L43,147 M83,146L84,147 M84,146L85,147 M137,146L138,147 M138,146L139,147 M171,146L172,147 M172,146L173,147 M173,146L174,147 M193,146L194,147 M194,146L195,147 M227,146L228,147 M228,146L229,147 M284,146L285,147 M285,146L286,147 M286,146L287,147 M318,146L319,147 M319,146L320,147 M320,146L321,147 M451,146L452,147 M452,146L453,147 M568,146L569,147 M569,146L570,147 M629,146L630,147 M630,146L631,147 M41,147L42,148 M42,147L43,148 M83,147L84,148 M84,147L85,148 M137,147L138,148 M138,147L139,148 M172,147L173,148 M173,147L174,148 M174,147L175,148 M175,147L176,148 M191,147L192,148 M192,147L193,148 M193,147L194,148 M227,147L228,148 M228,147L229,148 M285,147L286,148 M286,147L287,148 M287,147L288,148 M288,147L289,148 M315,147L316,148 M316,147L317,148 M317,147L318,148 M318,147L319,148 M319,147L320,148 M451,147L452,148 M452,147L453,148 M568,147L569,148 M569,147L570,148 M629,147L630,148 M630,147L631,148 M41,148L42,149 M42,148L43,149 M83,148L84,149 M84,148L85,149 M137,148L138,149 M138,148L139,149 M174,148L175,149 M175,148L176,149 M176,148L177,149 M188,148L189,149 M189,148L190,149 M190,148L191,149 M191,148L192,149 M192,148L193,149 M227,148L228,149 M228,148L229,149 M287,148L288,149 M288,148L289,149 M289,148L290,149 M290,148L291,149 M291,148L292,149 M292,148L293,149 M311,148L312,149 M312,148L313,149 M313,148L314,149 M314,148L315,149 M315,148L316,149 M316,148L317,149 M317,148L318,149 M450,148L451,149 M451,148L452,149 M568,148L569,149 M569,148L570,149 M629,148L630,149 M630,148L631,149 M41,149L42,150 M42,149L43,150 M83,149L84,150 M84,149L85,150 M137,149L138,150 M138,149L139,150 M175,149L176,150 M176,149L177,150 M177,149L178,150 M178,149L179,150 M179,149L180,150 M180,149L181,150 M181,149L182,150 M182,149L183,150 M183,149L184,150 M184,149L185,150 M185,149L186,150 M186,149L187,150 M187,149L188,150 M188,149L189,150 M189,149L190,150 M190,149L191,150 M289,149L290,150 M290,149L291,150 M291,149L292,150 M292,149L293,150 M293,149L294,150 M294,149L295,150 M295,149L296,150 M296,149L297,150 M297,149L298,150 M298,149L299,150 M299,149L300,150 M300,149L301,150 M301,149L302,150 M302,149L303,150 M303,149L304,150 M304,149L305,150 M305,149L306,150 M306,149L307,150 M307,149L308,150 M308,149L309,150 M309,149L310,150 M310,149L311,150 M311,149L312,150 M312,149L313,150 M313,149L314,150 M314,149L315,150 M315,149L316,150 M450,149L451,150 M451,149L452,150 M568,149L569,150 M569,149L570,150 M41,150L42,151 M42,150L43,151 M83,150L84,151 M84,150L85,151 M136,150L137,151 M137,150L138,151 M177,150L178,151 M178,150L179,151 M179,150L180,151 M180,150L181,151 M181,150L182,151 M182,150L183,151 M183,150L184,151 M184,150L185,151 M185,150L186,151 M186,150L187,151 M187,150L188,151 M293,150L294,151 M294,150L295,151 M295,150L296,151 M296,150L297,151 M297,150L298,151 M298,150L299,151 M299,150L300,151 M300,150L301,151 M301,150L302,151 M302,150L303,151 M303,150L304,151 M304,150L305,151 M305,150L306,151 M306,150L307,151 M307,150L308,151 M308,150L309,151 M309,150L310,151 M310,150L311,151 M450,150L451,151 M451,150L452,151 M568,150L569,151 M41,151L42,152 M42,151L43,152 M83,151L84,152 M84,151L85,152 M136,151L137,152 M137,151L138,152 M450,151L451,152 M451,151L452,152 M41,152L42,153 M42,152L43,153 M83,152L84,153 M84,152L85,153 M135,152L136,153 M136,152L137,153 M449,152L450,153 M450,152L451,153 M41,153L42,154 M42,153L43,154 M83,153L84,154 M84,153L85,154 M135,153L136,154 M136,153L137,154 M449,153L450,154 M450,153L451,154 M41,154L42,155 M42,154L43,155 M448,154L449,155 M449,154L450,155 M450,154L451,155 M41,155L42,156 M42,155L43,156 M448,155L449,156 M449,155L450,156 M41,156L42,157 M42,156L43,157 M448,156L449,157 M449,156L450,157 M41,157L42,158 M42,157L43,158 M448,157L449,158 M449,157L450,158 M41,158L42,159 M42,158L43,159 M447,158L448,159 M448,158L449,159 M449,158L450,159 M41,159L42,160 M42,159L43,160 M447,159L448,160 M448,159L449,160 M41,160L42,161 M42,160L43,161 M446,160L447,161 M447,160L448,161 M448,160L449,161 M41,161L42,162 M42,161L43,162 M445,161L446,162 M446,161L447,162 M447,161L448,162 M41,162L42,163 M42,162L43,163 M445,162L446,163 M446,162L447,163 M41,163L42,164 M42,163L43,164 M444,163L445,164 M445,163L446,164 M442,164L443,165 M443,164L444,165 M444,164L445,165 M441,165L442,166 M442,165L443,166 M443,165L444,166 M441,166L442,167 M442,166L443,167 M440,167L441,168 M441,167L442,168 M439,168L440,169 M440,168L441,169 M388,169L389,170 M389,169L390,170 M437,169L438,170 M438,169L439,170 M439,169L440,170 M388,170L389,171 M389,170L390,171 M436,170L437,171 M437,170L438,171 M438,170L439,171 M388,171L389,172 M389,171L390,172 M390,171L391,172 M434,171L435,172 M435,171L436,172 M436,171L437,172 M437,171L438,172 M389,172L390,173 M390,172L391,173 M433,172L434,173 M434,172L435,173 M435,172L436,173 M389,173L390,174 M390,173L391,174 M391,173L392,174 M431,173L432,174 M432,173L433,174 M433,173L434,174 M434,173L435,174 M390,174L391,175 M391,174L392,175 M430,174L431,175 M431,174L432,175 M432,174L433,175 M390,175L391,176 M391,175L392,176 M428,175L429,176 M429,175L430,176 M430,175L431,176 M431,175L432,176 M390,176L391,177 M391,176L392,177 M426,176L427,177 M427,176L428,177 M428,176L429,177 M429,176L430,177 M390,177L391,178 M391,177L392,178 M392,177L393,178 M422,177L423,178 M423,177L424,178 M424,177L425,178 M425,177L426,178 M426,177L427,178 M427,177L428,178 M428,177L429,178 M391,178L392,179 M392,178L393,179 M393,178L394,179 M421,178L422,179 M422,178L423,179 M423,178L424,179 M424,178L425,179 M425,178L426,179 M426,178L427,179 M392,179L393,180 M393,179L394,180 M417,179L418,180 M418,179L419,180 M419,179L420,180 M420,179L421,180 M421,179L422,180 M422,179L423,180 M393,180L394,181 M394,180L395,181 M413,180L414,181 M414,180L415,181 M415,180L416,181 M416,180L417,181 M417,180L418,181 M418,180L419,181 M419,180L420,181 M420,180L421,181 M393,181L394,182 M394,181L395,182 M395,181L396,182 M396,181L397,182 M397,181L398,182 M398,181L399,182 M399,181L400,182 M400,181L401,182 M401,181L402,182 M402,181L403,182 M403,181L404,182 M404,181L405,182 M405,181L406,182 M406,181L407,182 M407,181L408,182 M408,181L409,182 M409,181L410,182 M410,181L411,182 M411,181L412,182 M412,181L413,182 M413,181L414,182 M414,181L415,182 M415,181L416,182 M416,181L417,182 M417,181L418,182 M393,182L394,183 M394,182L395,183 M395,182L396,183 M396,182L397,183 M397,182L398,183 M398,182L399,183 M399,182L400,183 M400,182L401,183 M401,182L402,183 M402,182L403,183 M403,182L404,183 M404,182L405,183 M405,182L406,183 M406,182L407,183 M407,182L408,183 M408,182L409,183 M409,182L410,183 M410,182L411,183 M411,182L412,183 M412,182L413,183 M413,182L414,183" fill="none" stroke="black" />
    </svg>