<svg xmlns="http://www.w3.org/2000/svg" width="350" height="250">
        <path d="M163,29L164,30 M164,29L165,30 M162,30L163,31 M163,30L164,31 M164,30L165,31 M162,31L163,32 M163,31L164,32 M161,32L162,33 M162,32L163,33 M163,32L164,33 M161,33L162,34 M162,33L163,34 M160,34L161,35 M161,34L162,35 M162,34L163,35 M160,35L161,36 M161,35L162,36 M160,36L161,37 M161,36L162,37 M160,37L161,38 M161,37L162,38 M159,38L160,39 M160,38L161,39 M159,39L160,40 M160,39L161,40 M159,40L160,41 M160,40L161,41 M159,41L160,42 M160,41L161,42 M158,42L159,43 M159,42L160,43 M158,43L159,44 M159,43L160,44 M157,44L158,45 M158,44L159,45 M159,44L160,45 M157,45L158,46 M158,45L159,46 M157,46L158,47 M158,46L159,47 M156,47L157,48 M157,47L158,48 M156,48L157,49 M157,48L158,49 M155,49L156,50 M156,49L157,50 M157,49L158,50 M155,50L156,51 M156,50L157,51 M155,51L156,52 M156,51L157,52 M154,52L155,53 M155,52L156,53 M154,53L155,54 M155,53L156,54 M154,54L155,55 M155,54L156,55 M153,55L154,56 M154,55L155,56 M153,56L154,57 M154,56L155,57 M153,57L154,58 M154,57L155,58 M152,58L153,59 M153,58L154,59 M152,59L153,60 M153,59L154,60 M152,60L153,61 M153,60L154,61 M151,61L152,62 M152,61L153,62 M151,62L152,63 M152,62L153,63 M151,63L152,64 M152,63L153,64 M151,64L152,65 M152,64L153,65 M151,65L152,66 M152,65L153,66 M150,66L151,67 M151,66L152,67 M150,67L151,68 M151,67L152,68 M150,68L151,69 M151,68L152,69 M150,69L151,70 M151,69L152,70 M149,70L150,71 M150,70L151,71 M152,70L153,71 M153,70L154,71 M154,70L155,71 M155,70L156,71 M156,70L157,71 M157,70L158,71 M158,70L159,71 M159,70L160,71 M160,70L161,71 M161,70L162,71 M162,70L163,71 M163,70L164,71 M149,71L150,72 M150,71L151,72 M151,71L152,72 M152,71L153,72 M153,71L154,72 M154,71L155,72 M155,71L156,72 M156,71L157,72 M157,71L158,72 M158,71L159,72 M159,71L160,72 M160,71L161,72 M161,71L162,72 M162,71L163,72 M163,71L164,72 M164,71L165,72 M165,71L166,72 M166,71L167,72 M167,71L168,72 M168,71L169,72 M148,72L149,73 M149,72L150,73 M150,72L151,73 M151,72L152,73 M164,72L165,73 M165,72L166,73 M166,72L167,73 M167,72L168,73 M168,72L169,73 M169,72L170,73 M145,73L146,74 M146,73L147,74 M147,73L148,74 M148,73L149,74 M149,73L150,74 M168,73L169,74 M143,74L144,75 M144,74L145,75 M145,74L146,75 M146,74L147,75 M147,74L148,75 M148,74L149,75 M149,74L150,75 M141,75L142,76 M142,75L143,76 M143,75L144,76 M144,75L145,76 M145,75L146,76 M148,75L149,76 M149,75L150,76 M139,76L140,77 M140,76L141,77 M141,76L142,77 M142,76L143,77 M143,76L144,77 M148,76L149,77 M149,76L150,77 M137,77L138,78 M138,77L139,78 M139,77L140,78 M140,77L141,78 M148,77L149,78 M149,77L150,78 M135,78L136,79 M136,78L137,79 M137,78L138,79 M138,78L139,79 M139,78L140,79 M147,78L148,79 M148,78L149,79 M134,79L135,80 M135,79L136,80 M136,79L137,80 M137,79L138,80 M147,79L148,80 M148,79L149,80 M132,80L133,81 M133,80L134,81 M134,80L135,81 M135,80L136,81 M147,80L148,81 M148,80L149,81 M130,81L131,82 M131,81L132,82 M132,81L133,82 M133,81L134,82 M147,81L148,82 M148,81L149,82 M128,82L129,83 M129,82L130,83 M130,82L131,83 M131,82L132,83 M146,82L147,83 M147,82L148,83 M126,83L127,84 M127,83L128,84 M128,83L129,84 M129,83L130,84 M146,83L147,84 M147,83L148,84 M124,84L125,85 M125,84L126,85 M126,84L127,85 M127,84L128,85 M128,84L129,85 M146,84L147,85 M147,84L148,85 M123,85L124,86 M124,85L125,86 M125,85L126,86 M126,85L127,86 M145,85L146,86 M146,85L147,86 M219,85L220,86 M220,85L221,86 M221,85L222,86 M222,85L223,86 M223,85L224,86 M224,85L225,86 M225,85L226,86 M226,85L227,86 M227,85L228,86 M121,86L122,87 M122,86L123,87 M123,86L124,87 M124,86L125,87 M145,86L146,87 M146,86L147,87 M218,86L219,87 M219,86L220,87 M220,86L221,87 M221,86L222,87 M222,86L223,87 M223,86L224,87 M224,86L225,87 M225,86L226,87 M226,86L227,87 M227,86L228,87 M228,86L229,87 M229,86L230,87 M230,86L231,87 M231,86L232,87 M119,87L120,88 M120,87L121,88 M121,87L122,88 M122,87L123,88 M145,87L146,88 M146,87L147,88 M217,87L218,88 M218,87L219,88 M219,87L220,88 M228,87L229,88 M229,87L230,88 M230,87L231,88 M231,87L232,88 M232,87L233,88 M117,88L118,89 M118,88L119,89 M119,88L120,89 M120,88L121,89 M145,88L146,89 M146,88L147,89 M217,88L218,89 M218,88L219,89 M231,88L232,89 M232,88L233,89 M115,89L116,90 M116,89L117,90 M117,89L118,90 M118,89L119,90 M145,89L146,90 M146,89L147,90 M217,89L218,90 M218,89L219,90 M231,89L232,90 M232,89L233,90 M233,89L234,90 M113,90L114,91 M114,90L115,91 M115,90L116,91 M116,90L117,91 M144,90L145,91 M145,90L146,91 M216,90L217,91 M217,90L218,91 M232,90L233,91 M233,90L234,91 M111,91L112,92 M112,91L113,92 M113,91L114,92 M114,91L115,92 M144,91L145,92 M145,91L146,92 M216,91L217,92 M217,91L218,92 M232,91L233,92 M233,91L234,92 M110,92L111,93 M111,92L112,93 M112,92L113,93 M144,92L145,93 M145,92L146,93 M215,92L216,93 M216,92L217,93 M217,92L218,93 M232,92L233,93 M233,92L234,93 M109,93L110,94 M110,93L111,94 M111,93L112,94 M144,93L145,94 M145,93L146,94 M215,93L216,94 M216,93L217,94 M232,93L233,94 M233,93L234,94 M108,94L109,95 M109,94L110,95 M110,94L111,95 M143,94L144,95 M144,94L145,95 M214,94L215,95 M215,94L216,95 M232,94L233,95 M233,94L234,95 M107,95L108,96 M108,95L109,96 M109,95L110,96 M143,95L144,96 M144,95L145,96 M214,95L215,96 M215,95L216,96 M232,95L233,96 M233,95L234,96 M106,96L107,97 M107,96L108,97 M108,96L109,97 M143,96L144,97 M144,96L145,97 M213,96L214,97 M214,96L215,97 M232,96L233,97 M233,96L234,97 M105,97L106,98 M106,97L107,98 M107,97L108,98 M142,97L143,98 M143,97L144,98 M213,97L214,98 M214,97L215,98 M232,97L233,98 M233,97L234,98 M105,98L106,99 M106,98L107,99 M142,98L143,99 M143,98L144,99 M213,98L214,99 M214,98L215,99 M232,98L233,99 M233,98L234,99 M105,99L106,100 M106,99L107,100 M142,99L143,100 M143,99L144,100 M212,99L213,100 M213,99L214,100 M231,99L232,100 M232,99L233,100 M104,100L105,101 M105,100L106,101 M142,100L143,101 M143,100L144,101 M212,100L213,101 M213,100L214,101 M231,100L232,101 M232,100L233,101 M104,101L105,102 M105,101L106,102 M142,101L143,102 M143,101L144,102 M212,101L213,102 M213,101L214,102 M231,101L232,102 M232,101L233,102 M104,102L105,103 M105,102L106,103 M141,102L142,103 M142,102L143,103 M211,102L212,103 M212,102L213,103 M230,102L231,103 M231,102L232,103 M232,102L233,103 M104,103L105,104 M105,103L106,104 M141,103L142,104 M142,103L143,104 M211,103L212,104 M212,103L213,104 M230,103L231,104 M231,103L232,104 M103,104L104,105 M104,104L105,105 M141,104L142,105 M142,104L143,105 M150,104L151,105 M151,104L152,105 M211,104L212,105 M212,104L213,105 M229,104L230,105 M230,104L231,105 M231,104L232,105 M103,105L104,106 M104,105L105,106 M141,105L142,106 M142,105L143,106 M150,105L151,106 M151,105L152,106 M210,105L211,106 M211,105L212,106 M225,105L226,106 M226,105L227,106 M227,105L228,106 M228,105L229,106 M229,105L230,106 M230,105L231,106 M103,106L104,107 M104,106L105,107 M140,106L141,107 M141,106L142,107 M150,106L151,107 M151,106L152,107 M167,106L168,107 M168,106L169,107 M210,106L211,107 M211,106L212,107 M217,106L218,107 M218,106L219,107 M219,106L220,107 M220,106L221,107 M221,106L222,107 M222,106L223,107 M223,106L224,107 M224,106L225,107 M225,106L226,107 M226,106L227,107 M227,106L228,107 M228,106L229,107 M103,107L104,108 M104,107L105,108 M140,107L141,108 M141,107L142,108 M149,107L150,108 M150,107L151,108 M166,107L167,108 M167,107L168,108 M168,107L169,108 M210,107L211,108 M211,107L212,108 M212,107L213,108 M213,107L214,108 M214,107L215,108 M215,107L216,108 M216,107L217,108 M217,107L218,108 M218,107L219,108 M219,107L220,108 M220,107L221,108 M221,107L222,108 M222,107L223,108 M223,107L224,108 M224,107L225,108 M102,108L103,109 M103,108L104,109 M140,108L141,109 M141,108L142,109 M149,108L150,109 M150,108L151,109 M166,108L167,109 M167,108L168,109 M209,108L210,109 M210,108L211,109 M211,108L212,109 M212,108L213,109 M213,108L214,109 M214,108L215,109 M215,108L216,109 M216,108L217,109 M217,108L218,109 M102,109L103,110 M103,109L104,110 M139,109L140,110 M140,109L141,110 M149,109L150,110 M150,109L151,110 M165,109L166,110 M166,109L167,110 M167,109L168,110 M207,109L208,110 M208,109L209,110 M209,109L210,110 M210,109L211,110 M211,109L212,110 M212,109L213,110 M101,110L102,111 M102,110L103,111 M103,110L104,111 M139,110L140,111 M140,110L141,111 M149,110L150,111 M150,110L151,111 M158,110L159,111 M159,110L160,111 M165,110L166,111 M166,110L167,111 M204,110L205,111 M205,110L206,111 M206,110L207,111 M207,110L208,111 M208,110L209,111 M209,110L210,111 M210,110L211,111 M101,111L102,112 M102,111L103,112 M139,111L140,112 M140,111L141,112 M149,111L150,112 M150,111L151,112 M156,111L157,112 M157,111L158,112 M158,111L159,112 M159,111L160,112 M160,111L161,112 M161,111L162,112 M162,111L163,112 M163,111L164,112 M164,111L165,112 M165,111L166,112 M166,111L167,112 M167,111L168,112 M201,111L202,112 M202,111L203,112 M203,111L204,112 M204,111L205,112 M205,111L206,112 M206,111L207,112 M208,111L209,112 M209,111L210,112 M101,112L102,113 M102,112L103,113 M139,112L140,113 M140,112L141,113 M149,112L150,113 M150,112L151,113 M152,112L153,113 M153,112L154,113 M154,112L155,113 M155,112L156,113 M156,112L157,113 M157,112L158,113 M158,112L159,113 M159,112L160,113 M160,112L161,113 M161,112L162,113 M162,112L163,113 M163,112L164,113 M164,112L165,113 M165,112L166,113 M166,112L167,113 M167,112L168,113 M199,112L200,113 M200,112L201,113 M201,112L202,113 M202,112L203,113 M203,112L204,113 M208,112L209,113 M209,112L210,113 M101,113L102,114 M102,113L103,114 M138,113L139,114 M139,113L140,114 M147,113L148,114 M148,113L149,114 M149,113L150,114 M150,113L151,114 M151,113L152,114 M152,113L153,114 M153,113L154,114 M154,113L155,114 M155,113L156,114 M156,113L157,114 M157,113L158,114 M165,113L166,114 M166,113L167,114 M196,113L197,114 M197,113L198,114 M198,113L199,114 M199,113L200,114 M200,113L201,114 M207,113L208,114 M208,113L209,114 M209,113L210,114 M100,114L101,115 M101,114L102,115 M138,114L139,115 M139,114L140,115 M144,114L145,115 M145,114L146,115 M146,114L147,115 M147,114L148,115 M148,114L149,115 M149,114L150,115 M150,114L151,115 M151,114L152,115 M156,114L157,115 M157,114L158,115 M164,114L165,115 M165,114L166,115 M166,114L167,115 M194,114L195,115 M195,114L196,115 M196,114L197,115 M197,114L198,115 M198,114L199,115 M207,114L208,115 M208,114L209,115 M100,115L101,116 M101,115L102,116 M138,115L139,116 M139,115L140,116 M140,115L141,116 M141,115L142,116 M142,115L143,116 M143,115L144,116 M144,115L145,116 M145,115L146,116 M146,115L147,116 M147,115L148,116 M148,115L149,116 M149,115L150,116 M156,115L157,116 M157,115L158,116 M163,115L164,116 M164,115L165,116 M165,115L166,116 M166,115L167,116 M191,115L192,116 M192,115L193,116 M193,115L194,116 M194,115L195,116 M195,115L196,116 M196,115L197,116 M207,115L208,116 M208,115L209,116 M100,116L101,117 M101,116L102,117 M136,116L137,117 M137,116L138,117 M138,116L139,117 M139,116L140,117 M140,116L141,117 M141,116L142,117 M142,116L143,117 M143,116L144,117 M148,116L149,117 M149,116L150,117 M155,116L156,117 M156,116L157,117 M157,116L158,117 M162,116L163,117 M163,116L164,117 M164,116L165,117 M165,116L166,117 M189,116L190,117 M190,116L191,117 M191,116L192,117 M192,116L193,117 M193,116L194,117 M206,116L207,117 M207,116L208,117 M208,116L209,117 M100,117L101,118 M101,117L102,118 M133,117L134,118 M134,117L135,118 M135,117L136,118 M136,117L137,118 M137,117L138,118 M138,117L139,118 M139,117L140,118 M148,117L149,118 M149,117L150,118 M155,117L156,118 M156,117L157,118 M161,117L162,118 M162,117L163,118 M163,117L164,118 M164,117L165,118 M186,117L187,118 M187,117L188,118 M188,117L189,118 M189,117L190,118 M190,117L191,118 M191,117L192,118 M206,117L207,118 M207,117L208,118 M100,118L101,119 M101,118L102,119 M129,118L130,119 M130,118L131,119 M131,118L132,119 M132,118L133,119 M133,118L134,119 M134,118L135,119 M135,118L136,119 M136,118L137,119 M137,118L138,119 M138,118L139,119 M147,118L148,119 M148,118L149,119 M154,118L155,119 M155,118L156,119 M156,118L157,119 M160,118L161,119 M161,118L162,119 M162,118L163,119 M163,118L164,119 M184,118L185,119 M185,118L186,119 M186,118L187,119 M187,118L188,119 M188,118L189,119 M206,118L207,119 M207,118L208,119 M100,119L101,120 M101,119L102,120 M124,119L125,120 M125,119L126,120 M126,119L127,120 M127,119L128,120 M128,119L129,120 M129,119L130,120 M130,119L131,120 M131,119L132,120 M132,119L133,120 M136,119L137,120 M137,119L138,120 M138,119L139,120 M147,119L148,120 M148,119L149,120 M154,119L155,120 M155,119L156,120 M158,119L159,120 M159,119L160,120 M160,119L161,120 M161,119L162,120 M162,119L163,120 M182,119L183,120 M183,119L184,120 M184,119L185,120 M185,119L186,120 M186,119L187,120 M205,119L206,120 M206,119L207,120 M207,119L208,120 M100,120L101,121 M101,120L102,121 M118,120L119,121 M119,120L120,121 M120,120L121,121 M121,120L122,121 M122,120L123,121 M123,120L124,121 M124,120L125,121 M125,120L126,121 M126,120L127,121 M127,120L128,121 M128,120L129,121 M129,120L130,121 M136,120L137,121 M137,120L138,121 M146,120L147,121 M147,120L148,121 M148,120L149,121 M153,120L154,121 M154,120L155,121 M155,120L156,121 M157,120L158,121 M158,120L159,121 M159,120L160,121 M160,120L161,121 M161,120L162,121 M179,120L180,121 M180,120L181,121 M181,120L182,121 M182,120L183,121 M183,120L184,121 M205,120L206,121 M206,120L207,121 M100,121L101,122 M101,121L102,122 M102,121L103,122 M103,121L104,122 M104,121L105,122 M105,121L106,122 M106,121L107,122 M107,121L108,122 M108,121L109,122 M109,121L110,122 M110,121L111,122 M112,121L113,122 M113,121L114,122 M114,121L115,122 M115,121L116,122 M116,121L117,122 M117,121L118,122 M118,121L119,122 M119,121L120,122 M120,121L121,122 M121,121L122,122 M122,121L123,122 M123,121L124,122 M135,121L136,122 M136,121L137,122 M137,121L138,122 M146,121L147,122 M147,121L148,122 M153,121L154,122 M154,121L155,122 M156,121L157,122 M157,121L158,122 M158,121L159,122 M159,121L160,122 M160,121L161,122 M177,121L178,122 M178,121L179,122 M179,121L180,122 M180,121L181,122 M181,121L182,122 M205,121L206,122 M206,121L207,122 M101,122L102,123 M102,122L103,123 M103,122L104,123 M104,122L105,123 M105,122L106,123 M106,122L107,123 M107,122L108,123 M108,122L109,123 M109,122L110,123 M110,122L111,123 M111,122L112,123 M112,122L113,123 M113,122L114,123 M114,122L115,123 M115,122L116,123 M116,122L117,123 M117,122L118,123 M135,122L136,123 M136,122L137,123 M145,122L146,123 M146,122L147,123 M147,122L148,123 M153,122L154,123 M154,122L155,123 M158,122L159,123 M159,122L160,123 M160,122L161,123 M174,122L175,123 M175,122L176,123 M176,122L177,123 M177,122L178,123 M178,122L179,123 M179,122L180,123 M204,122L205,123 M205,122L206,123 M111,123L112,124 M112,123L113,124 M134,123L135,124 M135,123L136,124 M136,123L137,124 M144,123L145,124 M145,123L146,124 M146,123L147,124 M153,123L154,124 M154,123L155,124 M157,123L158,124 M158,123L159,124 M159,123L160,124 M172,123L173,124 M173,123L174,124 M174,123L175,124 M175,123L176,124 M176,123L177,124 M204,123L205,124 M205,123L206,124 M134,124L135,125 M135,124L136,125 M144,124L145,125 M145,124L146,125 M157,124L158,125 M158,124L159,125 M169,124L170,125 M170,124L171,125 M171,124L172,125 M172,124L173,125 M173,124L174,125 M174,124L175,125 M204,124L205,125 M205,124L206,125 M134,125L135,126 M135,125L136,126 M143,125L144,126 M144,125L145,126 M145,125L146,126 M156,125L157,126 M157,125L158,126 M167,125L168,126 M168,125L169,126 M169,125L170,126 M170,125L171,126 M171,125L172,126 M203,125L204,126 M204,125L205,126 M133,126L134,127 M134,126L135,127 M143,126L144,127 M144,126L145,127 M156,126L157,127 M157,126L158,127 M158,126L159,127 M159,126L160,127 M160,126L161,127 M161,126L162,127 M162,126L163,127 M163,126L164,127 M164,126L165,127 M165,126L166,127 M166,126L167,127 M167,126L168,127 M168,126L169,127 M169,126L170,127 M203,126L204,127 M204,126L205,127 M133,127L134,128 M134,127L135,128 M143,127L144,128 M144,127L145,128 M156,127L157,128 M157,127L158,128 M158,127L159,128 M159,127L160,128 M160,127L161,128 M161,127L162,128 M162,127L163,128 M163,127L164,128 M164,127L165,128 M165,127L166,128 M166,127L167,128 M203,127L204,128 M204,127L205,128 M132,128L133,129 M133,128L134,129 M134,128L135,129 M203,128L204,129 M204,128L205,129 M132,129L133,130 M133,129L134,130 M203,129L204,130 M204,129L205,130 M131,130L132,131 M132,130L133,131 M133,130L134,131 M202,130L203,131 M203,130L204,131 M131,131L132,132 M132,131L133,132 M202,131L203,132 M203,131L204,132 M130,132L131,133 M131,132L132,133 M132,132L133,133 M202,132L203,133 M203,132L204,133 M130,133L131,134 M131,133L132,134 M202,133L203,134 M203,133L204,134 M129,134L130,135 M130,134L131,135 M131,134L132,135 M202,134L203,135 M203,134L204,135 M129,135L130,136 M130,135L131,136 M202,135L203,136 M203,135L204,136 M128,136L129,137 M129,136L130,137 M201,136L202,137 M202,136L203,137 M127,137L128,138 M128,137L129,138 M129,137L130,138 M201,137L202,138 M202,137L203,138 M127,138L128,139 M128,138L129,139 M201,138L202,139 M202,138L203,139 M126,139L127,140 M127,139L128,140 M128,139L129,140 M201,139L202,140 M202,139L203,140 M125,140L126,141 M126,140L127,141 M127,140L128,141 M201,140L202,141 M202,140L203,141 M124,141L125,142 M125,141L126,142 M126,141L127,142 M201,141L202,142 M202,141L203,142 M124,142L125,143 M125,142L126,143 M201,142L202,143 M202,142L203,143 M123,143L124,144 M124,143L125,144 M200,143L201,144 M201,143L202,144 M122,144L123,145 M123,144L124,145 M124,144L125,145 M200,144L201,145 M201,144L202,145 M121,145L122,146 M122,145L123,146 M123,145L124,146 M200,145L201,146 M201,145L202,146 M120,146L121,147 M121,146L122,147 M122,146L123,147 M200,146L201,147 M201,146L202,147 M118,147L119,148 M119,147L120,148 M120,147L121,148 M121,147L122,148 M200,147L201,148 M201,147L202,148 M117,148L118,149 M118,148L119,149 M119,148L120,149 M200,148L201,149 M201,148L202,149 M115,149L116,150 M116,149L117,150 M117,149L118,150 M118,149L119,150 M199,149L200,150 M200,149L201,150 M114,150L115,151 M115,150L116,151 M116,150L117,151 M199,150L200,151 M200,150L201,151 M199,151L200,152 M200,151L201,152 M199,152L200,153 M200,152L201,153 M199,153L200,154 M200,153L201,154 M199,154L200,155 M200,154L201,155 M198,155L199,156 M199,155L200,156 M200,155L201,156 M198,156L199,157 M199,156L200,157 M198,157L199,158 M199,157L200,158 M198,158L199,159 M199,158L200,159 M198,159L199,160 M199,159L200,160 M198,160L199,161 M199,160L200,161 M198,161L199,162 M199,161L200,162 M197,162L198,163 M198,162L199,163 M197,163L198,164 M198,163L199,164 M197,164L198,165 M198,164L199,165 M197,165L198,166 M198,165L199,166 M197,166L198,167 M198,166L199,167 M197,167L198,168 M198,167L199,168 M196,168L197,169 M197,168L198,169 M196,169L197,170 M197,169L198,170 M196,170L197,171 M197,170L198,171 M196,171L197,172 M197,171L198,172 M196,172L197,173 M197,172L198,173 M196,173L197,174 M197,173L198,174 M196,174L197,175 M197,174L198,175 M196,175L197,176 M197,175L198,176 M195,176L196,177 M196,176L197,177 M195,177L196,178 M196,177L197,178 M195,178L196,179 M196,178L197,179 M195,179L196,180 M196,179L197,180 M195,180L196,181 M196,180L197,181 M195,181L196,182 M196,181L197,182 M195,182L196,183 M196,182L197,183 M195,183L196,184 M196,183L197,184 M194,184L195,185 M195,184L196,185 M194,185L195,186 M195,185L196,186 M194,186L195,187 M195,186L196,187 M194,187L195,188 M195,187L196,188 M194,188L195,189 M195,188L196,189 M194,189L195,190 M195,189L196,190 M194,190L195,191 M195,190L196,191 M194,191L195,192 M195,191L196,192 M194,192L195,193 M195,192L196,193 M193,193L194,194 M194,193L195,194 M193,194L194,195 M194,194L195,195 M193,195L194,196 M194,195L195,196 M193,196L194,197 M194,196L195,197 M193,197L194,198 M194,197L195,198 M193,198L194,199 M194,198L195,199 M193,199L194,200 M194,199L195,200 M193,200L194,201 M194,200L195,201 M192,201L193,202 M193,201L194,202 M192,202L193,203 M193,202L194,203 M192,203L193,204 M193,203L194,204 M192,204L193,205 M193,204L194,205 M192,205L193,206 M193,205L194,206 M192,206L193,207 M193,206L194,207 M192,207L193,208 M193,207L194,208 M192,208L193,209 M193,208L194,209 M191,209L192,210 M192,209L193,210 M191,210L192,211 M192,210L193,211 M191,211L192,212 M192,211L193,212 M191,212L192,213 M192,212L193,213 M191,213L192,214 M192,213L193,214" fill="none" stroke="black" />
    </svg>