<svg xmlns="http://www.w3.org/2000/svg" width="800" height="250">
        <path d="M602,8L603,9 M601,9L602,10 M602,9L603,10 M600,10L601,11 M601,10L602,11 M599,11L600,12 M600,11L601,12 M598,12L599,13 M599,12L600,13 M597,13L598,14 M598,13L599,14 M596,14L597,15 M597,14L598,15 M595,15L596,16 M596,15L597,16 M594,16L595,17 M595,16L596,17 M596,16L597,17 M593,17L594,18 M594,17L595,18 M595,17L596,18 M592,18L593,19 M593,18L594,19 M594,18L595,19 M591,19L592,20 M592,19L593,20 M593,19L594,20 M590,20L591,21 M591,20L592,21 M592,20L593,21 M201,21L202,22 M202,21L203,22 M203,21L204,22 M204,21L205,22 M205,21L206,22 M206,21L207,22 M207,21L208,22 M208,21L209,22 M209,21L210,22 M210,21L211,22 M211,21L212,22 M212,21L213,22 M589,21L590,22 M590,21L591,22 M591,21L592,22 M199,22L200,23 M200,22L201,23 M201,22L202,23 M202,22L203,23 M203,22L204,23 M204,22L205,23 M205,22L206,23 M206,22L207,23 M207,22L208,23 M208,22L209,23 M209,22L210,23 M210,22L211,23 M211,22L212,23 M212,22L213,23 M588,22L589,23 M589,22L590,23 M590,22L591,23 M197,23L198,24 M198,23L199,24 M199,23L200,24 M200,23L201,24 M201,23L202,24 M211,23L212,24 M212,23L213,24 M587,23L588,24 M588,23L589,24 M589,23L590,24 M195,24L196,25 M196,24L197,25 M197,24L198,25 M198,24L199,25 M210,24L211,25 M211,24L212,25 M586,24L587,25 M587,24L588,25 M588,24L589,25 M193,25L194,26 M194,25L195,26 M195,25L196,26 M196,25L197,26 M210,25L211,26 M211,25L212,26 M585,25L586,26 M586,25L587,26 M587,25L588,26 M190,26L191,27 M191,26L192,27 M192,26L193,27 M193,26L194,27 M194,26L195,27 M210,26L211,27 M211,26L212,27 M584,26L585,27 M585,26L586,27 M586,26L587,27 M188,27L189,28 M189,27L190,28 M190,27L191,28 M191,27L192,28 M192,27L193,28 M210,27L211,28 M211,27L212,28 M583,27L584,28 M584,27L585,28 M585,27L586,28 M186,28L187,29 M187,28L188,29 M188,28L189,29 M189,28L190,29 M190,28L191,29 M582,28L583,29 M583,28L584,29 M584,28L585,29 M184,29L185,30 M185,29L186,30 M186,29L187,30 M187,29L188,30 M188,29L189,30 M322,29L323,30 M323,29L324,30 M324,29L325,30 M581,29L582,30 M582,29L583,30 M583,29L584,30 M183,30L184,31 M184,30L185,31 M185,30L186,31 M186,30L187,31 M320,30L321,31 M321,30L322,31 M322,30L323,31 M323,30L324,31 M324,30L325,31 M580,30L581,31 M581,30L582,31 M582,30L583,31 M182,31L183,32 M183,31L184,32 M184,31L185,32 M319,31L320,32 M320,31L321,32 M321,31L322,32 M322,31L323,32 M579,31L580,32 M580,31L581,32 M581,31L582,32 M181,32L182,33 M182,32L183,33 M183,32L184,33 M317,32L318,33 M318,32L319,33 M319,32L320,33 M320,32L321,33 M321,32L322,33 M578,32L579,33 M579,32L580,33 M580,32L581,33 M180,33L181,34 M181,33L182,34 M182,33L183,34 M316,33L317,34 M317,33L318,34 M318,33L319,34 M319,33L320,34 M320,33L321,34 M577,33L578,34 M578,33L579,34 M579,33L580,34 M179,34L180,35 M180,34L181,35 M181,34L182,35 M314,34L315,35 M315,34L316,35 M316,34L317,35 M317,34L318,35 M318,34L319,35 M576,34L577,35 M577,34L578,35 M578,34L579,35 M178,35L179,36 M179,35L180,36 M180,35L181,36 M313,35L314,36 M314,35L315,36 M315,35L316,36 M316,35L317,36 M317,35L318,36 M575,35L576,36 M576,35L577,36 M577,35L578,36 M176,36L177,37 M177,36L178,37 M178,36L179,37 M311,36L312,37 M312,36L313,37 M313,36L314,37 M314,36L315,37 M315,36L316,37 M316,36L317,37 M574,36L575,37 M575,36L576,37 M576,36L577,37 M175,37L176,38 M176,37L177,38 M177,37L178,38 M309,37L310,38 M310,37L311,38 M311,37L312,38 M312,37L313,38 M313,37L314,38 M314,37L315,38 M315,37L316,38 M573,37L574,38 M574,37L575,38 M575,37L576,38 M174,38L175,39 M175,38L176,39 M176,38L177,39 M308,38L309,39 M309,38L310,39 M310,38L311,39 M311,38L312,39 M312,38L313,39 M313,38L314,39 M572,38L573,39 M573,38L574,39 M574,38L575,39 M173,39L174,40 M174,39L175,40 M175,39L176,40 M306,39L307,40 M307,39L308,40 M308,39L309,40 M309,39L310,40 M311,39L312,40 M312,39L313,40 M313,39L314,40 M571,39L572,40 M572,39L573,40 M573,39L574,40 M172,40L173,41 M173,40L174,41 M174,40L175,41 M305,40L306,41 M306,40L307,41 M307,40L308,41 M311,40L312,41 M312,40L313,41 M570,40L571,41 M571,40L572,41 M572,40L573,41 M171,41L172,42 M172,41L173,42 M173,41L174,42 M303,41L304,42 M304,41L305,42 M305,41L306,42 M306,41L307,42 M310,41L311,42 M311,41L312,42 M569,41L570,42 M570,41L571,42 M571,41L572,42 M170,42L171,43 M171,42L172,43 M172,42L173,43 M302,42L303,43 M303,42L304,43 M304,42L305,43 M309,42L310,43 M310,42L311,43 M311,42L312,43 M568,42L569,43 M569,42L570,43 M570,42L571,43 M168,43L169,44 M169,43L170,44 M170,43L171,44 M300,43L301,44 M301,43L302,44 M302,43L303,44 M303,43L304,44 M308,43L309,44 M309,43L310,44 M310,43L311,44 M567,43L568,44 M568,43L569,44 M569,43L570,44 M167,44L168,45 M168,44L169,45 M169,44L170,45 M298,44L299,45 M299,44L300,45 M300,44L301,45 M301,44L302,45 M308,44L309,45 M309,44L310,45 M566,44L567,45 M567,44L568,45 M568,44L569,45 M166,45L167,46 M167,45L168,46 M168,45L169,46 M297,45L298,46 M298,45L299,46 M299,45L300,46 M300,45L301,46 M307,45L308,46 M308,45L309,46 M565,45L566,46 M566,45L567,46 M567,45L568,46 M165,46L166,47 M166,46L167,47 M167,46L168,47 M295,46L296,47 M296,46L297,47 M297,46L298,47 M298,46L299,47 M306,46L307,47 M307,46L308,47 M308,46L309,47 M564,46L565,47 M565,46L566,47 M566,46L567,47 M164,47L165,48 M165,47L166,48 M166,47L167,48 M294,47L295,48 M295,47L296,48 M296,47L297,48 M306,47L307,48 M307,47L308,48 M563,47L564,48 M564,47L565,48 M565,47L566,48 M163,48L164,49 M164,48L165,49 M165,48L166,49 M292,48L293,49 M293,48L294,49 M294,48L295,49 M295,48L296,49 M305,48L306,49 M306,48L307,49 M562,48L563,49 M563,48L564,49 M564,48L565,49 M161,49L162,50 M162,49L163,50 M163,49L164,50 M164,49L165,50 M291,49L292,50 M292,49L293,50 M293,49L294,50 M304,49L305,50 M305,49L306,50 M306,49L307,50 M561,49L562,50 M562,49L563,50 M563,49L564,50 M160,50L161,51 M161,50L162,51 M162,50L163,51 M289,50L290,51 M290,50L291,51 M291,50L292,51 M292,50L293,51 M304,50L305,51 M305,50L306,51 M561,50L562,51 M562,50L563,51 M159,51L160,52 M160,51L161,52 M161,51L162,52 M287,51L288,52 M288,51L289,52 M289,51L290,52 M290,51L291,52 M303,51L304,52 M304,51L305,52 M560,51L561,52 M561,51L562,52 M158,52L159,53 M159,52L160,53 M160,52L161,53 M286,52L287,53 M287,52L288,53 M288,52L289,53 M289,52L290,53 M302,52L303,53 M303,52L304,53 M304,52L305,53 M558,52L559,53 M559,52L560,53 M560,52L561,53 M157,53L158,54 M158,53L159,54 M159,53L160,54 M284,53L285,54 M285,53L286,54 M286,53L287,54 M287,53L288,54 M302,53L303,54 M303,53L304,54 M557,53L558,54 M558,53L559,54 M559,53L560,54 M156,54L157,55 M157,54L158,55 M158,54L159,55 M283,54L284,55 M284,54L285,55 M285,54L286,55 M301,54L302,55 M302,54L303,55 M556,54L557,55 M557,54L558,55 M558,54L559,55 M155,55L156,56 M156,55L157,56 M157,55L158,56 M281,55L282,56 M282,55L283,56 M283,55L284,56 M284,55L285,56 M300,55L301,56 M301,55L302,56 M302,55L303,56 M555,55L556,56 M556,55L557,56 M557,55L558,56 M153,56L154,57 M154,56L155,57 M155,56L156,57 M279,56L280,57 M280,56L281,57 M281,56L282,57 M282,56L283,57 M299,56L300,57 M300,56L301,57 M301,56L302,57 M554,56L555,57 M555,56L556,57 M556,56L557,57 M152,57L153,58 M153,57L154,58 M154,57L155,58 M278,57L279,58 M279,57L280,58 M280,57L281,58 M281,57L282,58 M299,57L300,58 M300,57L301,58 M553,57L554,58 M554,57L555,58 M555,57L556,58 M151,58L152,59 M152,58L153,59 M153,58L154,59 M276,58L277,59 M277,58L278,59 M278,58L279,59 M279,58L280,59 M298,58L299,59 M299,58L300,59 M552,58L553,59 M553,58L554,59 M554,58L555,59 M150,59L151,60 M151,59L152,60 M152,59L153,60 M275,59L276,60 M276,59L277,60 M277,59L278,60 M297,59L298,60 M298,59L299,60 M299,59L300,60 M551,59L552,60 M552,59L553,60 M553,59L554,60 M149,60L150,61 M150,60L151,61 M151,60L152,61 M273,60L274,61 M274,60L275,61 M275,60L276,61 M276,60L277,61 M297,60L298,61 M298,60L299,61 M550,60L551,61 M551,60L552,61 M552,60L553,61 M148,61L149,62 M149,61L150,62 M150,61L151,62 M271,61L272,62 M272,61L273,62 M273,61L274,62 M274,61L275,62 M296,61L297,62 M297,61L298,62 M549,61L550,62 M550,61L551,62 M551,61L552,62 M146,62L147,63 M147,62L148,63 M148,62L149,63 M149,62L150,63 M270,62L271,63 M271,62L272,63 M272,62L273,63 M273,62L274,63 M295,62L296,63 M296,62L297,63 M297,62L298,63 M548,62L549,63 M549,62L550,63 M550,62L551,63 M145,63L146,64 M146,63L147,64 M147,63L148,64 M268,63L269,64 M269,63L270,64 M270,63L271,64 M271,63L272,64 M295,63L296,64 M296,63L297,64 M547,63L548,64 M548,63L549,64 M549,63L550,64 M144,64L145,65 M145,64L146,65 M146,64L147,65 M266,64L267,65 M267,64L268,65 M268,64L269,65 M269,64L270,65 M294,64L295,65 M295,64L296,65 M546,64L547,65 M547,64L548,65 M548,64L549,65 M143,65L144,66 M144,65L145,66 M145,65L146,66 M265,65L266,66 M266,65L267,66 M267,65L268,66 M268,65L269,66 M293,65L294,66 M294,65L295,66 M295,65L296,66 M545,65L546,66 M546,65L547,66 M547,65L548,66 M142,66L143,67 M143,66L144,67 M144,66L145,67 M263,66L264,67 M264,66L265,67 M265,66L266,67 M266,66L267,67 M293,66L294,67 M294,66L295,67 M389,66L390,67 M390,66L391,67 M391,66L392,67 M392,66L393,67 M393,66L394,67 M394,66L395,67 M395,66L396,67 M544,66L545,67 M545,66L546,67 M546,66L547,67 M141,67L142,68 M142,67L143,68 M143,67L144,68 M261,67L262,68 M262,67L263,68 M263,67L264,68 M264,67L265,68 M292,67L293,68 M293,67L294,68 M386,67L387,68 M387,67L388,68 M388,67L389,68 M389,67L390,68 M390,67L391,68 M391,67L392,68 M392,67L393,68 M393,67L394,68 M394,67L395,68 M395,67L396,68 M543,67L544,68 M544,67L545,68 M140,68L141,69 M141,68L142,69 M142,68L143,69 M260,68L261,69 M261,68L262,69 M262,68L263,69 M263,68L264,69 M291,68L292,69 M292,68L293,69 M293,68L294,69 M383,68L384,69 M384,68L385,69 M385,68L386,69 M386,68L387,69 M387,68L388,69 M388,68L389,69 M394,68L395,69 M395,68L396,69 M542,68L543,69 M543,68L544,69 M138,69L139,70 M139,69L140,70 M140,69L141,70 M258,69L259,70 M259,69L260,70 M260,69L261,70 M261,69L262,70 M290,69L291,70 M291,69L292,70 M292,69L293,70 M381,69L382,70 M382,69L383,70 M383,69L384,70 M384,69L385,70 M385,69L386,70 M394,69L395,70 M395,69L396,70 M540,69L541,70 M541,69L542,70 M542,69L543,70 M137,70L138,71 M138,70L139,71 M139,70L140,71 M256,70L257,71 M257,70L258,71 M258,70L259,71 M259,70L260,71 M290,70L291,71 M291,70L292,71 M378,70L379,71 M379,70L380,71 M380,70L381,71 M381,70L382,71 M382,70L383,71 M383,70L384,71 M393,70L394,71 M394,70L395,71 M539,70L540,71 M540,70L541,71 M541,70L542,71 M136,71L137,72 M137,71L138,72 M138,71L139,72 M255,71L256,72 M256,71L257,72 M257,71L258,72 M258,71L259,72 M289,71L290,72 M290,71L291,72 M375,71L376,72 M376,71L377,72 M377,71L378,72 M378,71L379,72 M379,71L380,72 M380,71L381,72 M393,71L394,72 M394,71L395,72 M538,71L539,72 M539,71L540,72 M540,71L541,72 M135,72L136,73 M136,72L137,73 M137,72L138,73 M253,72L254,73 M254,72L255,73 M255,72L256,73 M256,72L257,73 M288,72L289,73 M289,72L290,73 M290,72L291,73 M373,72L374,73 M374,72L375,73 M375,72L376,73 M376,72L377,73 M377,72L378,73 M393,72L394,73 M394,72L395,73 M537,72L538,73 M538,72L539,73 M539,72L540,73 M134,73L135,74 M135,73L136,74 M136,73L137,74 M251,73L252,74 M252,73L253,74 M253,73L254,74 M254,73L255,74 M288,73L289,74 M289,73L290,74 M370,73L371,74 M371,73L372,74 M372,73L373,74 M373,73L374,74 M374,73L375,74 M375,73L376,74 M393,73L394,74 M394,73L395,74 M536,73L537,74 M537,73L538,74 M538,73L539,74 M133,74L134,75 M134,74L135,75 M135,74L136,75 M250,74L251,75 M251,74L252,75 M252,74L253,75 M253,74L254,75 M287,74L288,75 M288,74L289,75 M368,74L369,75 M369,74L370,75 M370,74L371,75 M371,74L372,75 M372,74L373,75 M392,74L393,75 M393,74L394,75 M535,74L536,75 M536,74L537,75 M537,74L538,75 M131,75L132,76 M132,75L133,76 M133,75L134,76 M134,75L135,76 M248,75L249,76 M249,75L250,76 M250,75L251,76 M251,75L252,76 M286,75L287,76 M287,75L288,76 M288,75L289,76 M366,75L367,76 M367,75L368,76 M368,75L369,76 M369,75L370,76 M370,75L371,76 M392,75L393,76 M393,75L394,76 M534,75L535,76 M535,75L536,76 M536,75L537,76 M131,76L132,77 M132,76L133,77 M246,76L247,77 M247,76L248,77 M248,76L249,77 M249,76L250,77 M286,76L287,77 M287,76L288,77 M364,76L365,77 M365,76L366,77 M366,76L367,77 M367,76L368,77 M368,76L369,77 M392,76L393,77 M393,76L394,77 M489,76L490,77 M490,76L491,77 M491,76L492,77 M492,76L493,77 M493,76L494,77 M494,76L495,77 M495,76L496,77 M533,76L534,77 M534,76L535,77 M535,76L536,77 M130,77L131,78 M131,77L132,78 M132,77L133,78 M245,77L246,78 M246,77L247,78 M247,77L248,78 M248,77L249,78 M285,77L286,78 M286,77L287,78 M362,77L363,78 M363,77L364,78 M364,77L365,78 M365,77L366,78 M366,77L367,78 M391,77L392,78 M392,77L393,78 M482,77L483,78 M483,77L484,78 M484,77L485,78 M485,77L486,78 M486,77L487,78 M487,77L488,78 M488,77L489,78 M489,77L490,78 M490,77L491,78 M491,77L492,78 M492,77L493,78 M493,77L494,78 M494,77L495,78 M495,77L496,78 M496,77L497,78 M532,77L533,78 M533,77L534,78 M534,77L535,78 M129,78L130,79 M130,78L131,79 M131,78L132,79 M243,78L244,79 M244,78L245,79 M245,78L246,79 M246,78L247,79 M285,78L286,79 M286,78L287,79 M360,78L361,79 M361,78L362,79 M362,78L363,79 M363,78L364,79 M364,78L365,79 M391,78L392,79 M392,78L393,79 M479,78L480,79 M480,78L481,79 M481,78L482,79 M482,78L483,79 M483,78L484,79 M484,78L485,79 M485,78L486,79 M486,78L487,79 M487,78L488,79 M488,78L489,79 M495,78L496,79 M496,78L497,79 M531,78L532,79 M532,78L533,79 M533,78L534,79 M128,79L129,80 M129,79L130,80 M130,79L131,80 M241,79L242,80 M242,79L243,80 M243,79L244,80 M244,79L245,80 M284,79L285,80 M285,79L286,80 M358,79L359,80 M359,79L360,80 M360,79L361,80 M361,79L362,80 M362,79L363,80 M391,79L392,80 M392,79L393,80 M476,79L477,80 M477,79L478,80 M478,79L479,80 M479,79L480,80 M480,79L481,80 M481,79L482,80 M482,79L483,80 M495,79L496,80 M496,79L497,80 M497,79L498,80 M530,79L531,80 M531,79L532,80 M532,79L533,80 M128,80L129,81 M129,80L130,81 M240,80L241,81 M241,80L242,81 M242,80L243,81 M243,80L244,81 M284,80L285,81 M285,80L286,81 M356,80L357,81 M357,80L358,81 M358,80L359,81 M359,80L360,81 M360,80L361,81 M390,80L391,81 M391,80L392,81 M392,80L393,81 M472,80L473,81 M473,80L474,81 M474,80L475,81 M475,80L476,81 M476,80L477,81 M477,80L478,81 M478,80L479,81 M496,80L497,81 M497,80L498,81 M529,80L530,81 M530,80L531,81 M531,80L532,81 M127,81L128,82 M128,81L129,82 M238,81L239,82 M239,81L240,82 M240,81L241,82 M241,81L242,82 M283,81L284,82 M284,81L285,82 M354,81L355,82 M355,81L356,82 M356,81L357,82 M357,81L358,82 M358,81L359,82 M390,81L391,82 M391,81L392,82 M469,81L470,82 M470,81L471,82 M471,81L472,82 M472,81L473,82 M473,81L474,82 M474,81L475,82 M475,81L476,82 M496,81L497,82 M497,81L498,82 M528,81L529,82 M529,81L530,82 M530,81L531,82 M126,82L127,83 M127,82L128,83 M236,82L237,83 M237,82L238,83 M238,82L239,83 M239,82L240,83 M283,82L284,83 M284,82L285,83 M352,82L353,83 M353,82L354,83 M354,82L355,83 M355,82L356,83 M356,82L357,83 M390,82L391,83 M391,82L392,83 M465,82L466,83 M466,82L467,83 M467,82L468,83 M468,82L469,83 M469,82L470,83 M470,82L471,83 M471,82L472,83 M472,82L473,83 M497,82L498,83 M527,82L528,83 M528,82L529,83 M529,82L530,83 M125,83L126,84 M126,83L127,84 M127,83L128,84 M235,83L236,84 M236,83L237,84 M237,83L238,84 M238,83L239,84 M282,83L283,84 M283,83L284,84 M350,83L351,84 M351,83L352,84 M352,83L353,84 M353,83L354,84 M354,83L355,84 M390,83L391,84 M391,83L392,84 M462,83L463,84 M463,83L464,84 M464,83L465,84 M465,83L466,84 M466,83L467,84 M467,83L468,84 M468,83L469,84 M497,83L498,84 M526,83L527,84 M527,83L528,84 M528,83L529,84 M124,84L125,85 M125,84L126,85 M126,84L127,85 M233,84L234,85 M234,84L235,85 M235,84L236,85 M236,84L237,85 M282,84L283,85 M283,84L284,85 M348,84L349,85 M349,84L350,85 M350,84L351,85 M351,84L352,85 M352,84L353,85 M389,84L390,85 M390,84L391,85 M459,84L460,85 M460,84L461,85 M461,84L462,85 M462,84L463,85 M463,84L464,85 M464,84L465,85 M465,84L466,85 M497,84L498,85 M525,84L526,85 M526,84L527,85 M124,85L125,86 M125,85L126,86 M231,85L232,86 M232,85L233,86 M233,85L234,86 M234,85L235,86 M281,85L282,86 M282,85L283,86 M346,85L347,86 M347,85L348,86 M348,85L349,86 M349,85L350,86 M350,85L351,86 M388,85L389,86 M389,85L390,86 M390,85L391,86 M455,85L456,86 M456,85L457,86 M457,85L458,86 M458,85L459,86 M459,85L460,86 M460,85L461,86 M461,85L462,86 M497,85L498,86 M523,85L524,86 M524,85L525,86 M525,85L526,86 M123,86L124,87 M124,86L125,87 M230,86L231,87 M231,86L232,87 M232,86L233,87 M233,86L234,87 M281,86L282,87 M282,86L283,87 M344,86L345,87 M345,86L346,87 M346,86L347,87 M347,86L348,87 M348,86L349,87 M388,86L389,87 M389,86L390,87 M452,86L453,87 M453,86L454,87 M454,86L455,87 M455,86L456,87 M456,86L457,87 M457,86L458,87 M458,86L459,87 M497,86L498,87 M522,86L523,87 M523,86L524,87 M524,86L525,87 M122,87L123,88 M123,87L124,88 M228,87L229,88 M229,87L230,88 M230,87L231,88 M231,87L232,88 M280,87L281,88 M281,87L282,88 M342,87L343,88 M343,87L344,88 M344,87L345,88 M345,87L346,88 M346,87L347,88 M387,87L388,88 M388,87L389,88 M449,87L450,88 M450,87L451,88 M451,87L452,88 M452,87L453,88 M453,87L454,88 M454,87L455,88 M455,87L456,88 M496,87L497,88 M497,87L498,88 M521,87L522,88 M522,87L523,88 M523,87L524,88 M121,88L122,89 M122,88L123,89 M123,88L124,89 M226,88L227,89 M227,88L228,89 M228,88L229,89 M229,88L230,89 M280,88L281,89 M281,88L282,89 M340,88L341,89 M341,88L342,89 M342,88L343,89 M343,88L344,89 M344,88L345,89 M386,88L387,89 M387,88L388,89 M388,88L389,89 M446,88L447,89 M447,88L448,89 M448,88L449,89 M449,88L450,89 M450,88L451,89 M451,88L452,89 M496,88L497,89 M497,88L498,89 M520,88L521,89 M521,88L522,89 M522,88L523,89 M120,89L121,90 M121,89L122,90 M122,89L123,90 M225,89L226,90 M226,89L227,90 M227,89L228,90 M228,89L229,90 M279,89L280,90 M280,89L281,90 M281,89L282,90 M338,89L339,90 M339,89L340,90 M340,89L341,90 M341,89L342,90 M342,89L343,90 M386,89L387,90 M387,89L388,90 M444,89L445,90 M445,89L446,90 M446,89L447,90 M447,89L448,90 M448,89L449,90 M496,89L497,90 M497,89L498,90 M519,89L520,90 M520,89L521,90 M521,89L522,90 M119,90L120,91 M120,90L121,91 M121,90L122,91 M223,90L224,91 M224,90L225,91 M225,90L226,91 M226,90L227,91 M279,90L280,91 M280,90L281,91 M336,90L337,91 M337,90L338,91 M338,90L339,91 M339,90L340,91 M340,90L341,91 M385,90L386,91 M386,90L387,91 M441,90L442,91 M442,90L443,91 M443,90L444,91 M444,90L445,91 M445,90L446,91 M446,90L447,91 M495,90L496,91 M496,90L497,91 M518,90L519,91 M519,90L520,91 M520,90L521,91 M119,91L120,92 M120,91L121,92 M221,91L222,92 M222,91L223,92 M223,91L224,92 M224,91L225,92 M278,91L279,92 M279,91L280,92 M280,91L281,92 M335,91L336,92 M336,91L337,92 M337,91L338,92 M338,91L339,92 M384,91L385,92 M385,91L386,92 M386,91L387,92 M439,91L440,92 M440,91L441,92 M441,91L442,92 M442,91L443,92 M443,91L444,92 M495,91L496,92 M496,91L497,92 M516,91L517,92 M517,91L518,92 M518,91L519,92 M519,91L520,92 M118,92L119,93 M119,92L120,93 M219,92L220,93 M220,92L221,93 M221,92L222,93 M222,92L223,93 M223,92L224,93 M278,92L279,93 M279,92L280,93 M333,92L334,93 M334,92L335,93 M335,92L336,93 M336,92L337,93 M384,92L385,93 M385,92L386,93 M436,92L437,93 M437,92L438,93 M438,92L439,93 M439,92L440,93 M440,92L441,93 M441,92L442,93 M495,92L496,93 M496,92L497,93 M515,92L516,93 M516,92L517,93 M517,92L518,93 M117,93L118,94 M118,93L119,94 M119,93L120,94 M217,93L218,94 M218,93L219,94 M219,93L220,94 M220,93L221,94 M221,93L222,94 M277,93L278,94 M278,93L279,94 M279,93L280,94 M332,93L333,94 M333,93L334,94 M334,93L335,94 M335,93L336,94 M383,93L384,94 M384,93L385,94 M434,93L435,94 M435,93L436,94 M436,93L437,94 M437,93L438,94 M438,93L439,94 M494,93L495,94 M495,93L496,94 M514,93L515,94 M515,93L516,94 M516,93L517,94 M116,94L117,95 M117,94L118,95 M118,94L119,95 M215,94L216,95 M216,94L217,95 M217,94L218,95 M218,94L219,95 M277,94L278,95 M278,94L279,95 M331,94L332,95 M332,94L333,95 M333,94L334,95 M382,94L383,95 M383,94L384,95 M384,94L385,95 M431,94L432,95 M432,94L433,95 M433,94L434,95 M434,94L435,95 M435,94L436,95 M436,94L437,95 M494,94L495,95 M495,94L496,95 M513,94L514,95 M514,94L515,95 M515,94L516,95 M115,95L116,96 M116,95L117,96 M117,95L118,96 M213,95L214,96 M214,95L215,96 M215,95L216,96 M216,95L217,96 M276,95L277,96 M277,95L278,96 M278,95L279,96 M329,95L330,96 M330,95L331,96 M331,95L332,96 M332,95L333,96 M382,95L383,96 M383,95L384,96 M429,95L430,96 M430,95L431,96 M431,95L432,96 M432,95L433,96 M433,95L434,96 M494,95L495,96 M495,95L496,96 M512,95L513,96 M513,95L514,96 M514,95L515,96 M115,96L116,97 M116,96L117,97 M211,96L212,97 M212,96L213,97 M213,96L214,97 M214,96L215,97 M276,96L277,97 M277,96L278,97 M328,96L329,97 M329,96L330,97 M330,96L331,97 M381,96L382,97 M382,96L383,97 M383,96L384,97 M426,96L427,97 M427,96L428,97 M428,96L429,97 M429,96L430,97 M430,96L431,97 M493,96L494,97 M494,96L495,97 M495,96L496,97 M511,96L512,97 M512,96L513,97 M513,96L514,97 M114,97L115,98 M115,97L116,98 M208,97L209,98 M209,97L210,98 M210,97L211,98 M211,97L212,98 M212,97L213,98 M275,97L276,98 M276,97L277,98 M277,97L278,98 M326,97L327,98 M327,97L328,98 M328,97L329,98 M329,97L330,98 M380,97L381,98 M381,97L382,98 M382,97L383,98 M424,97L425,98 M425,97L426,98 M426,97L427,98 M427,97L428,98 M428,97L429,98 M493,97L494,98 M494,97L495,98 M509,97L510,98 M510,97L511,98 M511,97L512,98 M512,97L513,98 M113,98L114,99 M114,98L115,99 M115,98L116,99 M206,98L207,99 M207,98L208,99 M208,98L209,99 M209,98L210,99 M210,98L211,99 M275,98L276,99 M276,98L277,99 M325,98L326,99 M326,98L327,99 M327,98L328,99 M380,98L381,99 M381,98L382,99 M421,98L422,99 M422,98L423,99 M423,98L424,99 M424,98L425,99 M425,98L426,99 M493,98L494,99 M494,98L495,99 M508,98L509,99 M509,98L510,99 M510,98L511,99 M112,99L113,100 M113,99L114,100 M114,99L115,100 M204,99L205,100 M205,99L206,100 M206,99L207,100 M207,99L208,100 M208,99L209,100 M274,99L275,100 M275,99L276,100 M276,99L277,100 M323,99L324,100 M324,99L325,100 M325,99L326,100 M326,99L327,100 M379,99L380,100 M380,99L381,100 M381,99L382,100 M418,99L419,100 M419,99L420,100 M420,99L421,100 M421,99L422,100 M422,99L423,100 M423,99L424,100 M493,99L494,100 M494,99L495,100 M507,99L508,100 M508,99L509,100 M509,99L510,100 M111,100L112,101 M112,100L113,101 M113,100L114,101 M202,100L203,101 M203,100L204,101 M204,100L205,101 M205,100L206,101 M206,100L207,101 M274,100L275,101 M275,100L276,101 M322,100L323,101 M323,100L324,101 M324,100L325,101 M379,100L380,101 M380,100L381,101 M416,100L417,101 M417,100L418,101 M418,100L419,101 M419,100L420,101 M420,100L421,101 M492,100L493,101 M493,100L494,101 M506,100L507,101 M507,100L508,101 M508,100L509,101 M111,101L112,102 M112,101L113,102 M200,101L201,102 M201,101L202,102 M202,101L203,102 M203,101L204,102 M204,101L205,102 M274,101L275,102 M275,101L276,102 M320,101L321,102 M321,101L322,102 M322,101L323,102 M323,101L324,102 M378,101L379,102 M379,101L380,102 M413,101L414,102 M414,101L415,102 M415,101L416,102 M416,101L417,102 M417,101L418,102 M418,101L419,102 M492,101L493,102 M493,101L494,102 M505,101L506,102 M506,101L507,102 M507,101L508,102 M110,102L111,103 M111,102L112,103 M198,102L199,103 M199,102L200,103 M200,102L201,103 M201,102L202,103 M202,102L203,103 M273,102L274,103 M274,102L275,103 M319,102L320,103 M320,102L321,103 M321,102L322,103 M377,102L378,103 M378,102L379,103 M379,102L380,103 M411,102L412,103 M412,102L413,103 M413,102L414,103 M414,102L415,103 M415,102L416,103 M492,102L493,103 M493,102L494,103 M504,102L505,103 M505,102L506,103 M506,102L507,103 M109,103L110,104 M110,103L111,104 M111,103L112,104 M196,103L197,104 M197,103L198,104 M198,103L199,104 M199,103L200,104 M200,103L201,104 M273,103L274,104 M274,103L275,104 M317,103L318,104 M318,103L319,104 M319,103L320,104 M320,103L321,104 M377,103L378,104 M378,103L379,104 M408,103L409,104 M409,103L410,104 M410,103L411,104 M411,103L412,104 M412,103L413,104 M413,103L414,104 M491,103L492,104 M492,103L493,104 M502,103L503,104 M503,103L504,104 M504,103L505,104 M505,103L506,104 M108,104L109,105 M109,104L110,105 M110,104L111,105 M194,104L195,105 M195,104L196,105 M196,104L197,105 M197,104L198,105 M272,104L273,105 M273,104L274,105 M316,104L317,105 M317,104L318,105 M318,104L319,105 M376,104L377,105 M377,104L378,105 M406,104L407,105 M407,104L408,105 M408,104L409,105 M409,104L410,105 M410,104L411,105 M491,104L492,105 M492,104L493,105 M501,104L502,105 M502,104L503,105 M503,104L504,105 M107,105L108,106 M108,105L109,106 M109,105L110,106 M192,105L193,106 M193,105L194,106 M194,105L195,106 M195,105L196,106 M272,105L273,106 M273,105L274,106 M314,105L315,106 M315,105L316,106 M316,105L317,106 M317,105L318,106 M375,105L376,106 M376,105L377,106 M403,105L404,106 M404,105L405,106 M405,105L406,106 M406,105L407,106 M407,105L408,106 M408,105L409,106 M491,105L492,106 M492,105L493,106 M499,105L500,106 M500,105L501,106 M501,105L502,106 M502,105L503,106 M107,106L108,107 M108,106L109,107 M190,106L191,107 M191,106L192,107 M192,106L193,107 M193,106L194,107 M271,106L272,107 M272,106L273,107 M313,106L314,107 M314,106L315,107 M315,106L316,107 M374,106L375,107 M375,106L376,107 M376,106L377,107 M401,106L402,107 M402,106L403,107 M403,106L404,107 M404,106L405,107 M405,106L406,107 M491,106L492,107 M492,106L493,107 M497,106L498,107 M498,106L499,107 M499,106L500,107 M500,106L501,107 M106,107L107,108 M107,107L108,108 M187,107L188,108 M188,107L189,108 M189,107L190,108 M190,107L191,108 M191,107L192,108 M271,107L272,108 M272,107L273,108 M311,107L312,108 M312,107L313,108 M313,107L314,108 M314,107L315,108 M373,107L374,108 M374,107L375,108 M375,107L376,108 M398,107L399,108 M399,107L400,108 M400,107L401,108 M401,107L402,108 M402,107L403,108 M403,107L404,108 M491,107L492,108 M492,107L493,108 M493,107L494,108 M494,107L495,108 M495,107L496,108 M496,107L497,108 M497,107L498,108 M498,107L499,108 M105,108L106,109 M106,108L107,109 M107,108L108,109 M185,108L186,109 M186,108L187,109 M187,108L188,109 M188,108L189,109 M189,108L190,109 M270,108L271,109 M271,108L272,109 M310,108L311,109 M311,108L312,109 M312,108L313,109 M313,108L314,109 M372,108L373,109 M373,108L374,109 M374,108L375,109 M396,108L397,109 M397,108L398,109 M398,108L399,109 M399,108L400,109 M400,108L401,109 M491,108L492,109 M492,108L493,109 M493,108L494,109 M494,108L495,109 M495,108L496,109 M496,108L497,109 M497,108L498,109 M104,109L105,110 M105,109L106,110 M106,109L107,110 M183,109L184,110 M184,109L185,110 M185,109L186,110 M186,109L187,110 M187,109L188,110 M270,109L271,110 M271,109L272,110 M309,109L310,110 M310,109L311,110 M311,109L312,110 M371,109L372,110 M372,109L373,110 M373,109L374,110 M393,109L394,110 M394,109L395,110 M395,109L396,110 M396,109L397,110 M397,109L398,110 M103,110L104,111 M104,110L105,111 M105,110L106,111 M181,110L182,111 M182,110L183,111 M183,110L184,111 M184,110L185,111 M185,110L186,111 M269,110L270,111 M270,110L271,111 M307,110L308,111 M308,110L309,111 M309,110L310,111 M310,110L311,111 M371,110L372,111 M372,110L373,111 M391,110L392,111 M392,110L393,111 M393,110L394,111 M394,110L395,111 M395,110L396,111 M103,111L104,112 M104,111L105,112 M179,111L180,112 M180,111L181,112 M181,111L182,112 M182,111L183,112 M183,111L184,112 M269,111L270,112 M270,111L271,112 M306,111L307,112 M307,111L308,112 M308,111L309,112 M370,111L371,112 M371,111L372,112 M388,111L389,112 M389,111L390,112 M390,111L391,112 M391,111L392,112 M392,111L393,112 M102,112L103,113 M103,112L104,113 M177,112L178,113 M178,112L179,113 M179,112L180,113 M180,112L181,113 M181,112L182,113 M268,112L269,113 M269,112L270,113 M304,112L305,113 M305,112L306,113 M306,112L307,113 M307,112L308,113 M369,112L370,113 M370,112L371,113 M378,112L379,113 M379,112L380,113 M380,112L381,113 M381,112L382,113 M385,112L386,113 M386,112L387,113 M387,112L388,113 M388,112L389,113 M389,112L390,113 M390,112L391,113 M102,113L103,114 M103,113L104,114 M175,113L176,114 M176,113L177,114 M177,113L178,114 M178,113L179,114 M268,113L269,114 M269,113L270,114 M303,113L304,114 M304,113L305,114 M305,113L306,114 M368,113L369,114 M369,113L370,114 M370,113L371,114 M377,113L378,114 M378,113L379,114 M379,113L380,114 M380,113L381,114 M381,113L382,114 M383,113L384,114 M384,113L385,114 M385,113L386,114 M386,113L387,114 M387,113L388,114 M102,114L103,115 M103,114L104,115 M173,114L174,115 M174,114L175,115 M175,114L176,115 M176,114L177,115 M267,114L268,115 M268,114L269,115 M301,114L302,115 M302,114L303,115 M303,114L304,115 M304,114L305,115 M367,114L368,115 M368,114L369,115 M369,114L370,115 M375,114L376,115 M376,114L377,115 M377,114L378,115 M378,114L379,115 M379,114L380,115 M380,114L381,115 M381,114L382,115 M382,114L383,115 M383,114L384,115 M384,114L385,115 M385,114L386,115 M101,115L102,116 M102,115L103,116 M171,115L172,116 M172,115L173,116 M173,115L174,116 M174,115L175,116 M267,115L268,116 M268,115L269,116 M300,115L301,116 M301,115L302,116 M302,115L303,116 M366,115L367,116 M367,115L368,116 M368,115L369,116 M374,115L375,116 M375,115L376,116 M376,115L377,116 M379,115L380,116 M380,115L381,116 M381,115L382,116 M382,115L383,116 M383,115L384,116 M101,116L102,117 M102,116L103,117 M169,116L170,117 M170,116L171,117 M171,116L172,117 M172,116L173,117 M266,116L267,117 M267,116L268,117 M298,116L299,117 M299,116L300,117 M300,116L301,117 M301,116L302,117 M365,116L366,117 M366,116L367,117 M367,116L368,117 M372,116L373,117 M373,116L374,117 M374,116L375,117 M375,116L376,117 M378,116L379,117 M379,116L380,117 M380,116L381,117 M381,116L382,117 M101,117L102,118 M102,117L103,118 M166,117L167,118 M167,117L168,118 M168,117L169,118 M169,117L170,118 M170,117L171,118 M266,117L267,118 M267,117L268,118 M297,117L298,118 M298,117L299,118 M299,117L300,118 M365,117L366,118 M366,117L367,118 M370,117L371,118 M371,117L372,118 M372,117L373,118 M373,117L374,118 M377,117L378,118 M378,117L379,118 M379,117L380,118 M380,117L381,118 M100,118L101,119 M101,118L102,119 M164,118L165,119 M165,118L166,119 M166,118L167,119 M167,118L168,119 M168,118L169,119 M265,118L266,119 M266,118L267,119 M295,118L296,119 M296,118L297,119 M297,118L298,119 M298,118L299,119 M364,118L365,119 M365,118L366,119 M368,118L369,119 M369,118L370,119 M370,118L371,119 M371,118L372,119 M372,118L373,119 M375,118L376,119 M376,118L377,119 M377,118L378,119 M378,118L379,119 M379,118L380,119 M100,119L101,120 M101,119L102,120 M162,119L163,120 M163,119L164,120 M164,119L165,120 M165,119L166,120 M166,119L167,120 M265,119L266,120 M266,119L267,120 M294,119L295,120 M295,119L296,120 M296,119L297,120 M363,119L364,120 M364,119L365,120 M365,119L366,120 M366,119L367,120 M367,119L368,120 M368,119L369,120 M369,119L370,120 M370,119L371,120 M373,119L374,120 M374,119L375,120 M375,119L376,120 M376,119L377,120 M377,119L378,120 M378,119L379,120 M100,120L101,121 M101,120L102,121 M160,120L161,121 M161,120L162,121 M162,120L163,121 M163,120L164,121 M164,120L165,121 M264,120L265,121 M265,120L266,121 M292,120L293,121 M293,120L294,121 M294,120L295,121 M295,120L296,121 M363,120L364,121 M364,120L365,121 M365,120L366,121 M366,120L367,121 M367,120L368,121 M368,120L369,121 M372,120L373,121 M373,120L374,121 M374,120L375,121 M375,120L376,121 M376,120L377,121 M377,120L378,121 M99,121L100,122 M100,121L101,122 M157,121L158,122 M158,121L159,122 M159,121L160,122 M160,121L161,122 M161,121L162,122 M162,121L163,122 M264,121L265,122 M265,121L266,122 M291,121L292,122 M292,121L293,122 M293,121L294,122 M363,121L364,122 M364,121L365,122 M370,121L371,122 M371,121L372,122 M372,121L373,122 M373,121L374,122 M375,121L376,122 M376,121L377,122 M377,121L378,122 M99,122L100,123 M100,122L101,123 M154,122L155,123 M155,122L156,123 M156,122L157,123 M157,122L158,123 M158,122L159,123 M159,122L160,123 M263,122L264,123 M264,122L265,123 M289,122L290,123 M290,122L291,123 M291,122L292,123 M292,122L293,123 M368,122L369,123 M369,122L370,123 M370,122L371,123 M371,122L372,123 M374,122L375,123 M375,122L376,123 M376,122L377,123 M99,123L100,124 M100,123L101,124 M151,123L152,124 M152,123L153,124 M153,123L154,124 M154,123L155,124 M155,123L156,124 M156,123L157,124 M263,123L264,124 M264,123L265,124 M287,123L288,124 M288,123L289,124 M289,123L290,124 M290,123L291,124 M367,123L368,124 M368,123L369,124 M369,123L370,124 M370,123L371,124 M373,123L374,124 M374,123L375,124 M375,123L376,124 M98,124L99,125 M99,124L100,125 M148,124L149,125 M149,124L150,125 M150,124L151,125 M151,124L152,125 M152,124L153,125 M153,124L154,125 M262,124L263,125 M263,124L264,125 M286,124L287,125 M287,124L288,125 M288,124L289,125 M289,124L290,125 M365,124L366,125 M366,124L367,125 M367,124L368,125 M368,124L369,125 M372,124L373,125 M373,124L374,125 M374,124L375,125 M98,125L99,126 M99,125L100,126 M145,125L146,126 M146,125L147,126 M147,125L148,126 M148,125L149,126 M149,125L150,126 M150,125L151,126 M262,125L263,126 M263,125L264,126 M284,125L285,126 M285,125L286,126 M286,125L287,126 M287,125L288,126 M363,125L364,126 M364,125L365,126 M365,125L366,126 M366,125L367,126 M370,125L371,126 M371,125L372,126 M372,125L373,126 M373,125L374,126 M98,126L99,127 M99,126L100,127 M143,126L144,127 M144,126L145,127 M145,126L146,127 M146,126L147,127 M147,126L148,127 M148,126L149,127 M261,126L262,127 M262,126L263,127 M282,126L283,127 M283,126L284,127 M284,126L285,127 M285,126L286,127 M362,126L363,127 M363,126L364,127 M364,126L365,127 M365,126L366,127 M369,126L370,127 M370,126L371,127 M371,126L372,127 M98,127L99,128 M140,127L141,128 M141,127L142,128 M142,127L143,128 M143,127L144,128 M144,127L145,128 M145,127L146,128 M261,127L262,128 M262,127L263,128 M281,127L282,128 M282,127L283,128 M283,127L284,128 M284,127L285,128 M360,127L361,128 M361,127L362,128 M362,127L363,128 M363,127L364,128 M368,127L369,128 M369,127L370,128 M370,127L371,128 M98,128L99,129 M137,128L138,129 M138,128L139,129 M139,128L140,129 M140,128L141,129 M141,128L142,129 M142,128L143,129 M260,128L261,129 M261,128L262,129 M279,128L280,129 M280,128L281,129 M281,128L282,129 M282,128L283,129 M358,128L359,129 M359,128L360,129 M360,128L361,129 M361,128L362,129 M367,128L368,129 M368,128L369,129 M369,128L370,129 M98,129L99,130 M134,129L135,130 M135,129L136,130 M136,129L137,130 M137,129L138,130 M138,129L139,130 M139,129L140,130 M260,129L261,130 M261,129L262,130 M277,129L278,130 M278,129L279,130 M279,129L280,130 M280,129L281,130 M357,129L358,130 M358,129L359,130 M359,129L360,130 M360,129L361,130 M365,129L366,130 M366,129L367,130 M367,129L368,130 M98,130L99,131 M131,130L132,131 M132,130L133,131 M133,130L134,131 M134,130L135,131 M135,130L136,131 M136,130L137,131 M259,130L260,131 M260,130L261,131 M276,130L277,131 M277,130L278,131 M278,130L279,131 M279,130L280,131 M355,130L356,131 M356,130L357,131 M357,130L358,131 M358,130L359,131 M364,130L365,131 M365,130L366,131 M366,130L367,131 M98,131L99,132 M128,131L129,132 M129,131L130,132 M130,131L131,132 M131,131L132,132 M132,131L133,132 M133,131L134,132 M259,131L260,132 M260,131L261,132 M274,131L275,132 M275,131L276,132 M276,131L277,132 M277,131L278,132 M353,131L354,132 M354,131L355,132 M355,131L356,132 M356,131L357,132 M363,131L364,132 M364,131L365,132 M365,131L366,132 M98,132L99,133 M125,132L126,133 M126,132L127,133 M127,132L128,133 M128,132L129,133 M129,132L130,133 M130,132L131,133 M258,132L259,133 M259,132L260,133 M272,132L273,133 M273,132L274,133 M274,132L275,133 M275,132L276,133 M352,132L353,133 M353,132L354,133 M354,132L355,133 M355,132L356,133 M361,132L362,133 M362,132L363,133 M363,132L364,133 M364,132L365,133 M98,133L99,134 M99,133L100,134 M123,133L124,134 M124,133L125,134 M125,133L126,134 M126,133L127,134 M127,133L128,134 M128,133L129,134 M258,133L259,134 M259,133L260,134 M271,133L272,134 M272,133L273,134 M273,133L274,134 M274,133L275,134 M350,133L351,134 M351,133L352,134 M352,133L353,134 M353,133L354,134 M360,133L361,134 M361,133L362,134 M362,133L363,134 M98,134L99,135 M99,134L100,135 M100,134L101,135 M101,134L102,135 M102,134L103,135 M103,134L104,135 M104,134L105,135 M105,134L106,135 M106,134L107,135 M107,134L108,135 M108,134L109,135 M109,134L110,135 M110,134L111,135 M111,134L112,135 M112,134L113,135 M113,134L114,135 M114,134L115,135 M115,134L116,135 M116,134L117,135 M117,134L118,135 M118,134L119,135 M119,134L120,135 M120,134L121,135 M121,134L122,135 M122,134L123,135 M123,134L124,135 M124,134L125,135 M125,134L126,135 M257,134L258,135 M258,134L259,135 M259,134L260,135 M269,134L270,135 M270,134L271,135 M271,134L272,135 M272,134L273,135 M348,134L349,135 M349,134L350,135 M350,134L351,135 M351,134L352,135 M359,134L360,135 M360,134L361,135 M361,134L362,135 M100,135L101,136 M101,135L102,136 M102,135L103,136 M103,135L104,136 M104,135L105,136 M105,135L106,136 M106,135L107,136 M107,135L108,136 M108,135L109,136 M109,135L110,136 M110,135L111,136 M111,135L112,136 M112,135L113,136 M113,135L114,136 M114,135L115,136 M115,135L116,136 M116,135L117,136 M117,135L118,136 M118,135L119,136 M119,135L120,136 M120,135L121,136 M121,135L122,136 M122,135L123,136 M257,135L258,136 M258,135L259,136 M267,135L268,136 M268,135L269,136 M269,135L270,136 M270,135L271,136 M347,135L348,136 M348,135L349,136 M349,135L350,136 M350,135L351,136 M358,135L359,136 M359,135L360,136 M360,135L361,136 M256,136L257,137 M257,136L258,137 M258,136L259,137 M266,136L267,137 M267,136L268,137 M268,136L269,137 M269,136L270,137 M345,136L346,137 M346,136L347,137 M347,136L348,137 M348,136L349,137 M356,136L357,137 M357,136L358,137 M358,136L359,137 M359,136L360,137 M256,137L257,138 M257,137L258,138 M264,137L265,138 M265,137L266,138 M266,137L267,138 M267,137L268,138 M343,137L344,138 M344,137L345,138 M345,137L346,138 M346,137L347,138 M355,137L356,138 M356,137L357,138 M357,137L358,138 M256,138L257,139 M257,138L258,139 M260,138L261,139 M261,138L262,139 M262,138L263,139 M263,138L264,139 M264,138L265,139 M265,138L266,139 M342,138L343,139 M343,138L344,139 M344,138L345,139 M345,138L346,139 M354,138L355,139 M355,138L356,139 M356,138L357,139 M256,139L257,140 M257,139L258,140 M258,139L259,140 M259,139L260,140 M260,139L261,140 M261,139L262,140 M262,139L263,140 M263,139L264,140 M264,139L265,140 M340,139L341,140 M341,139L342,140 M342,139L343,140 M343,139L344,140 M352,139L353,140 M353,139L354,140 M354,139L355,140 M355,139L356,140 M256,140L257,141 M257,140L258,141 M258,140L259,141 M259,140L260,141 M338,140L339,141 M339,140L340,141 M340,140L341,141 M341,140L342,141 M351,140L352,141 M352,140L353,141 M353,140L354,141 M337,141L338,142 M338,141L339,142 M339,141L340,142 M340,141L341,142 M350,141L351,142 M351,141L352,142 M352,141L353,142 M335,142L336,143 M336,142L337,143 M337,142L338,143 M338,142L339,143 M349,142L350,143 M350,142L351,143 M351,142L352,143 M333,143L334,144 M334,143L335,144 M335,143L336,144 M336,143L337,144 M347,143L348,144 M348,143L349,144 M349,143L350,144 M350,143L351,144 M332,144L333,145 M333,144L334,145 M334,144L335,145 M335,144L336,145 M346,144L347,145 M347,144L348,145 M348,144L349,145 M330,145L331,146 M331,145L332,146 M332,145L333,146 M333,145L334,146 M345,145L346,146 M346,145L347,146 M347,145L348,146 M328,146L329,147 M329,146L330,147 M330,146L331,147 M331,146L332,147 M344,146L345,147 M345,146L346,147 M346,146L347,147 M327,147L328,148 M328,147L329,148 M329,147L330,148 M330,147L331,148 M342,147L343,148 M343,147L344,148 M344,147L345,148 M345,147L346,148 M325,148L326,149 M326,148L327,149 M327,148L328,149 M328,148L329,149 M341,148L342,149 M342,148L343,149 M343,148L344,149 M323,149L324,150 M324,149L325,150 M325,149L326,150 M326,149L327,150 M340,149L341,150 M341,149L342,150 M342,149L343,150 M322,150L323,151 M323,150L324,151 M324,150L325,151 M325,150L326,151 M338,150L339,151 M339,150L340,151 M340,150L341,151 M341,150L342,151 M320,151L321,152 M321,151L322,152 M322,151L323,152 M323,151L324,152 M337,151L338,152 M338,151L339,152 M339,151L340,152 M318,152L319,153 M319,152L320,153 M320,152L321,153 M321,152L322,153 M335,152L336,153 M336,152L337,153 M337,152L338,153 M338,152L339,153 M317,153L318,154 M318,153L319,154 M319,153L320,154 M320,153L321,154 M334,153L335,154 M335,153L336,154 M336,153L337,154 M315,154L316,155 M316,154L317,155 M317,154L318,155 M318,154L319,155 M332,154L333,155 M333,154L334,155 M334,154L335,155 M335,154L336,155 M314,155L315,156 M315,155L316,156 M316,155L317,156 M331,155L332,156 M332,155L333,156 M333,155L334,156 M312,156L313,157 M313,156L314,157 M314,156L315,157 M315,156L316,157 M329,156L330,157 M330,156L331,157 M331,156L332,157 M332,156L333,157 M310,157L311,158 M311,157L312,158 M312,157L313,158 M313,157L314,158 M328,157L329,158 M329,157L330,158 M330,157L331,158 M309,158L310,159 M310,158L311,159 M311,158L312,159 M312,158L313,159 M326,158L327,159 M327,158L328,159 M328,158L329,159 M329,158L330,159 M307,159L308,160 M308,159L309,160 M309,159L310,160 M310,159L311,160 M325,159L326,160 M326,159L327,160 M327,159L328,160 M306,160L307,161 M307,160L308,161 M308,160L309,161 M323,160L324,161 M324,160L325,161 M325,160L326,161 M326,160L327,161 M304,161L305,162 M305,161L306,162 M306,161L307,162 M307,161L308,162 M321,161L322,162 M322,161L323,162 M323,161L324,162 M324,161L325,162 M302,162L303,163 M303,162L304,163 M304,162L305,163 M305,162L306,163 M320,162L321,163 M321,162L322,163 M322,162L323,163 M323,162L324,163 M301,163L302,164 M302,163L303,164 M303,163L304,164 M304,163L305,164 M318,163L319,164 M319,163L320,164 M320,163L321,164 M321,163L322,164 M299,164L300,165 M300,164L301,165 M301,164L302,165 M302,164L303,165 M317,164L318,165 M318,164L319,165 M319,164L320,165 M320,164L321,165 M298,165L299,166 M299,165L300,166 M300,165L301,166 M315,165L316,166 M316,165L317,166 M317,165L318,166 M318,165L319,166 M296,166L297,167 M297,166L298,167 M298,166L299,167 M299,166L300,167 M314,166L315,167 M315,166L316,167 M316,166L317,167 M294,167L295,168 M295,167L296,168 M296,167L297,168 M297,167L298,168 M312,167L313,168 M313,167L314,168 M314,167L315,168 M315,167L316,168 M293,168L294,169 M294,168L295,169 M295,168L296,169 M296,168L297,169 M311,168L312,169 M312,168L313,169 M313,168L314,169 M291,169L292,170 M292,169L293,170 M293,169L294,170 M294,169L295,170 M309,169L310,170 M310,169L311,170 M311,169L312,170 M312,169L313,170 M290,170L291,171 M291,170L292,171 M292,170L293,171 M308,170L309,171 M309,170L310,171 M310,170L311,171 M288,171L289,172 M289,171L290,172 M290,171L291,172 M291,171L292,172 M306,171L307,172 M307,171L308,172 M308,171L309,172 M309,171L310,172 M286,172L287,173 M287,172L288,173 M288,172L289,173 M289,172L290,173 M305,172L306,173 M306,172L307,173 M307,172L308,173 M285,173L286,174 M286,173L287,174 M287,173L288,174 M288,173L289,174 M303,173L304,174 M304,173L305,174 M305,173L306,174 M306,173L307,174 M283,174L284,175 M284,174L285,175 M285,174L286,175 M286,174L287,175 M302,174L303,175 M303,174L304,175 M304,174L305,175 M282,175L283,176 M283,175L284,176 M284,175L285,176 M300,175L301,176 M301,175L302,176 M302,175L303,176 M303,175L304,176 M280,176L281,177 M281,176L282,177 M282,176L283,177 M283,176L284,177 M298,176L299,177 M299,176L300,177 M300,176L301,177 M301,176L302,177 M278,177L279,178 M279,177L280,178 M280,177L281,178 M281,177L282,178 M297,177L298,178 M298,177L299,178 M299,177L300,178 M300,177L301,178 M277,178L278,179 M278,178L279,179 M279,178L280,179 M280,178L281,179 M295,178L296,179 M296,178L297,179 M297,178L298,179 M298,178L299,179 M275,179L276,180 M276,179L277,180 M277,179L278,180 M278,179L279,180 M294,179L295,180 M295,179L296,180 M296,179L297,180 M297,179L298,180 M274,180L275,181 M275,180L276,181 M276,180L277,181 M292,180L293,181 M293,180L294,181 M294,180L295,181 M295,180L296,181 M272,181L273,182 M273,181L274,182 M274,181L275,182 M275,181L276,182 M290,181L291,182 M291,181L292,182 M292,181L293,182 M293,181L294,182 M271,182L272,183 M272,182L273,183 M273,182L274,183 M288,182L289,183 M289,182L290,183 M290,182L291,183 M291,182L292,183 M292,182L293,183 M269,183L270,184 M270,183L271,184 M271,183L272,184 M272,183L273,184 M286,183L287,184 M287,183L288,184 M288,183L289,184 M289,183L290,184 M290,183L291,184 M267,184L268,185 M268,184L269,185 M269,184L270,185 M270,184L271,185 M284,184L285,185 M285,184L286,185 M286,184L287,185 M287,184L288,185 M288,184L289,185 M266,185L267,186 M267,185L268,186 M268,185L269,186 M282,185L283,186 M283,185L284,186 M284,185L285,186 M285,185L286,186 M286,185L287,186 M265,186L266,187 M266,186L267,187 M267,186L268,187 M280,186L281,187 M281,186L282,187 M282,186L283,187 M283,186L284,187 M284,186L285,187 M264,187L265,188 M265,187L266,188 M266,187L267,188 M278,187L279,188 M279,187L280,188 M280,187L281,188 M281,187L282,188 M282,187L283,188 M263,188L264,189 M264,188L265,189 M265,188L266,189 M276,188L277,189 M277,188L278,189 M278,188L279,189 M279,188L280,189 M280,188L281,189 M262,189L263,190 M263,189L264,190 M264,189L265,190 M274,189L275,190 M275,189L276,190 M276,189L277,190 M277,189L278,190 M278,189L279,190 M260,190L261,191 M261,190L262,191 M262,190L263,191 M272,190L273,191 M273,190L274,191 M274,190L275,191 M275,190L276,191 M276,190L277,191 M259,191L260,192 M260,191L261,192 M261,191L262,192 M270,191L271,192 M271,191L272,192 M272,191L273,192 M273,191L274,192 M274,191L275,192 M258,192L259,193 M259,192L260,193 M260,192L261,193 M268,192L269,193 M269,192L270,193 M270,192L271,193 M271,192L272,193 M272,192L273,193 M257,193L258,194 M258,193L259,194 M259,193L260,194 M266,193L267,194 M267,193L268,194 M268,193L269,194 M269,193L270,194 M270,193L271,194 M256,194L257,195 M257,194L258,195 M258,194L259,195 M264,194L265,195 M265,194L266,195 M266,194L267,195 M267,194L268,195 M268,194L269,195 M254,195L255,196 M255,195L256,196 M256,195L257,196 M262,195L263,196 M263,195L264,196 M264,195L265,196 M265,195L266,196 M266,195L267,196 M253,196L254,197 M254,196L255,197 M255,196L256,197 M260,196L261,197 M261,196L262,197 M262,196L263,197 M263,196L264,197 M264,196L265,197 M252,197L253,198 M253,197L254,198 M254,197L255,198 M258,197L259,198 M259,197L260,198 M260,197L261,198 M261,197L262,198 M262,197L263,198 M251,198L252,199 M252,198L253,199 M253,198L254,199 M256,198L257,199 M257,198L258,199 M258,198L259,199 M259,198L260,199 M260,198L261,199 M250,199L251,200 M251,199L252,200 M252,199L253,200 M254,199L255,200 M255,199L256,200 M256,199L257,200 M257,199L258,200 M258,199L259,200 M248,200L249,201 M249,200L250,201 M250,200L251,201 M251,200L252,201 M252,200L253,201 M253,200L254,201 M254,200L255,201 M255,200L256,201 M256,200L257,201 M247,201L248,202 M248,201L249,202 M249,201L250,202 M250,201L251,202 M251,201L252,202 M252,201L253,202 M253,201L254,202 M254,201L255,202 M246,202L247,203 M247,202L248,203 M248,202L249,203 M249,202L250,203 M250,202L251,203 M251,202L252,203 M252,202L253,203 M245,203L246,204 M246,203L247,204 M247,203L248,204 M248,203L249,204 M249,203L250,204 M250,203L251,204 M243,204L244,205 M244,204L245,205 M245,204L246,205 M246,204L247,205 M247,204L248,205 M248,204L249,205 M242,205L243,206 M243,205L244,206 M244,205L245,206 M245,205L246,206 M242,206L243,207 M243,206L244,207" fill="none" stroke="black" />
    </svg>