<svg xmlns="http://www.w3.org/2000/svg" width="800" height="250">
        <path d="M438,48L439,49 M439,48L440,49 M440,48L441,49 M441,48L442,49 M442,48L443,49 M443,48L444,49 M444,48L445,49 M445,48L446,49 M446,48L447,49 M447,48L448,49 M448,48L449,49 M449,48L450,49 M450,48L451,49 M451,48L452,49 M452,48L453,49 M453,48L454,49 M454,48L455,49 M455,48L456,49 M456,48L457,49 M457,48L458,49 M458,48L459,49 M430,49L431,50 M431,49L432,50 M432,49L433,50 M433,49L434,50 M434,49L435,50 M435,49L436,50 M436,49L437,50 M437,49L438,50 M438,49L439,50 M439,49L440,50 M440,49L441,50 M441,49L442,50 M442,49L443,50 M443,49L444,50 M444,49L445,50 M445,49L446,50 M446,49L447,50 M447,49L448,50 M448,49L449,50 M449,49L450,50 M450,49L451,50 M451,49L452,50 M452,49L453,50 M453,49L454,50 M454,49L455,50 M455,49L456,50 M456,49L457,50 M457,49L458,50 M458,49L459,50 M459,49L460,50 M460,49L461,50 M461,49L462,50 M462,49L463,50 M463,49L464,50 M427,50L428,51 M428,50L429,51 M429,50L430,51 M430,50L431,51 M431,50L432,51 M432,50L433,51 M433,50L434,51 M434,50L435,51 M435,50L436,51 M436,50L437,51 M437,50L438,51 M458,50L459,51 M459,50L460,51 M460,50L461,51 M461,50L462,51 M462,50L463,51 M463,50L464,51 M464,50L465,51 M465,50L466,51 M424,51L425,52 M425,51L426,52 M426,51L427,52 M427,51L428,52 M428,51L429,52 M429,51L430,52 M430,51L431,52 M464,51L465,52 M465,51L466,52 M466,51L467,52 M422,52L423,53 M423,52L424,53 M424,52L425,53 M425,52L426,53 M426,52L427,53 M427,52L428,53 M465,52L466,53 M466,52L467,53 M419,53L420,54 M420,53L421,54 M421,53L422,54 M422,53L423,54 M423,53L424,54 M424,53L425,54 M465,53L466,54 M466,53L467,54 M416,54L417,55 M417,54L418,55 M418,54L419,55 M419,54L420,55 M420,54L421,55 M421,54L422,55 M465,54L466,55 M466,54L467,55 M413,55L414,56 M414,55L415,56 M415,55L416,56 M416,55L417,56 M417,55L418,56 M418,55L419,56 M464,55L465,56 M465,55L466,56 M466,55L467,56 M410,56L411,57 M411,56L412,57 M412,56L413,57 M413,56L414,57 M414,56L415,57 M415,56L416,57 M464,56L465,57 M465,56L466,57 M407,57L408,58 M408,57L409,58 M409,57L410,58 M410,57L411,58 M411,57L412,58 M412,57L413,58 M463,57L464,58 M464,57L465,58 M465,57L466,58 M404,58L405,59 M405,58L406,59 M406,58L407,59 M407,58L408,59 M408,58L409,59 M409,58L410,59 M463,58L464,59 M464,58L465,59 M402,59L403,60 M403,59L404,60 M404,59L405,60 M405,59L406,60 M406,59L407,60 M462,59L463,60 M463,59L464,60 M464,59L465,60 M400,60L401,61 M401,60L402,61 M402,60L403,61 M403,60L404,61 M462,60L463,61 M463,60L464,61 M397,61L398,62 M398,61L399,62 M399,61L400,62 M400,61L401,62 M401,61L402,62 M461,61L462,62 M462,61L463,62 M463,61L464,62 M395,62L396,63 M396,62L397,63 M397,62L398,63 M398,62L399,63 M399,62L400,63 M461,62L462,63 M462,62L463,63 M393,63L394,64 M394,63L395,64 M395,63L396,64 M396,63L397,64 M397,63L398,64 M460,63L461,64 M461,63L462,64 M391,64L392,65 M392,64L393,65 M393,64L394,65 M394,64L395,65 M395,64L396,65 M460,64L461,65 M461,64L462,65 M389,65L390,66 M390,65L391,66 M391,65L392,66 M392,65L393,66 M393,65L394,66 M459,65L460,66 M460,65L461,66 M387,66L388,67 M388,66L389,67 M389,66L390,67 M390,66L391,67 M459,66L460,67 M460,66L461,67 M386,67L387,68 M387,67L388,68 M388,67L389,68 M458,67L459,68 M459,67L460,68 M384,68L385,69 M385,68L386,69 M386,68L387,69 M387,68L388,69 M458,68L459,69 M459,68L460,69 M383,69L384,70 M384,69L385,70 M385,69L386,70 M457,69L458,70 M458,69L459,70 M381,70L382,71 M382,70L383,71 M383,70L384,71 M384,70L385,71 M456,70L457,71 M457,70L458,71 M458,70L459,71 M380,71L381,72 M381,71L382,72 M382,71L383,72 M455,71L456,72 M456,71L457,72 M457,71L458,72 M378,72L379,73 M379,72L380,73 M380,72L381,73 M381,72L382,73 M454,72L455,73 M455,72L456,73 M456,72L457,73 M377,73L378,74 M378,73L379,74 M379,73L380,74 M453,73L454,74 M454,73L455,74 M455,73L456,74 M375,74L376,75 M376,74L377,75 M377,74L378,75 M378,74L379,75 M452,74L453,75 M453,74L454,75 M454,74L455,75 M374,75L375,76 M375,75L376,76 M376,75L377,76 M451,75L452,76 M452,75L453,76 M453,75L454,76 M372,76L373,77 M373,76L374,77 M374,76L375,77 M375,76L376,77 M450,76L451,77 M451,76L452,77 M452,76L453,77 M371,77L372,78 M372,77L373,78 M373,77L374,78 M449,77L450,78 M450,77L451,78 M451,77L452,78 M369,78L370,79 M370,78L371,79 M371,78L372,79 M372,78L373,79 M448,78L449,79 M449,78L450,79 M450,78L451,79 M368,79L369,80 M369,79L370,80 M370,79L371,80 M447,79L448,80 M448,79L449,80 M449,79L450,80 M366,80L367,81 M367,80L368,81 M368,80L369,81 M369,80L370,81 M445,80L446,81 M446,80L447,81 M447,80L448,81 M448,80L449,81 M365,81L366,82 M366,81L367,82 M367,81L368,82 M443,81L444,82 M444,81L445,82 M445,81L446,82 M446,81L447,82 M363,82L364,83 M364,82L365,83 M365,82L366,83 M366,82L367,83 M441,82L442,83 M442,82L443,83 M443,82L444,83 M444,82L445,83 M362,83L363,84 M363,83L364,84 M364,83L365,84 M439,83L440,84 M440,83L441,84 M441,83L442,84 M442,83L443,84 M360,84L361,85 M361,84L362,85 M362,84L363,85 M363,84L364,85 M437,84L438,85 M438,84L439,85 M439,84L440,85 M440,84L441,85 M359,85L360,86 M360,85L361,86 M361,85L362,86 M435,85L436,86 M436,85L437,86 M437,85L438,86 M438,85L439,86 M357,86L358,87 M358,86L359,87 M359,86L360,87 M360,86L361,87 M433,86L434,87 M434,86L435,87 M435,86L436,87 M436,86L437,87 M356,87L357,88 M357,87L358,88 M358,87L359,88 M431,87L432,88 M432,87L433,88 M433,87L434,88 M434,87L435,88 M354,88L355,89 M355,88L356,89 M356,88L357,89 M357,88L358,89 M429,88L430,89 M430,88L431,89 M431,88L432,89 M432,88L433,89 M353,89L354,90 M354,89L355,90 M355,89L356,90 M427,89L428,90 M428,89L429,90 M429,89L430,90 M430,89L431,90 M351,90L352,91 M352,90L353,91 M353,90L354,91 M354,90L355,91 M425,90L426,91 M426,90L427,91 M427,90L428,91 M428,90L429,91 M350,91L351,92 M351,91L352,92 M352,91L353,92 M423,91L424,92 M424,91L425,92 M425,91L426,92 M426,91L427,92 M348,92L349,93 M349,92L350,93 M350,92L351,93 M351,92L352,93 M421,92L422,93 M422,92L423,93 M423,92L424,93 M424,92L425,93 M347,93L348,94 M348,93L349,94 M349,93L350,94 M419,93L420,94 M420,93L421,94 M421,93L422,94 M422,93L423,94 M345,94L346,95 M346,94L347,95 M347,94L348,95 M348,94L349,95 M417,94L418,95 M418,94L419,95 M419,94L420,95 M420,94L421,95 M345,95L346,96 M346,95L347,96 M415,95L416,96 M416,95L417,96 M417,95L418,96 M418,95L419,96 M344,96L345,97 M345,96L346,97 M413,96L414,97 M414,96L415,97 M415,96L416,97 M416,96L417,97 M343,97L344,98 M344,97L345,98 M411,97L412,98 M412,97L413,98 M413,97L414,98 M414,97L415,98 M342,98L343,99 M343,98L344,99 M344,98L345,99 M409,98L410,99 M410,98L411,99 M411,98L412,99 M412,98L413,99 M341,99L342,100 M342,99L343,100 M343,99L344,100 M407,99L408,100 M408,99L409,100 M409,99L410,100 M410,99L411,100 M340,100L341,101 M341,100L342,101 M342,100L343,101 M405,100L406,101 M406,100L407,101 M407,100L408,101 M408,100L409,101 M339,101L340,102 M340,101L341,102 M341,101L342,102 M403,101L404,102 M404,101L405,102 M405,101L406,102 M406,101L407,102 M339,102L340,103 M340,102L341,103 M401,102L402,103 M402,102L403,103 M403,102L404,103 M404,102L405,103 M338,103L339,104 M339,103L340,104 M399,103L400,104 M400,103L401,104 M401,103L402,104 M402,103L403,104 M337,104L338,105 M338,104L339,105 M339,104L340,105 M397,104L398,105 M398,104L399,105 M399,104L400,105 M400,104L401,105 M336,105L337,106 M337,105L338,106 M338,105L339,106 M395,105L396,106 M396,105L397,106 M397,105L398,106 M398,105L399,106 M335,106L336,107 M336,106L337,107 M337,106L338,107 M393,106L394,107 M394,106L395,107 M395,106L396,107 M396,106L397,107 M334,107L335,108 M335,107L336,108 M336,107L337,108 M390,107L391,108 M391,107L392,108 M392,107L393,108 M393,107L394,108 M394,107L395,108 M334,108L335,109 M335,108L336,109 M386,108L387,109 M387,108L388,109 M388,108L389,109 M389,108L390,109 M390,108L391,109 M391,108L392,109 M392,108L393,109 M333,109L334,110 M334,109L335,110 M383,109L384,110 M384,109L385,110 M385,109L386,110 M386,109L387,110 M387,109L388,110 M388,109L389,110 M389,109L390,110 M332,110L333,111 M333,110L334,111 M379,110L380,111 M380,110L381,111 M381,110L382,111 M382,110L383,111 M383,110L384,111 M384,110L385,111 M385,110L386,111 M331,111L332,112 M332,111L333,112 M333,111L334,112 M375,111L376,112 M376,111L377,112 M377,111L378,112 M378,111L379,112 M379,111L380,112 M380,111L381,112 M381,111L382,112 M382,111L383,112 M330,112L331,113 M331,112L332,113 M332,112L333,113 M372,112L373,113 M373,112L374,113 M374,112L375,113 M375,112L376,113 M376,112L377,113 M377,112L378,113 M378,112L379,113 M329,113L330,114 M330,113L331,114 M331,113L332,114 M368,113L369,114 M369,113L370,114 M370,113L371,114 M371,113L372,114 M372,113L373,114 M373,113L374,114 M374,113L375,114 M375,113L376,114 M328,114L329,115 M329,114L330,115 M330,114L331,115 M365,114L366,115 M366,114L367,115 M367,114L368,115 M368,114L369,115 M369,114L370,115 M370,114L371,115 M371,114L372,115 M328,115L329,116 M329,115L330,116 M361,115L362,116 M362,115L363,116 M363,115L364,116 M364,115L365,116 M365,115L366,116 M366,115L367,116 M367,115L368,116 M368,115L369,116 M328,116L329,117 M329,116L330,117 M358,116L359,117 M359,116L360,117 M360,116L361,117 M361,116L362,117 M362,116L363,117 M363,116L364,117 M364,116L365,117 M328,117L329,118 M329,117L330,118 M354,117L355,118 M355,117L356,118 M356,117L357,118 M357,117L358,118 M358,117L359,118 M359,117L360,118 M360,117L361,118 M327,118L328,119 M328,118L329,119 M350,118L351,119 M351,118L352,119 M352,118L353,119 M353,118L354,119 M354,118L355,119 M355,118L356,119 M356,118L357,119 M357,118L358,119 M327,119L328,120 M328,119L329,120 M347,119L348,120 M348,119L349,120 M349,119L350,120 M350,119L351,120 M351,119L352,120 M352,119L353,120 M353,119L354,120 M327,120L328,121 M328,120L329,121 M343,120L344,121 M344,120L345,121 M345,120L346,121 M346,120L347,121 M347,120L348,121 M348,120L349,121 M349,120L350,121 M350,120L351,121 M326,121L327,122 M327,121L328,122 M328,121L329,122 M340,121L341,122 M341,121L342,122 M342,121L343,122 M343,121L344,122 M344,121L345,122 M345,121L346,122 M346,121L347,122 M326,122L327,123 M327,122L328,123 M336,122L337,123 M337,122L338,123 M338,122L339,123 M339,122L340,123 M340,122L341,123 M341,122L342,123 M342,122L343,123 M326,123L327,124 M327,123L328,124 M332,123L333,124 M333,123L334,124 M334,123L335,124 M335,123L336,124 M336,123L337,124 M337,123L338,124 M338,123L339,124 M339,123L340,124 M326,124L327,125 M327,124L328,125 M329,124L330,125 M330,124L331,125 M331,124L332,125 M332,124L333,125 M333,124L334,125 M334,124L335,125 M335,124L336,125 M325,125L326,126 M326,125L327,126 M327,125L328,126 M328,125L329,126 M329,125L330,126 M330,125L331,126 M331,125L332,126 M332,125L333,126 M321,126L322,127 M322,126L323,127 M323,126L324,127 M324,126L325,127 M325,126L326,127 M326,126L327,127 M327,126L328,127 M328,126L329,127 M315,127L316,128 M316,127L317,128 M317,127L318,128 M318,127L319,128 M319,127L320,128 M320,127L321,128 M321,127L322,128 M322,127L323,128 M323,127L324,128 M324,127L325,128 M325,127L326,128 M326,127L327,128 M310,128L311,129 M311,128L312,129 M312,128L313,129 M313,128L314,129 M314,128L315,129 M315,128L316,129 M316,128L317,129 M317,128L318,129 M318,128L319,129 M319,128L320,129 M320,128L321,129 M324,128L325,129 M325,128L326,129 M305,129L306,130 M306,129L307,130 M307,129L308,130 M308,129L309,130 M309,129L310,130 M310,129L311,130 M311,129L312,130 M312,129L313,130 M313,129L314,130 M314,129L315,130 M324,129L325,130 M325,129L326,130 M299,130L300,131 M300,130L301,131 M301,130L302,131 M302,130L303,131 M303,130L304,131 M304,130L305,131 M305,130L306,131 M306,130L307,131 M307,130L308,131 M308,130L309,131 M309,130L310,131 M324,130L325,131 M325,130L326,131 M294,131L295,132 M295,131L296,132 M296,131L297,132 M297,131L298,132 M298,131L299,132 M299,131L300,132 M300,131L301,132 M301,131L302,132 M302,131L303,132 M303,131L304,132 M304,131L305,132 M323,131L324,132 M324,131L325,132 M325,131L326,132 M289,132L290,133 M290,132L291,133 M291,132L292,133 M292,132L293,133 M293,132L294,133 M294,132L295,133 M295,132L296,133 M296,132L297,133 M297,132L298,133 M298,132L299,133 M299,132L300,133 M324,132L325,133 M325,132L326,133 M284,133L285,134 M285,133L286,134 M286,133L287,134 M287,133L288,134 M288,133L289,134 M289,133L290,134 M290,133L291,134 M291,133L292,134 M292,133L293,134 M293,133L294,134 M324,133L325,134 M325,133L326,134 M278,134L279,135 M279,134L280,135 M280,134L281,135 M281,134L282,135 M282,134L283,135 M283,134L284,135 M284,134L285,135 M285,134L286,135 M286,134L287,135 M287,134L288,135 M288,134L289,135 M324,134L325,135 M325,134L326,135 M273,135L274,136 M274,135L275,136 M275,135L276,136 M276,135L277,136 M277,135L278,136 M278,135L279,136 M279,135L280,136 M280,135L281,136 M281,135L282,136 M282,135L283,136 M283,135L284,136 M324,135L325,136 M325,135L326,136 M268,136L269,137 M269,136L270,137 M270,136L271,137 M271,136L272,137 M272,136L273,137 M273,136L274,137 M274,136L275,137 M275,136L276,137 M276,136L277,137 M277,136L278,137 M278,136L279,137 M324,136L325,137 M325,136L326,137 M264,137L265,138 M265,137L266,138 M266,137L267,138 M267,137L268,138 M268,137L269,138 M269,137L270,138 M270,137L271,138 M271,137L272,138 M272,137L273,138 M325,137L326,138 M326,137L327,138 M260,138L261,139 M261,138L262,139 M262,138L263,139 M263,138L264,139 M264,138L265,139 M265,138L266,139 M266,138L267,139 M267,138L268,139 M325,138L326,139 M326,138L327,139 M256,139L257,140 M257,139L258,140 M258,139L259,140 M259,139L260,140 M260,139L261,140 M261,139L262,140 M262,139L263,140 M263,139L264,140 M325,139L326,140 M326,139L327,140 M252,140L253,141 M253,140L254,141 M254,140L255,141 M255,140L256,141 M256,140L257,141 M257,140L258,141 M258,140L259,141 M259,140L260,141 M325,140L326,141 M326,140L327,141 M248,141L249,142 M249,141L250,142 M250,141L251,142 M251,141L252,142 M252,141L253,142 M253,141L254,142 M254,141L255,142 M255,141L256,142 M325,141L326,142 M326,141L327,142 M244,142L245,143 M245,142L246,143 M246,142L247,143 M247,142L248,143 M248,142L249,143 M249,142L250,143 M250,142L251,143 M251,142L252,143 M326,142L327,143 M327,142L328,143 M240,143L241,144 M241,143L242,144 M242,143L243,144 M243,143L244,144 M244,143L245,144 M245,143L246,144 M246,143L247,144 M247,143L248,144 M326,143L327,144 M327,143L328,144 M236,144L237,145 M237,144L238,145 M238,144L239,145 M239,144L240,145 M240,144L241,145 M241,144L242,145 M242,144L243,145 M243,144L244,145 M326,144L327,145 M327,144L328,145 M232,145L233,146 M233,145L234,146 M234,145L235,146 M235,145L236,146 M236,145L237,146 M237,145L238,146 M238,145L239,146 M239,145L240,146 M326,145L327,146 M327,145L328,146 M229,146L230,147 M230,146L231,147 M231,146L232,147 M232,146L233,147 M233,146L234,147 M234,146L235,147 M235,146L236,147 M236,146L237,147 M326,146L327,147 M327,146L328,147 M328,146L329,147 M227,147L228,148 M228,147L229,148 M229,147L230,148 M230,147L231,148 M231,147L232,148 M232,147L233,148 M327,147L328,148 M328,147L329,148 M329,147L330,148 M224,148L225,149 M225,148L226,149 M226,148L227,149 M227,148L228,149 M228,148L229,149 M229,148L230,149 M328,148L329,149 M329,148L330,149 M222,149L223,150 M223,149L224,150 M224,149L225,150 M225,149L226,150 M226,149L227,150 M329,149L330,150 M330,149L331,150 M219,150L220,151 M220,150L221,151 M221,150L222,151 M222,150L223,151 M223,150L224,151 M224,150L225,151 M330,150L331,151 M331,150L332,151 M217,151L218,152 M218,151L219,152 M219,151L220,152 M220,151L221,152 M221,151L222,152 M331,151L332,152 M332,151L333,152 M214,152L215,153 M215,152L216,153 M216,152L217,153 M217,152L218,153 M218,152L219,153 M219,152L220,153 M331,152L332,153 M332,152L333,153 M333,152L334,153 M212,153L213,154 M213,153L214,154 M214,153L215,154 M215,153L216,154 M216,153L217,154 M332,153L333,154 M333,153L334,154 M334,153L335,154 M210,154L211,155 M211,154L212,155 M212,154L213,155 M213,154L214,155 M214,154L215,155 M333,154L334,155 M334,154L335,155 M335,154L336,155 M208,155L209,156 M209,155L210,156 M210,155L211,156 M211,155L212,156 M334,155L335,156 M335,155L336,156 M336,155L337,156 M205,156L206,157 M206,156L207,157 M207,156L208,157 M208,156L209,157 M209,156L210,157 M335,156L336,157 M336,156L337,157 M337,156L338,157 M202,157L203,158 M203,157L204,158 M204,157L205,158 M205,157L206,158 M206,157L207,158 M207,157L208,158 M336,157L337,158 M337,157L338,158 M338,157L339,158 M202,158L203,159 M203,158L204,159 M204,158L205,159 M205,158L206,159 M337,158L338,159 M338,158L339,159 M339,158L340,159 M202,159L203,160 M203,159L204,160 M338,159L339,160 M339,159L340,160 M340,159L341,160 M339,160L340,161 M340,160L341,161 M341,160L342,161 M340,161L341,162 M341,161L342,162 M342,161L343,162 M343,161L344,162 M342,162L343,163 M343,162L344,163 M344,162L345,163 M345,162L346,163 M343,163L344,164 M344,163L345,164 M345,163L346,164 M346,163L347,164 M345,164L346,165 M346,164L347,165 M347,164L348,165 M348,164L349,165 M347,165L348,166 M348,165L349,166 M349,165L350,166 M350,165L351,166 M349,166L350,167 M350,166L351,167 M351,166L352,167 M352,166L353,167 M350,167L351,168 M351,167L352,168 M352,167L353,168 M353,167L354,168 M352,168L353,169 M353,168L354,169 M354,168L355,169 M355,168L356,169 M354,169L355,170 M355,169L356,170 M356,169L357,170 M357,169L358,170 M356,170L357,171 M357,170L358,171 M358,170L359,171 M359,170L360,171 M357,171L358,172 M358,171L359,172 M359,171L360,172 M360,171L361,172 M359,172L360,173 M360,172L361,173 M361,172L362,173 M362,172L363,173 M361,173L362,174 M362,173L363,174 M363,173L364,174 M364,173L365,174 M363,174L364,175 M364,174L365,175 M365,174L366,175 M366,174L367,175 M364,175L365,176 M365,175L366,176 M366,175L367,176 M367,175L368,176 M368,175L369,176 M366,176L367,177 M367,176L368,177 M368,176L369,177 M369,176L370,177 M368,177L369,178 M369,177L370,178 M370,177L371,178 M371,177L372,178 M370,178L371,179 M371,178L372,179 M372,178L373,179 M373,178L374,179 M372,179L373,180 M373,179L374,180 M374,179L375,180 M375,179L376,180 M374,180L375,181 M375,180L376,181 M376,180L377,181 M377,180L378,181 M375,181L376,182 M376,181L377,182 M377,181L378,182 M378,181L379,182 M379,181L380,182 M377,182L378,183 M378,182L379,183 M379,182L380,183 M380,182L381,183 M379,183L380,184 M380,183L381,184 M381,183L382,184 M382,183L383,184 M381,184L382,185 M382,184L383,185 M383,184L384,185 M384,184L385,185 M383,185L384,186 M384,185L385,186 M385,185L386,186 M386,185L387,186 M384,186L385,187 M385,186L386,187 M386,186L387,187 M387,186L388,187 M388,186L389,187 M386,187L387,188 M387,187L388,188 M388,187L389,188 M389,187L390,188 M388,188L389,189 M389,188L390,189 M390,188L391,189 M391,188L392,189 M390,189L391,190 M391,189L392,190 M392,189L393,190 M393,189L394,190 M392,190L393,191 M393,190L394,191 M394,190L395,191 M395,190L396,191 M393,191L394,192 M394,191L395,192 M395,191L396,192 M396,191L397,192 M395,192L396,193 M396,192L397,193 M397,192L398,193 M398,192L399,193 M397,193L398,194 M398,193L399,194 M399,193L400,194 M400,193L401,194 M399,194L400,195 M400,194L401,195 M401,194L402,195 M402,194L403,195 M400,195L401,196 M401,195L402,196 M402,195L403,196 M403,195L404,196 M402,196L403,197 M403,196L404,197 M404,196L405,197 M405,196L406,197 M404,197L405,198 M405,197L406,198 M406,197L407,198 M407,197L408,198 M405,198L406,199 M406,198L407,199 M407,198L408,199 M408,198L409,199 M407,199L408,200 M408,199L409,200 M409,199L410,200 M410,199L411,200 M409,200L410,201 M410,200L411,201 M411,200L412,201 M410,201L411,202 M411,201L412,202 M412,201L413,202 M411,202L412,203 M412,202L413,203 M413,202L414,203 M414,202L415,203 M413,203L414,204 M414,203L415,204 M415,203L416,204 M414,204L415,205 M415,204L416,205 M416,204L417,205 M415,205L416,206 M416,205L417,206 M417,205L418,206 M418,205L419,206 M417,206L418,207 M418,206L419,207 M419,206L420,207 M418,207L419,208 M419,207L420,208 M420,207L421,208 M419,208L420,209 M420,208L421,209 M421,208L422,209 M422,208L423,209 M421,209L422,210 M422,209L423,210 M423,209L424,210 M422,210L423,211 M423,210L424,211 M424,210L425,211 M423,211L424,212 M424,211L425,212 M425,211L426,212 M426,211L427,212 M425,212L426,213 M426,212L427,213 M426,213L427,214 M427,213L428,214 M426,214L427,215 M427,214L428,215 M426,215L427,216 M427,215L428,216 M428,215L429,216 M427,216L428,217 M428,216L429,217 M428,217L429,218 M428,218L429,219 M428,219L429,220 M428,220L429,221 M428,221L429,222 M427,222L428,223 M428,222L429,223 M428,223L429,224 M429,223L430,224 M428,224L429,225 M429,224L430,225 M428,225L429,226 M429,225L430,226 M428,226L429,227 M429,226L430,227 M428,227L429,228 M429,227L430,228 M429,228L430,229 M430,228L431,229 M429,229L430,230 M430,229L431,230 M429,230L430,231 M430,230L431,231 M429,231L430,232 M430,231L431,232 M429,232L430,233 M430,232L431,233 M429,233L430,234 M430,233L431,234 M430,234L431,235 M431,234L432,235 M430,235L431,236 M431,235L432,236 M430,236L431,237 M431,236L432,237 M430,237L431,238 M431,237L432,238 M430,238L431,239 M431,238L432,239 M430,239L431,240 M431,239L432,240 M430,240L431,241 M431,240L432,241 M431,241L432,242 M432,241L433,242 M431,242L432,243 M432,242L433,243 M431,243L432,244 M432,243L433,244 M431,244L432,245 M432,244L433,245 M431,245L432,246 M432,245L433,246 M431,246L432,247 M432,246L433,247 M431,247L432,248 M432,247L433,248" fill="none" stroke="black" />
    </svg>