<svg xmlns="http://www.w3.org/2000/svg" width="800" height="250">
        <path d="M461,113L462,114 M462,113L463,114 M463,113L464,114 M464,113L465,114 M465,113L466,114 M466,113L467,114 M467,113L468,114 M457,114L458,115 M458,114L459,115 M459,114L460,115 M460,114L461,115 M461,114L462,115 M462,114L463,115 M463,114L464,115 M464,114L465,115 M465,114L466,115 M466,114L467,115 M467,114L468,115 M468,114L469,115 M469,114L470,115 M470,114L471,115 M471,114L472,115 M472,114L473,115 M473,114L474,115 M474,114L475,115 M475,114L476,115 M476,114L477,115 M477,114L478,115 M478,114L479,115 M454,115L455,116 M455,115L456,116 M456,115L457,116 M457,115L458,116 M458,115L459,116 M459,115L460,116 M471,115L472,116 M472,115L473,116 M473,115L474,116 M474,115L475,116 M475,115L476,116 M476,115L477,116 M477,115L478,116 M478,115L479,116 M479,115L480,116 M452,116L453,117 M453,116L454,117 M454,116L455,117 M455,116L456,117 M479,116L480,117 M480,116L481,117 M450,117L451,118 M451,117L452,118 M452,117L453,118 M453,117L454,118 M479,117L480,118 M480,117L481,118 M449,118L450,119 M450,118L451,119 M451,118L452,119 M478,118L479,119 M479,118L480,119 M447,119L448,120 M448,119L449,120 M449,119L450,120 M478,119L479,120 M479,119L480,120 M445,120L446,121 M446,120L447,121 M447,120L448,121 M448,120L449,121 M478,120L479,121 M479,120L480,121 M444,121L445,122 M445,121L446,122 M446,121L447,122 M476,121L477,122 M477,121L478,122 M478,121L479,122 M443,122L444,123 M444,122L445,123 M475,122L476,123 M476,122L477,123 M477,122L478,123 M442,123L443,124 M443,123L444,124 M474,123L475,124 M475,123L476,124 M476,123L477,124 M441,124L442,125 M442,124L443,125 M472,124L473,125 M473,124L474,125 M474,124L475,125 M440,125L441,126 M441,125L442,126 M471,125L472,126 M472,125L473,126 M473,125L474,126 M439,126L440,127 M440,126L441,127 M441,126L442,127 M470,126L471,127 M471,126L472,127 M472,126L473,127 M438,127L439,128 M439,127L440,128 M440,127L441,128 M469,127L470,128 M470,127L471,128 M471,127L472,128 M437,128L438,129 M438,128L439,129 M439,128L440,129 M468,128L469,129 M469,128L470,129 M437,129L438,130 M438,129L439,130 M466,129L467,130 M467,129L468,130 M468,129L469,130 M436,130L437,131 M437,130L438,131 M464,130L465,131 M465,130L466,131 M466,130L467,131 M467,130L468,131 M435,131L436,132 M436,131L437,132 M463,131L464,132 M464,131L465,132 M465,131L466,132 M434,132L435,133 M435,132L436,133 M461,132L462,133 M462,132L463,133 M463,132L464,133 M464,132L465,133 M434,133L435,134 M435,133L436,134 M460,133L461,134 M461,133L462,134 M462,133L463,134 M433,134L434,135 M434,134L435,135 M458,134L459,135 M459,134L460,135 M460,134L461,135 M433,135L434,136 M456,135L457,136 M457,135L458,136 M458,135L459,136 M459,135L460,136 M432,136L433,137 M433,136L434,137 M455,136L456,137 M456,136L457,137 M457,136L458,137 M431,137L432,138 M432,137L433,138 M453,137L454,138 M454,137L455,138 M455,137L456,138 M456,137L457,138 M431,138L432,139 M432,138L433,139 M452,138L453,139 M453,138L454,139 M454,138L455,139 M430,139L431,140 M431,139L432,140 M450,139L451,140 M451,139L452,140 M452,139L453,140 M430,140L431,141 M431,140L432,141 M448,140L449,141 M449,140L450,141 M450,140L451,141 M451,140L452,141 M429,141L430,142 M430,141L431,142 M445,141L446,142 M446,141L447,142 M447,141L448,142 M448,141L449,142 M449,141L450,142 M429,142L430,143 M442,142L443,143 M443,142L444,143 M444,142L445,143 M445,142L446,143 M446,142L447,143 M447,142L448,143 M428,143L429,144 M429,143L430,144 M440,143L441,144 M441,143L442,144 M442,143L443,144 M443,143L444,144 M444,143L445,144 M427,144L428,145 M428,144L429,145 M437,144L438,145 M438,144L439,145 M439,144L440,145 M440,144L441,145 M441,144L442,145 M427,145L428,146 M428,145L429,146 M434,145L435,146 M435,145L436,146 M436,145L437,146 M437,145L438,146 M438,145L439,146 M426,146L427,147 M427,146L428,147 M431,146L432,147 M432,146L433,147 M433,146L434,147 M434,146L435,147 M435,146L436,147 M436,146L437,147 M426,147L427,148 M427,147L428,148 M428,147L429,148 M429,147L430,148 M430,147L431,148 M431,147L432,148 M432,147L433,148 M433,147L434,148 M425,148L426,149 M426,148L427,149 M427,148L428,149 M428,148L429,149 M429,148L430,149 M430,148L431,149 M422,149L423,150 M423,149L424,150 M424,149L425,150 M425,149L426,150 M426,149L427,150 M427,149L428,150 M418,150L419,151 M419,150L420,151 M420,150L421,151 M421,150L422,151 M422,150L423,151 M423,150L424,151 M424,150L425,151 M425,150L426,151 M412,151L413,152 M413,151L414,152 M414,151L415,152 M415,151L416,152 M416,151L417,152 M417,151L418,152 M418,151L419,152 M419,151L420,152 M420,151L421,152 M421,151L422,152 M423,151L424,152 M424,151L425,152 M407,152L408,153 M408,152L409,153 M409,152L410,153 M410,152L411,153 M411,152L412,153 M412,152L413,153 M413,152L414,153 M414,152L415,153 M415,152L416,153 M416,152L417,153 M423,152L424,153 M424,152L425,153 M401,153L402,154 M402,153L403,154 M403,153L404,154 M404,153L405,154 M405,153L406,154 M406,153L407,154 M407,153L408,154 M408,153L409,154 M409,153L410,154 M410,153L411,154 M422,153L423,154 M423,153L424,154 M396,154L397,155 M397,154L398,155 M398,154L399,155 M399,154L400,155 M400,154L401,155 M401,154L402,155 M402,154L403,155 M403,154L404,155 M404,154L405,155 M422,154L423,155 M423,154L424,155 M245,155L246,156 M246,155L247,156 M247,155L248,156 M390,155L391,156 M391,155L392,156 M392,155L393,156 M393,155L394,156 M394,155L395,156 M395,155L396,156 M396,155L397,156 M397,155L398,156 M398,155L399,156 M399,155L400,156 M421,155L422,156 M422,155L423,156 M245,156L246,157 M246,156L247,157 M247,156L248,157 M248,156L249,157 M249,156L250,157 M250,156L251,157 M385,156L386,157 M386,156L387,157 M387,156L388,157 M388,156L389,157 M389,156L390,157 M390,156L391,157 M391,156L392,157 M392,156L393,157 M393,156L394,157 M394,156L395,157 M421,156L422,157 M249,157L250,158 M250,157L251,158 M251,157L252,158 M252,157L253,158 M380,157L381,158 M381,157L382,158 M382,157L383,158 M383,157L384,158 M384,157L385,158 M385,157L386,158 M386,157L387,158 M387,157L388,158 M388,157L389,158 M420,157L421,158 M421,157L422,158 M251,158L252,159 M252,158L253,159 M253,158L254,159 M254,158L255,159 M255,158L256,159 M375,158L376,159 M376,158L377,159 M377,158L378,159 M378,158L379,159 M379,158L380,159 M380,158L381,159 M381,158L382,159 M382,158L383,159 M383,158L384,159 M419,158L420,159 M420,158L421,159 M254,159L255,160 M255,159L256,160 M256,159L257,160 M257,159L258,160 M258,159L259,160 M259,159L260,160 M260,159L261,160 M261,159L262,160 M262,159L263,160 M263,159L264,160 M264,159L265,160 M369,159L370,160 M370,159L371,160 M371,159L372,160 M372,159L373,160 M373,159L374,160 M374,159L375,160 M375,159L376,160 M376,159L377,160 M377,159L378,160 M378,159L379,160 M419,159L420,160 M420,159L421,160 M257,160L258,161 M258,160L259,161 M259,160L260,161 M260,160L261,161 M261,160L262,161 M262,160L263,161 M263,160L264,161 M264,160L265,161 M265,160L266,161 M266,160L267,161 M267,160L268,161 M268,160L269,161 M363,160L364,161 M364,160L365,161 M365,160L366,161 M366,160L367,161 M367,160L368,161 M368,160L369,161 M369,160L370,161 M370,160L371,161 M371,160L372,161 M372,160L373,161 M373,160L374,161 M418,160L419,161 M419,160L420,161 M266,161L267,162 M267,161L268,162 M268,161L269,162 M269,161L270,162 M270,161L271,162 M271,161L272,162 M272,161L273,162 M273,161L274,162 M274,161L275,162 M275,161L276,162 M276,161L277,162 M277,161L278,162 M278,161L279,162 M279,161L280,162 M280,161L281,162 M281,161L282,162 M282,161L283,162 M283,161L284,162 M284,161L285,162 M285,161L286,162 M286,161L287,162 M287,161L288,162 M356,161L357,162 M357,161L358,162 M358,161L359,162 M359,161L360,162 M360,161L361,162 M361,161L362,162 M362,161L363,162 M363,161L364,162 M364,161L365,162 M365,161L366,162 M366,161L367,162 M367,161L368,162 M418,161L419,162 M419,161L420,162 M270,162L271,163 M271,162L272,163 M272,162L273,163 M273,162L274,163 M274,162L275,163 M275,162L276,163 M276,162L277,163 M277,162L278,163 M278,162L279,163 M279,162L280,163 M280,162L281,163 M281,162L282,163 M282,162L283,163 M283,162L284,163 M284,162L285,163 M285,162L286,163 M286,162L287,163 M287,162L288,163 M288,162L289,163 M289,162L290,163 M290,162L291,163 M291,162L292,163 M292,162L293,163 M293,162L294,163 M294,162L295,163 M295,162L296,163 M296,162L297,163 M297,162L298,163 M298,162L299,163 M299,162L300,163 M300,162L301,163 M301,162L302,163 M302,162L303,163 M303,162L304,163 M304,162L305,163 M305,162L306,163 M306,162L307,163 M307,162L308,163 M308,162L309,163 M309,162L310,163 M349,162L350,163 M350,162L351,163 M351,162L352,163 M352,162L353,163 M353,162L354,163 M354,162L355,163 M355,162L356,163 M356,162L357,163 M357,162L358,163 M358,162L359,163 M359,162L360,163 M360,162L361,163 M361,162L362,163 M418,162L419,163 M419,162L420,163 M292,163L293,164 M293,163L294,164 M294,163L295,164 M295,163L296,164 M296,163L297,164 M297,163L298,164 M298,163L299,164 M299,163L300,164 M300,163L301,164 M301,163L302,164 M302,163L303,164 M303,163L304,164 M304,163L305,164 M305,163L306,164 M306,163L307,164 M307,163L308,164 M308,163L309,164 M309,163L310,164 M310,163L311,164 M311,163L312,164 M312,163L313,164 M313,163L314,164 M314,163L315,164 M315,163L316,164 M316,163L317,164 M317,163L318,164 M318,163L319,164 M319,163L320,164 M320,163L321,164 M321,163L322,164 M322,163L323,164 M323,163L324,164 M324,163L325,164 M325,163L326,164 M326,163L327,164 M327,163L328,164 M328,163L329,164 M329,163L330,164 M330,163L331,164 M331,163L332,164 M332,163L333,164 M333,163L334,164 M334,163L335,164 M335,163L336,164 M336,163L337,164 M337,163L338,164 M338,163L339,164 M339,163L340,164 M340,163L341,164 M341,163L342,164 M342,163L343,164 M343,163L344,164 M344,163L345,164 M345,163L346,164 M346,163L347,164 M347,163L348,164 M348,163L349,164 M349,163L350,164 M350,163L351,164 M351,163L352,164 M352,163L353,164 M353,163L354,164 M354,163L355,164 M418,163L419,164 M318,164L319,165 M319,164L320,165 M320,164L321,165 M321,164L322,165 M322,164L323,165 M323,164L324,165 M324,164L325,165 M325,164L326,165 M326,164L327,165 M327,164L328,165 M328,164L329,165 M329,164L330,165 M330,164L331,165 M331,164L332,165 M332,164L333,165 M333,164L334,165 M334,164L335,165 M335,164L336,165 M336,164L337,165 M337,164L338,165 M338,164L339,165 M339,164L340,165 M340,164L341,165 M341,164L342,165 M342,164L343,165 M343,164L344,165 M344,164L345,165 M345,164L346,165 M346,164L347,165 M347,164L348,165 M417,164L418,165 M418,164L419,165 M417,165L418,166 M418,165L419,166 M417,166L418,167 M418,166L419,167 M417,167L418,168 M416,168L417,169 M417,168L418,169 M416,169L417,170 M417,169L418,170 M416,170L417,171 M415,171L416,172 M416,171L417,172 M415,172L416,173 M416,172L417,173 M415,173L416,174 M416,173L417,174 M415,174L416,175 M414,175L415,176 M415,175L416,176 M414,176L415,177 M415,176L416,177 M414,177L415,178 M413,178L414,179 M414,178L415,179 M413,179L414,180 M414,179L415,180 M413,180L414,181 M414,180L415,181 M413,181L414,182 M412,182L413,183 M413,182L414,183 M412,183L413,184 M413,183L414,184 M412,184L413,185 M411,185L412,186 M412,185L413,186 M411,186L412,187 M412,186L413,187 M411,187L412,188 M412,187L413,188 M411,188L412,189 M410,189L411,190 M411,189L412,190 M410,190L411,191 M411,190L412,191 M410,191L411,192 M409,192L410,193 M410,192L411,193 M409,193L410,194 M410,193L411,194 M409,194L410,195 M409,195L410,196 M408,196L409,197 M409,196L410,197 M408,197L409,198 M409,197L410,198 M408,198L409,199 M409,198L410,199 M408,199L409,200 M409,199L410,200 M408,200L409,201 M409,200L410,201 M408,201L409,202 M409,201L410,202 M408,202L409,203 M408,203L409,204 M407,204L408,205 M408,204L409,205 M407,205L408,206 M408,205L409,206 M407,206L408,207 M408,206L409,207 M407,207L408,208 M408,207L409,208 M407,208L408,209 M408,208L409,209 M407,209L408,210 M408,209L409,210 M407,210L408,211 M407,211L408,212 M407,212L408,213 M406,213L407,214 M407,213L408,214 M406,214L407,215 M407,214L408,215 M406,215L407,216 M407,215L408,216 M406,216L407,217 M407,216L408,217 M406,217L407,218 M407,217L408,218 M406,218L407,219 M407,218L408,219 M406,219L407,220 M407,219L408,220 M406,220L407,221 M407,220L408,221 M406,221L407,222 M407,221L408,222 M406,222L407,223 M406,223L407,224 M406,224L407,225 M406,225L407,226 M405,226L406,227 M406,226L407,227 M405,227L406,228 M406,227L407,228 M405,228L406,229 M406,228L407,229 M405,229L406,230 M406,229L407,230 M405,230L406,231 M406,230L407,231 M405,231L406,232 M406,231L407,232 M405,232L406,233 M406,232L407,233 M405,233L406,234 M406,233L407,234 M405,234L406,235 M406,234L407,235 M405,235L406,236 M405,236L406,237 M405,237L406,238 M405,238L406,239 M406,238L407,239 M405,239L406,240 M406,239L407,240 M405,240L406,241 M406,240L407,241 M405,241L406,242 M406,241L407,242 M405,242L406,243 M406,242L407,243 M405,243L406,244 M406,243L407,244 M405,244L406,245 M406,244L407,245 M405,245L406,246 M406,245L407,246 M406,246L407,247" fill="none" stroke="black" />
    </svg>