<svg xmlns="http://www.w3.org/2000/svg" width="313" height="250">
        <path d="M259,13L260,14 M229,14L230,15 M230,14L231,15 M231,14L232,15 M259,14L260,15 M260,14L261,15 M261,14L262,15 M228,15L229,16 M229,15L230,16 M230,15L231,16 M231,15L232,16 M259,15L260,16 M260,15L261,16 M261,15L262,16 M262,15L263,16 M228,16L229,17 M229,16L230,17 M230,16L231,17 M231,16L232,17 M259,16L260,17 M260,16L261,17 M261,16L262,17 M262,16L263,17 M227,17L228,18 M228,17L229,18 M230,17L231,18 M231,17L232,18 M259,17L260,18 M260,17L261,18 M261,17L262,18 M262,17L263,18 M227,18L228,19 M228,18L229,19 M230,18L231,19 M231,18L232,19 M259,18L260,19 M260,18L261,19 M262,18L263,19 M263,18L264,19 M226,19L227,20 M227,19L228,20 M230,19L231,20 M231,19L232,20 M259,19L260,20 M260,19L261,20 M262,19L263,20 M263,19L264,20 M226,20L227,21 M227,20L228,21 M230,20L231,21 M231,20L232,21 M259,20L260,21 M260,20L261,21 M262,20L263,21 M263,20L264,21 M226,21L227,22 M227,21L228,22 M230,21L231,22 M231,21L232,22 M259,21L260,22 M260,21L261,22 M262,21L263,22 M263,21L264,22 M225,22L226,23 M226,22L227,23 M230,22L231,23 M231,22L232,23 M259,22L260,23 M260,22L261,23 M263,22L264,23 M264,22L265,23 M225,23L226,24 M226,23L227,24 M231,23L232,24 M232,23L233,24 M259,23L260,24 M260,23L261,24 M263,23L264,24 M264,23L265,24 M225,24L226,25 M226,24L227,25 M231,24L232,25 M232,24L233,25 M259,24L260,25 M260,24L261,25 M263,24L264,25 M264,24L265,25 M224,25L225,26 M225,25L226,26 M231,25L232,26 M232,25L233,26 M259,25L260,26 M260,25L261,26 M263,25L264,26 M264,25L265,26 M224,26L225,27 M225,26L226,27 M231,26L232,27 M232,26L233,27 M259,26L260,27 M260,26L261,27 M263,26L264,27 M264,26L265,27 M224,27L225,28 M225,27L226,28 M231,27L232,28 M232,27L233,28 M259,27L260,28 M260,27L261,28 M263,27L264,28 M264,27L265,28 M223,28L224,29 M224,28L225,29 M231,28L232,29 M232,28L233,29 M259,28L260,29 M260,28L261,29 M263,28L264,29 M264,28L265,29 M223,29L224,30 M224,29L225,30 M231,29L232,30 M232,29L233,30 M259,29L260,30 M260,29L261,30 M263,29L264,30 M264,29L265,30 M223,30L224,31 M224,30L225,31 M231,30L232,31 M232,30L233,31 M259,30L260,31 M260,30L261,31 M263,30L264,31 M264,30L265,31 M223,31L224,32 M224,31L225,32 M231,31L232,32 M232,31L233,32 M260,31L261,32 M261,31L262,32 M263,31L264,32 M264,31L265,32 M222,32L223,33 M223,32L224,33 M231,32L232,33 M232,32L233,33 M260,32L261,33 M261,32L262,33 M263,32L264,33 M264,32L265,33 M222,33L223,34 M223,33L224,34 M231,33L232,34 M232,33L233,34 M260,33L261,34 M261,33L262,34 M264,33L265,34 M265,33L266,34 M222,34L223,35 M223,34L224,35 M231,34L232,35 M232,34L233,35 M260,34L261,35 M261,34L262,35 M264,34L265,35 M265,34L266,35 M221,35L222,36 M222,35L223,36 M231,35L232,36 M232,35L233,36 M260,35L261,36 M261,35L262,36 M264,35L265,36 M265,35L266,36 M128,36L129,37 M129,36L130,37 M130,36L131,37 M131,36L132,37 M132,36L133,37 M133,36L134,37 M134,36L135,37 M135,36L136,37 M136,36L137,37 M221,36L222,37 M222,36L223,37 M231,36L232,37 M232,36L233,37 M260,36L261,37 M261,36L262,37 M264,36L265,37 M265,36L266,37 M127,37L128,38 M128,37L129,38 M129,37L130,38 M130,37L131,38 M131,37L132,38 M132,37L133,38 M133,37L134,38 M134,37L135,38 M135,37L136,38 M136,37L137,38 M137,37L138,38 M221,37L222,38 M222,37L223,38 M231,37L232,38 M232,37L233,38 M260,37L261,38 M261,37L262,38 M262,37L263,38 M264,37L265,38 M265,37L266,38 M126,38L127,39 M127,38L128,39 M128,38L129,39 M136,38L137,39 M137,38L138,39 M138,38L139,39 M221,38L222,39 M222,38L223,39 M231,38L232,39 M232,38L233,39 M261,38L262,39 M262,38L263,39 M264,38L265,39 M265,38L266,39 M126,39L127,40 M127,39L128,40 M137,39L138,40 M138,39L139,40 M220,39L221,40 M221,39L222,40 M231,39L232,40 M232,39L233,40 M261,39L262,40 M262,39L263,40 M263,39L264,40 M264,39L265,40 M265,39L266,40 M125,40L126,41 M126,40L127,41 M127,40L128,41 M138,40L139,41 M139,40L140,41 M220,40L221,41 M221,40L222,41 M231,40L232,41 M232,40L233,41 M262,40L263,41 M263,40L264,41 M264,40L265,41 M265,40L266,41 M125,41L126,42 M126,41L127,42 M138,41L139,42 M139,41L140,42 M220,41L221,42 M221,41L222,42 M231,41L232,42 M232,41L233,42 M262,41L263,42 M263,41L264,42 M264,41L265,42 M265,41L266,42 M124,42L125,43 M125,42L126,43 M138,42L139,43 M139,42L140,43 M140,42L141,43 M220,42L221,43 M221,42L222,43 M231,42L232,43 M232,42L233,43 M263,42L264,43 M264,42L265,43 M265,42L266,43 M124,43L125,44 M125,43L126,44 M139,43L140,44 M140,43L141,44 M220,43L221,44 M221,43L222,44 M231,43L232,44 M232,43L233,44 M263,43L264,44 M264,43L265,44 M265,43L266,44 M123,44L124,45 M124,44L125,45 M139,44L140,45 M140,44L141,45 M220,44L221,45 M221,44L222,45 M231,44L232,45 M232,44L233,45 M264,44L265,45 M265,44L266,45 M122,45L123,46 M123,45L124,46 M124,45L125,46 M139,45L140,46 M140,45L141,46 M219,45L220,46 M220,45L221,46 M231,45L232,46 M232,45L233,46 M264,45L265,46 M265,45L266,46 M266,45L267,46 M122,46L123,47 M123,46L124,47 M139,46L140,47 M140,46L141,47 M219,46L220,47 M220,46L221,47 M231,46L232,47 M232,46L233,47 M264,46L265,47 M265,46L266,47 M266,46L267,47 M122,47L123,48 M123,47L124,48 M139,47L140,48 M140,47L141,48 M219,47L220,48 M220,47L221,48 M231,47L232,48 M232,47L233,48 M264,47L265,48 M265,47L266,48 M266,47L267,48 M267,47L268,48 M121,48L122,49 M122,48L123,49 M139,48L140,49 M140,48L141,49 M219,48L220,49 M220,48L221,49 M231,48L232,49 M232,48L233,49 M264,48L265,49 M265,48L266,49 M266,48L267,49 M267,48L268,49 M121,49L122,50 M122,49L123,50 M139,49L140,50 M140,49L141,50 M219,49L220,50 M220,49L221,50 M231,49L232,50 M232,49L233,50 M264,49L265,50 M265,49L266,50 M266,49L267,50 M267,49L268,50 M268,49L269,50 M120,50L121,51 M121,50L122,51 M122,50L123,51 M139,50L140,51 M140,50L141,51 M219,50L220,51 M220,50L221,51 M231,50L232,51 M232,50L233,51 M264,50L265,51 M265,50L266,51 M267,50L268,51 M268,50L269,51 M120,51L121,52 M121,51L122,52 M139,51L140,52 M140,51L141,52 M219,51L220,52 M220,51L221,52 M231,51L232,52 M232,51L233,52 M264,51L265,52 M265,51L266,52 M268,51L269,52 M269,51L270,52 M120,52L121,53 M121,52L122,53 M139,52L140,53 M140,52L141,53 M219,52L220,53 M220,52L221,53 M231,52L232,53 M232,52L233,53 M264,52L265,53 M265,52L266,53 M268,52L269,53 M269,52L270,53 M270,52L271,53 M119,53L120,54 M120,53L121,54 M139,53L140,54 M140,53L141,54 M219,53L220,54 M220,53L221,54 M231,53L232,54 M232,53L233,54 M264,53L265,54 M265,53L266,54 M269,53L270,54 M270,53L271,54 M119,54L120,55 M120,54L121,55 M139,54L140,55 M140,54L141,55 M218,54L219,55 M219,54L220,55 M231,54L232,55 M232,54L233,55 M264,54L265,55 M265,54L266,55 M269,54L270,55 M270,54L271,55 M271,54L272,55 M119,55L120,56 M120,55L121,56 M139,55L140,56 M140,55L141,56 M218,55L219,56 M219,55L220,56 M231,55L232,56 M232,55L233,56 M264,55L265,56 M265,55L266,56 M270,55L271,56 M271,55L272,56 M118,56L119,57 M119,56L120,57 M139,56L140,57 M140,56L141,57 M218,56L219,57 M219,56L220,57 M231,56L232,57 M232,56L233,57 M264,56L265,57 M265,56L266,57 M271,56L272,57 M272,56L273,57 M273,56L274,57 M274,56L275,57 M118,57L119,58 M119,57L120,58 M139,57L140,58 M140,57L141,58 M218,57L219,58 M219,57L220,58 M231,57L232,58 M232,57L233,58 M264,57L265,58 M265,57L266,58 M270,57L271,58 M271,57L272,58 M272,57L273,58 M273,57L274,58 M274,57L275,58 M117,58L118,59 M118,58L119,59 M139,58L140,59 M140,58L141,59 M218,58L219,59 M219,58L220,59 M231,58L232,59 M232,58L233,59 M264,58L265,59 M265,58L266,59 M268,58L269,59 M269,58L270,59 M270,58L271,59 M271,58L272,59 M272,58L273,59 M273,58L274,59 M117,59L118,60 M118,59L119,60 M139,59L140,60 M140,59L141,60 M218,59L219,60 M219,59L220,60 M231,59L232,60 M232,59L233,60 M264,59L265,60 M265,59L266,60 M267,59L268,60 M268,59L269,60 M269,59L270,60 M273,59L274,60 M274,59L275,60 M117,60L118,61 M118,60L119,61 M139,60L140,61 M140,60L141,61 M218,60L219,61 M219,60L220,61 M231,60L232,61 M232,60L233,61 M264,60L265,61 M265,60L266,61 M266,60L267,61 M267,60L268,61 M268,60L269,61 M273,60L274,61 M274,60L275,61 M116,61L117,62 M117,61L118,62 M118,61L119,62 M139,61L140,62 M140,61L141,62 M218,61L219,62 M219,61L220,62 M231,61L232,62 M232,61L233,62 M264,61L265,62 M265,61L266,62 M266,61L267,62 M274,61L275,62 M275,61L276,62 M116,62L117,63 M117,62L118,63 M139,62L140,63 M140,62L141,63 M218,62L219,63 M219,62L220,63 M231,62L232,63 M232,62L233,63 M263,62L264,63 M264,62L265,63 M265,62L266,63 M274,62L275,63 M275,62L276,63 M276,62L277,63 M116,63L117,64 M117,63L118,64 M139,63L140,64 M140,63L141,64 M218,63L219,64 M219,63L220,64 M231,63L232,64 M232,63L233,64 M261,63L262,64 M262,63L263,64 M263,63L264,64 M264,63L265,64 M265,63L266,64 M275,63L276,64 M276,63L277,64 M277,63L278,64 M116,64L117,65 M117,64L118,65 M139,64L140,65 M140,64L141,65 M218,64L219,65 M219,64L220,65 M231,64L232,65 M232,64L233,65 M260,64L261,65 M261,64L262,65 M262,64L263,65 M264,64L265,65 M265,64L266,65 M276,64L277,65 M277,64L278,65 M278,64L279,65 M115,65L116,66 M116,65L117,66 M117,65L118,66 M139,65L140,66 M140,65L141,66 M218,65L219,66 M219,65L220,66 M231,65L232,66 M232,65L233,66 M233,65L234,66 M253,65L254,66 M254,65L255,66 M259,65L260,66 M260,65L261,66 M261,65L262,66 M264,65L265,66 M265,65L266,66 M277,65L278,66 M278,65L279,66 M115,66L116,67 M116,66L117,67 M139,66L140,67 M140,66L141,67 M218,66L219,67 M219,66L220,67 M231,66L232,67 M232,66L233,67 M233,66L234,67 M253,66L254,67 M254,66L255,67 M257,66L258,67 M258,66L259,67 M259,66L260,67 M260,66L261,67 M264,66L265,67 M265,66L266,67 M278,66L279,67 M279,66L280,67 M115,67L116,68 M116,67L117,68 M139,67L140,68 M140,67L141,68 M218,67L219,68 M219,67L220,68 M231,67L232,68 M232,67L233,68 M233,67L234,68 M253,67L254,68 M254,67L255,68 M256,67L257,68 M257,67L258,68 M258,67L259,68 M264,67L265,68 M265,67L266,68 M279,67L280,68 M280,67L281,68 M115,68L116,69 M116,68L117,69 M139,68L140,69 M140,68L141,69 M218,68L219,69 M219,68L220,69 M231,68L232,69 M232,68L233,69 M233,68L234,69 M252,68L253,69 M253,68L254,69 M254,68L255,69 M255,68L256,69 M256,68L257,69 M257,68L258,69 M264,68L265,69 M265,68L266,69 M279,68L280,69 M280,68L281,69 M281,68L282,69 M114,69L115,70 M115,69L116,70 M116,69L117,70 M139,69L140,70 M140,69L141,70 M218,69L219,70 M219,69L220,70 M231,69L232,70 M232,69L233,70 M233,69L234,70 M252,69L253,70 M253,69L254,70 M254,69L255,70 M255,69L256,70 M256,69L257,70 M264,69L265,70 M265,69L266,70 M280,69L281,70 M281,69L282,70 M282,69L283,70 M114,70L115,71 M115,70L116,71 M139,70L140,71 M140,70L141,71 M218,70L219,71 M219,70L220,71 M230,70L231,71 M231,70L232,71 M232,70L233,71 M233,70L234,71 M252,70L253,71 M253,70L254,71 M254,70L255,71 M264,70L265,71 M265,70L266,71 M281,70L282,71 M282,70L283,71 M283,70L284,71 M114,71L115,72 M115,71L116,72 M139,71L140,72 M140,71L141,72 M214,71L215,72 M215,71L216,72 M216,71L217,72 M218,71L219,72 M219,71L220,72 M230,71L231,72 M231,71L232,72 M232,71L233,72 M233,71L234,72 M251,71L252,72 M252,71L253,72 M253,71L254,72 M254,71L255,72 M264,71L265,72 M265,71L266,72 M282,71L283,72 M283,71L284,72 M114,72L115,73 M115,72L116,73 M139,72L140,73 M140,72L141,73 M214,72L215,73 M215,72L216,73 M216,72L217,73 M218,72L219,73 M219,72L220,73 M230,72L231,73 M231,72L232,73 M232,72L233,73 M233,72L234,73 M250,72L251,73 M251,72L252,73 M252,72L253,73 M253,72L254,73 M254,72L255,73 M264,72L265,73 M265,72L266,73 M283,72L284,73 M284,72L285,73 M113,73L114,74 M114,73L115,74 M115,73L116,74 M139,73L140,74 M140,73L141,74 M213,73L214,74 M214,73L215,74 M215,73L216,74 M216,73L217,74 M218,73L219,74 M219,73L220,74 M230,73L231,74 M231,73L232,74 M232,73L233,74 M233,73L234,74 M249,73L250,74 M250,73L251,74 M251,73L252,74 M252,73L253,74 M253,73L254,74 M254,73L255,74 M264,73L265,74 M265,73L266,74 M283,73L284,74 M284,73L285,74 M285,73L286,74 M113,74L114,75 M114,74L115,75 M139,74L140,75 M140,74L141,75 M213,74L214,75 M214,74L215,75 M215,74L216,75 M216,74L217,75 M218,74L219,75 M219,74L220,75 M229,74L230,75 M230,74L231,75 M231,74L232,75 M232,74L233,75 M233,74L234,75 M247,74L248,75 M248,74L249,75 M249,74L250,75 M251,74L252,75 M252,74L253,75 M253,74L254,75 M254,74L255,75 M264,74L265,75 M265,74L266,75 M284,74L285,75 M285,74L286,75 M113,75L114,76 M114,75L115,76 M139,75L140,76 M140,75L141,76 M213,75L214,76 M214,75L215,76 M216,75L217,76 M217,75L218,76 M218,75L219,76 M219,75L220,76 M229,75L230,76 M230,75L231,76 M232,75L233,76 M233,75L234,76 M234,75L235,76 M246,75L247,76 M247,75L248,76 M248,75L249,76 M250,75L251,76 M251,75L252,76 M253,75L254,76 M254,75L255,76 M264,75L265,76 M265,75L266,76 M285,75L286,76 M286,75L287,76 M113,76L114,77 M114,76L115,77 M139,76L140,77 M140,76L141,77 M213,76L214,77 M214,76L215,77 M216,76L217,77 M217,76L218,77 M218,76L219,77 M219,76L220,77 M229,76L230,77 M230,76L231,77 M232,76L233,77 M233,76L234,77 M234,76L235,77 M245,76L246,77 M246,76L247,77 M247,76L248,77 M250,76L251,77 M251,76L252,77 M253,76L254,77 M254,76L255,77 M259,76L260,77 M260,76L261,77 M261,76L262,77 M264,76L265,77 M265,76L266,77 M285,76L286,77 M286,76L287,77 M287,76L288,77 M113,77L114,78 M114,77L115,78 M139,77L140,78 M140,77L141,78 M213,77L214,78 M214,77L215,78 M216,77L217,78 M217,77L218,78 M218,77L219,78 M219,77L220,78 M229,77L230,78 M230,77L231,78 M232,77L233,78 M233,77L234,78 M234,77L235,78 M244,77L245,78 M245,77L246,78 M246,77L247,78 M250,77L251,78 M251,77L252,78 M253,77L254,78 M254,77L255,78 M259,77L260,78 M260,77L261,78 M261,77L262,78 M264,77L265,78 M265,77L266,78 M286,77L287,78 M287,77L288,78 M113,78L114,79 M114,78L115,79 M139,78L140,79 M140,78L141,79 M213,78L214,79 M214,78L215,79 M216,78L217,79 M217,78L218,79 M218,78L219,79 M219,78L220,79 M229,78L230,79 M230,78L231,79 M232,78L233,79 M233,78L234,79 M234,78L235,79 M242,78L243,79 M243,78L244,79 M244,78L245,79 M249,78L250,79 M250,78L251,79 M253,78L254,79 M254,78L255,79 M258,78L259,79 M259,78L260,79 M260,78L261,79 M261,78L262,79 M264,78L265,79 M265,78L266,79 M287,78L288,79 M288,78L289,79 M113,79L114,80 M114,79L115,80 M138,79L139,80 M139,79L140,80 M213,79L214,80 M214,79L215,80 M216,79L217,80 M217,79L218,80 M218,79L219,80 M219,79L220,80 M229,79L230,80 M230,79L231,80 M232,79L233,80 M233,79L234,80 M234,79L235,80 M241,79L242,80 M242,79L243,80 M243,79L244,80 M249,79L250,80 M250,79L251,80 M253,79L254,80 M254,79L255,80 M258,79L259,80 M259,79L260,80 M260,79L261,80 M261,79L262,80 M264,79L265,80 M265,79L266,80 M287,79L288,80 M288,79L289,80 M289,79L290,80 M112,80L113,81 M113,80L114,81 M138,80L139,81 M139,80L140,81 M182,80L183,81 M183,80L184,81 M213,80L214,81 M214,80L215,81 M216,80L217,81 M217,80L218,81 M218,80L219,81 M219,80L220,81 M228,80L229,81 M229,80L230,81 M232,80L233,81 M233,80L234,81 M234,80L235,81 M240,80L241,81 M241,80L242,81 M242,80L243,81 M248,80L249,81 M249,80L250,81 M250,80L251,81 M253,80L254,81 M254,80L255,81 M258,80L259,81 M259,80L260,81 M261,80L262,81 M262,80L263,81 M264,80L265,81 M265,80L266,81 M288,80L289,81 M289,80L290,81 M112,81L113,82 M113,81L114,82 M138,81L139,82 M139,81L140,82 M182,81L183,82 M183,81L184,82 M212,81L213,82 M213,81L214,82 M216,81L217,82 M217,81L218,82 M218,81L219,82 M219,81L220,82 M228,81L229,82 M229,81L230,82 M232,81L233,82 M233,81L234,82 M234,81L235,82 M239,81L240,82 M240,81L241,82 M241,81L242,82 M248,81L249,82 M249,81L250,82 M253,81L254,82 M254,81L255,82 M258,81L259,82 M259,81L260,82 M261,81L262,82 M262,81L263,82 M264,81L265,82 M265,81L266,82 M288,81L289,82 M289,81L290,82 M290,81L291,82 M112,82L113,83 M113,82L114,83 M138,82L139,83 M139,82L140,83 M145,82L146,83 M146,82L147,83 M182,82L183,83 M183,82L184,83 M212,82L213,83 M213,82L214,83 M216,82L217,83 M217,82L218,83 M218,82L219,83 M219,82L220,83 M228,82L229,83 M229,82L230,83 M232,82L233,83 M233,82L234,83 M234,82L235,83 M235,82L236,83 M237,82L238,83 M238,82L239,83 M239,82L240,83 M247,82L248,83 M248,82L249,83 M249,82L250,83 M253,82L254,83 M254,82L255,83 M258,82L259,83 M259,82L260,83 M261,82L262,83 M262,82L263,83 M264,82L265,83 M265,82L266,83 M289,82L290,83 M290,82L291,83 M112,83L113,84 M113,83L114,84 M138,83L139,84 M139,83L140,84 M145,83L146,84 M146,83L147,84 M182,83L183,84 M183,83L184,84 M212,83L213,84 M213,83L214,84 M216,83L217,84 M217,83L218,84 M218,83L219,84 M219,83L220,84 M228,83L229,84 M229,83L230,84 M232,83L233,84 M233,83L234,84 M234,83L235,84 M235,83L236,84 M236,83L237,84 M237,83L238,84 M238,83L239,84 M247,83L248,84 M248,83L249,84 M253,83L254,84 M254,83L255,84 M257,83L258,84 M258,83L259,84 M261,83L262,84 M262,83L263,84 M264,83L265,84 M265,83L266,84 M290,83L291,84 M291,83L292,84 M112,84L113,85 M113,84L114,85 M138,84L139,85 M139,84L140,85 M145,84L146,85 M146,84L147,85 M181,84L182,85 M182,84L183,85 M183,84L184,85 M212,84L213,85 M213,84L214,85 M217,84L218,85 M218,84L219,85 M219,84L220,85 M228,84L229,85 M229,84L230,85 M232,84L233,85 M233,84L234,85 M234,84L235,85 M235,84L236,85 M236,84L237,85 M237,84L238,85 M246,84L247,85 M247,84L248,85 M253,84L254,85 M254,84L255,85 M257,84L258,85 M258,84L259,85 M261,84L262,85 M262,84L263,85 M264,84L265,85 M265,84L266,85 M290,84L291,85 M291,84L292,85 M112,85L113,86 M113,85L114,86 M138,85L139,86 M139,85L140,86 M145,85L146,86 M146,85L147,86 M181,85L182,86 M182,85L183,86 M183,85L184,86 M212,85L213,86 M213,85L214,86 M217,85L218,86 M218,85L219,86 M219,85L220,86 M228,85L229,86 M229,85L230,86 M233,85L234,86 M234,85L235,86 M235,85L236,86 M236,85L237,86 M246,85L247,86 M247,85L248,86 M253,85L254,86 M254,85L255,86 M257,85L258,86 M258,85L259,86 M262,85L263,86 M263,85L264,86 M264,85L265,86 M265,85L266,86 M290,85L291,86 M291,85L292,86 M292,85L293,86 M112,86L113,87 M113,86L114,87 M138,86L139,87 M139,86L140,87 M145,86L146,87 M146,86L147,87 M181,86L182,87 M182,86L183,87 M183,86L184,87 M212,86L213,87 M213,86L214,87 M217,86L218,87 M218,86L219,87 M219,86L220,87 M227,86L228,87 M228,86L229,87 M232,86L233,87 M233,86L234,87 M234,86L235,87 M235,86L236,87 M236,86L237,87 M245,86L246,87 M246,86L247,87 M253,86L254,87 M254,86L255,87 M257,86L258,87 M258,86L259,87 M262,86L263,87 M263,86L264,87 M264,86L265,87 M265,86L266,87 M291,86L292,87 M292,86L293,87 M112,87L113,88 M113,87L114,88 M138,87L139,88 M139,87L140,88 M145,87L146,88 M146,87L147,88 M181,87L182,88 M182,87L183,88 M183,87L184,88 M199,87L200,88 M200,87L201,88 M212,87L213,88 M213,87L214,88 M217,87L218,88 M218,87L219,88 M219,87L220,88 M227,87L228,88 M228,87L229,88 M231,87L232,88 M232,87L233,88 M233,87L234,88 M234,87L235,88 M235,87L236,88 M236,87L237,88 M244,87L245,88 M245,87L246,88 M246,87L247,88 M253,87L254,88 M254,87L255,88 M257,87L258,88 M258,87L259,88 M262,87L263,88 M263,87L264,88 M264,87L265,88 M265,87L266,88 M291,87L292,88 M292,87L293,88 M112,88L113,89 M113,88L114,89 M138,88L139,89 M139,88L140,89 M145,88L146,89 M146,88L147,89 M181,88L182,89 M182,88L183,89 M183,88L184,89 M199,88L200,89 M200,88L201,89 M212,88L213,89 M213,88L214,89 M217,88L218,89 M218,88L219,89 M219,88L220,89 M227,88L228,89 M228,88L229,89 M230,88L231,89 M231,88L232,89 M232,88L233,89 M233,88L234,89 M234,88L235,89 M235,88L236,89 M236,88L237,89 M237,88L238,89 M240,88L241,89 M241,88L242,89 M242,88L243,89 M243,88L244,89 M244,88L245,89 M245,88L246,89 M253,88L254,89 M254,88L255,89 M257,88L258,89 M258,88L259,89 M263,88L264,89 M264,88L265,89 M265,88L266,89 M291,88L292,89 M292,88L293,89 M111,89L112,90 M112,89L113,90 M138,89L139,90 M139,89L140,90 M145,89L146,90 M146,89L147,90 M181,89L182,90 M182,89L183,90 M199,89L200,90 M200,89L201,90 M212,89L213,90 M213,89L214,90 M217,89L218,90 M218,89L219,90 M219,89L220,90 M227,89L228,90 M228,89L229,90 M229,89L230,90 M230,89L231,90 M231,89L232,90 M233,89L234,90 M234,89L235,90 M236,89L237,90 M237,89L238,90 M238,89L239,90 M239,89L240,90 M240,89L241,90 M241,89L242,90 M242,89L243,90 M243,89L244,90 M244,89L245,90 M245,89L246,90 M253,89L254,90 M254,89L255,90 M256,89L257,90 M257,89L258,90 M265,89L266,90 M292,89L293,90 M293,89L294,90 M111,90L112,91 M112,90L113,91 M137,90L138,91 M138,90L139,91 M145,90L146,91 M146,90L147,91 M147,90L148,91 M180,90L181,91 M181,90L182,91 M182,90L183,91 M199,90L200,91 M200,90L201,91 M212,90L213,91 M213,90L214,91 M217,90L218,91 M218,90L219,91 M219,90L220,91 M226,90L227,91 M227,90L228,91 M228,90L229,91 M229,90L230,91 M230,90L231,91 M233,90L234,91 M234,90L235,91 M236,90L237,91 M237,90L238,91 M238,90L239,91 M239,90L240,91 M240,90L241,91 M253,90L254,91 M254,90L255,91 M255,90L256,91 M256,90L257,91 M257,90L258,91 M292,90L293,91 M293,90L294,91 M111,91L112,92 M112,91L113,92 M137,91L138,92 M138,91L139,92 M145,91L146,92 M146,91L147,92 M147,91L148,92 M180,91L181,92 M181,91L182,92 M182,91L183,92 M199,91L200,92 M200,91L201,92 M201,91L202,92 M212,91L213,92 M213,91L214,92 M217,91L218,92 M218,91L219,92 M219,91L220,92 M226,91L227,92 M227,91L228,92 M228,91L229,92 M229,91L230,92 M233,91L234,92 M234,91L235,92 M254,91L255,92 M255,91L256,92 M256,91L257,92 M257,91L258,92 M292,91L293,92 M293,91L294,92 M111,92L112,93 M112,92L113,93 M137,92L138,93 M138,92L139,93 M145,92L146,93 M146,92L147,93 M147,92L148,93 M180,92L181,93 M181,92L182,93 M182,92L183,93 M199,92L200,93 M200,92L201,93 M201,92L202,93 M212,92L213,93 M213,92L214,93 M217,92L218,93 M218,92L219,93 M219,92L220,93 M226,92L227,93 M227,92L228,93 M228,92L229,93 M233,92L234,93 M234,92L235,93 M256,92L257,93 M257,92L258,93 M292,92L293,93 M293,92L294,93 M111,93L112,94 M112,93L113,94 M137,93L138,94 M138,93L139,94 M145,93L146,94 M146,93L147,94 M147,93L148,94 M180,93L181,94 M181,93L182,94 M182,93L183,94 M199,93L200,94 M200,93L201,94 M201,93L202,94 M212,93L213,94 M213,93L214,94 M218,93L219,94 M219,93L220,94 M224,93L225,94 M225,93L226,94 M226,93L227,94 M227,93L228,94 M233,93L234,94 M234,93L235,94 M293,93L294,94 M294,93L295,94 M111,94L112,95 M112,94L113,95 M137,94L138,95 M138,94L139,95 M145,94L146,95 M146,94L147,95 M147,94L148,95 M180,94L181,95 M181,94L182,95 M182,94L183,95 M199,94L200,95 M200,94L201,95 M201,94L202,95 M212,94L213,95 M213,94L214,95 M218,94L219,95 M219,94L220,95 M223,94L224,95 M224,94L225,95 M225,94L226,95 M226,94L227,95 M227,94L228,95 M233,94L234,95 M234,94L235,95 M293,94L294,95 M294,94L295,95 M111,95L112,96 M112,95L113,96 M137,95L138,96 M138,95L139,96 M145,95L146,96 M146,95L147,96 M147,95L148,96 M180,95L181,96 M181,95L182,96 M198,95L199,96 M199,95L200,96 M200,95L201,96 M201,95L202,96 M211,95L212,96 M212,95L213,96 M218,95L219,96 M219,95L220,96 M222,95L223,96 M223,95L224,96 M224,95L225,96 M225,95L226,96 M226,95L227,96 M233,95L234,96 M234,95L235,96 M293,95L294,96 M294,95L295,96 M111,96L112,97 M112,96L113,97 M137,96L138,97 M138,96L139,97 M145,96L146,97 M146,96L147,97 M147,96L148,97 M180,96L181,97 M181,96L182,97 M198,96L199,97 M199,96L200,97 M200,96L201,97 M201,96L202,97 M211,96L212,97 M212,96L213,97 M218,96L219,97 M219,96L220,97 M221,96L222,97 M222,96L223,97 M223,96L224,97 M225,96L226,97 M226,96L227,97 M233,96L234,97 M234,96L235,97 M293,96L294,97 M294,96L295,97 M111,97L112,98 M112,97L113,98 M136,97L137,98 M137,97L138,98 M145,97L146,98 M146,97L147,98 M147,97L148,98 M180,97L181,98 M181,97L182,98 M198,97L199,98 M199,97L200,98 M200,97L201,98 M201,97L202,98 M211,97L212,98 M212,97L213,98 M218,97L219,98 M219,97L220,98 M220,97L221,98 M221,97L222,98 M222,97L223,98 M225,97L226,98 M226,97L227,98 M234,97L235,98 M235,97L236,98 M293,97L294,98 M294,97L295,98 M111,98L112,99 M112,98L113,99 M136,98L137,99 M137,98L138,99 M145,98L146,99 M146,98L147,99 M147,98L148,99 M179,98L180,99 M180,98L181,99 M181,98L182,99 M198,98L199,99 M199,98L200,99 M200,98L201,99 M201,98L202,99 M211,98L212,99 M212,98L213,99 M218,98L219,99 M219,98L220,99 M220,98L221,99 M221,98L222,99 M224,98L225,99 M225,98L226,99 M226,98L227,99 M234,98L235,99 M235,98L236,99 M293,98L294,99 M294,98L295,99 M111,99L112,100 M112,99L113,100 M136,99L137,100 M137,99L138,100 M145,99L146,100 M146,99L147,100 M147,99L148,100 M179,99L180,100 M180,99L181,100 M181,99L182,100 M197,99L198,100 M198,99L199,100 M201,99L202,100 M202,99L203,100 M211,99L212,100 M212,99L213,100 M218,99L219,100 M219,99L220,100 M220,99L221,100 M224,99L225,100 M225,99L226,100 M234,99L235,100 M235,99L236,100 M293,99L294,100 M294,99L295,100 M111,100L112,101 M112,100L113,101 M136,100L137,101 M137,100L138,101 M145,100L146,101 M146,100L147,101 M147,100L148,101 M148,100L149,101 M179,100L180,101 M180,100L181,101 M197,100L198,101 M198,100L199,101 M201,100L202,101 M202,100L203,101 M211,100L212,101 M212,100L213,101 M216,100L217,101 M217,100L218,101 M218,100L219,101 M219,100L220,101 M220,100L221,101 M223,100L224,101 M224,100L225,101 M225,100L226,101 M234,100L235,101 M235,100L236,101 M294,100L295,101 M295,100L296,101 M111,101L112,102 M112,101L113,102 M136,101L137,102 M137,101L138,102 M145,101L146,102 M146,101L147,102 M147,101L148,102 M148,101L149,102 M179,101L180,102 M180,101L181,102 M197,101L198,102 M198,101L199,102 M201,101L202,102 M202,101L203,102 M211,101L212,102 M212,101L213,102 M215,101L216,102 M216,101L217,102 M217,101L218,102 M218,101L219,102 M219,101L220,102 M220,101L221,102 M222,101L223,102 M223,101L224,102 M224,101L225,102 M234,101L235,102 M235,101L236,102 M294,101L295,102 M295,101L296,102 M111,102L112,103 M112,102L113,103 M136,102L137,103 M137,102L138,103 M145,102L146,103 M146,102L147,103 M147,102L148,103 M148,102L149,103 M179,102L180,103 M180,102L181,103 M197,102L198,103 M198,102L199,103 M201,102L202,103 M202,102L203,103 M211,102L212,103 M212,102L213,103 M214,102L215,103 M215,102L216,103 M216,102L217,103 M218,102L219,103 M219,102L220,103 M220,102L221,103 M221,102L222,103 M222,102L223,103 M223,102L224,103 M234,102L235,103 M235,102L236,103 M294,102L295,103 M295,102L296,103 M111,103L112,104 M112,103L113,104 M135,103L136,104 M136,103L137,104 M145,103L146,104 M146,103L147,104 M147,103L148,104 M148,103L149,104 M179,103L180,104 M180,103L181,104 M197,103L198,104 M198,103L199,104 M201,103L202,104 M202,103L203,104 M211,103L212,104 M212,103L213,104 M213,103L214,104 M214,103L215,104 M215,103L216,104 M218,103L219,104 M219,103L220,104 M220,103L221,104 M221,103L222,104 M234,103L235,104 M235,103L236,104 M294,103L295,104 M295,103L296,104 M111,104L112,105 M112,104L113,105 M135,104L136,105 M136,104L137,105 M145,104L146,105 M146,104L147,105 M147,104L148,105 M148,104L149,105 M178,104L179,105 M179,104L180,105 M180,104L181,105 M196,104L197,105 M197,104L198,105 M201,104L202,105 M202,104L203,105 M211,104L212,105 M212,104L213,105 M213,104L214,105 M214,104L215,105 M218,104L219,105 M219,104L220,105 M234,104L235,105 M235,104L236,105 M294,104L295,105 M295,104L296,105 M111,105L112,106 M112,105L113,106 M135,105L136,106 M136,105L137,106 M145,105L146,106 M146,105L147,106 M147,105L148,106 M148,105L149,106 M178,105L179,106 M179,105L180,106 M180,105L181,106 M196,105L197,106 M197,105L198,106 M201,105L202,106 M202,105L203,106 M211,105L212,106 M212,105L213,106 M213,105L214,106 M218,105L219,106 M219,105L220,106 M234,105L235,106 M235,105L236,106 M294,105L295,106 M295,105L296,106 M111,106L112,107 M112,106L113,107 M135,106L136,107 M136,106L137,107 M145,106L146,107 M146,106L147,107 M147,106L148,107 M148,106L149,107 M178,106L179,107 M179,106L180,107 M180,106L181,107 M196,106L197,107 M197,106L198,107 M201,106L202,107 M202,106L203,107 M210,106L211,107 M211,106L212,107 M212,106L213,107 M218,106L219,107 M219,106L220,107 M235,106L236,107 M236,106L237,107 M293,106L294,107 M294,106L295,107 M295,106L296,107 M111,107L112,108 M112,107L113,108 M135,107L136,108 M136,107L137,108 M144,107L145,108 M145,107L146,108 M147,107L148,108 M148,107L149,108 M178,107L179,108 M179,107L180,108 M180,107L181,108 M196,107L197,108 M197,107L198,108 M201,107L202,108 M202,107L203,108 M208,107L209,108 M209,107L210,108 M210,107L211,108 M211,107L212,108 M219,107L220,108 M220,107L221,108 M235,107L236,108 M236,107L237,108 M293,107L294,108 M294,107L295,108 M111,108L112,109 M112,108L113,109 M135,108L136,109 M136,108L137,109 M144,108L145,109 M145,108L146,109 M147,108L148,109 M148,108L149,109 M177,108L178,109 M178,108L179,109 M179,108L180,109 M180,108L181,109 M196,108L197,109 M197,108L198,109 M202,108L203,109 M203,108L204,109 M207,108L208,109 M208,108L209,109 M209,108L210,109 M210,108L211,109 M211,108L212,109 M219,108L220,109 M220,108L221,109 M235,108L236,109 M236,108L237,109 M292,108L293,109 M293,108L294,109 M111,109L112,110 M112,109L113,110 M135,109L136,110 M136,109L137,110 M144,109L145,110 M145,109L146,110 M148,109L149,110 M149,109L150,110 M177,109L178,110 M178,109L179,110 M179,109L180,110 M180,109L181,110 M195,109L196,110 M196,109L197,110 M202,109L203,110 M203,109L204,110 M206,109L207,110 M207,109L208,110 M208,109L209,110 M210,109L211,110 M211,109L212,110 M219,109L220,110 M220,109L221,110 M235,109L236,110 M236,109L237,110 M291,109L292,110 M292,109L293,110 M293,109L294,110 M111,110L112,111 M112,110L113,111 M134,110L135,111 M135,110L136,111 M144,110L145,111 M145,110L146,111 M148,110L149,111 M149,110L150,111 M177,110L178,111 M178,110L179,111 M179,110L180,111 M195,110L196,111 M196,110L197,111 M202,110L203,111 M203,110L204,111 M205,110L206,111 M206,110L207,111 M207,110L208,111 M210,110L211,111 M211,110L212,111 M219,110L220,111 M220,110L221,111 M235,110L236,111 M236,110L237,111 M291,110L292,111 M292,110L293,111 M111,111L112,112 M112,111L113,112 M134,111L135,112 M135,111L136,112 M144,111L145,112 M145,111L146,112 M148,111L149,112 M149,111L150,112 M177,111L178,112 M178,111L179,112 M179,111L180,112 M195,111L196,112 M196,111L197,112 M202,111L203,112 M203,111L204,112 M204,111L205,112 M205,111L206,112 M206,111L207,112 M210,111L211,112 M211,111L212,112 M219,111L220,112 M220,111L221,112 M236,111L237,112 M237,111L238,112 M290,111L291,112 M291,111L292,112 M111,112L112,113 M112,112L113,113 M134,112L135,113 M135,112L136,113 M144,112L145,113 M145,112L146,113 M148,112L149,113 M149,112L150,113 M176,112L177,113 M177,112L178,113 M178,112L179,113 M179,112L180,113 M195,112L196,113 M196,112L197,113 M202,112L203,113 M203,112L204,113 M204,112L205,113 M205,112L206,113 M210,112L211,113 M211,112L212,113 M220,112L221,113 M221,112L222,113 M236,112L237,113 M237,112L238,113 M289,112L290,113 M290,112L291,113 M291,112L292,113 M111,113L112,114 M112,113L113,114 M134,113L135,114 M135,113L136,114 M144,113L145,114 M145,113L146,114 M148,113L149,114 M149,113L150,114 M176,113L177,114 M177,113L178,114 M178,113L179,114 M179,113L180,114 M194,113L195,114 M195,113L196,114 M202,113L203,114 M203,113L204,114 M204,113L205,114 M210,113L211,114 M211,113L212,114 M220,113L221,114 M221,113L222,114 M236,113L237,114 M237,113L238,114 M289,113L290,114 M290,113L291,114 M111,114L112,115 M112,114L113,115 M134,114L135,115 M135,114L136,115 M144,114L145,115 M145,114L146,115 M148,114L149,115 M149,114L150,115 M176,114L177,115 M177,114L178,115 M178,114L179,115 M179,114L180,115 M194,114L195,115 M195,114L196,115 M201,114L202,115 M202,114L203,115 M203,114L204,115 M204,114L205,115 M209,114L210,115 M210,114L211,115 M220,114L221,115 M221,114L222,115 M236,114L237,115 M237,114L238,115 M288,114L289,115 M289,114L290,115 M290,114L291,115 M111,115L112,116 M112,115L113,116 M134,115L135,116 M135,115L136,116 M144,115L145,116 M145,115L146,116 M148,115L149,116 M149,115L150,116 M176,115L177,116 M177,115L178,116 M178,115L179,116 M179,115L180,116 M194,115L195,116 M195,115L196,116 M199,115L200,116 M200,115L201,116 M201,115L202,116 M203,115L204,116 M204,115L205,116 M209,115L210,116 M210,115L211,116 M220,115L221,116 M221,115L222,116 M236,115L237,116 M237,115L238,116 M288,115L289,116 M289,115L290,116 M111,116L112,117 M112,116L113,117 M134,116L135,117 M135,116L136,117 M144,116L145,117 M145,116L146,117 M148,116L149,117 M149,116L150,117 M175,116L176,117 M176,116L177,117 M177,116L178,117 M178,116L179,117 M179,116L180,117 M194,116L195,117 M195,116L196,117 M198,116L199,117 M199,116L200,117 M200,116L201,117 M203,116L204,117 M204,116L205,117 M209,116L210,117 M210,116L211,117 M220,116L221,117 M221,116L222,117 M237,116L238,117 M238,116L239,117 M286,116L287,117 M287,116L288,117 M288,116L289,117 M111,117L112,118 M112,117L113,118 M133,117L134,118 M134,117L135,118 M144,117L145,118 M145,117L146,118 M148,117L149,118 M149,117L150,118 M175,117L176,118 M176,117L177,118 M178,117L179,118 M179,117L180,118 M194,117L195,118 M195,117L196,118 M197,117L198,118 M198,117L199,118 M199,117L200,118 M204,117L205,118 M205,117L206,118 M209,117L210,118 M210,117L211,118 M221,117L222,118 M222,117L223,118 M237,117L238,118 M238,117L239,118 M285,117L286,118 M286,117L287,118 M287,117L288,118 M111,118L112,119 M112,118L113,119 M133,118L134,119 M134,118L135,119 M144,118L145,119 M145,118L146,119 M148,118L149,119 M149,118L150,119 M175,118L176,119 M176,118L177,119 M178,118L179,119 M179,118L180,119 M193,118L194,119 M194,118L195,119 M196,118L197,119 M197,118L198,119 M198,118L199,119 M204,118L205,119 M205,118L206,119 M208,118L209,119 M209,118L210,119 M210,118L211,119 M221,118L222,119 M222,118L223,119 M237,118L238,119 M238,118L239,119 M284,118L285,119 M285,118L286,119 M286,118L287,119 M111,119L112,120 M112,119L113,120 M133,119L134,120 M134,119L135,120 M144,119L145,120 M145,119L146,120 M148,119L149,120 M149,119L150,120 M175,119L176,120 M176,119L177,120 M178,119L179,120 M179,119L180,120 M193,119L194,120 M194,119L195,120 M195,119L196,120 M196,119L197,120 M197,119L198,120 M204,119L205,120 M205,119L206,120 M208,119L209,120 M209,119L210,120 M221,119L222,120 M222,119L223,120 M237,119L238,120 M238,119L239,120 M282,119L283,120 M283,119L284,120 M284,119L285,120 M285,119L286,120 M111,120L112,121 M112,120L113,121 M133,120L134,121 M134,120L135,121 M144,120L145,121 M145,120L146,121 M148,120L149,121 M149,120L150,121 M174,120L175,121 M175,120L176,121 M178,120L179,121 M179,120L180,121 M193,120L194,121 M194,120L195,121 M195,120L196,121 M196,120L197,121 M205,120L206,121 M206,120L207,121 M207,120L208,121 M208,120L209,121 M209,120L210,121 M221,120L222,121 M222,120L223,121 M237,120L238,121 M238,120L239,121 M281,120L282,121 M282,120L283,121 M283,120L284,121 M111,121L112,122 M112,121L113,122 M133,121L134,122 M134,121L135,122 M144,121L145,122 M145,121L146,122 M148,121L149,122 M149,121L150,122 M174,121L175,122 M175,121L176,122 M178,121L179,122 M179,121L180,122 M193,121L194,122 M194,121L195,122 M195,121L196,122 M205,121L206,122 M206,121L207,122 M207,121L208,122 M208,121L209,122 M221,121L222,122 M222,121L223,122 M238,121L239,122 M239,121L240,122 M279,121L280,122 M280,121L281,122 M281,121L282,122 M282,121L283,122 M111,122L112,123 M112,122L113,123 M132,122L133,123 M133,122L134,123 M143,122L144,123 M144,122L145,123 M148,122L149,123 M149,122L150,123 M174,122L175,123 M175,122L176,123 M178,122L179,123 M179,122L180,123 M191,122L192,123 M192,122L193,123 M193,122L194,123 M194,122L195,123 M205,122L206,123 M206,122L207,123 M207,122L208,123 M208,122L209,123 M222,122L223,123 M223,122L224,123 M238,122L239,123 M239,122L240,123 M278,122L279,123 M279,122L280,123 M280,122L281,123 M111,123L112,124 M112,123L113,124 M132,123L133,124 M133,123L134,124 M143,123L144,124 M144,123L145,124 M148,123L149,124 M149,123L150,124 M174,123L175,124 M175,123L176,124 M178,123L179,124 M179,123L180,124 M190,123L191,124 M191,123L192,124 M192,123L193,124 M193,123L194,124 M222,123L223,124 M223,123L224,124 M238,123L239,124 M239,123L240,124 M277,123L278,124 M278,123L279,124 M279,123L280,124 M111,124L112,125 M112,124L113,125 M132,124L133,125 M133,124L134,125 M143,124L144,125 M144,124L145,125 M148,124L149,125 M149,124L150,125 M173,124L174,125 M174,124L175,125 M178,124L179,125 M179,124L180,125 M189,124L190,125 M190,124L191,125 M191,124L192,125 M192,124L193,125 M193,124L194,125 M222,124L223,125 M223,124L224,125 M238,124L239,125 M239,124L240,125 M275,124L276,125 M276,124L277,125 M277,124L278,125 M278,124L279,125 M111,125L112,126 M112,125L113,126 M131,125L132,126 M132,125L133,126 M143,125L144,126 M144,125L145,126 M148,125L149,126 M149,125L150,126 M173,125L174,126 M174,125L175,126 M178,125L179,126 M179,125L180,126 M188,125L189,126 M189,125L190,126 M190,125L191,126 M192,125L193,126 M193,125L194,126 M222,125L223,126 M223,125L224,126 M224,125L225,126 M238,125L239,126 M239,125L240,126 M274,125L275,126 M275,125L276,126 M276,125L277,126 M111,126L112,127 M112,126L113,127 M131,126L132,127 M132,126L133,127 M143,126L144,127 M144,126L145,127 M148,126L149,127 M149,126L150,127 M173,126L174,127 M174,126L175,127 M178,126L179,127 M179,126L180,127 M187,126L188,127 M188,126L189,127 M189,126L190,127 M192,126L193,127 M193,126L194,127 M223,126L224,127 M224,126L225,127 M225,126L226,127 M239,126L240,127 M240,126L241,127 M272,126L273,127 M273,126L274,127 M274,126L275,127 M275,126L276,127 M111,127L112,128 M112,127L113,128 M131,127L132,128 M132,127L133,128 M143,127L144,128 M144,127L145,128 M148,127L149,128 M149,127L150,128 M172,127L173,128 M173,127L174,128 M178,127L179,128 M179,127L180,128 M186,127L187,128 M187,127L188,128 M188,127L189,128 M192,127L193,128 M193,127L194,128 M224,127L225,128 M225,127L226,128 M226,127L227,128 M239,127L240,128 M240,127L241,128 M269,127L270,128 M270,127L271,128 M271,127L272,128 M272,127L273,128 M273,127L274,128 M111,128L112,129 M112,128L113,129 M130,128L131,129 M131,128L132,129 M143,128L144,129 M144,128L145,129 M148,128L149,129 M149,128L150,129 M172,128L173,129 M173,128L174,129 M178,128L179,129 M179,128L180,129 M185,128L186,129 M186,128L187,129 M187,128L188,129 M191,128L192,129 M192,128L193,129 M225,128L226,129 M226,128L227,129 M227,128L228,129 M239,128L240,129 M240,128L241,129 M267,128L268,129 M268,128L269,129 M269,128L270,129 M270,128L271,129 M271,128L272,129 M111,129L112,130 M112,129L113,130 M130,129L131,130 M131,129L132,130 M143,129L144,130 M144,129L145,130 M148,129L149,130 M149,129L150,130 M171,129L172,130 M172,129L173,130 M173,129L174,130 M178,129L179,130 M179,129L180,130 M184,129L185,130 M185,129L186,130 M191,129L192,130 M192,129L193,130 M226,129L227,130 M227,129L228,130 M228,129L229,130 M239,129L240,130 M240,129L241,130 M265,129L266,130 M266,129L267,130 M267,129L268,130 M268,129L269,130 M269,129L270,130 M111,130L112,131 M112,130L113,131 M143,130L144,131 M144,130L145,131 M148,130L149,131 M149,130L150,131 M171,130L172,131 M172,130L173,131 M178,130L179,131 M179,130L180,131 M182,130L183,131 M183,130L184,131 M184,130L185,131 M191,130L192,131 M192,130L193,131 M227,130L228,131 M228,130L229,131 M229,130L230,131 M240,130L241,131 M241,130L242,131 M263,130L264,131 M264,130L265,131 M265,130L266,131 M266,130L267,131 M267,130L268,131 M111,131L112,132 M112,131L113,132 M143,131L144,132 M144,131L145,132 M148,131L149,132 M149,131L150,132 M171,131L172,132 M172,131L173,132 M178,131L179,132 M179,131L180,132 M181,131L182,132 M182,131L183,132 M183,131L184,132 M191,131L192,132 M192,131L193,132 M228,131L229,132 M229,131L230,132 M230,131L231,132 M240,131L241,132 M241,131L242,132 M260,131L261,132 M261,131L262,132 M262,131L263,132 M263,131L264,132 M264,131L265,132 M111,132L112,133 M112,132L113,133 M142,132L143,133 M143,132L144,133 M148,132L149,133 M149,132L150,133 M170,132L171,133 M171,132L172,133 M172,132L173,133 M178,132L179,133 M179,132L180,133 M180,132L181,133 M181,132L182,133 M182,132L183,133 M190,132L191,133 M191,132L192,133 M192,132L193,133 M229,132L230,133 M230,132L231,133 M240,132L241,133 M241,132L242,133 M258,132L259,133 M259,132L260,133 M260,132L261,133 M261,132L262,133 M262,132L263,133 M111,133L112,134 M112,133L113,134 M142,133L143,134 M143,133L144,134 M148,133L149,134 M149,133L150,134 M170,133L171,134 M171,133L172,134 M178,133L179,134 M179,133L180,134 M180,133L181,134 M181,133L182,134 M190,133L191,134 M191,133L192,134 M230,133L231,134 M231,133L232,134 M240,133L241,134 M241,133L242,134 M252,133L253,134 M253,133L254,134 M254,133L255,134 M255,133L256,134 M256,133L257,134 M257,133L258,134 M258,133L259,134 M259,133L260,134 M260,133L261,134 M111,134L112,135 M112,134L113,135 M142,134L143,135 M143,134L144,135 M148,134L149,135 M149,134L150,135 M170,134L171,135 M171,134L172,135 M178,134L179,135 M179,134L180,135 M180,134L181,135 M190,134L191,135 M191,134L192,135 M231,134L232,135 M232,134L233,135 M233,134L234,135 M234,134L235,135 M235,134L236,135 M236,134L237,135 M237,134L238,135 M238,134L239,135 M239,134L240,135 M240,134L241,135 M241,134L242,135 M242,134L243,135 M245,134L246,135 M246,134L247,135 M247,134L248,135 M248,134L249,135 M249,134L250,135 M250,134L251,135 M251,134L252,135 M252,134L253,135 M253,134L254,135 M254,134L255,135 M255,134L256,135 M256,134L257,135 M257,134L258,135 M258,134L259,135 M111,135L112,136 M112,135L113,136 M142,135L143,136 M143,135L144,136 M148,135L149,136 M149,135L150,136 M170,135L171,136 M171,135L172,136 M177,135L178,136 M178,135L179,136 M179,135L180,136 M190,135L191,136 M191,135L192,136 M231,135L232,136 M232,135L233,136 M233,135L234,136 M234,135L235,136 M235,135L236,136 M236,135L237,136 M237,135L238,136 M238,135L239,136 M239,135L240,136 M240,135L241,136 M241,135L242,136 M242,135L243,136 M243,135L244,136 M244,135L245,136 M245,135L246,136 M246,135L247,136 M247,135L248,136 M248,135L249,136 M249,135L250,136 M250,135L251,136 M251,135L252,136 M111,136L112,137 M112,136L113,137 M142,136L143,137 M143,136L144,137 M148,136L149,137 M149,136L150,137 M170,136L171,137 M171,136L172,137 M176,136L177,137 M177,136L178,137 M178,136L179,137 M179,136L180,137 M189,136L190,137 M190,136L191,137 M191,136L192,137 M241,136L242,137 M242,136L243,137 M243,136L244,137 M244,136L245,137 M112,137L113,138 M113,137L114,138 M142,137L143,138 M143,137L144,138 M148,137L149,138 M149,137L150,138 M170,137L171,138 M171,137L172,138 M175,137L176,138 M176,137L177,138 M177,137L178,138 M178,137L179,138 M179,137L180,138 M189,137L190,138 M190,137L191,138 M241,137L242,138 M242,137L243,138 M112,138L113,139 M113,138L114,139 M141,138L142,139 M142,138L143,139 M148,138L149,139 M149,138L150,139 M170,138L171,139 M171,138L172,139 M174,138L175,139 M175,138L176,139 M176,138L177,139 M179,138L180,139 M180,138L181,139 M189,138L190,139 M190,138L191,139 M241,138L242,139 M242,138L243,139 M112,139L113,140 M113,139L114,140 M141,139L142,140 M142,139L143,140 M148,139L149,140 M149,139L150,140 M170,139L171,140 M171,139L172,140 M173,139L174,140 M174,139L175,140 M175,139L176,140 M179,139L180,140 M180,139L181,140 M189,139L190,140 M190,139L191,140 M242,139L243,140 M243,139L244,140 M112,140L113,141 M113,140L114,141 M141,140L142,141 M142,140L143,141 M148,140L149,141 M149,140L150,141 M170,140L171,141 M171,140L172,141 M172,140L173,141 M173,140L174,141 M179,140L180,141 M180,140L181,141 M188,140L189,141 M189,140L190,141 M190,140L191,141 M242,140L243,141 M243,140L244,141 M112,141L113,142 M113,141L114,142 M141,141L142,142 M142,141L143,142 M148,141L149,142 M149,141L150,142 M170,141L171,142 M171,141L172,142 M172,141L173,142 M179,141L180,142 M180,141L181,142 M188,141L189,142 M189,141L190,142 M242,141L243,142 M243,141L244,142 M112,142L113,143 M113,142L114,143 M141,142L142,143 M142,142L143,143 M148,142L149,143 M149,142L150,143 M169,142L170,143 M170,142L171,143 M171,142L172,143 M179,142L180,143 M180,142L181,143 M188,142L189,143 M189,142L190,143 M242,142L243,143 M243,142L244,143 M112,143L113,144 M113,143L114,144 M141,143L142,144 M142,143L143,144 M148,143L149,144 M149,143L150,144 M168,143L169,144 M169,143L170,144 M170,143L171,144 M171,143L172,144 M179,143L180,144 M180,143L181,144 M181,143L182,144 M187,143L188,144 M188,143L189,144 M189,143L190,144 M242,143L243,144 M243,143L244,144 M112,144L113,145 M113,144L114,145 M140,144L141,145 M141,144L142,145 M148,144L149,145 M149,144L150,145 M167,144L168,145 M168,144L169,145 M169,144L170,145 M170,144L171,145 M171,144L172,145 M180,144L181,145 M181,144L182,145 M182,144L183,145 M186,144L187,145 M187,144L188,145 M188,144L189,145 M243,144L244,145 M244,144L245,145 M112,145L113,146 M113,145L114,146 M140,145L141,146 M141,145L142,146 M148,145L149,146 M149,145L150,146 M166,145L167,146 M167,145L168,146 M168,145L169,146 M170,145L171,146 M171,145L172,146 M181,145L182,146 M182,145L183,146 M186,145L187,146 M187,145L188,146 M243,145L244,146 M244,145L245,146 M113,146L114,147 M114,146L115,147 M140,146L141,147 M141,146L142,147 M148,146L149,147 M149,146L150,147 M165,146L166,147 M166,146L167,147 M167,146L168,147 M170,146L171,147 M171,146L172,147 M182,146L183,147 M183,146L184,147 M184,146L185,147 M185,146L186,147 M186,146L187,147 M243,146L244,147 M244,146L245,147 M113,147L114,148 M114,147L115,148 M140,147L141,148 M141,147L142,148 M148,147L149,148 M149,147L150,148 M164,147L165,148 M165,147L166,148 M166,147L167,148 M170,147L171,148 M171,147L172,148 M182,147L183,148 M183,147L184,148 M184,147L185,148 M185,147L186,148 M186,147L187,148 M243,147L244,148 M244,147L245,148 M114,148L115,149 M115,148L116,149 M139,148L140,149 M140,148L141,149 M141,148L142,149 M148,148L149,149 M149,148L150,149 M163,148L164,149 M164,148L165,149 M165,148L166,149 M244,148L245,149 M245,148L246,149 M114,149L115,150 M115,149L116,150 M139,149L140,150 M140,149L141,150 M148,149L149,150 M149,149L150,150 M162,149L163,150 M163,149L164,150 M164,149L165,150 M244,149L245,150 M245,149L246,150 M114,150L115,151 M115,150L116,151 M116,150L117,151 M139,150L140,151 M140,150L141,151 M148,150L149,151 M149,150L150,151 M161,150L162,151 M162,150L163,151 M163,150L164,151 M244,150L245,151 M245,150L246,151 M115,151L116,152 M116,151L117,152 M139,151L140,152 M140,151L141,152 M148,151L149,152 M149,151L150,152 M160,151L161,152 M161,151L162,152 M162,151L163,152 M244,151L245,152 M245,151L246,152 M115,152L116,153 M116,152L117,153 M138,152L139,153 M139,152L140,153 M148,152L149,153 M149,152L150,153 M159,152L160,153 M160,152L161,153 M161,152L162,153 M244,152L245,153 M245,152L246,153 M246,152L247,153 M116,153L117,154 M117,153L118,154 M138,153L139,154 M139,153L140,154 M148,153L149,154 M149,153L150,154 M158,153L159,154 M159,153L160,154 M160,153L161,154 M245,153L246,154 M246,153L247,154 M116,154L117,155 M117,154L118,155 M138,154L139,155 M139,154L140,155 M148,154L149,155 M149,154L150,155 M157,154L158,155 M158,154L159,155 M159,154L160,155 M245,154L246,155 M246,154L247,155 M116,155L117,156 M117,155L118,156 M118,155L119,156 M138,155L139,156 M139,155L140,156 M148,155L149,156 M149,155L150,156 M156,155L157,156 M157,155L158,156 M158,155L159,156 M245,155L246,156 M246,155L247,156 M117,156L118,157 M118,156L119,157 M137,156L138,157 M138,156L139,157 M148,156L149,157 M149,156L150,157 M155,156L156,157 M156,156L157,157 M157,156L158,157 M246,156L247,157 M247,156L248,157 M117,157L118,158 M118,157L119,158 M119,157L120,158 M137,157L138,158 M138,157L139,158 M148,157L149,158 M149,157L150,158 M154,157L155,158 M155,157L156,158 M156,157L157,158 M246,157L247,158 M247,157L248,158 M118,158L119,159 M119,158L120,159 M120,158L121,159 M136,158L137,159 M137,158L138,159 M138,158L139,159 M148,158L149,159 M149,158L150,159 M153,158L154,159 M154,158L155,159 M155,158L156,159 M247,158L248,159 M248,158L249,159 M119,159L120,160 M120,159L121,160 M121,159L122,160 M136,159L137,160 M137,159L138,160 M148,159L149,160 M149,159L150,160 M152,159L153,160 M153,159L154,160 M154,159L155,160 M247,159L248,160 M248,159L249,160 M120,160L121,161 M121,160L122,161 M122,160L123,161 M135,160L136,161 M136,160L137,161 M148,160L149,161 M149,160L150,161 M151,160L152,161 M152,160L153,161 M153,160L154,161 M248,160L249,161 M249,160L250,161 M121,161L122,162 M122,161L123,162 M123,161L124,162 M135,161L136,162 M136,161L137,162 M148,161L149,162 M149,161L150,162 M150,161L151,162 M151,161L152,162 M152,161L153,162 M248,161L249,162 M249,161L250,162 M122,162L123,163 M123,162L124,163 M134,162L135,163 M135,162L136,163 M148,162L149,163 M149,162L150,163 M150,162L151,163 M151,162L152,163 M248,162L249,163 M249,162L250,163 M250,162L251,163 M123,163L124,164 M124,163L125,164 M125,163L126,164 M126,163L127,164 M127,163L128,164 M128,163L129,164 M133,163L134,164 M134,163L135,164 M135,163L136,164 M148,163L149,164 M149,163L150,164 M150,163L151,164 M249,163L250,164 M250,163L251,164 M123,164L124,165 M124,164L125,165 M125,164L126,165 M126,164L127,165 M127,164L128,165 M128,164L129,165 M129,164L130,165 M130,164L131,165 M131,164L132,165 M132,164L133,165 M133,164L134,165 M134,164L135,165 M147,164L148,165 M148,164L149,165 M149,164L150,165 M249,164L250,165 M250,164L251,165 M251,164L252,165 M128,165L129,166 M129,165L130,166 M130,165L131,166 M131,165L132,166 M132,165L133,166 M133,165L134,166 M134,165L135,166 M146,165L147,166 M147,165L148,166 M148,165L149,166 M149,165L150,166 M250,165L251,166 M251,165L252,166 M145,166L146,167 M146,166L147,167 M147,166L148,167 M148,166L149,167 M149,166L150,167 M250,166L251,167 M251,166L252,167 M252,166L253,167 M144,167L145,168 M145,167L146,168 M146,167L147,168 M148,167L149,168 M149,167L150,168 M251,167L252,168 M252,167L253,168 M144,168L145,169 M145,168L146,169 M148,168L149,169 M149,168L150,169 M251,168L252,169 M252,168L253,169 M253,168L254,169 M143,169L144,170 M144,169L145,170 M148,169L149,170 M149,169L150,170 M252,169L253,170 M253,169L254,170 M142,170L143,171 M143,170L144,171 M148,170L149,171 M149,170L150,171 M252,170L253,171 M253,170L254,171 M254,170L255,171 M141,171L142,172 M142,171L143,172 M148,171L149,172 M149,171L150,172 M253,171L254,172 M254,171L255,172 M140,172L141,173 M141,172L142,173 M148,172L149,173 M149,172L150,173 M139,173L140,174 M140,173L141,174 M141,173L142,174 M148,173L149,174 M149,173L150,174 M138,174L139,175 M139,174L140,175 M140,174L141,175 M148,174L149,175 M149,174L150,175 M137,175L138,176 M138,175L139,176 M139,175L140,176 M148,175L149,176 M149,175L150,176 M137,176L138,177 M138,176L139,177 M148,176L149,177 M149,176L150,177 M136,177L137,178 M137,177L138,178 M147,177L148,178 M148,177L149,178 M149,177L150,178 M135,178L136,179 M136,178L137,179 M137,178L138,179 M147,178L148,179 M148,178L149,179 M134,179L135,180 M135,179L136,180 M136,179L137,180 M147,179L148,180 M148,179L149,180 M133,180L134,181 M134,180L135,181 M135,180L136,181 M147,180L148,181 M148,180L149,181 M133,181L134,182 M134,181L135,182 M146,181L147,182 M147,181L148,182 M132,182L133,183 M133,182L134,183 M146,182L147,183 M147,182L148,183 M131,183L132,184 M132,183L133,184 M133,183L134,184 M146,183L147,184 M147,183L148,184 M130,184L131,185 M131,184L132,185 M132,184L133,185 M146,184L147,185 M147,184L148,185 M129,185L130,186 M130,185L131,186 M131,185L132,186 M145,185L146,186 M146,185L147,186 M129,186L130,187 M130,186L131,187 M145,186L146,187 M146,186L147,187 M128,187L129,188 M129,187L130,188 M145,187L146,188 M146,187L147,188 M127,188L128,189 M128,188L129,189 M129,188L130,189 M145,188L146,189 M146,188L147,189 M126,189L127,190 M127,189L128,190 M128,189L129,190 M144,189L145,190 M145,189L146,190 M125,190L126,191 M126,190L127,191 M127,190L128,191 M144,190L145,191 M145,190L146,191 M125,191L126,192 M126,191L127,192 M144,191L145,192 M145,191L146,192 M124,192L125,193 M125,192L126,193 M144,192L145,193 M145,192L146,193 M123,193L124,194 M124,193L125,194 M125,193L126,194 M143,193L144,194 M144,193L145,194 M123,194L124,195 M124,194L125,195 M143,194L144,195 M144,194L145,195 M122,195L123,196 M123,195L124,196 M143,195L144,196 M144,195L145,196 M121,196L122,197 M122,196L123,197 M123,196L124,197 M142,196L143,197 M143,196L144,197 M121,197L122,198 M122,197L123,198 M142,197L143,198 M143,197L144,198 M120,198L121,199 M121,198L122,199 M142,198L143,199 M143,198L144,199 M119,199L120,200 M120,199L121,200 M121,199L122,200 M141,199L142,200 M142,199L143,200 M119,200L120,201 M120,200L121,201 M141,200L142,201 M142,200L143,201 M118,201L119,202 M119,201L120,202 M141,201L142,202 M142,201L143,202 M117,202L118,203 M118,202L119,203 M119,202L120,203 M140,202L141,203 M141,202L142,203 M117,203L118,204 M118,203L119,204 M140,203L141,204 M141,203L142,204 M116,204L117,205 M117,204L118,205 M139,204L140,205 M140,204L141,205 M141,204L142,205 M115,205L116,206 M116,205L117,206 M117,205L118,206 M139,205L140,206 M140,205L141,206 M115,206L116,207 M116,206L117,207 M139,206L140,207 M140,206L141,207 M114,207L115,208 M115,207L116,208 M116,207L117,208 M138,207L139,208 M139,207L140,208 M140,207L141,208 M114,208L115,209 M115,208L116,209 M138,208L139,209 M139,208L140,209 M113,209L114,210 M114,209L115,210 M138,209L139,210 M139,209L140,210 M113,210L114,211 M114,210L115,211 M137,210L138,211 M138,210L139,211 M113,211L114,212 M114,211L115,212 M137,211L138,212 M138,211L139,212 M113,212L114,213 M114,212L115,213 M137,212L138,213 M138,212L139,213 M113,213L114,214 M114,213L115,214 M136,213L137,214 M137,213L138,214 M112,214L113,215 M113,214L114,215 M136,214L137,215 M137,214L138,215 M112,215L113,216 M113,215L114,216 M135,215L136,216 M136,215L137,216 M112,216L113,217 M113,216L114,217 M135,216L136,217 M136,216L137,217 M112,217L113,218 M113,217L114,218 M134,217L135,218 M135,217L136,218 M136,217L137,218 M112,218L113,219 M113,218L114,219 M134,218L135,219 M135,218L136,219 M112,219L113,220 M113,219L114,220 M134,219L135,220 M135,219L136,220 M112,220L113,221 M113,220L114,221 M133,220L134,221 M134,220L135,221 M112,221L113,222 M113,221L114,222 M133,221L134,222 M134,221L135,222 M111,222L112,223 M112,222L113,223 M132,222L133,223 M133,222L134,223 M111,223L112,224 M112,223L113,224 M132,223L133,224 M133,223L134,224 M111,224L112,225 M112,224L113,225 M131,224L132,225 M132,224L133,225 M133,224L134,225 M111,225L112,226 M112,225L113,226 M131,225L132,226 M132,225L133,226 M111,226L112,227 M112,226L113,227 M130,226L131,227 M131,226L132,227 M132,226L133,227 M111,227L112,228 M112,227L113,228 M130,227L131,228 M131,227L132,228 M111,228L112,229 M112,228L113,229 M129,228L130,229 M130,228L131,229 M111,229L112,230 M112,229L113,230 M128,229L129,230 M129,229L130,230 M130,229L131,230 M111,230L112,231 M112,230L113,231 M128,230L129,231 M129,230L130,231 M112,231L113,232 M113,231L114,232 M127,231L128,232 M128,231L129,232 M129,231L130,232 M112,232L113,233 M113,232L114,233 M127,232L128,233 M128,232L129,233 M112,233L113,234 M113,233L114,234 M126,233L127,234 M127,233L128,234 M112,234L113,235 M113,234L114,235 M125,234L126,235 M126,234L127,235 M127,234L128,235 M112,235L113,236 M113,235L114,236 M124,235L125,236 M125,235L126,236 M126,235L127,236 M112,236L113,237 M113,236L114,237 M123,236L124,237 M124,236L125,237 M125,236L126,237 M112,237L113,238 M113,237L114,238 M114,237L115,238 M121,237L122,238 M122,237L123,238 M123,237L124,238 M124,237L125,238 M113,238L114,239 M114,238L115,239 M115,238L116,239 M120,238L121,239 M121,238L122,239 M122,238L123,239 M114,239L115,240 M115,239L116,240 M116,239L117,240 M117,239L118,240 M118,239L119,240 M119,239L120,240 M120,239L121,240 M121,239L122,240 M115,240L116,241 M116,240L117,241 M117,240L118,241 M118,240L119,241 M119,240L120,241 M115,241L116,242" fill="none" stroke="black" />
    </svg>