<svg xmlns="http://www.w3.org/2000/svg" width="800" height="250">
        <path d="M510,16L511,17 M511,16L512,17 M510,17L511,18 M511,17L512,18 M510,18L511,19 M511,18L512,19 M510,19L511,20 M511,19L512,20 M510,20L511,21 M511,20L512,21 M510,21L511,22 M511,21L512,22 M510,22L511,23 M511,22L512,23 M510,23L511,24 M511,23L512,24 M510,24L511,25 M511,24L512,25 M510,25L511,26 M511,25L512,26 M510,26L511,27 M511,26L512,27 M510,27L511,28 M511,27L512,28 M510,28L511,29 M511,28L512,29 M509,29L510,30 M510,29L511,30 M509,30L510,31 M510,30L511,31 M509,31L510,32 M510,31L511,32 M509,32L510,33 M510,32L511,33 M259,33L260,34 M260,33L261,34 M509,33L510,34 M510,33L511,34 M259,34L260,35 M260,34L261,35 M509,34L510,35 M510,34L511,35 M259,35L260,36 M260,35L261,36 M509,35L510,36 M510,35L511,36 M259,36L260,37 M260,36L261,37 M509,36L510,37 M510,36L511,37 M259,37L260,38 M260,37L261,38 M509,37L510,38 M510,37L511,38 M259,38L260,39 M260,38L261,39 M509,38L510,39 M510,38L511,39 M259,39L260,40 M260,39L261,40 M509,39L510,40 M510,39L511,40 M259,40L260,41 M260,40L261,41 M509,40L510,41 M510,40L511,41 M133,41L134,42 M134,41L135,42 M259,41L260,42 M260,41L261,42 M508,41L509,42 M509,41L510,42 M510,41L511,42 M133,42L134,43 M134,42L135,43 M259,42L260,43 M260,42L261,43 M508,42L509,43 M509,42L510,43 M69,43L70,44 M70,43L71,44 M71,43L72,44 M72,43L73,44 M73,43L74,44 M74,43L75,44 M75,43L76,44 M76,43L77,44 M133,43L134,44 M134,43L135,44 M259,43L260,44 M260,43L261,44 M508,43L509,44 M509,43L510,44 M67,44L68,45 M68,44L69,45 M69,44L70,45 M70,44L71,45 M71,44L72,45 M72,44L73,45 M73,44L74,45 M74,44L75,45 M75,44L76,45 M76,44L77,45 M77,44L78,45 M78,44L79,45 M79,44L80,45 M80,44L81,45 M81,44L82,45 M82,44L83,45 M83,44L84,45 M84,44L85,45 M133,44L134,45 M134,44L135,45 M259,44L260,45 M260,44L261,45 M508,44L509,45 M509,44L510,45 M66,45L67,46 M67,45L68,46 M68,45L69,46 M76,45L77,46 M77,45L78,46 M78,45L79,46 M79,45L80,46 M80,45L81,46 M81,45L82,46 M82,45L83,46 M83,45L84,46 M84,45L85,46 M85,45L86,46 M86,45L87,46 M87,45L88,46 M88,45L89,46 M89,45L90,46 M90,45L91,46 M91,45L92,46 M92,45L93,46 M93,45L94,46 M133,45L134,46 M134,45L135,46 M259,45L260,46 M260,45L261,46 M508,45L509,46 M509,45L510,46 M64,46L65,47 M65,46L66,47 M66,46L67,47 M85,46L86,47 M86,46L87,47 M87,46L88,47 M88,46L89,47 M89,46L90,47 M90,46L91,47 M91,46L92,47 M92,46L93,47 M93,46L94,47 M94,46L95,47 M95,46L96,47 M133,46L134,47 M134,46L135,47 M259,46L260,47 M260,46L261,47 M508,46L509,47 M509,46L510,47 M63,47L64,48 M64,47L65,48 M65,47L66,48 M93,47L94,48 M94,47L95,48 M95,47L96,48 M96,47L97,48 M97,47L98,48 M133,47L134,48 M134,47L135,48 M259,47L260,48 M260,47L261,48 M508,47L509,48 M509,47L510,48 M62,48L63,49 M63,48L64,49 M64,48L65,49 M96,48L97,49 M97,48L98,49 M98,48L99,49 M133,48L134,49 M134,48L135,49 M259,48L260,49 M260,48L261,49 M508,48L509,49 M509,48L510,49 M62,49L63,50 M63,49L64,50 M133,49L134,50 M134,49L135,50 M259,49L260,50 M260,49L261,50 M507,49L508,50 M508,49L509,50 M60,50L61,51 M61,50L62,51 M62,50L63,51 M133,50L134,51 M134,50L135,51 M259,50L260,51 M260,50L261,51 M507,50L508,51 M508,50L509,51 M59,51L60,52 M60,51L61,52 M61,51L62,52 M133,51L134,52 M134,51L135,52 M259,51L260,52 M260,51L261,52 M507,51L508,52 M508,51L509,52 M58,52L59,53 M59,52L60,53 M60,52L61,53 M133,52L134,53 M134,52L135,53 M259,52L260,53 M260,52L261,53 M507,52L508,53 M508,52L509,53 M58,53L59,54 M59,53L60,54 M133,53L134,54 M134,53L135,54 M259,53L260,54 M260,53L261,54 M507,53L508,54 M508,53L509,54 M57,54L58,55 M58,54L59,55 M133,54L134,55 M134,54L135,55 M259,54L260,55 M260,54L261,55 M507,54L508,55 M508,54L509,55 M57,55L58,56 M58,55L59,56 M133,55L134,56 M134,55L135,56 M259,55L260,56 M260,55L261,56 M507,55L508,56 M508,55L509,56 M56,56L57,57 M57,56L58,57 M133,56L134,57 M134,56L135,57 M259,56L260,57 M260,56L261,57 M507,56L508,57 M508,56L509,57 M56,57L57,58 M57,57L58,58 M133,57L134,58 M134,57L135,58 M259,57L260,58 M260,57L261,58 M507,57L508,58 M508,57L509,58 M56,58L57,59 M57,58L58,59 M133,58L134,59 M134,58L135,59 M259,58L260,59 M260,58L261,59 M506,58L507,59 M507,58L508,59 M508,58L509,59 M56,59L57,60 M57,59L58,60 M133,59L134,60 M134,59L135,60 M259,59L260,60 M260,59L261,60 M506,59L507,60 M507,59L508,60 M57,60L58,61 M58,60L59,61 M133,60L134,61 M134,60L135,61 M259,60L260,61 M260,60L261,61 M506,60L507,61 M507,60L508,61 M57,61L58,62 M58,61L59,62 M59,61L60,62 M133,61L134,62 M134,61L135,62 M259,61L260,62 M260,61L261,62 M506,61L507,62 M507,61L508,62 M58,62L59,63 M59,62L60,63 M133,62L134,63 M134,62L135,63 M259,62L260,63 M260,62L261,63 M506,62L507,63 M507,62L508,63 M59,63L60,64 M60,63L61,64 M133,63L134,64 M134,63L135,64 M259,63L260,64 M260,63L261,64 M506,63L507,64 M507,63L508,64 M59,64L60,65 M60,64L61,65 M61,64L62,65 M133,64L134,65 M134,64L135,65 M259,64L260,65 M260,64L261,65 M506,64L507,65 M507,64L508,65 M60,65L61,66 M61,65L62,66 M62,65L63,66 M133,65L134,66 M134,65L135,66 M259,65L260,66 M260,65L261,66 M506,65L507,66 M507,65L508,66 M61,66L62,67 M62,66L63,67 M63,66L64,67 M133,66L134,67 M134,66L135,67 M259,66L260,67 M260,66L261,67 M506,66L507,67 M507,66L508,67 M62,67L63,68 M63,67L64,68 M64,67L65,68 M133,67L134,68 M134,67L135,68 M259,67L260,68 M260,67L261,68 M506,67L507,68 M507,67L508,68 M63,68L64,69 M64,68L65,69 M65,68L66,69 M66,68L67,69 M133,68L134,69 M134,68L135,69 M259,68L260,69 M260,68L261,69 M506,68L507,69 M507,68L508,69 M65,69L66,70 M66,69L67,70 M67,69L68,70 M133,69L134,70 M134,69L135,70 M259,69L260,70 M260,69L261,70 M506,69L507,70 M507,69L508,70 M66,70L67,71 M67,70L68,71 M68,70L69,71 M69,70L70,71 M133,70L134,71 M134,70L135,71 M259,70L260,71 M260,70L261,71 M506,70L507,71 M507,70L508,71 M68,71L69,72 M69,71L70,72 M70,71L71,72 M71,71L72,72 M133,71L134,72 M134,71L135,72 M259,71L260,72 M260,71L261,72 M506,71L507,72 M507,71L508,72 M70,72L71,73 M71,72L72,73 M72,72L73,73 M73,72L74,73 M133,72L134,73 M134,72L135,73 M259,72L260,73 M260,72L261,73 M506,72L507,73 M507,72L508,73 M71,73L72,74 M72,73L73,74 M73,73L74,74 M74,73L75,74 M133,73L134,74 M134,73L135,74 M259,73L260,74 M260,73L261,74 M506,73L507,74 M507,73L508,74 M73,74L74,75 M74,74L75,75 M75,74L76,75 M76,74L77,75 M77,74L78,75 M133,74L134,75 M134,74L135,75 M259,74L260,75 M260,74L261,75 M506,74L507,75 M507,74L508,75 M75,75L76,76 M76,75L77,76 M77,75L78,76 M78,75L79,76 M79,75L80,76 M80,75L81,76 M133,75L134,76 M134,75L135,76 M259,75L260,76 M260,75L261,76 M506,75L507,76 M507,75L508,76 M78,76L79,77 M79,76L80,77 M80,76L81,77 M81,76L82,77 M82,76L83,77 M83,76L84,77 M133,76L134,77 M134,76L135,77 M259,76L260,77 M260,76L261,77 M506,76L507,77 M507,76L508,77 M80,77L81,78 M81,77L82,78 M82,77L83,78 M83,77L84,78 M84,77L85,78 M133,77L134,78 M134,77L135,78 M259,77L260,78 M260,77L261,78 M506,77L507,78 M507,77L508,78 M83,78L84,79 M84,78L85,79 M85,78L86,79 M133,78L134,79 M134,78L135,79 M259,78L260,79 M260,78L261,79 M506,78L507,79 M507,78L508,79 M84,79L85,80 M85,79L86,80 M86,79L87,80 M87,79L88,80 M88,79L89,80 M89,79L90,80 M90,79L91,80 M91,79L92,80 M133,79L134,80 M134,79L135,80 M259,79L260,80 M260,79L261,80 M506,79L507,80 M507,79L508,80 M86,80L87,81 M87,80L88,81 M88,80L89,81 M89,80L90,81 M90,80L91,81 M91,80L92,81 M92,80L93,81 M133,80L134,81 M134,80L135,81 M259,80L260,81 M260,80L261,81 M506,80L507,81 M507,80L508,81 M91,81L92,82 M92,81L93,82 M93,81L94,82 M94,81L95,82 M133,81L134,82 M134,81L135,82 M259,81L260,82 M260,81L261,82 M280,81L281,82 M281,81L282,82 M282,81L283,82 M283,81L284,82 M284,81L285,82 M285,81L286,82 M506,81L507,82 M507,81L508,82 M93,82L94,83 M94,82L95,83 M95,82L96,83 M96,82L97,83 M133,82L134,83 M134,82L135,83 M259,82L260,83 M260,82L261,83 M273,82L274,83 M274,82L275,83 M275,82L276,83 M276,82L277,83 M277,82L278,83 M278,82L279,83 M279,82L280,83 M280,82L281,83 M281,82L282,83 M282,82L283,83 M283,82L284,83 M284,82L285,83 M285,82L286,83 M286,82L287,83 M287,82L288,83 M288,82L289,83 M289,82L290,83 M506,82L507,83 M507,82L508,83 M95,83L96,84 M96,83L97,84 M97,83L98,84 M98,83L99,84 M133,83L134,84 M134,83L135,84 M259,83L260,84 M260,83L261,84 M268,83L269,84 M269,83L270,84 M270,83L271,84 M271,83L272,84 M272,83L273,84 M273,83L274,84 M274,83L275,84 M275,83L276,84 M276,83L277,84 M277,83L278,84 M278,83L279,84 M279,83L280,84 M285,83L286,84 M286,83L287,84 M287,83L288,84 M288,83L289,84 M289,83L290,84 M290,83L291,84 M399,83L400,84 M400,83L401,84 M401,83L402,84 M402,83L403,84 M417,83L418,84 M418,83L419,84 M419,83L420,84 M420,83L421,84 M421,83L422,84 M422,83L423,84 M423,83L424,84 M506,83L507,84 M507,83L508,84 M97,84L98,85 M98,84L99,85 M99,84L100,85 M100,84L101,85 M133,84L134,85 M134,84L135,85 M259,84L260,85 M260,84L261,85 M267,84L268,85 M268,84L269,85 M269,84L270,85 M270,84L271,85 M271,84L272,85 M272,84L273,85 M289,84L290,85 M290,84L291,85 M291,84L292,85 M399,84L400,85 M400,84L401,85 M401,84L402,85 M402,84L403,85 M403,84L404,85 M404,84L405,85 M405,84L406,85 M406,84L407,85 M407,84L408,85 M408,84L409,85 M409,84L410,85 M410,84L411,85 M411,84L412,85 M412,84L413,85 M413,84L414,85 M414,84L415,85 M415,84L416,85 M416,84L417,85 M417,84L418,85 M418,84L419,85 M419,84L420,85 M420,84L421,85 M421,84L422,85 M422,84L423,85 M423,84L424,85 M424,84L425,85 M506,84L507,85 M507,84L508,85 M98,85L99,86 M99,85L100,86 M100,85L101,86 M101,85L102,86 M133,85L134,86 M134,85L135,86 M160,85L161,86 M161,85L162,86 M162,85L163,86 M163,85L164,86 M259,85L260,86 M260,85L261,86 M266,85L267,86 M267,85L268,86 M290,85L291,86 M291,85L292,86 M401,85L402,86 M402,85L403,86 M403,85L404,86 M404,85L405,86 M405,85L406,86 M406,85L407,86 M407,85L408,86 M408,85L409,86 M409,85L410,86 M410,85L411,86 M411,85L412,86 M412,85L413,86 M413,85L414,86 M414,85L415,86 M415,85L416,86 M416,85L417,86 M423,85L424,86 M424,85L425,86 M425,85L426,86 M506,85L507,86 M507,85L508,86 M100,86L101,87 M101,86L102,87 M102,86L103,87 M133,86L134,87 M134,86L135,87 M156,86L157,87 M157,86L158,87 M158,86L159,87 M159,86L160,87 M160,86L161,87 M161,86L162,87 M162,86L163,87 M163,86L164,87 M164,86L165,87 M259,86L260,87 M260,86L261,87 M265,86L266,87 M266,86L267,87 M290,86L291,87 M291,86L292,87 M312,86L313,87 M313,86L314,87 M314,86L315,87 M315,86L316,87 M316,86L317,87 M317,86L318,87 M318,86L319,87 M319,86L320,87 M320,86L321,87 M321,86L322,87 M322,86L323,87 M323,86L324,87 M324,86L325,87 M325,86L326,87 M326,86L327,87 M327,86L328,87 M328,86L329,87 M329,86L330,87 M330,86L331,87 M331,86L332,87 M332,86L333,87 M333,86L334,87 M334,86L335,87 M335,86L336,87 M336,86L337,87 M337,86L338,87 M338,86L339,87 M339,86L340,87 M340,86L341,87 M341,86L342,87 M342,86L343,87 M343,86L344,87 M344,86L345,87 M345,86L346,87 M346,86L347,87 M347,86L348,87 M348,86L349,87 M349,86L350,87 M350,86L351,87 M351,86L352,87 M352,86L353,87 M353,86L354,87 M354,86L355,87 M355,86L356,87 M356,86L357,87 M357,86L358,87 M358,86L359,87 M359,86L360,87 M360,86L361,87 M399,86L400,87 M400,86L401,87 M401,86L402,87 M402,86L403,87 M403,86L404,87 M424,86L425,87 M425,86L426,87 M426,86L427,87 M485,86L486,87 M486,86L487,87 M506,86L507,87 M507,86L508,87 M101,87L102,88 M102,87L103,88 M103,87L104,88 M133,87L134,88 M134,87L135,88 M153,87L154,88 M154,87L155,88 M155,87L156,88 M156,87L157,88 M157,87L158,88 M158,87L159,88 M159,87L160,88 M163,87L164,88 M164,87L165,88 M165,87L166,88 M259,87L260,88 M260,87L261,88 M265,87L266,88 M266,87L267,88 M291,87L292,88 M292,87L293,88 M312,87L313,88 M313,87L314,88 M314,87L315,88 M315,87L316,88 M316,87L317,88 M317,87L318,88 M318,87L319,88 M319,87L320,88 M320,87L321,88 M321,87L322,88 M322,87L323,88 M323,87L324,88 M324,87L325,88 M325,87L326,88 M326,87L327,88 M327,87L328,88 M328,87L329,88 M329,87L330,88 M330,87L331,88 M331,87L332,88 M332,87L333,88 M333,87L334,88 M334,87L335,88 M335,87L336,88 M336,87L337,88 M337,87L338,88 M338,87L339,88 M339,87L340,88 M340,87L341,88 M341,87L342,88 M342,87L343,88 M343,87L344,88 M344,87L345,88 M345,87L346,88 M346,87L347,88 M347,87L348,88 M348,87L349,88 M349,87L350,88 M350,87L351,88 M351,87L352,88 M352,87L353,88 M353,87L354,88 M354,87L355,88 M355,87L356,88 M356,87L357,88 M357,87L358,88 M358,87L359,88 M359,87L360,88 M360,87L361,88 M398,87L399,88 M399,87L400,88 M400,87L401,88 M425,87L426,88 M426,87L427,88 M484,87L485,88 M485,87L486,88 M506,87L507,88 M507,87L508,88 M102,88L103,89 M103,88L104,89 M104,88L105,89 M133,88L134,89 M134,88L135,89 M152,88L153,89 M153,88L154,89 M154,88L155,89 M155,88L156,89 M165,88L166,89 M166,88L167,89 M259,88L260,89 M260,88L261,89 M264,88L265,89 M265,88L266,89 M291,88L292,89 M292,88L293,89 M293,88L294,89 M358,88L359,89 M359,88L360,89 M397,88L398,89 M398,88L399,89 M426,88L427,89 M427,88L428,89 M482,88L483,89 M483,88L484,89 M484,88L485,89 M491,88L492,89 M492,88L493,89 M493,88L494,89 M494,88L495,89 M495,88L496,89 M496,88L497,89 M497,88L498,89 M498,88L499,89 M499,88L500,89 M500,88L501,89 M501,88L502,89 M502,88L503,89 M506,88L507,89 M507,88L508,89 M103,89L104,90 M104,89L105,90 M105,89L106,90 M133,89L134,90 M134,89L135,90 M151,89L152,90 M152,89L153,90 M165,89L166,90 M166,89L167,90 M167,89L168,90 M227,89L228,90 M228,89L229,90 M259,89L260,90 M260,89L261,90 M263,89L264,90 M264,89L265,90 M292,89L293,90 M293,89L294,90 M357,89L358,90 M358,89L359,90 M396,89L397,90 M397,89L398,90 M426,89L427,90 M427,89L428,90 M428,89L429,90 M429,89L430,90 M481,89L482,90 M482,89L483,90 M483,89L484,90 M486,89L487,90 M487,89L488,90 M488,89L489,90 M489,89L490,90 M490,89L491,90 M491,89L492,90 M492,89L493,90 M493,89L494,90 M494,89L495,90 M495,89L496,90 M496,89L497,90 M497,89L498,90 M498,89L499,90 M499,89L500,90 M500,89L501,90 M501,89L502,90 M502,89L503,90 M503,89L504,90 M506,89L507,90 M507,89L508,90 M104,90L105,91 M105,90L106,91 M106,90L107,91 M133,90L134,91 M134,90L135,91 M149,90L150,91 M150,90L151,91 M151,90L152,91 M166,90L167,91 M167,90L168,91 M227,90L228,91 M228,90L229,91 M259,90L260,91 M260,90L261,91 M262,90L263,91 M263,90L264,91 M293,90L294,91 M294,90L295,91 M356,90L357,91 M357,90L358,91 M395,90L396,91 M396,90L397,91 M427,90L428,91 M428,90L429,91 M429,90L430,91 M471,90L472,91 M472,90L473,91 M473,90L474,91 M474,90L475,91 M475,90L476,91 M476,90L477,91 M477,90L478,91 M478,90L479,91 M479,90L480,91 M480,90L481,91 M481,90L482,91 M482,90L483,91 M483,90L484,91 M484,90L485,91 M485,90L486,91 M486,90L487,91 M487,90L488,91 M488,90L489,91 M489,90L490,91 M490,90L491,91 M502,90L503,91 M503,90L504,91 M504,90L505,91 M505,90L506,91 M506,90L507,91 M507,90L508,91 M105,91L106,92 M106,91L107,92 M107,91L108,92 M133,91L134,92 M134,91L135,92 M148,91L149,92 M149,91L150,92 M150,91L151,92 M167,91L168,92 M168,91L169,92 M210,91L211,92 M211,91L212,92 M212,91L213,92 M213,91L214,92 M214,91L215,92 M215,91L216,92 M216,91L217,92 M227,91L228,92 M228,91L229,92 M259,91L260,92 M260,91L261,92 M262,91L263,92 M263,91L264,92 M293,91L294,92 M294,91L295,92 M355,91L356,92 M356,91L357,92 M394,91L395,92 M395,91L396,92 M428,91L429,92 M429,91L430,92 M430,91L431,92 M471,91L472,92 M472,91L473,92 M473,91L474,92 M474,91L475,92 M475,91L476,92 M476,91L477,92 M477,91L478,92 M478,91L479,92 M479,91L480,92 M480,91L481,92 M481,91L482,92 M482,91L483,92 M483,91L484,92 M484,91L485,92 M485,91L486,92 M503,91L504,92 M504,91L505,92 M505,91L506,92 M506,91L507,92 M507,91L508,92 M106,92L107,93 M107,92L108,93 M108,92L109,93 M133,92L134,93 M134,92L135,93 M147,92L148,93 M148,92L149,93 M149,92L150,93 M167,92L168,93 M168,92L169,93 M169,92L170,93 M208,92L209,93 M209,92L210,93 M210,92L211,93 M211,92L212,93 M212,92L213,93 M213,92L214,93 M214,92L215,93 M215,92L216,93 M216,92L217,93 M217,92L218,93 M227,92L228,93 M228,92L229,93 M259,92L260,93 M260,92L261,93 M261,92L262,93 M262,92L263,93 M263,92L264,93 M294,92L295,93 M295,92L296,93 M354,92L355,93 M355,92L356,93 M393,92L394,93 M394,92L395,93 M429,92L430,93 M430,92L431,93 M431,92L432,93 M478,92L479,93 M479,92L480,93 M480,92L481,93 M504,92L505,93 M505,92L506,93 M506,92L507,93 M507,92L508,93 M107,93L108,94 M108,93L109,94 M133,93L134,94 M134,93L135,94 M147,93L148,94 M148,93L149,94 M168,93L169,94 M169,93L170,94 M204,93L205,94 M205,93L206,94 M206,93L207,94 M207,93L208,94 M208,93L209,94 M209,93L210,94 M216,93L217,94 M217,93L218,94 M218,93L219,94 M219,93L220,94 M220,93L221,94 M227,93L228,94 M228,93L229,94 M259,93L260,94 M260,93L261,94 M261,93L262,94 M262,93L263,94 M294,93L295,94 M295,93L296,94 M352,93L353,94 M353,93L354,94 M354,93L355,94 M392,93L393,94 M393,93L394,94 M430,93L431,94 M431,93L432,94 M432,93L433,94 M477,93L478,94 M478,93L479,94 M506,93L507,94 M507,93L508,94 M508,93L509,94 M107,94L108,95 M108,94L109,95 M109,94L110,95 M133,94L134,95 M134,94L135,95 M146,94L147,95 M147,94L148,95 M148,94L149,95 M169,94L170,95 M170,94L171,95 M204,94L205,95 M205,94L206,95 M206,94L207,95 M207,94L208,95 M208,94L209,95 M218,94L219,95 M219,94L220,95 M220,94L221,95 M221,94L222,95 M227,94L228,95 M228,94L229,95 M259,94L260,95 M260,94L261,95 M261,94L262,95 M262,94L263,95 M294,94L295,95 M295,94L296,95 M296,94L297,95 M351,94L352,95 M352,94L353,95 M353,94L354,95 M391,94L392,95 M392,94L393,95 M431,94L432,95 M432,94L433,95 M476,94L477,95 M477,94L478,95 M506,94L507,95 M507,94L508,95 M508,94L509,95 M108,95L109,96 M109,95L110,96 M133,95L134,96 M134,95L135,96 M146,95L147,96 M147,95L148,96 M169,95L170,96 M170,95L171,96 M171,95L172,96 M205,95L206,96 M206,95L207,96 M207,95L208,96 M208,95L209,96 M220,95L221,96 M221,95L222,96 M222,95L223,96 M227,95L228,96 M228,95L229,96 M259,95L260,96 M260,95L261,96 M261,95L262,96 M262,95L263,96 M295,95L296,96 M296,95L297,96 M350,95L351,96 M351,95L352,96 M352,95L353,96 M390,95L391,96 M391,95L392,96 M431,95L432,96 M432,95L433,96 M475,95L476,96 M476,95L477,96 M506,95L507,96 M507,95L508,96 M508,95L509,96 M509,95L510,96 M108,96L109,97 M109,96L110,97 M133,96L134,97 M134,96L135,97 M145,96L146,97 M146,96L147,97 M170,96L171,97 M171,96L172,97 M204,96L205,97 M205,96L206,97 M206,96L207,97 M221,96L222,97 M222,96L223,97 M223,96L224,97 M227,96L228,97 M228,96L229,97 M259,96L260,97 M260,96L261,97 M261,96L262,97 M295,96L296,97 M296,96L297,97 M349,96L350,97 M350,96L351,97 M351,96L352,97 M389,96L390,97 M390,96L391,97 M391,96L392,97 M431,96L432,97 M432,96L433,97 M474,96L475,97 M475,96L476,97 M506,96L507,97 M507,96L508,97 M508,96L509,97 M509,96L510,97 M109,97L110,98 M110,97L111,98 M133,97L134,98 M134,97L135,98 M145,97L146,98 M146,97L147,98 M170,97L171,98 M171,97L172,98 M172,97L173,98 M203,97L204,98 M204,97L205,98 M205,97L206,98 M222,97L223,98 M223,97L224,98 M224,97L225,98 M227,97L228,98 M228,97L229,98 M259,97L260,98 M260,97L261,98 M261,97L262,98 M295,97L296,98 M296,97L297,98 M297,97L298,98 M348,97L349,98 M349,97L350,98 M350,97L351,98 M389,97L390,98 M390,97L391,98 M431,97L432,98 M432,97L433,98 M473,97L474,98 M474,97L475,98 M506,97L507,98 M507,97L508,98 M508,97L509,98 M509,97L510,98 M510,97L511,98 M109,98L110,99 M110,98L111,99 M133,98L134,99 M134,98L135,99 M144,98L145,99 M145,98L146,99 M171,98L172,99 M172,98L173,99 M202,98L203,99 M203,98L204,99 M204,98L205,99 M222,98L223,99 M223,98L224,99 M224,98L225,99 M225,98L226,99 M227,98L228,99 M228,98L229,99 M259,98L260,99 M260,98L261,99 M261,98L262,99 M296,98L297,99 M297,98L298,99 M347,98L348,99 M348,98L349,99 M349,98L350,99 M388,98L389,99 M389,98L390,99 M390,98L391,99 M431,98L432,99 M432,98L433,99 M472,98L473,99 M473,98L474,99 M474,98L475,99 M506,98L507,99 M507,98L508,99 M508,98L509,99 M509,98L510,99 M510,98L511,99 M109,99L110,100 M110,99L111,100 M133,99L134,100 M134,99L135,100 M144,99L145,100 M145,99L146,100 M171,99L172,100 M172,99L173,100 M201,99L202,100 M202,99L203,100 M203,99L204,100 M223,99L224,100 M224,99L225,100 M225,99L226,100 M227,99L228,100 M228,99L229,100 M259,99L260,100 M260,99L261,100 M296,99L297,100 M297,99L298,100 M345,99L346,100 M346,99L347,100 M347,99L348,100 M348,99L349,100 M388,99L389,100 M389,99L390,100 M431,99L432,100 M432,99L433,100 M472,99L473,100 M473,99L474,100 M507,99L508,100 M508,99L509,100 M509,99L510,100 M510,99L511,100 M109,100L110,101 M110,100L111,101 M133,100L134,101 M134,100L135,101 M143,100L144,101 M144,100L145,101 M172,100L173,101 M173,100L174,101 M201,100L202,101 M202,100L203,101 M224,100L225,101 M225,100L226,101 M226,100L227,101 M227,100L228,101 M228,100L229,101 M259,100L260,101 M260,100L261,101 M296,100L297,101 M297,100L298,101 M344,100L345,101 M345,100L346,101 M346,100L347,101 M388,100L389,101 M389,100L390,101 M431,100L432,101 M432,100L433,101 M471,100L472,101 M472,100L473,101 M473,100L474,101 M508,100L509,101 M509,100L510,101 M510,100L511,101 M109,101L110,102 M110,101L111,102 M133,101L134,102 M134,101L135,102 M143,101L144,102 M144,101L145,102 M172,101L173,102 M173,101L174,102 M200,101L201,102 M201,101L202,102 M225,101L226,102 M226,101L227,102 M227,101L228,102 M228,101L229,102 M259,101L260,102 M260,101L261,102 M296,101L297,102 M297,101L298,102 M343,101L344,102 M344,101L345,102 M345,101L346,102 M388,101L389,102 M389,101L390,102 M431,101L432,102 M432,101L433,102 M471,101L472,102 M472,101L473,102 M508,101L509,102 M509,101L510,102 M510,101L511,102 M511,101L512,102 M109,102L110,103 M110,102L111,103 M133,102L134,103 M134,102L135,103 M142,102L143,103 M143,102L144,103 M144,102L145,103 M172,102L173,103 M173,102L174,103 M199,102L200,103 M200,102L201,103 M225,102L226,103 M226,102L227,103 M227,102L228,103 M228,102L229,103 M259,102L260,103 M260,102L261,103 M296,102L297,103 M297,102L298,103 M341,102L342,103 M342,102L343,103 M343,102L344,103 M344,102L345,103 M388,102L389,103 M389,102L390,103 M431,102L432,103 M432,102L433,103 M471,102L472,103 M472,102L473,103 M509,102L510,103 M510,102L511,103 M511,102L512,103 M109,103L110,104 M110,103L111,104 M133,103L134,104 M134,103L135,104 M142,103L143,104 M143,103L144,104 M172,103L173,104 M173,103L174,104 M198,103L199,104 M199,103L200,104 M225,103L226,104 M226,103L227,104 M227,103L228,104 M228,103L229,104 M259,103L260,104 M260,103L261,104 M296,103L297,104 M297,103L298,104 M340,103L341,104 M341,103L342,104 M342,103L343,104 M388,103L389,104 M389,103L390,104 M431,103L432,104 M432,103L433,104 M470,103L471,104 M471,103L472,104 M509,103L510,104 M510,103L511,104 M511,103L512,104 M109,104L110,105 M110,104L111,105 M133,104L134,105 M134,104L135,105 M141,104L142,105 M142,104L143,105 M143,104L144,105 M173,104L174,105 M174,104L175,105 M198,104L199,105 M199,104L200,105 M225,104L226,105 M226,104L227,105 M227,104L228,105 M228,104L229,105 M259,104L260,105 M260,104L261,105 M296,104L297,105 M297,104L298,105 M339,104L340,105 M340,104L341,105 M341,104L342,105 M388,104L389,105 M389,104L390,105 M431,104L432,105 M432,104L433,105 M470,104L471,105 M471,104L472,105 M510,104L511,105 M511,104L512,105 M109,105L110,106 M110,105L111,106 M133,105L134,106 M134,105L135,106 M141,105L142,106 M142,105L143,106 M173,105L174,106 M174,105L175,106 M198,105L199,106 M199,105L200,106 M225,105L226,106 M226,105L227,106 M227,105L228,106 M228,105L229,106 M259,105L260,106 M260,105L261,106 M296,105L297,106 M297,105L298,106 M338,105L339,106 M339,105L340,106 M340,105L341,106 M388,105L389,106 M389,105L390,106 M431,105L432,106 M432,105L433,106 M469,105L470,106 M470,105L471,106 M471,105L472,106 M510,105L511,106 M511,105L512,106 M109,106L110,107 M110,106L111,107 M133,106L134,107 M134,106L135,107 M140,106L141,107 M141,106L142,107 M142,106L143,107 M173,106L174,107 M174,106L175,107 M197,106L198,107 M198,106L199,107 M199,106L200,107 M225,106L226,107 M226,106L227,107 M227,106L228,107 M228,106L229,107 M259,106L260,107 M260,106L261,107 M296,106L297,107 M297,106L298,107 M337,106L338,107 M338,106L339,107 M388,106L389,107 M389,106L390,107 M431,106L432,107 M432,106L433,107 M469,106L470,107 M470,106L471,107 M510,106L511,107 M511,106L512,107 M109,107L110,108 M110,107L111,108 M133,107L134,108 M134,107L135,108 M140,107L141,108 M141,107L142,108 M173,107L174,108 M174,107L175,108 M197,107L198,108 M198,107L199,108 M225,107L226,108 M226,107L227,108 M227,107L228,108 M228,107L229,108 M259,107L260,108 M260,107L261,108 M296,107L297,108 M297,107L298,108 M336,107L337,108 M337,107L338,108 M388,107L389,108 M389,107L390,108 M431,107L432,108 M432,107L433,108 M469,107L470,108 M470,107L471,108 M510,107L511,108 M511,107L512,108 M109,108L110,109 M110,108L111,109 M133,108L134,109 M134,108L135,109 M140,108L141,109 M141,108L142,109 M173,108L174,109 M174,108L175,109 M197,108L198,109 M198,108L199,109 M225,108L226,109 M226,108L227,109 M227,108L228,109 M228,108L229,109 M259,108L260,109 M260,108L261,109 M296,108L297,109 M297,108L298,109 M335,108L336,109 M336,108L337,109 M388,108L389,109 M389,108L390,109 M431,108L432,109 M432,108L433,109 M469,108L470,109 M470,108L471,109 M509,108L510,109 M510,108L511,109 M511,108L512,109 M108,109L109,110 M109,109L110,110 M110,109L111,110 M133,109L134,110 M134,109L135,110 M140,109L141,110 M141,109L142,110 M173,109L174,110 M174,109L175,110 M197,109L198,110 M198,109L199,110 M225,109L226,110 M226,109L227,110 M227,109L228,110 M228,109L229,110 M259,109L260,110 M260,109L261,110 M296,109L297,110 M297,109L298,110 M333,109L334,110 M334,109L335,110 M335,109L336,110 M388,109L389,110 M389,109L390,110 M431,109L432,110 M432,109L433,110 M469,109L470,110 M470,109L471,110 M509,109L510,110 M510,109L511,110 M108,110L109,111 M109,110L110,111 M133,110L134,111 M134,110L135,111 M140,110L141,111 M141,110L142,111 M173,110L174,111 M174,110L175,111 M197,110L198,111 M198,110L199,111 M225,110L226,111 M226,110L227,111 M227,110L228,111 M228,110L229,111 M259,110L260,111 M260,110L261,111 M296,110L297,111 M297,110L298,111 M332,110L333,111 M333,110L334,111 M334,110L335,111 M388,110L389,111 M389,110L390,111 M431,110L432,111 M432,110L433,111 M469,110L470,111 M470,110L471,111 M509,110L510,111 M510,110L511,111 M107,111L108,112 M108,111L109,112 M133,111L134,112 M134,111L135,112 M139,111L140,112 M140,111L141,112 M141,111L142,112 M173,111L174,112 M174,111L175,112 M197,111L198,112 M198,111L199,112 M225,111L226,112 M226,111L227,112 M227,111L228,112 M228,111L229,112 M259,111L260,112 M260,111L261,112 M296,111L297,112 M297,111L298,112 M331,111L332,112 M332,111L333,112 M333,111L334,112 M388,111L389,112 M389,111L390,112 M431,111L432,112 M432,111L433,112 M469,111L470,112 M470,111L471,112 M508,111L509,112 M509,111L510,112 M510,111L511,112 M106,112L107,113 M107,112L108,113 M108,112L109,113 M133,112L134,113 M134,112L135,113 M139,112L140,113 M140,112L141,113 M173,112L174,113 M174,112L175,113 M197,112L198,113 M198,112L199,113 M225,112L226,113 M226,112L227,113 M227,112L228,113 M228,112L229,113 M259,112L260,113 M260,112L261,113 M296,112L297,113 M297,112L298,113 M330,112L331,113 M331,112L332,113 M388,112L389,113 M389,112L390,113 M430,112L431,113 M431,112L432,113 M469,112L470,113 M470,112L471,113 M508,112L509,113 M509,112L510,113 M106,113L107,114 M107,113L108,114 M133,113L134,114 M134,113L135,114 M139,113L140,114 M140,113L141,114 M173,113L174,114 M174,113L175,114 M197,113L198,114 M198,113L199,114 M225,113L226,114 M226,113L227,114 M227,113L228,114 M228,113L229,114 M258,113L259,114 M259,113L260,114 M296,113L297,114 M297,113L298,114 M329,113L330,114 M330,113L331,114 M389,113L390,114 M390,113L391,114 M430,113L431,114 M431,113L432,114 M469,113L470,114 M470,113L471,114 M507,113L508,114 M508,113L509,114 M509,113L510,114 M105,114L106,115 M106,114L107,115 M107,114L108,115 M133,114L134,115 M134,114L135,115 M139,114L140,115 M140,114L141,115 M173,114L174,115 M174,114L175,115 M197,114L198,115 M198,114L199,115 M225,114L226,115 M226,114L227,115 M227,114L228,115 M228,114L229,115 M258,114L259,115 M259,114L260,115 M296,114L297,115 M297,114L298,115 M328,114L329,115 M329,114L330,115 M389,114L390,115 M390,114L391,115 M391,114L392,115 M430,114L431,115 M431,114L432,115 M469,114L470,115 M470,114L471,115 M507,114L508,115 M508,114L509,115 M105,115L106,116 M106,115L107,116 M133,115L134,116 M134,115L135,116 M139,115L140,116 M140,115L141,116 M173,115L174,116 M174,115L175,116 M196,115L197,116 M197,115L198,116 M225,115L226,116 M226,115L227,116 M227,115L228,116 M228,115L229,116 M258,115L259,116 M259,115L260,116 M296,115L297,116 M297,115L298,116 M327,115L328,116 M328,115L329,116 M390,115L391,116 M391,115L392,116 M392,115L393,116 M429,115L430,116 M430,115L431,116 M469,115L470,116 M470,115L471,116 M506,115L507,116 M507,115L508,116 M508,115L509,116 M104,116L105,117 M105,116L106,117 M106,116L107,117 M133,116L134,117 M134,116L135,117 M138,116L139,117 M139,116L140,117 M173,116L174,117 M174,116L175,117 M196,116L197,117 M197,116L198,117 M224,116L225,117 M225,116L226,117 M226,116L227,117 M227,116L228,117 M228,116L229,117 M258,116L259,117 M259,116L260,117 M296,116L297,117 M297,116L298,117 M326,116L327,117 M327,116L328,117 M391,116L392,117 M392,116L393,117 M393,116L394,117 M429,116L430,117 M430,116L431,117 M469,116L470,117 M470,116L471,117 M506,116L507,117 M507,116L508,117 M103,117L104,118 M104,117L105,118 M105,117L106,118 M133,117L134,118 M134,117L135,118 M138,117L139,118 M139,117L140,118 M173,117L174,118 M174,117L175,118 M196,117L197,118 M197,117L198,118 M224,117L225,118 M225,117L226,118 M227,117L228,118 M228,117L229,118 M258,117L259,118 M259,117L260,118 M296,117L297,118 M297,117L298,118 M325,117L326,118 M326,117L327,118 M392,117L393,118 M393,117L394,118 M428,117L429,118 M429,117L430,118 M430,117L431,118 M469,117L470,118 M470,117L471,118 M505,117L506,118 M506,117L507,118 M507,117L508,118 M103,118L104,119 M104,118L105,119 M133,118L134,119 M134,118L135,119 M138,118L139,119 M139,118L140,119 M173,118L174,119 M174,118L175,119 M196,118L197,119 M197,118L198,119 M224,118L225,119 M225,118L226,119 M227,118L228,119 M228,118L229,119 M258,118L259,119 M259,118L260,119 M296,118L297,119 M297,118L298,119 M324,118L325,119 M325,118L326,119 M393,118L394,119 M394,118L395,119 M428,118L429,119 M429,118L430,119 M470,118L471,119 M471,118L472,119 M504,118L505,119 M505,118L506,119 M506,118L507,119 M101,119L102,120 M102,119L103,120 M103,119L104,120 M133,119L134,120 M134,119L135,120 M138,119L139,120 M139,119L140,120 M173,119L174,120 M174,119L175,120 M196,119L197,120 M197,119L198,120 M223,119L224,120 M224,119L225,120 M227,119L228,120 M228,119L229,120 M258,119L259,120 M259,119L260,120 M296,119L297,120 M297,119L298,120 M323,119L324,120 M324,119L325,120 M325,119L326,120 M393,119L394,120 M394,119L395,120 M395,119L396,120 M426,119L427,120 M427,119L428,120 M428,119L429,120 M470,119L471,120 M471,119L472,120 M504,119L505,120 M505,119L506,120 M100,120L101,121 M101,120L102,121 M102,120L103,121 M133,120L134,121 M134,120L135,121 M138,120L139,121 M139,120L140,121 M173,120L174,121 M174,120L175,121 M196,120L197,121 M197,120L198,121 M223,120L224,121 M224,120L225,121 M227,120L228,121 M228,120L229,121 M258,120L259,121 M259,120L260,121 M296,120L297,121 M297,120L298,121 M323,120L324,121 M324,120L325,121 M394,120L395,121 M395,120L396,121 M396,120L397,121 M425,120L426,121 M426,120L427,121 M427,120L428,121 M471,120L472,121 M472,120L473,121 M502,120L503,121 M503,120L504,121 M504,120L505,121 M99,121L100,122 M100,121L101,122 M101,121L102,122 M133,121L134,122 M134,121L135,122 M138,121L139,122 M139,121L140,122 M173,121L174,122 M174,121L175,122 M196,121L197,122 M197,121L198,122 M222,121L223,122 M223,121L224,122 M227,121L228,122 M228,121L229,122 M258,121L259,122 M259,121L260,122 M296,121L297,122 M297,121L298,122 M322,121L323,122 M323,121L324,122 M395,121L396,122 M396,121L397,122 M397,121L398,122 M422,121L423,122 M423,121L424,122 M424,121L425,122 M425,121L426,122 M426,121L427,122 M471,121L472,122 M472,121L473,122 M473,121L474,122 M474,121L475,122 M500,121L501,122 M501,121L502,122 M502,121L503,122 M503,121L504,122 M97,122L98,123 M98,122L99,123 M99,122L100,123 M100,122L101,123 M133,122L134,123 M134,122L135,123 M137,122L138,123 M138,122L139,123 M173,122L174,123 M174,122L175,123 M196,122L197,123 M197,122L198,123 M221,122L222,123 M222,122L223,123 M227,122L228,123 M228,122L229,123 M258,122L259,123 M259,122L260,123 M296,122L297,123 M297,122L298,123 M321,122L322,123 M322,122L323,123 M323,122L324,123 M324,122L325,123 M325,122L326,123 M326,122L327,123 M327,122L328,123 M328,122L329,123 M329,122L330,123 M330,122L331,123 M331,122L332,123 M332,122L333,123 M333,122L334,123 M334,122L335,123 M335,122L336,123 M336,122L337,123 M337,122L338,123 M338,122L339,123 M339,122L340,123 M340,122L341,123 M341,122L342,123 M342,122L343,123 M343,122L344,123 M344,122L345,123 M345,122L346,123 M346,122L347,123 M347,122L348,123 M348,122L349,123 M349,122L350,123 M350,122L351,123 M351,122L352,123 M352,122L353,123 M353,122L354,123 M354,122L355,123 M355,122L356,123 M356,122L357,123 M357,122L358,123 M358,122L359,123 M359,122L360,123 M360,122L361,123 M361,122L362,123 M362,122L363,123 M363,122L364,123 M364,122L365,123 M396,122L397,123 M397,122L398,123 M398,122L399,123 M399,122L400,123 M419,122L420,123 M420,122L421,123 M421,122L422,123 M422,122L423,123 M423,122L424,123 M424,122L425,123 M472,122L473,123 M473,122L474,123 M474,122L475,123 M475,122L476,123 M476,122L477,123 M477,122L478,123 M497,122L498,123 M498,122L499,123 M499,122L500,123 M500,122L501,123 M501,122L502,123 M96,123L97,124 M97,123L98,124 M98,123L99,124 M133,123L134,124 M134,123L135,124 M137,123L138,124 M138,123L139,124 M173,123L174,124 M174,123L175,124 M197,123L198,124 M198,123L199,124 M221,123L222,124 M222,123L223,124 M227,123L228,124 M228,123L229,124 M258,123L259,124 M259,123L260,124 M295,123L296,124 M296,123L297,124 M297,123L298,124 M321,123L322,124 M322,123L323,124 M323,123L324,124 M324,123L325,124 M325,123L326,124 M326,123L327,124 M327,123L328,124 M328,123L329,124 M329,123L330,124 M330,123L331,124 M331,123L332,124 M332,123L333,124 M333,123L334,124 M334,123L335,124 M335,123L336,124 M336,123L337,124 M337,123L338,124 M338,123L339,124 M339,123L340,124 M340,123L341,124 M341,123L342,124 M342,123L343,124 M343,123L344,124 M344,123L345,124 M345,123L346,124 M346,123L347,124 M347,123L348,124 M348,123L349,124 M349,123L350,124 M350,123L351,124 M351,123L352,124 M352,123L353,124 M353,123L354,124 M354,123L355,124 M355,123L356,124 M356,123L357,124 M357,123L358,124 M358,123L359,124 M359,123L360,124 M360,123L361,124 M361,123L362,124 M362,123L363,124 M363,123L364,124 M364,123L365,124 M398,123L399,124 M399,123L400,124 M400,123L401,124 M416,123L417,124 M417,123L418,124 M418,123L419,124 M419,123L420,124 M420,123L421,124 M421,123L422,124 M475,123L476,124 M476,123L477,124 M477,123L478,124 M478,123L479,124 M479,123L480,124 M480,123L481,124 M495,123L496,124 M496,123L497,124 M497,123L498,124 M498,123L499,124 M499,123L500,124 M54,124L55,125 M55,124L56,125 M95,124L96,125 M96,124L97,125 M97,124L98,125 M133,124L134,125 M134,124L135,125 M137,124L138,125 M138,124L139,125 M173,124L174,125 M174,124L175,125 M197,124L198,125 M198,124L199,125 M220,124L221,125 M221,124L222,125 M227,124L228,125 M228,124L229,125 M258,124L259,125 M259,124L260,125 M295,124L296,125 M296,124L297,125 M297,124L298,125 M399,124L400,125 M400,124L401,125 M401,124L402,125 M402,124L403,125 M403,124L404,125 M404,124L405,125 M405,124L406,125 M406,124L407,125 M407,124L408,125 M408,124L409,125 M409,124L410,125 M410,124L411,125 M411,124L412,125 M412,124L413,125 M413,124L414,125 M414,124L415,125 M415,124L416,125 M416,124L417,125 M417,124L418,125 M418,124L419,125 M477,124L478,125 M478,124L479,125 M479,124L480,125 M480,124L481,125 M481,124L482,125 M482,124L483,125 M483,124L484,125 M484,124L485,125 M485,124L486,125 M486,124L487,125 M487,124L488,125 M488,124L489,125 M489,124L490,125 M490,124L491,125 M491,124L492,125 M492,124L493,125 M493,124L494,125 M494,124L495,125 M495,124L496,125 M496,124L497,125 M497,124L498,125 M54,125L55,126 M55,125L56,126 M56,125L57,126 M57,125L58,126 M58,125L59,126 M59,125L60,126 M60,125L61,126 M90,125L91,126 M91,125L92,126 M92,125L93,126 M93,125L94,126 M94,125L95,126 M95,125L96,126 M96,125L97,126 M133,125L134,126 M134,125L135,126 M137,125L138,126 M138,125L139,126 M173,125L174,126 M174,125L175,126 M197,125L198,126 M198,125L199,126 M220,125L221,126 M221,125L222,126 M227,125L228,126 M228,125L229,126 M258,125L259,126 M259,125L260,126 M401,125L402,126 M402,125L403,126 M403,125L404,126 M404,125L405,126 M405,125L406,126 M406,125L407,126 M407,125L408,126 M408,125L409,126 M409,125L410,126 M410,125L411,126 M411,125L412,126 M412,125L413,126 M413,125L414,126 M414,125L415,126 M415,125L416,126 M480,125L481,126 M481,125L482,126 M482,125L483,126 M483,125L484,126 M484,125L485,126 M485,125L486,126 M486,125L487,126 M487,125L488,126 M488,125L489,126 M489,125L490,126 M490,125L491,126 M491,125L492,126 M492,125L493,126 M493,125L494,126 M494,125L495,126 M56,126L57,127 M57,126L58,127 M58,126L59,127 M59,126L60,127 M60,126L61,127 M61,126L62,127 M62,126L63,127 M63,126L64,127 M64,126L65,127 M65,126L66,127 M66,126L67,127 M67,126L68,127 M68,126L69,127 M69,126L70,127 M70,126L71,127 M71,126L72,127 M72,126L73,127 M73,126L74,127 M74,126L75,127 M75,126L76,127 M76,126L77,127 M77,126L78,127 M78,126L79,127 M79,126L80,127 M80,126L81,127 M81,126L82,127 M82,126L83,127 M83,126L84,127 M84,126L85,127 M85,126L86,127 M86,126L87,127 M87,126L88,127 M88,126L89,127 M89,126L90,127 M90,126L91,127 M91,126L92,127 M92,126L93,127 M93,126L94,127 M94,126L95,127 M133,126L134,127 M134,126L135,127 M136,126L137,127 M137,126L138,127 M138,126L139,127 M173,126L174,127 M174,126L175,127 M197,126L198,127 M198,126L199,127 M199,126L200,127 M219,126L220,127 M220,126L221,127 M227,126L228,127 M228,126L229,127 M258,126L259,127 M259,126L260,127 M61,127L62,128 M62,127L63,128 M63,127L64,128 M64,127L65,128 M65,127L66,128 M66,127L67,128 M67,127L68,128 M68,127L69,128 M69,127L70,128 M70,127L71,128 M71,127L72,128 M72,127L73,128 M73,127L74,128 M74,127L75,128 M75,127L76,128 M76,127L77,128 M77,127L78,128 M78,127L79,128 M79,127L80,128 M80,127L81,128 M81,127L82,128 M82,127L83,128 M83,127L84,128 M84,127L85,128 M85,127L86,128 M86,127L87,128 M87,127L88,128 M88,127L89,128 M89,127L90,128 M90,127L91,128 M133,127L134,128 M134,127L135,128 M136,127L137,128 M137,127L138,128 M173,127L174,128 M174,127L175,128 M198,127L199,128 M199,127L200,128 M200,127L201,128 M217,127L218,128 M218,127L219,128 M219,127L220,128 M220,127L221,128 M227,127L228,128 M228,127L229,128 M258,127L259,128 M259,127L260,128 M133,128L134,129 M134,128L135,129 M136,128L137,129 M137,128L138,129 M173,128L174,129 M174,128L175,129 M199,128L200,129 M200,128L201,129 M216,128L217,129 M217,128L218,129 M218,128L219,129 M219,128L220,129 M227,128L228,129 M228,128L229,129 M258,128L259,129 M259,128L260,129 M133,129L134,130 M134,129L135,130 M136,129L137,130 M137,129L138,130 M173,129L174,130 M174,129L175,130 M200,129L201,130 M201,129L202,130 M215,129L216,130 M216,129L217,130 M227,129L228,130 M228,129L229,130 M258,129L259,130 M259,129L260,130 M133,130L134,131 M134,130L135,131 M136,130L137,131 M137,130L138,131 M173,130L174,131 M174,130L175,131 M200,130L201,131 M201,130L202,131 M212,130L213,131 M213,130L214,131 M214,130L215,131 M215,130L216,131 M227,130L228,131 M228,130L229,131 M258,130L259,131 M259,130L260,131 M133,131L134,132 M134,131L135,132 M136,131L137,132 M137,131L138,132 M173,131L174,132 M174,131L175,132 M201,131L202,132 M202,131L203,132 M203,131L204,132 M204,131L205,132 M205,131L206,132 M206,131L207,132 M207,131L208,132 M208,131L209,132 M209,131L210,132 M210,131L211,132 M211,131L212,132 M212,131L213,132 M213,131L214,132 M214,131L215,132 M227,131L228,132 M228,131L229,132 M258,131L259,132 M259,131L260,132 M133,132L134,133 M134,132L135,133 M136,132L137,133 M137,132L138,133 M173,132L174,133 M174,132L175,133 M201,132L202,133 M202,132L203,133 M203,132L204,133 M204,132L205,133 M205,132L206,133 M206,132L207,133 M207,132L208,133 M208,132L209,133 M209,132L210,133 M210,132L211,133 M211,132L212,133 M258,132L259,133 M259,132L260,133 M133,133L134,134 M134,133L135,134 M136,133L137,134 M137,133L138,134 M173,133L174,134 M174,133L175,134 M258,133L259,134 M259,133L260,134 M133,134L134,135 M134,134L135,135 M136,134L137,135 M137,134L138,135 M173,134L174,135 M174,134L175,135 M258,134L259,135 M259,134L260,135 M133,135L134,136 M134,135L135,136 M136,135L137,136 M137,135L138,136 M173,135L174,136 M174,135L175,136 M258,135L259,136 M259,135L260,136 M133,136L134,137 M134,136L135,137 M136,136L137,137 M137,136L138,137 M133,137L134,138 M134,137L135,138 M135,137L136,138 M136,137L137,138 M137,137L138,138 M133,138L134,139 M134,138L135,139 M135,138L136,139 M136,138L137,139 M133,139L134,140 M134,139L135,140 M135,139L136,140 M136,139L137,140 M133,140L134,141 M134,140L135,141 M135,140L136,141 M136,140L137,141 M133,141L134,142 M134,141L135,142 M135,141L136,142 M136,141L137,142 M133,142L134,143 M134,142L135,143 M135,142L136,143 M136,142L137,143 M133,143L134,144 M134,143L135,144 M135,143L136,144 M136,143L137,144 M133,144L134,145 M134,144L135,145 M135,144L136,145 M136,144L137,145 M133,145L134,146 M134,145L135,146 M135,145L136,146 M136,145L137,146 M133,146L134,147 M134,146L135,147 M135,146L136,147 M136,146L137,147 M133,147L134,148 M134,147L135,148 M135,147L136,148 M133,148L134,149 M134,148L135,149 M135,148L136,149 M133,149L134,150 M134,149L135,150 M135,149L136,150 M133,150L134,151 M134,150L135,151" fill="none" stroke="black" />
    </svg>