<svg xmlns="http://www.w3.org/2000/svg" width="800" height="250">
        <path d="M463,30L464,31 M464,30L465,31 M465,30L466,31 M466,30L467,31 M467,30L468,31 M468,30L469,31 M469,30L470,31 M470,30L471,31 M471,30L472,31 M472,30L473,31 M473,30L474,31 M459,31L460,32 M460,31L461,32 M461,31L462,32 M462,31L463,32 M463,31L464,32 M464,31L465,32 M465,31L466,32 M466,31L467,32 M467,31L468,32 M468,31L469,32 M469,31L470,32 M470,31L471,32 M471,31L472,32 M472,31L473,32 M473,31L474,32 M474,31L475,32 M475,31L476,32 M476,31L477,32 M477,31L478,32 M478,31L479,32 M479,31L480,32 M480,31L481,32 M481,31L482,32 M482,31L483,32 M483,31L484,32 M484,31L485,32 M485,31L486,32 M486,31L487,32 M456,32L457,33 M457,32L458,33 M458,32L459,33 M459,32L460,33 M460,32L461,33 M461,32L462,33 M462,32L463,33 M474,32L475,33 M475,32L476,33 M476,32L477,33 M477,32L478,33 M478,32L479,33 M479,32L480,33 M480,32L481,33 M481,32L482,33 M482,32L483,33 M483,32L484,33 M484,32L485,33 M485,32L486,33 M486,32L487,33 M487,32L488,33 M488,32L489,33 M452,33L453,34 M453,33L454,34 M454,33L455,34 M455,33L456,34 M456,33L457,34 M457,33L458,34 M458,33L459,34 M486,33L487,34 M487,33L488,34 M488,33L489,34 M489,33L490,34 M490,33L491,34 M448,34L449,35 M449,34L450,35 M450,34L451,35 M451,34L452,35 M452,34L453,35 M453,34L454,35 M454,34L455,35 M455,34L456,35 M488,34L489,35 M489,34L490,35 M490,34L491,35 M491,34L492,35 M492,34L493,35 M445,35L446,36 M446,35L447,36 M447,35L448,36 M448,35L449,36 M449,35L450,36 M450,35L451,36 M451,35L452,36 M490,35L491,36 M491,35L492,36 M492,35L493,36 M493,35L494,36 M494,35L495,36 M441,36L442,37 M442,36L443,37 M443,36L444,37 M444,36L445,37 M445,36L446,37 M446,36L447,37 M447,36L448,37 M448,36L449,37 M493,36L494,37 M494,36L495,37 M495,36L496,37 M496,36L497,37 M439,37L440,38 M440,37L441,38 M441,37L442,38 M442,37L443,38 M443,37L444,38 M444,37L445,38 M495,37L496,38 M496,37L497,38 M497,37L498,38 M498,37L499,38 M437,38L438,39 M438,38L439,39 M439,38L440,39 M440,38L441,39 M441,38L442,39 M497,38L498,39 M498,38L499,39 M499,38L500,39 M500,38L501,39 M436,39L437,40 M437,39L438,40 M438,39L439,40 M499,39L500,40 M500,39L501,40 M501,39L502,40 M502,39L503,40 M503,39L504,40 M435,40L436,41 M436,40L437,41 M437,40L438,41 M501,40L502,41 M502,40L503,41 M503,40L504,41 M504,40L505,41 M505,40L506,41 M434,41L435,42 M435,41L436,42 M436,41L437,42 M503,41L504,42 M504,41L505,42 M505,41L506,42 M506,41L507,42 M432,42L433,43 M433,42L434,43 M434,42L435,43 M505,42L506,43 M506,42L507,43 M507,42L508,43 M431,43L432,44 M432,43L433,44 M433,43L434,44 M506,43L507,44 M507,43L508,44 M430,44L431,45 M431,44L432,45 M432,44L433,45 M507,44L508,45 M508,44L509,45 M428,45L429,46 M429,45L430,46 M430,45L431,46 M431,45L432,46 M507,45L508,46 M508,45L509,46 M427,46L428,47 M428,46L429,47 M429,46L430,47 M508,46L509,47 M509,46L510,47 M426,47L427,48 M427,47L428,48 M428,47L429,48 M508,47L509,48 M509,47L510,48 M425,48L426,49 M426,48L427,49 M427,48L428,49 M509,48L510,49 M510,48L511,49 M423,49L424,50 M424,49L425,50 M425,49L426,50 M426,49L427,50 M509,49L510,50 M510,49L511,50 M422,50L423,51 M423,50L424,51 M424,50L425,51 M509,50L510,51 M510,50L511,51 M421,51L422,52 M422,51L423,52 M423,51L424,52 M509,51L510,52 M510,51L511,52 M420,52L421,53 M421,52L422,53 M422,52L423,53 M509,52L510,53 M510,52L511,53 M418,53L419,54 M419,53L420,54 M420,53L421,54 M421,53L422,54 M509,53L510,54 M510,53L511,54 M417,54L418,55 M418,54L419,55 M419,54L420,55 M509,54L510,55 M510,54L511,55 M416,55L417,56 M417,55L418,56 M418,55L419,56 M508,55L509,56 M509,55L510,56 M415,56L416,57 M416,56L417,57 M417,56L418,57 M507,56L508,57 M508,56L509,57 M413,57L414,58 M414,57L415,58 M415,57L416,58 M416,57L417,58 M506,57L507,58 M507,57L508,58 M412,58L413,59 M413,58L414,59 M414,58L415,59 M505,58L506,59 M506,58L507,59 M411,59L412,60 M412,59L413,60 M413,59L414,60 M504,59L505,60 M505,59L506,60 M410,60L411,61 M411,60L412,61 M412,60L413,61 M503,60L504,61 M504,60L505,61 M408,61L409,62 M409,61L410,62 M410,61L411,62 M411,61L412,62 M502,61L503,62 M503,61L504,62 M407,62L408,63 M408,62L409,63 M409,62L410,63 M501,62L502,63 M502,62L503,63 M406,63L407,64 M407,63L408,64 M408,63L409,64 M499,63L500,64 M500,63L501,64 M501,63L502,64 M405,64L406,65 M406,64L407,65 M407,64L408,65 M497,64L498,65 M498,64L499,65 M499,64L500,65 M500,64L501,65 M404,65L405,66 M405,65L406,66 M406,65L407,66 M495,65L496,66 M496,65L497,66 M497,65L498,66 M498,65L499,66 M499,65L500,66 M403,66L404,67 M404,66L405,67 M405,66L406,67 M493,66L494,67 M494,66L495,67 M495,66L496,67 M496,66L497,67 M497,66L498,67 M403,67L404,68 M404,67L405,68 M491,67L492,68 M492,67L493,68 M493,67L494,68 M494,67L495,68 M402,68L403,69 M403,68L404,69 M404,68L405,69 M489,68L490,69 M490,68L491,69 M491,68L492,69 M492,68L493,69 M402,69L403,70 M403,69L404,70 M486,69L487,70 M487,69L488,70 M488,69L489,70 M489,69L490,70 M490,69L491,70 M401,70L402,71 M402,70L403,71 M480,70L481,71 M481,70L482,71 M482,70L483,71 M483,70L484,71 M484,70L485,71 M485,70L486,71 M486,70L487,71 M487,70L488,71 M488,70L489,71 M401,71L402,72 M402,71L403,72 M467,71L468,72 M468,71L469,72 M469,71L470,72 M470,71L471,72 M471,71L472,72 M472,71L473,72 M473,71L474,72 M474,71L475,72 M475,71L476,72 M476,71L477,72 M477,71L478,72 M478,71L479,72 M479,71L480,72 M480,71L481,72 M481,71L482,72 M482,71L483,72 M483,71L484,72 M484,71L485,72 M485,71L486,72 M486,71L487,72 M378,72L379,73 M379,72L380,73 M380,72L381,73 M381,72L382,73 M382,72L383,73 M383,72L384,73 M384,72L385,73 M385,72L386,73 M386,72L387,73 M387,72L388,73 M388,72L389,73 M389,72L390,73 M390,72L391,73 M391,72L392,73 M392,72L393,73 M393,72L394,73 M394,72L395,73 M395,72L396,73 M396,72L397,73 M397,72L398,73 M398,72L399,73 M399,72L400,73 M400,72L401,73 M401,72L402,73 M402,72L403,73 M403,72L404,73 M404,72L405,73 M405,72L406,73 M406,72L407,73 M407,72L408,73 M408,72L409,73 M409,72L410,73 M410,72L411,73 M411,72L412,73 M412,72L413,73 M413,72L414,73 M414,72L415,73 M415,72L416,73 M416,72L417,73 M417,72L418,73 M418,72L419,73 M419,72L420,73 M420,72L421,73 M421,72L422,73 M422,72L423,73 M423,72L424,73 M424,72L425,73 M425,72L426,73 M426,72L427,73 M427,72L428,73 M428,72L429,73 M429,72L430,73 M430,72L431,73 M431,72L432,73 M432,72L433,73 M433,72L434,73 M434,72L435,73 M435,72L436,73 M436,72L437,73 M437,72L438,73 M438,72L439,73 M439,72L440,73 M440,72L441,73 M441,72L442,73 M442,72L443,73 M443,72L444,73 M444,72L445,73 M445,72L446,73 M446,72L447,73 M447,72L448,73 M448,72L449,73 M449,72L450,73 M450,72L451,73 M451,72L452,73 M452,72L453,73 M453,72L454,73 M454,72L455,73 M455,72L456,73 M456,72L457,73 M457,72L458,73 M458,72L459,73 M459,72L460,73 M460,72L461,73 M461,72L462,73 M462,72L463,73 M463,72L464,73 M464,72L465,73 M465,72L466,73 M466,72L467,73 M467,72L468,73 M468,72L469,73 M469,72L470,73 M470,72L471,73 M471,72L472,73 M472,72L473,73 M473,72L474,73 M474,72L475,73 M475,72L476,73 M476,72L477,73 M477,72L478,73 M478,72L479,73 M479,72L480,73 M361,73L362,74 M362,73L363,74 M363,73L364,74 M364,73L365,74 M365,73L366,74 M366,73L367,74 M367,73L368,74 M368,73L369,74 M369,73L370,74 M370,73L371,74 M371,73L372,74 M372,73L373,74 M373,73L374,74 M374,73L375,74 M375,73L376,74 M376,73L377,74 M377,73L378,74 M378,73L379,74 M379,73L380,74 M380,73L381,74 M381,73L382,74 M382,73L383,74 M383,73L384,74 M384,73L385,74 M385,73L386,74 M386,73L387,74 M387,73L388,74 M388,73L389,74 M389,73L390,74 M390,73L391,74 M391,73L392,74 M392,73L393,74 M393,73L394,74 M394,73L395,74 M395,73L396,74 M396,73L397,74 M397,73L398,74 M398,73L399,74 M399,73L400,74 M400,73L401,74 M401,73L402,74 M402,73L403,74 M403,73L404,74 M404,73L405,74 M405,73L406,74 M406,73L407,74 M407,73L408,74 M408,73L409,74 M409,73L410,74 M410,73L411,74 M411,73L412,74 M412,73L413,74 M413,73L414,74 M414,73L415,74 M415,73L416,74 M416,73L417,74 M417,73L418,74 M418,73L419,74 M419,73L420,74 M420,73L421,74 M421,73L422,74 M422,73L423,74 M423,73L424,74 M424,73L425,74 M425,73L426,74 M426,73L427,74 M427,73L428,74 M428,73L429,74 M429,73L430,74 M430,73L431,74 M431,73L432,74 M432,73L433,74 M433,73L434,74 M434,73L435,74 M435,73L436,74 M436,73L437,74 M437,73L438,74 M438,73L439,74 M439,73L440,74 M440,73L441,74 M441,73L442,74 M442,73L443,74 M443,73L444,74 M444,73L445,74 M445,73L446,74 M446,73L447,74 M447,73L448,74 M448,73L449,74 M449,73L450,74 M450,73L451,74 M451,73L452,74 M452,73L453,74 M453,73L454,74 M454,73L455,74 M455,73L456,74 M456,73L457,74 M457,73L458,74 M458,73L459,74 M459,73L460,74 M460,73L461,74 M461,73L462,74 M462,73L463,74 M463,73L464,74 M464,73L465,74 M465,73L466,74 M466,73L467,74 M344,74L345,75 M345,74L346,75 M346,74L347,75 M347,74L348,75 M348,74L349,75 M349,74L350,75 M350,74L351,75 M351,74L352,75 M352,74L353,75 M353,74L354,75 M354,74L355,75 M355,74L356,75 M356,74L357,75 M357,74L358,75 M358,74L359,75 M359,74L360,75 M360,74L361,75 M361,74L362,75 M362,74L363,75 M363,74L364,75 M364,74L365,75 M365,74L366,75 M366,74L367,75 M367,74L368,75 M368,74L369,75 M369,74L370,75 M370,74L371,75 M371,74L372,75 M372,74L373,75 M373,74L374,75 M374,74L375,75 M375,74L376,75 M376,74L377,75 M377,74L378,75 M399,74L400,75 M400,74L401,75 M329,75L330,76 M330,75L331,76 M331,75L332,76 M332,75L333,76 M333,75L334,76 M334,75L335,76 M335,75L336,76 M336,75L337,76 M337,75L338,76 M338,75L339,76 M339,75L340,76 M340,75L341,76 M341,75L342,76 M342,75L343,76 M343,75L344,76 M344,75L345,76 M345,75L346,76 M346,75L347,76 M347,75L348,76 M348,75L349,76 M349,75L350,76 M350,75L351,76 M351,75L352,76 M352,75L353,76 M353,75L354,76 M354,75L355,76 M355,75L356,76 M356,75L357,76 M357,75L358,76 M358,75L359,76 M359,75L360,76 M360,75L361,76 M398,75L399,76 M399,75L400,76 M316,76L317,77 M317,76L318,77 M318,76L319,77 M319,76L320,77 M320,76L321,77 M321,76L322,77 M322,76L323,77 M323,76L324,77 M324,76L325,77 M325,76L326,77 M326,76L327,77 M327,76L328,77 M328,76L329,77 M329,76L330,77 M330,76L331,77 M331,76L332,77 M332,76L333,77 M333,76L334,77 M334,76L335,77 M335,76L336,77 M336,76L337,77 M337,76L338,77 M338,76L339,77 M339,76L340,77 M340,76L341,77 M341,76L342,77 M342,76L343,77 M343,76L344,77 M398,76L399,77 M399,76L400,77 M304,77L305,78 M305,77L306,78 M306,77L307,78 M307,77L308,78 M308,77L309,78 M309,77L310,78 M310,77L311,78 M311,77L312,78 M312,77L313,78 M313,77L314,78 M314,77L315,78 M315,77L316,78 M316,77L317,78 M317,77L318,78 M318,77L319,78 M319,77L320,78 M320,77L321,78 M321,77L322,78 M322,77L323,78 M323,77L324,78 M324,77L325,78 M325,77L326,78 M326,77L327,78 M327,77L328,78 M328,77L329,78 M397,77L398,78 M398,77L399,78 M291,78L292,79 M292,78L293,79 M293,78L294,79 M294,78L295,79 M295,78L296,79 M296,78L297,79 M297,78L298,79 M298,78L299,79 M299,78L300,79 M300,78L301,79 M301,78L302,79 M302,78L303,79 M303,78L304,79 M304,78L305,79 M305,78L306,79 M306,78L307,79 M307,78L308,79 M308,78L309,79 M309,78L310,79 M310,78L311,79 M311,78L312,79 M312,78L313,79 M313,78L314,79 M314,78L315,79 M315,78L316,79 M396,78L397,79 M397,78L398,79 M398,78L399,79 M282,79L283,80 M283,79L284,80 M284,79L285,80 M285,79L286,80 M286,79L287,80 M287,79L288,80 M288,79L289,80 M289,79L290,80 M290,79L291,80 M291,79L292,80 M292,79L293,80 M293,79L294,80 M294,79L295,80 M295,79L296,80 M296,79L297,80 M297,79L298,80 M298,79L299,80 M299,79L300,80 M300,79L301,80 M301,79L302,80 M302,79L303,80 M303,79L304,80 M396,79L397,80 M397,79L398,80 M276,80L277,81 M277,80L278,81 M278,80L279,81 M279,80L280,81 M280,80L281,81 M281,80L282,81 M282,80L283,81 M283,80L284,81 M284,80L285,81 M285,80L286,81 M286,80L287,81 M287,80L288,81 M288,80L289,81 M289,80L290,81 M290,80L291,81 M395,80L396,81 M396,80L397,81 M271,81L272,82 M272,81L273,82 M273,81L274,82 M274,81L275,82 M275,81L276,82 M276,81L277,82 M277,81L278,82 M278,81L279,82 M279,81L280,82 M280,81L281,82 M281,81L282,82 M395,81L396,82 M396,81L397,82 M265,82L266,83 M266,82L267,83 M267,82L268,83 M268,82L269,83 M269,82L270,83 M270,82L271,83 M271,82L272,83 M272,82L273,83 M273,82L274,83 M274,82L275,83 M275,82L276,83 M394,82L395,83 M395,82L396,83 M259,83L260,84 M260,83L261,84 M261,83L262,84 M262,83L263,84 M263,83L264,84 M264,83L265,84 M265,83L266,84 M266,83L267,84 M267,83L268,84 M268,83L269,84 M269,83L270,84 M270,83L271,84 M393,83L394,84 M394,83L395,84 M395,83L396,84 M254,84L255,85 M255,84L256,85 M256,84L257,85 M257,84L258,85 M258,84L259,85 M259,84L260,85 M260,84L261,85 M261,84L262,85 M262,84L263,85 M263,84L264,85 M264,84L265,85 M393,84L394,85 M394,84L395,85 M248,85L249,86 M249,85L250,86 M250,85L251,86 M251,85L252,86 M252,85L253,86 M253,85L254,86 M254,85L255,86 M255,85L256,86 M256,85L257,86 M257,85L258,86 M258,85L259,86 M259,85L260,86 M392,85L393,86 M393,85L394,86 M394,85L395,86 M243,86L244,87 M244,86L245,87 M245,86L246,87 M246,86L247,87 M247,86L248,87 M248,86L249,87 M249,86L250,87 M250,86L251,87 M251,86L252,87 M252,86L253,87 M253,86L254,87 M392,86L393,87 M393,86L394,87 M237,87L238,88 M238,87L239,88 M239,87L240,88 M240,87L241,88 M241,87L242,88 M242,87L243,88 M243,87L244,88 M244,87L245,88 M245,87L246,88 M246,87L247,88 M247,87L248,88 M391,87L392,88 M392,87L393,88 M232,88L233,89 M233,88L234,89 M234,88L235,89 M235,88L236,89 M236,88L237,89 M237,88L238,89 M238,88L239,89 M239,88L240,89 M240,88L241,89 M241,88L242,89 M242,88L243,89 M390,88L391,89 M391,88L392,89 M392,88L393,89 M226,89L227,90 M227,89L228,90 M228,89L229,90 M229,89L230,90 M230,89L231,90 M231,89L232,90 M232,89L233,90 M233,89L234,90 M234,89L235,90 M235,89L236,90 M236,89L237,90 M390,89L391,90 M391,89L392,90 M220,90L221,91 M221,90L222,91 M222,90L223,91 M223,90L224,91 M224,90L225,91 M225,90L226,91 M226,90L227,91 M227,90L228,91 M228,90L229,91 M229,90L230,91 M230,90L231,91 M231,90L232,91 M389,90L390,91 M390,90L391,91 M391,90L392,91 M215,91L216,92 M216,91L217,92 M217,91L218,92 M218,91L219,92 M219,91L220,92 M220,91L221,92 M221,91L222,92 M222,91L223,92 M223,91L224,92 M224,91L225,92 M225,91L226,92 M389,91L390,92 M390,91L391,92 M211,92L212,93 M212,92L213,93 M213,92L214,93 M214,92L215,93 M215,92L216,93 M216,92L217,93 M217,92L218,93 M218,92L219,93 M219,92L220,93 M220,92L221,93 M388,92L389,93 M389,92L390,93 M206,93L207,94 M207,93L208,94 M208,93L209,94 M209,93L210,94 M210,93L211,94 M211,93L212,94 M212,93L213,94 M213,93L214,94 M214,93L215,94 M388,93L389,94 M389,93L390,94 M202,94L203,95 M203,94L204,95 M204,94L205,95 M205,94L206,95 M206,94L207,95 M207,94L208,95 M208,94L209,95 M209,94L210,95 M210,94L211,95 M387,94L388,95 M388,94L389,95 M197,95L198,96 M198,95L199,96 M199,95L200,96 M200,95L201,96 M201,95L202,96 M202,95L203,96 M203,95L204,96 M204,95L205,96 M205,95L206,96 M387,95L388,96 M388,95L389,96 M192,96L193,97 M193,96L194,97 M194,96L195,97 M195,96L196,97 M196,96L197,97 M197,96L198,97 M198,96L199,97 M199,96L200,97 M200,96L201,97 M201,96L202,97 M386,96L387,97 M387,96L388,97 M188,97L189,98 M189,97L190,98 M190,97L191,98 M191,97L192,98 M192,97L193,98 M193,97L194,98 M194,97L195,98 M195,97L196,98 M196,97L197,98 M386,97L387,98 M387,97L388,98 M184,98L185,99 M185,98L186,99 M186,98L187,99 M187,98L188,99 M188,98L189,99 M189,98L190,99 M190,98L191,99 M191,98L192,99 M192,98L193,99 M385,98L386,99 M386,98L387,99 M180,99L181,100 M181,99L182,100 M182,99L183,100 M183,99L184,100 M184,99L185,100 M185,99L186,100 M186,99L187,100 M187,99L188,100 M385,99L386,100 M386,99L387,100 M176,100L177,101 M177,100L178,101 M178,100L179,101 M179,100L180,101 M180,100L181,101 M181,100L182,101 M182,100L183,101 M183,100L184,101 M384,100L385,101 M385,100L386,101 M172,101L173,102 M173,101L174,102 M174,101L175,102 M175,101L176,102 M176,101L177,102 M177,101L178,102 M178,101L179,102 M179,101L180,102 M384,101L385,102 M385,101L386,102 M168,102L169,103 M169,102L170,103 M170,102L171,103 M171,102L172,103 M172,102L173,103 M173,102L174,103 M174,102L175,103 M175,102L176,103 M383,102L384,103 M384,102L385,103 M164,103L165,104 M165,103L166,104 M166,103L167,104 M167,103L168,104 M168,103L169,104 M169,103L170,104 M170,103L171,104 M171,103L172,104 M383,103L384,104 M384,103L385,104 M159,104L160,105 M160,104L161,105 M161,104L162,105 M162,104L163,105 M163,104L164,105 M164,104L165,105 M165,104L166,105 M166,104L167,105 M167,104L168,105 M382,104L383,105 M383,104L384,105 M138,105L139,106 M139,105L140,106 M151,105L152,106 M152,105L153,106 M153,105L154,106 M154,105L155,106 M155,105L156,106 M156,105L157,106 M157,105L158,106 M158,105L159,106 M159,105L160,106 M160,105L161,106 M161,105L162,106 M162,105L163,106 M163,105L164,106 M164,105L165,106 M382,105L383,106 M383,105L384,106 M138,106L139,107 M139,106L140,107 M140,106L141,107 M141,106L142,107 M142,106L143,107 M143,106L144,107 M144,106L145,107 M145,106L146,107 M146,106L147,107 M147,106L148,107 M148,106L149,107 M149,106L150,107 M150,106L151,107 M151,106L152,107 M152,106L153,107 M153,106L154,107 M154,106L155,107 M155,106L156,107 M156,106L157,107 M157,106L158,107 M158,106L159,107 M381,106L382,107 M382,106L383,107 M138,107L139,108 M139,107L140,108 M140,107L141,108 M141,107L142,108 M142,107L143,108 M143,107L144,108 M144,107L145,108 M145,107L146,108 M146,107L147,108 M147,107L148,108 M148,107L149,108 M149,107L150,108 M150,107L151,108 M151,107L152,108 M381,107L382,108 M382,107L383,108 M380,108L381,109 M381,108L382,109 M380,109L381,110 M381,109L382,110 M379,110L380,111 M380,110L381,111 M379,111L380,112 M380,111L381,112 M378,112L379,113 M379,112L380,113 M378,113L379,114 M379,113L380,114 M377,114L378,115 M378,114L379,115 M377,115L378,116 M378,115L379,116 M376,116L377,117 M377,116L378,117 M376,117L377,118 M377,117L378,118 M375,118L376,119 M376,118L377,119 M375,119L376,120 M376,119L377,120 M374,120L375,121 M375,120L376,121 M374,121L375,122 M375,121L376,122 M373,122L374,123 M374,122L375,123 M373,123L374,124 M374,123L375,124 M372,124L373,125 M373,124L374,125 M372,125L373,126 M373,125L374,126 M371,126L372,127 M372,126L373,127 M370,127L371,128 M371,127L372,128 M372,127L373,128 M370,128L371,129 M371,128L372,129 M369,129L370,130 M370,129L371,130 M371,129L372,130 M369,130L370,131 M370,130L371,131 M368,131L369,132 M369,131L370,132 M370,131L371,132 M368,132L369,133 M369,132L370,133 M367,133L368,134 M368,133L369,134 M369,133L370,134 M367,134L368,135 M368,134L369,135 M366,135L367,136 M367,135L368,136 M368,135L369,136 M366,136L367,137 M367,136L368,137 M365,137L366,138 M366,137L367,138 M365,138L366,139 M366,138L367,139 M364,139L365,140 M365,139L366,140 M364,140L365,141 M365,140L366,141 M363,141L364,142 M364,141L365,142 M363,142L364,143 M364,142L365,143 M363,143L364,144 M364,143L365,144 M363,144L364,145 M364,144L365,145 M363,145L364,146 M364,145L365,146 M363,146L364,147 M364,146L365,147 M363,147L364,148 M364,147L365,148 M363,148L364,149 M364,148L365,149 M363,149L364,150 M364,149L365,150 M363,150L364,151 M364,150L365,151 M363,151L364,152 M364,151L365,152 M363,152L364,153 M364,152L365,153 M363,153L364,154 M364,153L365,154 M363,154L364,155 M364,154L365,155 M363,155L364,156 M364,155L365,156 M363,156L364,157 M364,156L365,157 M363,157L364,158 M364,157L365,158 M363,158L364,159 M364,158L365,159 M363,159L364,160 M364,159L365,160 M363,160L364,161 M364,160L365,161 M364,161L365,162 M365,161L366,162 M364,162L365,163 M365,162L366,163 M364,163L365,164 M365,163L366,164 M366,163L367,164 M365,164L366,165 M366,164L367,165 M365,165L366,166 M366,165L367,166 M366,166L367,167 M367,166L368,167 M366,167L367,168 M367,167L368,168 M366,168L367,169 M367,168L368,169 M367,169L368,170 M368,169L369,170 M367,170L368,171 M368,170L369,171 M367,171L368,172 M368,171L369,172 M369,171L370,172 M368,172L369,173 M369,172L370,173 M368,173L369,174 M369,173L370,174 M369,174L370,175 M370,174L371,175 M369,175L370,176 M370,175L371,176 M370,176L371,177 M371,176L372,177 M370,177L371,178 M371,177L372,178 M370,178L371,179 M371,178L372,179 M372,178L373,179 M371,179L372,180 M372,179L373,180 M371,180L372,181 M372,180L373,181 M373,180L374,181 M372,181L373,182 M373,181L374,182 M372,182L373,183 M373,182L374,183 M374,182L375,183 M373,183L374,184 M374,183L375,184 M373,184L374,185 M374,184L375,185 M374,185L375,186 M375,185L376,186 M374,186L375,187 M375,186L376,187 M375,187L376,188 M376,187L377,188 M375,188L376,189 M376,188L377,189 M377,188L378,189 M376,189L377,190 M377,189L378,190 M378,189L379,190 M377,190L378,191 M378,190L379,191 M379,190L380,191 M378,191L379,192 M379,191L380,192 M379,192L380,193 M380,192L381,193 M380,193L381,194 M381,193L382,194 M380,194L381,195 M381,194L382,195 M382,194L383,195 M381,195L382,196 M382,195L383,196 M383,195L384,196 M382,196L383,197 M383,196L384,197 M384,196L385,197 M383,197L384,198 M384,197L385,198 M384,198L385,199 M385,198L386,199 M386,198L387,199 M385,199L386,200 M386,199L387,200 M387,199L388,200 M386,200L387,201 M387,200L388,201 M388,200L389,201 M387,201L388,202 M388,201L389,202 M389,201L390,202 M388,202L389,203 M389,202L390,203 M390,202L391,203 M391,202L392,203 M390,203L391,204 M391,203L392,204 M392,203L393,204 M393,203L394,204 M391,204L392,205 M392,204L393,205 M393,204L394,205 M394,204L395,205 M395,204L396,205 M393,205L394,206 M394,205L395,206 M395,205L396,206 M396,205L397,206 M397,205L398,206 M396,206L397,207 M397,206L398,207 M398,206L399,207 M399,206L400,207 M398,207L399,208 M399,207L400,208 M400,207L401,208 M401,207L402,208 M402,207L403,208 M400,208L401,209 M401,208L402,209 M402,208L403,209 M403,208L404,209 M404,208L405,209 M402,209L403,210 M403,209L404,210 M404,209L405,210 M405,209L406,210 M406,209L407,210 M404,210L405,211 M405,210L406,211 M406,210L407,211 M407,210L408,211 M408,210L409,211 M406,211L407,212 M407,211L408,212 M408,211L409,212 M409,211L410,212 M410,211L411,212 M409,212L410,213 M410,212L411,213 M411,212L412,213 M412,212L413,213 M411,213L412,214 M412,213L413,214 M413,213L414,214 M414,213L415,214 M415,213L416,214 M413,214L414,215 M414,214L415,215 M415,214L416,215 M416,214L417,215 M417,214L418,215 M415,215L416,216 M416,215L417,216 M417,215L418,216 M418,215L419,216 M419,215L420,216 M420,215L421,216 M418,216L419,217 M419,216L420,217 M420,216L421,217 M421,216L422,217 M422,216L423,217 M420,217L421,218 M421,217L422,218 M422,217L423,218 M423,217L424,218 M424,217L425,218 M425,217L426,218 M423,218L424,219 M424,218L425,219 M425,218L426,219 M426,218L427,219 M427,218L428,219 M428,218L429,219 M429,218L430,219 M426,219L427,220 M427,219L428,220 M428,219L429,220 M429,219L430,220 M430,219L431,220 M431,219L432,220 M432,219L433,220 M433,219L434,220 M430,220L431,221 M431,220L432,221 M432,220L433,221 M433,220L434,221 M434,220L435,221 M435,220L436,221 M436,220L437,221 M437,220L438,221 M434,221L435,222 M435,221L436,222 M436,221L437,222 M437,221L438,222 M438,221L439,222 M439,221L440,222 M440,221L441,222 M441,221L442,222 M437,222L438,223 M438,222L439,223 M439,222L440,223 M440,222L441,223 M441,222L442,223 M442,222L443,223 M443,222L444,223 M444,222L445,223 M445,222L446,223 M442,223L443,224 M443,223L444,224 M444,223L445,224 M445,223L446,224 M442,224L443,225 M443,224L444,225 M444,224L445,225 M440,225L441,226 M441,225L442,226 M442,225L443,226 M443,225L444,226 M438,226L439,227 M439,226L440,227 M440,226L441,227 M441,226L442,227 M442,226L443,227 M436,227L437,228 M437,227L438,228 M438,227L439,228 M439,227L440,228 M440,227L441,228 M434,228L435,229 M435,228L436,229 M436,228L437,229 M437,228L438,229 M438,228L439,229 M432,229L433,230 M433,229L434,230 M434,229L435,230 M435,229L436,230 M436,229L437,230 M429,230L430,231 M430,230L431,231 M431,230L432,231 M432,230L433,231 M433,230L434,231 M434,230L435,231 M428,231L429,232 M429,231L430,232 M430,231L431,232 M431,231L432,232 M428,232L429,233 M429,232L430,233 M428,233L429,234 M429,233L430,234 M428,234L429,235 M429,234L430,235 M428,235L429,236 M429,235L430,236 M428,236L429,237 M429,236L430,237 M429,237L430,238" fill="none" stroke="black" />
    </svg>