<svg xmlns="http://www.w3.org/2000/svg" width="800" height="250">
        <path d="M408,30L409,31 M409,30L410,31 M410,30L411,31 M411,30L412,31 M412,30L413,31 M413,30L414,31 M414,30L415,31 M415,30L416,31 M416,30L417,31 M417,30L418,31 M418,30L419,31 M402,31L403,32 M403,31L404,32 M404,31L405,32 M405,31L406,32 M406,31L407,32 M407,31L408,32 M408,31L409,32 M409,31L410,32 M410,31L411,32 M411,31L412,32 M412,31L413,32 M413,31L414,32 M414,31L415,32 M415,31L416,32 M416,31L417,32 M417,31L418,32 M418,31L419,32 M419,31L420,32 M420,31L421,32 M421,31L422,32 M422,31L423,32 M423,31L424,32 M424,31L425,32 M425,31L426,32 M426,31L427,32 M427,31L428,32 M428,31L429,32 M429,31L430,32 M430,31L431,32 M431,31L432,32 M432,31L433,32 M395,32L396,33 M396,32L397,33 M397,32L398,33 M398,32L399,33 M399,32L400,33 M400,32L401,33 M401,32L402,33 M402,32L403,33 M403,32L404,33 M404,32L405,33 M405,32L406,33 M406,32L407,33 M407,32L408,33 M419,32L420,33 M420,32L421,33 M421,32L422,33 M422,32L423,33 M423,32L424,33 M424,32L425,33 M425,32L426,33 M426,32L427,33 M427,32L428,33 M428,32L429,33 M429,32L430,33 M430,32L431,33 M431,32L432,33 M432,32L433,33 M433,32L434,33 M434,32L435,33 M435,32L436,33 M436,32L437,33 M437,32L438,33 M438,32L439,33 M439,32L440,33 M440,32L441,33 M441,32L442,33 M442,32L443,33 M443,32L444,33 M444,32L445,33 M445,32L446,33 M389,33L390,34 M390,33L391,34 M391,33L392,34 M392,33L393,34 M393,33L394,34 M394,33L395,34 M395,33L396,34 M396,33L397,34 M397,33L398,34 M398,33L399,34 M399,33L400,34 M400,33L401,34 M401,33L402,34 M433,33L434,34 M434,33L435,34 M435,33L436,34 M436,33L437,34 M437,33L438,34 M438,33L439,34 M439,33L440,34 M440,33L441,34 M441,33L442,34 M442,33L443,34 M443,33L444,34 M444,33L445,34 M445,33L446,34 M446,33L447,34 M447,33L448,34 M448,33L449,34 M449,33L450,34 M450,33L451,34 M451,33L452,34 M452,33L453,34 M453,33L454,34 M454,33L455,34 M455,33L456,34 M456,33L457,34 M457,33L458,34 M458,33L459,34 M383,34L384,35 M384,34L385,35 M385,34L386,35 M386,34L387,35 M387,34L388,35 M388,34L389,35 M389,34L390,35 M390,34L391,35 M391,34L392,35 M392,34L393,35 M393,34L394,35 M394,34L395,35 M395,34L396,35 M446,34L447,35 M447,34L448,35 M448,34L449,35 M449,34L450,35 M450,34L451,35 M451,34L452,35 M452,34L453,35 M453,34L454,35 M454,34L455,35 M455,34L456,35 M456,34L457,35 M457,34L458,35 M458,34L459,35 M459,34L460,35 M460,34L461,35 M461,34L462,35 M462,34L463,35 M463,34L464,35 M464,34L465,35 M465,34L466,35 M466,34L467,35 M467,34L468,35 M468,34L469,35 M469,34L470,35 M470,34L471,35 M471,34L472,35 M376,35L377,36 M377,35L378,36 M378,35L379,36 M379,35L380,36 M380,35L381,36 M381,35L382,36 M382,35L383,36 M383,35L384,36 M384,35L385,36 M385,35L386,36 M386,35L387,36 M387,35L388,36 M388,35L389,36 M459,35L460,36 M460,35L461,36 M461,35L462,36 M462,35L463,36 M463,35L464,36 M464,35L465,36 M465,35L466,36 M466,35L467,36 M467,35L468,36 M468,35L469,36 M469,35L470,36 M470,35L471,36 M471,35L472,36 M472,35L473,36 M473,35L474,36 M474,35L475,36 M475,35L476,36 M476,35L477,36 M477,35L478,36 M478,35L479,36 M479,35L480,36 M370,36L371,37 M371,36L372,37 M372,36L373,37 M373,36L374,37 M374,36L375,37 M375,36L376,37 M376,36L377,37 M377,36L378,37 M378,36L379,37 M379,36L380,37 M380,36L381,37 M381,36L382,37 M382,36L383,37 M472,36L473,37 M473,36L474,37 M474,36L475,37 M475,36L476,37 M476,36L477,37 M477,36L478,37 M478,36L479,37 M479,36L480,37 M480,36L481,37 M481,36L482,37 M482,36L483,37 M483,36L484,37 M365,37L366,38 M366,37L367,38 M367,37L368,38 M368,37L369,38 M369,37L370,38 M370,37L371,38 M371,37L372,38 M372,37L373,38 M373,37L374,38 M374,37L375,38 M375,37L376,38 M480,37L481,38 M481,37L482,38 M482,37L483,38 M483,37L484,38 M484,37L485,38 M485,37L486,38 M486,37L487,38 M361,38L362,39 M362,38L363,39 M363,38L364,39 M364,38L365,39 M365,38L366,39 M366,38L367,39 M367,38L368,39 M368,38L369,39 M369,38L370,39 M483,38L484,39 M484,38L485,39 M485,38L486,39 M486,38L487,39 M487,38L488,39 M488,38L489,39 M489,38L490,39 M490,38L491,39 M357,39L358,40 M358,39L359,40 M359,39L360,40 M360,39L361,40 M361,39L362,40 M362,39L363,40 M363,39L364,40 M364,39L365,40 M487,39L488,40 M488,39L489,40 M489,39L490,40 M490,39L491,40 M491,39L492,40 M492,39L493,40 M493,39L494,40 M354,40L355,41 M355,40L356,41 M356,40L357,41 M357,40L358,41 M358,40L359,41 M359,40L360,41 M360,40L361,41 M490,40L491,41 M491,40L492,41 M492,40L493,41 M493,40L494,41 M494,40L495,41 M495,40L496,41 M496,40L497,41 M497,40L498,41 M350,41L351,42 M351,41L352,42 M352,41L353,42 M353,41L354,42 M354,41L355,42 M355,41L356,42 M356,41L357,42 M357,41L358,42 M494,41L495,42 M495,41L496,42 M496,41L497,42 M497,41L498,42 M498,41L499,42 M499,41L500,42 M500,41L501,42 M346,42L347,43 M347,42L348,43 M348,42L349,43 M349,42L350,43 M350,42L351,43 M351,42L352,43 M352,42L353,43 M353,42L354,43 M497,42L498,43 M498,42L499,43 M499,42L500,43 M500,42L501,43 M501,42L502,43 M502,42L503,43 M503,42L504,43 M504,42L505,43 M343,43L344,44 M344,43L345,44 M345,43L346,44 M346,43L347,44 M347,43L348,44 M348,43L349,44 M349,43L350,44 M501,43L502,44 M502,43L503,44 M503,43L504,44 M504,43L505,44 M505,43L506,44 M506,43L507,44 M339,44L340,45 M340,44L341,45 M341,44L342,45 M342,44L343,45 M343,44L344,45 M344,44L345,45 M345,44L346,45 M504,44L505,45 M505,44L506,45 M506,44L507,45 M507,44L508,45 M508,44L509,45 M335,45L336,46 M336,45L337,46 M337,45L338,46 M338,45L339,46 M339,45L340,46 M340,45L341,46 M341,45L342,46 M342,45L343,46 M507,45L508,46 M508,45L509,46 M509,45L510,46 M510,45L511,46 M331,46L332,47 M332,46L333,47 M333,46L334,47 M334,46L335,47 M335,46L336,47 M336,46L337,47 M337,46L338,47 M338,46L339,47 M509,46L510,47 M510,46L511,47 M511,46L512,47 M512,46L513,47 M328,47L329,48 M329,47L330,48 M330,47L331,48 M331,47L332,48 M332,47L333,48 M333,47L334,48 M334,47L335,48 M511,47L512,48 M512,47L513,48 M513,47L514,48 M514,47L515,48 M324,48L325,49 M325,48L326,49 M326,48L327,49 M327,48L328,49 M328,48L329,49 M329,48L330,49 M330,48L331,49 M331,48L332,49 M513,48L514,49 M514,48L515,49 M515,48L516,49 M516,48L517,49 M320,49L321,50 M321,49L322,50 M322,49L323,50 M323,49L324,50 M324,49L325,50 M325,49L326,50 M326,49L327,50 M327,49L328,50 M515,49L516,50 M516,49L517,50 M517,49L518,50 M518,49L519,50 M317,50L318,51 M318,50L319,51 M319,50L320,51 M320,50L321,51 M321,50L322,51 M322,50L323,51 M323,50L324,51 M517,50L518,51 M518,50L519,51 M519,50L520,51 M520,50L521,51 M313,51L314,52 M314,51L315,52 M315,51L316,52 M316,51L317,52 M317,51L318,52 M318,51L319,52 M319,51L320,52 M519,51L520,52 M520,51L521,52 M521,51L522,52 M522,51L523,52 M311,52L312,53 M312,52L313,53 M313,52L314,53 M314,52L315,53 M315,52L316,53 M316,52L317,53 M521,52L522,53 M522,52L523,53 M523,52L524,53 M524,52L525,53 M308,53L309,54 M309,53L310,54 M310,53L311,54 M311,53L312,54 M312,53L313,54 M313,53L314,54 M523,53L524,54 M524,53L525,54 M525,53L526,54 M526,53L527,54 M306,54L307,55 M307,54L308,55 M308,54L309,55 M309,54L310,55 M310,54L311,55 M525,54L526,55 M526,54L527,55 M527,54L528,55 M528,54L529,55 M303,55L304,56 M304,55L305,56 M305,55L306,56 M306,55L307,56 M307,55L308,56 M308,55L309,56 M527,55L528,56 M528,55L529,56 M529,55L530,56 M530,55L531,56 M300,56L301,57 M301,56L302,57 M302,56L303,57 M303,56L304,57 M304,56L305,57 M305,56L306,57 M529,56L530,57 M530,56L531,57 M531,56L532,57 M532,56L533,57 M298,57L299,58 M299,57L300,58 M300,57L301,58 M301,57L302,58 M302,57L303,58 M531,57L532,58 M532,57L533,58 M533,57L534,58 M295,58L296,59 M296,58L297,59 M297,58L298,59 M298,58L299,59 M299,58L300,59 M300,58L301,59 M532,58L533,59 M533,58L534,59 M534,58L535,59 M293,59L294,60 M294,59L295,60 M295,59L296,60 M296,59L297,60 M297,59L298,60 M533,59L534,60 M534,59L535,60 M535,59L536,60 M290,60L291,61 M291,60L292,61 M292,60L293,61 M293,60L294,61 M294,60L295,61 M295,60L296,61 M535,60L536,61 M536,60L537,61 M537,60L538,61 M287,61L288,62 M288,61L289,62 M289,61L290,62 M290,61L291,62 M291,61L292,62 M292,61L293,62 M536,61L537,62 M537,61L538,62 M538,61L539,62 M285,62L286,63 M286,62L287,63 M287,62L288,63 M288,62L289,63 M289,62L290,63 M537,62L538,63 M538,62L539,63 M539,62L540,63 M282,63L283,64 M283,63L284,64 M284,63L285,64 M285,63L286,64 M286,63L287,64 M287,63L288,64 M538,63L539,64 M539,63L540,64 M540,63L541,64 M280,64L281,65 M281,64L282,65 M282,64L283,65 M283,64L284,65 M284,64L285,65 M539,64L540,65 M540,64L541,65 M541,64L542,65 M277,65L278,66 M278,65L279,66 M279,65L280,66 M280,65L281,66 M281,65L282,66 M282,65L283,66 M540,65L541,66 M541,65L542,66 M542,65L543,66 M274,66L275,67 M275,66L276,67 M276,66L277,67 M277,66L278,67 M278,66L279,67 M279,66L280,67 M541,66L542,67 M542,66L543,67 M543,66L544,67 M272,67L273,68 M273,67L274,68 M274,67L275,68 M275,67L276,68 M276,67L277,68 M542,67L543,68 M543,67L544,68 M544,67L545,68 M269,68L270,69 M270,68L271,69 M271,68L272,69 M272,68L273,69 M273,68L274,69 M274,68L275,69 M544,68L545,69 M545,68L546,69 M546,68L547,69 M267,69L268,70 M268,69L269,70 M269,69L270,70 M270,69L271,70 M271,69L272,70 M545,69L546,70 M546,69L547,70 M547,69L548,70 M264,70L265,71 M265,70L266,71 M266,70L267,71 M267,70L268,71 M268,70L269,71 M269,70L270,71 M546,70L547,71 M547,70L548,71 M548,70L549,71 M261,71L262,72 M262,71L263,72 M263,71L264,72 M264,71L265,72 M265,71L266,72 M266,71L267,72 M547,71L548,72 M548,71L549,72 M549,71L550,72 M259,72L260,73 M260,72L261,73 M261,72L262,73 M262,72L263,73 M263,72L264,73 M548,72L549,73 M549,72L550,73 M550,72L551,73 M256,73L257,74 M257,73L258,74 M258,73L259,74 M259,73L260,74 M260,73L261,74 M261,73L262,74 M549,73L550,74 M550,73L551,74 M551,73L552,74 M254,74L255,75 M255,74L256,75 M256,74L257,75 M257,74L258,75 M258,74L259,75 M550,74L551,75 M551,74L552,75 M552,74L553,75 M251,75L252,76 M252,75L253,76 M253,75L254,76 M254,75L255,76 M255,75L256,76 M256,75L257,76 M551,75L552,76 M552,75L553,76 M553,75L554,76 M248,76L249,77 M249,76L250,77 M250,76L251,77 M251,76L252,77 M252,76L253,77 M253,76L254,77 M553,76L554,77 M554,76L555,77 M555,76L556,77 M246,77L247,78 M247,77L248,78 M248,77L249,78 M249,77L250,78 M250,77L251,78 M554,77L555,78 M555,77L556,78 M556,77L557,78 M243,78L244,79 M244,78L245,79 M245,78L246,79 M246,78L247,79 M247,78L248,79 M248,78L249,79 M555,78L556,79 M556,78L557,79 M557,78L558,79 M241,79L242,80 M242,79L243,80 M243,79L244,80 M244,79L245,80 M245,79L246,80 M556,79L557,80 M557,79L558,80 M558,79L559,80 M238,80L239,81 M239,80L240,81 M240,80L241,81 M241,80L242,81 M242,80L243,81 M243,80L244,81 M557,80L558,81 M558,80L559,81 M559,80L560,81 M235,81L236,82 M236,81L237,82 M237,81L238,82 M238,81L239,82 M239,81L240,82 M240,81L241,82 M558,81L559,82 M559,81L560,82 M560,81L561,82 M233,82L234,83 M234,82L235,83 M235,82L236,83 M236,82L237,83 M237,82L238,83 M559,82L560,83 M560,82L561,83 M692,82L693,83 M693,82L694,83 M694,82L695,83 M695,82L696,83 M696,82L697,83 M697,82L698,83 M698,82L699,83 M699,82L700,83 M700,82L701,83 M701,82L702,83 M702,82L703,83 M703,82L704,83 M704,82L705,83 M705,82L706,83 M706,82L707,83 M707,82L708,83 M708,82L709,83 M709,82L710,83 M710,82L711,83 M711,82L712,83 M712,82L713,83 M713,82L714,83 M230,83L231,84 M231,83L232,84 M232,83L233,84 M233,83L234,84 M234,83L235,84 M235,83L236,84 M559,83L560,84 M560,83L561,84 M688,83L689,84 M689,83L690,84 M690,83L691,84 M691,83L692,84 M692,83L693,84 M693,83L694,84 M694,83L695,84 M695,83L696,84 M696,83L697,84 M697,83L698,84 M698,83L699,84 M699,83L700,84 M700,83L701,84 M701,83L702,84 M702,83L703,84 M703,83L704,84 M704,83L705,84 M705,83L706,84 M706,83L707,84 M707,83L708,84 M708,83L709,84 M709,83L710,84 M710,83L711,84 M711,83L712,84 M712,83L713,84 M713,83L714,84 M714,83L715,84 M715,83L716,84 M716,83L717,84 M717,83L718,84 M718,83L719,84 M719,83L720,84 M720,83L721,84 M228,84L229,85 M229,84L230,85 M230,84L231,85 M231,84L232,85 M232,84L233,85 M559,84L560,85 M560,84L561,85 M684,84L685,85 M685,84L686,85 M686,84L687,85 M687,84L688,85 M688,84L689,85 M689,84L690,85 M690,84L691,85 M691,84L692,85 M692,84L693,85 M714,84L715,85 M715,84L716,85 M716,84L717,85 M717,84L718,85 M718,84L719,85 M719,84L720,85 M720,84L721,85 M721,84L722,85 M722,84L723,85 M225,85L226,86 M226,85L227,86 M227,85L228,86 M228,85L229,86 M229,85L230,86 M230,85L231,86 M560,85L561,86 M561,85L562,86 M679,85L680,86 M680,85L681,86 M681,85L682,86 M682,85L683,86 M683,85L684,86 M684,85L685,86 M685,85L686,86 M686,85L687,86 M687,85L688,86 M720,85L721,86 M721,85L722,86 M722,85L723,86 M723,85L724,86 M724,85L725,86 M222,86L223,87 M223,86L224,87 M224,86L225,87 M225,86L226,87 M226,86L227,87 M227,86L228,87 M560,86L561,87 M561,86L562,87 M675,86L676,87 M676,86L677,87 M677,86L678,87 M678,86L679,87 M679,86L680,87 M680,86L681,87 M681,86L682,87 M682,86L683,87 M683,86L684,87 M722,86L723,87 M723,86L724,87 M724,86L725,87 M725,86L726,87 M726,86L727,87 M220,87L221,88 M221,87L222,88 M222,87L223,88 M223,87L224,88 M224,87L225,88 M560,87L561,88 M561,87L562,88 M671,87L672,88 M672,87L673,88 M673,87L674,88 M674,87L675,88 M675,87L676,88 M676,87L677,88 M677,87L678,88 M678,87L679,88 M725,87L726,88 M726,87L727,88 M217,88L218,89 M218,88L219,89 M219,88L220,89 M220,88L221,89 M221,88L222,89 M222,88L223,89 M560,88L561,89 M561,88L562,89 M669,88L670,89 M670,88L671,89 M671,88L672,89 M672,88L673,89 M673,88L674,89 M674,88L675,89 M726,88L727,89 M727,88L728,89 M215,89L216,90 M216,89L217,90 M217,89L218,90 M218,89L219,90 M219,89L220,90 M560,89L561,90 M561,89L562,90 M666,89L667,90 M667,89L668,90 M668,89L669,90 M669,89L670,90 M670,89L671,90 M671,89L672,90 M726,89L727,90 M727,89L728,90 M728,89L729,90 M212,90L213,91 M213,90L214,91 M214,90L215,91 M215,90L216,91 M216,90L217,91 M217,90L218,91 M560,90L561,91 M561,90L562,91 M663,90L664,91 M664,90L665,91 M665,90L666,91 M666,90L667,91 M667,90L668,91 M668,90L669,91 M727,90L728,91 M728,90L729,91 M210,91L211,92 M211,91L212,92 M212,91L213,92 M213,91L214,92 M214,91L215,92 M560,91L561,92 M561,91L562,92 M562,91L563,92 M661,91L662,92 M662,91L663,92 M663,91L664,92 M664,91L665,92 M665,91L666,92 M727,91L728,92 M728,91L729,92 M729,91L730,92 M208,92L209,93 M209,92L210,93 M210,92L211,93 M211,92L212,93 M561,92L562,93 M562,92L563,93 M658,92L659,93 M659,92L660,93 M660,92L661,93 M661,92L662,93 M662,92L663,93 M663,92L664,93 M728,92L729,93 M729,92L730,93 M205,93L206,94 M206,93L207,94 M207,93L208,94 M208,93L209,94 M209,93L210,94 M561,93L562,94 M562,93L563,94 M655,93L656,94 M656,93L657,94 M657,93L658,94 M658,93L659,94 M659,93L660,94 M660,93L661,94 M729,93L730,94 M730,93L731,94 M203,94L204,95 M204,94L205,95 M205,94L206,95 M206,94L207,95 M207,94L208,95 M561,94L562,95 M562,94L563,95 M653,94L654,95 M654,94L655,95 M655,94L656,95 M656,94L657,95 M657,94L658,95 M729,94L730,95 M730,94L731,95 M201,95L202,96 M202,95L203,96 M203,95L204,96 M204,95L205,96 M205,95L206,96 M561,95L562,96 M562,95L563,96 M650,95L651,96 M651,95L652,96 M652,95L653,96 M653,95L654,96 M654,95L655,96 M655,95L656,96 M730,95L731,96 M731,95L732,96 M199,96L200,97 M200,96L201,97 M201,96L202,97 M202,96L203,97 M203,96L204,97 M561,96L562,97 M562,96L563,97 M647,96L648,97 M648,96L649,97 M649,96L650,97 M650,96L651,97 M651,96L652,97 M652,96L653,97 M730,96L731,97 M731,96L732,97 M732,96L733,97 M197,97L198,98 M198,97L199,98 M199,97L200,98 M200,97L201,98 M201,97L202,98 M561,97L562,98 M562,97L563,98 M645,97L646,98 M646,97L647,98 M647,97L648,98 M648,97L649,98 M649,97L650,98 M731,97L732,98 M732,97L733,98 M195,98L196,99 M196,98L197,99 M197,98L198,99 M198,98L199,99 M199,98L200,99 M562,98L563,99 M563,98L564,99 M642,98L643,99 M643,98L644,99 M644,98L645,99 M645,98L646,99 M646,98L647,99 M647,98L648,99 M731,98L732,99 M732,98L733,99 M733,98L734,99 M193,99L194,100 M194,99L195,100 M195,99L196,100 M196,99L197,100 M197,99L198,100 M562,99L563,100 M563,99L564,100 M639,99L640,100 M640,99L641,100 M641,99L642,100 M642,99L643,100 M643,99L644,100 M644,99L645,100 M732,99L733,100 M733,99L734,100 M191,100L192,101 M192,100L193,101 M193,100L194,101 M194,100L195,101 M562,100L563,101 M563,100L564,101 M637,100L638,101 M638,100L639,101 M639,100L640,101 M640,100L641,101 M641,100L642,101 M733,100L734,101 M734,100L735,101 M189,101L190,102 M190,101L191,102 M191,101L192,102 M192,101L193,102 M562,101L563,102 M563,101L564,102 M634,101L635,102 M635,101L636,102 M636,101L637,102 M637,101L638,102 M638,101L639,102 M639,101L640,102 M733,101L734,102 M734,101L735,102 M187,102L188,103 M188,102L189,103 M189,102L190,103 M190,102L191,103 M562,102L563,103 M563,102L564,103 M631,102L632,103 M632,102L633,103 M633,102L634,103 M634,102L635,103 M635,102L636,103 M636,102L637,103 M733,102L734,103 M734,102L735,103 M735,102L736,103 M185,103L186,104 M186,103L187,104 M187,103L188,104 M188,103L189,104 M562,103L563,104 M563,103L564,104 M629,103L630,104 M630,103L631,104 M631,103L632,104 M632,103L633,104 M633,103L634,104 M734,103L735,104 M735,103L736,104 M183,104L184,105 M184,104L185,105 M185,104L186,105 M186,104L187,105 M561,104L562,105 M562,104L563,105 M626,104L627,105 M627,104L628,105 M628,104L629,105 M629,104L630,105 M630,104L631,105 M631,104L632,105 M734,104L735,105 M735,104L736,105 M180,105L181,106 M181,105L182,106 M182,105L183,106 M183,105L184,106 M184,105L185,106 M561,105L562,106 M562,105L563,106 M623,105L624,106 M624,105L625,106 M625,105L626,106 M626,105L627,106 M627,105L628,106 M628,105L629,106 M734,105L735,106 M735,105L736,106 M736,105L737,106 M178,106L179,107 M179,106L180,107 M180,106L181,107 M181,106L182,107 M182,106L183,107 M561,106L562,107 M562,106L563,107 M621,106L622,107 M622,106L623,107 M623,106L624,107 M624,106L625,107 M625,106L626,107 M735,106L736,107 M736,106L737,107 M176,107L177,108 M177,107L178,108 M178,107L179,108 M179,107L180,108 M180,107L181,108 M560,107L561,108 M561,107L562,108 M562,107L563,108 M618,107L619,108 M619,107L620,108 M620,107L621,108 M621,107L622,108 M622,107L623,108 M623,107L624,108 M735,107L736,108 M736,107L737,108 M174,108L175,109 M175,108L176,109 M176,108L177,109 M177,108L178,109 M178,108L179,109 M560,108L561,109 M561,108L562,109 M615,108L616,109 M616,108L617,109 M617,108L618,109 M618,108L619,109 M619,108L620,109 M620,108L621,109 M735,108L736,109 M736,108L737,109 M737,108L738,109 M172,109L173,110 M173,109L174,110 M174,109L175,110 M175,109L176,110 M176,109L177,110 M559,109L560,110 M560,109L561,110 M613,109L614,110 M614,109L615,110 M615,109L616,110 M616,109L617,110 M617,109L618,110 M736,109L737,110 M737,109L738,110 M170,110L171,111 M171,110L172,111 M172,110L173,111 M173,110L174,111 M174,110L175,111 M558,110L559,111 M559,110L560,111 M560,110L561,111 M610,110L611,111 M611,110L612,111 M612,110L613,111 M613,110L614,111 M614,110L615,111 M615,110L616,111 M736,110L737,111 M737,110L738,111 M168,111L169,112 M169,111L170,112 M170,111L171,112 M171,111L172,112 M172,111L173,112 M558,111L559,112 M559,111L560,112 M608,111L609,112 M609,111L610,112 M610,111L611,112 M611,111L612,112 M612,111L613,112 M737,111L738,112 M738,111L739,112 M166,112L167,113 M167,112L168,113 M168,112L169,113 M169,112L170,113 M557,112L558,113 M558,112L559,113 M605,112L606,113 M606,112L607,113 M607,112L608,113 M608,112L609,113 M609,112L610,113 M737,112L738,113 M738,112L739,113 M164,113L165,114 M165,113L166,114 M166,113L167,114 M167,113L168,114 M554,113L555,114 M555,113L556,114 M556,113L557,114 M557,113L558,114 M558,113L559,114 M603,113L604,114 M604,113L605,114 M605,113L606,114 M606,113L607,114 M607,113L608,114 M738,113L739,114 M739,113L740,114 M162,114L163,115 M163,114L164,115 M164,114L165,115 M165,114L166,115 M552,114L553,115 M553,114L554,115 M554,114L555,115 M555,114L556,115 M556,114L557,115 M601,114L602,115 M602,114L603,115 M603,114L604,115 M604,114L605,115 M605,114L606,115 M738,114L739,115 M739,114L740,115 M160,115L161,116 M161,115L162,116 M162,115L163,116 M163,115L164,116 M550,115L551,116 M551,115L552,116 M552,115L553,116 M553,115L554,116 M554,115L555,116 M599,115L600,116 M600,115L601,116 M601,115L602,116 M602,115L603,116 M603,115L604,116 M739,115L740,116 M740,115L741,116 M158,116L159,117 M159,116L160,117 M160,116L161,117 M161,116L162,117 M547,116L548,117 M548,116L549,117 M549,116L550,117 M550,116L551,117 M551,116L552,117 M597,116L598,117 M598,116L599,117 M599,116L600,117 M600,116L601,117 M601,116L602,117 M739,116L740,117 M740,116L741,117 M156,117L157,118 M157,117L158,118 M158,117L159,118 M159,117L160,118 M545,117L546,118 M546,117L547,118 M547,117L548,118 M548,117L549,118 M549,117L550,118 M595,117L596,118 M596,117L597,118 M597,117L598,118 M598,117L599,118 M599,117L600,118 M740,117L741,118 M741,117L742,118 M154,118L155,119 M155,118L156,119 M156,118L157,119 M157,118L158,119 M543,118L544,119 M544,118L545,119 M545,118L546,119 M546,118L547,119 M547,118L548,119 M593,118L594,119 M594,118L595,119 M595,118L596,119 M596,118L597,119 M740,118L741,119 M741,118L742,119 M152,119L153,120 M153,119L154,120 M154,119L155,120 M155,119L156,120 M541,119L542,120 M542,119L543,120 M543,119L544,120 M544,119L545,120 M545,119L546,120 M591,119L592,120 M592,119L593,120 M593,119L594,120 M594,119L595,120 M741,119L742,120 M742,119L743,120 M150,120L151,121 M151,120L152,121 M152,120L153,121 M153,120L154,121 M538,120L539,121 M539,120L540,121 M540,120L541,121 M541,120L542,121 M542,120L543,121 M588,120L589,121 M589,120L590,121 M590,120L591,121 M591,120L592,121 M592,120L593,121 M741,120L742,121 M742,120L743,121 M148,121L149,122 M149,121L150,122 M150,121L151,122 M151,121L152,122 M152,121L153,122 M536,121L537,122 M537,121L538,122 M538,121L539,122 M539,121L540,122 M540,121L541,122 M586,121L587,122 M587,121L588,122 M588,121L589,122 M589,121L590,122 M590,121L591,122 M741,121L742,122 M742,121L743,122 M146,122L147,123 M147,122L148,123 M148,122L149,123 M149,122L150,123 M150,122L151,123 M534,122L535,123 M535,122L536,123 M536,122L537,123 M537,122L538,123 M538,122L539,123 M584,122L585,123 M585,122L586,123 M586,122L587,123 M587,122L588,123 M588,122L589,123 M742,122L743,123 M743,122L744,123 M144,123L145,124 M145,123L146,124 M146,123L147,124 M147,123L148,124 M148,123L149,124 M531,123L532,124 M532,123L533,124 M533,123L534,124 M534,123L535,124 M535,123L536,124 M582,123L583,124 M583,123L584,124 M584,123L585,124 M585,123L586,124 M586,123L587,124 M742,123L743,124 M743,123L744,124 M143,124L144,125 M144,124L145,125 M145,124L146,125 M146,124L147,125 M526,124L527,125 M527,124L528,125 M528,124L529,125 M529,124L530,125 M530,124L531,125 M531,124L532,125 M532,124L533,125 M533,124L534,125 M580,124L581,125 M581,124L582,125 M582,124L583,125 M583,124L584,125 M584,124L585,125 M742,124L743,125 M743,124L744,125 M141,125L142,126 M142,125L143,126 M143,125L144,126 M144,125L145,126 M522,125L523,126 M523,125L524,126 M524,125L525,126 M525,125L526,126 M526,125L527,126 M527,125L528,126 M528,125L529,126 M529,125L530,126 M530,125L531,126 M578,125L579,126 M579,125L580,126 M580,125L581,126 M581,125L582,126 M582,125L583,126 M743,125L744,126 M744,125L745,126 M139,126L140,127 M140,126L141,127 M141,126L142,127 M142,126L143,127 M518,126L519,127 M519,126L520,127 M520,126L521,127 M521,126L522,127 M522,126L523,127 M523,126L524,127 M524,126L525,127 M525,126L526,127 M526,126L527,127 M576,126L577,127 M577,126L578,127 M578,126L579,127 M579,126L580,127 M743,126L744,127 M744,126L745,127 M137,127L138,128 M138,127L139,128 M139,127L140,128 M140,127L141,128 M514,127L515,128 M515,127L516,128 M516,127L517,128 M517,127L518,128 M518,127L519,128 M519,127L520,128 M520,127L521,128 M521,127L522,128 M574,127L575,128 M575,127L576,128 M576,127L577,128 M577,127L578,128 M743,127L744,128 M744,127L745,128 M135,128L136,129 M136,128L137,129 M137,128L138,129 M138,128L139,129 M507,128L508,129 M508,128L509,129 M509,128L510,129 M510,128L511,129 M511,128L512,129 M512,128L513,129 M513,128L514,129 M514,128L515,129 M515,128L516,129 M516,128L517,129 M517,128L518,129 M571,128L572,129 M572,128L573,129 M573,128L574,129 M574,128L575,129 M575,128L576,129 M743,128L744,129 M744,128L745,129 M133,129L134,130 M134,129L135,130 M135,129L136,130 M136,129L137,130 M498,129L499,130 M499,129L500,130 M500,129L501,130 M501,129L502,130 M502,129L503,130 M503,129L504,130 M504,129L505,130 M505,129L506,130 M506,129L507,130 M507,129L508,130 M508,129L509,130 M509,129L510,130 M510,129L511,130 M511,129L512,130 M512,129L513,130 M513,129L514,130 M569,129L570,130 M570,129L571,130 M571,129L572,130 M572,129L573,130 M573,129L574,130 M744,129L745,130 M745,129L746,130 M131,130L132,131 M132,130L133,131 M133,130L134,131 M134,130L135,131 M490,130L491,131 M491,130L492,131 M492,130L493,131 M493,130L494,131 M494,130L495,131 M495,130L496,131 M496,130L497,131 M497,130L498,131 M498,130L499,131 M499,130L500,131 M500,130L501,131 M501,130L502,131 M502,130L503,131 M503,130L504,131 M504,130L505,131 M505,130L506,131 M506,130L507,131 M567,130L568,131 M568,130L569,131 M569,130L570,131 M570,130L571,131 M571,130L572,131 M744,130L745,131 M745,130L746,131 M129,131L130,132 M130,131L131,132 M131,131L132,132 M132,131L133,132 M133,131L134,132 M483,131L484,132 M484,131L485,132 M485,131L486,132 M486,131L487,132 M487,131L488,132 M488,131L489,132 M489,131L490,132 M490,131L491,132 M491,131L492,132 M492,131L493,132 M493,131L494,132 M494,131L495,132 M495,131L496,132 M496,131L497,132 M497,131L498,132 M498,131L499,132 M565,131L566,132 M566,131L567,132 M567,131L568,132 M568,131L569,132 M569,131L570,132 M744,131L745,132 M745,131L746,132 M127,132L128,133 M128,132L129,133 M129,132L130,133 M130,132L131,133 M131,132L132,133 M477,132L478,133 M478,132L479,133 M479,132L480,133 M480,132L481,133 M481,132L482,133 M482,132L483,133 M483,132L484,133 M484,132L485,133 M485,132L486,133 M486,132L487,133 M487,132L488,133 M488,132L489,133 M489,132L490,133 M563,132L564,133 M564,132L565,133 M565,132L566,133 M566,132L567,133 M567,132L568,133 M744,132L745,133 M745,132L746,133 M746,132L747,133 M125,133L126,134 M126,133L127,134 M127,133L128,134 M128,133L129,134 M129,133L130,134 M471,133L472,134 M472,133L473,134 M473,133L474,134 M474,133L475,134 M475,133L476,134 M476,133L477,134 M477,133L478,134 M478,133L479,134 M479,133L480,134 M480,133L481,134 M481,133L482,134 M482,133L483,134 M561,133L562,134 M562,133L563,134 M563,133L564,134 M564,133L565,134 M565,133L566,134 M745,133L746,134 M746,133L747,134 M1,134L2,135 M123,134L124,135 M124,134L125,135 M125,134L126,135 M126,134L127,135 M127,134L128,135 M465,134L466,135 M466,134L467,135 M467,134L468,135 M468,134L469,135 M469,134L470,135 M470,134L471,135 M471,134L472,135 M472,134L473,135 M473,134L474,135 M474,134L475,135 M475,134L476,135 M476,134L477,135 M559,134L560,135 M560,134L561,135 M561,134L562,135 M562,134L563,135 M745,134L746,135 M746,134L747,135 M0,135L1,136 M1,135L2,136 M122,135L123,136 M123,135L124,136 M124,135L125,136 M125,135L126,136 M459,135L460,136 M460,135L461,136 M461,135L462,136 M462,135L463,136 M463,135L464,136 M464,135L465,136 M465,135L466,136 M466,135L467,136 M467,135L468,136 M468,135L469,136 M469,135L470,136 M470,135L471,136 M557,135L558,136 M558,135L559,136 M559,135L560,136 M560,135L561,136 M745,135L746,136 M746,135L747,136 M0,136L1,137 M1,136L2,137 M2,136L3,137 M119,136L120,137 M120,136L121,137 M121,136L122,137 M122,136L123,137 M123,136L124,137 M450,136L451,137 M451,136L452,137 M452,136L453,137 M453,136L454,137 M454,136L455,137 M455,136L456,137 M456,136L457,137 M457,136L458,137 M458,136L459,137 M459,136L460,137 M460,136L461,137 M461,136L462,137 M462,136L463,137 M463,136L464,137 M464,136L465,137 M554,136L555,137 M555,136L556,137 M556,136L557,137 M557,136L558,137 M558,136L559,137 M746,136L747,137 M747,136L748,137 M1,137L2,138 M2,137L3,138 M116,137L117,138 M117,137L118,138 M118,137L119,138 M119,137L120,138 M120,137L121,138 M121,137L122,138 M438,137L439,138 M439,137L440,138 M440,137L441,138 M441,137L442,138 M442,137L443,138 M443,137L444,138 M444,137L445,138 M445,137L446,138 M446,137L447,138 M447,137L448,138 M448,137L449,138 M449,137L450,138 M450,137L451,138 M451,137L452,138 M452,137L453,138 M453,137L454,138 M454,137L455,138 M455,137L456,138 M456,137L457,138 M457,137L458,138 M458,137L459,138 M459,137L460,138 M552,137L553,138 M553,137L554,138 M554,137L555,138 M555,137L556,138 M556,137L557,138 M746,137L747,138 M747,137L748,138 M1,138L2,139 M2,138L3,139 M113,138L114,139 M114,138L115,139 M115,138L116,139 M116,138L117,139 M117,138L118,139 M118,138L119,139 M119,138L120,139 M426,138L427,139 M427,138L428,139 M428,138L429,139 M429,138L430,139 M430,138L431,139 M431,138L432,139 M432,138L433,139 M433,138L434,139 M434,138L435,139 M435,138L436,139 M436,138L437,139 M437,138L438,139 M438,138L439,139 M439,138L440,139 M440,138L441,139 M441,138L442,139 M442,138L443,139 M443,138L444,139 M444,138L445,139 M445,138L446,139 M446,138L447,139 M447,138L448,139 M448,138L449,139 M449,138L450,139 M550,138L551,139 M551,138L552,139 M552,138L553,139 M553,138L554,139 M554,138L555,139 M746,138L747,139 M747,138L748,139 M1,139L2,140 M2,139L3,140 M111,139L112,140 M112,139L113,140 M113,139L114,140 M114,139L115,140 M115,139L116,140 M116,139L117,140 M417,139L418,140 M418,139L419,140 M419,139L420,140 M420,139L421,140 M421,139L422,140 M422,139L423,140 M423,139L424,140 M424,139L425,140 M425,139L426,140 M426,139L427,140 M427,139L428,140 M428,139L429,140 M429,139L430,140 M430,139L431,140 M431,139L432,140 M432,139L433,140 M433,139L434,140 M434,139L435,140 M435,139L436,140 M436,139L437,140 M437,139L438,140 M438,139L439,140 M439,139L440,140 M440,139L441,140 M441,139L442,140 M442,139L443,140 M443,139L444,140 M444,139L445,140 M445,139L446,140 M446,139L447,140 M447,139L448,140 M448,139L449,140 M449,139L450,140 M450,139L451,140 M451,139L452,140 M452,139L453,140 M453,139L454,140 M454,139L455,140 M455,139L456,140 M456,139L457,140 M457,139L458,140 M458,139L459,140 M459,139L460,140 M460,139L461,140 M461,139L462,140 M462,139L463,140 M463,139L464,140 M464,139L465,140 M465,139L466,140 M466,139L467,140 M467,139L468,140 M468,139L469,140 M469,139L470,140 M470,139L471,140 M471,139L472,140 M472,139L473,140 M473,139L474,140 M474,139L475,140 M475,139L476,140 M476,139L477,140 M477,139L478,140 M478,139L479,140 M479,139L480,140 M480,139L481,140 M481,139L482,140 M482,139L483,140 M483,139L484,140 M484,139L485,140 M485,139L486,140 M486,139L487,140 M487,139L488,140 M488,139L489,140 M489,139L490,140 M490,139L491,140 M491,139L492,140 M492,139L493,140 M493,139L494,140 M494,139L495,140 M495,139L496,140 M496,139L497,140 M497,139L498,140 M498,139L499,140 M499,139L500,140 M500,139L501,140 M501,139L502,140 M502,139L503,140 M503,139L504,140 M504,139L505,140 M548,139L549,140 M549,139L550,140 M550,139L551,140 M551,139L552,140 M552,139L553,140 M746,139L747,140 M747,139L748,140 M2,140L3,141 M3,140L4,141 M108,140L109,141 M109,140L110,141 M110,140L111,141 M111,140L112,141 M112,140L113,141 M113,140L114,141 M410,140L411,141 M411,140L412,141 M412,140L413,141 M413,140L414,141 M414,140L415,141 M415,140L416,141 M416,140L417,141 M417,140L418,141 M418,140L419,141 M419,140L420,141 M420,140L421,141 M421,140L422,141 M422,140L423,141 M423,140L424,141 M424,140L425,141 M425,140L426,141 M426,140L427,141 M427,140L428,141 M428,140L429,141 M429,140L430,141 M430,140L431,141 M431,140L432,141 M432,140L433,141 M433,140L434,141 M434,140L435,141 M435,140L436,141 M436,140L437,141 M437,140L438,141 M438,140L439,141 M439,140L440,141 M440,140L441,141 M441,140L442,141 M442,140L443,141 M443,140L444,141 M444,140L445,141 M445,140L446,141 M446,140L447,141 M447,140L448,141 M448,140L449,141 M449,140L450,141 M450,140L451,141 M451,140L452,141 M452,140L453,141 M453,140L454,141 M454,140L455,141 M455,140L456,141 M456,140L457,141 M457,140L458,141 M458,140L459,141 M459,140L460,141 M460,140L461,141 M461,140L462,141 M462,140L463,141 M463,140L464,141 M464,140L465,141 M465,140L466,141 M466,140L467,141 M467,140L468,141 M468,140L469,141 M469,140L470,141 M470,140L471,141 M471,140L472,141 M472,140L473,141 M473,140L474,141 M474,140L475,141 M475,140L476,141 M476,140L477,141 M477,140L478,141 M478,140L479,141 M479,140L480,141 M480,140L481,141 M481,140L482,141 M482,140L483,141 M483,140L484,141 M484,140L485,141 M485,140L486,141 M486,140L487,141 M487,140L488,141 M488,140L489,141 M489,140L490,141 M490,140L491,141 M491,140L492,141 M492,140L493,141 M493,140L494,141 M494,140L495,141 M495,140L496,141 M496,140L497,141 M497,140L498,141 M498,140L499,141 M499,140L500,141 M500,140L501,141 M501,140L502,141 M502,140L503,141 M503,140L504,141 M504,140L505,141 M505,140L506,141 M506,140L507,141 M507,140L508,141 M508,140L509,141 M509,140L510,141 M510,140L511,141 M511,140L512,141 M512,140L513,141 M513,140L514,141 M514,140L515,141 M515,140L516,141 M516,140L517,141 M517,140L518,141 M518,140L519,141 M519,140L520,141 M520,140L521,141 M521,140L522,141 M522,140L523,141 M523,140L524,141 M524,140L525,141 M525,140L526,141 M526,140L527,141 M527,140L528,141 M528,140L529,141 M529,140L530,141 M530,140L531,141 M531,140L532,141 M532,140L533,141 M533,140L534,141 M534,140L535,141 M535,140L536,141 M536,140L537,141 M537,140L538,141 M538,140L539,141 M539,140L540,141 M540,140L541,141 M541,140L542,141 M542,140L543,141 M543,140L544,141 M544,140L545,141 M545,140L546,141 M546,140L547,141 M547,140L548,141 M548,140L549,141 M549,140L550,141 M550,140L551,141 M551,140L552,141 M552,140L553,141 M746,140L747,141 M747,140L748,141 M2,141L3,142 M3,141L4,142 M105,141L106,142 M106,141L107,142 M107,141L108,142 M108,141L109,142 M109,141L110,142 M110,141L111,142 M403,141L404,142 M404,141L405,142 M405,141L406,142 M406,141L407,142 M407,141L408,142 M408,141L409,142 M409,141L410,142 M410,141L411,142 M411,141L412,142 M412,141L413,142 M413,141L414,142 M414,141L415,142 M415,141L416,142 M416,141L417,142 M417,141L418,142 M418,141L419,142 M419,141L420,142 M420,141L421,142 M421,141L422,142 M422,141L423,142 M423,141L424,142 M424,141L425,142 M425,141L426,142 M426,141L427,142 M427,141L428,142 M428,141L429,142 M429,141L430,142 M430,141L431,142 M431,141L432,142 M432,141L433,142 M433,141L434,142 M434,141L435,142 M435,141L436,142 M436,141L437,142 M437,141L438,142 M505,141L506,142 M506,141L507,142 M507,141L508,142 M508,141L509,142 M509,141L510,142 M510,141L511,142 M511,141L512,142 M512,141L513,142 M513,141L514,142 M514,141L515,142 M515,141L516,142 M516,141L517,142 M517,141L518,142 M518,141L519,142 M519,141L520,142 M520,141L521,142 M521,141L522,142 M522,141L523,142 M523,141L524,142 M524,141L525,142 M525,141L526,142 M526,141L527,142 M527,141L528,142 M528,141L529,142 M529,141L530,142 M530,141L531,142 M531,141L532,142 M532,141L533,142 M533,141L534,142 M534,141L535,142 M535,141L536,142 M536,141L537,142 M537,141L538,142 M538,141L539,142 M539,141L540,142 M540,141L541,142 M541,141L542,142 M542,141L543,142 M543,141L544,142 M544,141L545,142 M545,141L546,142 M546,141L547,142 M547,141L548,142 M548,141L549,142 M549,141L550,142 M550,141L551,142 M551,141L552,142 M552,141L553,142 M553,141L554,142 M554,141L555,142 M555,141L556,142 M556,141L557,142 M557,141L558,142 M558,141L559,142 M559,141L560,142 M560,141L561,142 M561,141L562,142 M562,141L563,142 M563,141L564,142 M564,141L565,142 M565,141L566,142 M566,141L567,142 M567,141L568,142 M568,141L569,142 M569,141L570,142 M746,141L747,142 M747,141L748,142 M2,142L3,143 M3,142L4,143 M102,142L103,143 M103,142L104,143 M104,142L105,143 M105,142L106,143 M106,142L107,143 M107,142L108,143 M395,142L396,143 M396,142L397,143 M397,142L398,143 M398,142L399,143 M399,142L400,143 M400,142L401,143 M401,142L402,143 M402,142L403,143 M403,142L404,143 M404,142L405,143 M405,142L406,143 M406,142L407,143 M407,142L408,143 M408,142L409,143 M409,142L410,143 M410,142L411,143 M411,142L412,143 M412,142L413,143 M413,142L414,143 M542,142L543,143 M543,142L544,143 M544,142L545,143 M545,142L546,143 M553,142L554,143 M554,142L555,143 M555,142L556,143 M556,142L557,143 M557,142L558,143 M558,142L559,143 M559,142L560,143 M560,142L561,143 M561,142L562,143 M562,142L563,143 M563,142L564,143 M564,142L565,143 M565,142L566,143 M566,142L567,143 M567,142L568,143 M568,142L569,143 M569,142L570,143 M570,142L571,143 M571,142L572,143 M572,142L573,143 M573,142L574,143 M574,142L575,143 M575,142L576,143 M576,142L577,143 M577,142L578,143 M578,142L579,143 M579,142L580,143 M580,142L581,143 M581,142L582,143 M582,142L583,143 M583,142L584,143 M584,142L585,143 M585,142L586,143 M586,142L587,143 M746,142L747,143 M747,142L748,143 M3,143L4,144 M4,143L5,144 M99,143L100,144 M100,143L101,144 M101,143L102,144 M102,143L103,144 M103,143L104,144 M104,143L105,144 M388,143L389,144 M389,143L390,144 M390,143L391,144 M391,143L392,144 M392,143L393,144 M393,143L394,144 M394,143L395,144 M395,143L396,144 M396,143L397,144 M397,143L398,144 M398,143L399,144 M399,143L400,144 M400,143L401,144 M401,143L402,144 M402,143L403,144 M403,143L404,144 M404,143L405,144 M405,143L406,144 M540,143L541,144 M541,143L542,144 M542,143L543,144 M543,143L544,144 M570,143L571,144 M571,143L572,144 M572,143L573,144 M573,143L574,144 M574,143L575,144 M575,143L576,144 M576,143L577,144 M577,143L578,144 M578,143L579,144 M579,143L580,144 M580,143L581,144 M581,143L582,144 M582,143L583,144 M583,143L584,144 M584,143L585,144 M585,143L586,144 M586,143L587,144 M587,143L588,144 M588,143L589,144 M589,143L590,144 M590,143L591,144 M591,143L592,144 M592,143L593,144 M593,143L594,144 M594,143L595,144 M595,143L596,144 M596,143L597,144 M597,143L598,144 M598,143L599,144 M599,143L600,144 M600,143L601,144 M601,143L602,144 M602,143L603,144 M603,143L604,144 M604,143L605,144 M605,143L606,144 M746,143L747,144 M747,143L748,144 M3,144L4,145 M4,144L5,145 M96,144L97,145 M97,144L98,145 M98,144L99,145 M99,144L100,145 M100,144L101,145 M101,144L102,145 M381,144L382,145 M382,144L383,145 M383,144L384,145 M384,144L385,145 M385,144L386,145 M386,144L387,145 M387,144L388,145 M388,144L389,145 M389,144L390,145 M390,144L391,145 M391,144L392,145 M392,144L393,145 M393,144L394,145 M394,144L395,145 M399,144L400,145 M400,144L401,145 M401,144L402,145 M402,144L403,145 M403,144L404,145 M538,144L539,145 M539,144L540,145 M540,144L541,145 M541,144L542,145 M587,144L588,145 M588,144L589,145 M589,144L590,145 M590,144L591,145 M591,144L592,145 M592,144L593,145 M593,144L594,145 M594,144L595,145 M595,144L596,145 M596,144L597,145 M597,144L598,145 M598,144L599,145 M599,144L600,145 M600,144L601,145 M601,144L602,145 M602,144L603,145 M603,144L604,145 M604,144L605,145 M605,144L606,145 M606,144L607,145 M607,144L608,145 M608,144L609,145 M609,144L610,145 M610,144L611,145 M611,144L612,145 M612,144L613,145 M613,144L614,145 M614,144L615,145 M615,144L616,145 M616,144L617,145 M617,144L618,145 M618,144L619,145 M619,144L620,145 M620,144L621,145 M621,144L622,145 M622,144L623,145 M623,144L624,145 M624,144L625,145 M625,144L626,145 M626,144L627,145 M627,144L628,145 M743,144L744,145 M744,144L745,145 M745,144L746,145 M746,144L747,145 M747,144L748,145 M3,145L4,146 M4,145L5,146 M93,145L94,146 M94,145L95,146 M95,145L96,146 M96,145L97,146 M97,145L98,146 M98,145L99,146 M374,145L375,146 M375,145L376,146 M376,145L377,146 M377,145L378,146 M378,145L379,146 M379,145L380,146 M380,145L381,146 M381,145L382,146 M382,145L383,146 M383,145L384,146 M384,145L385,146 M385,145L386,146 M386,145L387,146 M387,145L388,146 M396,145L397,146 M397,145L398,146 M398,145L399,146 M399,145L400,146 M400,145L401,146 M535,145L536,146 M536,145L537,146 M537,145L538,146 M538,145L539,146 M539,145L540,146 M606,145L607,146 M607,145L608,146 M608,145L609,146 M609,145L610,146 M610,145L611,146 M611,145L612,146 M612,145L613,146 M613,145L614,146 M614,145L615,146 M615,145L616,146 M616,145L617,146 M617,145L618,146 M618,145L619,146 M619,145L620,146 M620,145L621,146 M621,145L622,146 M622,145L623,146 M623,145L624,146 M624,145L625,146 M625,145L626,146 M626,145L627,146 M627,145L628,146 M628,145L629,146 M629,145L630,146 M630,145L631,146 M631,145L632,146 M632,145L633,146 M633,145L634,146 M634,145L635,146 M635,145L636,146 M636,145L637,146 M637,145L638,146 M638,145L639,146 M639,145L640,146 M640,145L641,146 M641,145L642,146 M642,145L643,146 M643,145L644,146 M644,145L645,146 M645,145L646,146 M646,145L647,146 M647,145L648,146 M648,145L649,146 M649,145L650,146 M650,145L651,146 M651,145L652,146 M652,145L653,146 M653,145L654,146 M654,145L655,146 M655,145L656,146 M656,145L657,146 M657,145L658,146 M658,145L659,146 M659,145L660,146 M660,145L661,146 M661,145L662,146 M662,145L663,146 M663,145L664,146 M664,145L665,146 M665,145L666,146 M666,145L667,146 M667,145L668,146 M668,145L669,146 M669,145L670,146 M670,145L671,146 M671,145L672,146 M672,145L673,146 M673,145L674,146 M674,145L675,146 M675,145L676,146 M676,145L677,146 M677,145L678,146 M678,145L679,146 M679,145L680,146 M680,145L681,146 M681,145L682,146 M682,145L683,146 M683,145L684,146 M684,145L685,146 M685,145L686,146 M686,145L687,146 M687,145L688,146 M688,145L689,146 M689,145L690,146 M690,145L691,146 M691,145L692,146 M692,145L693,146 M693,145L694,146 M694,145L695,146 M695,145L696,146 M696,145L697,146 M697,145L698,146 M698,145L699,146 M699,145L700,146 M700,145L701,146 M701,145L702,146 M702,145L703,146 M703,145L704,146 M704,145L705,146 M705,145L706,146 M706,145L707,146 M707,145L708,146 M708,145L709,146 M709,145L710,146 M710,145L711,146 M711,145L712,146 M712,145L713,146 M713,145L714,146 M714,145L715,146 M715,145L716,146 M716,145L717,146 M717,145L718,146 M718,145L719,146 M719,145L720,146 M720,145L721,146 M721,145L722,146 M722,145L723,146 M723,145L724,146 M724,145L725,146 M725,145L726,146 M726,145L727,146 M727,145L728,146 M728,145L729,146 M729,145L730,146 M730,145L731,146 M731,145L732,146 M732,145L733,146 M733,145L734,146 M734,145L735,146 M735,145L736,146 M736,145L737,146 M737,145L738,146 M738,145L739,146 M739,145L740,146 M740,145L741,146 M741,145L742,146 M742,145L743,146 M743,145L744,146 M744,145L745,146 M745,145L746,146 M4,146L5,147 M5,146L6,147 M90,146L91,147 M91,146L92,147 M92,146L93,147 M93,146L94,147 M94,146L95,147 M95,146L96,147 M367,146L368,147 M368,146L369,147 M369,146L370,147 M370,146L371,147 M371,146L372,147 M372,146L373,147 M373,146L374,147 M374,146L375,147 M375,146L376,147 M376,146L377,147 M377,146L378,147 M378,146L379,147 M379,146L380,147 M380,146L381,147 M393,146L394,147 M394,146L395,147 M395,146L396,147 M396,146L397,147 M397,146L398,147 M398,146L399,147 M533,146L534,147 M534,146L535,147 M535,146L536,147 M536,146L537,147 M537,146L538,147 M628,146L629,147 M629,146L630,147 M630,146L631,147 M631,146L632,147 M632,146L633,147 M633,146L634,147 M634,146L635,147 M635,146L636,147 M636,146L637,147 M637,146L638,147 M638,146L639,147 M639,146L640,147 M640,146L641,147 M641,146L642,147 M642,146L643,147 M643,146L644,147 M644,146L645,147 M645,146L646,147 M646,146L647,147 M647,146L648,147 M648,146L649,147 M649,146L650,147 M650,146L651,147 M651,146L652,147 M652,146L653,147 M653,146L654,147 M654,146L655,147 M655,146L656,147 M656,146L657,147 M657,146L658,147 M658,146L659,147 M659,146L660,147 M660,146L661,147 M661,146L662,147 M662,146L663,147 M663,146L664,147 M664,146L665,147 M665,146L666,147 M666,146L667,147 M667,146L668,147 M668,146L669,147 M669,146L670,147 M670,146L671,147 M671,146L672,147 M672,146L673,147 M673,146L674,147 M674,146L675,147 M675,146L676,147 M676,146L677,147 M677,146L678,147 M678,146L679,147 M679,146L680,147 M680,146L681,147 M681,146L682,147 M682,146L683,147 M683,146L684,147 M684,146L685,147 M685,146L686,147 M686,146L687,147 M687,146L688,147 M688,146L689,147 M689,146L690,147 M690,146L691,147 M691,146L692,147 M692,146L693,147 M693,146L694,147 M694,146L695,147 M695,146L696,147 M696,146L697,147 M697,146L698,147 M698,146L699,147 M699,146L700,147 M700,146L701,147 M701,146L702,147 M702,146L703,147 M703,146L704,147 M704,146L705,147 M705,146L706,147 M706,146L707,147 M707,146L708,147 M708,146L709,147 M709,146L710,147 M710,146L711,147 M711,146L712,147 M712,146L713,147 M713,146L714,147 M714,146L715,147 M715,146L716,147 M716,146L717,147 M717,146L718,147 M718,146L719,147 M719,146L720,147 M720,146L721,147 M721,146L722,147 M722,146L723,147 M723,146L724,147 M724,146L725,147 M725,146L726,147 M726,146L727,147 M727,146L728,147 M728,146L729,147 M729,146L730,147 M730,146L731,147 M731,146L732,147 M732,146L733,147 M733,146L734,147 M734,146L735,147 M735,146L736,147 M736,146L737,147 M737,146L738,147 M738,146L739,147 M739,146L740,147 M740,146L741,147 M741,146L742,147 M742,146L743,147 M4,147L5,148 M5,147L6,148 M87,147L88,148 M88,147L89,148 M89,147L90,148 M90,147L91,148 M91,147L92,148 M92,147L93,148 M359,147L360,148 M360,147L361,148 M361,147L362,148 M362,147L363,148 M363,147L364,148 M364,147L365,148 M365,147L366,148 M366,147L367,148 M367,147L368,148 M368,147L369,148 M369,147L370,148 M370,147L371,148 M371,147L372,148 M372,147L373,148 M373,147L374,148 M390,147L391,148 M391,147L392,148 M392,147L393,148 M393,147L394,148 M394,147L395,148 M395,147L396,148 M531,147L532,148 M532,147L533,148 M533,147L534,148 M534,147L535,148 M535,147L536,148 M4,148L5,149 M5,148L6,149 M6,148L7,149 M84,148L85,149 M85,148L86,149 M86,148L87,149 M87,148L88,149 M88,148L89,149 M89,148L90,149 M90,148L91,149 M352,148L353,149 M353,148L354,149 M354,148L355,149 M355,148L356,149 M356,148L357,149 M357,148L358,149 M358,148L359,149 M359,148L360,149 M360,148L361,149 M361,148L362,149 M362,148L363,149 M363,148L364,149 M364,148L365,149 M365,148L366,149 M366,148L367,149 M388,148L389,149 M389,148L390,149 M390,148L391,149 M391,148L392,149 M392,148L393,149 M529,148L530,149 M530,148L531,149 M531,148L532,149 M532,148L533,149 M533,148L534,149 M5,149L6,150 M6,149L7,150 M82,149L83,150 M83,149L84,150 M84,149L85,150 M85,149L86,150 M86,149L87,150 M87,149L88,150 M345,149L346,150 M346,149L347,150 M347,149L348,150 M348,149L349,150 M349,149L350,150 M350,149L351,150 M351,149L352,150 M352,149L353,150 M353,149L354,150 M354,149L355,150 M355,149L356,150 M356,149L357,150 M357,149L358,150 M358,149L359,150 M359,149L360,150 M386,149L387,150 M387,149L388,150 M388,149L389,150 M389,149L390,150 M527,149L528,150 M528,149L529,150 M529,149L530,150 M530,149L531,150 M531,149L532,150 M5,150L6,151 M6,150L7,151 M79,150L80,151 M80,150L81,151 M81,150L82,151 M82,150L83,151 M83,150L84,151 M84,150L85,151 M339,150L340,151 M340,150L341,151 M341,150L342,151 M342,150L343,151 M343,150L344,151 M344,150L345,151 M345,150L346,151 M346,150L347,151 M347,150L348,151 M348,150L349,151 M349,150L350,151 M350,150L351,151 M351,150L352,151 M385,150L386,151 M386,150L387,151 M387,150L388,151 M388,150L389,151 M525,150L526,151 M526,150L527,151 M527,150L528,151 M528,150L529,151 M529,150L530,151 M6,151L7,152 M7,151L8,152 M76,151L77,152 M77,151L78,152 M78,151L79,152 M79,151L80,152 M80,151L81,152 M81,151L82,152 M334,151L335,152 M335,151L336,152 M336,151L337,152 M337,151L338,152 M338,151L339,152 M339,151L340,152 M340,151L341,152 M341,151L342,152 M342,151L343,152 M343,151L344,152 M344,151L345,152 M384,151L385,152 M385,151L386,152 M386,151L387,152 M523,151L524,152 M524,151L525,152 M525,151L526,152 M526,151L527,152 M527,151L528,152 M6,152L7,153 M7,152L8,153 M8,152L9,153 M73,152L74,153 M74,152L75,153 M75,152L76,153 M76,152L77,153 M77,152L78,153 M78,152L79,153 M328,152L329,153 M329,152L330,153 M330,152L331,153 M331,152L332,153 M332,152L333,153 M333,152L334,153 M334,152L335,153 M335,152L336,153 M336,152L337,153 M337,152L338,153 M338,152L339,153 M382,152L383,153 M383,152L384,153 M384,152L385,153 M385,152L386,153 M521,152L522,153 M522,152L523,153 M523,152L524,153 M524,152L525,153 M7,153L8,154 M8,153L9,154 M9,153L10,154 M10,153L11,154 M70,153L71,154 M71,153L72,154 M72,153L73,154 M73,153L74,154 M74,153L75,154 M75,153L76,154 M323,153L324,154 M324,153L325,154 M325,153L326,154 M326,153L327,154 M327,153L328,154 M328,153L329,154 M329,153L330,154 M330,153L331,154 M331,153L332,154 M332,153L333,154 M333,153L334,154 M381,153L382,154 M382,153L383,154 M383,153L384,154 M519,153L520,154 M520,153L521,154 M521,153L522,154 M522,153L523,154 M9,154L10,155 M10,154L11,155 M11,154L12,155 M67,154L68,155 M68,154L69,155 M69,154L70,155 M70,154L71,155 M71,154L72,155 M72,154L73,155 M318,154L319,155 M319,154L320,155 M320,154L321,155 M321,154L322,155 M322,154L323,155 M323,154L324,155 M324,154L325,155 M325,154L326,155 M326,154L327,155 M327,154L328,155 M328,154L329,155 M380,154L381,155 M381,154L382,155 M382,154L383,155 M517,154L518,155 M518,154L519,155 M519,154L520,155 M520,154L521,155 M10,155L11,156 M11,155L12,156 M12,155L13,156 M62,155L63,156 M63,155L64,156 M64,155L65,156 M65,155L66,156 M66,155L67,156 M67,155L68,156 M68,155L69,156 M69,155L70,156 M313,155L314,156 M314,155L315,156 M315,155L316,156 M316,155L317,156 M317,155L318,156 M318,155L319,156 M319,155L320,156 M320,155L321,156 M321,155L322,156 M322,155L323,156 M379,155L380,156 M380,155L381,156 M381,155L382,156 M515,155L516,156 M516,155L517,156 M517,155L518,156 M518,155L519,156 M11,156L12,157 M12,156L13,157 M13,156L14,157 M54,156L55,157 M55,156L56,157 M56,156L57,157 M57,156L58,157 M58,156L59,157 M59,156L60,157 M60,156L61,157 M61,156L62,157 M62,156L63,157 M63,156L64,157 M64,156L65,157 M65,156L66,157 M66,156L67,157 M307,156L308,157 M308,156L309,157 M309,156L310,157 M310,156L311,157 M311,156L312,157 M312,156L313,157 M313,156L314,157 M314,156L315,157 M315,156L316,157 M316,156L317,157 M317,156L318,157 M377,156L378,157 M378,156L379,157 M379,156L380,157 M380,156L381,157 M381,156L382,157 M512,156L513,157 M513,156L514,157 M514,156L515,157 M515,156L516,157 M516,156L517,157 M13,157L14,158 M14,157L15,158 M15,157L16,158 M46,157L47,158 M47,157L48,158 M48,157L49,158 M49,157L50,158 M50,157L51,158 M51,157L52,158 M52,157L53,158 M53,157L54,158 M54,157L55,158 M55,157L56,158 M56,157L57,158 M57,157L58,158 M58,157L59,158 M59,157L60,158 M60,157L61,158 M61,157L62,158 M302,157L303,158 M303,157L304,158 M304,157L305,158 M305,157L306,158 M306,157L307,158 M307,157L308,158 M308,157L309,158 M309,157L310,158 M310,157L311,158 M311,157L312,158 M312,157L313,158 M377,157L378,158 M378,157L379,158 M510,157L511,158 M511,157L512,158 M512,157L513,158 M513,157L514,158 M514,157L515,158 M14,158L15,159 M15,158L16,159 M16,158L17,159 M17,158L18,159 M18,158L19,159 M19,158L20,159 M20,158L21,159 M21,158L22,159 M22,158L23,159 M23,158L24,159 M24,158L25,159 M25,158L26,159 M26,158L27,159 M27,158L28,159 M28,158L29,159 M29,158L30,159 M30,158L31,159 M31,158L32,159 M32,158L33,159 M33,158L34,159 M34,158L35,159 M35,158L36,159 M36,158L37,159 M37,158L38,159 M38,158L39,159 M39,158L40,159 M40,158L41,159 M41,158L42,159 M42,158L43,159 M43,158L44,159 M44,158L45,159 M45,158L46,159 M46,158L47,159 M47,158L48,159 M48,158L49,159 M49,158L50,159 M50,158L51,159 M51,158L52,159 M52,158L53,159 M53,158L54,159 M298,158L299,159 M299,158L300,159 M300,158L301,159 M301,158L302,159 M302,158L303,159 M303,158L304,159 M304,158L305,159 M305,158L306,159 M306,158L307,159 M508,158L509,159 M509,158L510,159 M510,158L511,159 M511,158L512,159 M512,158L513,159 M15,159L16,160 M16,159L17,160 M17,159L18,160 M18,159L19,160 M19,159L20,160 M20,159L21,160 M21,159L22,160 M22,159L23,160 M23,159L24,160 M24,159L25,160 M25,159L26,160 M26,159L27,160 M27,159L28,160 M28,159L29,160 M29,159L30,160 M30,159L31,160 M31,159L32,160 M32,159L33,160 M33,159L34,160 M34,159L35,160 M35,159L36,160 M36,159L37,160 M37,159L38,160 M38,159L39,160 M39,159L40,160 M40,159L41,160 M41,159L42,160 M42,159L43,160 M43,159L44,160 M44,159L45,160 M45,159L46,160 M293,159L294,160 M294,159L295,160 M295,159L296,160 M296,159L297,160 M297,159L298,160 M298,159L299,160 M299,159L300,160 M300,159L301,160 M301,159L302,160 M302,159L303,160 M506,159L507,160 M507,159L508,160 M508,159L509,160 M509,159L510,160 M510,159L511,160 M289,160L290,161 M290,160L291,161 M291,160L292,161 M292,160L293,161 M293,160L294,161 M294,160L295,161 M295,160L296,161 M296,160L297,161 M297,160L298,161 M504,160L505,161 M505,160L506,161 M506,160L507,161 M507,160L508,161 M508,160L509,161 M284,161L285,162 M285,161L286,162 M286,161L287,162 M287,161L288,162 M288,161L289,162 M289,161L290,162 M290,161L291,162 M291,161L292,162 M292,161L293,162 M502,161L503,162 M503,161L504,162 M504,161L505,162 M505,161L506,162 M506,161L507,162 M279,162L280,163 M280,162L281,163 M281,162L282,163 M282,162L283,163 M283,162L284,163 M284,162L285,163 M285,162L286,163 M286,162L287,163 M287,162L288,163 M288,162L289,163 M500,162L501,163 M501,162L502,163 M502,162L503,163 M503,162L504,163 M504,162L505,163 M275,163L276,164 M276,163L277,164 M277,163L278,164 M278,163L279,164 M279,163L280,164 M280,163L281,164 M281,163L282,164 M282,163L283,164 M283,163L284,164 M498,163L499,164 M499,163L500,164 M500,163L501,164 M501,163L502,164 M271,164L272,165 M272,164L273,165 M273,164L274,165 M274,164L275,165 M275,164L276,165 M276,164L277,165 M277,164L278,165 M278,164L279,165 M279,164L280,165 M496,164L497,165 M497,164L498,165 M498,164L499,165 M499,164L500,165 M267,165L268,166 M268,165L269,166 M269,165L270,166 M270,165L271,166 M271,165L272,166 M272,165L273,166 M273,165L274,166 M274,165L275,166 M493,165L494,166 M494,165L495,166 M495,165L496,166 M496,165L497,166 M497,165L498,166 M263,166L264,167 M264,166L265,167 M265,166L266,167 M266,166L267,167 M267,166L268,167 M268,166L269,167 M269,166L270,167 M270,166L271,167 M491,166L492,167 M492,166L493,167 M493,166L494,167 M494,166L495,167 M495,166L496,167 M259,167L260,168 M260,167L261,168 M261,167L262,168 M262,167L263,168 M263,167L264,168 M264,167L265,168 M265,167L266,168 M266,167L267,168 M489,167L490,168 M490,167L491,168 M491,167L492,168 M492,167L493,168 M493,167L494,168 M255,168L256,169 M256,168L257,169 M257,168L258,169 M258,168L259,169 M259,168L260,169 M260,168L261,169 M261,168L262,169 M262,168L263,169 M486,168L487,169 M487,168L488,169 M488,168L489,169 M489,168L490,169 M490,168L491,169 M251,169L252,170 M252,169L253,170 M253,169L254,170 M254,169L255,170 M255,169L256,170 M256,169L257,170 M257,169L258,170 M258,169L259,170 M484,169L485,170 M485,169L486,170 M486,169L487,170 M487,169L488,170 M488,169L489,170 M247,170L248,171 M248,170L249,171 M249,170L250,171 M250,170L251,171 M251,170L252,171 M252,170L253,171 M253,170L254,171 M254,170L255,171 M482,170L483,171 M483,170L484,171 M484,170L485,171 M485,170L486,171 M486,170L487,171 M243,171L244,172 M244,171L245,172 M245,171L246,172 M246,171L247,172 M247,171L248,172 M248,171L249,172 M249,171L250,172 M250,171L251,172 M480,171L481,172 M481,171L482,172 M482,171L483,172 M483,171L484,172 M239,172L240,173 M240,172L241,173 M241,172L242,173 M242,172L243,173 M243,172L244,173 M244,172L245,173 M245,172L246,173 M246,172L247,173 M247,172L248,173 M479,172L480,173 M480,172L481,173 M481,172L482,173 M236,173L237,174 M237,173L238,174 M238,173L239,174 M239,173L240,174 M240,173L241,174 M241,173L242,174 M242,173L243,174 M243,173L244,174 M477,173L478,174 M478,173L479,174 M479,173L480,174 M480,173L481,174 M233,174L234,175 M234,174L235,175 M235,174L236,175 M236,174L237,175 M237,174L238,175 M238,174L239,175 M239,174L240,175 M476,174L477,175 M477,174L478,175 M478,174L479,175 M230,175L231,176 M231,175L232,176 M232,175L233,176 M233,175L234,176 M234,175L235,176 M235,175L236,176 M475,175L476,176 M476,175L477,176 M477,175L478,176 M228,176L229,177 M229,176L230,177 M230,176L231,177 M231,176L232,177 M232,176L233,177 M475,176L476,177 M476,176L477,177 M226,177L227,178 M227,177L228,178 M228,177L229,178 M229,177L230,178 M230,177L231,178 M474,177L475,178 M475,177L476,178 M224,178L225,179 M225,178L226,179 M226,178L227,179 M227,178L228,179 M228,178L229,179 M473,178L474,179 M474,178L475,179 M475,178L476,179 M221,179L222,180 M222,179L223,180 M223,179L224,180 M224,179L225,180 M225,179L226,180 M473,179L474,180 M474,179L475,180 M219,180L220,181 M220,180L221,181 M221,180L222,181 M222,180L223,181 M223,180L224,181 M473,180L474,181 M474,180L475,181 M217,181L218,182 M218,181L219,182 M219,181L220,182 M220,181L221,182 M221,181L222,182 M473,181L474,182 M474,181L475,182 M215,182L216,183 M216,182L217,183 M217,182L218,183 M218,182L219,183 M219,182L220,183 M473,182L474,183 M474,182L475,183 M213,183L214,184 M214,183L215,184 M215,183L216,184 M216,183L217,184 M473,183L474,184 M474,183L475,184 M475,183L476,184 M476,183L477,184 M211,184L212,185 M212,184L213,185 M213,184L214,185 M214,184L215,185 M475,184L476,185 M476,184L477,185 M477,184L478,185 M209,185L210,186 M210,185L211,186 M211,185L212,186 M212,185L213,186 M476,185L477,186 M477,185L478,186 M207,186L208,187 M208,186L209,187 M209,186L210,187 M210,186L211,187 M477,186L478,187 M478,186L479,187 M205,187L206,188 M206,187L207,188 M207,187L208,188 M208,187L209,188 M477,187L478,188 M206,188L207,189" fill="none" stroke="black" />
    </svg>