<svg xmlns="http://www.w3.org/2000/svg" width="670" height="250">
        <path d="M613,28L614,29 M614,28L615,29 M615,28L616,29 M616,28L617,29 M617,28L618,29 M618,28L619,29 M619,28L620,29 M620,28L621,29 M621,28L622,29 M622,28L623,29 M623,28L624,29 M624,28L625,29 M625,28L626,29 M626,28L627,29 M627,28L628,29 M628,28L629,29 M629,28L630,29 M630,28L631,29 M631,28L632,29 M632,28L633,29 M633,28L634,29 M634,28L635,29 M635,28L636,29 M636,28L637,29 M583,29L584,30 M584,29L585,30 M585,29L586,30 M586,29L587,30 M587,29L588,30 M588,29L589,30 M589,29L590,30 M590,29L591,30 M591,29L592,30 M592,29L593,30 M593,29L594,30 M594,29L595,30 M595,29L596,30 M596,29L597,30 M597,29L598,30 M598,29L599,30 M599,29L600,30 M600,29L601,30 M601,29L602,30 M602,29L603,30 M603,29L604,30 M604,29L605,30 M605,29L606,30 M606,29L607,30 M607,29L608,30 M608,29L609,30 M609,29L610,30 M610,29L611,30 M611,29L612,30 M612,29L613,30 M613,29L614,30 M614,29L615,30 M615,29L616,30 M616,29L617,30 M617,29L618,30 M618,29L619,30 M619,29L620,30 M620,29L621,30 M621,29L622,30 M622,29L623,30 M623,29L624,30 M624,29L625,30 M625,29L626,30 M626,29L627,30 M627,29L628,30 M628,29L629,30 M629,29L630,30 M630,29L631,30 M631,29L632,30 M632,29L633,30 M633,29L634,30 M634,29L635,30 M635,29L636,30 M636,29L637,30 M569,30L570,31 M570,30L571,31 M571,30L572,31 M572,30L573,31 M573,30L574,31 M574,30L575,31 M575,30L576,31 M576,30L577,31 M577,30L578,31 M578,30L579,31 M579,30L580,31 M580,30L581,31 M581,30L582,31 M582,30L583,31 M583,30L584,31 M584,30L585,31 M585,30L586,31 M586,30L587,31 M587,30L588,31 M588,30L589,31 M589,30L590,31 M590,30L591,31 M591,30L592,31 M592,30L593,31 M593,30L594,31 M594,30L595,31 M595,30L596,31 M596,30L597,31 M597,30L598,31 M598,30L599,31 M599,30L600,31 M600,30L601,31 M601,30L602,31 M602,30L603,31 M603,30L604,31 M604,30L605,31 M605,30L606,31 M606,30L607,31 M607,30L608,31 M608,30L609,31 M609,30L610,31 M610,30L611,31 M611,30L612,31 M612,30L613,31 M558,31L559,32 M559,31L560,32 M560,31L561,32 M561,31L562,32 M562,31L563,32 M563,31L564,32 M564,31L565,32 M565,31L566,32 M566,31L567,32 M567,31L568,32 M568,31L569,32 M569,31L570,32 M570,31L571,32 M571,31L572,32 M572,31L573,32 M573,31L574,32 M574,31L575,32 M575,31L576,32 M576,31L577,32 M577,31L578,32 M578,31L579,32 M579,31L580,32 M580,31L581,32 M581,31L582,32 M582,31L583,32 M548,32L549,33 M549,32L550,33 M550,32L551,33 M551,32L552,33 M552,32L553,33 M553,32L554,33 M554,32L555,33 M555,32L556,33 M556,32L557,33 M557,32L558,33 M558,32L559,33 M559,32L560,33 M560,32L561,33 M561,32L562,33 M562,32L563,33 M563,32L564,33 M564,32L565,33 M565,32L566,33 M566,32L567,33 M567,32L568,33 M568,32L569,33 M538,33L539,34 M539,33L540,34 M540,33L541,34 M541,33L542,34 M542,33L543,34 M543,33L544,34 M544,33L545,34 M545,33L546,34 M546,33L547,34 M547,33L548,34 M548,33L549,34 M549,33L550,34 M550,33L551,34 M551,33L552,34 M552,33L553,34 M553,33L554,34 M554,33L555,34 M555,33L556,34 M556,33L557,34 M557,33L558,34 M265,34L266,35 M266,34L267,35 M267,34L268,35 M268,34L269,35 M269,34L270,35 M270,34L271,35 M271,34L272,35 M272,34L273,35 M273,34L274,35 M274,34L275,35 M275,34L276,35 M276,34L277,35 M277,34L278,35 M278,34L279,35 M279,34L280,35 M280,34L281,35 M281,34L282,35 M282,34L283,35 M283,34L284,35 M284,34L285,35 M285,34L286,35 M286,34L287,35 M287,34L288,35 M288,34L289,35 M289,34L290,35 M290,34L291,35 M291,34L292,35 M292,34L293,35 M293,34L294,35 M294,34L295,35 M295,34L296,35 M296,34L297,35 M297,34L298,35 M298,34L299,35 M299,34L300,35 M528,34L529,35 M529,34L530,35 M530,34L531,35 M531,34L532,35 M532,34L533,35 M533,34L534,35 M534,34L535,35 M535,34L536,35 M536,34L537,35 M537,34L538,35 M538,34L539,35 M539,34L540,35 M540,34L541,35 M541,34L542,35 M542,34L543,35 M543,34L544,35 M544,34L545,35 M545,34L546,35 M546,34L547,35 M547,34L548,35 M251,35L252,36 M252,35L253,36 M253,35L254,36 M254,35L255,36 M255,35L256,36 M256,35L257,36 M257,35L258,36 M258,35L259,36 M259,35L260,36 M260,35L261,36 M261,35L262,36 M262,35L263,36 M263,35L264,36 M264,35L265,36 M265,35L266,36 M266,35L267,36 M267,35L268,36 M268,35L269,36 M269,35L270,36 M270,35L271,36 M271,35L272,36 M272,35L273,36 M273,35L274,36 M274,35L275,36 M275,35L276,36 M276,35L277,36 M277,35L278,36 M278,35L279,36 M279,35L280,36 M280,35L281,36 M281,35L282,36 M282,35L283,36 M283,35L284,36 M284,35L285,36 M285,35L286,36 M286,35L287,36 M287,35L288,36 M288,35L289,36 M289,35L290,36 M290,35L291,36 M291,35L292,36 M292,35L293,36 M293,35L294,36 M294,35L295,36 M295,35L296,36 M296,35L297,36 M297,35L298,36 M298,35L299,36 M299,35L300,36 M300,35L301,36 M301,35L302,36 M302,35L303,36 M303,35L304,36 M304,35L305,36 M305,35L306,36 M306,35L307,36 M307,35L308,36 M517,35L518,36 M518,35L519,36 M519,35L520,36 M520,35L521,36 M521,35L522,36 M522,35L523,36 M523,35L524,36 M524,35L525,36 M525,35L526,36 M526,35L527,36 M527,35L528,36 M528,35L529,36 M529,35L530,36 M530,35L531,36 M531,35L532,36 M532,35L533,36 M533,35L534,36 M534,35L535,36 M535,35L536,36 M536,35L537,36 M537,35L538,36 M244,36L245,37 M245,36L246,37 M246,36L247,37 M247,36L248,37 M248,36L249,37 M249,36L250,37 M250,36L251,37 M251,36L252,37 M252,36L253,37 M253,36L254,37 M254,36L255,37 M255,36L256,37 M256,36L257,37 M257,36L258,37 M258,36L259,37 M259,36L260,37 M260,36L261,37 M261,36L262,37 M262,36L263,37 M263,36L264,37 M299,36L300,37 M300,36L301,37 M301,36L302,37 M302,36L303,37 M303,36L304,37 M304,36L305,37 M305,36L306,37 M306,36L307,37 M307,36L308,37 M308,36L309,37 M309,36L310,37 M310,36L311,37 M311,36L312,37 M312,36L313,37 M313,36L314,37 M314,36L315,37 M315,36L316,37 M316,36L317,37 M507,36L508,37 M508,36L509,37 M509,36L510,37 M510,36L511,37 M511,36L512,37 M512,36L513,37 M513,36L514,37 M514,36L515,37 M515,36L516,37 M516,36L517,37 M517,36L518,37 M518,36L519,37 M519,36L520,37 M520,36L521,37 M521,36L522,37 M522,36L523,37 M523,36L524,37 M524,36L525,37 M525,36L526,37 M526,36L527,37 M527,36L528,37 M237,37L238,38 M238,37L239,38 M239,37L240,38 M240,37L241,38 M241,37L242,38 M242,37L243,38 M243,37L244,38 M244,37L245,38 M245,37L246,38 M246,37L247,38 M247,37L248,38 M248,37L249,38 M249,37L250,38 M250,37L251,38 M308,37L309,38 M309,37L310,38 M310,37L311,38 M311,37L312,38 M312,37L313,38 M313,37L314,38 M314,37L315,38 M315,37L316,38 M316,37L317,38 M317,37L318,38 M318,37L319,38 M319,37L320,38 M320,37L321,38 M321,37L322,38 M322,37L323,38 M323,37L324,38 M324,37L325,38 M497,37L498,38 M498,37L499,38 M499,37L500,38 M500,37L501,38 M501,37L502,38 M502,37L503,38 M503,37L504,38 M504,37L505,38 M505,37L506,38 M506,37L507,38 M507,37L508,38 M508,37L509,38 M509,37L510,38 M510,37L511,38 M511,37L512,38 M512,37L513,38 M513,37L514,38 M514,37L515,38 M515,37L516,38 M516,37L517,38 M230,38L231,39 M231,38L232,39 M232,38L233,39 M233,38L234,39 M234,38L235,39 M235,38L236,39 M236,38L237,39 M237,38L238,39 M238,38L239,39 M239,38L240,39 M240,38L241,39 M241,38L242,39 M242,38L243,39 M243,38L244,39 M316,38L317,39 M317,38L318,39 M318,38L319,39 M319,38L320,39 M320,38L321,39 M321,38L322,39 M322,38L323,39 M323,38L324,39 M324,38L325,39 M325,38L326,39 M326,38L327,39 M327,38L328,39 M328,38L329,39 M329,38L330,39 M330,38L331,39 M487,38L488,39 M488,38L489,39 M489,38L490,39 M490,38L491,39 M491,38L492,39 M492,38L493,39 M493,38L494,39 M494,38L495,39 M495,38L496,39 M496,38L497,39 M497,38L498,39 M498,38L499,39 M499,38L500,39 M500,38L501,39 M501,38L502,39 M502,38L503,39 M503,38L504,39 M504,38L505,39 M505,38L506,39 M506,38L507,39 M222,39L223,40 M223,39L224,40 M224,39L225,40 M225,39L226,40 M226,39L227,40 M227,39L228,40 M228,39L229,40 M229,39L230,40 M230,39L231,40 M231,39L232,40 M232,39L233,40 M233,39L234,40 M234,39L235,40 M235,39L236,40 M236,39L237,40 M325,39L326,40 M326,39L327,40 M327,39L328,40 M328,39L329,40 M329,39L330,40 M330,39L331,40 M331,39L332,40 M332,39L333,40 M333,39L334,40 M334,39L335,40 M335,39L336,40 M476,39L477,40 M477,39L478,40 M478,39L479,40 M479,39L480,40 M480,39L481,40 M481,39L482,40 M482,39L483,40 M483,39L484,40 M484,39L485,40 M485,39L486,40 M486,39L487,40 M487,39L488,40 M488,39L489,40 M489,39L490,40 M490,39L491,40 M491,39L492,40 M492,39L493,40 M493,39L494,40 M494,39L495,40 M495,39L496,40 M496,39L497,40 M218,40L219,41 M219,40L220,41 M220,40L221,41 M221,40L222,41 M222,40L223,41 M223,40L224,41 M224,40L225,41 M225,40L226,41 M226,40L227,41 M227,40L228,41 M228,40L229,41 M229,40L230,41 M331,40L332,41 M332,40L333,41 M333,40L334,41 M334,40L335,41 M335,40L336,41 M336,40L337,41 M337,40L338,41 M338,40L339,41 M339,40L340,41 M466,40L467,41 M467,40L468,41 M468,40L469,41 M469,40L470,41 M470,40L471,41 M471,40L472,41 M472,40L473,41 M473,40L474,41 M474,40L475,41 M475,40L476,41 M476,40L477,41 M477,40L478,41 M478,40L479,41 M479,40L480,41 M480,40L481,41 M481,40L482,41 M482,40L483,41 M483,40L484,41 M484,40L485,41 M485,40L486,41 M486,40L487,41 M214,41L215,42 M215,41L216,42 M216,41L217,42 M217,41L218,42 M218,41L219,42 M219,41L220,42 M220,41L221,42 M221,41L222,42 M335,41L336,42 M336,41L337,42 M337,41L338,42 M338,41L339,42 M339,41L340,42 M340,41L341,42 M341,41L342,42 M342,41L343,42 M343,41L344,42 M344,41L345,42 M456,41L457,42 M457,41L458,42 M458,41L459,42 M459,41L460,42 M460,41L461,42 M461,41L462,42 M462,41L463,42 M463,41L464,42 M464,41L465,42 M465,41L466,42 M466,41L467,42 M467,41L468,42 M468,41L469,42 M469,41L470,42 M470,41L471,42 M471,41L472,42 M472,41L473,42 M473,41L474,42 M474,41L475,42 M475,41L476,42 M210,42L211,43 M211,42L212,43 M212,42L213,43 M213,42L214,43 M214,42L215,43 M215,42L216,43 M216,42L217,43 M217,42L218,43 M340,42L341,43 M341,42L342,43 M342,42L343,43 M343,42L344,43 M344,42L345,43 M345,42L346,43 M346,42L347,43 M347,42L348,43 M348,42L349,43 M349,42L350,43 M450,42L451,43 M451,42L452,43 M452,42L453,43 M453,42L454,43 M454,42L455,43 M455,42L456,43 M456,42L457,43 M457,42L458,43 M458,42L459,43 M459,42L460,43 M460,42L461,43 M461,42L462,43 M462,42L463,43 M463,42L464,43 M464,42L465,43 M465,42L466,43 M206,43L207,44 M207,43L208,44 M208,43L209,44 M209,43L210,44 M210,43L211,44 M211,43L212,44 M212,43L213,44 M213,43L214,44 M345,43L346,44 M346,43L347,44 M347,43L348,44 M348,43L349,44 M349,43L350,44 M350,43L351,44 M351,43L352,44 M352,43L353,44 M353,43L354,44 M354,43L355,44 M444,43L445,44 M445,43L446,44 M446,43L447,44 M447,43L448,44 M448,43L449,44 M449,43L450,44 M450,43L451,44 M451,43L452,44 M452,43L453,44 M453,43L454,44 M454,43L455,44 M455,43L456,44 M202,44L203,45 M203,44L204,45 M204,44L205,45 M205,44L206,45 M206,44L207,45 M207,44L208,45 M208,44L209,45 M209,44L210,45 M350,44L351,45 M351,44L352,45 M352,44L353,45 M353,44L354,45 M354,44L355,45 M355,44L356,45 M356,44L357,45 M357,44L358,45 M358,44L359,45 M439,44L440,45 M440,44L441,45 M441,44L442,45 M442,44L443,45 M443,44L444,45 M444,44L445,45 M445,44L446,45 M446,44L447,45 M447,44L448,45 M448,44L449,45 M449,44L450,45 M198,45L199,46 M199,45L200,46 M200,45L201,46 M201,45L202,46 M202,45L203,46 M203,45L204,46 M204,45L205,46 M205,45L206,46 M355,45L356,46 M356,45L357,46 M357,45L358,46 M358,45L359,46 M359,45L360,46 M360,45L361,46 M361,45L362,46 M434,45L435,46 M435,45L436,46 M436,45L437,46 M437,45L438,46 M438,45L439,46 M439,45L440,46 M440,45L441,46 M441,45L442,46 M442,45L443,46 M443,45L444,46 M444,45L445,46 M194,46L195,47 M195,46L196,47 M196,46L197,47 M197,46L198,47 M198,46L199,47 M199,46L200,47 M200,46L201,47 M201,46L202,47 M358,46L359,47 M359,46L360,47 M360,46L361,47 M361,46L362,47 M362,46L363,47 M363,46L364,47 M364,46L365,47 M365,46L366,47 M429,46L430,47 M430,46L431,47 M431,46L432,47 M432,46L433,47 M433,46L434,47 M434,46L435,47 M435,46L436,47 M436,46L437,47 M437,46L438,47 M438,46L439,47 M190,47L191,48 M191,47L192,48 M192,47L193,48 M193,47L194,48 M194,47L195,48 M195,47L196,48 M196,47L197,48 M197,47L198,48 M362,47L363,48 M363,47L364,48 M364,47L365,48 M365,47L366,48 M366,47L367,48 M367,47L368,48 M368,47L369,48 M424,47L425,48 M425,47L426,48 M426,47L427,48 M427,47L428,48 M428,47L429,48 M429,47L430,48 M430,47L431,48 M431,47L432,48 M432,47L433,48 M433,47L434,48 M187,48L188,49 M188,48L189,49 M189,48L190,49 M190,48L191,49 M191,48L192,49 M192,48L193,49 M193,48L194,49 M194,48L195,49 M365,48L366,49 M366,48L367,49 M367,48L368,49 M368,48L369,49 M369,48L370,49 M370,48L371,49 M371,48L372,49 M372,48L373,49 M419,48L420,49 M420,48L421,49 M421,48L422,49 M422,48L423,49 M423,48L424,49 M424,48L425,49 M425,48L426,49 M426,48L427,49 M427,48L428,49 M428,48L429,49 M184,49L185,50 M185,49L186,50 M186,49L187,50 M187,49L188,50 M188,49L189,50 M189,49L190,50 M190,49L191,50 M369,49L370,50 M370,49L371,50 M371,49L372,50 M372,49L373,50 M373,49L374,50 M374,49L375,50 M375,49L376,50 M413,49L414,50 M414,49L415,50 M415,49L416,50 M416,49L417,50 M417,49L418,50 M418,49L419,50 M419,49L420,50 M420,49L421,50 M421,49L422,50 M422,49L423,50 M423,49L424,50 M182,50L183,51 M183,50L184,51 M184,50L185,51 M185,50L186,51 M186,50L187,51 M372,50L373,51 M373,50L374,51 M374,50L375,51 M375,50L376,51 M376,50L377,51 M377,50L378,51 M378,50L379,51 M379,50L380,51 M408,50L409,51 M409,50L410,51 M410,50L411,51 M411,50L412,51 M412,50L413,51 M413,50L414,51 M414,50L415,51 M415,50L416,51 M416,50L417,51 M417,50L418,51 M418,50L419,51 M180,51L181,52 M181,51L182,52 M182,51L183,52 M183,51L184,52 M184,51L185,52 M376,51L377,52 M377,51L378,52 M378,51L379,52 M379,51L380,52 M380,51L381,52 M381,51L382,52 M382,51L383,52 M403,51L404,52 M404,51L405,52 M405,51L406,52 M406,51L407,52 M407,51L408,52 M408,51L409,52 M409,51L410,52 M410,51L411,52 M411,51L412,52 M412,51L413,52 M413,51L414,52 M178,52L179,53 M179,52L180,53 M180,52L181,53 M181,52L182,53 M182,52L183,53 M379,52L380,53 M380,52L381,53 M381,52L382,53 M382,52L383,53 M383,52L384,53 M384,52L385,53 M385,52L386,53 M398,52L399,53 M399,52L400,53 M400,52L401,53 M401,52L402,53 M402,52L403,53 M403,52L404,53 M404,52L405,53 M405,52L406,53 M406,52L407,53 M407,52L408,53 M176,53L177,54 M177,53L178,54 M178,53L179,54 M179,53L180,54 M180,53L181,54 M383,53L384,54 M384,53L385,54 M385,53L386,54 M386,53L387,54 M387,53L388,54 M393,53L394,54 M394,53L395,54 M395,53L396,54 M396,53L397,54 M397,53L398,54 M398,53L399,54 M399,53L400,54 M400,53L401,54 M401,53L402,54 M402,53L403,54 M174,54L175,55 M175,54L176,55 M176,54L177,55 M177,54L178,55 M178,54L179,55 M385,54L386,55 M386,54L387,55 M387,54L388,55 M388,54L389,55 M389,54L390,55 M390,54L391,55 M391,54L392,55 M392,54L393,55 M393,54L394,55 M394,54L395,55 M395,54L396,55 M396,54L397,55 M397,54L398,55 M173,55L174,56 M174,55L175,56 M175,55L176,56 M176,55L177,56 M385,55L386,56 M386,55L387,56 M387,55L388,56 M388,55L389,56 M389,55L390,56 M390,55L391,56 M391,55L392,56 M392,55L393,56 M171,56L172,57 M172,56L173,57 M173,56L174,57 M174,56L175,57 M381,56L382,57 M382,56L383,57 M383,56L384,57 M384,56L385,57 M385,56L386,57 M386,56L387,57 M387,56L388,57 M388,56L389,57 M390,56L391,57 M391,56L392,57 M392,56L393,57 M393,56L394,57 M394,56L395,57 M169,57L170,58 M170,57L171,58 M171,57L172,58 M172,57L173,58 M377,57L378,58 M378,57L379,58 M379,57L380,58 M380,57L381,58 M381,57L382,58 M382,57L383,58 M383,57L384,58 M384,57L385,58 M392,57L393,58 M393,57L394,58 M394,57L395,58 M395,57L396,58 M396,57L397,58 M167,58L168,59 M168,58L169,59 M169,58L170,59 M170,58L171,59 M373,58L374,59 M374,58L375,59 M375,58L376,59 M376,58L377,59 M377,58L378,59 M378,58L379,59 M379,58L380,59 M380,58L381,59 M394,58L395,59 M395,58L396,59 M396,58L397,59 M397,58L398,59 M398,58L399,59 M165,59L166,60 M166,59L167,60 M167,59L168,60 M168,59L169,60 M369,59L370,60 M370,59L371,60 M371,59L372,60 M372,59L373,60 M373,59L374,60 M374,59L375,60 M375,59L376,60 M376,59L377,60 M396,59L397,60 M397,59L398,60 M398,59L399,60 M399,59L400,60 M400,59L401,60 M163,60L164,61 M164,60L165,61 M165,60L166,61 M166,60L167,61 M365,60L366,61 M366,60L367,61 M367,60L368,61 M368,60L369,61 M369,60L370,61 M370,60L371,61 M371,60L372,61 M372,60L373,61 M399,60L400,61 M400,60L401,61 M401,60L402,61 M402,60L403,61 M161,61L162,62 M162,61L163,62 M163,61L164,62 M164,61L165,62 M361,61L362,62 M362,61L363,62 M363,61L364,62 M364,61L365,62 M365,61L366,62 M366,61L367,62 M367,61L368,62 M368,61L369,62 M401,61L402,62 M402,61L403,62 M403,61L404,62 M404,61L405,62 M159,62L160,63 M160,62L161,63 M161,62L162,63 M162,62L163,63 M357,62L358,63 M358,62L359,63 M359,62L360,63 M360,62L361,63 M361,62L362,63 M362,62L363,63 M363,62L364,63 M364,62L365,63 M403,62L404,63 M404,62L405,63 M405,62L406,63 M406,62L407,63 M157,63L158,64 M158,63L159,64 M159,63L160,64 M160,63L161,64 M353,63L354,64 M354,63L355,64 M355,63L356,64 M356,63L357,64 M357,63L358,64 M358,63L359,64 M359,63L360,64 M360,63L361,64 M405,63L406,64 M406,63L407,64 M407,63L408,64 M155,64L156,65 M156,64L157,65 M157,64L158,65 M158,64L159,65 M349,64L350,65 M350,64L351,65 M351,64L352,65 M352,64L353,65 M353,64L354,65 M354,64L355,65 M355,64L356,65 M356,64L357,65 M406,64L407,65 M407,64L408,65 M408,64L409,65 M409,64L410,65 M153,65L154,66 M154,65L155,66 M155,65L156,66 M156,65L157,66 M345,65L346,66 M346,65L347,66 M347,65L348,66 M348,65L349,66 M349,65L350,66 M350,65L351,66 M351,65L352,66 M352,65L353,66 M408,65L409,66 M409,65L410,66 M410,65L411,66 M151,66L152,67 M152,66L153,67 M153,66L154,67 M154,66L155,67 M155,66L156,67 M341,66L342,67 M342,66L343,67 M343,66L344,67 M344,66L345,67 M345,66L346,67 M346,66L347,67 M347,66L348,67 M348,66L349,67 M409,66L410,67 M410,66L411,67 M411,66L412,67 M150,67L151,68 M151,67L152,68 M152,67L153,68 M153,67L154,68 M337,67L338,68 M338,67L339,68 M339,67L340,68 M340,67L341,68 M341,67L342,68 M342,67L343,68 M343,67L344,68 M344,67L345,68 M410,67L411,68 M411,67L412,68 M412,67L413,68 M413,67L414,68 M148,68L149,69 M149,68L150,69 M150,68L151,69 M151,68L152,69 M333,68L334,69 M334,68L335,69 M335,68L336,69 M336,68L337,69 M337,68L338,69 M338,68L339,69 M339,68L340,69 M340,68L341,69 M412,68L413,69 M413,68L414,69 M414,68L415,69 M146,69L147,70 M147,69L148,70 M148,69L149,70 M149,69L150,70 M329,69L330,70 M330,69L331,70 M331,69L332,70 M332,69L333,70 M333,69L334,70 M334,69L335,70 M335,69L336,70 M336,69L337,70 M413,69L414,70 M414,69L415,70 M415,69L416,70 M416,69L417,70 M144,70L145,71 M145,70L146,71 M146,70L147,71 M147,70L148,71 M325,70L326,71 M326,70L327,71 M327,70L328,71 M328,70L329,71 M329,70L330,71 M330,70L331,71 M331,70L332,71 M332,70L333,71 M415,70L416,71 M416,70L417,71 M417,70L418,71 M143,71L144,72 M144,71L145,72 M145,71L146,72 M146,71L147,72 M322,71L323,72 M323,71L324,72 M324,71L325,72 M325,71L326,72 M326,71L327,72 M327,71L328,72 M328,71L329,72 M329,71L330,72 M416,71L417,72 M417,71L418,72 M418,71L419,72 M419,71L420,72 M141,72L142,73 M142,72L143,73 M143,72L144,73 M144,72L145,73 M318,72L319,73 M319,72L320,73 M320,72L321,73 M321,72L322,73 M322,72L323,73 M323,72L324,73 M324,72L325,73 M325,72L326,73 M418,72L419,73 M419,72L420,73 M420,72L421,73 M139,73L140,74 M140,73L141,74 M141,73L142,74 M142,73L143,74 M314,73L315,74 M315,73L316,74 M316,73L317,74 M317,73L318,74 M318,73L319,74 M319,73L320,74 M320,73L321,74 M321,73L322,74 M419,73L420,74 M420,73L421,74 M421,73L422,74 M422,73L423,74 M137,74L138,75 M138,74L139,75 M139,74L140,75 M140,74L141,75 M310,74L311,75 M311,74L312,75 M312,74L313,75 M313,74L314,75 M314,74L315,75 M315,74L316,75 M316,74L317,75 M317,74L318,75 M421,74L422,75 M422,74L423,75 M423,74L424,75 M136,75L137,76 M137,75L138,76 M138,75L139,76 M139,75L140,76 M306,75L307,76 M307,75L308,76 M308,75L309,76 M309,75L310,76 M310,75L311,76 M311,75L312,76 M312,75L313,76 M313,75L314,76 M422,75L423,76 M423,75L424,76 M424,75L425,76 M134,76L135,77 M135,76L136,77 M136,76L137,77 M137,76L138,77 M303,76L304,77 M304,76L305,77 M305,76L306,77 M306,76L307,77 M307,76L308,77 M308,76L309,77 M309,76L310,77 M310,76L311,77 M423,76L424,77 M424,76L425,77 M425,76L426,77 M426,76L427,77 M132,77L133,78 M133,77L134,78 M134,77L135,78 M135,77L136,78 M299,77L300,78 M300,77L301,78 M301,77L302,78 M302,77L303,78 M303,77L304,78 M304,77L305,78 M305,77L306,78 M306,77L307,78 M425,77L426,78 M426,77L427,78 M427,77L428,78 M130,78L131,79 M131,78L132,79 M132,78L133,79 M133,78L134,79 M295,78L296,79 M296,78L297,79 M297,78L298,79 M298,78L299,79 M299,78L300,79 M300,78L301,79 M301,78L302,79 M302,78L303,79 M426,78L427,79 M427,78L428,79 M428,78L429,79 M129,79L130,80 M130,79L131,80 M131,79L132,80 M132,79L133,80 M292,79L293,80 M293,79L294,80 M294,79L295,80 M295,79L296,80 M296,79L297,80 M297,79L298,80 M298,79L299,80 M427,79L428,80 M428,79L429,80 M429,79L430,80 M430,79L431,80 M127,80L128,81 M128,80L129,81 M129,80L130,81 M130,80L131,81 M288,80L289,81 M289,80L290,81 M290,80L291,81 M291,80L292,81 M292,80L293,81 M293,80L294,81 M294,80L295,81 M295,80L296,81 M429,80L430,81 M430,80L431,81 M431,80L432,81 M125,81L126,82 M126,81L127,82 M127,81L128,82 M128,81L129,82 M284,81L285,82 M285,81L286,82 M286,81L287,82 M287,81L288,82 M288,81L289,82 M289,81L290,82 M290,81L291,82 M291,81L292,82 M430,81L431,82 M431,81L432,82 M432,81L433,82 M124,82L125,83 M125,82L126,83 M126,82L127,83 M282,82L283,83 M283,82L284,83 M284,82L285,83 M285,82L286,83 M286,82L287,83 M287,82L288,83 M431,82L432,83 M432,82L433,83 M433,82L434,83 M123,83L124,84 M124,83L125,84 M125,83L126,84 M280,83L281,84 M281,83L282,84 M282,83L283,84 M283,83L284,84 M284,83L285,84 M432,83L433,84 M433,83L434,84 M434,83L435,84 M122,84L123,85 M123,84L124,85 M124,84L125,85 M278,84L279,85 M279,84L280,85 M280,84L281,85 M281,84L282,85 M332,84L333,85 M333,84L334,85 M334,84L335,85 M335,84L336,85 M336,84L337,85 M337,84L338,85 M338,84L339,85 M339,84L340,85 M340,84L341,85 M341,84L342,85 M342,84L343,85 M343,84L344,85 M344,84L345,85 M433,84L434,85 M434,84L435,85 M435,84L436,85 M121,85L122,86 M122,85L123,86 M276,85L277,86 M277,85L278,86 M278,85L279,86 M279,85L280,86 M329,85L330,86 M330,85L331,86 M331,85L332,86 M332,85L333,86 M333,85L334,86 M334,85L335,86 M335,85L336,86 M336,85L337,86 M337,85L338,86 M338,85L339,86 M339,85L340,86 M340,85L341,86 M341,85L342,86 M342,85L343,86 M343,85L344,86 M344,85L345,86 M345,85L346,86 M346,85L347,86 M434,85L435,86 M435,85L436,86 M436,85L437,86 M120,86L121,87 M121,86L122,87 M274,86L275,87 M275,86L276,87 M276,86L277,87 M277,86L278,87 M327,86L328,87 M328,86L329,87 M329,86L330,87 M330,86L331,87 M331,86L332,87 M332,86L333,87 M344,86L345,87 M345,86L346,87 M346,86L347,87 M347,86L348,87 M348,86L349,87 M435,86L436,87 M436,86L437,87 M437,86L438,87 M119,87L120,88 M120,87L121,88 M272,87L273,88 M273,87L274,88 M274,87L275,88 M275,87L276,88 M326,87L327,88 M327,87L328,88 M328,87L329,88 M329,87L330,88 M347,87L348,88 M348,87L349,88 M349,87L350,88 M436,87L437,88 M437,87L438,88 M438,87L439,88 M118,88L119,89 M119,88L120,89 M271,88L272,89 M272,88L273,89 M273,88L274,89 M324,88L325,89 M325,88L326,89 M326,88L327,89 M327,88L328,89 M348,88L349,89 M349,88L350,89 M350,88L351,89 M351,88L352,89 M352,88L353,89 M437,88L438,89 M438,88L439,89 M439,88L440,89 M117,89L118,90 M118,89L119,90 M269,89L270,90 M270,89L271,90 M271,89L272,90 M272,89L273,90 M323,89L324,90 M324,89L325,90 M325,89L326,90 M349,89L350,90 M350,89L351,90 M351,89L352,90 M352,89L353,90 M438,89L439,90 M439,89L440,90 M440,89L441,90 M116,90L117,91 M117,90L118,91 M268,90L269,91 M269,90L270,91 M270,90L271,91 M322,90L323,91 M323,90L324,91 M324,90L325,91 M352,90L353,91 M353,90L354,91 M439,90L440,91 M440,90L441,91 M441,90L442,91 M114,91L115,92 M115,91L116,92 M116,91L117,92 M267,91L268,92 M268,91L269,92 M321,91L322,92 M322,91L323,92 M352,91L353,92 M353,91L354,92 M354,91L355,92 M440,91L441,92 M441,91L442,92 M113,92L114,93 M114,92L115,93 M115,92L116,93 M215,92L216,93 M216,92L217,93 M217,92L218,93 M218,92L219,93 M219,92L220,93 M220,92L221,93 M221,92L222,93 M222,92L223,93 M223,92L224,93 M266,92L267,93 M267,92L268,93 M320,92L321,93 M321,92L322,93 M353,92L354,93 M354,92L355,93 M441,92L442,93 M442,92L443,93 M112,93L113,94 M113,93L114,94 M114,93L115,94 M215,93L216,94 M216,93L217,94 M217,93L218,94 M218,93L219,94 M219,93L220,94 M220,93L221,94 M221,93L222,94 M222,93L223,94 M223,93L224,94 M319,93L320,94 M320,93L321,94 M354,93L355,94 M355,93L356,94 M441,93L442,94 M442,93L443,94 M443,93L444,94 M111,94L112,95 M112,94L113,95 M113,94L114,95 M214,94L215,95 M215,94L216,95 M318,94L319,95 M319,94L320,95 M354,94L355,95 M355,94L356,95 M356,94L357,95 M442,94L443,95 M443,94L444,95 M110,95L111,96 M111,95L112,96 M112,95L113,96 M213,95L214,96 M214,95L215,96 M215,95L216,96 M317,95L318,96 M318,95L319,96 M355,95L356,96 M356,95L357,96 M443,95L444,96 M444,95L445,96 M109,96L110,97 M110,96L111,97 M111,96L112,97 M212,96L213,97 M213,96L214,97 M214,96L215,97 M215,96L216,97 M316,96L317,97 M317,96L318,97 M355,96L356,97 M356,96L357,97 M357,96L358,97 M443,96L444,97 M444,96L445,97 M445,96L446,97 M108,97L109,98 M109,97L110,98 M110,97L111,98 M212,97L213,98 M213,97L214,98 M315,97L316,98 M316,97L317,98 M317,97L318,98 M356,97L357,98 M357,97L358,98 M444,97L445,98 M445,97L446,98 M107,98L108,99 M108,98L109,99 M109,98L110,99 M211,98L212,99 M212,98L213,99 M314,98L315,99 M315,98L316,99 M316,98L317,99 M356,98L357,99 M357,98L358,99 M445,98L446,99 M446,98L447,99 M106,99L107,100 M107,99L108,100 M108,99L109,100 M211,99L212,100 M212,99L213,100 M314,99L315,100 M315,99L316,100 M357,99L358,100 M358,99L359,100 M445,99L446,100 M446,99L447,100 M447,99L448,100 M105,100L106,101 M106,100L107,101 M107,100L108,101 M211,100L212,101 M212,100L213,101 M313,100L314,101 M314,100L315,101 M357,100L358,101 M358,100L359,101 M446,100L447,101 M447,100L448,101 M104,101L105,102 M105,101L106,102 M106,101L107,102 M212,101L213,102 M213,101L214,102 M312,101L313,102 M313,101L314,102 M314,101L315,102 M357,101L358,102 M358,101L359,102 M446,101L447,102 M447,101L448,102 M448,101L449,102 M103,102L104,103 M104,102L105,103 M105,102L106,103 M212,102L213,103 M213,102L214,103 M312,102L313,103 M313,102L314,103 M357,102L358,103 M358,102L359,103 M359,102L360,103 M447,102L448,103 M448,102L449,103 M102,103L103,104 M103,103L104,104 M104,103L105,104 M212,103L213,104 M213,103L214,104 M312,103L313,104 M313,103L314,104 M358,103L359,104 M359,103L360,104 M447,103L448,104 M448,103L449,104 M449,103L450,104 M101,104L102,105 M102,104L103,105 M103,104L104,105 M213,104L214,105 M214,104L215,105 M311,104L312,105 M312,104L313,105 M358,104L359,105 M359,104L360,105 M448,104L449,105 M449,104L450,105 M100,105L101,106 M101,105L102,106 M102,105L103,106 M213,105L214,106 M214,105L215,106 M215,105L216,106 M311,105L312,106 M312,105L313,106 M358,105L359,106 M359,105L360,106 M448,105L449,106 M449,105L450,106 M450,105L451,106 M99,106L100,107 M100,106L101,107 M101,106L102,107 M214,106L215,107 M215,106L216,107 M216,106L217,107 M311,106L312,107 M312,106L313,107 M359,106L360,107 M360,106L361,107 M449,106L450,107 M450,106L451,107 M98,107L99,108 M99,107L100,108 M100,107L101,108 M215,107L216,108 M216,107L217,108 M310,107L311,108 M311,107L312,108 M358,107L359,108 M359,107L360,108 M360,107L361,108 M449,107L450,108 M450,107L451,108 M97,108L98,109 M98,108L99,109 M99,108L100,109 M216,108L217,109 M217,108L218,109 M310,108L311,109 M311,108L312,109 M358,108L359,109 M359,108L360,109 M450,108L451,109 M451,108L452,109 M96,109L97,110 M97,109L98,110 M98,109L99,110 M216,109L217,110 M217,109L218,110 M218,109L219,110 M310,109L311,110 M311,109L312,110 M357,109L358,110 M358,109L359,110 M359,109L360,110 M450,109L451,110 M451,109L452,110 M95,110L96,111 M96,110L97,111 M97,110L98,111 M217,110L218,111 M218,110L219,111 M219,110L220,111 M310,110L311,111 M311,110L312,111 M357,110L358,111 M358,110L359,111 M451,110L452,111 M452,110L453,111 M94,111L95,112 M95,111L96,112 M96,111L97,112 M218,111L219,112 M219,111L220,112 M220,111L221,112 M310,111L311,112 M311,111L312,112 M356,111L357,112 M357,111L358,112 M358,111L359,112 M451,111L452,112 M452,111L453,112 M93,112L94,113 M94,112L95,113 M95,112L96,113 M220,112L221,113 M221,112L222,113 M222,112L223,113 M310,112L311,113 M311,112L312,113 M356,112L357,113 M357,112L358,113 M451,112L452,113 M452,112L453,113 M92,113L93,114 M93,113L94,114 M94,113L95,114 M221,113L222,114 M222,113L223,114 M223,113L224,114 M310,113L311,114 M311,113L312,114 M356,113L357,114 M357,113L358,114 M451,113L452,114 M452,113L453,114 M91,114L92,115 M92,114L93,115 M93,114L94,115 M222,114L223,115 M223,114L224,115 M224,114L225,115 M310,114L311,115 M311,114L312,115 M355,114L356,115 M356,114L357,115 M451,114L452,115 M452,114L453,115 M90,115L91,116 M91,115L92,116 M92,115L93,116 M223,115L224,116 M224,115L225,116 M225,115L226,116 M226,115L227,116 M310,115L311,116 M311,115L312,116 M355,115L356,116 M356,115L357,116 M451,115L452,116 M452,115L453,116 M89,116L90,117 M90,116L91,117 M91,116L92,117 M224,116L225,117 M225,116L226,117 M226,116L227,117 M227,116L228,117 M228,116L229,117 M311,116L312,117 M312,116L313,117 M355,116L356,117 M356,116L357,117 M451,116L452,117 M452,116L453,117 M88,117L89,118 M89,117L90,118 M90,117L91,118 M226,117L227,118 M227,117L228,118 M228,117L229,118 M229,117L230,118 M230,117L231,118 M311,117L312,118 M312,117L313,118 M354,117L355,118 M355,117L356,118 M451,117L452,118 M452,117L453,118 M87,118L88,119 M88,118L89,119 M89,118L90,119 M229,118L230,119 M230,118L231,119 M231,118L232,119 M232,118L233,119 M311,118L312,119 M312,118L313,119 M313,118L314,119 M314,118L315,119 M354,118L355,119 M355,118L356,119 M451,118L452,119 M452,118L453,119 M86,119L87,120 M87,119L88,120 M88,119L89,120 M231,119L232,120 M232,119L233,120 M233,119L234,120 M234,119L235,120 M235,119L236,120 M313,119L314,120 M314,119L315,120 M315,119L316,120 M354,119L355,120 M355,119L356,120 M450,119L451,120 M451,119L452,120 M85,120L86,121 M86,120L87,121 M87,120L88,121 M233,120L234,121 M234,120L235,121 M235,120L236,121 M236,120L237,121 M237,120L238,121 M314,120L315,121 M315,120L316,121 M316,120L317,121 M353,120L354,121 M354,120L355,121 M450,120L451,121 M451,120L452,121 M84,121L85,122 M85,121L86,122 M86,121L87,122 M235,121L236,122 M236,121L237,122 M237,121L238,122 M238,121L239,122 M239,121L240,122 M315,121L316,122 M316,121L317,122 M317,121L318,122 M318,121L319,122 M352,121L353,122 M353,121L354,122 M449,121L450,122 M450,121L451,122 M451,121L452,122 M83,122L84,123 M84,122L85,123 M85,122L86,123 M237,122L238,123 M238,122L239,123 M239,122L240,123 M240,122L241,123 M241,122L242,123 M242,122L243,123 M317,122L318,123 M318,122L319,123 M319,122L320,123 M320,122L321,123 M351,122L352,123 M352,122L353,123 M449,122L450,123 M450,122L451,123 M82,123L83,124 M83,123L84,124 M84,123L85,124 M240,123L241,124 M241,123L242,124 M242,123L243,124 M243,123L244,124 M244,123L245,124 M318,123L319,124 M319,123L320,124 M320,123L321,124 M321,123L322,124 M350,123L351,124 M351,123L352,124 M449,123L450,124 M450,123L451,124 M82,124L83,125 M83,124L84,125 M242,124L243,125 M243,124L244,125 M244,124L245,125 M245,124L246,125 M246,124L247,125 M320,124L321,125 M321,124L322,125 M322,124L323,125 M323,124L324,125 M349,124L350,125 M350,124L351,125 M448,124L449,125 M449,124L450,125 M81,125L82,126 M82,125L83,126 M244,125L245,126 M245,125L246,126 M246,125L247,126 M247,125L248,126 M248,125L249,126 M249,125L250,126 M322,125L323,126 M323,125L324,126 M324,125L325,126 M325,125L326,126 M326,125L327,126 M348,125L349,126 M349,125L350,126 M448,125L449,126 M449,125L450,126 M80,126L81,127 M81,126L82,127 M82,126L83,127 M247,126L248,127 M248,126L249,127 M249,126L250,127 M250,126L251,127 M251,126L252,127 M323,126L324,127 M324,126L325,127 M325,126L326,127 M326,126L327,127 M327,126L328,127 M328,126L329,127 M329,126L330,127 M330,126L331,127 M347,126L348,127 M348,126L349,127 M447,126L448,127 M448,126L449,127 M79,127L80,128 M80,127L81,128 M81,127L82,128 M249,127L250,128 M250,127L251,128 M251,127L252,128 M252,127L253,128 M253,127L254,128 M254,127L255,128 M255,127L256,128 M327,127L328,128 M328,127L329,128 M329,127L330,128 M330,127L331,128 M331,127L332,128 M332,127L333,128 M333,127L334,128 M334,127L335,128 M345,127L346,128 M346,127L347,128 M347,127L348,128 M446,127L447,128 M447,127L448,128 M448,127L449,128 M79,128L80,129 M80,128L81,129 M252,128L253,129 M253,128L254,129 M254,128L255,129 M255,128L256,129 M256,128L257,129 M257,128L258,129 M258,128L259,129 M331,128L332,129 M332,128L333,129 M333,128L334,129 M334,128L335,129 M335,128L336,129 M336,128L337,129 M337,128L338,129 M338,128L339,129 M344,128L345,129 M345,128L346,129 M346,128L347,129 M445,128L446,129 M446,128L447,129 M447,128L448,129 M78,129L79,130 M79,129L80,130 M80,129L81,130 M255,129L256,130 M256,129L257,130 M257,129L258,130 M258,129L259,130 M259,129L260,130 M260,129L261,130 M261,129L262,130 M335,129L336,130 M336,129L337,130 M337,129L338,130 M338,129L339,130 M339,129L340,130 M340,129L341,130 M341,129L342,130 M342,129L343,130 M343,129L344,130 M344,129L345,130 M345,129L346,130 M444,129L445,130 M445,129L446,130 M446,129L447,130 M77,130L78,131 M78,130L79,131 M79,130L80,131 M258,130L259,131 M259,130L260,131 M260,130L261,131 M261,130L262,131 M262,130L263,131 M263,130L264,131 M264,130L265,131 M339,130L340,131 M340,130L341,131 M341,130L342,131 M342,130L343,131 M343,130L344,131 M344,130L345,131 M345,130L346,131 M346,130L347,131 M443,130L444,131 M444,130L445,131 M445,130L446,131 M77,131L78,132 M78,131L79,132 M262,131L263,132 M263,131L264,132 M264,131L265,132 M265,131L266,132 M266,131L267,132 M267,131L268,132 M341,131L342,132 M342,131L343,132 M343,131L344,132 M344,131L345,132 M345,131L346,132 M346,131L347,132 M347,131L348,132 M348,131L349,132 M349,131L350,132 M350,131L351,132 M442,131L443,132 M443,131L444,132 M444,131L445,132 M76,132L77,133 M77,132L78,133 M265,132L266,133 M266,132L267,133 M267,132L268,133 M268,132L269,133 M269,132L270,133 M270,132L271,133 M340,132L341,133 M341,132L342,133 M342,132L343,133 M347,132L348,133 M348,132L349,133 M349,132L350,133 M350,132L351,133 M351,132L352,133 M352,132L353,133 M353,132L354,133 M354,132L355,133 M355,132L356,133 M356,132L357,133 M441,132L442,133 M442,132L443,133 M443,132L444,133 M75,133L76,134 M76,133L77,134 M77,133L78,134 M268,133L269,134 M269,133L270,134 M270,133L271,134 M271,133L272,134 M272,133L273,134 M273,133L274,134 M274,133L275,134 M275,133L276,134 M339,133L340,134 M340,133L341,134 M341,133L342,134 M351,133L352,134 M352,133L353,134 M353,133L354,134 M354,133L355,134 M355,133L356,134 M356,133L357,134 M357,133L358,134 M358,133L359,134 M359,133L360,134 M360,133L361,134 M361,133L362,134 M362,133L363,134 M363,133L364,134 M439,133L440,134 M440,133L441,134 M441,133L442,134 M442,133L443,134 M75,134L76,135 M76,134L77,135 M271,134L272,135 M272,134L273,135 M273,134L274,135 M274,134L275,135 M275,134L276,135 M276,134L277,135 M277,134L278,135 M278,134L279,135 M279,134L280,135 M280,134L281,135 M281,134L282,135 M338,134L339,135 M339,134L340,135 M340,134L341,135 M357,134L358,135 M358,134L359,135 M359,134L360,135 M360,134L361,135 M361,134L362,135 M362,134L363,135 M363,134L364,135 M364,134L365,135 M365,134L366,135 M366,134L367,135 M367,134L368,135 M368,134L369,135 M369,134L370,135 M437,134L438,135 M438,134L439,135 M439,134L440,135 M440,134L441,135 M74,135L75,136 M75,135L76,136 M276,135L277,136 M277,135L278,136 M278,135L279,136 M279,135L280,136 M280,135L281,136 M281,135L282,136 M282,135L283,136 M283,135L284,136 M284,135L285,136 M285,135L286,136 M286,135L287,136 M287,135L288,136 M336,135L337,136 M337,135L338,136 M338,135L339,136 M339,135L340,136 M364,135L365,136 M365,135L366,136 M366,135L367,136 M367,135L368,136 M368,135L369,136 M369,135L370,136 M370,135L371,136 M371,135L372,136 M372,135L373,136 M373,135L374,136 M374,135L375,136 M375,135L376,136 M376,135L377,136 M435,135L436,136 M436,135L437,136 M437,135L438,136 M438,135L439,136 M73,136L74,137 M74,136L75,137 M75,136L76,137 M282,136L283,137 M283,136L284,137 M284,136L285,137 M285,136L286,137 M286,136L287,137 M287,136L288,137 M288,136L289,137 M289,136L290,137 M290,136L291,137 M291,136L292,137 M292,136L293,137 M335,136L336,137 M336,136L337,137 M337,136L338,137 M370,136L371,137 M371,136L372,137 M372,136L373,137 M373,136L374,137 M374,136L375,137 M375,136L376,137 M376,136L377,137 M377,136L378,137 M378,136L379,137 M379,136L380,137 M380,136L381,137 M381,136L382,137 M382,136L383,137 M383,136L384,137 M433,136L434,137 M434,136L435,137 M435,136L436,137 M436,136L437,137 M73,137L74,138 M74,137L75,138 M287,137L288,138 M288,137L289,138 M289,137L290,138 M290,137L291,138 M291,137L292,138 M292,137L293,138 M293,137L294,138 M294,137L295,138 M295,137L296,138 M296,137L297,138 M297,137L298,138 M298,137L299,138 M333,137L334,138 M334,137L335,138 M335,137L336,138 M336,137L337,138 M377,137L378,138 M378,137L379,138 M379,137L380,138 M380,137L381,138 M381,137L382,138 M382,137L383,138 M383,137L384,138 M384,137L385,138 M385,137L386,138 M386,137L387,138 M387,137L388,138 M388,137L389,138 M389,137L390,138 M390,137L391,138 M430,137L431,138 M431,137L432,138 M432,137L433,138 M433,137L434,138 M434,137L435,138 M72,138L73,139 M73,138L74,139 M293,138L294,139 M294,138L295,139 M295,138L296,139 M296,138L297,139 M297,138L298,139 M298,138L299,139 M299,138L300,139 M300,138L301,139 M301,138L302,139 M302,138L303,139 M303,138L304,139 M332,138L333,139 M333,138L334,139 M334,138L335,139 M384,138L385,139 M385,138L386,139 M386,138L387,139 M387,138L388,139 M388,138L389,139 M389,138L390,139 M390,138L391,139 M391,138L392,139 M392,138L393,139 M393,138L394,139 M394,138L395,139 M395,138L396,139 M396,138L397,139 M427,138L428,139 M428,138L429,139 M429,138L430,139 M430,138L431,139 M431,138L432,139 M432,138L433,139 M71,139L72,140 M72,139L73,140 M73,139L74,140 M299,139L300,140 M300,139L301,140 M301,139L302,140 M302,139L303,140 M303,139L304,140 M304,139L305,140 M305,139L306,140 M306,139L307,140 M307,139L308,140 M308,139L309,140 M309,139L310,140 M330,139L331,140 M331,139L332,140 M332,139L333,140 M333,139L334,140 M391,139L392,140 M392,139L393,140 M393,139L394,140 M394,139L395,140 M395,139L396,140 M396,139L397,140 M397,139L398,140 M398,139L399,140 M399,139L400,140 M400,139L401,140 M401,139L402,140 M402,139L403,140 M423,139L424,140 M424,139L425,140 M425,139L426,140 M426,139L427,140 M427,139L428,140 M428,139L429,140 M429,139L430,140 M71,140L72,141 M72,140L73,141 M304,140L305,141 M305,140L306,141 M306,140L307,141 M307,140L308,141 M308,140L309,141 M309,140L310,141 M310,140L311,141 M311,140L312,141 M312,140L313,141 M313,140L314,141 M314,140L315,141 M329,140L330,141 M330,140L331,141 M331,140L332,141 M397,140L398,141 M398,140L399,141 M399,140L400,141 M400,140L401,141 M401,140L402,141 M402,140L403,141 M403,140L404,141 M404,140L405,141 M405,140L406,141 M406,140L407,141 M407,140L408,141 M408,140L409,141 M420,140L421,141 M421,140L422,141 M422,140L423,141 M423,140L424,141 M424,140L425,141 M425,140L426,141 M426,140L427,141 M70,141L71,142 M71,141L72,142 M310,141L311,142 M311,141L312,142 M312,141L313,142 M313,141L314,142 M314,141L315,142 M315,141L316,142 M316,141L317,142 M317,141L318,142 M318,141L319,142 M319,141L320,142 M320,141L321,142 M327,141L328,142 M328,141L329,142 M329,141L330,142 M330,141L331,142 M403,141L404,142 M404,141L405,142 M405,141L406,142 M406,141L407,142 M407,141L408,142 M408,141L409,142 M409,141L410,142 M410,141L411,142 M411,141L412,142 M412,141L413,142 M413,141L414,142 M414,141L415,142 M416,141L417,142 M417,141L418,142 M418,141L419,142 M419,141L420,142 M420,141L421,142 M421,141L422,142 M422,141L423,142 M69,142L70,143 M70,142L71,143 M71,142L72,143 M315,142L316,143 M316,142L317,143 M317,142L318,143 M318,142L319,143 M319,142L320,143 M320,142L321,143 M321,142L322,143 M322,142L323,143 M323,142L324,143 M324,142L325,143 M325,142L326,143 M326,142L327,143 M327,142L328,143 M328,142L329,143 M406,142L407,143 M407,142L408,143 M408,142L409,143 M409,142L410,143 M410,142L411,143 M411,142L412,143 M412,142L413,143 M413,142L414,143 M414,142L415,143 M415,142L416,143 M416,142L417,143 M417,142L418,143 M418,142L419,143 M419,142L420,143 M420,142L421,143 M69,143L70,144 M70,143L71,144 M321,143L322,144 M322,143L323,144 M323,143L324,144 M324,143L325,144 M325,143L326,144 M326,143L327,144 M327,143L328,144 M328,143L329,144 M329,143L330,144 M330,143L331,144 M331,143L332,144 M332,143L333,144 M333,143L334,144 M334,143L335,144 M335,143L336,144 M336,143L337,144 M337,143L338,144 M338,143L339,144 M339,143L340,144 M340,143L341,144 M341,143L342,144 M342,143L343,144 M343,143L344,144 M344,143L345,144 M345,143L346,144 M346,143L347,144 M347,143L348,144 M348,143L349,144 M349,143L350,144 M350,143L351,144 M351,143L352,144 M352,143L353,144 M394,143L395,144 M395,143L396,144 M396,143L397,144 M397,143L398,144 M398,143L399,144 M399,143L400,144 M400,143L401,144 M401,143L402,144 M402,143L403,144 M403,143L404,144 M404,143L405,144 M405,143L406,144 M406,143L407,144 M407,143L408,144 M408,143L409,144 M409,143L410,144 M410,143L411,144 M411,143L412,144 M412,143L413,144 M413,143L414,144 M414,143L415,144 M415,143L416,144 M416,143L417,144 M417,143L418,144 M418,143L419,144 M419,143L420,144 M420,143L421,144 M421,143L422,144 M422,143L423,144 M423,143L424,144 M424,143L425,144 M425,143L426,144 M426,143L427,144 M68,144L69,145 M69,144L70,145 M323,144L324,145 M324,144L325,145 M325,144L326,145 M327,144L328,145 M328,144L329,145 M329,144L330,145 M330,144L331,145 M331,144L332,145 M332,144L333,145 M333,144L334,145 M334,144L335,145 M335,144L336,145 M336,144L337,145 M337,144L338,145 M338,144L339,145 M339,144L340,145 M340,144L341,145 M341,144L342,145 M342,144L343,145 M343,144L344,145 M344,144L345,145 M345,144L346,145 M346,144L347,145 M347,144L348,145 M348,144L349,145 M349,144L350,145 M350,144L351,145 M351,144L352,145 M352,144L353,145 M353,144L354,145 M354,144L355,145 M355,144L356,145 M356,144L357,145 M357,144L358,145 M358,144L359,145 M359,144L360,145 M360,144L361,145 M361,144L362,145 M362,144L363,145 M363,144L364,145 M364,144L365,145 M365,144L366,145 M366,144L367,145 M367,144L368,145 M368,144L369,145 M369,144L370,145 M370,144L371,145 M371,144L372,145 M372,144L373,145 M373,144L374,145 M374,144L375,145 M375,144L376,145 M376,144L377,145 M377,144L378,145 M378,144L379,145 M379,144L380,145 M380,144L381,145 M381,144L382,145 M382,144L383,145 M383,144L384,145 M384,144L385,145 M385,144L386,145 M386,144L387,145 M387,144L388,145 M388,144L389,145 M389,144L390,145 M390,144L391,145 M391,144L392,145 M392,144L393,145 M393,144L394,145 M394,144L395,145 M395,144L396,145 M396,144L397,145 M397,144L398,145 M398,144L399,145 M399,144L400,145 M400,144L401,145 M401,144L402,145 M402,144L403,145 M403,144L404,145 M404,144L405,145 M405,144L406,145 M421,144L422,145 M422,144L423,145 M423,144L424,145 M424,144L425,145 M425,144L426,145 M426,144L427,145 M427,144L428,145 M428,144L429,145 M429,144L430,145 M430,144L431,145 M431,144L432,145 M432,144L433,145 M68,145L69,146 M69,145L70,146 M321,145L322,146 M322,145L323,146 M323,145L324,146 M324,145L325,146 M353,145L354,146 M354,145L355,146 M355,145L356,146 M356,145L357,146 M357,145L358,146 M358,145L359,146 M359,145L360,146 M360,145L361,146 M361,145L362,146 M362,145L363,146 M363,145L364,146 M364,145L365,146 M365,145L366,146 M366,145L367,146 M367,145L368,146 M368,145L369,146 M369,145L370,146 M370,145L371,146 M371,145L372,146 M372,145L373,146 M373,145L374,146 M374,145L375,146 M375,145L376,146 M376,145L377,146 M377,145L378,146 M378,145L379,146 M379,145L380,146 M380,145L381,146 M381,145L382,146 M382,145L383,146 M383,145L384,146 M384,145L385,146 M385,145L386,146 M386,145L387,146 M387,145L388,146 M388,145L389,146 M389,145L390,146 M390,145L391,146 M391,145L392,146 M392,145L393,146 M393,145L394,146 M426,145L427,146 M427,145L428,146 M428,145L429,146 M429,145L430,146 M430,145L431,146 M431,145L432,146 M432,145L433,146 M433,145L434,146 M434,145L435,146 M435,145L436,146 M436,145L437,146 M437,145L438,146 M438,145L439,146 M67,146L68,147 M68,146L69,147 M320,146L321,147 M321,146L322,147 M322,146L323,147 M433,146L434,147 M434,146L435,147 M435,146L436,147 M436,146L437,147 M437,146L438,147 M438,146L439,147 M439,146L440,147 M440,146L441,147 M441,146L442,147 M442,146L443,147 M443,146L444,147 M444,146L445,147 M445,146L446,147 M67,147L68,148 M68,147L69,148 M318,147L319,148 M319,147L320,148 M320,147L321,148 M321,147L322,148 M439,147L440,148 M440,147L441,148 M441,147L442,148 M442,147L443,148 M443,147L444,148 M444,147L445,148 M445,147L446,148 M446,147L447,148 M447,147L448,148 M448,147L449,148 M449,147L450,148 M450,147L451,148 M451,147L452,148 M66,148L67,149 M67,148L68,149 M316,148L317,149 M317,148L318,149 M318,148L319,149 M319,148L320,149 M446,148L447,149 M447,148L448,149 M448,148L449,149 M449,148L450,149 M450,148L451,149 M451,148L452,149 M452,148L453,149 M453,148L454,149 M454,148L455,149 M455,148L456,149 M456,148L457,149 M66,149L67,150 M67,149L68,150 M314,149L315,150 M315,149L316,150 M316,149L317,150 M317,149L318,150 M452,149L453,150 M453,149L454,150 M454,149L455,150 M455,149L456,150 M456,149L457,150 M457,149L458,150 M458,149L459,150 M459,149L460,150 M65,150L66,151 M66,150L67,151 M67,150L68,151 M312,150L313,151 M313,150L314,151 M314,150L315,151 M315,150L316,151 M456,150L457,151 M457,150L458,151 M458,150L459,151 M459,150L460,151 M460,150L461,151 M461,150L462,151 M462,150L463,151 M463,150L464,151 M65,151L66,152 M66,151L67,152 M310,151L311,152 M311,151L312,152 M312,151L313,152 M313,151L314,152 M460,151L461,152 M461,151L462,152 M462,151L463,152 M463,151L464,152 M464,151L465,152 M465,151L466,152 M466,151L467,152 M64,152L65,153 M65,152L66,153 M66,152L67,153 M308,152L309,153 M309,152L310,153 M310,152L311,153 M311,152L312,153 M463,152L464,153 M464,152L465,153 M465,152L466,153 M466,152L467,153 M467,152L468,153 M468,152L469,153 M469,152L470,153 M470,152L471,153 M64,153L65,154 M65,153L66,154 M305,153L306,154 M306,153L307,154 M307,153L308,154 M308,153L309,154 M309,153L310,154 M467,153L468,154 M468,153L469,154 M469,153L470,154 M470,153L471,154 M471,153L472,154 M472,153L473,154 M473,153L474,154 M64,154L65,155 M65,154L66,155 M303,154L304,155 M304,154L305,155 M305,154L306,155 M306,154L307,155 M307,154L308,155 M470,154L471,155 M471,154L472,155 M472,154L473,155 M473,154L474,155 M474,154L475,155 M475,154L476,155 M476,154L477,155 M477,154L478,155 M63,155L64,156 M64,155L65,156 M301,155L302,156 M302,155L303,156 M303,155L304,156 M304,155L305,156 M305,155L306,156 M474,155L475,156 M475,155L476,156 M476,155L477,156 M477,155L478,156 M478,155L479,156 M479,155L480,156 M480,155L481,156 M63,156L64,157 M64,156L65,157 M299,156L300,157 M300,156L301,157 M301,156L302,157 M302,156L303,157 M303,156L304,157 M477,156L478,157 M478,156L479,157 M479,156L480,157 M480,156L481,157 M481,156L482,157 M482,156L483,157 M483,156L484,157 M484,156L485,157 M62,157L63,158 M63,157L64,158 M297,157L298,158 M298,157L299,158 M299,157L300,158 M300,157L301,158 M301,157L302,158 M481,157L482,158 M482,157L483,158 M483,157L484,158 M484,157L485,158 M485,157L486,158 M486,157L487,158 M487,157L488,158 M62,158L63,159 M63,158L64,159 M295,158L296,159 M296,158L297,159 M297,158L298,159 M298,158L299,159 M299,158L300,159 M484,158L485,159 M485,158L486,159 M486,158L487,159 M487,158L488,159 M488,158L489,159 M489,158L490,159 M490,158L491,159 M61,159L62,160 M62,159L63,160 M63,159L64,160 M293,159L294,160 M294,159L295,160 M295,159L296,160 M296,159L297,160 M297,159L298,160 M488,159L489,160 M489,159L490,160 M490,159L491,160 M491,159L492,160 M492,159L493,160 M61,160L62,161 M62,160L63,161 M290,160L291,161 M291,160L292,161 M292,160L293,161 M293,160L294,161 M294,160L295,161 M295,160L296,161 M490,160L491,161 M491,160L492,161 M492,160L493,161 M493,160L494,161 M494,160L495,161 M61,161L62,162 M62,161L63,162 M287,161L288,162 M288,161L289,162 M289,161L290,162 M290,161L291,162 M291,161L292,162 M292,161L293,162 M293,161L294,162 M492,161L493,162 M493,161L494,162 M494,161L495,162 M495,161L496,162 M496,161L497,162 M60,162L61,163 M61,162L62,163 M284,162L285,163 M285,162L286,163 M286,162L287,163 M287,162L288,163 M288,162L289,163 M289,162L290,163 M290,162L291,163 M494,162L495,163 M495,162L496,163 M496,162L497,163 M497,162L498,163 M498,162L499,163 M60,163L61,164 M61,163L62,164 M281,163L282,164 M282,163L283,164 M283,163L284,164 M284,163L285,164 M285,163L286,164 M286,163L287,164 M497,163L498,164 M498,163L499,164 M499,163L500,164 M500,163L501,164 M60,164L61,165 M61,164L62,165 M278,164L279,165 M279,164L280,165 M280,164L281,165 M281,164L282,165 M282,164L283,165 M283,164L284,165 M499,164L500,165 M500,164L501,165 M501,164L502,165 M502,164L503,165 M59,165L60,166 M60,165L61,166 M275,165L276,166 M276,165L277,166 M277,165L278,166 M278,165L279,166 M279,165L280,166 M280,165L281,166 M501,165L502,166 M502,165L503,166 M503,165L504,166 M504,165L505,166 M59,166L60,167 M60,166L61,167 M272,166L273,167 M273,166L274,167 M274,166L275,167 M275,166L276,167 M276,166L277,167 M277,166L278,167 M503,166L504,167 M504,166L505,167 M59,167L60,168 M60,167L61,168 M268,167L269,168 M269,167L270,168 M270,167L271,168 M271,167L272,168 M272,167L273,168 M273,167L274,168 M274,167L275,168 M504,167L505,168 M505,167L506,168 M58,168L59,169 M59,168L60,169 M265,168L266,169 M266,168L267,169 M267,168L268,169 M268,168L269,169 M269,168L270,169 M270,168L271,169 M271,168L272,169 M504,168L505,169 M505,168L506,169 M506,168L507,169 M58,169L59,170 M59,169L60,170 M263,169L264,170 M264,169L265,170 M265,169L266,170 M266,169L267,170 M267,169L268,170 M268,169L269,170 M505,169L506,170 M506,169L507,170 M58,170L59,171 M59,170L60,171 M260,170L261,171 M261,170L262,171 M262,170L263,171 M263,170L264,171 M264,170L265,171 M265,170L266,171 M505,170L506,171 M506,170L507,171 M57,171L58,172 M58,171L59,172 M258,171L259,172 M259,171L260,172 M260,171L261,172 M261,171L262,172 M262,171L263,172 M505,171L506,172 M506,171L507,172 M57,172L58,173 M58,172L59,173 M255,172L256,173 M256,172L257,173 M257,172L258,173 M258,172L259,173 M259,172L260,173 M506,172L507,173 M507,172L508,173 M57,173L58,174 M58,173L59,174 M253,173L254,174 M254,173L255,174 M255,173L256,174 M256,173L257,174 M257,173L258,174 M506,173L507,174 M507,173L508,174 M57,174L58,175 M58,174L59,175 M250,174L251,175 M251,174L252,175 M252,174L253,175 M253,174L254,175 M254,174L255,175 M506,174L507,175 M507,174L508,175 M57,175L58,176 M58,175L59,176 M247,175L248,176 M248,175L249,176 M249,175L250,176 M250,175L251,176 M251,175L252,176 M252,175L253,176 M506,175L507,176 M507,175L508,176 M57,176L58,177 M58,176L59,177 M245,176L246,177 M246,176L247,177 M247,176L248,177 M248,176L249,177 M249,176L250,177 M506,176L507,177 M507,176L508,177 M57,177L58,178 M58,177L59,178 M242,177L243,178 M243,177L244,178 M244,177L245,178 M245,177L246,178 M246,177L247,178 M247,177L248,178 M506,177L507,178 M507,177L508,178 M57,178L58,179 M58,178L59,179 M240,178L241,179 M241,178L242,179 M242,178L243,179 M243,178L244,179 M244,178L245,179 M505,178L506,179 M506,178L507,179 M507,178L508,179 M57,179L58,180 M58,179L59,180 M237,179L238,180 M238,179L239,180 M239,179L240,180 M240,179L241,180 M241,179L242,180 M242,179L243,180 M505,179L506,180 M506,179L507,180 M57,180L58,181 M58,180L59,181 M235,180L236,181 M236,180L237,181 M237,180L238,181 M238,180L239,181 M239,180L240,181 M505,180L506,181 M506,180L507,181 M57,181L58,182 M58,181L59,182 M232,181L233,182 M233,181L234,182 M234,181L235,182 M235,181L236,182 M236,181L237,182 M237,181L238,182 M505,181L506,182 M506,181L507,182 M57,182L58,183 M58,182L59,183 M229,182L230,183 M230,182L231,183 M231,182L232,183 M232,182L233,183 M233,182L234,183 M234,182L235,183 M504,182L505,183 M505,182L506,183 M57,183L58,184 M58,183L59,184 M225,183L226,184 M226,183L227,184 M227,183L228,184 M228,183L229,184 M229,183L230,184 M230,183L231,184 M231,183L232,184 M232,183L233,184 M504,183L505,184 M505,183L506,184 M57,184L58,185 M58,184L59,185 M221,184L222,185 M222,184L223,185 M223,184L224,185 M224,184L225,185 M225,184L226,185 M226,184L227,185 M227,184L228,185 M228,184L229,185 M503,184L504,185 M504,184L505,185 M505,184L506,185 M58,185L59,186 M59,185L60,186 M217,185L218,186 M218,185L219,186 M219,185L220,186 M220,185L221,186 M221,185L222,186 M222,185L223,186 M223,185L224,186 M224,185L225,186 M503,185L504,186 M504,185L505,186 M58,186L59,187 M59,186L60,187 M213,186L214,187 M214,186L215,187 M215,186L216,187 M216,186L217,187 M217,186L218,187 M218,186L219,187 M219,186L220,187 M220,186L221,187 M503,186L504,187 M504,186L505,187 M58,187L59,188 M59,187L60,188 M209,187L210,188 M210,187L211,188 M211,187L212,188 M212,187L213,188 M213,187L214,188 M214,187L215,188 M215,187L216,188 M216,187L217,188 M502,187L503,188 M503,187L504,188 M58,188L59,189 M59,188L60,189 M205,188L206,189 M206,188L207,189 M207,188L208,189 M208,188L209,189 M209,188L210,189 M210,188L211,189 M211,188L212,189 M212,188L213,189 M502,188L503,189 M503,188L504,189 M58,189L59,190 M59,189L60,190 M201,189L202,190 M202,189L203,190 M203,189L204,190 M204,189L205,190 M205,189L206,190 M206,189L207,190 M207,189L208,190 M208,189L209,190 M501,189L502,190 M502,189L503,190 M59,190L60,191 M60,190L61,191 M198,190L199,191 M199,190L200,191 M200,190L201,191 M201,190L202,191 M202,190L203,191 M203,190L204,191 M204,190L205,191 M205,190L206,191 M500,190L501,191 M501,190L502,191 M59,191L60,192 M60,191L61,192 M194,191L195,192 M195,191L196,192 M196,191L197,192 M197,191L198,192 M198,191L199,192 M199,191L200,192 M200,191L201,192 M201,191L202,192 M499,191L500,192 M500,191L501,192 M59,192L60,193 M60,192L61,193 M61,192L62,193 M190,192L191,193 M191,192L192,193 M192,192L193,193 M193,192L194,193 M194,192L195,193 M195,192L196,193 M196,192L197,193 M197,192L198,193 M498,192L499,193 M499,192L500,193 M61,193L62,194 M62,193L63,194 M63,193L64,194 M186,193L187,194 M187,193L188,194 M188,193L189,194 M189,193L190,194 M190,193L191,194 M191,193L192,194 M192,193L193,194 M193,193L194,194 M497,193L498,194 M498,193L499,194 M62,194L63,195 M63,194L64,195 M64,194L65,195 M182,194L183,195 M183,194L184,195 M184,194L185,195 M185,194L186,195 M186,194L187,195 M187,194L188,195 M188,194L189,195 M189,194L190,195 M496,194L497,195 M497,194L498,195 M63,195L64,196 M64,195L65,196 M65,195L66,196 M178,195L179,196 M179,195L180,196 M180,195L181,196 M181,195L182,196 M182,195L183,196 M183,195L184,196 M184,195L185,196 M185,195L186,196 M495,195L496,196 M496,195L497,196 M497,195L498,196 M64,196L65,197 M65,196L66,197 M66,196L67,197 M67,196L68,197 M174,196L175,197 M175,196L176,197 M176,196L177,197 M177,196L178,197 M178,196L179,197 M179,196L180,197 M180,196L181,197 M181,196L182,197 M494,196L495,197 M495,196L496,197 M496,196L497,197 M65,197L66,198 M66,197L67,198 M67,197L68,198 M68,197L69,198 M170,197L171,198 M171,197L172,198 M172,197L173,198 M173,197L174,198 M174,197L175,198 M175,197L176,198 M176,197L177,198 M177,197L178,198 M493,197L494,198 M494,197L495,198 M495,197L496,198 M67,198L68,199 M68,198L69,199 M69,198L70,199 M70,198L71,199 M166,198L167,199 M167,198L168,199 M168,198L169,199 M169,198L170,199 M170,198L171,199 M171,198L172,199 M172,198L173,199 M173,198L174,199 M492,198L493,199 M493,198L494,199 M494,198L495,199 M69,199L70,200 M70,199L71,200 M71,199L72,200 M72,199L73,200 M161,199L162,200 M162,199L163,200 M163,199L164,200 M164,199L165,200 M165,199L166,200 M166,199L167,200 M167,199L168,200 M168,199L169,200 M169,199L170,200 M491,199L492,200 M492,199L493,200 M493,199L494,200 M71,200L72,201 M72,200L73,201 M73,200L74,201 M74,200L75,201 M156,200L157,201 M157,200L158,201 M158,200L159,201 M159,200L160,201 M160,200L161,201 M161,200L162,201 M162,200L163,201 M163,200L164,201 M164,200L165,201 M165,200L166,201 M490,200L491,201 M491,200L492,201 M492,200L493,201 M72,201L73,202 M73,201L74,202 M74,201L75,202 M75,201L76,202 M76,201L77,202 M77,201L78,202 M151,201L152,202 M152,201L153,202 M153,201L154,202 M154,201L155,202 M155,201L156,202 M156,201L157,202 M157,201L158,202 M158,201L159,202 M159,201L160,202 M160,201L161,202 M489,201L490,202 M490,201L491,202 M491,201L492,202 M75,202L76,203 M76,202L77,203 M77,202L78,203 M78,202L79,203 M79,202L80,203 M147,202L148,203 M148,202L149,203 M149,202L150,203 M150,202L151,203 M151,202L152,203 M152,202L153,203 M153,202L154,203 M154,202L155,203 M155,202L156,203 M487,202L488,203 M488,202L489,203 M489,202L490,203 M490,202L491,203 M77,203L78,204 M78,203L79,204 M79,203L80,204 M80,203L81,204 M81,203L82,204 M82,203L83,204 M142,203L143,204 M143,203L144,204 M144,203L145,204 M145,203L146,204 M146,203L147,204 M147,203L148,204 M148,203L149,204 M149,203L150,204 M150,203L151,204 M151,203L152,204 M485,203L486,204 M486,203L487,204 M487,203L488,204 M488,203L489,204 M80,204L81,205 M81,204L82,205 M82,204L83,205 M83,204L84,205 M84,204L85,205 M85,204L86,205 M86,204L87,205 M87,204L88,205 M137,204L138,205 M138,204L139,205 M139,204L140,205 M140,204L141,205 M141,204L142,205 M142,204L143,205 M143,204L144,205 M144,204L145,205 M145,204L146,205 M146,204L147,205 M484,204L485,205 M485,204L486,205 M486,204L487,205 M487,204L488,205 M82,205L83,206 M83,205L84,206 M84,205L85,206 M85,205L86,206 M86,205L87,206 M87,205L88,206 M88,205L89,206 M89,205L90,206 M90,205L91,206 M91,205L92,206 M92,205L93,206 M93,205L94,206 M118,205L119,206 M119,205L120,206 M120,205L121,206 M121,205L122,206 M122,205L123,206 M123,205L124,206 M124,205L125,206 M125,205L126,206 M126,205L127,206 M127,205L128,206 M128,205L129,206 M129,205L130,206 M130,205L131,206 M131,205L132,206 M132,205L133,206 M133,205L134,206 M134,205L135,206 M135,205L136,206 M136,205L137,206 M137,205L138,206 M138,205L139,206 M139,205L140,206 M140,205L141,206 M141,205L142,206 M482,205L483,206 M483,205L484,206 M484,205L485,206 M485,205L486,206 M88,206L89,207 M89,206L90,207 M90,206L91,207 M91,206L92,207 M92,206L93,207 M93,206L94,207 M94,206L95,207 M95,206L96,207 M96,206L97,207 M97,206L98,207 M98,206L99,207 M99,206L100,207 M100,206L101,207 M101,206L102,207 M102,206L103,207 M103,206L104,207 M104,206L105,207 M105,206L106,207 M106,206L107,207 M107,206L108,207 M108,206L109,207 M109,206L110,207 M110,206L111,207 M111,206L112,207 M112,206L113,207 M113,206L114,207 M114,206L115,207 M115,206L116,207 M116,206L117,207 M117,206L118,207 M118,206L119,207 M119,206L120,207 M120,206L121,207 M121,206L122,207 M122,206L123,207 M123,206L124,207 M124,206L125,207 M125,206L126,207 M126,206L127,207 M127,206L128,207 M128,206L129,207 M129,206L130,207 M130,206L131,207 M131,206L132,207 M132,206L133,207 M133,206L134,207 M134,206L135,207 M135,206L136,207 M136,206L137,207 M481,206L482,207 M482,206L483,207 M483,206L484,207 M94,207L95,208 M95,207L96,208 M96,207L97,208 M97,207L98,208 M98,207L99,208 M99,207L100,208 M100,207L101,208 M101,207L102,208 M102,207L103,208 M103,207L104,208 M104,207L105,208 M105,207L106,208 M106,207L107,208 M107,207L108,208 M108,207L109,208 M109,207L110,208 M110,207L111,208 M111,207L112,208 M112,207L113,208 M113,207L114,208 M114,207L115,208 M115,207L116,208 M116,207L117,208 M117,207L118,208 M480,207L481,208 M481,207L482,208 M482,207L483,208 M475,208L476,209 M476,208L477,209 M477,208L478,209 M478,208L479,209 M479,208L480,209 M480,208L481,209 M481,208L482,209 M474,209L475,210 M475,209L476,210 M476,209L477,210 M477,209L478,210 M478,209L479,210 M479,209L480,210 M471,210L472,211 M472,210L473,211 M473,210L474,211 M474,210L475,211 M475,210L476,211 M471,211L472,212 M472,211L473,212 M473,211L474,212 M474,211L475,212" fill="none" stroke="black" />
    </svg>