<svg xmlns="http://www.w3.org/2000/svg" width="800" height="250">
        <path d="M437,19L438,20 M438,19L439,20 M437,20L438,21 M438,20L439,21 M436,21L437,22 M437,21L438,22 M438,21L439,22 M436,22L437,23 M437,22L438,23 M438,22L439,23 M436,23L437,24 M437,23L438,24 M438,23L439,24 M435,24L436,25 M436,24L437,25 M437,24L438,25 M438,24L439,25 M435,25L436,26 M436,25L437,26 M437,25L438,26 M438,25L439,26 M434,26L435,27 M435,26L436,27 M437,26L438,27 M438,26L439,27 M434,27L435,28 M435,27L436,28 M437,27L438,28 M438,27L439,28 M434,28L435,29 M435,28L436,29 M437,28L438,29 M438,28L439,29 M433,29L434,30 M434,29L435,30 M437,29L438,30 M438,29L439,30 M433,30L434,31 M434,30L435,31 M437,30L438,31 M438,30L439,31 M433,31L434,32 M434,31L435,32 M437,31L438,32 M438,31L439,32 M432,32L433,33 M433,32L434,33 M434,32L435,33 M437,32L438,33 M438,32L439,33 M432,33L433,34 M433,33L434,34 M437,33L438,34 M438,33L439,34 M432,34L433,35 M433,34L434,35 M437,34L438,35 M438,34L439,35 M432,35L433,36 M433,35L434,36 M437,35L438,36 M438,35L439,36 M432,36L433,37 M433,36L434,37 M437,36L438,37 M438,36L439,37 M432,37L433,38 M433,37L434,38 M437,37L438,38 M438,37L439,38 M431,38L432,39 M432,38L433,39 M437,38L438,39 M438,38L439,39 M431,39L432,40 M432,39L433,40 M437,39L438,40 M438,39L439,40 M431,40L432,41 M432,40L433,41 M438,40L439,41 M439,40L440,41 M431,41L432,42 M432,41L433,42 M438,41L439,42 M439,41L440,42 M431,42L432,43 M432,42L433,43 M438,42L439,43 M439,42L440,43 M430,43L431,44 M431,43L432,44 M438,43L439,44 M439,43L440,44 M430,44L431,45 M431,44L432,45 M438,44L439,45 M439,44L440,45 M430,45L431,46 M431,45L432,46 M438,45L439,46 M439,45L440,46 M430,46L431,47 M431,46L432,47 M438,46L439,47 M439,46L440,47 M208,47L209,48 M209,47L210,48 M210,47L211,48 M211,47L212,48 M212,47L213,48 M213,47L214,48 M214,47L215,48 M430,47L431,48 M431,47L432,48 M438,47L439,48 M439,47L440,48 M204,48L205,49 M205,48L206,49 M206,48L207,49 M207,48L208,49 M208,48L209,49 M209,48L210,49 M210,48L211,49 M211,48L212,49 M212,48L213,49 M213,48L214,49 M214,48L215,49 M429,48L430,49 M430,48L431,49 M438,48L439,49 M439,48L440,49 M200,49L201,50 M201,49L202,50 M202,49L203,50 M203,49L204,50 M204,49L205,50 M205,49L206,50 M206,49L207,50 M207,49L208,50 M429,49L430,50 M430,49L431,50 M438,49L439,50 M439,49L440,50 M197,50L198,51 M198,50L199,51 M199,50L200,51 M200,50L201,51 M201,50L202,51 M202,50L203,51 M203,50L204,51 M429,50L430,51 M430,50L431,51 M439,50L440,51 M440,50L441,51 M194,51L195,52 M195,51L196,52 M196,51L197,52 M197,51L198,52 M198,51L199,52 M199,51L200,52 M200,51L201,52 M429,51L430,52 M430,51L431,52 M439,51L440,52 M440,51L441,52 M193,52L194,53 M194,52L195,53 M195,52L196,53 M196,52L197,53 M429,52L430,53 M430,52L431,53 M439,52L440,53 M440,52L441,53 M192,53L193,54 M193,53L194,54 M194,53L195,54 M428,53L429,54 M429,53L430,54 M439,53L440,54 M440,53L441,54 M190,54L191,55 M191,54L192,55 M192,54L193,55 M193,54L194,55 M428,54L429,55 M429,54L430,55 M439,54L440,55 M440,54L441,55 M189,55L190,56 M190,55L191,56 M191,55L192,56 M428,55L429,56 M429,55L430,56 M439,55L440,56 M440,55L441,56 M188,56L189,57 M189,56L190,57 M190,56L191,57 M427,56L428,57 M428,56L429,57 M439,56L440,57 M440,56L441,57 M187,57L188,58 M188,57L189,58 M189,57L190,58 M427,57L428,58 M428,57L429,58 M439,57L440,58 M440,57L441,58 M186,58L187,59 M187,58L188,59 M188,58L189,59 M427,58L428,59 M428,58L429,59 M439,58L440,59 M440,58L441,59 M185,59L186,60 M186,59L187,60 M187,59L188,60 M426,59L427,60 M427,59L428,60 M428,59L429,60 M439,59L440,60 M440,59L441,60 M183,60L184,61 M184,60L185,61 M185,60L186,61 M186,60L187,61 M426,60L427,61 M427,60L428,61 M440,60L441,61 M441,60L442,61 M182,61L183,62 M183,61L184,62 M184,61L185,62 M426,61L427,62 M427,61L428,62 M440,61L441,62 M441,61L442,62 M181,62L182,63 M182,62L183,63 M183,62L184,63 M212,62L213,63 M213,62L214,63 M426,62L427,63 M427,62L428,63 M440,62L441,63 M441,62L442,63 M180,63L181,64 M181,63L182,64 M182,63L183,64 M211,63L212,64 M212,63L213,64 M213,63L214,64 M425,63L426,64 M426,63L427,64 M440,63L441,64 M441,63L442,64 M179,64L180,65 M180,64L181,65 M181,64L182,65 M211,64L212,65 M212,64L213,65 M213,64L214,65 M261,64L262,65 M262,64L263,65 M425,64L426,65 M426,64L427,65 M440,64L441,65 M441,64L442,65 M178,65L179,66 M179,65L180,66 M180,65L181,66 M210,65L211,66 M211,65L212,66 M212,65L213,66 M261,65L262,66 M262,65L263,66 M425,65L426,66 M426,65L427,66 M440,65L441,66 M441,65L442,66 M176,66L177,67 M177,66L178,67 M178,66L179,67 M210,66L211,67 M211,66L212,67 M212,66L213,67 M260,66L261,67 M261,66L262,67 M262,66L263,67 M406,66L407,67 M407,66L408,67 M408,66L409,67 M424,66L425,67 M425,66L426,67 M426,66L427,67 M440,66L441,67 M441,66L442,67 M175,67L176,68 M176,67L177,68 M177,67L178,68 M209,67L210,68 M210,67L211,68 M211,67L212,68 M212,67L213,68 M259,67L260,68 M260,67L261,68 M261,67L262,68 M262,67L263,68 M404,67L405,68 M405,67L406,68 M406,67L407,68 M407,67L408,68 M408,67L409,68 M424,67L425,68 M425,67L426,68 M440,67L441,68 M441,67L442,68 M174,68L175,69 M175,68L176,69 M176,68L177,69 M209,68L210,69 M210,68L211,69 M211,68L212,69 M259,68L260,69 M260,68L261,69 M261,68L262,69 M262,68L263,69 M402,68L403,69 M403,68L404,69 M404,68L405,69 M405,68L406,69 M406,68L407,69 M407,68L408,69 M408,68L409,69 M424,68L425,69 M425,68L426,69 M440,68L441,69 M441,68L442,69 M173,69L174,70 M174,69L175,70 M175,69L176,70 M208,69L209,70 M209,69L210,70 M210,69L211,70 M211,69L212,70 M258,69L259,70 M259,69L260,70 M261,69L262,70 M262,69L263,70 M399,69L400,70 M400,69L401,70 M401,69L402,70 M402,69L403,70 M403,69L404,70 M404,69L405,70 M407,69L408,70 M408,69L409,70 M424,69L425,70 M425,69L426,70 M440,69L441,70 M441,69L442,70 M172,70L173,71 M173,70L174,71 M174,70L175,71 M207,70L208,71 M208,70L209,71 M209,70L210,71 M210,70L211,71 M211,70L212,71 M257,70L258,71 M258,70L259,71 M259,70L260,71 M261,70L262,71 M262,70L263,71 M397,70L398,71 M398,70L399,71 M399,70L400,71 M400,70L401,71 M401,70L402,71 M408,70L409,71 M409,70L410,71 M423,70L424,71 M424,70L425,71 M441,70L442,71 M442,70L443,71 M171,71L172,72 M172,71L173,72 M173,71L174,72 M207,71L208,72 M208,71L209,72 M209,71L210,72 M210,71L211,72 M256,71L257,72 M257,71L258,72 M258,71L259,72 M261,71L262,72 M262,71L263,72 M395,71L396,72 M396,71L397,72 M397,71L398,72 M398,71L399,72 M399,71L400,72 M408,71L409,72 M409,71L410,72 M423,71L424,72 M424,71L425,72 M441,71L442,72 M442,71L443,72 M169,72L170,73 M170,72L171,73 M171,72L172,73 M206,72L207,73 M207,72L208,73 M208,72L209,73 M209,72L210,73 M210,72L211,73 M255,72L256,73 M256,72L257,73 M257,72L258,73 M261,72L262,73 M262,72L263,73 M392,72L393,73 M393,72L394,73 M394,72L395,73 M395,72L396,73 M396,72L397,73 M408,72L409,73 M409,72L410,73 M423,72L424,73 M424,72L425,73 M441,72L442,73 M442,72L443,73 M168,73L169,74 M169,73L170,74 M170,73L171,74 M206,73L207,74 M207,73L208,74 M209,73L210,74 M210,73L211,74 M255,73L256,74 M256,73L257,74 M261,73L262,74 M262,73L263,74 M390,73L391,74 M391,73L392,74 M392,73L393,74 M393,73L394,74 M394,73L395,74 M408,73L409,74 M409,73L410,74 M422,73L423,74 M423,73L424,74 M441,73L442,74 M442,73L443,74 M167,74L168,75 M168,74L169,75 M169,74L170,75 M205,74L206,75 M206,74L207,75 M209,74L210,75 M210,74L211,75 M254,74L255,75 M255,74L256,75 M260,74L261,75 M261,74L262,75 M262,74L263,75 M388,74L389,75 M389,74L390,75 M390,74L391,75 M391,74L392,75 M392,74L393,75 M408,74L409,75 M409,74L410,75 M422,74L423,75 M423,74L424,75 M441,74L442,75 M442,74L443,75 M166,75L167,76 M167,75L168,76 M168,75L169,76 M204,75L205,76 M205,75L206,76 M206,75L207,76 M209,75L210,76 M210,75L211,76 M253,75L254,76 M254,75L255,76 M260,75L261,76 M261,75L262,76 M385,75L386,76 M386,75L387,76 M387,75L388,76 M388,75L389,76 M389,75L390,76 M408,75L409,76 M409,75L410,76 M422,75L423,76 M423,75L424,76 M441,75L442,76 M442,75L443,76 M165,76L166,77 M166,76L167,77 M167,76L168,77 M204,76L205,77 M205,76L206,77 M209,76L210,77 M210,76L211,77 M252,76L253,77 M253,76L254,77 M254,76L255,77 M260,76L261,77 M261,76L262,77 M383,76L384,77 M384,76L385,77 M385,76L386,77 M386,76L387,77 M387,76L388,77 M408,76L409,77 M409,76L410,77 M421,76L422,77 M422,76L423,77 M423,76L424,77 M441,76L442,77 M442,76L443,77 M163,77L164,78 M164,77L165,78 M165,77L166,78 M166,77L167,78 M203,77L204,78 M204,77L205,78 M205,77L206,78 M209,77L210,78 M210,77L211,78 M251,77L252,78 M252,77L253,78 M253,77L254,78 M260,77L261,78 M261,77L262,78 M381,77L382,78 M382,77L383,78 M383,77L384,78 M384,77L385,78 M385,77L386,78 M408,77L409,78 M409,77L410,78 M421,77L422,78 M422,77L423,78 M441,77L442,78 M442,77L443,78 M162,78L163,79 M163,78L164,79 M164,78L165,79 M203,78L204,79 M204,78L205,79 M209,78L210,79 M210,78L211,79 M250,78L251,79 M251,78L252,79 M252,78L253,79 M260,78L261,79 M261,78L262,79 M379,78L380,79 M380,78L381,79 M381,78L382,79 M382,78L383,79 M408,78L409,79 M409,78L410,79 M421,78L422,79 M422,78L423,79 M441,78L442,79 M442,78L443,79 M161,79L162,80 M162,79L163,80 M163,79L164,80 M202,79L203,80 M203,79L204,80 M209,79L210,80 M210,79L211,80 M250,79L251,80 M251,79L252,80 M260,79L261,80 M261,79L262,80 M378,79L379,80 M379,79L380,80 M380,79L381,80 M408,79L409,80 M409,79L410,80 M420,79L421,80 M421,79L422,80 M422,79L423,80 M441,79L442,80 M442,79L443,80 M160,80L161,81 M161,80L162,81 M162,80L163,81 M202,80L203,81 M203,80L204,81 M209,80L210,81 M210,80L211,81 M249,80L250,81 M250,80L251,81 M259,80L260,81 M260,80L261,81 M376,80L377,81 M377,80L378,81 M378,80L379,81 M379,80L380,81 M409,80L410,81 M410,80L411,81 M420,80L421,81 M421,80L422,81 M442,80L443,81 M443,80L444,81 M159,81L160,82 M160,81L161,82 M161,81L162,82 M201,81L202,82 M202,81L203,82 M209,81L210,82 M210,81L211,82 M248,81L249,82 M249,81L250,82 M259,81L260,82 M260,81L261,82 M374,81L375,82 M375,81L376,82 M376,81L377,82 M377,81L378,82 M409,81L410,82 M410,81L411,82 M420,81L421,82 M421,81L422,82 M442,81L443,82 M443,81L444,82 M158,82L159,83 M159,82L160,83 M160,82L161,83 M201,82L202,83 M202,82L203,83 M209,82L210,83 M210,82L211,83 M247,82L248,83 M248,82L249,83 M249,82L250,83 M259,82L260,83 M260,82L261,83 M373,82L374,83 M374,82L375,83 M375,82L376,83 M409,82L410,83 M410,82L411,83 M419,82L420,83 M420,82L421,83 M421,82L422,83 M442,82L443,83 M443,82L444,83 M157,83L158,84 M158,83L159,84 M159,83L160,84 M200,83L201,84 M201,83L202,84 M209,83L210,84 M210,83L211,84 M246,83L247,84 M247,83L248,84 M248,83L249,84 M259,83L260,84 M260,83L261,84 M371,83L372,84 M372,83L373,84 M373,83L374,84 M374,83L375,84 M409,83L410,84 M410,83L411,84 M419,83L420,84 M420,83L421,84 M442,83L443,84 M443,83L444,84 M155,84L156,85 M156,84L157,85 M157,84L158,85 M199,84L200,85 M200,84L201,85 M201,84L202,85 M209,84L210,85 M210,84L211,85 M245,84L246,85 M246,84L247,85 M247,84L248,85 M259,84L260,85 M260,84L261,85 M369,84L370,85 M370,84L371,85 M371,84L372,85 M372,84L373,85 M409,84L410,85 M410,84L411,85 M419,84L420,85 M420,84L421,85 M442,84L443,85 M443,84L444,85 M154,85L155,86 M155,85L156,86 M156,85L157,86 M199,85L200,86 M200,85L201,86 M209,85L210,86 M210,85L211,86 M244,85L245,86 M245,85L246,86 M246,85L247,86 M258,85L259,86 M259,85L260,86 M368,85L369,86 M369,85L370,86 M370,85L371,86 M371,85L372,86 M409,85L410,86 M410,85L411,86 M418,85L419,86 M419,85L420,86 M420,85L421,86 M442,85L443,86 M443,85L444,86 M153,86L154,87 M154,86L155,87 M155,86L156,87 M198,86L199,87 M199,86L200,87 M200,86L201,87 M209,86L210,87 M210,86L211,87 M243,86L244,87 M244,86L245,87 M245,86L246,87 M258,86L259,87 M259,86L260,87 M366,86L367,87 M367,86L368,87 M368,86L369,87 M369,86L370,87 M409,86L410,87 M410,86L411,87 M418,86L419,87 M419,86L420,87 M442,86L443,87 M443,86L444,87 M152,87L153,88 M153,87L154,88 M154,87L155,88 M198,87L199,88 M199,87L200,88 M209,87L210,88 M210,87L211,88 M242,87L243,88 M243,87L244,88 M244,87L245,88 M258,87L259,88 M259,87L260,88 M364,87L365,88 M365,87L366,88 M366,87L367,88 M367,87L368,88 M409,87L410,88 M410,87L411,88 M418,87L419,88 M419,87L420,88 M442,87L443,88 M443,87L444,88 M151,88L152,89 M152,88L153,89 M153,88L154,89 M197,88L198,89 M198,88L199,89 M199,88L200,89 M209,88L210,89 M210,88L211,89 M241,88L242,89 M242,88L243,89 M243,88L244,89 M258,88L259,89 M259,88L260,89 M363,88L364,89 M364,88L365,89 M365,88L366,89 M366,88L367,89 M409,88L410,89 M410,88L411,89 M417,88L418,89 M418,88L419,89 M419,88L420,89 M442,88L443,89 M443,88L444,89 M150,89L151,90 M151,89L152,90 M152,89L153,90 M197,89L198,90 M198,89L199,90 M209,89L210,90 M210,89L211,90 M240,89L241,90 M241,89L242,90 M242,89L243,90 M258,89L259,90 M259,89L260,90 M361,89L362,90 M362,89L363,90 M363,89L364,90 M364,89L365,90 M409,89L410,90 M410,89L411,90 M417,89L418,90 M418,89L419,90 M442,89L443,90 M443,89L444,90 M149,90L150,91 M150,90L151,91 M151,90L152,91 M196,90L197,91 M197,90L198,91 M209,90L210,91 M210,90L211,91 M239,90L240,91 M240,90L241,91 M241,90L242,91 M257,90L258,91 M258,90L259,91 M360,90L361,91 M361,90L362,91 M362,90L363,91 M409,90L410,91 M410,90L411,91 M417,90L418,91 M418,90L419,91 M443,90L444,91 M444,90L445,91 M148,91L149,92 M149,91L150,92 M150,91L151,92 M196,91L197,92 M197,91L198,92 M209,91L210,92 M210,91L211,92 M239,91L240,92 M240,91L241,92 M257,91L258,92 M258,91L259,92 M358,91L359,92 M359,91L360,92 M360,91L361,92 M361,91L362,92 M410,91L411,92 M411,91L412,92 M416,91L417,92 M417,91L418,92 M418,91L419,92 M443,91L444,92 M444,91L445,92 M147,92L148,93 M148,92L149,93 M149,92L150,93 M195,92L196,93 M196,92L197,93 M209,92L210,93 M210,92L211,93 M238,92L239,93 M239,92L240,93 M257,92L258,93 M258,92L259,93 M356,92L357,93 M357,92L358,93 M358,92L359,93 M359,92L360,93 M410,92L411,93 M411,92L412,93 M416,92L417,93 M417,92L418,93 M443,92L444,93 M444,92L445,93 M146,93L147,94 M147,93L148,94 M148,93L149,94 M195,93L196,94 M196,93L197,94 M209,93L210,94 M210,93L211,94 M237,93L238,94 M238,93L239,94 M257,93L258,94 M258,93L259,94 M355,93L356,94 M356,93L357,94 M357,93L358,94 M358,93L359,94 M410,93L411,94 M411,93L412,94 M416,93L417,94 M417,93L418,94 M443,93L444,94 M444,93L445,94 M145,94L146,95 M146,94L147,95 M147,94L148,95 M194,94L195,95 M195,94L196,95 M209,94L210,95 M210,94L211,95 M236,94L237,95 M237,94L238,95 M257,94L258,95 M258,94L259,95 M353,94L354,95 M354,94L355,95 M355,94L356,95 M356,94L357,95 M410,94L411,95 M411,94L412,95 M415,94L416,95 M416,94L417,95 M443,94L444,95 M444,94L445,95 M144,95L145,96 M145,95L146,96 M146,95L147,96 M193,95L194,96 M194,95L195,96 M195,95L196,96 M209,95L210,96 M210,95L211,96 M235,95L236,96 M236,95L237,96 M256,95L257,96 M257,95L258,96 M351,95L352,96 M352,95L353,96 M353,95L354,96 M354,95L355,96 M410,95L411,96 M411,95L412,96 M415,95L416,96 M416,95L417,96 M443,95L444,96 M444,95L445,96 M143,96L144,97 M144,96L145,97 M145,96L146,97 M193,96L194,97 M194,96L195,97 M209,96L210,97 M210,96L211,97 M234,96L235,97 M235,96L236,97 M236,96L237,97 M256,96L257,97 M257,96L258,97 M350,96L351,97 M351,96L352,97 M352,96L353,97 M353,96L354,97 M410,96L411,97 M411,96L412,97 M414,96L415,97 M415,96L416,97 M416,96L417,97 M443,96L444,97 M444,96L445,97 M142,97L143,98 M143,97L144,98 M144,97L145,98 M192,97L193,98 M193,97L194,98 M209,97L210,98 M210,97L211,98 M233,97L234,98 M234,97L235,98 M235,97L236,98 M256,97L257,98 M257,97L258,98 M266,97L267,98 M267,97L268,98 M268,97L269,98 M269,97L270,98 M349,97L350,98 M350,97L351,98 M351,97L352,98 M410,97L411,98 M411,97L412,98 M414,97L415,98 M415,97L416,98 M443,97L444,98 M444,97L445,98 M141,98L142,99 M142,98L143,99 M143,98L144,99 M191,98L192,99 M192,98L193,99 M193,98L194,99 M209,98L210,99 M210,98L211,99 M232,98L233,99 M233,98L234,99 M234,98L235,99 M256,98L257,99 M257,98L258,99 M263,98L264,99 M264,98L265,99 M265,98L266,99 M266,98L267,99 M267,98L268,99 M268,98L269,99 M269,98L270,99 M347,98L348,99 M348,98L349,99 M349,98L350,99 M350,98L351,99 M410,98L411,99 M411,98L412,99 M412,98L413,99 M414,98L415,99 M415,98L416,99 M443,98L444,99 M444,98L445,99 M140,99L141,100 M141,99L142,100 M142,99L143,100 M190,99L191,100 M191,99L192,100 M192,99L193,100 M209,99L210,100 M210,99L211,100 M231,99L232,100 M232,99L233,100 M233,99L234,100 M256,99L257,100 M257,99L258,100 M263,99L264,100 M264,99L265,100 M265,99L266,100 M268,99L269,100 M269,99L270,100 M346,99L347,100 M347,99L348,100 M348,99L349,100 M411,99L412,100 M412,99L413,100 M413,99L414,100 M414,99L415,100 M443,99L444,100 M444,99L445,100 M139,100L140,101 M140,100L141,101 M141,100L142,101 M190,100L191,101 M191,100L192,101 M209,100L210,101 M210,100L211,101 M230,100L231,101 M231,100L232,101 M232,100L233,101 M256,100L257,101 M257,100L258,101 M263,100L264,101 M264,100L265,101 M268,100L269,101 M269,100L270,101 M344,100L345,101 M345,100L346,101 M346,100L347,101 M347,100L348,101 M413,100L414,101 M414,100L415,101 M444,100L445,101 M445,100L446,101 M138,101L139,102 M139,101L140,102 M140,101L141,102 M189,101L190,102 M190,101L191,102 M209,101L210,102 M210,101L211,102 M229,101L230,102 M230,101L231,102 M231,101L232,102 M256,101L257,102 M257,101L258,102 M262,101L263,102 M263,101L264,102 M268,101L269,102 M269,101L270,102 M343,101L344,102 M344,101L345,102 M345,101L346,102 M444,101L445,102 M445,101L446,102 M137,102L138,103 M138,102L139,103 M139,102L140,103 M188,102L189,103 M189,102L190,103 M190,102L191,103 M209,102L210,103 M210,102L211,103 M228,102L229,103 M229,102L230,103 M230,102L231,103 M255,102L256,103 M256,102L257,103 M262,102L263,103 M263,102L264,103 M268,102L269,103 M269,102L270,103 M342,102L343,103 M343,102L344,103 M344,102L345,103 M444,102L445,103 M445,102L446,103 M136,103L137,104 M137,103L138,104 M138,103L139,104 M187,103L188,104 M188,103L189,104 M189,103L190,104 M209,103L210,104 M210,103L211,104 M228,103L229,104 M229,103L230,104 M255,103L256,104 M256,103L257,104 M262,103L263,104 M263,103L264,104 M268,103L269,104 M269,103L270,104 M340,103L341,104 M341,103L342,104 M342,103L343,104 M343,103L344,104 M444,103L445,104 M445,103L446,104 M136,104L137,105 M137,104L138,105 M187,104L188,105 M188,104L189,105 M209,104L210,105 M210,104L211,105 M227,104L228,105 M228,104L229,105 M229,104L230,105 M255,104L256,105 M256,104L257,105 M261,104L262,105 M262,104L263,105 M268,104L269,105 M269,104L270,105 M339,104L340,105 M340,104L341,105 M341,104L342,105 M444,104L445,105 M445,104L446,105 M135,105L136,106 M136,105L137,106 M186,105L187,106 M187,105L188,106 M209,105L210,106 M210,105L211,106 M227,105L228,106 M228,105L229,106 M255,105L256,106 M256,105L257,106 M261,105L262,106 M262,105L263,106 M268,105L269,106 M269,105L270,106 M338,105L339,106 M339,105L340,106 M340,105L341,106 M444,105L445,106 M445,105L446,106 M135,106L136,107 M136,106L137,107 M185,106L186,107 M186,106L187,107 M187,106L188,107 M209,106L210,107 M210,106L211,107 M226,106L227,107 M227,106L228,107 M255,106L256,107 M256,106L257,107 M261,106L262,107 M262,106L263,107 M268,106L269,107 M269,106L270,107 M336,106L337,107 M337,106L338,107 M338,106L339,107 M339,106L340,107 M444,106L445,107 M445,106L446,107 M134,107L135,108 M135,107L136,108 M184,107L185,108 M185,107L186,108 M186,107L187,108 M209,107L210,108 M210,107L211,108 M225,107L226,108 M226,107L227,108 M227,107L228,108 M255,107L256,108 M256,107L257,108 M260,107L261,108 M261,107L262,108 M268,107L269,108 M269,107L270,108 M335,107L336,108 M336,107L337,108 M337,107L338,108 M444,107L445,108 M445,107L446,108 M134,108L135,109 M135,108L136,109 M184,108L185,109 M185,108L186,109 M209,108L210,109 M210,108L211,109 M225,108L226,109 M226,108L227,109 M255,108L256,109 M256,108L257,109 M260,108L261,109 M261,108L262,109 M268,108L269,109 M269,108L270,109 M333,108L334,109 M334,108L335,109 M335,108L336,109 M336,108L337,109 M444,108L445,109 M445,108L446,109 M133,109L134,110 M134,109L135,110 M135,109L136,110 M183,109L184,110 M184,109L185,110 M209,109L210,110 M210,109L211,110 M224,109L225,110 M225,109L226,110 M254,109L255,110 M255,109L256,110 M259,109L260,110 M260,109L261,110 M261,109L262,110 M267,109L268,110 M268,109L269,110 M332,109L333,110 M333,109L334,110 M334,109L335,110 M444,109L445,110 M445,109L446,110 M133,110L134,111 M134,110L135,111 M182,110L183,111 M183,110L184,111 M184,110L185,111 M209,110L210,111 M210,110L211,111 M223,110L224,111 M224,110L225,111 M225,110L226,111 M254,110L255,111 M255,110L256,111 M259,110L260,111 M260,110L261,111 M267,110L268,111 M268,110L269,111 M331,110L332,111 M332,110L333,111 M333,110L334,111 M445,110L446,111 M446,110L447,111 M133,111L134,112 M134,111L135,112 M181,111L182,112 M182,111L183,112 M183,111L184,112 M209,111L210,112 M210,111L211,112 M223,111L224,112 M224,111L225,112 M254,111L255,112 M255,111L256,112 M259,111L260,112 M260,111L261,112 M267,111L268,112 M268,111L269,112 M329,111L330,112 M330,111L331,112 M331,111L332,112 M332,111L333,112 M445,111L446,112 M446,111L447,112 M132,112L133,113 M133,112L134,113 M180,112L181,113 M181,112L182,113 M182,112L183,113 M209,112L210,113 M210,112L211,113 M222,112L223,113 M223,112L224,113 M254,112L255,113 M255,112L256,113 M258,112L259,113 M259,112L260,113 M267,112L268,113 M268,112L269,113 M328,112L329,113 M329,112L330,113 M330,112L331,113 M445,112L446,113 M446,112L447,113 M132,113L133,114 M133,113L134,114 M179,113L180,114 M180,113L181,114 M181,113L182,114 M209,113L210,114 M210,113L211,114 M221,113L222,114 M222,113L223,114 M223,113L224,114 M254,113L255,114 M255,113L256,114 M257,113L258,114 M258,113L259,114 M259,113L260,114 M266,113L267,114 M267,113L268,114 M327,113L328,114 M328,113L329,114 M329,113L330,114 M445,113L446,114 M446,113L447,114 M131,114L132,115 M132,114L133,115 M178,114L179,115 M179,114L180,115 M180,114L181,115 M209,114L210,115 M210,114L211,115 M221,114L222,115 M222,114L223,115 M254,114L255,115 M255,114L256,115 M257,114L258,115 M258,114L259,115 M266,114L267,115 M267,114L268,115 M325,114L326,115 M326,114L327,115 M327,114L328,115 M328,114L329,115 M445,114L446,115 M446,114L447,115 M131,115L132,116 M132,115L133,116 M177,115L178,116 M178,115L179,116 M179,115L180,116 M209,115L210,116 M210,115L211,116 M220,115L221,116 M221,115L222,116 M254,115L255,116 M255,115L256,116 M256,115L257,116 M257,115L258,116 M258,115L259,116 M266,115L267,116 M267,115L268,116 M324,115L325,116 M325,115L326,116 M326,115L327,116 M445,115L446,116 M446,115L447,116 M130,116L131,117 M131,116L132,117 M176,116L177,117 M177,116L178,117 M209,116L210,117 M210,116L211,117 M219,116L220,117 M220,116L221,117 M221,116L222,117 M254,116L255,117 M255,116L256,117 M256,116L257,117 M257,116L258,117 M266,116L267,117 M267,116L268,117 M322,116L323,117 M323,116L324,117 M324,116L325,117 M325,116L326,117 M445,116L446,117 M446,116L447,117 M130,117L131,118 M131,117L132,118 M174,117L175,118 M175,117L176,118 M176,117L177,118 M209,117L210,118 M210,117L211,118 M218,117L219,118 M219,117L220,118 M220,117L221,118 M254,117L255,118 M255,117L256,118 M256,117L257,118 M265,117L266,118 M266,117L267,118 M321,117L322,118 M322,117L323,118 M323,117L324,118 M445,117L446,118 M446,117L447,118 M129,118L130,119 M130,118L131,119 M131,118L132,119 M173,118L174,119 M174,118L175,119 M175,118L176,119 M209,118L210,119 M210,118L211,119 M217,118L218,119 M218,118L219,119 M219,118L220,119 M255,118L256,119 M256,118L257,119 M265,118L266,119 M266,118L267,119 M320,118L321,119 M321,118L322,119 M322,118L323,119 M445,118L446,119 M446,118L447,119 M447,118L448,119 M129,119L130,120 M130,119L131,120 M172,119L173,120 M173,119L174,120 M174,119L175,120 M209,119L210,120 M210,119L211,120 M216,119L217,120 M217,119L218,120 M218,119L219,120 M265,119L266,120 M266,119L267,120 M318,119L319,120 M319,119L320,120 M320,119L321,120 M321,119L322,120 M446,119L447,120 M447,119L448,120 M128,120L129,121 M129,120L130,121 M130,120L131,121 M171,120L172,121 M172,120L173,121 M173,120L174,121 M209,120L210,121 M210,120L211,121 M216,120L217,121 M217,120L218,121 M265,120L266,121 M266,120L267,121 M317,120L318,121 M318,120L319,121 M319,120L320,121 M446,120L447,121 M447,120L448,121 M128,121L129,122 M129,121L130,122 M170,121L171,122 M171,121L172,122 M172,121L173,122 M209,121L210,122 M210,121L211,122 M215,121L216,122 M216,121L217,122 M264,121L265,122 M265,121L266,122 M316,121L317,122 M317,121L318,122 M318,121L319,122 M446,121L447,122 M447,121L448,122 M128,122L129,123 M129,122L130,123 M169,122L170,123 M170,122L171,123 M171,122L172,123 M209,122L210,123 M210,122L211,123 M214,122L215,123 M215,122L216,123 M216,122L217,123 M264,122L265,123 M265,122L266,123 M315,122L316,123 M316,122L317,123 M317,122L318,123 M446,122L447,123 M447,122L448,123 M127,123L128,124 M128,123L129,124 M168,123L169,124 M169,123L170,124 M170,123L171,124 M209,123L210,124 M210,123L211,124 M213,123L214,124 M214,123L215,124 M215,123L216,124 M264,123L265,124 M265,123L266,124 M313,123L314,124 M314,123L315,124 M315,123L316,124 M316,123L317,124 M446,123L447,124 M447,123L448,124 M127,124L128,125 M128,124L129,125 M167,124L168,125 M168,124L169,125 M169,124L170,125 M209,124L210,125 M210,124L211,125 M212,124L213,125 M213,124L214,125 M214,124L215,125 M264,124L265,125 M265,124L266,125 M312,124L313,125 M313,124L314,125 M314,124L315,125 M446,124L447,125 M447,124L448,125 M127,125L128,126 M128,125L129,126 M165,125L166,126 M166,125L167,126 M167,125L168,126 M168,125L169,126 M209,125L210,126 M210,125L211,126 M211,125L212,126 M212,125L213,126 M213,125L214,126 M263,125L264,126 M264,125L265,126 M311,125L312,126 M312,125L313,126 M313,125L314,126 M446,125L447,126 M447,125L448,126 M448,125L449,126 M127,126L128,127 M128,126L129,127 M164,126L165,127 M165,126L166,127 M166,126L167,127 M209,126L210,127 M210,126L211,127 M211,126L212,127 M212,126L213,127 M263,126L264,127 M264,126L265,127 M310,126L311,127 M311,126L312,127 M312,126L313,127 M447,126L448,127 M448,126L449,127 M127,127L128,128 M128,127L129,128 M162,127L163,128 M163,127L164,128 M164,127L165,128 M165,127L166,128 M210,127L211,128 M211,127L212,128 M263,127L264,128 M264,127L265,128 M309,127L310,128 M310,127L311,128 M311,127L312,128 M447,127L448,128 M448,127L449,128 M127,128L128,129 M128,128L129,129 M161,128L162,129 M162,128L163,129 M163,128L164,129 M263,128L264,129 M264,128L265,129 M307,128L308,129 M308,128L309,129 M309,128L310,129 M310,128L311,129 M447,128L448,129 M448,128L449,129 M127,129L128,130 M128,129L129,130 M160,129L161,130 M161,129L162,130 M162,129L163,130 M262,129L263,130 M263,129L264,130 M306,129L307,130 M307,129L308,130 M308,129L309,130 M447,129L448,130 M448,129L449,130 M127,130L128,131 M128,130L129,131 M158,130L159,131 M159,130L160,131 M160,130L161,131 M161,130L162,131 M262,130L263,131 M263,130L264,131 M305,130L306,131 M306,130L307,131 M307,130L308,131 M447,130L448,131 M448,130L449,131 M127,131L128,132 M128,131L129,132 M157,131L158,132 M158,131L159,132 M159,131L160,132 M262,131L263,132 M263,131L264,132 M304,131L305,132 M305,131L306,132 M306,131L307,132 M447,131L448,132 M448,131L449,132 M127,132L128,133 M128,132L129,133 M156,132L157,133 M157,132L158,133 M158,132L159,133 M262,132L263,133 M263,132L264,133 M303,132L304,133 M304,132L305,133 M305,132L306,133 M448,132L449,133 M449,132L450,133 M127,133L128,134 M128,133L129,134 M154,133L155,134 M155,133L156,134 M156,133L157,134 M157,133L158,134 M261,133L262,134 M262,133L263,134 M302,133L303,134 M303,133L304,134 M304,133L305,134 M448,133L449,134 M449,133L450,134 M127,134L128,135 M128,134L129,135 M129,134L130,135 M149,134L150,135 M150,134L151,135 M151,134L152,135 M152,134L153,135 M153,134L154,135 M154,134L155,135 M155,134L156,135 M261,134L262,135 M262,134L263,135 M300,134L301,135 M301,134L302,135 M302,134L303,135 M448,134L449,135 M449,134L450,135 M128,135L129,136 M129,135L130,136 M141,135L142,136 M142,135L143,136 M143,135L144,136 M144,135L145,136 M145,135L146,136 M146,135L147,136 M147,135L148,136 M148,135L149,136 M149,135L150,136 M150,135L151,136 M151,135L152,136 M152,135L153,136 M153,135L154,136 M154,135L155,136 M261,135L262,136 M262,135L263,136 M299,135L300,136 M300,135L301,136 M301,135L302,136 M448,135L449,136 M449,135L450,136 M128,136L129,137 M129,136L130,137 M133,136L134,137 M134,136L135,137 M135,136L136,137 M136,136L137,137 M137,136L138,137 M138,136L139,137 M139,136L140,137 M140,136L141,137 M141,136L142,137 M142,136L143,137 M143,136L144,137 M144,136L145,137 M145,136L146,137 M146,136L147,137 M147,136L148,137 M148,136L149,137 M149,136L150,137 M261,136L262,137 M262,136L263,137 M298,136L299,137 M299,136L300,137 M300,136L301,137 M448,136L449,137 M449,136L450,137 M129,137L130,138 M130,137L131,138 M131,137L132,138 M132,137L133,138 M133,137L134,138 M134,137L135,138 M135,137L136,138 M136,137L137,138 M137,137L138,138 M138,137L139,138 M139,137L140,138 M140,137L141,138 M141,137L142,138 M260,137L261,138 M261,137L262,138 M297,137L298,138 M298,137L299,138 M299,137L300,138 M448,137L449,138 M449,137L450,138 M129,138L130,139 M130,138L131,139 M131,138L132,139 M132,138L133,139 M133,138L134,139 M260,138L261,139 M261,138L262,139 M296,138L297,139 M297,138L298,139 M298,138L299,139 M448,138L449,139 M449,138L450,139 M260,139L261,140 M261,139L262,140 M295,139L296,140 M296,139L297,140 M297,139L298,140 M449,139L450,140 M450,139L451,140 M259,140L260,141 M260,140L261,141 M294,140L295,141 M295,140L296,141 M296,140L297,141 M449,140L450,141 M450,140L451,141 M259,141L260,142 M260,141L261,142 M293,141L294,142 M294,141L295,142 M449,141L450,142 M450,141L451,142 M258,142L259,143 M259,142L260,143 M291,142L292,143 M292,142L293,143 M293,142L294,143 M449,142L450,143 M450,142L451,143 M258,143L259,144 M259,143L260,144 M290,143L291,144 M291,143L292,144 M292,143L293,144 M449,143L450,144 M450,143L451,144 M257,144L258,145 M258,144L259,145 M259,144L260,145 M260,144L261,145 M261,144L262,145 M262,144L263,145 M263,144L264,145 M264,144L265,145 M289,144L290,145 M290,144L291,145 M291,144L292,145 M449,144L450,145 M450,144L451,145 M257,145L258,146 M258,145L259,146 M259,145L260,146 M260,145L261,146 M261,145L262,146 M262,145L263,146 M263,145L264,146 M264,145L265,146 M265,145L266,146 M288,145L289,146 M289,145L290,146 M290,145L291,146 M449,145L450,146 M450,145L451,146 M256,146L257,147 M257,146L258,147 M258,146L259,147 M259,146L260,147 M264,146L265,147 M265,146L266,147 M287,146L288,147 M288,146L289,147 M289,146L290,147 M450,146L451,147 M451,146L452,147 M255,147L256,148 M256,147L257,148 M257,147L258,148 M258,147L259,148 M265,147L266,148 M266,147L267,148 M286,147L287,148 M287,147L288,148 M288,147L289,148 M450,147L451,148 M451,147L452,148 M253,148L254,149 M254,148L255,149 M255,148L256,149 M256,148L257,149 M257,148L258,149 M265,148L266,149 M266,148L267,149 M267,148L268,149 M285,148L286,149 M286,148L287,149 M287,148L288,149 M450,148L451,149 M451,148L452,149 M252,149L253,150 M253,149L254,150 M254,149L255,150 M255,149L256,150 M256,149L257,150 M266,149L267,150 M267,149L268,150 M284,149L285,150 M285,149L286,150 M286,149L287,150 M450,149L451,150 M451,149L452,150 M250,150L251,151 M251,150L252,151 M252,150L253,151 M253,150L254,151 M255,150L256,151 M256,150L257,151 M267,150L268,151 M268,150L269,151 M283,150L284,151 M284,150L285,151 M285,150L286,151 M450,150L451,151 M451,150L452,151 M249,151L250,152 M250,151L251,152 M251,151L252,152 M254,151L255,152 M255,151L256,152 M267,151L268,152 M268,151L269,152 M269,151L270,152 M281,151L282,152 M282,151L283,152 M283,151L284,152 M450,151L451,152 M451,151L452,152 M247,152L248,153 M248,152L249,153 M249,152L250,153 M250,152L251,153 M253,152L254,153 M254,152L255,153 M255,152L256,153 M268,152L269,153 M269,152L270,153 M280,152L281,153 M281,152L282,153 M282,152L283,153 M450,152L451,153 M451,152L452,153 M245,153L246,154 M246,153L247,154 M247,153L248,154 M248,153L249,154 M252,153L253,154 M253,153L254,154 M254,153L255,154 M269,153L270,154 M270,153L271,154 M279,153L280,154 M280,153L281,154 M281,153L282,154 M451,153L452,154 M452,153L453,154 M244,154L245,155 M245,154L246,155 M246,154L247,155 M247,154L248,155 M252,154L253,155 M253,154L254,155 M269,154L270,155 M270,154L271,155 M271,154L272,155 M278,154L279,155 M279,154L280,155 M280,154L281,155 M451,154L452,155 M452,154L453,155 M242,155L243,156 M243,155L244,156 M244,155L245,156 M245,155L246,156 M251,155L252,156 M252,155L253,156 M270,155L271,156 M271,155L272,156 M272,155L273,156 M273,155L274,156 M277,155L278,156 M278,155L279,156 M279,155L280,156 M451,155L452,156 M452,155L453,156 M240,156L241,157 M241,156L242,157 M242,156L243,157 M243,156L244,157 M250,156L251,157 M251,156L252,157 M252,156L253,157 M272,156L273,157 M273,156L274,157 M274,156L275,157 M275,156L276,157 M276,156L277,157 M277,156L278,157 M278,156L279,157 M451,156L452,157 M452,156L453,157 M238,157L239,158 M239,157L240,158 M240,157L241,158 M241,157L242,158 M249,157L250,158 M250,157L251,158 M251,157L252,158 M273,157L274,158 M274,157L275,158 M275,157L276,158 M276,157L277,158 M451,157L452,158 M452,157L453,158 M236,158L237,159 M237,158L238,159 M238,158L239,159 M239,158L240,159 M249,158L250,159 M250,158L251,159 M451,158L452,159 M452,158L453,159 M234,159L235,160 M235,159L236,160 M236,159L237,160 M237,159L238,160 M238,159L239,160 M248,159L249,160 M249,159L250,160 M451,159L452,160 M452,159L453,160 M233,160L234,161 M234,160L235,161 M235,160L236,161 M236,160L237,161 M247,160L248,161 M248,160L249,161 M249,160L250,161 M452,160L453,161 M453,160L454,161 M231,161L232,162 M232,161L233,162 M233,161L234,162 M234,161L235,162 M246,161L247,162 M247,161L248,162 M248,161L249,162 M452,161L453,162 M453,161L454,162 M229,162L230,163 M230,162L231,163 M231,162L232,163 M232,162L233,163 M245,162L246,163 M246,162L247,163 M247,162L248,163 M452,162L453,163 M453,162L454,163 M227,163L228,164 M228,163L229,164 M229,163L230,164 M230,163L231,164 M245,163L246,164 M246,163L247,164 M452,163L453,164 M453,163L454,164 M226,164L227,165 M227,164L228,165 M228,164L229,165 M229,164L230,165 M244,164L245,165 M245,164L246,165 M452,164L453,165 M453,164L454,165 M224,165L225,166 M225,165L226,166 M226,165L227,166 M227,165L228,166 M243,165L244,166 M244,165L245,166 M245,165L246,166 M452,165L453,166 M453,165L454,166 M222,166L223,167 M223,166L224,167 M224,166L225,167 M225,166L226,167 M242,166L243,167 M243,166L244,167 M244,166L245,167 M453,166L454,167 M454,166L455,167 M221,167L222,168 M222,167L223,168 M223,167L224,168 M224,167L225,168 M241,167L242,168 M242,167L243,168 M243,167L244,168 M453,167L454,168 M454,167L455,168 M219,168L220,169 M220,168L221,169 M221,168L222,169 M222,168L223,169 M241,168L242,169 M242,168L243,169 M453,168L454,169 M454,168L455,169 M217,169L218,170 M218,169L219,170 M219,169L220,170 M220,169L221,170 M240,169L241,170 M241,169L242,170 M454,169L455,170 M455,169L456,170 M216,170L217,171 M217,170L218,171 M218,170L219,171 M219,170L220,171 M239,170L240,171 M240,170L241,171 M241,170L242,171 M454,170L455,171 M455,170L456,171 M215,171L216,172 M216,171L217,172 M217,171L218,172 M238,171L239,172 M239,171L240,172 M240,171L241,172 M454,171L455,172 M455,171L456,172 M213,172L214,173 M214,172L215,173 M215,172L216,173 M216,172L217,173 M238,172L239,173 M239,172L240,173 M454,172L455,173 M455,172L456,173 M212,173L213,174 M213,173L214,174 M214,173L215,174 M237,173L238,174 M238,173L239,174 M455,173L456,174 M456,173L457,174 M211,174L212,175 M212,174L213,175 M213,174L214,175 M236,174L237,175 M237,174L238,175 M455,174L456,175 M456,174L457,175 M209,175L210,176 M210,175L211,176 M211,175L212,176 M212,175L213,176 M235,175L236,176 M236,175L237,176 M237,175L238,176 M455,175L456,176 M456,175L457,176 M208,176L209,177 M209,176L210,177 M210,176L211,177 M234,176L235,177 M235,176L236,177 M236,176L237,177 M455,176L456,177 M456,176L457,177 M457,176L458,177 M207,177L208,178 M208,177L209,178 M209,177L210,178 M234,177L235,178 M235,177L236,178 M456,177L457,178 M457,177L458,178 M205,178L206,179 M206,178L207,179 M207,178L208,179 M208,178L209,179 M233,178L234,179 M234,178L235,179 M456,178L457,179 M457,178L458,179 M204,179L205,180 M205,179L206,180 M206,179L207,180 M232,179L233,180 M233,179L234,180 M234,179L235,180 M456,179L457,180 M457,179L458,180 M204,180L205,181 M205,180L206,181 M231,180L232,181 M232,180L233,181 M233,180L234,181 M457,180L458,181 M458,180L459,181 M204,181L205,182 M205,181L206,182 M230,181L231,182 M231,181L232,182 M232,181L233,182 M457,181L458,182 M458,181L459,182 M203,182L204,183 M204,182L205,183 M230,182L231,183 M231,182L232,183 M457,182L458,183 M458,182L459,183 M459,182L460,183 M203,183L204,184 M204,183L205,184 M229,183L230,184 M230,183L231,184 M458,183L459,184 M459,183L460,184 M203,184L204,185 M204,184L205,185 M228,184L229,185 M229,184L230,185 M230,184L231,185 M459,184L460,185 M460,184L461,185 M203,185L204,186 M204,185L205,186 M226,185L227,186 M227,185L228,186 M228,185L229,186 M229,185L230,186 M459,185L460,186 M460,185L461,186 M461,185L462,186 M202,186L203,187 M203,186L204,187 M225,186L226,187 M226,186L227,187 M227,186L228,187 M460,186L461,187 M461,186L462,187 M202,187L203,188 M203,187L204,188 M223,187L224,188 M224,187L225,188 M225,187L226,188 M226,187L227,188 M461,187L462,188 M462,187L463,188 M202,188L203,189 M203,188L204,189 M222,188L223,189 M223,188L224,189 M224,188L225,189 M461,188L462,189 M462,188L463,189 M463,188L464,189 M202,189L203,190 M203,189L204,190 M220,189L221,190 M221,189L222,190 M222,189L223,190 M223,189L224,190 M462,189L463,190 M463,189L464,190 M201,190L202,191 M202,190L203,191 M219,190L220,191 M220,190L221,191 M221,190L222,191 M463,190L464,191 M464,190L465,191 M201,191L202,192 M202,191L203,192 M217,191L218,192 M218,191L219,192 M219,191L220,192 M220,191L221,192 M463,191L464,192 M464,191L465,192 M465,191L466,192 M201,192L202,193 M202,192L203,193 M216,192L217,193 M217,192L218,193 M218,192L219,193 M464,192L465,193 M465,192L466,193 M466,192L467,193 M201,193L202,194 M202,193L203,194 M214,193L215,194 M215,193L216,194 M216,193L217,194 M217,193L218,194 M465,193L466,194 M466,193L467,194 M528,193L529,194 M201,194L202,195 M202,194L203,195 M212,194L213,195 M213,194L214,195 M214,194L215,195 M215,194L216,195 M465,194L466,195 M466,194L467,195 M467,194L468,195 M526,194L527,195 M527,194L528,195 M528,194L529,195 M529,194L530,195 M202,195L203,196 M203,195L204,196 M210,195L211,196 M211,195L212,196 M212,195L213,196 M213,195L214,196 M214,195L215,196 M466,195L467,196 M467,195L468,196 M468,195L469,196 M525,195L526,196 M526,195L527,196 M527,195L528,196 M528,195L529,196 M202,196L203,197 M203,196L204,197 M207,196L208,197 M208,196L209,197 M209,196L210,197 M210,196L211,197 M211,196L212,197 M212,196L213,197 M467,196L468,197 M468,196L469,197 M469,196L470,197 M470,196L471,197 M524,196L525,197 M525,196L526,197 M526,196L527,197 M202,197L203,198 M203,197L204,198 M204,197L205,198 M205,197L206,198 M206,197L207,198 M207,197L208,198 M208,197L209,198 M209,197L210,198 M469,197L470,198 M470,197L471,198 M471,197L472,198 M522,197L523,198 M523,197L524,198 M524,197L525,198 M525,197L526,198 M202,198L203,199 M203,198L204,199 M204,198L205,199 M205,198L206,199 M206,198L207,199 M470,198L471,199 M471,198L472,199 M472,198L473,199 M521,198L522,199 M522,198L523,199 M523,198L524,199 M471,199L472,200 M472,199L473,200 M473,199L474,200 M474,199L475,200 M519,199L520,200 M520,199L521,200 M521,199L522,200 M522,199L523,200 M473,200L474,201 M474,200L475,201 M475,200L476,201 M518,200L519,201 M519,200L520,201 M520,200L521,201 M521,200L522,201 M474,201L475,202 M475,201L476,202 M476,201L477,202 M517,201L518,202 M518,201L519,202 M519,201L520,202 M475,202L476,203 M476,202L477,203 M477,202L478,203 M478,202L479,203 M515,202L516,203 M516,202L517,203 M517,202L518,203 M518,202L519,203 M477,203L478,204 M478,203L479,204 M479,203L480,204 M480,203L481,204 M481,203L482,204 M482,203L483,204 M483,203L484,204 M510,203L511,204 M511,203L512,204 M512,203L513,204 M513,203L514,204 M514,203L515,204 M515,203L516,204 M516,203L517,204 M478,204L479,205 M479,204L480,205 M480,204L481,205 M481,204L482,205 M482,204L483,205 M483,204L484,205 M484,204L485,205 M485,204L486,205 M486,204L487,205 M487,204L488,205 M488,204L489,205 M489,204L490,205 M490,204L491,205 M491,204L492,205 M500,204L501,205 M501,204L502,205 M502,204L503,205 M503,204L504,205 M504,204L505,205 M505,204L506,205 M506,204L507,205 M507,204L508,205 M508,204L509,205 M509,204L510,205 M510,204L511,205 M511,204L512,205 M512,204L513,205 M513,204L514,205 M514,204L515,205 M515,204L516,205 M484,205L485,206 M485,205L486,206 M486,205L487,206 M487,205L488,206 M488,205L489,206 M489,205L490,206 M490,205L491,206 M491,205L492,206 M492,205L493,206 M493,205L494,206 M494,205L495,206 M495,205L496,206 M496,205L497,206 M497,205L498,206 M498,205L499,206 M499,205L500,206 M500,205L501,206 M501,205L502,206 M502,205L503,206 M503,205L504,206 M504,205L505,206 M505,205L506,206 M506,205L507,206 M507,205L508,206 M508,205L509,206 M509,205L510,206 M492,206L493,207 M493,206L494,207 M494,206L495,207 M495,206L496,207 M496,206L497,207 M497,206L498,207 M498,206L499,207 M499,206L500,207" fill="none" stroke="black" />
    </svg>