<svg xmlns="http://www.w3.org/2000/svg" width="800" height="250">
        <path d="M263,83L264,84 M264,83L265,84 M263,84L264,85 M264,84L265,85 M263,85L264,86 M264,85L265,86 M263,86L264,87 M264,86L265,87 M263,87L264,88 M264,87L265,88 M263,88L264,89 M264,88L265,89 M263,89L264,90 M264,89L265,90 M263,90L264,91 M264,90L265,91 M263,91L264,92 M264,91L265,92 M263,92L264,93 M264,92L265,93 M263,93L264,94 M264,93L265,94 M263,94L264,95 M264,94L265,95 M264,95L265,96 M265,95L266,96 M264,96L265,97 M265,96L266,97 M264,97L265,98 M265,97L266,98 M265,98L266,99 M266,98L267,99 M265,99L266,100 M266,99L267,100 M266,100L267,101 M267,100L268,101 M266,101L267,102 M267,101L268,102 M266,102L267,103 M267,102L268,103 M267,103L268,104 M268,103L269,104 M267,104L268,105 M268,104L269,105 M269,104L270,105 M268,105L269,106 M269,105L270,106 M270,105L271,106 M271,105L272,106 M270,106L271,107 M271,106L272,107 M272,106L273,107 M271,107L272,108 M272,107L273,108 M273,107L274,108 M274,107L275,108 M273,108L274,109 M274,108L275,109 M275,108L276,109 M274,109L275,110 M275,109L276,110 M276,109L277,110 M277,109L278,110 M276,110L277,111 M277,110L278,111 M278,110L279,111 M277,111L278,112 M278,111L279,112 M279,111L280,112 M280,111L281,112 M279,112L280,113 M280,112L281,113 M281,112L282,113 M282,112L283,113 M280,113L281,114 M281,113L282,114 M282,113L283,114 M283,113L284,114 M282,114L283,115 M283,114L284,115 M284,114L285,115 M285,114L286,115 M286,114L287,115 M287,114L288,115 M288,114L289,115 M284,115L285,116 M285,115L286,116 M286,115L287,116 M287,115L288,116 M288,115L289,116 M289,115L290,116 M290,115L291,116 M291,115L292,116 M292,115L293,116 M293,115L294,116 M294,115L295,116 M289,116L290,117 M290,116L291,117 M291,116L292,117 M292,116L293,117 M293,116L294,117 M294,116L295,117 M295,116L296,117 M296,116L297,117 M297,116L298,117 M298,116L299,117 M299,116L300,117 M300,116L301,117 M295,117L296,118 M296,117L297,118 M297,117L298,118 M298,117L299,118 M299,117L300,118 M300,117L301,118 M301,117L302,118 M302,117L303,118 M303,117L304,118 M304,117L305,118 M305,117L306,118 M306,117L307,118 M301,118L302,119 M302,118L303,119 M303,118L304,119 M304,118L305,119 M305,118L306,119 M306,118L307,119 M307,118L308,119 M308,118L309,119 M309,118L310,119 M310,118L311,119 M311,118L312,119 M312,118L313,119 M307,119L308,120 M308,119L309,120 M309,119L310,120 M310,119L311,120 M311,119L312,120 M312,119L313,120 M313,119L314,120 M314,119L315,120 M315,119L316,120 M316,119L317,120 M317,119L318,120 M318,119L319,120 M313,120L314,121 M314,120L315,121 M315,120L316,121 M316,120L317,121 M317,120L318,121 M318,120L319,121 M319,120L320,121 M320,120L321,121 M321,120L322,121 M322,120L323,121 M323,120L324,121 M324,120L325,121 M319,121L320,122 M320,121L321,122 M321,121L322,122 M322,121L323,122 M323,121L324,122 M324,121L325,122 M325,121L326,122 M326,121L327,122 M327,121L328,122 M328,121L329,122 M329,121L330,122 M330,121L331,122 M325,122L326,123 M326,122L327,123 M327,122L328,123 M328,122L329,123 M329,122L330,123 M330,122L331,123 M331,122L332,123 M332,122L333,123 M333,122L334,123 M334,122L335,123 M335,122L336,123 M336,122L337,123 M331,123L332,124 M332,123L333,124 M333,123L334,124 M334,123L335,124 M335,123L336,124 M336,123L337,124 M337,123L338,124 M338,123L339,124 M339,123L340,124 M340,123L341,124 M341,123L342,124 M342,123L343,124 M337,124L338,125 M338,124L339,125 M339,124L340,125 M340,124L341,125 M341,124L342,125 M342,124L343,125 M343,124L344,125 M344,124L345,125 M345,124L346,125 M346,124L347,125 M347,124L348,125 M342,125L343,126 M343,125L344,126 M344,125L345,126 M345,125L346,126 M346,125L347,126 M347,125L348,126 M348,125L349,126 M349,125L350,126 M350,125L351,126 M351,125L352,126 M352,125L353,126 M353,125L354,126 M348,126L349,127 M349,126L350,127 M350,126L351,127 M351,126L352,127 M352,126L353,127 M353,126L354,127 M354,126L355,127 M355,126L356,127 M356,126L357,127 M357,126L358,127 M358,126L359,127 M354,127L355,128 M355,127L356,128 M356,127L357,128 M357,127L358,128 M358,127L359,128 M359,127L360,128 M360,127L361,128 M361,127L362,128 M362,127L363,128 M363,127L364,128 M358,128L359,129 M359,128L360,129 M360,128L361,129 M361,128L362,129 M362,128L363,129 M363,128L364,129 M364,128L365,129 M365,128L366,129 M366,128L367,129 M367,128L368,129 M363,129L364,130 M364,129L365,130 M365,129L366,130 M366,129L367,130 M367,129L368,130 M368,129L369,130 M369,129L370,130 M370,129L371,130 M371,129L372,130 M372,129L373,130 M368,130L369,131 M369,130L370,131 M370,130L371,131 M371,130L372,131 M372,130L373,131 M373,130L374,131 M374,130L375,131 M375,130L376,131 M376,130L377,131 M377,130L378,131 M373,131L374,132 M374,131L375,132 M375,131L376,132 M376,131L377,132 M377,131L378,132 M378,131L379,132 M379,131L380,132 M380,131L381,132 M381,131L382,132 M382,131L383,132 M378,132L379,133 M379,132L380,133 M380,132L381,133 M381,132L382,133 M382,132L383,133 M383,132L384,133 M384,132L385,133 M385,132L386,133 M386,132L387,133 M387,132L388,133 M388,132L389,133 M389,132L390,133 M383,133L384,134 M384,133L385,134 M385,133L386,134 M386,133L387,134 M387,133L388,134 M388,133L389,134 M389,133L390,134 M390,133L391,134 M391,133L392,134 M392,133L393,134 M393,133L394,134 M394,133L395,134 M395,133L396,134 M396,133L397,134 M397,133L398,134 M389,134L390,135 M390,134L391,135 M391,134L392,135 M392,134L393,135 M393,134L394,135 M394,134L395,135 M395,134L396,135 M396,134L397,135 M397,134L398,135 M398,134L399,135 M399,134L400,135 M400,134L401,135 M401,134L402,135 M402,134L403,135 M403,134L404,135 M404,134L405,135 M405,134L406,135 M397,135L398,136 M398,135L399,136 M399,135L400,136 M400,135L401,136 M401,135L402,136 M402,135L403,136 M403,135L404,136 M404,135L405,136 M405,135L406,136 M406,135L407,136 M407,135L408,136 M408,135L409,136 M409,135L410,136 M410,135L411,136 M411,135L412,136 M412,135L413,136 M413,135L414,136 M388,136L389,137 M389,136L390,137 M390,136L391,137 M391,136L392,137 M405,136L406,137 M406,136L407,137 M407,136L408,137 M408,136L409,137 M409,136L410,137 M410,136L411,137 M411,136L412,137 M412,136L413,137 M413,136L414,137 M414,136L415,137 M415,136L416,137 M416,136L417,137 M417,136L418,137 M418,136L419,137 M419,136L420,137 M420,136L421,137 M421,136L422,137 M387,137L388,138 M388,137L389,138 M389,137L390,138 M390,137L391,138 M391,137L392,138 M392,137L393,138 M393,137L394,138 M413,137L414,138 M414,137L415,138 M415,137L416,138 M416,137L417,138 M417,137L418,138 M418,137L419,138 M419,137L420,138 M420,137L421,138 M421,137L422,138 M422,137L423,138 M423,137L424,138 M424,137L425,138 M425,137L426,138 M426,137L427,138 M389,138L390,139 M390,138L391,139 M391,138L392,139 M392,138L393,139 M393,138L394,139 M394,138L395,139 M421,138L422,139 M422,138L423,139 M423,138L424,139 M424,138L425,139 M425,138L426,139 M426,138L427,139 M427,138L428,139 M428,138L429,139 M429,138L430,139 M430,138L431,139 M431,138L432,139 M390,139L391,140 M391,139L392,140 M392,139L393,140 M393,139L394,140 M394,139L395,140 M395,139L396,140 M396,139L397,140 M427,139L428,140 M428,139L429,140 M429,139L430,140 M430,139L431,140 M431,139L432,140 M432,139L433,140 M433,139L434,140 M434,139L435,140 M435,139L436,140 M392,140L393,141 M393,140L394,141 M394,140L395,141 M395,140L396,141 M396,140L397,141 M397,140L398,141 M431,140L432,141 M432,140L433,141 M433,140L434,141 M434,140L435,141 M435,140L436,141 M436,140L437,141 M437,140L438,141 M438,140L439,141 M439,140L440,141 M393,141L394,142 M394,141L395,142 M395,141L396,142 M396,141L397,142 M397,141L398,142 M398,141L399,142 M399,141L400,142 M436,141L437,142 M437,141L438,142 M438,141L439,142 M439,141L440,142 M440,141L441,142 M441,141L442,142 M442,141L443,142 M443,141L444,142 M395,142L396,143 M396,142L397,143 M397,142L398,143 M398,142L399,143 M399,142L400,143 M400,142L401,143 M440,142L441,143 M441,142L442,143 M442,142L443,143 M443,142L444,143 M444,142L445,143 M445,142L446,143 M446,142L447,143 M447,142L448,143 M396,143L397,144 M397,143L398,144 M398,143L399,144 M399,143L400,144 M400,143L401,144 M401,143L402,144 M444,143L445,144 M445,143L446,144 M446,143L447,144 M447,143L448,144 M448,143L449,144 M449,143L450,144 M450,143L451,144 M451,143L452,144 M398,144L399,145 M399,144L400,145 M400,144L401,145 M401,144L402,145 M402,144L403,145 M448,144L449,145 M449,144L450,145 M450,144L451,145 M451,144L452,145 M452,144L453,145 M453,144L454,145 M454,144L455,145 M455,144L456,145 M399,145L400,146 M400,145L401,146 M401,145L402,146 M402,145L403,146 M403,145L404,146 M404,145L405,146 M452,145L453,146 M453,145L454,146 M454,145L455,146 M455,145L456,146 M456,145L457,146 M457,145L458,146 M458,145L459,146 M459,145L460,146 M460,145L461,146 M401,146L402,147 M402,146L403,147 M403,146L404,147 M404,146L405,147 M405,146L406,147 M456,146L457,147 M457,146L458,147 M458,146L459,147 M459,146L460,147 M460,146L461,147 M461,146L462,147 M462,146L463,147 M463,146L464,147 M464,146L465,147 M402,147L403,148 M403,147L404,148 M404,147L405,148 M405,147L406,148 M406,147L407,148 M460,147L461,148 M461,147L462,148 M462,147L463,148 M463,147L464,148 M464,147L465,148 M465,147L466,148 M466,147L467,148 M467,147L468,148 M468,147L469,148 M404,148L405,149 M405,148L406,149 M406,148L407,149 M407,148L408,149 M465,148L466,149 M466,148L467,149 M467,148L468,149 M468,148L469,149 M469,148L470,149 M470,148L471,149 M471,148L472,149 M472,148L473,149 M405,149L406,150 M406,149L407,150 M407,149L408,150 M408,149L409,150 M409,149L410,150 M469,149L470,150 M470,149L471,150 M471,149L472,150 M472,149L473,150 M473,149L474,150 M474,149L475,150 M475,149L476,150 M476,149L477,150 M406,150L407,151 M407,150L408,151 M408,150L409,151 M409,150L410,151 M410,150L411,151 M411,150L412,151 M473,150L474,151 M474,150L475,151 M475,150L476,151 M476,150L477,151 M477,150L478,151 M478,150L479,151 M479,150L480,151 M480,150L481,151 M407,151L408,152 M408,151L409,152 M409,151L410,152 M410,151L411,152 M411,151L412,152 M412,151L413,152 M477,151L478,152 M478,151L479,152 M479,151L480,152 M480,151L481,152 M481,151L482,152 M482,151L483,152 M483,151L484,152 M484,151L485,152 M485,151L486,152 M407,152L408,153 M408,152L409,153 M409,152L410,153 M411,152L412,153 M412,152L413,153 M413,152L414,153 M414,152L415,153 M481,152L482,153 M482,152L483,153 M483,152L484,153 M484,152L485,153 M485,152L486,153 M486,152L487,153 M487,152L488,153 M488,152L489,153 M489,152L490,153 M408,153L409,154 M409,153L410,154 M413,153L414,154 M414,153L415,154 M415,153L416,154 M416,153L417,154 M485,153L486,154 M486,153L487,154 M487,153L488,154 M488,153L489,154 M489,153L490,154 M490,153L491,154 M491,153L492,154 M492,153L493,154 M493,153L494,154 M408,154L409,155 M409,154L410,155 M410,154L411,155 M415,154L416,155 M416,154L417,155 M417,154L418,155 M489,154L490,155 M490,154L491,155 M491,154L492,155 M492,154L493,155 M493,154L494,155 M494,154L495,155 M495,154L496,155 M496,154L497,155 M497,154L498,155 M409,155L410,156 M410,155L411,156 M416,155L417,156 M417,155L418,156 M418,155L419,156 M419,155L420,156 M494,155L495,156 M495,155L496,156 M496,155L497,156 M497,155L498,156 M498,155L499,156 M499,155L500,156 M500,155L501,156 M501,155L502,156 M410,156L411,157 M411,156L412,157 M418,156L419,157 M419,156L420,157 M420,156L421,157 M421,156L422,157 M498,156L499,157 M499,156L500,157 M500,156L501,157 M501,156L502,157 M502,156L503,157 M503,156L504,157 M504,156L505,157 M505,156L506,157 M410,157L411,158 M411,157L412,158 M420,157L421,158 M421,157L422,158 M422,157L423,158 M502,157L503,158 M503,157L504,158 M504,157L505,158 M505,157L506,158 M506,157L507,158 M507,157L508,158 M508,157L509,158 M509,157L510,158 M411,158L412,159 M412,158L413,159 M421,158L422,159 M422,158L423,159 M423,158L424,159 M424,158L425,159 M506,158L507,159 M507,158L508,159 M508,158L509,159 M509,158L510,159 M510,158L511,159 M511,158L512,159 M512,158L513,159 M411,159L412,160 M412,159L413,160 M423,159L424,160 M424,159L425,160 M425,159L426,160 M426,159L427,160 M510,159L511,160 M511,159L512,160 M512,159L513,160 M513,159L514,160 M514,159L515,160 M515,159L516,160 M412,160L413,161 M413,160L414,161 M424,160L425,161 M425,160L426,161 M426,160L427,161 M427,160L428,161 M513,160L514,161 M514,160L515,161 M515,160L516,161 M516,160L517,161 M517,160L518,161 M518,160L519,161 M412,161L413,162 M413,161L414,162 M426,161L427,162 M427,161L428,162 M428,161L429,162 M429,161L430,162 M516,161L517,162 M517,161L518,162 M518,161L519,162 M519,161L520,162 M520,161L521,162 M521,161L522,162 M412,162L413,163 M413,162L414,163 M414,162L415,163 M428,162L429,163 M429,162L430,163 M430,162L431,163 M431,162L432,163 M519,162L520,163 M520,162L521,163 M521,162L522,163 M522,162L523,163 M523,162L524,163 M524,162L525,163 M413,163L414,164 M414,163L415,164 M429,163L430,164 M430,163L431,164 M431,163L432,164 M432,163L433,164 M522,163L523,164 M523,163L524,164 M524,163L525,164 M525,163L526,164 M526,163L527,164 M527,163L528,164 M413,164L414,165 M414,164L415,165 M415,164L416,165 M431,164L432,165 M432,164L433,165 M433,164L434,165 M434,164L435,165 M525,164L526,165 M526,164L527,165 M527,164L528,165 M528,164L529,165 M529,164L530,165 M530,164L531,165 M414,165L415,166 M415,165L416,166 M433,165L434,166 M434,165L435,166 M435,165L436,166 M436,165L437,166 M528,165L529,166 M529,165L530,166 M530,165L531,166 M531,165L532,166 M532,165L533,166 M533,165L534,166 M414,166L415,167 M415,166L416,167 M416,166L417,167 M434,166L435,167 M435,166L436,167 M436,166L437,167 M437,166L438,167 M531,166L532,167 M532,166L533,167 M533,166L534,167 M534,166L535,167 M535,166L536,167 M536,166L537,167 M415,167L416,168 M416,167L417,168 M436,167L437,168 M437,167L438,168 M438,167L439,168 M439,167L440,168 M534,167L535,168 M535,167L536,168 M536,167L537,168 M537,167L538,168 M538,167L539,168 M415,168L416,169 M416,168L417,169 M438,168L439,169 M439,168L440,169 M440,168L441,169 M441,168L442,169 M537,168L538,169 M538,168L539,169 M539,168L540,169 M540,168L541,169 M416,169L417,170 M417,169L418,170 M439,169L440,170 M440,169L441,170 M441,169L442,170 M442,169L443,170 M539,169L540,170 M540,169L541,170 M541,169L542,170 M542,169L543,170 M416,170L417,171 M417,170L418,171 M441,170L442,171 M442,170L443,171 M443,170L444,171 M444,170L445,171 M541,170L542,171 M542,170L543,171 M543,170L544,171 M544,170L545,171 M416,171L417,172 M417,171L418,172 M443,171L444,172 M444,171L445,172 M445,171L446,172 M446,171L447,172 M542,171L543,172 M543,171L544,172 M544,171L545,172 M545,171L546,172 M416,172L417,173 M417,172L418,173 M444,172L445,173 M445,172L446,173 M446,172L447,173 M447,172L448,173 M544,172L545,173 M545,172L546,173 M546,172L547,173 M547,172L548,173 M416,173L417,174 M417,173L418,174 M446,173L447,174 M447,173L448,174 M448,173L449,174 M449,173L450,174 M546,173L547,174 M547,173L548,174 M548,173L549,174 M549,173L550,174 M417,174L418,175 M418,174L419,175 M448,174L449,175 M449,174L450,175 M450,174L451,175 M451,174L452,175 M548,174L549,175 M549,174L550,175 M550,174L551,175 M551,174L552,175 M417,175L418,176 M418,175L419,176 M450,175L451,176 M451,175L452,176 M452,175L453,176 M550,175L551,176 M551,175L552,176 M552,175L553,176 M553,175L554,176 M417,176L418,177 M418,176L419,177 M451,176L452,177 M452,176L453,177 M453,176L454,177 M454,176L455,177 M551,176L552,177 M552,176L553,177 M553,176L554,177 M554,176L555,177 M417,177L418,178 M418,177L419,178 M453,177L454,178 M454,177L455,178 M455,177L456,178 M456,177L457,178 M553,177L554,178 M554,177L555,178 M555,177L556,178 M556,177L557,178 M417,178L418,179 M418,178L419,179 M455,178L456,179 M456,178L457,179 M457,178L458,179 M458,178L459,179 M555,178L556,179 M556,178L557,179 M557,178L558,179 M558,178L559,179 M417,179L418,180 M418,179L419,180 M456,179L457,180 M457,179L458,180 M458,179L459,180 M459,179L460,180 M557,179L558,180 M558,179L559,180 M559,179L560,180 M560,179L561,180 M418,180L419,181 M419,180L420,181 M458,180L459,181 M459,180L460,181 M460,180L461,181 M461,180L462,181 M558,180L559,181 M559,180L560,181 M560,180L561,181 M561,180L562,181 M418,181L419,182 M419,181L420,182 M460,181L461,182 M461,181L462,182 M462,181L463,182 M463,181L464,182 M560,181L561,182 M561,181L562,182 M562,181L563,182 M563,181L564,182 M418,182L419,183 M419,182L420,183 M461,182L462,183 M462,182L463,183 M463,182L464,183 M464,182L465,183 M562,182L563,183 M563,182L564,183 M564,182L565,183 M565,182L566,183 M419,183L420,184 M420,183L421,184 M463,183L464,184 M464,183L465,184 M465,183L466,184 M466,183L467,184 M564,183L565,184 M565,183L566,184 M566,183L567,184 M567,183L568,184 M419,184L420,185 M420,184L421,185 M465,184L466,185 M466,184L467,185 M467,184L468,185 M468,184L469,185 M565,184L566,185 M566,184L567,185 M567,184L568,185 M568,184L569,185 M419,185L420,186 M420,185L421,186 M421,185L422,186 M466,185L467,186 M467,185L468,186 M468,185L469,186 M469,185L470,186 M567,185L568,186 M568,185L569,186 M569,185L570,186 M420,186L421,187 M421,186L422,187 M468,186L469,187 M469,186L470,187 M470,186L471,187 M471,186L472,187 M568,186L569,187 M569,186L570,187 M570,186L571,187 M420,187L421,188 M421,187L422,188 M470,187L471,188 M471,187L472,188 M472,187L473,188 M473,187L474,188 M569,187L570,188 M570,187L571,188 M571,187L572,188 M420,188L421,189 M421,188L422,189 M471,188L472,189 M472,188L473,189 M473,188L474,189 M474,188L475,189 M570,188L571,189 M571,188L572,189 M421,189L422,190 M422,189L423,190 M473,189L474,190 M474,189L475,190 M475,189L476,190 M476,189L477,190 M571,189L572,190 M572,189L573,190 M421,190L422,191 M422,190L423,191 M475,190L476,191 M476,190L477,191 M477,190L478,191 M478,190L479,191 M571,190L572,191 M572,190L573,191 M573,190L574,191 M421,191L422,192 M422,191L423,192 M477,191L478,192 M478,191L479,192 M479,191L480,192 M572,191L573,192 M573,191L574,192 M574,191L575,192 M421,192L422,193 M422,192L423,193 M478,192L479,193 M479,192L480,193 M480,192L481,193 M481,192L482,193 M573,192L574,193 M574,192L575,193 M422,193L423,194 M423,193L424,194 M480,193L481,194 M481,193L482,194 M482,193L483,194 M483,193L484,194 M573,193L574,194 M574,193L575,194 M422,194L423,195 M423,194L424,195 M482,194L483,195 M483,194L484,195 M484,194L485,195 M485,194L486,195 M574,194L575,195 M575,194L576,195 M422,195L423,196 M423,195L424,196 M483,195L484,196 M484,195L485,196 M485,195L486,196 M486,195L487,196 M487,195L488,196 M574,195L575,196 M575,195L576,196 M422,196L423,197 M423,196L424,197 M485,196L486,197 M486,196L487,197 M487,196L488,197 M488,196L489,197 M489,196L490,197 M574,196L575,197 M575,196L576,197 M422,197L423,198 M423,197L424,198 M424,197L425,198 M487,197L488,198 M488,197L489,198 M489,197L490,198 M490,197L491,198 M491,197L492,198 M574,197L575,198 M575,197L576,198 M423,198L424,199 M424,198L425,199 M489,198L490,199 M490,198L491,199 M491,198L492,199 M492,198L493,199 M493,198L494,199 M494,198L495,199 M574,198L575,199 M575,198L576,199 M576,198L577,199 M423,199L424,200 M424,199L425,200 M492,199L493,200 M493,199L494,200 M494,199L495,200 M495,199L496,200 M496,199L497,200 M575,199L576,200 M576,199L577,200 M423,200L424,201 M424,200L425,201 M494,200L495,201 M495,200L496,201 M496,200L497,201 M497,200L498,201 M498,200L499,201 M575,200L576,201 M576,200L577,201 M423,201L424,202 M424,201L425,202 M497,201L498,202 M498,201L499,202 M499,201L500,202 M500,201L501,202 M501,201L502,202 M575,201L576,202 M576,201L577,202 M424,202L425,203 M425,202L426,203 M499,202L500,203 M500,202L501,203 M501,202L502,203 M502,202L503,203 M503,202L504,203 M575,202L576,203 M576,202L577,203 M424,203L425,204 M425,203L426,204 M501,203L502,204 M502,203L503,204 M503,203L504,204 M504,203L505,204 M505,203L506,204 M576,203L577,204 M577,203L578,204 M424,204L425,205 M425,204L426,205 M504,204L505,205 M505,204L506,205 M506,204L507,205 M507,204L508,205 M508,204L509,205 M576,204L577,205 M577,204L578,205 M425,205L426,206 M426,205L427,206 M506,205L507,206 M507,205L508,206 M508,205L509,206 M509,205L510,206 M510,205L511,206 M576,205L577,206 M577,205L578,206 M425,206L426,207 M426,206L427,207 M508,206L509,207 M509,206L510,207 M510,206L511,207 M511,206L512,207 M512,206L513,207 M576,206L577,207 M577,206L578,207 M425,207L426,208 M426,207L427,208 M511,207L512,208 M512,207L513,208 M513,207L514,208 M514,207L515,208 M575,207L576,208 M576,207L577,208 M426,208L427,209 M427,208L428,209 M513,208L514,209 M514,208L515,209 M515,208L516,209 M516,208L517,209 M575,208L576,209 M576,208L577,209 M426,209L427,210 M427,209L428,210 M515,209L516,210 M516,209L517,210 M517,209L518,210 M518,209L519,210 M573,209L574,210 M574,209L575,210 M575,209L576,210 M576,209L577,210 M427,210L428,211 M428,210L429,211 M517,210L518,211 M518,210L519,211 M519,210L520,211 M520,210L521,211 M571,210L572,211 M572,210L573,211 M573,210L574,211 M574,210L575,211 M427,211L428,212 M428,211L429,212 M519,211L520,212 M520,211L521,212 M521,211L522,212 M522,211L523,212 M567,211L568,212 M568,211L569,212 M569,211L570,212 M570,211L571,212 M571,211L572,212 M572,211L573,212 M427,212L428,213 M428,212L429,213 M521,212L522,213 M522,212L523,213 M523,212L524,213 M524,212L525,213 M562,212L563,213 M563,212L564,213 M564,212L565,213 M565,212L566,213 M566,212L567,213 M567,212L568,213 M568,212L569,213 M569,212L570,213 M570,212L571,213 M428,213L429,214 M429,213L430,214 M523,213L524,214 M524,213L525,214 M525,213L526,214 M526,213L527,214 M527,213L528,214 M528,213L529,214 M558,213L559,214 M559,213L560,214 M560,213L561,214 M561,213L562,214 M562,213L563,214 M563,213L564,214 M564,213L565,214 M565,213L566,214 M566,213L567,214 M428,214L429,215 M429,214L430,215 M525,214L526,215 M526,214L527,215 M527,214L528,215 M528,214L529,215 M529,214L530,215 M530,214L531,215 M531,214L532,215 M532,214L533,215 M533,214L534,215 M534,214L535,215 M553,214L554,215 M554,214L555,215 M555,214L556,215 M556,214L557,215 M557,214L558,215 M558,214L559,215 M559,214L560,215 M560,214L561,215 M561,214L562,215 M562,214L563,215 M429,215L430,216 M430,215L431,216 M529,215L530,216 M530,215L531,216 M531,215L532,216 M532,215L533,216 M533,215L534,216 M534,215L535,216 M535,215L536,216 M536,215L537,216 M537,215L538,216 M538,215L539,216 M539,215L540,216 M540,215L541,216 M541,215L542,216 M542,215L543,216 M543,215L544,216 M544,215L545,216 M545,215L546,216 M546,215L547,216 M547,215L548,216 M548,215L549,216 M549,215L550,216 M550,215L551,216 M551,215L552,216 M552,215L553,216 M553,215L554,216 M554,215L555,216 M555,215L556,216 M556,215L557,216 M557,215L558,216 M429,216L430,217 M430,216L431,217 M431,216L432,217 M535,216L536,217 M536,216L537,217 M537,216L538,217 M538,216L539,217 M539,216L540,217 M540,216L541,217 M541,216L542,217 M542,216L543,217 M543,216L544,217 M544,216L545,217 M545,216L546,217 M546,216L547,217 M547,216L548,217 M548,216L549,217 M549,216L550,217 M550,216L551,217 M551,216L552,217 M552,216L553,217 M430,217L431,218 M431,217L432,218 M430,218L431,219 M431,218L432,219 M432,218L433,219 M431,219L432,220 M432,219L433,220 M432,220L433,221 M433,220L434,221 M432,221L433,222" fill="none" stroke="black" />
    </svg>