<svg xmlns="http://www.w3.org/2000/svg" width="800" height="250">
        <path d="M400,45L401,46 M401,45L402,46 M400,46L401,47 M401,46L402,47 M400,47L401,48 M401,47L402,48 M400,48L401,49 M401,48L402,49 M400,49L401,50 M401,49L402,50 M399,50L400,51 M400,50L401,51 M401,50L402,51 M399,51L400,52 M400,51L401,52 M401,51L402,52 M296,52L297,53 M297,52L298,53 M399,52L400,53 M400,52L401,53 M401,52L402,53 M296,53L297,54 M297,53L298,54 M399,53L400,54 M400,53L401,54 M401,53L402,54 M296,54L297,55 M297,54L298,55 M399,54L400,55 M400,54L401,55 M401,54L402,55 M295,55L296,56 M296,55L297,56 M297,55L298,56 M398,55L399,56 M399,55L400,56 M400,55L401,56 M401,55L402,56 M295,56L296,57 M296,56L297,57 M398,56L399,57 M399,56L400,57 M400,56L401,57 M295,57L296,58 M296,57L297,58 M398,57L399,58 M399,57L400,58 M400,57L401,58 M294,58L295,59 M295,58L296,59 M296,58L297,59 M398,58L399,59 M399,58L400,59 M400,58L401,59 M294,59L295,60 M295,59L296,60 M296,59L297,60 M398,59L399,60 M399,59L400,60 M400,59L401,60 M294,60L295,61 M295,60L296,61 M397,60L398,61 M398,60L399,61 M399,60L400,61 M400,60L401,61 M293,61L294,62 M294,61L295,62 M295,61L296,62 M397,61L398,62 M398,61L399,62 M399,61L400,62 M400,61L401,62 M293,62L294,63 M294,62L295,63 M295,62L296,63 M397,62L398,63 M398,62L399,63 M399,62L400,63 M400,62L401,63 M292,63L293,64 M293,63L294,64 M294,63L295,64 M396,63L397,64 M397,63L398,64 M398,63L399,64 M399,63L400,64 M400,63L401,64 M292,64L293,65 M293,64L294,65 M294,64L295,65 M396,64L397,65 M397,64L398,65 M399,64L400,65 M400,64L401,65 M292,65L293,66 M293,65L294,66 M294,65L295,66 M396,65L397,66 M397,65L398,66 M399,65L400,66 M400,65L401,66 M291,66L292,67 M292,66L293,67 M293,66L294,67 M395,66L396,67 M396,66L397,67 M397,66L398,67 M399,66L400,67 M400,66L401,67 M291,67L292,68 M292,67L293,68 M293,67L294,68 M395,67L396,68 M396,67L397,68 M399,67L400,68 M400,67L401,68 M291,68L292,69 M292,68L293,69 M395,68L396,69 M396,68L397,69 M399,68L400,69 M400,68L401,69 M290,69L291,70 M291,69L292,70 M292,69L293,70 M394,69L395,70 M395,69L396,70 M396,69L397,70 M399,69L400,70 M400,69L401,70 M290,70L291,71 M291,70L292,71 M292,70L293,71 M394,70L395,71 M395,70L396,71 M399,70L400,71 M400,70L401,71 M290,71L291,72 M291,71L292,72 M394,71L395,72 M395,71L396,72 M399,71L400,72 M400,71L401,72 M289,72L290,73 M290,72L291,73 M291,72L292,73 M393,72L394,73 M394,72L395,73 M395,72L396,73 M399,72L400,73 M400,72L401,73 M289,73L290,74 M290,73L291,74 M393,73L394,74 M394,73L395,74 M399,73L400,74 M400,73L401,74 M288,74L289,75 M289,74L290,75 M290,74L291,75 M393,74L394,75 M394,74L395,75 M399,74L400,75 M400,74L401,75 M288,75L289,76 M289,75L290,76 M392,75L393,76 M393,75L394,76 M394,75L395,76 M399,75L400,76 M400,75L401,76 M288,76L289,77 M289,76L290,77 M392,76L393,77 M393,76L394,77 M399,76L400,77 M400,76L401,77 M287,77L288,78 M288,77L289,78 M289,77L290,78 M392,77L393,78 M393,77L394,78 M399,77L400,78 M400,77L401,78 M205,78L206,79 M206,78L207,79 M287,78L288,79 M288,78L289,79 M391,78L392,79 M392,78L393,79 M393,78L394,79 M399,78L400,79 M400,78L401,79 M204,79L205,80 M205,79L206,80 M206,79L207,80 M287,79L288,80 M288,79L289,80 M391,79L392,80 M392,79L393,80 M399,79L400,80 M400,79L401,80 M202,80L203,81 M203,80L204,81 M204,80L205,81 M205,80L206,81 M286,80L287,81 M287,80L288,81 M391,80L392,81 M392,80L393,81 M399,80L400,81 M400,80L401,81 M201,81L202,82 M202,81L203,82 M203,81L204,82 M286,81L287,82 M287,81L288,82 M390,81L391,82 M391,81L392,82 M392,81L393,82 M399,81L400,82 M400,81L401,82 M199,82L200,83 M200,82L201,83 M201,82L202,83 M202,82L203,83 M285,82L286,83 M286,82L287,83 M287,82L288,83 M390,82L391,83 M391,82L392,83 M399,82L400,83 M400,82L401,83 M198,83L199,84 M199,83L200,84 M200,83L201,84 M201,83L202,84 M285,83L286,84 M286,83L287,84 M390,83L391,84 M391,83L392,84 M399,83L400,84 M400,83L401,84 M197,84L198,85 M198,84L199,85 M199,84L200,85 M284,84L285,85 M285,84L286,85 M286,84L287,85 M389,84L390,85 M390,84L391,85 M391,84L392,85 M399,84L400,85 M400,84L401,85 M195,85L196,86 M196,85L197,86 M197,85L198,86 M198,85L199,86 M284,85L285,86 M285,85L286,86 M286,85L287,86 M389,85L390,86 M390,85L391,86 M399,85L400,86 M400,85L401,86 M194,86L195,87 M195,86L196,87 M196,86L197,87 M284,86L285,87 M285,86L286,87 M389,86L390,87 M390,86L391,87 M399,86L400,87 M400,86L401,87 M193,87L194,88 M194,87L195,88 M195,87L196,88 M283,87L284,88 M284,87L285,88 M285,87L286,88 M388,87L389,88 M389,87L390,88 M390,87L391,88 M399,87L400,88 M400,87L401,88 M192,88L193,89 M193,88L194,89 M194,88L195,89 M283,88L284,89 M284,88L285,89 M285,88L286,89 M388,88L389,89 M389,88L390,89 M399,88L400,89 M400,88L401,89 M191,89L192,90 M192,89L193,90 M193,89L194,90 M282,89L283,90 M283,89L284,90 M284,89L285,90 M388,89L389,90 M389,89L390,90 M399,89L400,90 M400,89L401,90 M190,90L191,91 M191,90L192,91 M192,90L193,91 M282,90L283,91 M283,90L284,91 M284,90L285,91 M387,90L388,91 M388,90L389,91 M389,90L390,91 M399,90L400,91 M400,90L401,91 M189,91L190,92 M190,91L191,92 M191,91L192,92 M281,91L282,92 M282,91L283,92 M283,91L284,92 M332,91L333,92 M333,91L334,92 M387,91L388,92 M388,91L389,92 M399,91L400,92 M400,91L401,92 M188,92L189,93 M189,92L190,93 M190,92L191,93 M281,92L282,93 M282,92L283,93 M283,92L284,93 M330,92L331,93 M331,92L332,93 M332,92L333,93 M333,92L334,93 M387,92L388,93 M388,92L389,93 M399,92L400,93 M400,92L401,93 M186,93L187,94 M187,93L188,94 M188,93L189,94 M281,93L282,94 M282,93L283,94 M283,93L284,94 M329,93L330,94 M330,93L331,94 M331,93L332,94 M332,93L333,94 M386,93L387,94 M387,93L388,94 M388,93L389,94 M399,93L400,94 M400,93L401,94 M185,94L186,95 M186,94L187,95 M187,94L188,95 M280,94L281,95 M281,94L282,95 M282,94L283,95 M327,94L328,95 M328,94L329,95 M329,94L330,95 M330,94L331,95 M331,94L332,95 M386,94L387,95 M387,94L388,95 M399,94L400,95 M400,94L401,95 M184,95L185,96 M185,95L186,96 M186,95L187,96 M280,95L281,96 M281,95L282,96 M282,95L283,96 M325,95L326,96 M326,95L327,96 M327,95L328,96 M328,95L329,96 M329,95L330,96 M386,95L387,96 M387,95L388,96 M399,95L400,96 M400,95L401,96 M183,96L184,97 M184,96L185,97 M185,96L186,97 M279,96L280,97 M280,96L281,97 M281,96L282,97 M324,96L325,97 M325,96L326,97 M326,96L327,97 M327,96L328,97 M328,96L329,97 M385,96L386,97 M386,96L387,97 M387,96L388,97 M399,96L400,97 M400,96L401,97 M182,97L183,98 M183,97L184,98 M184,97L185,98 M279,97L280,98 M280,97L281,98 M281,97L282,98 M322,97L323,98 M323,97L324,98 M324,97L325,98 M325,97L326,98 M326,97L327,98 M327,97L328,98 M385,97L386,98 M386,97L387,98 M399,97L400,98 M400,97L401,98 M181,98L182,99 M182,98L183,99 M183,98L184,99 M278,98L279,99 M279,98L280,99 M280,98L281,99 M321,98L322,99 M322,98L323,99 M323,98L324,99 M324,98L325,99 M325,98L326,99 M326,98L327,99 M385,98L386,99 M386,98L387,99 M399,98L400,99 M400,98L401,99 M180,99L181,100 M181,99L182,100 M182,99L183,100 M278,99L279,100 M279,99L280,100 M280,99L281,100 M319,99L320,100 M320,99L321,100 M321,99L322,100 M322,99L323,100 M323,99L324,100 M324,99L325,100 M384,99L385,100 M385,99L386,100 M386,99L387,100 M399,99L400,100 M400,99L401,100 M180,100L181,101 M181,100L182,101 M278,100L279,101 M279,100L280,101 M280,100L281,101 M317,100L318,101 M318,100L319,101 M319,100L320,101 M320,100L321,101 M321,100L322,101 M322,100L323,101 M323,100L324,101 M384,100L385,101 M385,100L386,101 M399,100L400,101 M400,100L401,101 M582,100L583,101 M583,100L584,101 M584,100L585,101 M179,101L180,102 M180,101L181,102 M277,101L278,102 M278,101L279,102 M279,101L280,102 M316,101L317,102 M317,101L318,102 M318,101L319,102 M321,101L322,102 M322,101L323,102 M384,101L385,102 M385,101L386,102 M399,101L400,102 M400,101L401,102 M578,101L579,102 M579,101L580,102 M580,101L581,102 M581,101L582,102 M582,101L583,102 M583,101L584,102 M584,101L585,102 M178,102L179,103 M179,102L180,103 M277,102L278,103 M278,102L279,103 M279,102L280,103 M314,102L315,103 M315,102L316,103 M316,102L317,103 M317,102L318,103 M320,102L321,103 M321,102L322,103 M383,102L384,103 M384,102L385,103 M385,102L386,103 M399,102L400,103 M400,102L401,103 M575,102L576,103 M576,102L577,103 M577,102L578,103 M578,102L579,103 M579,102L580,103 M580,102L581,103 M581,102L582,103 M177,103L178,104 M178,103L179,104 M179,103L180,104 M276,103L277,104 M277,103L278,104 M278,103L279,104 M312,103L313,104 M313,103L314,104 M314,103L315,104 M315,103L316,104 M319,103L320,104 M320,103L321,104 M383,103L384,104 M384,103L385,104 M399,103L400,104 M400,103L401,104 M571,103L572,104 M572,103L573,104 M573,103L574,104 M574,103L575,104 M575,103L576,104 M576,103L577,104 M577,103L578,104 M176,104L177,105 M177,104L178,105 M178,104L179,105 M276,104L277,105 M277,104L278,105 M278,104L279,105 M311,104L312,105 M312,104L313,105 M313,104L314,105 M314,104L315,105 M318,104L319,105 M319,104L320,105 M320,104L321,105 M383,104L384,105 M384,104L385,105 M399,104L400,105 M400,104L401,105 M408,104L409,105 M409,104L410,105 M410,104L411,105 M411,104L412,105 M412,104L413,105 M413,104L414,105 M414,104L415,105 M415,104L416,105 M416,104L417,105 M417,104L418,105 M418,104L419,105 M419,104L420,105 M420,104L421,105 M421,104L422,105 M568,104L569,105 M569,104L570,105 M570,104L571,105 M571,104L572,105 M572,104L573,105 M573,104L574,105 M574,104L575,105 M175,105L176,106 M176,105L177,106 M177,105L178,106 M276,105L277,106 M277,105L278,106 M278,105L279,106 M308,105L309,106 M309,105L310,106 M310,105L311,106 M311,105L312,106 M312,105L313,106 M317,105L318,106 M318,105L319,106 M319,105L320,106 M382,105L383,106 M383,105L384,106 M384,105L385,106 M400,105L401,106 M401,105L402,106 M407,105L408,106 M408,105L409,106 M409,105L410,106 M410,105L411,106 M411,105L412,106 M412,105L413,106 M413,105L414,106 M414,105L415,106 M415,105L416,106 M416,105L417,106 M417,105L418,106 M418,105L419,106 M419,105L420,106 M420,105L421,106 M421,105L422,106 M422,105L423,106 M564,105L565,106 M565,105L566,106 M566,105L567,106 M567,105L568,106 M568,105L569,106 M569,105L570,106 M570,105L571,106 M174,106L175,107 M175,106L176,107 M176,106L177,107 M275,106L276,107 M276,106L277,107 M277,106L278,107 M306,106L307,107 M307,106L308,107 M308,106L309,107 M309,106L310,107 M310,106L311,107 M317,106L318,107 M318,106L319,107 M382,106L383,107 M383,106L384,107 M400,106L401,107 M401,106L402,107 M405,106L406,107 M406,106L407,107 M407,106L408,107 M408,106L409,107 M421,106L422,107 M422,106L423,107 M423,106L424,107 M561,106L562,107 M562,106L563,107 M563,106L564,107 M564,106L565,107 M565,106L566,107 M566,106L567,107 M567,106L568,107 M173,107L174,108 M174,107L175,108 M175,107L176,108 M275,107L276,108 M276,107L277,108 M277,107L278,108 M304,107L305,108 M305,107L306,108 M306,107L307,108 M307,107L308,108 M308,107L309,108 M316,107L317,108 M317,107L318,108 M382,107L383,108 M383,107L384,108 M401,107L402,108 M402,107L403,108 M403,107L404,108 M404,107L405,108 M405,107L406,108 M406,107L407,108 M422,107L423,108 M423,107L424,108 M424,107L425,108 M557,107L558,108 M558,107L559,108 M559,107L560,108 M560,107L561,108 M561,107L562,108 M562,107L563,108 M563,107L564,108 M172,108L173,109 M173,108L174,109 M174,108L175,109 M274,108L275,109 M275,108L276,109 M276,108L277,109 M302,108L303,109 M303,108L304,109 M304,108L305,109 M305,108L306,109 M306,108L307,109 M315,108L316,109 M316,108L317,109 M317,108L318,109 M381,108L382,109 M382,108L383,109 M383,108L384,109 M401,108L402,109 M402,108L403,109 M403,108L404,109 M404,108L405,109 M405,108L406,109 M423,108L424,109 M424,108L425,109 M425,108L426,109 M554,108L555,109 M555,108L556,109 M556,108L557,109 M557,108L558,109 M558,108L559,109 M559,108L560,109 M560,108L561,109 M171,109L172,110 M172,109L173,110 M173,109L174,110 M274,109L275,110 M275,109L276,110 M276,109L277,110 M300,109L301,110 M301,109L302,110 M302,109L303,110 M303,109L304,110 M304,109L305,110 M314,109L315,110 M315,109L316,110 M316,109L317,110 M381,109L382,110 M382,109L383,110 M402,109L403,110 M424,109L425,110 M425,109L426,110 M550,109L551,110 M551,109L552,110 M552,109L553,110 M553,109L554,110 M554,109L555,110 M555,109L556,110 M556,109L557,110 M170,110L171,111 M171,110L172,111 M172,110L173,111 M273,110L274,111 M274,110L275,111 M275,110L276,111 M276,110L277,111 M298,110L299,111 M299,110L300,111 M300,110L301,111 M301,110L302,111 M313,110L314,111 M314,110L315,111 M315,110L316,111 M381,110L382,111 M382,110L383,111 M425,110L426,111 M426,110L427,111 M547,110L548,111 M548,110L549,111 M549,110L550,111 M550,110L551,111 M551,110L552,111 M552,110L553,111 M553,110L554,111 M169,111L170,112 M170,111L171,112 M171,111L172,112 M273,111L274,112 M274,111L275,112 M275,111L276,112 M296,111L297,112 M297,111L298,112 M298,111L299,112 M299,111L300,112 M313,111L314,112 M314,111L315,112 M380,111L381,112 M381,111L382,112 M382,111L383,112 M425,111L426,112 M426,111L427,112 M427,111L428,112 M543,111L544,112 M544,111L545,112 M545,111L546,112 M546,111L547,112 M547,111L548,112 M548,111L549,112 M549,111L550,112 M550,111L551,112 M168,112L169,113 M169,112L170,113 M170,112L171,113 M273,112L274,113 M274,112L275,113 M275,112L276,113 M293,112L294,113 M294,112L295,113 M295,112L296,113 M296,112L297,113 M297,112L298,113 M312,112L313,113 M313,112L314,113 M380,112L381,113 M381,112L382,113 M426,112L427,113 M427,112L428,113 M428,112L429,113 M540,112L541,113 M541,112L542,113 M542,112L543,113 M543,112L544,113 M544,112L545,113 M545,112L546,113 M546,112L547,113 M167,113L168,114 M168,113L169,114 M169,113L170,114 M272,113L273,114 M273,113L274,114 M274,113L275,114 M275,113L276,114 M289,113L290,114 M290,113L291,114 M291,113L292,114 M292,113L293,114 M293,113L294,114 M294,113L295,114 M295,113L296,114 M311,113L312,114 M312,113L313,114 M313,113L314,114 M380,113L381,114 M381,113L382,114 M427,113L428,114 M428,113L429,114 M429,113L430,114 M536,113L537,114 M537,113L538,114 M538,113L539,114 M539,113L540,114 M540,113L541,114 M541,113L542,114 M542,113L543,114 M543,113L544,114 M166,114L167,115 M167,114L168,115 M168,114L169,115 M272,114L273,115 M273,114L274,115 M274,114L275,115 M286,114L287,115 M287,114L288,115 M288,114L289,115 M289,114L290,115 M290,114L291,115 M291,114L292,115 M292,114L293,115 M310,114L311,115 M311,114L312,115 M312,114L313,115 M379,114L380,115 M380,114L381,115 M381,114L382,115 M428,114L429,115 M429,114L430,115 M533,114L534,115 M534,114L535,115 M535,114L536,115 M536,114L537,115 M537,114L538,115 M538,114L539,115 M539,114L540,115 M165,115L166,116 M166,115L167,116 M167,115L168,116 M271,115L272,116 M272,115L273,116 M273,115L274,116 M274,115L275,116 M282,115L283,116 M283,115L284,116 M284,115L285,116 M285,115L286,116 M286,115L287,116 M287,115L288,116 M288,115L289,116 M309,115L310,116 M310,115L311,116 M311,115L312,116 M379,115L380,116 M380,115L381,116 M429,115L430,116 M430,115L431,116 M529,115L530,116 M530,115L531,116 M531,115L532,116 M532,115L533,116 M533,115L534,116 M534,115L535,116 M535,115L536,116 M536,115L537,116 M164,116L165,117 M165,116L166,117 M166,116L167,117 M271,116L272,117 M272,116L273,117 M273,116L274,117 M274,116L275,117 M275,116L276,117 M276,116L277,117 M277,116L278,117 M278,116L279,117 M279,116L280,117 M280,116L281,117 M281,116L282,117 M282,116L283,117 M283,116L284,117 M284,116L285,117 M285,116L286,117 M309,116L310,117 M310,116L311,117 M379,116L380,117 M380,116L381,117 M429,116L430,117 M430,116L431,117 M431,116L432,117 M526,116L527,117 M527,116L528,117 M528,116L529,117 M529,116L530,117 M530,116L531,117 M531,116L532,117 M532,116L533,117 M163,117L164,118 M164,117L165,118 M165,117L166,118 M270,117L271,118 M271,117L272,118 M272,117L273,118 M274,117L275,118 M275,117L276,118 M276,117L277,118 M277,117L278,118 M278,117L279,118 M279,117L280,118 M280,117L281,118 M281,117L282,118 M308,117L309,118 M309,117L310,118 M378,117L379,118 M379,117L380,118 M380,117L381,118 M430,117L431,118 M431,117L432,118 M432,117L433,118 M522,117L523,118 M523,117L524,118 M524,117L525,118 M525,117L526,118 M526,117L527,118 M527,117L528,118 M528,117L529,118 M529,117L530,118 M162,118L163,119 M163,118L164,119 M164,118L165,119 M270,118L271,119 M271,118L272,119 M307,118L308,119 M308,118L309,119 M309,118L310,119 M378,118L379,119 M379,118L380,119 M431,118L432,119 M432,118L433,119 M519,118L520,119 M520,118L521,119 M521,118L522,119 M522,118L523,119 M523,118L524,119 M524,118L525,119 M525,118L526,119 M162,119L163,120 M163,119L164,120 M270,119L271,120 M271,119L272,120 M306,119L307,120 M307,119L308,120 M308,119L309,120 M378,119L379,120 M379,119L380,120 M432,119L433,120 M433,119L434,120 M516,119L517,120 M517,119L518,120 M518,119L519,120 M519,119L520,120 M520,119L521,120 M521,119L522,120 M522,119L523,120 M161,120L162,121 M162,120L163,121 M269,120L270,121 M270,120L271,121 M306,120L307,121 M307,120L308,121 M377,120L378,121 M378,120L379,121 M379,120L380,121 M432,120L433,121 M433,120L434,121 M434,120L435,121 M512,120L513,121 M513,120L514,121 M514,120L515,121 M515,120L516,121 M516,120L517,121 M517,120L518,121 M518,120L519,121 M160,121L161,122 M161,121L162,122 M269,121L270,122 M270,121L271,122 M305,121L306,122 M306,121L307,122 M377,121L378,122 M378,121L379,122 M433,121L434,122 M434,121L435,122 M435,121L436,122 M509,121L510,122 M510,121L511,122 M511,121L512,122 M512,121L513,122 M513,121L514,122 M514,121L515,122 M515,121L516,122 M159,122L160,123 M160,122L161,123 M161,122L162,123 M268,122L269,123 M269,122L270,123 M304,122L305,123 M305,122L306,123 M306,122L307,123 M377,122L378,123 M378,122L379,123 M434,122L435,123 M435,122L436,123 M505,122L506,123 M506,122L507,123 M507,122L508,123 M508,122L509,123 M509,122L510,123 M510,122L511,123 M511,122L512,123 M158,123L159,124 M159,123L160,124 M160,123L161,124 M268,123L269,124 M269,123L270,124 M303,123L304,124 M304,123L305,124 M305,123L306,124 M376,123L377,124 M377,123L378,124 M378,123L379,124 M435,123L436,124 M436,123L437,124 M502,123L503,124 M503,123L504,124 M504,123L505,124 M505,123L506,124 M506,123L507,124 M507,123L508,124 M508,123L509,124 M157,124L158,125 M158,124L159,125 M159,124L160,125 M267,124L268,125 M268,124L269,125 M269,124L270,125 M302,124L303,125 M303,124L304,125 M304,124L305,125 M376,124L377,125 M377,124L378,125 M435,124L436,125 M436,124L437,125 M437,124L438,125 M498,124L499,125 M499,124L500,125 M500,124L501,125 M501,124L502,125 M502,124L503,125 M503,124L504,125 M504,124L505,125 M157,125L158,126 M158,125L159,126 M266,125L267,126 M267,125L268,126 M268,125L269,126 M302,125L303,126 M303,125L304,126 M351,125L352,126 M352,125L353,126 M376,125L377,126 M377,125L378,126 M436,125L437,126 M437,125L438,126 M438,125L439,126 M495,125L496,126 M496,125L497,126 M497,125L498,126 M498,125L499,126 M499,125L500,126 M500,125L501,126 M501,125L502,126 M156,126L157,127 M157,126L158,127 M158,126L159,127 M265,126L266,127 M266,126L267,127 M267,126L268,127 M301,126L302,127 M302,126L303,127 M350,126L351,127 M351,126L352,127 M352,126L353,127 M375,126L376,127 M376,126L377,127 M377,126L378,127 M437,126L438,127 M438,126L439,127 M491,126L492,127 M492,126L493,127 M493,126L494,127 M494,126L495,127 M495,126L496,127 M496,126L497,127 M497,126L498,127 M156,127L157,128 M157,127L158,128 M264,127L265,128 M265,127L266,128 M266,127L267,128 M300,127L301,128 M301,127L302,128 M302,127L303,128 M350,127L351,128 M351,127L352,128 M352,127L353,128 M375,127L376,128 M376,127L377,128 M438,127L439,128 M439,127L440,128 M488,127L489,128 M489,127L490,128 M490,127L491,128 M491,127L492,128 M492,127L493,128 M493,127L494,128 M494,127L495,128 M155,128L156,129 M156,128L157,129 M157,128L158,129 M263,128L264,129 M264,128L265,129 M265,128L266,129 M299,128L300,129 M300,128L301,129 M301,128L302,129 M349,128L350,129 M350,128L351,129 M351,128L352,129 M352,128L353,129 M374,128L375,129 M375,128L376,129 M438,128L439,129 M439,128L440,129 M440,128L441,129 M484,128L485,129 M485,128L486,129 M486,128L487,129 M487,128L488,129 M488,128L489,129 M489,128L490,129 M490,128L491,129 M155,129L156,130 M156,129L157,130 M262,129L263,130 M263,129L264,130 M264,129L265,130 M298,129L299,130 M299,129L300,130 M300,129L301,130 M348,129L349,130 M349,129L350,130 M350,129L351,130 M351,129L352,130 M352,129L353,130 M373,129L374,130 M374,129L375,130 M375,129L376,130 M439,129L440,130 M440,129L441,130 M441,129L442,130 M481,129L482,130 M482,129L483,130 M483,129L484,130 M484,129L485,130 M485,129L486,130 M486,129L487,130 M487,129L488,130 M154,130L155,131 M155,130L156,131 M156,130L157,131 M261,130L262,131 M262,130L263,131 M263,130L264,131 M298,130L299,131 M299,130L300,131 M347,130L348,131 M348,130L349,131 M349,130L350,131 M352,130L353,131 M353,130L354,131 M372,130L373,131 M373,130L374,131 M374,130L375,131 M440,130L441,131 M441,130L442,131 M442,130L443,131 M477,130L478,131 M478,130L479,131 M479,130L480,131 M480,130L481,131 M481,130L482,131 M482,130L483,131 M483,130L484,131 M484,130L485,131 M154,131L155,132 M155,131L156,132 M260,131L261,132 M261,131L262,132 M262,131L263,132 M297,131L298,132 M298,131L299,132 M346,131L347,132 M347,131L348,132 M348,131L349,132 M352,131L353,132 M353,131L354,132 M372,131L373,132 M373,131L374,132 M441,131L442,132 M442,131L443,132 M443,131L444,132 M474,131L475,132 M475,131L476,132 M476,131L477,132 M477,131L478,132 M478,131L479,132 M479,131L480,132 M480,131L481,132 M153,132L154,133 M154,132L155,133 M155,132L156,133 M259,132L260,133 M260,132L261,133 M261,132L262,133 M296,132L297,133 M297,132L298,133 M298,132L299,133 M346,132L347,133 M347,132L348,133 M352,132L353,133 M353,132L354,133 M354,132L355,133 M371,132L372,133 M372,132L373,133 M442,132L443,133 M443,132L444,133 M444,132L445,133 M445,132L446,133 M470,132L471,133 M471,132L472,133 M472,132L473,133 M473,132L474,133 M474,132L475,133 M475,132L476,133 M476,132L477,133 M477,132L478,133 M153,133L154,134 M154,133L155,134 M258,133L259,134 M259,133L260,134 M260,133L261,134 M295,133L296,134 M296,133L297,134 M297,133L298,134 M345,133L346,134 M346,133L347,134 M353,133L354,134 M354,133L355,134 M370,133L371,134 M371,133L372,134 M372,133L373,134 M444,133L445,134 M445,133L446,134 M446,133L447,134 M467,133L468,134 M468,133L469,134 M469,133L470,134 M470,133L471,134 M471,133L472,134 M472,133L473,134 M473,133L474,134 M153,134L154,135 M154,134L155,135 M257,134L258,135 M258,134L259,135 M259,134L260,135 M294,134L295,135 M295,134L296,135 M296,134L297,135 M344,134L345,135 M345,134L346,135 M346,134L347,135 M353,134L354,135 M354,134L355,135 M370,134L371,135 M371,134L372,135 M445,134L446,135 M446,134L447,135 M447,134L448,135 M463,134L464,135 M464,134L465,135 M465,134L466,135 M466,134L467,135 M467,134L468,135 M468,134L469,135 M469,134L470,135 M470,134L471,135 M153,135L154,136 M154,135L155,136 M256,135L257,136 M257,135L258,136 M258,135L259,136 M294,135L295,136 M295,135L296,136 M343,135L344,136 M344,135L345,136 M345,135L346,136 M354,135L355,136 M355,135L356,136 M369,135L370,136 M370,135L371,136 M446,135L447,136 M447,135L448,136 M448,135L449,136 M449,135L450,136 M460,135L461,136 M461,135L462,136 M462,135L463,136 M463,135L464,136 M464,135L465,136 M465,135L466,136 M466,135L467,136 M153,136L154,137 M154,136L155,137 M255,136L256,137 M256,136L257,137 M257,136L258,137 M293,136L294,137 M294,136L295,137 M342,136L343,137 M343,136L344,137 M344,136L345,137 M354,136L355,137 M355,136L356,137 M368,136L369,137 M369,136L370,137 M370,136L371,137 M448,136L449,137 M449,136L450,137 M450,136L451,137 M456,136L457,137 M457,136L458,137 M458,136L459,137 M459,136L460,137 M460,136L461,137 M461,136L462,137 M462,136L463,137 M463,136L464,137 M153,137L154,138 M154,137L155,138 M254,137L255,138 M255,137L256,138 M292,137L293,138 M293,137L294,138 M294,137L295,138 M342,137L343,138 M343,137L344,138 M354,137L355,138 M355,137L356,138 M356,137L357,138 M367,137L368,138 M368,137L369,138 M369,137L370,138 M449,137L450,138 M450,137L451,138 M451,137L452,138 M453,137L454,138 M454,137L455,138 M455,137L456,138 M456,137L457,138 M457,137L458,138 M458,137L459,138 M459,137L460,138 M153,138L154,139 M154,138L155,139 M253,138L254,139 M254,138L255,139 M291,138L292,139 M292,138L293,139 M293,138L294,139 M341,138L342,139 M342,138L343,139 M355,138L356,139 M356,138L357,139 M366,138L367,139 M367,138L368,139 M368,138L369,139 M450,138L451,139 M451,138L452,139 M452,138L453,139 M453,138L454,139 M454,138L455,139 M455,138L456,139 M456,138L457,139 M153,139L154,140 M154,139L155,140 M155,139L156,140 M252,139L253,140 M253,139L254,140 M290,139L291,140 M291,139L292,140 M292,139L293,140 M316,139L317,140 M317,139L318,140 M318,139L319,140 M319,139L320,140 M320,139L321,140 M340,139L341,140 M341,139L342,140 M342,139L343,140 M356,139L357,140 M357,139L358,140 M364,139L365,140 M365,139L366,140 M366,139L367,140 M367,139L368,140 M452,139L453,140 M154,140L155,141 M155,140L156,141 M156,140L157,141 M157,140L158,141 M250,140L251,141 M251,140L252,141 M252,140L253,141 M290,140L291,141 M291,140L292,141 M312,140L313,141 M313,140L314,141 M314,140L315,141 M315,140L316,141 M316,140L317,141 M317,140L318,141 M318,140L319,141 M319,140L320,141 M320,140L321,141 M339,140L340,141 M340,140L341,141 M341,140L342,141 M356,140L357,141 M357,140L358,141 M358,140L359,141 M363,140L364,141 M364,140L365,141 M365,140L366,141 M156,141L157,142 M157,141L158,142 M158,141L159,142 M159,141L160,142 M160,141L161,142 M249,141L250,142 M250,141L251,142 M251,141L252,142 M289,141L290,142 M290,141L291,142 M308,141L309,142 M309,141L310,142 M310,141L311,142 M311,141L312,142 M312,141L313,142 M313,141L314,142 M314,141L315,142 M315,141L316,142 M319,141L320,142 M320,141L321,142 M339,141L340,142 M340,141L341,142 M357,141L358,142 M358,141L359,142 M359,141L360,142 M361,141L362,142 M362,141L363,142 M363,141L364,142 M364,141L365,142 M158,142L159,143 M159,142L160,143 M160,142L161,143 M161,142L162,143 M162,142L163,143 M248,142L249,143 M249,142L250,143 M250,142L251,143 M288,142L289,143 M289,142L290,143 M305,142L306,143 M306,142L307,143 M307,142L308,143 M308,142L309,143 M309,142L310,143 M310,142L311,143 M311,142L312,143 M319,142L320,143 M320,142L321,143 M338,142L339,143 M339,142L340,143 M358,142L359,143 M359,142L360,143 M360,142L361,143 M361,142L362,143 M362,142L363,143 M160,143L161,144 M161,143L162,144 M162,143L163,144 M163,143L164,144 M164,143L165,144 M165,143L166,144 M166,143L167,144 M247,143L248,144 M248,143L249,144 M249,143L250,144 M287,143L288,144 M288,143L289,144 M289,143L290,144 M303,143L304,144 M304,143L305,144 M305,143L306,144 M306,143L307,144 M307,143L308,144 M308,143L309,144 M319,143L320,144 M320,143L321,144 M337,143L338,144 M338,143L339,144 M339,143L340,144 M359,143L360,144 M360,143L361,144 M361,143L362,144 M163,144L164,145 M164,144L165,145 M165,144L166,145 M166,144L167,145 M167,144L168,145 M168,144L169,145 M169,144L170,145 M170,144L171,145 M171,144L172,145 M246,144L247,145 M247,144L248,145 M248,144L249,145 M286,144L287,145 M287,144L288,145 M288,144L289,145 M301,144L302,145 M302,144L303,145 M303,144L304,145 M304,144L305,145 M319,144L320,145 M320,144L321,145 M337,144L338,145 M338,144L339,145 M167,145L168,146 M168,145L169,146 M169,145L170,146 M170,145L171,146 M171,145L172,146 M172,145L173,146 M173,145L174,146 M174,145L175,146 M175,145L176,146 M176,145L177,146 M177,145L178,146 M178,145L179,146 M179,145L180,146 M180,145L181,146 M181,145L182,146 M182,145L183,146 M183,145L184,146 M245,145L246,146 M246,145L247,146 M247,145L248,146 M285,145L286,146 M286,145L287,146 M287,145L288,146 M299,145L300,146 M300,145L301,146 M301,145L302,146 M302,145L303,146 M319,145L320,146 M320,145L321,146 M336,145L337,146 M337,145L338,146 M172,146L173,147 M173,146L174,147 M174,146L175,147 M175,146L176,147 M176,146L177,147 M177,146L178,147 M178,146L179,147 M179,146L180,147 M180,146L181,147 M181,146L182,147 M182,146L183,147 M183,146L184,147 M184,146L185,147 M185,146L186,147 M186,146L187,147 M187,146L188,147 M188,146L189,147 M189,146L190,147 M190,146L191,147 M191,146L192,147 M192,146L193,147 M193,146L194,147 M194,146L195,147 M195,146L196,147 M196,146L197,147 M244,146L245,147 M245,146L246,147 M246,146L247,147 M285,146L286,147 M286,146L287,147 M298,146L299,147 M299,146L300,147 M300,146L301,147 M301,146L302,147 M318,146L319,147 M319,146L320,147 M335,146L336,147 M336,146L337,147 M337,146L338,147 M184,147L185,148 M185,147L186,148 M186,147L187,148 M187,147L188,148 M188,147L189,148 M189,147L190,148 M190,147L191,148 M191,147L192,148 M192,147L193,148 M193,147L194,148 M194,147L195,148 M195,147L196,148 M196,147L197,148 M197,147L198,148 M198,147L199,148 M199,147L200,148 M200,147L201,148 M201,147L202,148 M202,147L203,148 M203,147L204,148 M204,147L205,148 M205,147L206,148 M206,147L207,148 M207,147L208,148 M208,147L209,148 M209,147L210,148 M233,147L234,148 M234,147L235,148 M235,147L236,148 M236,147L237,148 M237,147L238,148 M238,147L239,148 M239,147L240,148 M240,147L241,148 M241,147L242,148 M242,147L243,148 M243,147L244,148 M244,147L245,148 M245,147L246,148 M284,147L285,148 M285,147L286,148 M296,147L297,148 M297,147L298,148 M298,147L299,148 M299,147L300,148 M318,147L319,148 M319,147L320,148 M335,147L336,148 M336,147L337,148 M197,148L198,149 M198,148L199,149 M199,148L200,149 M200,148L201,149 M201,148L202,149 M202,148L203,149 M203,148L204,149 M204,148L205,149 M205,148L206,149 M206,148L207,149 M207,148L208,149 M208,148L209,149 M209,148L210,149 M210,148L211,149 M211,148L212,149 M212,148L213,149 M213,148L214,149 M214,148L215,149 M215,148L216,149 M216,148L217,149 M217,148L218,149 M218,148L219,149 M219,148L220,149 M220,148L221,149 M221,148L222,149 M222,148L223,149 M223,148L224,149 M224,148L225,149 M225,148L226,149 M226,148L227,149 M227,148L228,149 M228,148L229,149 M229,148L230,149 M230,148L231,149 M231,148L232,149 M232,148L233,149 M233,148L234,149 M234,148L235,149 M235,148L236,149 M236,148L237,149 M237,148L238,149 M238,148L239,149 M239,148L240,149 M240,148L241,149 M241,148L242,149 M242,148L243,149 M243,148L244,149 M244,148L245,149 M283,148L284,149 M284,148L285,149 M285,148L286,149 M294,148L295,149 M295,148L296,149 M296,148L297,149 M297,148L298,149 M318,148L319,149 M319,148L320,149 M334,148L335,149 M335,148L336,149 M210,149L211,150 M211,149L212,150 M212,149L213,150 M213,149L214,150 M214,149L215,150 M215,149L216,150 M216,149L217,150 M217,149L218,150 M218,149L219,150 M219,149L220,150 M220,149L221,150 M221,149L222,150 M222,149L223,150 M223,149L224,150 M224,149L225,150 M225,149L226,150 M226,149L227,150 M227,149L228,150 M228,149L229,150 M229,149L230,150 M230,149L231,150 M231,149L232,150 M232,149L233,150 M282,149L283,150 M283,149L284,150 M284,149L285,150 M292,149L293,150 M293,149L294,150 M294,149L295,150 M295,149L296,150 M318,149L319,150 M319,149L320,150 M333,149L334,150 M334,149L335,150 M335,149L336,150 M281,150L282,151 M282,150L283,151 M283,150L284,151 M291,150L292,151 M292,150L293,151 M293,150L294,151 M294,150L295,151 M318,150L319,151 M319,150L320,151 M333,150L334,151 M334,150L335,151 M280,151L281,152 M281,151L282,152 M282,151L283,152 M289,151L290,152 M290,151L291,152 M291,151L292,152 M292,151L293,152 M318,151L319,152 M319,151L320,152 M332,151L333,152 M333,151L334,152 M280,152L281,153 M281,152L282,153 M288,152L289,153 M289,152L290,153 M290,152L291,153 M318,152L319,153 M319,152L320,153 M331,152L332,153 M332,152L333,153 M333,152L334,153 M279,153L280,154 M280,153L281,154 M286,153L287,154 M287,153L288,154 M288,153L289,154 M289,153L290,154 M317,153L318,154 M318,153L319,154 M330,153L331,154 M331,153L332,154 M332,153L333,154 M278,154L279,155 M279,154L280,155 M280,154L281,155 M285,154L286,155 M286,154L287,155 M287,154L288,155 M317,154L318,155 M318,154L319,155 M329,154L330,155 M330,154L331,155 M331,154L332,155 M277,155L278,156 M278,155L279,156 M279,155L280,156 M283,155L284,156 M284,155L285,156 M285,155L286,156 M286,155L287,156 M317,155L318,156 M318,155L319,156 M328,155L329,156 M329,155L330,156 M330,155L331,156 M276,156L277,157 M277,156L278,157 M278,156L279,157 M282,156L283,157 M283,156L284,157 M284,156L285,157 M317,156L318,157 M318,156L319,157 M327,156L328,157 M328,156L329,157 M329,156L330,157 M276,157L277,158 M277,157L278,158 M280,157L281,158 M281,157L282,158 M282,157L283,158 M283,157L284,158 M317,157L318,158 M318,157L319,158 M326,157L327,158 M327,157L328,158 M328,157L329,158 M275,158L276,159 M276,158L277,159 M279,158L280,159 M280,158L281,159 M281,158L282,159 M317,158L318,159 M318,158L319,159 M325,158L326,159 M326,158L327,159 M327,158L328,159 M274,159L275,160 M275,159L276,160 M276,159L277,160 M278,159L279,160 M279,159L280,160 M280,159L281,160 M317,159L318,160 M318,159L319,160 M324,159L325,160 M325,159L326,160 M326,159L327,160 M273,160L274,161 M274,160L275,161 M275,160L276,161 M276,160L277,161 M277,160L278,161 M278,160L279,161 M279,160L280,161 M316,160L317,161 M317,160L318,161 M323,160L324,161 M324,160L325,161 M272,161L273,162 M273,161L274,162 M274,161L275,162 M275,161L276,162 M276,161L277,162 M277,161L278,162 M316,161L317,162 M317,161L318,162 M321,161L322,162 M322,161L323,162 M323,161L324,162 M272,162L273,163 M273,162L274,163 M274,162L275,163 M275,162L276,163 M276,162L277,163 M316,162L317,163 M317,162L318,163 M320,162L321,163 M321,162L322,163 M322,162L323,163 M272,163L273,164 M273,163L274,164 M274,163L275,164 M275,163L276,164 M316,163L317,164 M317,163L318,164 M319,163L320,164 M320,163L321,164 M321,163L322,164 M271,164L272,165 M272,164L273,165 M273,164L274,165 M316,164L317,165 M317,164L318,165 M318,164L319,165 M319,164L320,165 M320,164L321,165 M272,165L273,166 M317,165L318,166 M318,165L319,166 M319,165L320,166 M318,166L319,167" fill="none" stroke="black" />
    </svg>