<svg xmlns="http://www.w3.org/2000/svg" width="800" height="250">
        <path d="M371,73L372,74 M372,73L373,74 M373,73L374,74 M374,73L375,74 M375,73L376,74 M376,73L377,74 M377,73L378,74 M378,73L379,74 M379,73L380,74 M380,73L381,74 M381,73L382,74 M382,73L383,74 M383,73L384,74 M384,73L385,74 M385,73L386,74 M386,73L387,74 M387,73L388,74 M388,73L389,74 M389,73L390,74 M390,73L391,74 M391,73L392,74 M392,73L393,74 M393,73L394,74 M394,73L395,74 M395,73L396,74 M396,73L397,74 M397,73L398,74 M398,73L399,74 M399,73L400,74 M400,73L401,74 M401,73L402,74 M402,73L403,74 M403,73L404,74 M404,73L405,74 M405,73L406,74 M406,73L407,74 M407,73L408,74 M408,73L409,74 M409,73L410,74 M358,74L359,75 M359,74L360,75 M360,74L361,75 M361,74L362,75 M362,74L363,75 M363,74L364,75 M364,74L365,75 M365,74L366,75 M366,74L367,75 M367,74L368,75 M368,74L369,75 M369,74L370,75 M370,74L371,75 M371,74L372,75 M372,74L373,75 M373,74L374,75 M374,74L375,75 M375,74L376,75 M376,74L377,75 M377,74L378,75 M378,74L379,75 M379,74L380,75 M380,74L381,75 M381,74L382,75 M382,74L383,75 M383,74L384,75 M384,74L385,75 M385,74L386,75 M386,74L387,75 M387,74L388,75 M388,74L389,75 M389,74L390,75 M390,74L391,75 M391,74L392,75 M392,74L393,75 M393,74L394,75 M394,74L395,75 M395,74L396,75 M396,74L397,75 M397,74L398,75 M398,74L399,75 M399,74L400,75 M400,74L401,75 M401,74L402,75 M402,74L403,75 M403,74L404,75 M404,74L405,75 M405,74L406,75 M406,74L407,75 M407,74L408,75 M408,74L409,75 M409,74L410,75 M410,74L411,75 M411,74L412,75 M412,74L413,75 M413,74L414,75 M355,75L356,76 M356,75L357,76 M357,75L358,76 M358,75L359,76 M359,75L360,76 M360,75L361,76 M361,75L362,76 M362,75L363,76 M363,75L364,76 M364,75L365,76 M365,75L366,76 M366,75L367,76 M367,75L368,76 M368,75L369,76 M369,75L370,76 M370,75L371,76 M410,75L411,76 M411,75L412,76 M412,75L413,76 M413,75L414,76 M414,75L415,76 M415,75L416,76 M416,75L417,76 M417,75L418,76 M352,76L353,77 M353,76L354,77 M354,76L355,77 M355,76L356,77 M356,76L357,77 M357,76L358,77 M414,76L415,77 M415,76L416,77 M416,76L417,77 M417,76L418,77 M418,76L419,77 M419,76L420,77 M420,76L421,77 M349,77L350,78 M350,77L351,78 M351,77L352,78 M352,77L353,78 M353,77L354,78 M354,77L355,78 M417,77L418,78 M418,77L419,78 M419,77L420,78 M420,77L421,78 M421,77L422,78 M422,77L423,78 M423,77L424,78 M424,77L425,78 M346,78L347,79 M347,78L348,79 M348,78L349,79 M349,78L350,79 M350,78L351,79 M351,78L352,79 M421,78L422,79 M422,78L423,79 M423,78L424,79 M424,78L425,79 M425,78L426,79 M426,78L427,79 M343,79L344,80 M344,79L345,80 M345,79L346,80 M346,79L347,80 M347,79L348,80 M348,79L349,80 M425,79L426,80 M426,79L427,80 M340,80L341,81 M341,80L342,81 M342,80L343,81 M343,80L344,81 M344,80L345,81 M345,80L346,81 M425,80L426,81 M426,80L427,81 M338,81L339,82 M339,81L340,82 M340,81L341,82 M341,81L342,82 M342,81L343,82 M425,81L426,82 M426,81L427,82 M337,82L338,83 M338,82L339,83 M339,82L340,83 M425,82L426,83 M426,82L427,83 M336,83L337,84 M337,83L338,84 M338,83L339,84 M425,83L426,84 M426,83L427,84 M335,84L336,85 M336,84L337,85 M337,84L338,85 M425,84L426,85 M426,84L427,85 M334,85L335,86 M335,85L336,86 M336,85L337,86 M356,85L357,86 M357,85L358,86 M358,85L359,86 M359,85L360,86 M360,85L361,86 M361,85L362,86 M362,85L363,86 M363,85L364,86 M364,85L365,86 M365,85L366,86 M366,85L367,86 M367,85L368,86 M368,85L369,86 M369,85L370,86 M370,85L371,86 M371,85L372,86 M425,85L426,86 M426,85L427,86 M333,86L334,87 M334,86L335,87 M335,86L336,87 M354,86L355,87 M355,86L356,87 M356,86L357,87 M357,86L358,87 M358,86L359,87 M359,86L360,87 M360,86L361,87 M361,86L362,87 M362,86L363,87 M363,86L364,87 M364,86L365,87 M365,86L366,87 M366,86L367,87 M367,86L368,87 M368,86L369,87 M369,86L370,87 M370,86L371,87 M371,86L372,87 M372,86L373,87 M373,86L374,87 M374,86L375,87 M375,86L376,87 M376,86L377,87 M377,86L378,87 M378,86L379,87 M379,86L380,87 M380,86L381,87 M425,86L426,87 M426,86L427,87 M332,87L333,88 M333,87L334,88 M334,87L335,88 M351,87L352,88 M352,87L353,88 M353,87L354,88 M354,87L355,88 M355,87L356,88 M356,87L357,88 M372,87L373,88 M373,87L374,88 M374,87L375,88 M375,87L376,88 M376,87L377,88 M377,87L378,88 M378,87L379,88 M379,87L380,88 M380,87L381,88 M381,87L382,88 M382,87L383,88 M383,87L384,88 M384,87L385,88 M385,87L386,88 M386,87L387,88 M425,87L426,88 M426,87L427,88 M332,88L333,89 M333,88L334,89 M349,88L350,89 M350,88L351,89 M351,88L352,89 M352,88L353,89 M353,88L354,89 M381,88L382,89 M382,88L383,89 M383,88L384,89 M384,88L385,89 M385,88L386,89 M386,88L387,89 M387,88L388,89 M388,88L389,89 M389,88L390,89 M390,88L391,89 M391,88L392,89 M425,88L426,89 M426,88L427,89 M331,89L332,90 M332,89L333,90 M347,89L348,90 M348,89L349,90 M349,89L350,90 M350,89L351,90 M351,89L352,90 M387,89L388,90 M388,89L389,90 M389,89L390,90 M390,89L391,90 M391,89L392,90 M392,89L393,90 M393,89L394,90 M394,89L395,90 M425,89L426,90 M426,89L427,90 M330,90L331,91 M331,90L332,91 M345,90L346,91 M346,90L347,91 M347,90L348,91 M348,90L349,91 M392,90L393,91 M393,90L394,91 M394,90L395,91 M395,90L396,91 M396,90L397,91 M397,90L398,91 M398,90L399,91 M425,90L426,91 M426,90L427,91 M329,91L330,92 M330,91L331,92 M344,91L345,92 M345,91L346,92 M346,91L347,92 M347,91L348,92 M395,91L396,92 M396,91L397,92 M397,91L398,92 M398,91L399,92 M399,91L400,92 M400,91L401,92 M401,91L402,92 M425,91L426,92 M426,91L427,92 M328,92L329,93 M329,92L330,93 M330,92L331,93 M343,92L344,93 M344,92L345,93 M345,92L346,93 M398,92L399,93 M399,92L400,93 M400,92L401,93 M401,92L402,93 M402,92L403,93 M403,92L404,93 M404,92L405,93 M425,92L426,93 M426,92L427,93 M327,93L328,94 M328,93L329,94 M329,93L330,94 M341,93L342,94 M342,93L343,94 M343,93L344,94 M344,93L345,94 M402,93L403,94 M403,93L404,94 M404,93L405,94 M405,93L406,94 M406,93L407,94 M407,93L408,94 M408,93L409,94 M425,93L426,94 M426,93L427,94 M326,94L327,95 M327,94L328,95 M328,94L329,95 M340,94L341,95 M341,94L342,95 M342,94L343,95 M405,94L406,95 M406,94L407,95 M407,94L408,95 M408,94L409,95 M409,94L410,95 M410,94L411,95 M425,94L426,95 M426,94L427,95 M325,95L326,96 M326,95L327,96 M327,95L328,96 M339,95L340,96 M340,95L341,96 M341,95L342,96 M408,95L409,96 M409,95L410,96 M410,95L411,96 M411,95L412,96 M412,95L413,96 M425,95L426,96 M426,95L427,96 M325,96L326,97 M326,96L327,97 M338,96L339,97 M339,96L340,97 M340,96L341,97 M411,96L412,97 M412,96L413,97 M413,96L414,97 M425,96L426,97 M426,96L427,97 M324,97L325,98 M325,97L326,98 M337,97L338,98 M338,97L339,98 M339,97L340,98 M412,97L413,98 M413,97L414,98 M414,97L415,98 M415,97L416,98 M425,97L426,98 M426,97L427,98 M324,98L325,99 M325,98L326,99 M336,98L337,99 M337,98L338,99 M338,98L339,99 M414,98L415,99 M415,98L416,99 M416,98L417,99 M417,98L418,99 M425,98L426,99 M426,98L427,99 M324,99L325,100 M325,99L326,100 M335,99L336,100 M336,99L337,100 M337,99L338,100 M416,99L417,100 M417,99L418,100 M418,99L419,100 M323,100L324,101 M324,100L325,101 M334,100L335,101 M335,100L336,101 M336,100L337,101 M417,100L418,101 M418,100L419,101 M419,100L420,101 M420,100L421,101 M323,101L324,102 M324,101L325,102 M333,101L334,102 M334,101L335,102 M335,101L336,102 M419,101L420,102 M420,101L421,102 M421,101L422,102 M422,101L423,102 M322,102L323,103 M323,102L324,103 M324,102L325,103 M332,102L333,103 M333,102L334,103 M334,102L335,103 M420,102L421,103 M421,102L422,103 M422,102L423,103 M423,102L424,103 M322,103L323,104 M323,103L324,104 M331,103L332,104 M332,103L333,104 M333,103L334,104 M422,103L423,104 M423,103L424,104 M424,103L425,104 M425,103L426,104 M322,104L323,105 M323,104L324,105 M330,104L331,105 M331,104L332,105 M332,104L333,105 M424,104L425,105 M425,104L426,105 M426,104L427,105 M427,104L428,105 M322,105L323,106 M323,105L324,106 M329,105L330,106 M330,105L331,106 M331,105L332,106 M425,105L426,106 M426,105L427,106 M427,105L428,106 M428,105L429,106 M321,106L322,107 M322,106L323,107 M328,106L329,107 M329,106L330,107 M330,106L331,107 M427,106L428,107 M428,106L429,107 M429,106L430,107 M321,107L322,108 M322,107L323,108 M327,107L328,108 M328,107L329,108 M329,107L330,108 M428,107L429,108 M429,107L430,108 M430,107L431,108 M321,108L322,109 M322,108L323,109 M326,108L327,109 M327,108L328,109 M328,108L329,109 M429,108L430,109 M430,108L431,109 M321,109L322,110 M322,109L323,110 M325,109L326,110 M326,109L327,110 M327,109L328,110 M430,109L431,110 M431,109L432,110 M320,110L321,111 M321,110L322,111 M324,110L325,111 M325,110L326,111 M326,110L327,111 M431,110L432,111 M432,110L433,111 M320,111L321,112 M321,111L322,112 M323,111L324,112 M324,111L325,112 M325,111L326,112 M431,111L432,112 M432,111L433,112 M433,111L434,112 M320,112L321,113 M321,112L322,113 M322,112L323,113 M323,112L324,113 M324,112L325,113 M432,112L433,113 M433,112L434,113 M434,112L435,113 M320,113L321,114 M321,113L322,114 M322,113L323,114 M323,113L324,114 M433,113L434,114 M434,113L435,114 M435,113L436,114 M320,114L321,115 M321,114L322,115 M322,114L323,115 M434,114L435,115 M435,114L436,115 M321,115L322,116 M435,115L436,116 M436,115L437,116 M436,116L437,117 M437,116L438,117 M436,117L437,118 M437,117L438,118 M438,117L439,118 M437,118L438,119 M438,118L439,119 M437,119L438,120 M438,119L439,120 M439,119L440,120 M438,120L439,121 M439,120L440,121 M438,121L439,122 M439,121L440,122 M438,122L439,123 M439,122L440,123 M439,123L440,124 M440,123L441,124 M439,124L440,125 M440,124L441,125 M439,125L440,126 M440,125L441,126 M440,126L441,127 M441,126L442,127 M440,127L441,128 M441,127L442,128 M440,128L441,129 M441,128L442,129 M441,129L442,130 M442,129L443,130 M441,130L442,131 M442,130L443,131 M441,131L442,132 M442,131L443,132 M441,132L442,133 M442,132L443,133 M441,133L442,134 M442,133L443,134 M441,134L442,135 M442,134L443,135 M441,135L442,136 M442,135L443,136 M441,136L442,137 M442,136L443,137 M441,137L442,138 M442,137L443,138 M292,138L293,139 M293,138L294,139 M294,138L295,139 M295,138L296,139 M296,138L297,139 M297,138L298,139 M298,138L299,139 M299,138L300,139 M300,138L301,139 M301,138L302,139 M302,138L303,139 M303,138L304,139 M304,138L305,139 M305,138L306,139 M306,138L307,139 M307,138L308,139 M308,138L309,139 M309,138L310,139 M310,138L311,139 M311,138L312,139 M312,138L313,139 M313,138L314,139 M314,138L315,139 M315,138L316,139 M316,138L317,139 M317,138L318,139 M318,138L319,139 M319,138L320,139 M320,138L321,139 M321,138L322,139 M322,138L323,139 M323,138L324,139 M324,138L325,139 M325,138L326,139 M326,138L327,139 M327,138L328,139 M328,138L329,139 M441,138L442,139 M442,138L443,139 M286,139L287,140 M287,139L288,140 M288,139L289,140 M289,139L290,140 M290,139L291,140 M291,139L292,140 M292,139L293,140 M293,139L294,140 M294,139L295,140 M295,139L296,140 M296,139L297,140 M297,139L298,140 M298,139L299,140 M299,139L300,140 M300,139L301,140 M301,139L302,140 M302,139L303,140 M303,139L304,140 M304,139L305,140 M305,139L306,140 M306,139L307,140 M307,139L308,140 M308,139L309,140 M309,139L310,140 M310,139L311,140 M311,139L312,140 M312,139L313,140 M313,139L314,140 M314,139L315,140 M315,139L316,140 M316,139L317,140 M317,139L318,140 M318,139L319,140 M319,139L320,140 M320,139L321,140 M321,139L322,140 M322,139L323,140 M323,139L324,140 M324,139L325,140 M325,139L326,140 M326,139L327,140 M327,139L328,140 M328,139L329,140 M329,139L330,140 M330,139L331,140 M331,139L332,140 M332,139L333,140 M333,139L334,140 M334,139L335,140 M335,139L336,140 M336,139L337,140 M337,139L338,140 M338,139L339,140 M339,139L340,140 M340,139L341,140 M341,139L342,140 M342,139L343,140 M343,139L344,140 M344,139L345,140 M345,139L346,140 M441,139L442,140 M442,139L443,140 M283,140L284,141 M284,140L285,141 M285,140L286,141 M286,140L287,141 M287,140L288,141 M288,140L289,141 M289,140L290,141 M290,140L291,141 M291,140L292,141 M329,140L330,141 M330,140L331,141 M331,140L332,141 M332,140L333,141 M333,140L334,141 M334,140L335,141 M335,140L336,141 M336,140L337,141 M337,140L338,141 M338,140L339,141 M339,140L340,141 M340,140L341,141 M341,140L342,141 M342,140L343,141 M343,140L344,141 M344,140L345,141 M345,140L346,141 M346,140L347,141 M347,140L348,141 M348,140L349,141 M349,140L350,141 M350,140L351,141 M351,140L352,141 M352,140L353,141 M353,140L354,141 M354,140L355,141 M355,140L356,141 M356,140L357,141 M357,140L358,141 M358,140L359,141 M359,140L360,141 M360,140L361,141 M361,140L362,141 M440,140L441,141 M441,140L442,141 M282,141L283,142 M283,141L284,142 M284,141L285,142 M285,141L286,142 M346,141L347,142 M347,141L348,142 M348,141L349,142 M349,141L350,142 M350,141L351,142 M351,141L352,142 M352,141L353,142 M353,141L354,142 M354,141L355,142 M355,141L356,142 M356,141L357,142 M357,141L358,142 M358,141L359,142 M359,141L360,142 M360,141L361,142 M361,141L362,142 M362,141L363,142 M363,141L364,142 M364,141L365,142 M365,141L366,142 M366,141L367,142 M367,141L368,142 M368,141L369,142 M369,141L370,142 M370,141L371,142 M371,141L372,142 M372,141L373,142 M373,141L374,142 M374,141L375,142 M440,141L441,142 M441,141L442,142 M281,142L282,143 M282,142L283,143 M283,142L284,143 M361,142L362,143 M362,142L363,143 M363,142L364,143 M364,142L365,143 M365,142L366,143 M366,142L367,143 M367,142L368,143 M368,142L369,143 M369,142L370,143 M370,142L371,143 M371,142L372,143 M372,142L373,143 M373,142L374,143 M374,142L375,143 M375,142L376,143 M376,142L377,143 M377,142L378,143 M378,142L379,143 M379,142L380,143 M380,142L381,143 M381,142L382,143 M382,142L383,143 M383,142L384,143 M384,142L385,143 M385,142L386,143 M386,142L387,143 M387,142L388,143 M440,142L441,143 M441,142L442,143 M282,143L283,144 M375,143L376,144 M376,143L377,144 M377,143L378,144 M378,143L379,144 M379,143L380,144 M380,143L381,144 M381,143L382,144 M382,143L383,144 M383,143L384,144 M384,143L385,144 M385,143L386,144 M386,143L387,144 M387,143L388,144 M388,143L389,144 M389,143L390,144 M390,143L391,144 M391,143L392,144 M392,143L393,144 M393,143L394,144 M394,143L395,144 M395,143L396,144 M396,143L397,144 M397,143L398,144 M398,143L399,144 M399,143L400,144 M400,143L401,144 M401,143L402,144 M402,143L403,144 M403,143L404,144 M404,143L405,144 M405,143L406,144 M406,143L407,144 M407,143L408,144 M408,143L409,144 M409,143L410,144 M430,143L431,144 M431,143L432,144 M432,143L433,144 M433,143L434,144 M434,143L435,144 M435,143L436,144 M436,143L437,144 M437,143L438,144 M438,143L439,144 M439,143L440,144 M440,143L441,144 M388,144L389,145 M389,144L390,145 M390,144L391,145 M391,144L392,145 M392,144L393,145 M393,144L394,145 M394,144L395,145 M395,144L396,145 M396,144L397,145 M397,144L398,145 M398,144L399,145 M399,144L400,145 M400,144L401,145 M401,144L402,145 M402,144L403,145 M403,144L404,145 M404,144L405,145 M405,144L406,145 M406,144L407,145 M407,144L408,145 M408,144L409,145 M409,144L410,145 M410,144L411,145 M411,144L412,145 M412,144L413,145 M413,144L414,145 M414,144L415,145 M415,144L416,145 M416,144L417,145 M417,144L418,145 M418,144L419,145 M419,144L420,145 M420,144L421,145 M421,144L422,145 M422,144L423,145 M423,144L424,145 M424,144L425,145 M425,144L426,145 M426,144L427,145 M427,144L428,145 M428,144L429,145 M429,144L430,145 M430,144L431,145 M431,144L432,145 M432,144L433,145 M433,144L434,145 M434,144L435,145 M435,144L436,145 M436,144L437,145 M437,144L438,145 M438,144L439,145 M439,144L440,145 M440,144L441,145 M410,145L411,146 M411,145L412,146 M412,145L413,146 M413,145L414,146 M414,145L415,146 M415,145L416,146 M416,145L417,146 M417,145L418,146 M418,145L419,146 M419,145L420,146 M420,145L421,146 M421,145L422,146 M422,145L423,146 M423,145L424,146 M424,145L425,146 M425,145L426,146 M426,145L427,146 M427,145L428,146 M428,145L429,146 M429,145L430,146" fill="none" stroke="black" />
    </svg>