<svg xmlns="http://www.w3.org/2000/svg" width="313" height="250">
        <path d="M176,0L177,1 M177,0L178,1 M176,1L177,2 M177,1L178,2 M176,2L177,3 M177,2L178,3 M176,3L177,4 M177,3L178,4 M176,4L177,5 M175,5L176,6 M176,5L177,6 M175,6L176,7 M176,6L177,7 M175,7L176,8 M176,7L177,8 M175,8L176,9 M176,8L177,9 M175,9L176,10 M176,9L177,10 M175,10L176,11 M176,10L177,11 M175,11L176,12 M176,11L177,12 M175,12L176,13 M176,12L177,13 M175,13L176,14 M175,14L176,15 M175,15L176,16 M174,16L175,17 M175,16L176,17 M174,17L175,18 M175,17L176,18 M174,18L175,19 M175,18L176,19 M174,19L175,20 M175,19L176,20 M174,20L175,21 M175,20L176,21 M174,21L175,22 M175,21L176,22 M174,22L175,23 M175,22L176,23 M174,23L175,24 M175,23L176,24 M174,24L175,25 M174,25L175,26 M174,26L175,27 M173,27L174,28 M174,27L175,28 M173,28L174,29 M174,28L175,29 M173,29L174,30 M174,29L175,30 M173,30L174,31 M174,30L175,31 M173,31L174,32 M174,31L175,32 M173,32L174,33 M174,32L175,33 M173,33L174,34 M174,33L175,34 M173,34L174,35 M174,34L175,35 M173,35L174,36 M173,36L174,37 M173,37L174,38 M172,38L173,39 M173,38L174,39 M172,39L173,40 M173,39L174,40 M172,40L173,41 M173,40L174,41 M172,41L173,42 M173,41L174,42 M297,41L298,42 M298,41L299,42 M299,41L300,42 M300,41L301,42 M301,41L302,42 M302,41L303,42 M303,41L304,42 M304,41L305,42 M305,41L306,42 M306,41L307,42 M307,41L308,42 M308,41L309,42 M309,41L310,42 M310,41L311,42 M311,41L312,42 M312,41L313,42 M172,42L173,43 M173,42L174,43 M294,42L295,43 M295,42L296,43 M296,42L297,43 M297,42L298,43 M298,42L299,43 M299,42L300,43 M172,43L173,44 M173,43L174,44 M290,43L291,44 M291,43L292,44 M292,43L293,44 M293,43L294,44 M294,43L295,44 M295,43L296,44 M172,44L173,45 M173,44L174,45 M287,44L288,45 M288,44L289,45 M289,44L290,45 M290,44L291,45 M291,44L292,45 M292,44L293,45 M172,45L173,46 M173,45L174,46 M284,45L285,46 M285,45L286,46 M286,45L287,46 M287,45L288,46 M288,45L289,46 M289,45L290,46 M172,46L173,47 M173,46L174,47 M281,46L282,47 M282,46L283,47 M283,46L284,47 M284,46L285,47 M285,46L286,47 M286,46L287,47 M172,47L173,48 M173,47L174,48 M277,47L278,48 M278,47L279,48 M279,47L280,48 M280,47L281,48 M281,47L282,48 M282,47L283,48 M172,48L173,49 M173,48L174,49 M275,48L276,49 M276,48L277,49 M277,48L278,49 M278,48L279,49 M279,48L280,49 M172,49L173,50 M173,49L174,50 M274,49L275,50 M275,49L276,50 M276,49L277,50 M172,50L173,51 M173,50L174,51 M272,50L273,51 M273,50L274,51 M274,50L275,51 M172,51L173,52 M173,51L174,52 M271,51L272,52 M272,51L273,52 M273,51L274,52 M172,52L173,53 M173,52L174,53 M269,52L270,53 M270,52L271,53 M271,52L272,53 M172,53L173,54 M173,53L174,54 M268,53L269,54 M269,53L270,54 M270,53L271,54 M172,54L173,55 M173,54L174,55 M266,54L267,55 M267,54L268,55 M268,54L269,55 M172,55L173,56 M173,55L174,56 M265,55L266,56 M266,55L267,56 M267,55L268,56 M172,56L173,57 M173,56L174,57 M263,56L264,57 M264,56L265,57 M265,56L266,57 M172,57L173,58 M173,57L174,58 M262,57L263,58 M263,57L264,58 M264,57L265,58 M172,58L173,59 M173,58L174,59 M260,58L261,59 M261,58L262,59 M262,58L263,59 M172,59L173,60 M173,59L174,60 M259,59L260,60 M260,59L261,60 M261,59L262,60 M173,60L174,61 M258,60L259,61 M259,60L260,61 M173,61L174,62 M257,61L258,62 M258,61L259,62 M173,62L174,63 M203,62L204,63 M204,62L205,63 M205,62L206,63 M256,62L257,63 M257,62L258,63 M173,63L174,64 M201,63L202,64 M202,63L203,64 M203,63L204,64 M204,63L205,64 M205,63L206,64 M206,63L207,64 M207,63L208,64 M255,63L256,64 M256,63L257,64 M257,63L258,64 M173,64L174,65 M198,64L199,65 M199,64L200,65 M200,64L201,65 M201,64L202,65 M202,64L203,65 M207,64L208,65 M208,64L209,65 M255,64L256,65 M256,64L257,65 M173,65L174,66 M174,65L175,66 M196,65L197,66 M197,65L198,66 M198,65L199,66 M199,65L200,66 M207,65L208,66 M208,65L209,66 M254,65L255,66 M255,65L256,66 M173,66L174,67 M174,66L175,67 M193,66L194,67 M194,66L195,67 M195,66L196,67 M196,66L197,67 M197,66L198,67 M207,66L208,67 M208,66L209,67 M253,66L254,67 M254,66L255,67 M173,67L174,68 M174,67L175,68 M192,67L193,68 M193,67L194,68 M194,67L195,68 M195,67L196,68 M207,67L208,68 M208,67L209,68 M252,67L253,68 M253,67L254,68 M173,68L174,69 M174,68L175,69 M191,68L192,69 M192,68L193,69 M207,68L208,69 M208,68L209,69 M251,68L252,69 M252,68L253,69 M253,68L254,69 M173,69L174,70 M174,69L175,70 M189,69L190,70 M190,69L191,70 M191,69L192,70 M207,69L208,70 M208,69L209,70 M251,69L252,70 M252,69L253,70 M173,70L174,71 M174,70L175,71 M188,70L189,71 M189,70L190,71 M190,70L191,71 M207,70L208,71 M208,70L209,71 M250,70L251,71 M251,70L252,71 M173,71L174,72 M174,71L175,72 M187,71L188,72 M188,71L189,72 M189,71L190,72 M208,71L209,72 M249,71L250,72 M250,71L251,72 M88,72L89,73 M89,72L90,73 M90,72L91,73 M91,72L92,73 M92,72L93,73 M93,72L94,73 M94,72L95,73 M95,72L96,73 M173,72L174,73 M174,72L175,73 M186,72L187,73 M187,72L188,73 M188,72L189,73 M208,72L209,73 M248,72L249,73 M249,72L250,73 M88,73L89,74 M89,73L90,74 M90,73L91,74 M91,73L92,74 M92,73L93,74 M93,73L94,74 M94,73L95,74 M95,73L96,74 M96,73L97,74 M97,73L98,74 M98,73L99,74 M173,73L174,74 M174,73L175,74 M185,73L186,74 M186,73L187,74 M208,73L209,74 M209,73L210,74 M247,73L248,74 M248,73L249,74 M88,74L89,75 M97,74L98,75 M98,74L99,75 M99,74L100,75 M100,74L101,75 M173,74L174,75 M174,74L175,75 M184,74L185,75 M185,74L186,75 M208,74L209,75 M209,74L210,75 M247,74L248,75 M248,74L249,75 M87,75L88,76 M88,75L89,76 M99,75L100,76 M100,75L101,76 M101,75L102,76 M102,75L103,76 M173,75L174,76 M174,75L175,76 M182,75L183,76 M183,75L184,76 M184,75L185,76 M208,75L209,76 M209,75L210,76 M246,75L247,76 M247,75L248,76 M87,76L88,77 M88,76L89,77 M102,76L103,77 M103,76L104,77 M104,76L105,77 M105,76L106,77 M173,76L174,77 M174,76L175,77 M181,76L182,77 M182,76L183,77 M183,76L184,77 M208,76L209,77 M209,76L210,77 M245,76L246,77 M246,76L247,77 M86,77L87,78 M87,77L88,78 M104,77L105,78 M105,77L106,78 M106,77L107,78 M107,77L108,78 M173,77L174,78 M174,77L175,78 M180,77L181,78 M181,77L182,78 M182,77L183,78 M208,77L209,78 M209,77L210,78 M244,77L245,78 M245,77L246,78 M86,78L87,79 M87,78L88,79 M106,78L107,79 M107,78L108,79 M108,78L109,79 M109,78L110,79 M173,78L174,79 M174,78L175,79 M179,78L180,79 M180,78L181,79 M181,78L182,79 M208,78L209,79 M209,78L210,79 M244,78L245,79 M86,79L87,80 M109,79L110,80 M110,79L111,80 M111,79L112,80 M173,79L174,80 M174,79L175,80 M178,79L179,80 M179,79L180,80 M208,79L209,80 M209,79L210,80 M243,79L244,80 M244,79L245,80 M85,80L86,81 M86,80L87,81 M111,80L112,81 M112,80L113,81 M174,80L175,81 M177,80L178,81 M178,80L179,81 M208,80L209,81 M243,80L244,81 M85,81L86,82 M86,81L87,82 M112,81L113,82 M113,81L114,82 M114,81L115,82 M174,81L175,82 M176,81L177,82 M177,81L178,82 M208,81L209,82 M242,81L243,82 M243,81L244,82 M85,82L86,83 M86,82L87,83 M113,82L114,83 M114,82L115,83 M115,82L116,83 M174,82L175,83 M175,82L176,83 M176,82L177,83 M207,82L208,83 M208,82L209,83 M242,82L243,83 M85,83L86,84 M86,83L87,84 M115,83L116,84 M116,83L117,84 M174,83L175,84 M175,83L176,84 M176,83L177,84 M207,83L208,84 M208,83L209,84 M241,83L242,84 M242,83L243,84 M85,84L86,85 M86,84L87,85 M116,84L117,85 M117,84L118,85 M118,84L119,85 M174,84L175,85 M175,84L176,85 M207,84L208,85 M208,84L209,85 M240,84L241,85 M241,84L242,85 M85,85L86,86 M86,85L87,86 M117,85L118,86 M118,85L119,86 M119,85L120,86 M173,85L174,86 M174,85L175,86 M175,85L176,86 M207,85L208,86 M208,85L209,86 M240,85L241,86 M241,85L242,86 M85,86L86,87 M86,86L87,87 M118,86L119,87 M119,86L120,87 M120,86L121,87 M173,86L174,87 M174,86L175,87 M175,86L176,87 M207,86L208,87 M208,86L209,87 M239,86L240,87 M240,86L241,87 M85,87L86,88 M86,87L87,88 M120,87L121,88 M121,87L122,88 M172,87L173,88 M173,87L174,88 M175,87L176,88 M176,87L177,88 M207,87L208,88 M208,87L209,88 M239,87L240,88 M240,87L241,88 M85,88L86,89 M86,88L87,89 M121,88L122,89 M122,88L123,89 M123,88L124,89 M171,88L172,89 M172,88L173,89 M175,88L176,89 M176,88L177,89 M207,88L208,89 M238,88L239,89 M239,88L240,89 M86,89L87,90 M122,89L123,90 M123,89L124,90 M124,89L125,90 M171,89L172,90 M172,89L173,90 M176,89L177,90 M207,89L208,90 M238,89L239,90 M239,89L240,90 M86,90L87,91 M124,90L125,91 M125,90L126,91 M170,90L171,91 M171,90L172,91 M176,90L177,91 M177,90L178,91 M206,90L207,91 M207,90L208,91 M237,90L238,91 M238,90L239,91 M86,91L87,92 M87,91L88,92 M125,91L126,92 M126,91L127,92 M127,91L128,92 M169,91L170,92 M170,91L171,92 M176,91L177,92 M177,91L178,92 M206,91L207,92 M207,91L208,92 M237,91L238,92 M238,91L239,92 M86,92L87,93 M87,92L88,93 M126,92L127,93 M127,92L128,93 M128,92L129,93 M168,92L169,93 M169,92L170,93 M176,92L177,93 M177,92L178,93 M206,92L207,93 M207,92L208,93 M236,92L237,93 M237,92L238,93 M86,93L87,94 M87,93L88,94 M127,93L128,94 M128,93L129,94 M129,93L130,94 M168,93L169,94 M169,93L170,94 M177,93L178,94 M178,93L179,94 M206,93L207,94 M207,93L208,94 M236,93L237,94 M237,93L238,94 M87,94L88,95 M88,94L89,95 M129,94L130,95 M130,94L131,95 M167,94L168,95 M168,94L169,95 M177,94L178,95 M178,94L179,95 M206,94L207,95 M207,94L208,95 M235,94L236,95 M236,94L237,95 M87,95L88,96 M88,95L89,96 M130,95L131,96 M131,95L132,96 M132,95L133,96 M166,95L167,96 M167,95L168,96 M177,95L178,96 M178,95L179,96 M206,95L207,96 M235,95L236,96 M236,95L237,96 M87,96L88,97 M88,96L89,97 M131,96L132,97 M132,96L133,97 M133,96L134,97 M166,96L167,97 M167,96L168,97 M178,96L179,97 M206,96L207,97 M234,96L235,97 M235,96L236,97 M88,97L89,98 M89,97L90,98 M133,97L134,98 M134,97L135,98 M165,97L166,98 M166,97L167,98 M178,97L179,98 M179,97L180,98 M205,97L206,98 M206,97L207,98 M234,97L235,98 M235,97L236,98 M88,98L89,99 M89,98L90,99 M134,98L135,99 M135,98L136,99 M164,98L165,99 M165,98L166,99 M178,98L179,99 M179,98L180,99 M205,98L206,99 M206,98L207,99 M233,98L234,99 M234,98L235,99 M88,99L89,100 M89,99L90,100 M135,99L136,100 M136,99L137,100 M164,99L165,100 M165,99L166,100 M178,99L179,100 M179,99L180,100 M205,99L206,100 M206,99L207,100 M233,99L234,100 M234,99L235,100 M89,100L90,101 M90,100L91,101 M136,100L137,101 M137,100L138,101 M163,100L164,101 M164,100L165,101 M179,100L180,101 M180,100L181,101 M205,100L206,101 M206,100L207,101 M232,100L233,101 M233,100L234,101 M89,101L90,102 M90,101L91,102 M137,101L138,102 M138,101L139,102 M162,101L163,102 M163,101L164,102 M179,101L180,102 M180,101L181,102 M205,101L206,102 M206,101L207,102 M232,101L233,102 M90,102L91,103 M138,102L139,103 M139,102L140,103 M140,102L141,103 M162,102L163,103 M179,102L180,103 M180,102L181,103 M205,102L206,103 M231,102L232,103 M232,102L233,103 M90,103L91,104 M91,103L92,104 M139,103L140,104 M140,103L141,104 M141,103L142,104 M161,103L162,104 M162,103L163,104 M180,103L181,104 M205,103L206,104 M231,103L232,104 M232,103L233,104 M90,104L91,105 M91,104L92,105 M140,104L141,105 M141,104L142,105 M142,104L143,105 M160,104L161,105 M161,104L162,105 M180,104L181,105 M181,104L182,105 M204,104L205,105 M205,104L206,105 M230,104L231,105 M231,104L232,105 M91,105L92,106 M141,105L142,106 M142,105L143,106 M143,105L144,106 M159,105L160,106 M160,105L161,106 M180,105L181,106 M181,105L182,106 M204,105L205,106 M205,105L206,106 M230,105L231,106 M231,105L232,106 M91,106L92,107 M92,106L93,107 M142,106L143,107 M143,106L144,107 M144,106L145,107 M159,106L160,107 M160,106L161,107 M180,106L181,107 M181,106L182,107 M204,106L205,107 M205,106L206,107 M229,106L230,107 M230,106L231,107 M91,107L92,108 M92,107L93,108 M143,107L144,108 M144,107L145,108 M145,107L146,108 M158,107L159,108 M159,107L160,108 M181,107L182,108 M182,107L183,108 M204,107L205,108 M205,107L206,108 M229,107L230,108 M230,107L231,108 M92,108L93,109 M93,108L94,109 M145,108L146,109 M146,108L147,109 M158,108L159,109 M181,108L182,109 M182,108L183,109 M204,108L205,109 M229,108L230,109 M92,109L93,110 M93,109L94,110 M94,109L95,110 M146,109L147,110 M147,109L148,110 M157,109L158,110 M158,109L159,110 M181,109L182,110 M182,109L183,110 M203,109L204,110 M204,109L205,110 M228,109L229,110 M229,109L230,110 M93,110L94,111 M94,110L95,111 M147,110L148,111 M148,110L149,111 M157,110L158,111 M182,110L183,111 M203,110L204,111 M204,110L205,111 M228,110L229,111 M94,111L95,112 M95,111L96,112 M148,111L149,112 M149,111L150,112 M156,111L157,112 M157,111L158,112 M182,111L183,112 M183,111L184,112 M203,111L204,112 M204,111L205,112 M227,111L228,112 M228,111L229,112 M95,112L96,113 M96,112L97,113 M149,112L150,113 M150,112L151,113 M156,112L157,113 M182,112L183,113 M183,112L184,113 M203,112L204,113 M227,112L228,113 M96,113L97,114 M97,113L98,114 M150,113L151,114 M151,113L152,114 M155,113L156,114 M156,113L157,114 M182,113L183,114 M183,113L184,114 M203,113L204,114 M226,113L227,114 M227,113L228,114 M96,114L97,115 M97,114L98,115 M98,114L99,115 M151,114L152,115 M152,114L153,115 M153,114L154,115 M155,114L156,115 M183,114L184,115 M202,114L203,115 M203,114L204,115 M226,114L227,115 M227,114L228,115 M97,115L98,116 M98,115L99,116 M152,115L153,116 M153,115L154,116 M154,115L155,116 M155,115L156,116 M202,115L203,116 M203,115L204,116 M225,115L226,116 M226,115L227,116 M98,116L99,117 M99,116L100,117 M153,116L154,117 M154,116L155,117 M155,116L156,117 M202,116L203,117 M203,116L204,117 M225,116L226,117 M226,116L227,117 M99,117L100,118 M100,117L101,118 M153,117L154,118 M154,117L155,118 M155,117L156,118 M156,117L157,118 M202,117L203,118 M224,117L225,118 M225,117L226,118 M99,118L100,119 M100,118L101,119 M101,118L102,119 M153,118L154,119 M155,118L156,119 M156,118L157,119 M157,118L158,119 M202,118L203,119 M224,118L225,119 M225,118L226,119 M100,119L101,120 M101,119L102,120 M152,119L153,120 M153,119L154,120 M156,119L157,120 M157,119L158,120 M158,119L159,120 M201,119L202,120 M202,119L203,120 M224,119L225,120 M101,120L102,121 M102,120L103,121 M152,120L153,121 M158,120L159,121 M159,120L160,121 M201,120L202,121 M202,120L203,121 M223,120L224,121 M224,120L225,121 M102,121L103,122 M103,121L104,122 M151,121L152,122 M152,121L153,122 M159,121L160,122 M160,121L161,122 M161,121L162,122 M201,121L202,122 M202,121L203,122 M223,121L224,122 M103,122L104,123 M104,122L105,123 M151,122L152,123 M160,122L161,123 M161,122L162,123 M162,122L163,123 M201,122L202,123 M222,122L223,123 M223,122L224,123 M103,123L104,124 M104,123L105,124 M105,123L106,124 M150,123L151,124 M151,123L152,124 M161,123L162,124 M162,123L163,124 M163,123L164,124 M200,123L201,124 M201,123L202,124 M222,123L223,124 M104,124L105,125 M105,124L106,125 M106,124L107,125 M150,124L151,125 M163,124L164,125 M164,124L165,125 M200,124L201,125 M201,124L202,125 M221,124L222,125 M222,124L223,125 M105,125L106,126 M106,125L107,126 M107,125L108,126 M149,125L150,126 M150,125L151,126 M164,125L165,126 M165,125L166,126 M166,125L167,126 M200,125L201,126 M201,125L202,126 M221,125L222,126 M222,125L223,126 M107,126L108,127 M108,126L109,127 M149,126L150,127 M165,126L166,127 M166,126L167,127 M167,126L168,127 M200,126L201,127 M201,126L202,127 M220,126L221,127 M221,126L222,127 M108,127L109,128 M109,127L110,128 M148,127L149,128 M149,127L150,128 M166,127L167,128 M167,127L168,128 M168,127L169,128 M200,127L201,128 M220,127L221,128 M221,127L222,128 M109,128L110,129 M110,128L111,129 M148,128L149,129 M149,128L150,129 M168,128L169,129 M169,128L170,129 M199,128L200,129 M200,128L201,129 M219,128L220,129 M220,128L221,129 M110,129L111,130 M111,129L112,130 M148,129L149,130 M169,129L170,130 M170,129L171,130 M171,129L172,130 M199,129L200,130 M200,129L201,130 M219,129L220,130 M220,129L221,130 M111,130L112,131 M112,130L113,131 M147,130L148,131 M148,130L149,131 M170,130L171,131 M171,130L172,131 M172,130L173,131 M199,130L200,131 M200,130L201,131 M218,130L219,131 M219,130L220,131 M112,131L113,132 M113,131L114,132 M147,131L148,132 M148,131L149,132 M171,131L172,132 M172,131L173,132 M173,131L174,132 M199,131L200,132 M200,131L201,132 M218,131L219,132 M219,131L220,132 M113,132L114,133 M114,132L115,133 M147,132L148,133 M148,132L149,133 M173,132L174,133 M174,132L175,133 M199,132L200,133 M217,132L218,133 M218,132L219,133 M114,133L115,134 M115,133L116,134 M146,133L147,134 M147,133L148,134 M174,133L175,134 M175,133L176,134 M176,133L177,134 M198,133L199,134 M199,133L200,134 M217,133L218,134 M218,133L219,134 M115,134L116,135 M116,134L117,135 M146,134L147,135 M147,134L148,135 M175,134L176,135 M176,134L177,135 M177,134L178,135 M198,134L199,135 M199,134L200,135 M216,134L217,135 M217,134L218,135 M116,135L117,136 M117,135L118,136 M146,135L147,136 M147,135L148,136 M177,135L178,136 M178,135L179,136 M198,135L199,136 M199,135L200,136 M216,135L217,136 M217,135L218,136 M117,136L118,137 M118,136L119,137 M146,136L147,137 M178,136L179,137 M179,136L180,137 M180,136L181,137 M198,136L199,137 M215,136L216,137 M216,136L217,137 M118,137L119,138 M119,137L120,138 M145,137L146,138 M146,137L147,138 M179,137L180,138 M180,137L181,138 M181,137L182,138 M198,137L199,138 M215,137L216,138 M216,137L217,138 M119,138L120,139 M120,138L121,139 M145,138L146,139 M146,138L147,139 M181,138L182,139 M182,138L183,139 M183,138L184,139 M197,138L198,139 M198,138L199,139 M214,138L215,139 M215,138L216,139 M120,139L121,140 M121,139L122,140 M145,139L146,140 M183,139L184,140 M184,139L185,140 M185,139L186,140 M197,139L198,140 M198,139L199,140 M214,139L215,140 M215,139L216,140 M121,140L122,141 M122,140L123,141 M123,140L124,141 M144,140L145,141 M145,140L146,141 M184,140L185,141 M185,140L186,141 M186,140L187,141 M197,140L198,141 M198,140L199,141 M213,140L214,141 M214,140L215,141 M122,141L123,142 M123,141L124,142 M124,141L125,142 M144,141L145,142 M145,141L146,142 M186,141L187,142 M187,141L188,142 M188,141L189,142 M197,141L198,142 M213,141L214,142 M214,141L215,142 M123,142L124,143 M124,142L125,143 M125,142L126,143 M144,142L145,143 M188,142L189,143 M189,142L190,143 M190,142L191,143 M197,142L198,143 M212,142L213,143 M213,142L214,143 M124,143L125,144 M125,143L126,144 M126,143L127,144 M143,143L144,144 M144,143L145,144 M189,143L190,144 M190,143L191,144 M191,143L192,144 M196,143L197,144 M197,143L198,144 M211,143L212,144 M212,143L213,144 M126,144L127,145 M127,144L128,145 M143,144L144,145 M144,144L145,145 M191,144L192,145 M192,144L193,145 M193,144L194,145 M196,144L197,145 M197,144L198,145 M210,144L211,145 M211,144L212,145 M127,145L128,146 M128,145L129,146 M142,145L143,146 M143,145L144,146 M144,145L145,146 M192,145L193,146 M193,145L194,146 M194,145L195,146 M195,145L196,146 M196,145L197,146 M197,145L198,146 M209,145L210,146 M210,145L211,146 M128,146L129,147 M129,146L130,147 M142,146L143,147 M143,146L144,147 M144,146L145,147 M194,146L195,147 M195,146L196,147 M196,146L197,147 M197,146L198,147 M198,146L199,147 M199,146L200,147 M200,146L201,147 M201,146L202,147 M202,146L203,147 M203,146L204,147 M204,146L205,147 M205,146L206,147 M206,146L207,147 M207,146L208,147 M208,146L209,147 M209,146L210,147 M129,147L130,148 M130,147L131,148 M142,147L143,148 M143,147L144,148 M196,147L197,148 M199,147L200,148 M200,147L201,148 M201,147L202,148 M202,147L203,148 M203,147L204,148 M204,147L205,148 M205,147L206,148 M206,147L207,148 M207,147L208,148 M208,147L209,148 M209,147L210,148 M130,148L131,149 M131,148L132,149 M132,148L133,149 M142,148L143,149 M143,148L144,149 M195,148L196,149 M196,148L197,149 M131,149L132,150 M132,149L133,150 M133,149L134,150 M142,149L143,150 M143,149L144,150 M195,149L196,150 M196,149L197,150 M132,150L133,151 M133,150L134,151 M134,150L135,151 M142,150L143,151 M143,150L144,151 M195,150L196,151 M196,150L197,151 M133,151L134,152 M134,151L135,152 M135,151L136,152 M142,151L143,152 M143,151L144,152 M195,151L196,152 M135,152L136,153 M136,152L137,153 M142,152L143,153 M143,152L144,153 M194,152L195,153 M195,152L196,153 M136,153L137,154 M137,153L138,154 M141,153L142,154 M142,153L143,154 M143,153L144,154 M194,153L195,154 M195,153L196,154 M137,154L138,155 M138,154L139,155 M194,154L195,155 M195,154L196,155 M138,155L139,156 M139,155L140,156 M194,155L195,156 M195,155L196,156 M139,156L140,157 M140,156L141,157 M194,156L195,157 M140,157L141,158 M141,157L142,158 M193,157L194,158 M194,157L195,158 M140,158L141,159 M141,158L142,159 M142,158L143,159 M193,158L194,159 M194,158L195,159 M141,159L142,160 M142,159L143,160 M143,159L144,160 M193,159L194,160 M194,159L195,160 M142,160L143,161 M143,160L144,161 M193,160L194,161 M194,160L195,161 M143,161L144,162 M144,161L145,162 M193,161L194,162 M144,162L145,163 M145,162L146,163 M192,162L193,163 M193,162L194,163 M145,163L146,164 M146,163L147,164 M192,163L193,164 M193,163L194,164 M145,164L146,165 M146,164L147,165 M147,164L148,165 M192,164L193,165 M193,164L194,165 M146,165L147,166 M147,165L148,166 M148,165L149,166 M192,165L193,166 M193,165L194,166 M147,166L148,167 M148,166L149,167 M192,166L193,167 M148,167L149,168 M149,167L150,168 M191,167L192,168 M192,167L193,168 M149,168L150,169 M150,168L151,169 M191,168L192,169 M192,168L193,169 M150,169L151,170 M151,169L152,170 M191,169L192,170 M192,169L193,170 M150,170L151,171 M151,170L152,171 M152,170L153,171 M191,170L192,171 M192,170L193,171 M151,171L152,172 M152,171L153,172 M153,171L154,172 M191,171L192,172 M152,172L153,173 M153,172L154,173 M190,172L191,173 M191,172L192,173 M153,173L154,174 M154,173L155,174 M190,173L191,174 M191,173L192,174 M154,174L155,175 M155,174L156,175 M190,174L191,175 M191,174L192,175 M155,175L156,176 M156,175L157,176 M189,175L190,176 M190,175L191,176 M155,176L156,177 M156,176L157,177 M157,176L158,177 M189,176L190,177 M190,176L191,177 M156,177L157,178 M157,177L158,178 M158,177L159,178 M188,177L189,178 M189,177L190,178 M157,178L158,179 M158,178L159,179 M159,178L160,179 M188,178L189,179 M189,178L190,179 M158,179L159,180 M159,179L160,180 M160,179L161,180 M187,179L188,180 M188,179L189,180 M159,180L160,181 M160,180L161,181 M161,180L162,181 M187,180L188,181 M188,180L189,181 M160,181L161,182 M161,181L162,182 M162,181L163,182 M186,181L187,182 M187,181L188,182 M161,182L162,183 M162,182L163,183 M163,182L164,183 M186,182L187,183 M162,183L163,184 M163,183L164,184 M164,183L165,184 M185,183L186,184 M186,183L187,184 M163,184L164,185 M164,184L165,185 M165,184L166,185 M185,184L186,185 M164,185L165,186 M165,185L166,186 M166,185L167,186 M184,185L185,186 M185,185L186,186 M165,186L166,187 M166,186L167,187 M167,186L168,187 M184,186L185,187 M166,187L167,188 M167,187L168,188 M183,187L184,188 M184,187L185,188 M167,188L168,189 M168,188L169,189 M183,188L184,189 M168,189L169,190 M169,189L170,190 M182,189L183,190 M183,189L184,190 M169,190L170,191 M170,190L171,191 M181,190L182,191 M182,190L183,191 M170,191L171,192 M171,191L172,192 M181,191L182,192 M182,191L183,192 M171,192L172,193 M172,192L173,193 M180,192L181,193 M181,192L182,193 M172,193L173,194 M173,193L174,194 M174,193L175,194 M175,193L176,194 M176,193L177,194 M177,193L178,194 M178,193L179,194 M179,193L180,194 M180,193L181,194 M181,193L182,194 M179,194L180,195 M180,194L181,195" fill="none" stroke="black" />
    </svg>