<svg xmlns="http://www.w3.org/2000/svg" width="800" height="250">
        <path d="M472,29L473,30 M473,29L474,30 M474,29L475,30 M475,29L476,30 M476,29L477,30 M477,29L478,30 M478,29L479,30 M479,29L480,30 M480,29L481,30 M481,29L482,30 M482,29L483,30 M483,29L484,30 M484,29L485,30 M485,29L486,30 M486,29L487,30 M487,29L488,30 M488,29L489,30 M489,29L490,30 M490,29L491,30 M491,29L492,30 M492,29L493,30 M493,29L494,30 M494,29L495,30 M495,29L496,30 M459,30L460,31 M460,30L461,31 M461,30L462,31 M462,30L463,31 M463,30L464,31 M464,30L465,31 M465,30L466,31 M466,30L467,31 M467,30L468,31 M468,30L469,31 M469,30L470,31 M470,30L471,31 M471,30L472,31 M472,30L473,31 M473,30L474,31 M474,30L475,31 M475,30L476,31 M476,30L477,31 M477,30L478,31 M478,30L479,31 M479,30L480,31 M480,30L481,31 M481,30L482,31 M482,30L483,31 M483,30L484,31 M484,30L485,31 M485,30L486,31 M486,30L487,31 M487,30L488,31 M488,30L489,31 M489,30L490,31 M490,30L491,31 M491,30L492,31 M492,30L493,31 M493,30L494,31 M494,30L495,31 M495,30L496,31 M496,30L497,31 M497,30L498,31 M498,30L499,31 M499,30L500,31 M500,30L501,31 M501,30L502,31 M502,30L503,31 M503,30L504,31 M504,30L505,31 M505,30L506,31 M506,30L507,31 M507,30L508,31 M508,30L509,31 M509,30L510,31 M510,30L511,31 M511,30L512,31 M512,30L513,31 M513,30L514,31 M451,31L452,32 M452,31L453,32 M453,31L454,32 M454,31L455,32 M455,31L456,32 M456,31L457,32 M457,31L458,32 M458,31L459,32 M459,31L460,32 M460,31L461,32 M461,31L462,32 M462,31L463,32 M463,31L464,32 M464,31L465,32 M465,31L466,32 M466,31L467,32 M467,31L468,32 M468,31L469,32 M469,31L470,32 M470,31L471,32 M471,31L472,32 M496,31L497,32 M497,31L498,32 M498,31L499,32 M499,31L500,32 M500,31L501,32 M501,31L502,32 M502,31L503,32 M503,31L504,32 M504,31L505,32 M505,31L506,32 M506,31L507,32 M507,31L508,32 M508,31L509,32 M509,31L510,32 M510,31L511,32 M511,31L512,32 M512,31L513,32 M513,31L514,32 M514,31L515,32 M515,31L516,32 M516,31L517,32 M517,31L518,32 M518,31L519,32 M519,31L520,32 M447,32L448,33 M448,32L449,33 M449,32L450,33 M450,32L451,33 M451,32L452,33 M452,32L453,33 M453,32L454,33 M454,32L455,33 M455,32L456,33 M456,32L457,33 M457,32L458,33 M458,32L459,33 M514,32L515,33 M515,32L516,33 M516,32L517,33 M517,32L518,33 M518,32L519,33 M519,32L520,33 M520,32L521,33 M521,32L522,33 M522,32L523,33 M523,32L524,33 M524,32L525,33 M525,32L526,33 M526,32L527,33 M442,33L443,34 M443,33L444,34 M444,33L445,34 M445,33L446,34 M446,33L447,34 M447,33L448,34 M448,33L449,34 M449,33L450,34 M450,33L451,34 M451,33L452,34 M520,33L521,34 M521,33L522,34 M522,33L523,34 M523,33L524,34 M524,33L525,34 M525,33L526,34 M526,33L527,34 M527,33L528,34 M528,33L529,34 M529,33L530,34 M530,33L531,34 M531,33L532,34 M532,33L533,34 M438,34L439,35 M439,34L440,35 M440,34L441,35 M441,34L442,35 M442,34L443,35 M443,34L444,35 M444,34L445,35 M445,34L446,35 M446,34L447,35 M527,34L528,35 M528,34L529,35 M529,34L530,35 M530,34L531,35 M531,34L532,35 M532,34L533,35 M533,34L534,35 M534,34L535,35 M535,34L536,35 M536,34L537,35 M537,34L538,35 M433,35L434,36 M434,35L435,36 M435,35L436,36 M436,35L437,36 M437,35L438,36 M438,35L439,36 M439,35L440,36 M440,35L441,36 M441,35L442,36 M533,35L534,36 M534,35L535,36 M535,35L536,36 M536,35L537,36 M537,35L538,36 M538,35L539,36 M539,35L540,36 M540,35L541,36 M429,36L430,37 M430,36L431,37 M431,36L432,37 M432,36L433,37 M433,36L434,37 M434,36L435,37 M435,36L436,37 M436,36L437,37 M437,36L438,37 M538,36L539,37 M539,36L540,37 M540,36L541,37 M541,36L542,37 M542,36L543,37 M543,36L544,37 M425,37L426,38 M426,37L427,38 M427,37L428,38 M428,37L429,38 M429,37L430,38 M430,37L431,38 M431,37L432,38 M432,37L433,38 M541,37L542,38 M542,37L543,38 M543,37L544,38 M544,37L545,38 M545,37L546,38 M546,37L547,38 M422,38L423,39 M423,38L424,39 M424,38L425,39 M425,38L426,39 M426,38L427,39 M427,38L428,39 M428,38L429,39 M544,38L545,39 M545,38L546,39 M546,38L547,39 M547,38L548,39 M548,38L549,39 M549,38L550,39 M418,39L419,40 M419,39L420,40 M420,39L421,40 M421,39L422,40 M422,39L423,40 M423,39L424,40 M424,39L425,40 M425,39L426,40 M547,39L548,40 M548,39L549,40 M549,39L550,40 M550,39L551,40 M551,39L552,40 M552,39L553,40 M553,39L554,40 M415,40L416,41 M416,40L417,41 M417,40L418,41 M418,40L419,41 M419,40L420,41 M420,40L421,41 M421,40L422,41 M550,40L551,41 M551,40L552,41 M552,40L553,41 M553,40L554,41 M554,40L555,41 M555,40L556,41 M556,40L557,41 M411,41L412,42 M412,41L413,42 M413,41L414,42 M414,41L415,42 M415,41L416,42 M416,41L417,42 M417,41L418,42 M418,41L419,42 M553,41L554,42 M554,41L555,42 M555,41L556,42 M556,41L557,42 M557,41L558,42 M558,41L559,42 M559,41L560,42 M408,42L409,43 M409,42L410,43 M410,42L411,43 M411,42L412,43 M412,42L413,43 M413,42L414,43 M414,42L415,43 M556,42L557,43 M557,42L558,43 M558,42L559,43 M559,42L560,43 M560,42L561,43 M561,42L562,43 M405,43L406,44 M406,43L407,44 M407,43L408,44 M408,43L409,44 M409,43L410,44 M410,43L411,44 M411,43L412,44 M559,43L560,44 M560,43L561,44 M561,43L562,44 M562,43L563,44 M563,43L564,44 M564,43L565,44 M403,44L404,45 M404,44L405,45 M405,44L406,45 M406,44L407,45 M407,44L408,45 M408,44L409,45 M562,44L563,45 M563,44L564,45 M564,44L565,45 M565,44L566,45 M566,44L567,45 M400,45L401,46 M401,45L402,46 M402,45L403,46 M403,45L404,46 M404,45L405,46 M405,45L406,46 M564,45L565,46 M565,45L566,46 M566,45L567,46 M567,45L568,46 M568,45L569,46 M397,46L398,47 M398,46L399,47 M399,46L400,47 M400,46L401,47 M401,46L402,47 M402,46L403,47 M566,46L567,47 M567,46L568,47 M568,46L569,47 M569,46L570,47 M570,46L571,47 M394,47L395,48 M395,47L396,48 M396,47L397,48 M397,47L398,48 M398,47L399,48 M399,47L400,48 M568,47L569,48 M569,47L570,48 M570,47L571,48 M571,47L572,48 M572,47L573,48 M392,48L393,49 M393,48L394,49 M394,48L395,49 M395,48L396,49 M396,48L397,49 M571,48L572,49 M572,48L573,49 M573,48L574,49 M574,48L575,49 M390,49L391,50 M391,49L392,50 M392,49L393,50 M393,49L394,50 M573,49L574,50 M574,49L575,50 M575,49L576,50 M576,49L577,50 M388,50L389,51 M389,50L390,51 M390,50L391,51 M391,50L392,51 M575,50L576,51 M576,50L577,51 M577,50L578,51 M578,50L579,51 M387,51L388,52 M388,51L389,52 M389,51L390,52 M390,51L391,52 M577,51L578,52 M578,51L579,52 M579,51L580,52 M385,52L386,53 M386,52L387,53 M387,52L388,53 M388,52L389,53 M578,52L579,53 M579,52L580,53 M580,52L581,53 M581,52L582,53 M383,53L384,54 M384,53L385,54 M385,53L386,54 M386,53L387,54 M580,53L581,54 M581,53L582,54 M582,53L583,54 M381,54L382,55 M382,54L383,55 M383,54L384,55 M384,54L385,55 M581,54L582,55 M582,54L583,55 M583,54L584,55 M584,54L585,55 M380,55L381,56 M381,55L382,56 M382,55L383,56 M383,55L384,56 M583,55L584,56 M584,55L585,56 M585,55L586,56 M378,56L379,57 M379,56L380,57 M380,56L381,57 M381,56L382,57 M584,56L585,57 M585,56L586,57 M586,56L587,57 M587,56L588,57 M377,57L378,58 M378,57L379,58 M379,57L380,58 M586,57L587,58 M587,57L588,58 M588,57L589,58 M589,57L590,58 M376,58L377,59 M377,58L378,59 M378,58L379,59 M587,58L588,59 M588,58L589,59 M589,58L590,59 M590,58L591,59 M375,59L376,60 M376,59L377,60 M377,59L378,60 M589,59L590,60 M590,59L591,60 M591,59L592,60 M373,60L374,61 M374,60L375,61 M375,60L376,61 M590,60L591,61 M591,60L592,61 M592,60L593,61 M372,61L373,62 M373,61L374,62 M374,61L375,62 M591,61L592,62 M592,61L593,62 M593,61L594,62 M371,62L372,63 M372,62L373,63 M373,62L374,63 M592,62L593,63 M593,62L594,63 M594,62L595,63 M370,63L371,64 M371,63L372,64 M372,63L373,64 M594,63L595,64 M595,63L596,64 M596,63L597,64 M369,64L370,65 M370,64L371,65 M371,64L372,65 M595,64L596,65 M596,64L597,65 M597,64L598,65 M368,65L369,66 M369,65L370,66 M370,65L371,66 M596,65L597,66 M597,65L598,66 M598,65L599,66 M366,66L367,67 M367,66L368,67 M368,66L369,67 M597,66L598,67 M598,66L599,67 M599,66L600,67 M365,67L366,68 M366,67L367,68 M367,67L368,68 M598,67L599,68 M599,67L600,68 M600,67L601,68 M364,68L365,69 M365,68L366,69 M366,68L367,69 M599,68L600,69 M600,68L601,69 M601,68L602,69 M363,69L364,70 M364,69L365,70 M365,69L366,70 M600,69L601,70 M601,69L602,70 M363,70L364,71 M364,70L365,71 M601,70L602,71 M602,70L603,71 M362,71L363,72 M363,71L364,72 M601,71L602,72 M602,71L603,72 M603,71L604,72 M362,72L363,73 M363,72L364,73 M602,72L603,73 M603,72L604,73 M361,73L362,74 M362,73L363,74 M363,73L364,74 M603,73L604,74 M604,73L605,74 M361,74L362,75 M362,74L363,75 M603,74L604,75 M604,74L605,75 M605,74L606,75 M360,75L361,76 M361,75L362,76 M362,75L363,76 M604,75L605,76 M605,75L606,76 M360,76L361,77 M361,76L362,77 M605,76L606,77 M606,76L607,77 M360,77L361,78 M361,77L362,78 M605,77L606,78 M606,77L607,78 M359,78L360,79 M360,78L361,79 M606,78L607,79 M607,78L608,79 M359,79L360,80 M360,79L361,80 M606,79L607,80 M607,79L608,80 M358,80L359,81 M359,80L360,81 M360,80L361,81 M607,80L608,81 M608,80L609,81 M358,81L359,82 M359,81L360,82 M607,81L608,82 M608,81L609,82 M358,82L359,83 M359,82L360,83 M608,82L609,83 M609,82L610,83 M357,83L358,84 M358,83L359,84 M359,83L360,84 M608,83L609,84 M609,83L610,84 M357,84L358,85 M358,84L359,85 M609,84L610,85 M610,84L611,85 M357,85L358,86 M358,85L359,86 M609,85L610,86 M610,85L611,86 M357,86L358,87 M358,86L359,87 M609,86L610,87 M610,86L611,87 M357,87L358,88 M358,87L359,88 M609,87L610,88 M610,87L611,88 M611,87L612,88 M357,88L358,89 M358,88L359,89 M610,88L611,89 M611,88L612,89 M357,89L358,90 M358,89L359,90 M610,89L611,90 M611,89L612,90 M357,90L358,91 M358,90L359,91 M610,90L611,91 M611,90L612,91 M357,91L358,92 M358,91L359,92 M610,91L611,92 M611,91L612,92 M357,92L358,93 M358,92L359,93 M610,92L611,93 M611,92L612,93 M612,92L613,93 M357,93L358,94 M358,93L359,94 M611,93L612,94 M612,93L613,94 M357,94L358,95 M358,94L359,95 M611,94L612,95 M612,94L613,95 M358,95L359,96 M359,95L360,96 M611,95L612,96 M612,95L613,96 M358,96L359,97 M359,96L360,97 M611,96L612,97 M612,96L613,97 M358,97L359,98 M611,97L612,98 M612,97L613,98 M611,98L612,99 M612,98L613,99 M611,99L612,100 M612,99L613,100 M611,100L612,101 M612,100L613,101 M611,101L612,102 M612,101L613,102 M611,102L612,103 M612,102L613,103 M611,103L612,104 M612,103L613,104 M611,104L612,105 M612,104L613,105 M611,105L612,106 M612,105L613,106 M611,106L612,107 M612,106L613,107 M611,107L612,108 M612,107L613,108 M611,108L612,109 M612,108L613,109 M611,109L612,110 M612,109L613,110 M611,110L612,111 M612,110L613,111 M611,111L612,112 M612,111L613,112 M610,112L611,113 M611,112L612,113 M610,113L611,114 M611,113L612,114 M610,114L611,115 M611,114L612,115 M610,115L611,116 M611,115L612,116 M610,116L611,117 M611,116L612,117 M610,117L611,118 M611,117L612,118 M610,118L611,119 M611,118L612,119 M610,119L611,120 M611,119L612,120 M610,120L611,121 M611,120L612,121 M610,121L611,122 M611,121L612,122 M610,122L611,123 M611,122L612,123 M609,123L610,124 M610,123L611,124 M609,124L610,125 M610,124L611,125 M609,125L610,126 M610,125L611,126 M609,126L610,127 M610,126L611,127 M609,127L610,128 M610,127L611,128 M609,128L610,129 M610,128L611,129 M608,129L609,130 M609,129L610,130 M610,129L611,130 M608,130L609,131 M609,130L610,131 M608,131L609,132 M609,131L610,132 M607,132L608,133 M608,132L609,133 M609,132L610,133 M607,133L608,134 M608,133L609,134 M607,134L608,135 M608,134L609,135 M607,135L608,136 M608,135L609,136 M606,136L607,137 M607,136L608,137 M606,137L607,138 M607,137L608,138 M606,138L607,139 M607,138L608,139 M605,139L606,140 M606,139L607,140 M605,140L606,141 M606,140L607,141 M605,141L606,142 M606,141L607,142 M604,142L605,143 M605,142L606,143 M604,143L605,144 M605,143L606,144 M604,144L605,145 M605,144L606,145 M603,145L604,146 M604,145L605,146 M603,146L604,147 M604,146L605,147 M603,147L604,148 M604,147L605,148 M602,148L603,149 M603,148L604,149 M602,149L603,150 M603,149L604,150 M602,150L603,151 M603,150L604,151 M601,151L602,152 M602,151L603,152 M601,152L602,153 M602,152L603,153 M601,153L602,154 M602,153L603,154 M600,154L601,155 M601,154L602,155 M602,154L603,155 M600,155L601,156 M601,155L602,156 M600,156L601,157 M601,156L602,157 M599,157L600,158 M600,157L601,158 M599,158L600,159 M600,158L601,159 M599,159L600,160 M600,159L601,160 M598,160L599,161 M599,160L600,161 M598,161L599,162 M599,161L600,162 M597,162L598,163 M598,162L599,163 M599,162L600,163 M597,163L598,164 M598,163L599,164 M597,164L598,165 M598,164L599,165 M596,165L597,166 M597,165L598,166 M596,166L597,167 M597,166L598,167 M595,167L596,168 M596,167L597,168 M597,167L598,168 M595,168L596,169 M596,168L597,169 M595,169L596,170 M596,169L597,170 M594,170L595,171 M595,170L596,171 M594,171L595,172 M595,171L596,172 M594,172L595,173 M595,172L596,173 M593,173L594,174 M594,173L595,174 M593,174L594,175 M594,174L595,175 M592,175L593,176 M593,175L594,176 M592,176L593,177 M593,176L594,177 M592,177L593,178 M593,177L594,178 M591,178L592,179 M592,178L593,179 M591,179L592,180 M592,179L593,180 M590,180L591,181 M591,180L592,181 M592,180L593,181 M590,181L591,182 M591,181L592,182 M590,182L591,183 M591,182L592,183 M589,183L590,184 M590,183L591,184 M589,184L590,185 M590,184L591,185 M588,185L589,186 M589,185L590,186 M590,185L591,186 M588,186L589,187 M589,186L590,187 M588,187L589,188 M589,187L590,188 M587,188L588,189 M588,188L589,189 M586,189L587,190 M587,189L588,190 M588,189L589,190 M586,190L587,191 M587,190L588,191 M585,191L586,192 M586,191L587,192 M587,191L588,192 M585,192L586,193 M586,192L587,193 M584,193L585,194 M585,193L586,194 M584,194L585,195 M585,194L586,195 M583,195L584,196 M584,195L585,196 M583,196L584,197 M584,196L585,197 M582,197L583,198 M583,197L584,198 M581,198L582,199 M582,198L583,199 M583,198L584,199 M581,199L582,200 M582,199L583,200 M580,200L581,201 M581,200L582,201 M582,200L583,201 M580,201L581,202 M581,201L582,202 M579,202L580,203 M580,202L581,203 M579,203L580,204 M580,203L581,204 M578,204L579,205 M579,204L580,205 M578,205L579,206 M579,205L580,206 M577,206L578,207 M578,206L579,207 M576,207L577,208 M577,207L578,208 M578,207L579,208 M576,208L577,209 M577,208L578,209 M575,209L576,210 M576,209L577,210 M577,209L578,210 M575,210L576,211 M576,210L577,211 M574,211L575,212 M575,211L576,212 M574,212L575,213 M575,212L576,213 M573,213L574,214 M574,213L575,214 M572,214L573,215 M573,214L574,215 M574,214L575,215 M571,215L572,216 M572,215L573,216 M573,215L574,216 M571,216L572,217 M572,216L573,217 M570,217L571,218 M571,217L572,218 M569,218L570,219 M570,218L571,219 M571,218L572,219 M568,219L569,220 M569,219L570,220 M570,219L571,220 M568,220L569,221 M569,220L570,221 M567,221L568,222 M568,221L569,222 M566,222L567,223 M567,222L568,223 M565,223L566,224 M566,223L567,224 M567,223L568,224 M564,224L565,225 M565,224L566,225 M566,224L567,225 M564,225L565,226 M565,225L566,226 M563,226L564,227 M564,226L565,227 M562,227L563,228 M563,227L564,228 M564,227L565,228 M561,228L562,229 M562,228L563,229 M563,228L564,229 M560,229L561,230 M561,229L562,230 M562,229L563,230 M560,230L561,231 M561,230L562,231 M559,231L560,232 M560,231L561,232 M558,232L559,233 M559,232L560,233 M560,232L561,233 M557,233L558,234 M558,233L559,234 M559,233L560,234 M556,234L557,235 M557,234L558,235 M558,234L559,235 M556,235L557,236 M557,235L558,236 M555,236L556,237 M556,236L557,237 M554,237L555,238 M555,237L556,238 M556,237L557,238 M555,238L556,239" fill="none" stroke="black" />
    </svg>