<svg xmlns="http://www.w3.org/2000/svg" width="310" height="250">
        <path d="M216,2L217,3 M217,2L218,3 M215,3L216,4 M216,3L217,4 M217,3L218,4 M215,4L216,5 M216,4L217,5 M215,5L216,6 M216,5L217,6 M214,6L215,7 M215,6L216,7 M214,7L215,8 M215,7L216,8 M213,8L214,9 M214,8L215,9 M213,9L214,10 M214,9L215,10 M212,10L213,11 M213,10L214,11 M212,11L213,12 M213,11L214,12 M211,12L212,13 M212,12L213,13 M211,13L212,14 M212,13L213,14 M210,14L211,15 M211,14L212,15 M210,15L211,16 M211,15L212,16 M209,16L210,17 M210,16L211,17 M211,16L212,17 M209,17L210,18 M210,17L211,18 M208,18L209,19 M209,18L210,19 M210,18L211,19 M208,19L209,20 M209,19L210,20 M208,20L209,21 M209,20L210,21 M208,21L209,22 M209,21L210,22 M207,22L208,23 M208,22L209,23 M207,23L208,24 M208,23L209,24 M207,24L208,25 M208,24L209,25 M207,25L208,26 M208,25L209,26 M207,26L208,27 M208,26L209,27 M207,27L208,28 M208,27L209,28 M206,28L207,29 M207,28L208,29 M206,29L207,30 M207,29L208,30 M206,30L207,31 M207,30L208,31 M206,31L207,32 M207,31L208,32 M206,32L207,33 M207,32L208,33 M205,33L206,34 M206,33L207,34 M205,34L206,35 M206,34L207,35 M205,35L206,36 M206,35L207,36 M205,36L206,37 M206,36L207,37 M205,37L206,38 M206,37L207,38 M205,38L206,39 M206,38L207,39 M204,39L205,40 M205,39L206,40 M204,40L205,41 M205,40L206,41 M204,41L205,42 M205,41L206,42 M204,42L205,43 M205,42L206,43 M204,43L205,44 M205,43L206,44 M203,44L204,45 M204,44L205,45 M203,45L204,46 M204,45L205,46 M203,46L204,47 M204,46L205,47 M203,47L204,48 M204,47L205,48 M203,48L204,49 M204,48L205,49 M203,49L204,50 M204,49L205,50 M202,50L203,51 M203,50L204,51 M202,51L203,52 M203,51L204,52 M202,52L203,53 M203,52L204,53 M202,53L203,54 M203,53L204,54 M202,54L203,55 M203,54L204,55 M202,55L203,56 M203,55L204,56 M201,56L202,57 M202,56L203,57 M201,57L202,58 M202,57L203,58 M201,58L202,59 M202,58L203,59 M201,59L202,60 M202,59L203,60 M201,60L202,61 M202,60L203,61 M200,61L201,62 M201,61L202,62 M200,62L201,63 M201,62L202,63 M200,63L201,64 M201,63L202,64 M200,64L201,65 M201,64L202,65 M200,65L201,66 M201,65L202,66 M200,66L201,67 M201,66L202,67 M199,67L200,68 M200,67L201,68 M199,68L200,69 M200,68L201,69 M199,69L200,70 M200,69L201,70 M199,70L200,71 M200,70L201,71 M198,71L199,72 M199,71L200,72 M200,71L201,72 M198,72L199,73 M199,72L200,73 M198,73L199,74 M199,73L200,74 M198,74L199,75 M199,74L200,75 M197,75L198,76 M198,75L199,76 M197,76L198,77 M198,76L199,77 M197,77L198,78 M198,77L199,78 M197,78L198,79 M198,78L199,79 M196,79L197,80 M197,79L198,80 M196,80L197,81 M197,80L198,81 M196,81L197,82 M197,81L198,82 M196,82L197,83 M197,82L198,83 M195,83L196,84 M196,83L197,84 M195,84L196,85 M196,84L197,85 M195,85L196,86 M196,85L197,86 M194,86L195,87 M195,86L196,87 M196,86L197,87 M194,87L195,88 M195,87L196,88 M194,88L195,89 M195,88L196,89 M194,89L195,90 M195,89L196,90 M239,89L240,90 M240,89L241,90 M193,90L194,91 M194,90L195,91 M235,90L236,91 M236,90L237,91 M237,90L238,91 M238,90L239,91 M239,90L240,91 M240,90L241,91 M189,91L190,92 M190,91L191,92 M191,91L192,92 M192,91L193,92 M193,91L194,92 M194,91L195,92 M195,91L196,92 M196,91L197,92 M197,91L198,92 M198,91L199,92 M199,91L200,92 M200,91L201,92 M201,91L202,92 M202,91L203,92 M203,91L204,92 M204,91L205,92 M205,91L206,92 M206,91L207,92 M207,91L208,92 M208,91L209,92 M209,91L210,92 M210,91L211,92 M211,91L212,92 M231,91L232,92 M232,91L233,92 M233,91L234,92 M234,91L235,92 M235,91L236,92 M236,91L237,92 M237,91L238,92 M238,91L239,92 M239,91L240,92 M185,92L186,93 M186,92L187,93 M187,92L188,93 M188,92L189,93 M189,92L190,93 M190,92L191,93 M191,92L192,93 M192,92L193,93 M193,92L194,93 M194,92L195,93 M195,92L196,93 M196,92L197,93 M197,92L198,93 M198,92L199,93 M199,92L200,93 M200,92L201,93 M201,92L202,93 M202,92L203,93 M203,92L204,93 M204,92L205,93 M205,92L206,93 M206,92L207,93 M207,92L208,93 M208,92L209,93 M209,92L210,93 M210,92L211,93 M211,92L212,93 M227,92L228,93 M228,92L229,93 M229,92L230,93 M230,92L231,93 M231,92L232,93 M232,92L233,93 M233,92L234,93 M234,92L235,93 M236,92L237,93 M237,92L238,93 M238,92L239,93 M182,93L183,94 M183,93L184,94 M184,93L185,94 M185,93L186,94 M186,93L187,94 M187,93L188,94 M188,93L189,94 M193,93L194,94 M194,93L195,94 M209,93L210,94 M210,93L211,94 M223,93L224,94 M224,93L225,94 M225,93L226,94 M226,93L227,94 M227,93L228,94 M228,93L229,94 M229,93L230,94 M230,93L231,94 M235,93L236,94 M236,93L237,94 M237,93L238,94 M168,94L169,95 M169,94L170,95 M170,94L171,95 M171,94L172,95 M172,94L173,95 M173,94L174,95 M174,94L175,95 M175,94L176,95 M176,94L177,95 M177,94L178,95 M178,94L179,95 M179,94L180,95 M180,94L181,95 M181,94L182,95 M182,94L183,95 M183,94L184,95 M184,94L185,95 M185,94L186,95 M192,94L193,95 M193,94L194,95 M209,94L210,95 M210,94L211,95 M221,94L222,95 M222,94L223,95 M223,94L224,95 M224,94L225,95 M225,94L226,95 M226,94L227,95 M235,94L236,95 M236,94L237,95 M166,95L167,96 M167,95L168,96 M168,95L169,96 M169,95L170,96 M170,95L171,96 M171,95L172,96 M172,95L173,96 M173,95L174,96 M174,95L175,96 M175,95L176,96 M176,95L177,96 M177,95L178,96 M178,95L179,96 M179,95L180,96 M180,95L181,96 M181,95L182,96 M182,95L183,96 M192,95L193,96 M193,95L194,96 M208,95L209,96 M209,95L210,96 M210,95L211,96 M219,95L220,96 M220,95L221,96 M221,95L222,96 M222,95L223,96 M234,95L235,96 M235,95L236,96 M163,96L164,97 M164,96L165,97 M165,96L166,97 M166,96L167,97 M167,96L168,97 M168,96L169,97 M172,96L173,97 M173,96L174,97 M174,96L175,97 M175,96L176,97 M176,96L177,97 M177,96L178,97 M178,96L179,97 M179,96L180,97 M180,96L181,97 M181,96L182,97 M192,96L193,97 M193,96L194,97 M207,96L208,97 M208,96L209,97 M209,96L210,97 M217,96L218,97 M218,96L219,97 M219,96L220,97 M220,96L221,97 M221,96L222,97 M233,96L234,97 M234,96L235,97 M235,96L236,97 M161,97L162,98 M162,97L163,98 M163,97L164,98 M164,97L165,98 M165,97L166,98 M168,97L169,98 M169,97L170,98 M170,97L171,98 M171,97L172,98 M172,97L173,98 M173,97L174,98 M174,97L175,98 M178,97L179,98 M179,97L180,98 M180,97L181,98 M192,97L193,98 M193,97L194,98 M206,97L207,98 M207,97L208,98 M208,97L209,98 M216,97L217,98 M217,97L218,98 M218,97L219,98 M219,97L220,98 M232,97L233,98 M233,97L234,98 M234,97L235,98 M158,98L159,99 M159,98L160,99 M160,98L161,99 M161,98L162,99 M162,98L163,99 M163,98L164,99 M165,98L166,99 M166,98L167,99 M167,98L168,99 M168,98L169,99 M169,98L170,99 M170,98L171,99 M171,98L172,99 M177,98L178,99 M178,98L179,99 M179,98L180,99 M191,98L192,99 M192,98L193,99 M205,98L206,99 M206,98L207,99 M207,98L208,99 M214,98L215,99 M215,98L216,99 M216,98L217,99 M217,98L218,99 M229,98L230,99 M230,98L231,99 M231,98L232,99 M232,98L233,99 M233,98L234,99 M156,99L157,100 M157,99L158,100 M158,99L159,100 M159,99L160,100 M160,99L161,100 M162,99L163,100 M163,99L164,100 M164,99L165,100 M165,99L166,100 M166,99L167,100 M167,99L168,100 M168,99L169,100 M176,99L177,100 M177,99L178,100 M178,99L179,100 M191,99L192,100 M192,99L193,100 M204,99L205,100 M205,99L206,100 M206,99L207,100 M212,99L213,100 M213,99L214,100 M214,99L215,100 M215,99L216,100 M227,99L228,100 M228,99L229,100 M229,99L230,100 M230,99L231,100 M231,99L232,100 M153,100L154,101 M154,100L155,101 M155,100L156,101 M156,100L157,101 M157,100L158,101 M158,100L159,101 M159,100L160,101 M160,100L161,101 M161,100L162,101 M162,100L163,101 M163,100L164,101 M164,100L165,101 M175,100L176,101 M176,100L177,101 M177,100L178,101 M191,100L192,101 M192,100L193,101 M203,100L204,101 M204,100L205,101 M205,100L206,101 M210,100L211,101 M211,100L212,101 M212,100L213,101 M213,100L214,101 M224,100L225,101 M225,100L226,101 M226,100L227,101 M227,100L228,101 M228,100L229,101 M151,101L152,102 M152,101L153,102 M153,101L154,102 M154,101L155,102 M155,101L156,102 M156,101L157,102 M157,101L158,102 M158,101L159,102 M159,101L160,102 M160,101L161,102 M161,101L162,102 M162,101L163,102 M163,101L164,102 M164,101L165,102 M165,101L166,102 M166,101L167,102 M167,101L168,102 M168,101L169,102 M169,101L170,102 M170,101L171,102 M171,101L172,102 M172,101L173,102 M173,101L174,102 M174,101L175,102 M175,101L176,102 M176,101L177,102 M177,101L178,102 M178,101L179,102 M179,101L180,102 M180,101L181,102 M181,101L182,102 M182,101L183,102 M183,101L184,102 M184,101L185,102 M185,101L186,102 M186,101L187,102 M187,101L188,102 M188,101L189,102 M189,101L190,102 M190,101L191,102 M191,101L192,102 M192,101L193,102 M193,101L194,102 M194,101L195,102 M195,101L196,102 M196,101L197,102 M197,101L198,102 M198,101L199,102 M199,101L200,102 M200,101L201,102 M201,101L202,102 M202,101L203,102 M203,101L204,102 M204,101L205,102 M205,101L206,102 M206,101L207,102 M207,101L208,102 M208,101L209,102 M209,101L210,102 M210,101L211,102 M211,101L212,102 M212,101L213,102 M222,101L223,102 M223,101L224,102 M224,101L225,102 M225,101L226,102 M226,101L227,102 M149,102L150,103 M150,102L151,103 M151,102L152,103 M152,102L153,103 M154,102L155,103 M155,102L156,103 M156,102L157,103 M157,102L158,103 M158,102L159,103 M159,102L160,103 M160,102L161,103 M161,102L162,103 M162,102L163,103 M163,102L164,103 M164,102L165,103 M165,102L166,103 M166,102L167,103 M167,102L168,103 M168,102L169,103 M169,102L170,103 M170,102L171,103 M171,102L172,103 M172,102L173,103 M173,102L174,103 M174,102L175,103 M175,102L176,103 M176,102L177,103 M177,102L178,103 M178,102L179,103 M179,102L180,103 M180,102L181,103 M181,102L182,103 M182,102L183,103 M183,102L184,103 M184,102L185,103 M185,102L186,103 M186,102L187,103 M187,102L188,103 M188,102L189,103 M189,102L190,103 M190,102L191,103 M191,102L192,103 M192,102L193,103 M193,102L194,103 M194,102L195,103 M195,102L196,103 M196,102L197,103 M197,102L198,103 M198,102L199,103 M199,102L200,103 M200,102L201,103 M201,102L202,103 M202,102L203,103 M203,102L204,103 M204,102L205,103 M205,102L206,103 M206,102L207,103 M207,102L208,103 M208,102L209,103 M209,102L210,103 M210,102L211,103 M211,102L212,103 M220,102L221,103 M221,102L222,103 M222,102L223,103 M223,102L224,103 M146,103L147,104 M147,103L148,104 M148,103L149,104 M149,103L150,104 M150,103L151,104 M151,103L152,104 M152,103L153,104 M153,103L154,104 M154,103L155,104 M155,103L156,104 M156,103L157,104 M157,103L158,104 M158,103L159,104 M159,103L160,104 M160,103L161,104 M172,103L173,104 M173,103L174,104 M174,103L175,104 M190,103L191,104 M191,103L192,104 M200,103L201,104 M201,103L202,104 M202,103L203,104 M205,103L206,104 M206,103L207,104 M207,103L208,104 M208,103L209,104 M210,103L211,104 M211,103L212,104 M212,103L213,104 M213,103L214,104 M217,103L218,104 M218,103L219,104 M219,103L220,104 M220,103L221,104 M221,103L222,104 M144,104L145,105 M145,104L146,105 M146,104L147,105 M147,104L148,105 M148,104L149,105 M149,104L150,105 M150,104L151,105 M151,104L152,105 M152,104L153,105 M153,104L154,105 M154,104L155,105 M155,104L156,105 M156,104L157,105 M171,104L172,105 M172,104L173,105 M173,104L174,105 M190,104L191,105 M191,104L192,105 M199,104L200,105 M200,104L201,105 M201,104L202,105 M203,104L204,105 M204,104L205,105 M205,104L206,105 M206,104L207,105 M212,104L213,105 M213,104L214,105 M214,104L215,105 M215,104L216,105 M216,104L217,105 M217,104L218,105 M218,104L219,105 M219,104L220,105 M142,105L143,106 M143,105L144,106 M144,105L145,106 M145,105L146,106 M146,105L147,106 M147,105L148,106 M148,105L149,106 M149,105L150,106 M150,105L151,106 M151,105L152,106 M170,105L171,106 M171,105L172,106 M172,105L173,106 M190,105L191,106 M191,105L192,106 M198,105L199,106 M199,105L200,106 M200,105L201,106 M202,105L203,106 M203,105L204,106 M204,105L205,106 M213,105L214,106 M214,105L215,106 M215,105L216,106 M216,105L217,106 M217,105L218,106 M218,105L219,106 M139,106L140,107 M140,106L141,107 M141,106L142,107 M142,106L143,107 M143,106L144,107 M144,106L145,107 M145,106L146,107 M146,106L147,107 M147,106L148,107 M148,106L149,107 M149,106L150,107 M169,106L170,107 M170,106L171,107 M171,106L172,107 M190,106L191,107 M191,106L192,107 M197,106L198,107 M198,106L199,107 M199,106L200,107 M201,106L202,107 M202,106L203,107 M210,106L211,107 M211,106L212,107 M212,106L213,107 M213,106L214,107 M214,106L215,107 M215,106L216,107 M216,106L217,107 M217,106L218,107 M218,106L219,107 M219,106L220,107 M220,106L221,107 M135,107L136,108 M136,107L137,108 M137,107L138,108 M138,107L139,108 M139,107L140,108 M140,107L141,108 M141,107L142,108 M142,107L143,108 M143,107L144,108 M144,107L145,108 M145,107L146,108 M146,107L147,108 M169,107L170,108 M170,107L171,108 M190,107L191,108 M191,107L192,108 M196,107L197,108 M197,107L198,108 M198,107L199,108 M200,107L201,108 M201,107L202,108 M208,107L209,108 M209,107L210,108 M210,107L211,108 M211,107L212,108 M212,107L213,108 M218,107L219,108 M219,107L220,108 M220,107L221,108 M221,107L222,108 M222,107L223,108 M130,108L131,109 M131,108L132,109 M132,108L133,109 M133,108L134,109 M134,108L135,109 M135,108L136,109 M136,108L137,109 M137,108L138,109 M138,108L139,109 M139,108L140,109 M140,108L141,109 M141,108L142,109 M142,108L143,109 M143,108L144,109 M144,108L145,109 M168,108L169,109 M169,108L170,109 M190,108L191,109 M191,108L192,109 M195,108L196,109 M196,108L197,109 M197,108L198,109 M198,108L199,109 M199,108L200,109 M200,108L201,109 M205,108L206,109 M206,108L207,109 M207,108L208,109 M208,108L209,109 M209,108L210,109 M210,108L211,109 M220,108L221,109 M221,108L222,109 M222,108L223,109 M223,108L224,109 M128,109L129,110 M129,109L130,110 M130,109L131,110 M131,109L132,110 M132,109L133,110 M133,109L134,110 M134,109L135,110 M136,109L137,110 M137,109L138,110 M138,109L139,110 M139,109L140,110 M140,109L141,110 M141,109L142,110 M142,109L143,110 M167,109L168,110 M168,109L169,110 M189,109L190,110 M190,109L191,110 M194,109L195,110 M195,109L196,110 M196,109L197,110 M197,109L198,110 M198,109L199,110 M199,109L200,110 M202,109L203,110 M203,109L204,110 M204,109L205,110 M205,109L206,110 M206,109L207,110 M207,109L208,110 M222,109L223,110 M223,109L224,110 M127,110L128,111 M128,110L129,111 M129,110L130,111 M130,110L131,111 M134,110L135,111 M135,110L136,111 M136,110L137,111 M137,110L138,111 M138,110L139,111 M139,110L140,111 M140,110L141,111 M166,110L167,111 M167,110L168,111 M168,110L169,111 M189,110L190,111 M190,110L191,111 M193,110L194,111 M194,110L195,111 M195,110L196,111 M196,110L197,111 M197,110L198,111 M198,110L199,111 M200,110L201,111 M201,110L202,111 M202,110L203,111 M203,110L204,111 M204,110L205,111 M222,110L223,111 M223,110L224,111 M125,111L126,112 M126,111L127,112 M127,111L128,112 M128,111L129,112 M132,111L133,112 M133,111L134,112 M134,111L135,112 M135,111L136,112 M136,111L137,112 M137,111L138,112 M138,111L139,112 M165,111L166,112 M166,111L167,112 M167,111L168,112 M168,111L169,112 M169,111L170,112 M170,111L171,112 M171,111L172,112 M172,111L173,112 M189,111L190,112 M190,111L191,112 M193,111L194,112 M194,111L195,112 M195,111L196,112 M196,111L197,112 M197,111L198,112 M198,111L199,112 M199,111L200,112 M200,111L201,112 M201,111L202,112 M202,111L203,112 M222,111L223,112 M223,111L224,112 M124,112L125,113 M125,112L126,113 M126,112L127,113 M130,112L131,113 M131,112L132,113 M132,112L133,113 M133,112L134,113 M134,112L135,113 M135,112L136,113 M136,112L137,113 M161,112L162,113 M162,112L163,113 M163,112L164,113 M164,112L165,113 M165,112L166,113 M166,112L167,113 M167,112L168,113 M168,112L169,113 M169,112L170,113 M170,112L171,113 M171,112L172,113 M172,112L173,113 M189,112L190,113 M190,112L191,113 M192,112L193,113 M193,112L194,113 M194,112L195,113 M195,112L196,113 M196,112L197,113 M197,112L198,113 M198,112L199,113 M199,112L200,113 M222,112L223,113 M223,112L224,113 M122,113L123,114 M123,113L124,114 M124,113L125,114 M125,113L126,114 M128,113L129,114 M129,113L130,114 M130,113L131,114 M131,113L132,114 M132,113L133,114 M133,113L134,114 M159,113L160,114 M160,113L161,114 M161,113L162,114 M162,113L163,114 M163,113L164,114 M164,113L165,114 M165,113L166,114 M166,113L167,114 M171,113L172,114 M172,113L173,114 M189,113L190,114 M190,113L191,114 M191,113L192,114 M192,113L193,114 M193,113L194,114 M194,113L195,114 M195,113L196,114 M196,113L197,114 M222,113L223,114 M223,113L224,114 M224,113L225,114 M120,114L121,115 M121,114L122,115 M122,114L123,115 M123,114L124,115 M127,114L128,115 M128,114L129,115 M129,114L130,115 M130,114L131,115 M131,114L132,115 M146,114L147,115 M147,114L148,115 M156,114L157,115 M157,114L158,115 M158,114L159,115 M159,114L160,115 M160,114L161,115 M161,114L162,115 M163,114L164,115 M164,114L165,115 M171,114L172,115 M172,114L173,115 M188,114L189,115 M189,114L190,115 M190,114L191,115 M191,114L192,115 M192,114L193,115 M193,114L194,115 M194,114L195,115 M209,114L210,115 M210,114L211,115 M211,114L212,115 M212,114L213,115 M213,114L214,115 M214,114L215,115 M215,114L216,115 M216,114L217,115 M217,114L218,115 M218,114L219,115 M219,114L220,115 M220,114L221,115 M221,114L222,115 M222,114L223,115 M223,114L224,115 M224,114L225,115 M119,115L120,116 M120,115L121,116 M121,115L122,116 M122,115L123,116 M125,115L126,116 M126,115L127,116 M127,115L128,116 M128,115L129,116 M129,115L130,116 M145,115L146,116 M146,115L147,116 M147,115L148,116 M154,115L155,116 M155,115L156,116 M156,115L157,116 M157,115L158,116 M158,115L159,116 M162,115L163,116 M163,115L164,116 M164,115L165,116 M171,115L172,116 M172,115L173,116 M184,115L185,116 M185,115L186,116 M186,115L187,116 M187,115L188,116 M188,115L189,116 M189,115L190,116 M190,115L191,116 M191,115L192,116 M192,115L193,116 M193,115L194,116 M205,115L206,116 M206,115L207,116 M207,115L208,116 M208,115L209,116 M209,115L210,116 M210,115L211,116 M211,115L212,116 M212,115L213,116 M213,115L214,116 M214,115L215,116 M215,115L216,116 M216,115L217,116 M217,115L218,116 M218,115L219,116 M219,115L220,116 M220,115L221,116 M221,115L222,116 M222,115L223,116 M223,115L224,116 M224,115L225,116 M117,116L118,117 M118,116L119,117 M119,116L120,117 M120,116L121,117 M123,116L124,117 M124,116L125,117 M125,116L126,117 M126,116L127,117 M127,116L128,117 M144,116L145,117 M145,116L146,117 M146,116L147,117 M151,116L152,117 M152,116L153,117 M153,116L154,117 M154,116L155,117 M155,116L156,117 M161,116L162,117 M162,116L163,117 M163,116L164,117 M171,116L172,117 M172,116L173,117 M181,116L182,117 M182,116L183,117 M183,116L184,117 M184,116L185,117 M185,116L186,117 M186,116L187,117 M187,116L188,117 M188,116L189,117 M189,116L190,117 M190,116L191,117 M191,116L192,117 M192,116L193,117 M202,116L203,117 M203,116L204,117 M204,116L205,117 M205,116L206,117 M206,116L207,117 M207,116L208,117 M208,116L209,117 M116,117L117,118 M117,117L118,118 M118,117L119,118 M120,117L121,118 M121,117L122,118 M122,117L123,118 M123,117L124,118 M124,117L125,118 M125,117L126,118 M144,117L145,118 M145,117L146,118 M149,117L150,118 M150,117L151,118 M151,117L152,118 M152,117L153,118 M153,117L154,118 M161,117L162,118 M162,117L163,118 M171,117L172,118 M172,117L173,118 M179,117L180,118 M180,117L181,118 M181,117L182,118 M182,117L183,118 M183,117L184,118 M184,117L185,118 M188,117L189,118 M189,117L190,118 M190,117L191,118 M191,117L192,118 M198,117L199,118 M199,117L200,118 M200,117L201,118 M201,117L202,118 M202,117L203,118 M203,117L204,118 M204,117L205,118 M205,117L206,118 M114,118L115,119 M115,118L116,119 M116,118L117,119 M117,118L118,119 M118,118L119,119 M119,118L120,119 M120,118L121,119 M121,118L122,119 M122,118L123,119 M143,118L144,119 M144,118L145,119 M146,118L147,119 M147,118L148,119 M148,118L149,119 M149,118L150,119 M150,118L151,119 M160,118L161,119 M161,118L162,119 M171,118L172,119 M172,118L173,119 M178,118L179,119 M179,118L180,119 M180,118L181,119 M187,118L188,119 M188,118L189,119 M189,118L190,119 M190,118L191,119 M195,118L196,119 M196,118L197,119 M197,118L198,119 M198,118L199,119 M199,118L200,119 M200,118L201,119 M201,118L202,119 M112,119L113,120 M113,119L114,120 M114,119L115,120 M115,119L116,120 M116,119L117,120 M117,119L118,120 M118,119L119,120 M119,119L120,120 M120,119L121,120 M121,119L122,120 M142,119L143,120 M143,119L144,120 M144,119L145,120 M145,119L146,120 M146,119L147,120 M147,119L148,120 M148,119L149,120 M159,119L160,120 M160,119L161,120 M161,119L162,120 M171,119L172,120 M172,119L173,120 M176,119L177,120 M177,119L178,120 M178,119L179,120 M179,119L180,120 M186,119L187,120 M187,119L188,120 M188,119L189,120 M189,119L190,120 M192,119L193,120 M193,119L194,120 M194,119L195,120 M195,119L196,120 M196,119L197,120 M197,119L198,120 M198,119L199,120 M111,120L112,121 M112,120L113,121 M113,120L114,121 M114,120L115,121 M115,120L116,121 M116,120L117,121 M117,120L118,121 M118,120L119,121 M119,120L120,121 M141,120L142,121 M142,120L143,121 M143,120L144,121 M144,120L145,121 M145,120L146,121 M158,120L159,121 M159,120L160,121 M160,120L161,121 M171,120L172,121 M172,120L173,121 M174,120L175,121 M175,120L176,121 M176,120L177,121 M177,120L178,121 M186,120L187,121 M187,120L188,121 M188,120L189,121 M189,120L190,121 M190,120L191,121 M191,120L192,121 M192,120L193,121 M193,120L194,121 M194,120L195,121 M110,121L111,122 M111,121L112,122 M112,121L113,122 M113,121L114,122 M114,121L115,122 M115,121L116,122 M116,121L117,122 M117,121L118,122 M118,121L119,122 M139,121L140,122 M140,121L141,122 M141,121L142,122 M142,121L143,122 M143,121L144,122 M158,121L159,122 M159,121L160,122 M170,121L171,122 M171,121L172,122 M173,121L174,122 M174,121L175,122 M175,121L176,122 M176,121L177,122 M185,121L186,122 M186,121L187,122 M187,121L188,122 M188,121L189,122 M189,121L190,122 M190,121L191,122 M191,121L192,122 M109,122L110,123 M110,122L111,123 M111,122L112,123 M112,122L113,123 M113,122L114,123 M114,122L115,123 M115,122L116,123 M116,122L117,123 M137,122L138,123 M138,122L139,123 M139,122L140,123 M140,122L141,123 M141,122L142,123 M157,122L158,123 M158,122L159,123 M170,122L171,123 M171,122L172,123 M172,122L173,123 M173,122L174,123 M174,122L175,123 M184,122L185,123 M185,122L186,123 M186,122L187,123 M187,122L188,123 M188,122L189,123 M108,123L109,124 M109,123L110,124 M110,123L111,124 M111,123L112,124 M112,123L113,124 M113,123L114,124 M114,123L115,124 M134,123L135,124 M135,123L136,124 M136,123L137,124 M137,123L138,124 M138,123L139,124 M139,123L140,124 M140,123L141,124 M141,123L142,124 M156,123L157,124 M157,123L158,124 M158,123L159,124 M170,123L171,124 M171,123L172,124 M172,123L173,124 M173,123L174,124 M183,123L184,124 M184,123L185,124 M185,123L186,124 M186,123L187,124 M187,123L188,124 M188,123L189,124 M107,124L108,125 M108,124L109,125 M109,124L110,125 M110,124L111,125 M111,124L112,125 M112,124L113,125 M113,124L114,125 M132,124L133,125 M133,124L134,125 M134,124L135,125 M135,124L136,125 M136,124L137,125 M138,124L139,125 M139,124L140,125 M140,124L141,125 M156,124L157,125 M157,124L158,125 M170,124L171,125 M171,124L172,125 M172,124L173,125 M181,124L182,125 M182,124L183,125 M183,124L184,125 M184,124L185,125 M185,124L186,125 M187,124L188,125 M188,124L189,125 M106,125L107,126 M107,125L108,126 M108,125L109,126 M109,125L110,126 M110,125L111,126 M111,125L112,126 M130,125L131,126 M131,125L132,126 M132,125L133,126 M133,125L134,126 M134,125L135,126 M138,125L139,126 M139,125L140,126 M155,125L156,126 M156,125L157,126 M170,125L171,126 M171,125L172,126 M172,125L173,126 M180,125L181,126 M181,125L182,126 M182,125L183,126 M183,125L184,126 M184,125L185,126 M187,125L188,126 M188,125L189,126 M104,126L105,127 M105,126L106,127 M106,126L107,127 M107,126L108,127 M108,126L109,127 M109,126L110,127 M110,126L111,127 M128,126L129,127 M129,126L130,127 M130,126L131,127 M131,126L132,127 M132,126L133,127 M137,126L138,127 M138,126L139,127 M154,126L155,127 M155,126L156,127 M156,126L157,127 M170,126L171,127 M171,126L172,127 M172,126L173,127 M178,126L179,127 M179,126L180,127 M180,126L181,127 M181,126L182,127 M182,126L183,127 M183,126L184,127 M184,126L185,127 M187,126L188,127 M188,126L189,127 M102,127L103,128 M103,127L104,128 M104,127L105,128 M105,127L106,128 M106,127L107,128 M107,127L108,128 M108,127L109,128 M126,127L127,128 M127,127L128,128 M128,127L129,128 M129,127L130,128 M130,127L131,128 M136,127L137,128 M137,127L138,128 M138,127L139,128 M154,127L155,128 M155,127L156,128 M169,127L170,128 M170,127L171,128 M171,127L172,128 M176,127L177,128 M177,127L178,128 M178,127L179,128 M179,127L180,128 M181,127L182,128 M182,127L183,128 M183,127L184,128 M186,127L187,128 M187,127L188,128 M188,127L189,128 M99,128L100,129 M100,128L101,129 M101,128L102,129 M102,128L103,129 M103,128L104,129 M104,128L105,129 M105,128L106,129 M106,128L107,129 M124,128L125,129 M125,128L126,129 M126,128L127,129 M127,128L128,129 M136,128L137,129 M137,128L138,129 M153,128L154,129 M154,128L155,129 M169,128L170,129 M170,128L171,129 M171,128L172,129 M175,128L176,129 M176,128L177,129 M177,128L178,129 M180,128L181,129 M181,128L182,129 M182,128L183,129 M186,128L187,129 M187,128L188,129 M97,129L98,130 M98,129L99,130 M99,129L100,130 M100,129L101,130 M101,129L102,130 M102,129L103,130 M103,129L104,130 M104,129L105,130 M105,129L106,130 M121,129L122,130 M122,129L123,130 M123,129L124,130 M124,129L125,130 M125,129L126,130 M135,129L136,130 M136,129L137,130 M152,129L153,130 M153,129L154,130 M154,129L155,130 M169,129L170,130 M170,129L171,130 M171,129L172,130 M173,129L174,130 M174,129L175,130 M175,129L176,130 M176,129L177,130 M179,129L180,130 M180,129L181,130 M181,129L182,130 M182,129L183,130 M186,129L187,130 M187,129L188,130 M95,130L96,131 M96,130L97,131 M97,130L98,131 M98,130L99,131 M99,130L100,131 M100,130L101,131 M101,130L102,131 M102,130L103,131 M103,130L104,131 M119,130L120,131 M120,130L121,131 M121,130L122,131 M122,130L123,131 M123,130L124,131 M134,130L135,131 M135,130L136,131 M136,130L137,131 M152,130L153,131 M153,130L154,131 M169,130L170,131 M170,130L171,131 M171,130L172,131 M172,130L173,131 M173,130L174,131 M174,130L175,131 M179,130L180,131 M180,130L181,131 M181,130L182,131 M186,130L187,131 M187,130L188,131 M93,131L94,132 M94,131L95,132 M95,131L96,132 M96,131L97,132 M97,131L98,132 M99,131L100,132 M100,131L101,132 M101,131L102,132 M102,131L103,132 M117,131L118,132 M118,131L119,132 M119,131L120,132 M120,131L121,132 M121,131L122,132 M134,131L135,132 M135,131L136,132 M151,131L152,132 M152,131L153,132 M169,131L170,132 M170,131L171,132 M171,131L172,132 M172,131L173,132 M178,131L179,132 M179,131L180,132 M180,131L181,132 M181,131L182,132 M186,131L187,132 M187,131L188,132 M92,132L93,133 M93,132L94,133 M94,132L95,133 M97,132L98,133 M98,132L99,133 M99,132L100,133 M100,132L101,133 M101,132L102,133 M102,132L103,133 M115,132L116,133 M116,132L117,133 M117,132L118,133 M118,132L119,133 M119,132L120,133 M133,132L134,133 M134,132L135,133 M150,132L151,133 M151,132L152,133 M152,132L153,133 M168,132L169,133 M169,132L170,133 M170,132L171,133 M171,132L172,133 M177,132L178,133 M178,132L179,133 M179,132L180,133 M180,132L181,133 M186,132L187,133 M187,132L188,133 M91,133L92,134 M92,133L93,134 M93,133L94,134 M96,133L97,134 M97,133L98,134 M98,133L99,134 M99,133L100,134 M100,133L101,134 M101,133L102,134 M113,133L114,134 M114,133L115,134 M115,133L116,134 M116,133L117,134 M117,133L118,134 M132,133L133,134 M133,133L134,134 M134,133L135,134 M150,133L151,134 M151,133L152,134 M166,133L167,134 M167,133L168,134 M168,133L169,134 M169,133L170,134 M170,133L171,134 M171,133L172,134 M177,133L178,134 M178,133L179,134 M179,133L180,134 M180,133L181,134 M186,133L187,134 M187,133L188,134 M89,134L90,135 M90,134L91,135 M91,134L92,135 M92,134L93,135 M94,134L95,135 M95,134L96,135 M96,134L97,135 M97,134L98,135 M98,134L99,135 M99,134L100,135 M100,134L101,135 M112,134L113,135 M113,134L114,135 M114,134L115,135 M131,134L132,135 M132,134L133,135 M133,134L134,135 M149,134L150,135 M150,134L151,135 M165,134L166,135 M166,134L167,135 M167,134L168,135 M169,134L170,135 M170,134L171,135 M171,134L172,135 M176,134L177,135 M177,134L178,135 M178,134L179,135 M179,134L180,135 M186,134L187,135 M187,134L188,135 M88,135L89,136 M89,135L90,136 M90,135L91,136 M93,135L94,136 M94,135L95,136 M95,135L96,136 M97,135L98,136 M98,135L99,136 M99,135L100,136 M111,135L112,136 M112,135L113,136 M113,135L114,136 M130,135L131,136 M131,135L132,136 M132,135L133,136 M148,135L149,136 M149,135L150,136 M150,135L151,136 M163,135L164,136 M164,135L165,136 M165,135L166,136 M166,135L167,136 M169,135L170,136 M170,135L171,136 M171,135L172,136 M175,135L176,136 M176,135L177,136 M177,135L178,136 M178,135L179,136 M179,135L180,136 M186,135L187,136 M187,135L188,136 M87,136L88,137 M88,136L89,137 M89,136L90,137 M92,136L93,137 M93,136L94,137 M94,136L95,137 M97,136L98,137 M98,136L99,137 M109,136L110,137 M110,136L111,137 M111,136L112,137 M112,136L113,137 M130,136L131,137 M131,136L132,137 M148,136L149,137 M149,136L150,137 M162,136L163,137 M163,136L164,137 M164,136L165,137 M175,136L176,137 M176,136L177,137 M177,136L178,137 M178,136L179,137 M186,136L187,137 M187,136L188,137 M86,137L87,138 M87,137L88,138 M88,137L89,138 M92,137L93,138 M93,137L94,138 M94,137L95,138 M95,137L96,138 M96,137L97,138 M97,137L98,138 M108,137L109,138 M109,137L110,138 M110,137L111,138 M129,137L130,138 M130,137L131,138 M147,137L148,138 M148,137L149,138 M161,137L162,138 M162,137L163,138 M163,137L164,138 M174,137L175,138 M175,137L176,138 M177,137L178,138 M178,137L179,138 M186,137L187,138 M187,137L188,138 M85,138L86,139 M86,138L87,139 M87,138L88,139 M92,138L93,139 M93,138L94,139 M94,138L95,139 M95,138L96,139 M96,138L97,139 M97,138L98,139 M107,138L108,139 M108,138L109,139 M109,138L110,139 M128,138L129,139 M129,138L130,139 M146,138L147,139 M147,138L148,139 M148,138L149,139 M160,138L161,139 M161,138L162,139 M162,138L163,139 M173,138L174,139 M174,138L175,139 M175,138L176,139 M176,138L177,139 M177,138L178,139 M186,138L187,139 M187,138L188,139 M84,139L85,140 M85,139L86,140 M86,139L87,140 M105,139L106,140 M106,139L107,140 M107,139L108,140 M108,139L109,140 M127,139L128,140 M128,139L129,140 M129,139L130,140 M146,139L147,140 M147,139L148,140 M159,139L160,140 M160,139L161,140 M161,139L162,140 M173,139L174,140 M174,139L175,140 M175,139L176,140 M176,139L177,140 M177,139L178,140 M186,139L187,140 M187,139L188,140 M83,140L84,141 M84,140L85,141 M85,140L86,141 M104,140L105,141 M105,140L106,141 M106,140L107,141 M126,140L127,141 M127,140L128,141 M128,140L129,141 M145,140L146,141 M146,140L147,141 M158,140L159,141 M159,140L160,141 M160,140L161,141 M172,140L173,141 M173,140L174,141 M175,140L176,141 M176,140L177,141 M186,140L187,141 M187,140L188,141 M82,141L83,142 M83,141L84,142 M84,141L85,142 M102,141L103,142 M103,141L104,142 M104,141L105,142 M105,141L106,142 M125,141L126,142 M126,141L127,142 M127,141L128,142 M144,141L145,142 M145,141L146,142 M146,141L147,142 M157,141L158,142 M158,141L159,142 M159,141L160,142 M171,141L172,142 M172,141L173,142 M173,141L174,142 M174,141L175,142 M175,141L176,142 M176,141L177,142 M186,141L187,142 M187,141L188,142 M81,142L82,143 M82,142L83,143 M83,142L84,143 M101,142L102,143 M102,142L103,143 M103,142L104,143 M125,142L126,143 M126,142L127,143 M144,142L145,143 M145,142L146,143 M156,142L157,143 M157,142L158,143 M158,142L159,143 M171,142L172,143 M172,142L173,143 M174,142L175,143 M175,142L176,143 M186,142L187,143 M187,142L188,143 M81,143L82,144 M82,143L83,144 M100,143L101,144 M101,143L102,144 M102,143L103,144 M124,143L125,144 M125,143L126,144 M143,143L144,144 M144,143L145,144 M155,143L156,144 M156,143L157,144 M157,143L158,144 M171,143L172,144 M172,143L173,144 M173,143L174,144 M174,143L175,144 M175,143L176,144 M186,143L187,144 M187,143L188,144 M80,144L81,145 M81,144L82,145 M98,144L99,145 M99,144L100,145 M100,144L101,145 M101,144L102,145 M123,144L124,145 M124,144L125,145 M125,144L126,145 M142,144L143,145 M143,144L144,145 M144,144L145,145 M154,144L155,145 M155,144L156,145 M156,144L157,145 M170,144L171,145 M171,144L172,145 M173,144L174,145 M174,144L175,145 M186,144L187,145 M187,144L188,145 M79,145L80,146 M80,145L81,146 M97,145L98,146 M98,145L99,146 M99,145L100,146 M122,145L123,146 M123,145L124,146 M124,145L125,146 M142,145L143,146 M143,145L144,146 M153,145L154,146 M154,145L155,146 M155,145L156,146 M170,145L171,146 M171,145L172,146 M172,145L173,146 M173,145L174,146 M185,145L186,146 M186,145L187,146 M230,145L231,146 M231,145L232,146 M232,145L233,146 M78,146L79,147 M79,146L80,147 M80,146L81,147 M96,146L97,147 M97,146L98,147 M98,146L99,147 M121,146L122,147 M122,146L123,147 M123,146L124,147 M141,146L142,147 M142,146L143,147 M152,146L153,147 M153,146L154,147 M154,146L155,147 M169,146L170,147 M170,146L171,147 M172,146L173,147 M173,146L174,147 M185,146L186,147 M186,146L187,147 M229,146L230,147 M230,146L231,147 M231,146L232,147 M78,147L79,148 M79,147L80,148 M94,147L95,148 M95,147L96,148 M96,147L97,148 M97,147L98,148 M121,147L122,148 M122,147L123,148 M140,147L141,148 M141,147L142,148 M142,147L143,148 M151,147L152,148 M152,147L153,148 M153,147L154,148 M169,147L170,148 M170,147L171,148 M171,147L172,148 M172,147L173,148 M185,147L186,148 M186,147L187,148 M228,147L229,148 M229,147L230,148 M230,147L231,148 M77,148L78,149 M78,148L79,149 M79,148L80,149 M93,148L94,149 M94,148L95,149 M95,148L96,149 M120,148L121,149 M121,148L122,149 M140,148L141,149 M141,148L142,149 M150,148L151,149 M151,148L152,149 M152,148L153,149 M168,148L169,149 M169,148L170,149 M171,148L172,149 M172,148L173,149 M185,148L186,149 M186,148L187,149 M226,148L227,149 M227,148L228,149 M228,148L229,149 M229,148L230,149 M77,149L78,150 M78,149L79,150 M91,149L92,150 M92,149L93,150 M93,149L94,150 M94,149L95,150 M119,149L120,150 M120,149L121,150 M121,149L122,150 M139,149L140,150 M140,149L141,150 M141,149L142,150 M149,149L150,150 M150,149L151,150 M151,149L152,150 M168,149L169,150 M169,149L170,150 M170,149L171,150 M171,149L172,150 M185,149L186,150 M186,149L187,150 M225,149L226,150 M226,149L227,150 M227,149L228,150 M76,150L77,151 M77,150L78,151 M78,150L79,151 M90,150L91,151 M91,150L92,151 M92,150L93,151 M118,150L119,151 M119,150L120,151 M120,150L121,151 M139,150L140,151 M140,150L141,151 M149,150L150,151 M150,150L151,151 M167,150L168,151 M168,150L169,151 M169,150L170,151 M170,150L171,151 M171,150L172,151 M185,150L186,151 M186,150L187,151 M221,150L222,151 M222,150L223,151 M223,150L224,151 M224,150L225,151 M225,150L226,151 M226,150L227,151 M76,151L77,152 M77,151L78,152 M89,151L90,152 M90,151L91,152 M91,151L92,152 M118,151L119,152 M119,151L120,152 M138,151L139,152 M139,151L140,152 M149,151L150,152 M150,151L151,152 M167,151L168,152 M168,151L169,152 M169,151L170,152 M170,151L171,152 M185,151L186,152 M186,151L187,152 M218,151L219,152 M219,151L220,152 M220,151L221,152 M221,151L222,152 M222,151L223,152 M223,151L224,152 M224,151L225,152 M75,152L76,153 M76,152L77,153 M77,152L78,153 M87,152L88,153 M88,152L89,153 M89,152L90,153 M90,152L91,153 M117,152L118,153 M118,152L119,153 M137,152L138,153 M138,152L139,153 M139,152L140,153 M149,152L150,153 M150,152L151,153 M166,152L167,153 M167,152L168,153 M168,152L169,153 M169,152L170,153 M170,152L171,153 M185,152L186,153 M186,152L187,153 M214,152L215,153 M215,152L216,153 M216,152L217,153 M217,152L218,153 M218,152L219,153 M219,152L220,153 M220,152L221,153 M221,152L222,153 M75,153L76,154 M76,153L77,154 M86,153L87,154 M87,153L88,154 M88,153L89,154 M116,153L117,154 M117,153L118,154 M136,153L137,154 M137,153L138,154 M138,153L139,154 M149,153L150,154 M150,153L151,154 M166,153L167,154 M167,153L168,154 M168,153L169,154 M169,153L170,154 M185,153L186,154 M186,153L187,154 M210,153L211,154 M211,153L212,154 M212,153L213,154 M213,153L214,154 M214,153L215,154 M215,153L216,154 M216,153L217,154 M217,153L218,154 M75,154L76,155 M76,154L77,155 M85,154L86,155 M86,154L87,155 M87,154L88,155 M115,154L116,155 M116,154L117,155 M117,154L118,155 M135,154L136,155 M136,154L137,155 M137,154L138,155 M149,154L150,155 M150,154L151,155 M165,154L166,155 M166,154L167,155 M167,154L168,155 M168,154L169,155 M185,154L186,155 M186,154L187,155 M206,154L207,155 M207,154L208,155 M208,154L209,155 M209,154L210,155 M210,154L211,155 M211,154L212,155 M212,154L213,155 M213,154L214,155 M75,155L76,156 M76,155L77,156 M83,155L84,156 M84,155L85,156 M85,155L86,156 M86,155L87,156 M114,155L115,156 M115,155L116,156 M116,155L117,156 M134,155L135,156 M135,155L136,156 M136,155L137,156 M149,155L150,156 M150,155L151,156 M165,155L166,156 M166,155L167,156 M167,155L168,156 M168,155L169,156 M185,155L186,156 M186,155L187,156 M202,155L203,156 M203,155L204,156 M204,155L205,156 M205,155L206,156 M206,155L207,156 M207,155L208,156 M208,155L209,156 M209,155L210,156 M75,156L76,157 M76,156L77,157 M82,156L83,157 M83,156L84,157 M84,156L85,157 M114,156L115,157 M115,156L116,157 M134,156L135,157 M135,156L136,157 M149,156L150,157 M150,156L151,157 M151,156L152,157 M164,156L165,157 M165,156L166,157 M166,156L167,157 M167,156L168,157 M185,156L186,157 M186,156L187,157 M198,156L199,157 M199,156L200,157 M200,156L201,157 M201,156L202,157 M202,156L203,157 M203,156L204,157 M204,156L205,157 M205,156L206,157 M75,157L76,158 M76,157L77,158 M81,157L82,158 M82,157L83,158 M83,157L84,158 M113,157L114,158 M114,157L115,158 M133,157L134,158 M134,157L135,158 M150,157L151,158 M151,157L152,158 M152,157L153,158 M164,157L165,158 M165,157L166,158 M166,157L167,158 M167,157L168,158 M184,157L185,158 M185,157L186,158 M186,157L187,158 M187,157L188,158 M188,157L189,158 M189,157L190,158 M190,157L191,158 M191,157L192,158 M192,157L193,158 M193,157L194,158 M194,157L195,158 M195,157L196,158 M196,157L197,158 M197,157L198,158 M198,157L199,158 M199,157L200,158 M200,157L201,158 M201,157L202,158 M75,158L76,159 M76,158L77,159 M77,158L78,159 M78,158L79,159 M79,158L80,159 M80,158L81,159 M81,158L82,159 M82,158L83,159 M112,158L113,159 M113,158L114,159 M114,158L115,159 M132,158L133,159 M133,158L134,159 M134,158L135,159 M151,158L152,159 M152,158L153,159 M153,158L154,159 M154,158L155,159 M155,158L156,159 M156,158L157,159 M157,158L158,159 M158,158L159,159 M159,158L160,159 M160,158L161,159 M161,158L162,159 M162,158L163,159 M163,158L164,159 M164,158L165,159 M165,158L166,159 M166,158L167,159 M168,158L169,159 M169,158L170,159 M170,158L171,159 M171,158L172,159 M172,158L173,159 M173,158L174,159 M174,158L175,159 M175,158L176,159 M176,158L177,159 M177,158L178,159 M178,158L179,159 M179,158L180,159 M180,158L181,159 M181,158L182,159 M182,158L183,159 M183,158L184,159 M184,158L185,159 M185,158L186,159 M186,158L187,159 M187,158L188,159 M188,158L189,159 M189,158L190,159 M190,158L191,159 M191,158L192,159 M192,158L193,159 M193,158L194,159 M194,158L195,159 M195,158L196,159 M196,158L197,159 M197,158L198,159 M198,158L199,159 M75,159L76,160 M76,159L77,160 M77,159L78,160 M78,159L79,160 M79,159L80,160 M80,159L81,160 M81,159L82,160 M111,159L112,160 M112,159L113,160 M113,159L114,160 M131,159L132,160 M132,159L133,160 M133,159L134,160 M152,159L153,160 M153,159L154,160 M154,159L155,160 M155,159L156,160 M156,159L157,160 M157,159L158,160 M158,159L159,160 M159,159L160,160 M160,159L161,160 M161,159L162,160 M162,159L163,160 M163,159L164,160 M164,159L165,160 M165,159L166,160 M166,159L167,160 M167,159L168,160 M168,159L169,160 M169,159L170,160 M170,159L171,160 M171,159L172,160 M172,159L173,160 M173,159L174,160 M174,159L175,160 M175,159L176,160 M176,159L177,160 M177,159L178,160 M178,159L179,160 M179,159L180,160 M180,159L181,160 M181,159L182,160 M182,159L183,160 M183,159L184,160 M75,160L76,161 M76,160L77,161 M110,160L111,161 M111,160L112,161 M112,160L113,161 M130,160L131,161 M131,160L132,161 M132,160L133,161 M163,160L164,161 M164,160L165,161 M165,160L166,161 M166,160L167,161 M167,160L168,161 M109,161L110,162 M110,161L111,162 M111,161L112,162 M129,161L130,162 M130,161L131,162 M131,161L132,162 M162,161L163,162 M163,161L164,162 M164,161L165,162 M165,161L166,162 M108,162L109,163 M109,162L110,163 M110,162L111,163 M129,162L130,163 M130,162L131,163 M162,162L163,163 M163,162L164,163 M164,162L165,163 M107,163L108,164 M108,163L109,164 M109,163L110,164 M127,163L128,164 M128,163L129,164 M129,163L130,164 M161,163L162,164 M162,163L163,164 M163,163L164,164 M164,163L165,164 M106,164L107,165 M107,164L108,165 M108,164L109,165 M126,164L127,165 M127,164L128,165 M128,164L129,165 M129,164L130,165 M161,164L162,165 M162,164L163,165 M163,164L164,165 M105,165L106,166 M106,165L107,166 M107,165L108,166 M125,165L126,166 M126,165L127,166 M127,165L128,166 M160,165L161,166 M161,165L162,166 M162,165L163,166 M83,166L84,167 M84,166L85,167 M85,166L86,167 M86,166L87,167 M87,166L88,167 M88,166L89,167 M89,166L90,167 M90,166L91,167 M91,166L92,167 M92,166L93,167 M93,166L94,167 M94,166L95,167 M95,166L96,167 M96,166L97,167 M97,166L98,167 M98,166L99,167 M99,166L100,167 M100,166L101,167 M101,166L102,167 M102,166L103,167 M103,166L104,167 M104,166L105,167 M105,166L106,167 M106,166L107,167 M123,166L124,167 M124,166L125,167 M125,166L126,167 M126,166L127,167 M160,166L161,167 M161,166L162,167 M162,166L163,167 M77,167L78,168 M78,167L79,168 M79,167L80,168 M80,167L81,168 M81,167L82,168 M82,167L83,168 M83,167L84,168 M84,167L85,168 M85,167L86,168 M86,167L87,168 M87,167L88,168 M88,167L89,168 M89,167L90,168 M90,167L91,168 M91,167L92,168 M92,167L93,168 M93,167L94,168 M94,167L95,168 M95,167L96,168 M96,167L97,168 M97,167L98,168 M98,167L99,168 M99,167L100,168 M100,167L101,168 M101,167L102,168 M102,167L103,168 M103,167L104,168 M104,167L105,168 M105,167L106,168 M106,167L107,168 M107,167L108,168 M108,167L109,168 M122,167L123,168 M123,167L124,168 M124,167L125,168 M159,167L160,168 M160,167L161,168 M161,167L162,168 M71,168L72,169 M72,168L73,169 M73,168L74,169 M74,168L75,169 M75,168L76,169 M76,168L77,169 M77,168L78,169 M78,168L79,169 M79,168L80,169 M80,168L81,169 M81,168L82,169 M82,168L83,169 M103,168L104,169 M104,168L105,169 M105,168L106,169 M106,168L107,169 M107,168L108,169 M108,168L109,169 M109,168L110,169 M110,168L111,169 M111,168L112,169 M112,168L113,169 M113,168L114,169 M121,168L122,169 M122,168L123,169 M123,168L124,169 M159,168L160,169 M160,168L161,169 M161,168L162,169 M69,169L70,170 M70,169L71,170 M71,169L72,170 M72,169L73,170 M73,169L74,170 M74,169L75,170 M75,169L76,170 M76,169L77,170 M102,169L103,170 M103,169L104,170 M108,169L109,170 M109,169L110,170 M110,169L111,170 M111,169L112,170 M112,169L113,170 M113,169L114,170 M114,169L115,170 M115,169L116,170 M116,169L117,170 M117,169L118,170 M118,169L119,170 M119,169L120,170 M120,169L121,170 M121,169L122,170 M122,169L123,170 M158,169L159,170 M159,169L160,170 M160,169L161,170 M67,170L68,171 M68,170L69,171 M69,170L70,171 M70,170L71,171 M71,170L72,171 M100,170L101,171 M101,170L102,171 M102,170L103,171 M113,170L114,171 M114,170L115,171 M115,170L116,171 M116,170L117,171 M117,170L118,171 M118,170L119,171 M119,170L120,171 M120,170L121,171 M158,170L159,171 M159,170L160,171 M160,170L161,171 M64,171L65,172 M65,171L66,172 M66,171L67,172 M67,171L68,172 M68,171L69,172 M99,171L100,172 M100,171L101,172 M101,171L102,172 M102,171L103,172 M157,171L158,172 M158,171L159,172 M159,171L160,172 M62,172L63,173 M63,172L64,173 M64,172L65,173 M65,172L66,173 M66,172L67,173 M98,172L99,173 M99,172L100,173 M100,172L101,173 M157,172L158,173 M158,172L159,173 M60,173L61,174 M61,173L62,174 M62,173L63,174 M63,173L64,174 M64,173L65,174 M97,173L98,174 M98,173L99,174 M99,173L100,174 M156,173L157,174 M157,173L158,174 M158,173L159,174 M57,174L58,175 M58,174L59,175 M59,174L60,175 M60,174L61,175 M61,174L62,175 M95,174L96,175 M96,174L97,175 M97,174L98,175 M98,174L99,175 M155,174L156,175 M156,174L157,175 M157,174L158,175 M55,175L56,176 M56,175L57,176 M57,175L58,176 M58,175L59,176 M59,175L60,176 M94,175L95,176 M95,175L96,176 M96,175L97,176 M155,175L156,176 M156,175L157,176 M157,175L158,176 M54,176L55,177 M55,176L56,177 M56,176L57,177 M57,176L58,177 M93,176L94,177 M94,176L95,177 M95,176L96,177 M154,176L155,177 M155,176L156,177 M156,176L157,177 M54,177L55,178 M55,177L56,178 M91,177L92,178 M92,177L93,178 M93,177L94,178 M94,177L95,178 M153,177L154,178 M154,177L155,178 M155,177L156,178 M53,178L54,179 M54,178L55,179 M90,178L91,179 M91,178L92,179 M92,178L93,179 M152,178L153,179 M153,178L154,179 M53,179L54,180 M54,179L55,180 M89,179L90,180 M90,179L91,180 M91,179L92,180 M151,179L152,180 M53,180L54,181 M54,180L55,181 M87,180L88,181 M88,180L89,181 M89,180L90,181 M90,180L91,181 M53,181L54,182 M54,181L55,182 M85,181L86,182 M86,181L87,182 M87,181L88,182 M88,181L89,182 M53,182L54,183 M54,182L55,183 M55,182L56,183 M83,182L84,183 M84,182L85,183 M85,182L86,183 M86,182L87,183 M87,182L88,183 M54,183L55,184 M55,183L56,184 M82,183L83,184 M83,183L84,184 M84,183L85,184 M85,183L86,184 M54,184L55,185 M55,184L56,185 M56,184L57,185 M80,184L81,185 M81,184L82,185 M82,184L83,185 M83,184L84,185 M55,185L56,186 M56,185L57,186 M57,185L58,186 M78,185L79,186 M79,185L80,186 M80,185L81,186 M81,185L82,186 M56,186L57,187 M57,186L58,187 M58,186L59,187 M73,186L74,187 M74,186L75,187 M75,186L76,187 M76,186L77,187 M77,186L78,187 M78,186L79,187 M79,186L80,187 M57,187L58,188 M58,187L59,188 M59,187L60,188 M68,187L69,188 M69,187L70,188 M70,187L71,188 M71,187L72,188 M72,187L73,188 M73,187L74,188 M74,187L75,188 M75,187L76,188 M76,187L77,188 M77,187L78,188 M78,187L79,188 M58,188L59,189 M59,188L60,189 M60,188L61,189 M61,188L62,189 M62,188L63,189 M63,188L64,189 M64,188L65,189 M65,188L66,189 M66,188L67,189 M67,188L68,189 M68,188L69,189 M69,188L70,189 M70,188L71,189 M71,188L72,189 M72,188L73,189 M73,188L74,189 M60,189L61,190 M61,189L62,190 M62,189L63,190 M63,189L64,190 M64,189L65,190 M65,189L66,190 M66,189L67,190 M67,189L68,190 M68,189L69,190 M203,192L204,193 M204,192L205,193 M203,193L204,194 M204,193L205,194 M203,194L204,195 M204,194L205,195 M203,195L204,196 M204,195L205,196 M203,196L204,197 M204,196L205,197 M203,197L204,198 M204,197L205,198 M203,198L204,199 M204,198L205,199 M203,199L204,200 M204,199L205,200 M203,200L204,201 M204,200L205,201 M203,201L204,202 M204,201L205,202 M203,202L204,203 M204,202L205,203 M203,203L204,204 M204,203L205,204 M203,204L204,205 M204,204L205,205 M203,205L204,206 M204,205L205,206 M205,205L206,206 M204,206L205,207 M205,206L206,207 M204,207L205,208 M205,207L206,208 M204,208L205,209 M205,208L206,209 M204,209L205,210 M205,209L206,210 M204,210L205,211 M205,210L206,211 M204,211L205,212 M205,211L206,212 M206,211L207,212 M205,212L206,213 M206,212L207,213 M205,213L206,214 M206,213L207,214 M205,214L206,215 M206,214L207,215 M205,215L206,216 M206,215L207,216 M205,216L206,217 M206,216L207,217 M205,217L206,218 M206,217L207,218 M205,218L206,219 M206,218L207,219 M205,219L206,220 M206,219L207,220 M207,219L208,220 M206,220L207,221 M207,220L208,221 M206,221L207,222 M207,221L208,222 M206,222L207,223 M207,222L208,223 M206,223L207,224 M207,223L208,224 M206,224L207,225 M207,224L208,225 M206,225L207,226 M207,225L208,226 M206,226L207,227 M207,226L208,227 M206,227L207,228 M207,227L208,228 M206,228L207,229 M207,228L208,229 M206,229L207,230 M207,229L208,230 M206,230L207,231 M207,230L208,231 M206,231L207,232 M207,231L208,232 M206,232L207,233 M207,232L208,233 M206,233L207,234 M207,233L208,234 M206,234L207,235 M207,234L208,235 M206,235L207,236 M207,235L208,236 M206,236L207,237 M207,236L208,237 M206,237L207,238 M207,237L208,238 M206,238L207,239 M207,238L208,239 M206,239L207,240 M207,239L208,240 M206,240L207,241 M207,240L208,241 M206,241L207,242 M207,241L208,242 M206,242L207,243 M207,242L208,243 M206,243L207,244 M207,243L208,244 M206,244L207,245 M207,244L208,245 M206,245L207,246 M207,245L208,246 M206,246L207,247 M207,246L208,247 M206,247L207,248 M207,247L208,248 M206,248L207,249 M207,248L208,249 M206,249L207,250 M207,249L208,250 M211,249L212,250 M212,249L213,250" fill="none" stroke="black" />
    </svg>