<svg xmlns="http://www.w3.org/2000/svg" width="310" height="250">
        <path d="M114,43L115,44 M115,43L116,44 M116,43L117,44 M117,43L118,44 M118,43L119,44 M114,44L115,45 M115,44L116,45 M116,44L117,45 M117,44L118,45 M118,44L119,45 M119,44L120,45 M120,44L121,45 M121,44L122,45 M122,44L123,45 M119,45L120,46 M120,45L121,46 M121,45L122,46 M122,45L123,46 M123,45L124,46 M124,45L125,46 M125,45L126,46 M123,46L124,47 M124,46L125,47 M125,46L126,47 M126,46L127,47 M127,46L128,47 M125,47L126,48 M126,47L127,48 M127,47L128,48 M128,47L129,48 M129,47L130,48 M130,47L131,48 M128,48L129,49 M129,48L130,49 M130,48L131,49 M131,48L132,49 M132,48L133,49 M133,48L134,49 M131,49L132,50 M132,49L133,50 M133,49L134,50 M134,49L135,50 M135,49L136,50 M136,49L137,50 M134,50L135,51 M135,50L136,51 M136,50L137,51 M137,50L138,51 M138,50L139,51 M139,50L140,51 M137,51L138,52 M138,51L139,52 M139,51L140,52 M140,51L141,52 M141,51L142,52 M142,51L143,52 M140,52L141,53 M141,52L142,53 M142,52L143,53 M143,52L144,53 M144,52L145,53 M145,52L146,53 M146,52L147,53 M143,53L144,54 M144,53L145,54 M145,53L146,54 M146,53L147,54 M147,53L148,54 M148,53L149,54 M149,53L150,54 M147,54L148,55 M148,54L149,55 M149,54L150,55 M150,54L151,55 M151,54L152,55 M152,54L153,55 M150,55L151,56 M151,55L152,56 M152,55L153,56 M153,55L154,56 M154,55L155,56 M152,56L153,57 M153,56L154,57 M154,56L155,57 M155,56L156,57 M156,56L157,57 M154,57L155,58 M155,57L156,58 M156,57L157,58 M157,57L158,58 M156,58L157,59 M157,58L158,59 M158,58L159,59 M159,58L160,59 M158,59L159,60 M159,59L160,60 M160,59L161,60 M161,59L162,60 M160,60L161,61 M161,60L162,61 M162,60L163,61 M163,60L164,61 M162,61L163,62 M163,61L164,62 M164,61L165,62 M163,62L164,63 M164,62L165,63 M165,62L166,63 M166,62L167,63 M165,63L166,64 M166,63L167,64 M167,63L168,64 M166,64L167,65 M167,64L168,65 M168,64L169,65 M167,65L168,66 M168,65L169,66 M169,65L170,66 M170,65L171,66 M169,66L170,67 M170,66L171,67 M171,66L172,67 M170,67L171,68 M171,67L172,68 M172,67L173,68 M171,68L172,69 M172,68L173,69 M173,68L174,69 M174,68L175,69 M173,69L174,70 M174,69L175,70 M175,69L176,70 M176,69L177,70 M174,70L175,71 M175,70L176,71 M176,70L177,71 M177,70L178,71 M178,70L179,71 M176,71L177,72 M177,71L178,72 M178,71L179,72 M179,71L180,72 M180,71L181,72 M178,72L179,73 M179,72L180,73 M180,72L181,73 M181,72L182,73 M182,72L183,73 M180,73L181,74 M181,73L182,74 M182,73L183,74 M183,73L184,74 M184,73L185,74 M182,74L183,75 M183,74L184,75 M184,74L185,75 M185,74L186,75 M186,74L187,75 M184,75L185,76 M185,75L186,76 M186,75L187,76 M187,75L188,76 M188,75L189,76 M189,75L190,76 M187,76L188,77 M188,76L189,77 M189,76L190,77 M190,76L191,77 M191,76L192,77 M189,77L190,78 M190,77L191,78 M191,77L192,78 M192,77L193,78 M193,77L194,78 M192,78L193,79 M193,78L194,79 M194,78L195,79 M195,78L196,79 M194,79L195,80 M195,79L196,80 M196,79L197,80 M197,79L198,80 M198,79L199,80 M196,80L197,81 M197,80L198,81 M198,80L199,81 M199,80L200,81 M198,81L199,82 M199,81L200,82 M200,81L201,82 M201,81L202,82 M224,81L225,82 M225,81L226,82 M200,82L201,83 M201,82L202,83 M202,82L203,83 M223,82L224,83 M224,82L225,83 M225,82L226,83 M201,83L202,84 M202,83L203,84 M203,83L204,84 M204,83L205,84 M221,83L222,84 M222,83L223,84 M223,83L224,84 M224,83L225,84 M202,84L203,85 M203,84L204,85 M204,84L205,85 M205,84L206,85 M206,84L207,85 M207,84L208,85 M208,84L209,85 M209,84L210,85 M210,84L211,85 M211,84L212,85 M212,84L213,85 M213,84L214,85 M214,84L215,85 M215,84L216,85 M216,84L217,85 M217,84L218,85 M218,84L219,85 M219,84L220,85 M220,84L221,85 M221,84L222,85 M222,84L223,85 M223,84L224,85 M204,85L205,86 M205,85L206,86 M206,85L207,86 M207,85L208,86 M208,85L209,86 M209,85L210,86 M210,85L211,86 M211,85L212,86 M212,85L213,86 M213,85L214,86 M214,85L215,86 M215,85L216,86 M216,85L217,86 M217,85L218,86 M218,85L219,86 M219,85L220,86 M220,85L221,86" fill="none" stroke="black" />
    </svg>