<svg xmlns="http://www.w3.org/2000/svg" width="800" height="250">
        <path d="M285,13L286,14 M286,13L287,14 M287,13L288,14 M288,13L289,14 M289,13L290,14 M290,13L291,14 M282,14L283,15 M283,14L284,15 M284,14L285,15 M285,14L286,15 M286,14L287,15 M287,14L288,15 M288,14L289,15 M289,14L290,15 M290,14L291,15 M291,14L292,15 M280,15L281,16 M281,15L282,16 M282,15L283,16 M283,15L284,16 M284,15L285,16 M290,15L291,16 M291,15L292,16 M279,16L280,17 M280,16L281,17 M281,16L282,17 M290,16L291,17 M291,16L292,17 M278,17L279,18 M279,17L280,18 M280,17L281,18 M289,17L290,18 M290,17L291,18 M277,18L278,19 M278,18L279,19 M279,18L280,19 M289,18L290,19 M290,18L291,19 M275,19L276,20 M276,19L277,20 M277,19L278,20 M289,19L290,20 M290,19L291,20 M274,20L275,21 M275,20L276,21 M276,20L277,21 M289,20L290,21 M290,20L291,21 M273,21L274,22 M274,21L275,22 M275,21L276,22 M289,21L290,22 M290,21L291,22 M272,22L273,23 M273,22L274,23 M274,22L275,23 M288,22L289,23 M289,22L290,23 M271,23L272,24 M272,23L273,24 M273,23L274,24 M288,23L289,24 M289,23L290,24 M270,24L271,25 M271,24L272,25 M272,24L273,25 M287,24L288,25 M288,24L289,25 M269,25L270,26 M270,25L271,26 M271,25L272,26 M287,25L288,26 M288,25L289,26 M268,26L269,27 M269,26L270,27 M270,26L271,27 M286,26L287,27 M287,26L288,27 M268,27L269,28 M269,27L270,28 M286,27L287,28 M287,27L288,28 M267,28L268,29 M268,28L269,29 M285,28L286,29 M286,28L287,29 M266,29L267,30 M267,29L268,30 M268,29L269,30 M285,29L286,30 M286,29L287,30 M265,30L266,31 M266,30L267,31 M267,30L268,31 M284,30L285,31 M285,30L286,31 M582,30L583,31 M264,31L265,32 M265,31L266,32 M266,31L267,32 M284,31L285,32 M285,31L286,32 M581,31L582,32 M582,31L583,32 M263,32L264,33 M264,32L265,33 M265,32L266,33 M283,32L284,33 M284,32L285,33 M581,32L582,33 M582,32L583,33 M583,32L584,33 M262,33L263,34 M263,33L264,34 M264,33L265,34 M283,33L284,34 M284,33L285,34 M582,33L583,34 M583,33L584,34 M262,34L263,35 M263,34L264,35 M282,34L283,35 M283,34L284,35 M582,34L583,35 M583,34L584,35 M261,35L262,36 M262,35L263,36 M282,35L283,36 M283,35L284,36 M582,35L583,36 M583,35L584,36 M584,35L585,36 M260,36L261,37 M261,36L262,37 M262,36L263,37 M281,36L282,37 M282,36L283,37 M583,36L584,37 M584,36L585,37 M259,37L260,38 M260,37L261,38 M261,37L262,38 M281,37L282,38 M282,37L283,38 M583,37L584,38 M584,37L585,38 M258,38L259,39 M259,38L260,39 M260,38L261,39 M280,38L281,39 M281,38L282,39 M583,38L584,39 M584,38L585,39 M585,38L586,39 M257,39L258,40 M258,39L259,40 M259,39L260,40 M280,39L281,40 M281,39L282,40 M584,39L585,40 M585,39L586,40 M256,40L257,41 M257,40L258,41 M258,40L259,41 M279,40L280,41 M280,40L281,41 M583,40L584,41 M584,40L585,41 M585,40L586,41 M256,41L257,42 M257,41L258,42 M278,41L279,42 M279,41L280,42 M280,41L281,42 M582,41L583,42 M583,41L584,42 M584,41L585,42 M255,42L256,43 M256,42L257,43 M278,42L279,43 M279,42L280,43 M581,42L582,43 M582,42L583,43 M583,42L584,43 M254,43L255,44 M255,43L256,44 M256,43L257,44 M277,43L278,44 M278,43L279,44 M580,43L581,44 M581,43L582,44 M582,43L583,44 M253,44L254,45 M254,44L255,45 M255,44L256,45 M276,44L277,45 M277,44L278,45 M278,44L279,45 M579,44L580,45 M580,44L581,45 M581,44L582,45 M252,45L253,46 M253,45L254,46 M254,45L255,46 M276,45L277,46 M277,45L278,46 M578,45L579,46 M579,45L580,46 M580,45L581,46 M252,46L253,47 M253,46L254,47 M275,46L276,47 M276,46L277,47 M577,46L578,47 M578,46L579,47 M579,46L580,47 M251,47L252,48 M252,47L253,48 M253,47L254,48 M274,47L275,48 M275,47L276,48 M276,47L277,48 M575,47L576,48 M576,47L577,48 M577,47L578,48 M578,47L579,48 M251,48L252,49 M252,48L253,49 M274,48L275,49 M275,48L276,49 M574,48L575,49 M575,48L576,49 M576,48L577,49 M250,49L251,50 M251,49L252,50 M273,49L274,50 M274,49L275,50 M572,49L573,50 M573,49L574,50 M574,49L575,50 M575,49L576,50 M249,50L250,51 M250,50L251,51 M251,50L252,51 M272,50L273,51 M273,50L274,51 M274,50L275,51 M571,50L572,51 M572,50L573,51 M573,50L574,51 M249,51L250,52 M250,51L251,52 M272,51L273,52 M273,51L274,52 M570,51L571,52 M571,51L572,52 M572,51L573,52 M248,52L249,53 M249,52L250,53 M250,52L251,53 M271,52L272,53 M272,52L273,53 M568,52L569,53 M569,52L570,53 M570,52L571,53 M571,52L572,53 M248,53L249,54 M249,53L250,54 M270,53L271,54 M271,53L272,54 M272,53L273,54 M567,53L568,54 M568,53L569,54 M569,53L570,54 M247,54L248,55 M248,54L249,55 M270,54L271,55 M271,54L272,55 M566,54L567,55 M567,54L568,55 M568,54L569,55 M246,55L247,56 M247,55L248,56 M248,55L249,56 M269,55L270,56 M270,55L271,56 M564,55L565,56 M565,55L566,56 M566,55L567,56 M567,55L568,56 M246,56L247,57 M247,56L248,57 M268,56L269,57 M269,56L270,57 M270,56L271,57 M563,56L564,57 M564,56L565,57 M565,56L566,57 M245,57L246,58 M246,57L247,58 M247,57L248,58 M268,57L269,58 M269,57L270,58 M562,57L563,58 M563,57L564,58 M564,57L565,58 M193,58L194,59 M194,58L195,59 M245,58L246,59 M246,58L247,59 M267,58L268,59 M268,58L269,59 M560,58L561,59 M561,58L562,59 M562,58L563,59 M563,58L564,59 M190,59L191,60 M191,59L192,60 M192,59L193,60 M193,59L194,60 M194,59L195,60 M195,59L196,60 M244,59L245,60 M245,59L246,60 M266,59L267,60 M267,59L268,60 M268,59L269,60 M559,59L560,60 M560,59L561,60 M561,59L562,60 M187,60L188,61 M188,60L189,61 M189,60L190,61 M190,60L191,61 M191,60L192,61 M192,60L193,61 M243,60L244,61 M244,60L245,61 M245,60L246,61 M266,60L267,61 M267,60L268,61 M557,60L558,61 M558,60L559,61 M559,60L560,61 M560,60L561,61 M184,61L185,62 M185,61L186,62 M186,61L187,62 M187,61L188,62 M188,61L189,62 M189,61L190,62 M243,61L244,62 M244,61L245,62 M265,61L266,62 M266,61L267,62 M556,61L557,62 M557,61L558,62 M558,61L559,62 M181,62L182,63 M182,62L183,63 M183,62L184,63 M184,62L185,63 M185,62L186,63 M186,62L187,63 M242,62L243,63 M243,62L244,63 M244,62L245,63 M264,62L265,63 M265,62L266,63 M266,62L267,63 M554,62L555,63 M555,62L556,63 M556,62L557,63 M557,62L558,63 M178,63L179,64 M179,63L180,64 M180,63L181,64 M181,63L182,64 M182,63L183,64 M183,63L184,64 M242,63L243,64 M243,63L244,64 M264,63L265,64 M265,63L266,64 M553,63L554,64 M554,63L555,64 M555,63L556,64 M175,64L176,65 M176,64L177,65 M177,64L178,65 M178,64L179,65 M179,64L180,65 M180,64L181,65 M241,64L242,65 M242,64L243,65 M263,64L264,65 M264,64L265,65 M551,64L552,65 M552,64L553,65 M553,64L554,65 M554,64L555,65 M171,65L172,66 M172,65L173,66 M173,65L174,66 M174,65L175,66 M175,65L176,66 M176,65L177,66 M177,65L178,66 M240,65L241,66 M241,65L242,66 M242,65L243,66 M262,65L263,66 M263,65L264,66 M264,65L265,66 M549,65L550,66 M550,65L551,66 M551,65L552,66 M552,65L553,66 M168,66L169,67 M169,66L170,67 M170,66L171,67 M171,66L172,67 M172,66L173,67 M173,66L174,67 M174,66L175,67 M240,66L241,67 M241,66L242,67 M262,66L263,67 M263,66L264,67 M548,66L549,67 M549,66L550,67 M550,66L551,67 M551,66L552,67 M165,67L166,68 M166,67L167,68 M167,67L168,68 M168,67L169,68 M169,67L170,68 M170,67L171,68 M171,67L172,68 M239,67L240,68 M240,67L241,68 M261,67L262,68 M262,67L263,68 M546,67L547,68 M547,67L548,68 M548,67L549,68 M549,67L550,68 M162,68L163,69 M163,68L164,69 M164,68L165,69 M165,68L166,69 M166,68L167,69 M167,68L168,69 M239,68L240,69 M240,68L241,69 M260,68L261,69 M261,68L262,69 M262,68L263,69 M545,68L546,69 M546,68L547,69 M547,68L548,69 M158,69L159,70 M159,69L160,70 M160,69L161,70 M161,69L162,70 M162,69L163,70 M163,69L164,70 M164,69L165,70 M238,69L239,70 M239,69L240,70 M259,69L260,70 M260,69L261,70 M261,69L262,70 M543,69L544,70 M544,69L545,70 M545,69L546,70 M546,69L547,70 M156,70L157,71 M157,70L158,71 M158,70L159,71 M159,70L160,71 M160,70L161,71 M161,70L162,71 M237,70L238,71 M238,70L239,71 M239,70L240,71 M259,70L260,71 M260,70L261,71 M542,70L543,71 M543,70L544,71 M544,70L545,71 M154,71L155,72 M155,71L156,72 M156,71L157,72 M157,71L158,72 M158,71L159,72 M237,71L238,72 M238,71L239,72 M258,71L259,72 M259,71L260,72 M260,71L261,72 M540,71L541,72 M541,71L542,72 M542,71L543,72 M543,71L544,72 M152,72L153,73 M153,72L154,73 M154,72L155,73 M155,72L156,73 M236,72L237,73 M237,72L238,73 M257,72L258,73 M258,72L259,73 M259,72L260,73 M538,72L539,73 M539,72L540,73 M540,72L541,73 M541,72L542,73 M150,73L151,74 M151,73L152,74 M152,73L153,74 M153,73L154,74 M236,73L237,74 M237,73L238,74 M257,73L258,74 M258,73L259,74 M536,73L537,74 M537,73L538,74 M538,73L539,74 M539,73L540,74 M540,73L541,74 M148,74L149,75 M149,74L150,75 M150,74L151,75 M151,74L152,75 M235,74L236,75 M236,74L237,75 M256,74L257,75 M257,74L258,75 M533,74L534,75 M534,74L535,75 M535,74L536,75 M536,74L537,75 M537,74L538,75 M538,74L539,75 M146,75L147,76 M147,75L148,76 M148,75L149,76 M149,75L150,76 M234,75L235,76 M235,75L236,76 M236,75L237,76 M255,75L256,76 M256,75L257,76 M257,75L258,76 M530,75L531,76 M531,75L532,76 M532,75L533,76 M533,75L534,76 M534,75L535,76 M535,75L536,76 M144,76L145,77 M145,76L146,77 M146,76L147,77 M147,76L148,77 M234,76L235,77 M235,76L236,77 M254,76L255,77 M255,76L256,77 M256,76L257,77 M526,76L527,77 M527,76L528,77 M528,76L529,77 M529,76L530,77 M530,76L531,77 M531,76L532,77 M532,76L533,77 M142,77L143,78 M143,77L144,78 M144,77L145,78 M145,77L146,78 M233,77L234,78 M234,77L235,78 M253,77L254,78 M254,77L255,78 M255,77L256,78 M523,77L524,78 M524,77L525,78 M525,77L526,78 M526,77L527,78 M527,77L528,78 M528,77L529,78 M529,77L530,78 M140,78L141,79 M141,78L142,79 M142,78L143,79 M143,78L144,79 M232,78L233,79 M233,78L234,79 M234,78L235,79 M252,78L253,79 M253,78L254,79 M254,78L255,79 M520,78L521,79 M521,78L522,79 M522,78L523,79 M523,78L524,79 M524,78L525,79 M525,78L526,79 M526,78L527,79 M138,79L139,80 M139,79L140,80 M140,79L141,80 M141,79L142,80 M232,79L233,80 M233,79L234,80 M251,79L252,80 M252,79L253,80 M253,79L254,80 M517,79L518,80 M518,79L519,80 M519,79L520,80 M520,79L521,80 M521,79L522,80 M522,79L523,80 M136,80L137,81 M137,80L138,81 M138,80L139,81 M139,80L140,81 M231,80L232,81 M232,80L233,81 M250,80L251,81 M251,80L252,81 M252,80L253,81 M513,80L514,81 M514,80L515,81 M515,80L516,81 M516,80L517,81 M517,80L518,81 M518,80L519,81 M519,80L520,81 M134,81L135,82 M135,81L136,82 M136,81L137,82 M137,81L138,82 M230,81L231,82 M231,81L232,82 M232,81L233,82 M250,81L251,82 M251,81L252,82 M506,81L507,82 M507,81L508,82 M508,81L509,82 M509,81L510,82 M510,81L511,82 M511,81L512,82 M512,81L513,82 M513,81L514,82 M514,81L515,82 M515,81L516,82 M516,81L517,82 M133,82L134,83 M134,82L135,83 M135,82L136,83 M229,82L230,83 M230,82L231,83 M231,82L232,83 M249,82L250,83 M250,82L251,83 M496,82L497,83 M497,82L498,83 M498,82L499,83 M499,82L500,83 M500,82L501,83 M501,82L502,83 M502,82L503,83 M503,82L504,83 M504,82L505,83 M505,82L506,83 M506,82L507,83 M507,82L508,83 M508,82L509,83 M509,82L510,83 M510,82L511,83 M511,82L512,83 M512,82L513,83 M513,82L514,83 M131,83L132,84 M132,83L133,84 M133,83L134,84 M134,83L135,84 M229,83L230,84 M230,83L231,84 M248,83L249,84 M249,83L250,84 M469,83L470,84 M470,83L471,84 M471,83L472,84 M472,83L473,84 M473,83L474,84 M474,83L475,84 M475,83L476,84 M476,83L477,84 M477,83L478,84 M478,83L479,84 M479,83L480,84 M480,83L481,84 M481,83L482,84 M482,83L483,84 M483,83L484,84 M484,83L485,84 M485,83L486,84 M486,83L487,84 M487,83L488,84 M488,83L489,84 M489,83L490,84 M490,83L491,84 M491,83L492,84 M492,83L493,84 M493,83L494,84 M494,83L495,84 M495,83L496,84 M496,83L497,84 M497,83L498,84 M498,83L499,84 M499,83L500,84 M500,83L501,84 M501,83L502,84 M502,83L503,84 M503,83L504,84 M504,83L505,84 M505,83L506,84 M130,84L131,85 M131,84L132,85 M132,84L133,85 M228,84L229,85 M229,84L230,85 M247,84L248,85 M248,84L249,85 M463,84L464,85 M464,84L465,85 M465,84L466,85 M466,84L467,85 M467,84L468,85 M468,84L469,85 M469,84L470,85 M470,84L471,85 M471,84L472,85 M472,84L473,85 M473,84L474,85 M474,84L475,85 M475,84L476,85 M476,84L477,85 M477,84L478,85 M478,84L479,85 M479,84L480,85 M480,84L481,85 M481,84L482,85 M482,84L483,85 M483,84L484,85 M484,84L485,85 M485,84L486,85 M486,84L487,85 M487,84L488,85 M488,84L489,85 M489,84L490,85 M490,84L491,85 M491,84L492,85 M492,84L493,85 M493,84L494,85 M494,84L495,85 M495,84L496,85 M128,85L129,86 M129,85L130,86 M130,85L131,86 M131,85L132,86 M227,85L228,86 M228,85L229,86 M229,85L230,86 M246,85L247,86 M247,85L248,86 M248,85L249,86 M457,85L458,86 M458,85L459,86 M459,85L460,86 M460,85L461,86 M461,85L462,86 M462,85L463,86 M463,85L464,86 M464,85L465,86 M465,85L466,86 M466,85L467,86 M467,85L468,86 M468,85L469,86 M469,85L470,86 M127,86L128,87 M128,86L129,87 M129,86L130,87 M226,86L227,87 M227,86L228,87 M228,86L229,87 M245,86L246,87 M246,86L247,87 M247,86L248,87 M452,86L453,87 M453,86L454,87 M454,86L455,87 M455,86L456,87 M456,86L457,87 M457,86L458,87 M458,86L459,87 M459,86L460,87 M460,86L461,87 M461,86L462,87 M462,86L463,87 M126,87L127,88 M127,87L128,88 M128,87L129,88 M226,87L227,88 M227,87L228,88 M244,87L245,88 M245,87L246,88 M246,87L247,88 M449,87L450,88 M450,87L451,88 M451,87L452,88 M452,87L453,88 M453,87L454,88 M454,87L455,88 M455,87L456,88 M456,87L457,88 M124,88L125,89 M125,88L126,89 M126,88L127,89 M127,88L128,89 M225,88L226,89 M226,88L227,89 M243,88L244,89 M244,88L245,89 M245,88L246,89 M446,88L447,89 M447,88L448,89 M448,88L449,89 M449,88L450,89 M450,88L451,89 M451,88L452,89 M123,89L124,90 M124,89L125,90 M125,89L126,90 M224,89L225,90 M225,89L226,90 M226,89L227,90 M242,89L243,90 M243,89L244,90 M244,89L245,90 M443,89L444,90 M444,89L445,90 M445,89L446,90 M446,89L447,90 M447,89L448,90 M448,89L449,90 M122,90L123,91 M123,90L124,91 M124,90L125,91 M223,90L224,91 M224,90L225,91 M225,90L226,91 M241,90L242,91 M242,90L243,91 M243,90L244,91 M440,90L441,91 M441,90L442,91 M442,90L443,91 M443,90L444,91 M444,90L445,91 M445,90L446,91 M120,91L121,92 M121,91L122,92 M122,91L123,92 M123,91L124,92 M223,91L224,92 M224,91L225,92 M240,91L241,92 M241,91L242,92 M242,91L243,92 M436,91L437,92 M437,91L438,92 M438,91L439,92 M439,91L440,92 M440,91L441,92 M441,91L442,92 M442,91L443,92 M119,92L120,93 M120,92L121,93 M121,92L122,93 M222,92L223,93 M223,92L224,93 M239,92L240,93 M240,92L241,93 M241,92L242,93 M433,92L434,93 M434,92L435,93 M435,92L436,93 M436,92L437,93 M437,92L438,93 M438,92L439,93 M439,92L440,93 M117,93L118,94 M118,93L119,94 M119,93L120,94 M120,93L121,94 M221,93L222,94 M222,93L223,94 M223,93L224,94 M238,93L239,94 M239,93L240,94 M240,93L241,94 M431,93L432,94 M432,93L433,94 M433,93L434,94 M434,93L435,94 M435,93L436,94 M436,93L437,94 M116,94L117,95 M117,94L118,95 M118,94L119,95 M221,94L222,95 M222,94L223,95 M238,94L239,95 M239,94L240,95 M428,94L429,95 M429,94L430,95 M430,94L431,95 M431,94L432,95 M432,94L433,95 M433,94L434,95 M115,95L116,96 M116,95L117,96 M117,95L118,96 M220,95L221,96 M221,95L222,96 M237,95L238,96 M238,95L239,96 M426,95L427,96 M427,95L428,96 M428,95L429,96 M429,95L430,96 M430,95L431,96 M113,96L114,97 M114,96L115,97 M115,96L116,97 M116,96L117,97 M219,96L220,97 M220,96L221,97 M221,96L222,97 M236,96L237,97 M237,96L238,97 M424,96L425,97 M425,96L426,97 M426,96L427,97 M427,96L428,97 M428,96L429,97 M112,97L113,98 M113,97L114,98 M114,97L115,98 M218,97L219,98 M219,97L220,98 M220,97L221,98 M235,97L236,98 M236,97L237,98 M422,97L423,98 M423,97L424,98 M424,97L425,98 M425,97L426,98 M426,97L427,98 M111,98L112,99 M112,98L113,99 M113,98L114,99 M218,98L219,99 M219,98L220,99 M234,98L235,99 M235,98L236,99 M236,98L237,99 M420,98L421,99 M421,98L422,99 M422,98L423,99 M423,98L424,99 M111,99L112,100 M112,99L113,100 M217,99L218,100 M218,99L219,100 M233,99L234,100 M234,99L235,100 M235,99L236,100 M417,99L418,100 M418,99L419,100 M419,99L420,100 M420,99L421,100 M421,99L422,100 M110,100L111,101 M111,100L112,101 M216,100L217,101 M217,100L218,101 M218,100L219,101 M232,100L233,101 M233,100L234,101 M234,100L235,101 M319,100L320,101 M320,100L321,101 M321,100L322,101 M415,100L416,101 M416,100L417,101 M417,100L418,101 M418,100L419,101 M419,100L420,101 M109,101L110,102 M110,101L111,102 M216,101L217,102 M217,101L218,102 M231,101L232,102 M232,101L233,102 M233,101L234,102 M316,101L317,102 M317,101L318,102 M318,101L319,102 M319,101L320,102 M320,101L321,102 M321,101L322,102 M413,101L414,102 M414,101L415,102 M415,101L416,102 M416,101L417,102 M417,101L418,102 M108,102L109,103 M109,102L110,103 M110,102L111,103 M215,102L216,103 M216,102L217,103 M230,102L231,103 M231,102L232,103 M232,102L233,103 M313,102L314,103 M314,102L315,103 M315,102L316,103 M316,102L317,103 M317,102L318,103 M318,102L319,103 M320,102L321,103 M321,102L322,103 M411,102L412,103 M412,102L413,103 M413,102L414,103 M414,102L415,103 M415,102L416,103 M107,103L108,104 M108,103L109,104 M109,103L110,104 M215,103L216,104 M216,103L217,104 M229,103L230,104 M230,103L231,104 M231,103L232,104 M310,103L311,104 M311,103L312,104 M312,103L313,104 M313,103L314,104 M314,103L315,104 M315,103L316,104 M319,103L320,104 M320,103L321,104 M321,103L322,104 M409,103L410,104 M410,103L411,104 M411,103L412,104 M412,103L413,104 M413,103L414,104 M107,104L108,105 M108,104L109,105 M214,104L215,105 M215,104L216,105 M228,104L229,105 M229,104L230,105 M230,104L231,105 M307,104L308,105 M308,104L309,105 M309,104L310,105 M310,104L311,105 M311,104L312,105 M312,104L313,105 M318,104L319,105 M319,104L320,105 M320,104L321,105 M407,104L408,105 M408,104L409,105 M409,104L410,105 M410,104L411,105 M106,105L107,106 M107,105L108,106 M214,105L215,106 M215,105L216,106 M227,105L228,106 M228,105L229,106 M229,105L230,106 M304,105L305,106 M305,105L306,106 M306,105L307,106 M307,105L308,106 M308,105L309,106 M309,105L310,106 M318,105L319,106 M319,105L320,106 M406,105L407,106 M407,105L408,106 M408,105L409,106 M105,106L106,107 M106,106L107,107 M107,106L108,107 M213,106L214,107 M214,106L215,107 M226,106L227,107 M227,106L228,107 M228,106L229,107 M301,106L302,107 M302,106L303,107 M303,106L304,107 M304,106L305,107 M305,106L306,107 M306,106L307,107 M317,106L318,107 M318,106L319,107 M404,106L405,107 M405,106L406,107 M406,106L407,107 M407,106L408,107 M104,107L105,108 M105,107L106,108 M106,107L107,108 M213,107L214,108 M214,107L215,108 M225,107L226,108 M226,107L227,108 M227,107L228,108 M298,107L299,108 M299,107L300,108 M300,107L301,108 M301,107L302,108 M302,107L303,108 M303,107L304,108 M316,107L317,108 M317,107L318,108 M403,107L404,108 M404,107L405,108 M405,107L406,108 M103,108L104,109 M104,108L105,109 M105,108L106,109 M212,108L213,109 M213,108L214,109 M225,108L226,109 M226,108L227,109 M295,108L296,109 M296,108L297,109 M297,108L298,109 M298,108L299,109 M299,108L300,109 M300,108L301,109 M315,108L316,109 M316,108L317,109 M317,108L318,109 M402,108L403,109 M403,108L404,109 M404,108L405,109 M103,109L104,110 M104,109L105,110 M212,109L213,110 M213,109L214,110 M224,109L225,110 M225,109L226,110 M292,109L293,110 M293,109L294,110 M294,109L295,110 M295,109L296,110 M296,109L297,110 M297,109L298,110 M298,109L299,110 M314,109L315,110 M315,109L316,110 M316,109L317,110 M400,109L401,110 M401,109L402,110 M402,109L403,110 M403,109L404,110 M102,110L103,111 M103,110L104,111 M211,110L212,111 M212,110L213,111 M223,110L224,111 M224,110L225,111 M290,110L291,111 M291,110L292,111 M292,110L293,111 M293,110L294,111 M294,110L295,111 M295,110L296,111 M313,110L314,111 M314,110L315,111 M315,110L316,111 M399,110L400,111 M400,110L401,111 M401,110L402,111 M101,111L102,112 M102,111L103,112 M103,111L104,112 M211,111L212,112 M212,111L213,112 M222,111L223,112 M223,111L224,112 M287,111L288,112 M288,111L289,112 M289,111L290,112 M290,111L291,112 M291,111L292,112 M292,111L293,112 M313,111L314,112 M314,111L315,112 M398,111L399,112 M399,111L400,112 M400,111L401,112 M100,112L101,113 M101,112L102,113 M102,112L103,113 M210,112L211,113 M211,112L212,113 M221,112L222,113 M222,112L223,113 M223,112L224,113 M284,112L285,113 M285,112L286,113 M286,112L287,113 M287,112L288,113 M288,112L289,113 M289,112L290,113 M312,112L313,113 M313,112L314,113 M396,112L397,113 M397,112L398,113 M398,112L399,113 M399,112L400,113 M100,113L101,114 M101,113L102,114 M210,113L211,114 M211,113L212,114 M220,113L221,114 M221,113L222,114 M222,113L223,114 M281,113L282,114 M282,113L283,114 M283,113L284,114 M284,113L285,114 M285,113L286,114 M286,113L287,114 M311,113L312,114 M312,113L313,114 M395,113L396,114 M396,113L397,114 M397,113L398,114 M99,114L100,115 M100,114L101,115 M209,114L210,115 M210,114L211,115 M219,114L220,115 M220,114L221,115 M221,114L222,115 M278,114L279,115 M279,114L280,115 M280,114L281,115 M281,114L282,115 M282,114L283,115 M283,114L284,115 M310,114L311,115 M311,114L312,115 M312,114L313,115 M394,114L395,115 M395,114L396,115 M396,114L397,115 M98,115L99,116 M99,115L100,116 M100,115L101,116 M209,115L210,116 M210,115L211,116 M218,115L219,116 M219,115L220,116 M220,115L221,116 M275,115L276,116 M276,115L277,116 M277,115L278,116 M278,115L279,116 M279,115L280,116 M280,115L281,116 M309,115L310,116 M310,115L311,116 M311,115L312,116 M392,115L393,116 M393,115L394,116 M394,115L395,116 M395,115L396,116 M97,116L98,117 M98,116L99,117 M99,116L100,117 M208,116L209,117 M209,116L210,117 M217,116L218,117 M218,116L219,117 M219,116L220,117 M272,116L273,117 M273,116L274,117 M274,116L275,117 M275,116L276,117 M276,116L277,117 M277,116L278,117 M308,116L309,117 M309,116L310,117 M310,116L311,117 M391,116L392,117 M392,116L393,117 M393,116L394,117 M96,117L97,118 M97,117L98,118 M98,117L99,118 M208,117L209,118 M209,117L210,118 M216,117L217,118 M217,117L218,118 M218,117L219,118 M269,117L270,118 M270,117L271,118 M271,117L272,118 M272,117L273,118 M273,117L274,118 M274,117L275,118 M307,117L308,118 M308,117L309,118 M309,117L310,118 M390,117L391,118 M391,117L392,118 M392,117L393,118 M96,118L97,119 M97,118L98,119 M207,118L208,119 M208,118L209,119 M215,118L216,119 M216,118L217,119 M217,118L218,119 M267,118L268,119 M268,118L269,119 M269,118L270,119 M270,118L271,119 M271,118L272,119 M306,118L307,119 M307,118L308,119 M308,118L309,119 M388,118L389,119 M389,118L390,119 M390,118L391,119 M391,118L392,119 M95,119L96,120 M96,119L97,120 M207,119L208,120 M208,119L209,120 M214,119L215,120 M215,119L216,120 M216,119L217,120 M264,119L265,120 M265,119L266,120 M266,119L267,120 M267,119L268,120 M268,119L269,120 M269,119L270,120 M305,119L306,120 M306,119L307,120 M307,119L308,120 M387,119L388,120 M388,119L389,120 M389,119L390,120 M94,120L95,121 M95,120L96,121 M96,120L97,121 M207,120L208,121 M208,120L209,121 M212,120L213,121 M213,120L214,121 M214,120L215,121 M262,120L263,121 M263,120L264,121 M264,120L265,121 M265,120L266,121 M266,120L267,121 M304,120L305,121 M305,120L306,121 M306,120L307,121 M332,120L333,121 M333,120L334,121 M334,120L335,121 M335,120L336,121 M336,120L337,121 M386,120L387,121 M387,120L388,121 M388,120L389,121 M94,121L95,122 M95,121L96,122 M206,121L207,122 M207,121L208,122 M211,121L212,122 M212,121L213,122 M213,121L214,122 M259,121L260,122 M260,121L261,122 M261,121L262,122 M262,121L263,122 M263,121L264,122 M264,121L265,122 M303,121L304,122 M304,121L305,122 M305,121L306,122 M329,121L330,122 M330,121L331,122 M331,121L332,122 M332,121L333,122 M333,121L334,122 M334,121L335,122 M335,121L336,122 M336,121L337,122 M384,121L385,122 M385,121L386,122 M386,121L387,122 M387,121L388,122 M93,122L94,123 M94,122L95,123 M206,122L207,123 M207,122L208,123 M210,122L211,123 M211,122L212,123 M212,122L213,123 M257,122L258,123 M258,122L259,123 M259,122L260,123 M260,122L261,123 M261,122L262,123 M302,122L303,123 M303,122L304,123 M304,122L305,123 M327,122L328,123 M328,122L329,123 M329,122L330,123 M330,122L331,123 M331,122L332,123 M335,122L336,123 M336,122L337,123 M383,122L384,123 M384,122L385,123 M385,122L386,123 M93,123L94,124 M94,123L95,124 M206,123L207,124 M207,123L208,124 M209,123L210,124 M210,123L211,124 M211,123L212,124 M254,123L255,124 M255,123L256,124 M256,123L257,124 M257,123L258,124 M258,123L259,124 M259,123L260,124 M301,123L302,124 M302,123L303,124 M303,123L304,124 M325,123L326,124 M326,123L327,124 M327,123L328,124 M328,123L329,124 M336,123L337,124 M337,123L338,124 M382,123L383,124 M383,123L384,124 M384,123L385,124 M92,124L93,125 M93,124L94,125 M206,124L207,125 M207,124L208,125 M208,124L209,125 M209,124L210,125 M210,124L211,125 M252,124L253,125 M253,124L254,125 M254,124L255,125 M255,124L256,125 M256,124L257,125 M300,124L301,125 M301,124L302,125 M302,124L303,125 M323,124L324,125 M324,124L325,125 M325,124L326,125 M326,124L327,125 M336,124L337,125 M337,124L338,125 M380,124L381,125 M381,124L382,125 M382,124L383,125 M383,124L384,125 M92,125L93,126 M93,125L94,126 M205,125L206,126 M206,125L207,126 M207,125L208,126 M208,125L209,126 M209,125L210,126 M249,125L250,126 M250,125L251,126 M251,125L252,126 M252,125L253,126 M253,125L254,126 M254,125L255,126 M299,125L300,126 M300,125L301,126 M301,125L302,126 M322,125L323,126 M323,125L324,126 M324,125L325,126 M325,125L326,126 M336,125L337,126 M337,125L338,126 M379,125L380,126 M380,125L381,126 M381,125L382,126 M91,126L92,127 M92,126L93,127 M205,126L206,127 M206,126L207,127 M207,126L208,127 M208,126L209,127 M247,126L248,127 M248,126L249,127 M249,126L250,127 M250,126L251,127 M251,126L252,127 M298,126L299,127 M299,126L300,127 M300,126L301,127 M320,126L321,127 M321,126L322,127 M322,126L323,127 M323,126L324,127 M336,126L337,127 M337,126L338,127 M378,126L379,127 M379,126L380,127 M380,126L381,127 M90,127L91,128 M91,127L92,128 M92,127L93,128 M205,127L206,128 M206,127L207,128 M207,127L208,128 M244,127L245,128 M245,127L246,128 M246,127L247,128 M247,127L248,128 M248,127L249,128 M297,127L298,128 M298,127L299,128 M299,127L300,128 M318,127L319,128 M319,127L320,128 M320,127L321,128 M321,127L322,128 M336,127L337,128 M337,127L338,128 M338,127L339,128 M377,127L378,128 M378,127L379,128 M379,127L380,128 M90,128L91,129 M91,128L92,129 M204,128L205,129 M205,128L206,129 M206,128L207,129 M241,128L242,129 M242,128L243,129 M243,128L244,129 M244,128L245,129 M245,128L246,129 M246,128L247,129 M296,128L297,129 M297,128L298,129 M298,128L299,129 M302,128L303,129 M303,128L304,129 M304,128L305,129 M305,128L306,129 M306,128L307,129 M307,128L308,129 M308,128L309,129 M309,128L310,129 M316,128L317,129 M317,128L318,129 M318,128L319,129 M319,128L320,129 M337,128L338,129 M338,128L339,129 M376,128L377,129 M377,128L378,129 M378,128L379,129 M89,129L90,130 M90,129L91,130 M91,129L92,130 M202,129L203,130 M203,129L204,130 M204,129L205,130 M205,129L206,130 M239,129L240,130 M240,129L241,130 M241,129L242,130 M242,129L243,130 M243,129L244,130 M295,129L296,130 M296,129L297,130 M297,129L298,130 M300,129L301,130 M301,129L302,130 M302,129L303,130 M303,129L304,130 M304,129L305,130 M305,129L306,130 M306,129L307,130 M307,129L308,130 M308,129L309,130 M309,129L310,130 M315,129L316,130 M316,129L317,130 M317,129L318,130 M318,129L319,130 M337,129L338,130 M338,129L339,130 M375,129L376,130 M376,129L377,130 M377,129L378,130 M89,130L90,131 M90,130L91,131 M201,130L202,131 M202,130L203,131 M203,130L204,131 M204,130L205,131 M205,130L206,131 M232,130L233,131 M233,130L234,131 M234,130L235,131 M235,130L236,131 M236,130L237,131 M237,130L238,131 M238,130L239,131 M239,130L240,131 M240,130L241,131 M241,130L242,131 M294,130L295,131 M295,130L296,131 M296,130L297,131 M298,130L299,131 M299,130L300,131 M300,130L301,131 M301,130L302,131 M308,130L309,131 M309,130L310,131 M313,130L314,131 M314,130L315,131 M315,130L316,131 M316,130L317,131 M337,130L338,131 M338,130L339,131 M373,130L374,131 M374,130L375,131 M375,130L376,131 M88,131L89,132 M89,131L90,132 M90,131L91,132 M200,131L201,132 M201,131L202,132 M202,131L203,132 M204,131L205,132 M205,131L206,132 M220,131L221,132 M221,131L222,132 M222,131L223,132 M223,131L224,132 M224,131L225,132 M225,131L226,132 M226,131L227,132 M227,131L228,132 M228,131L229,132 M229,131L230,132 M230,131L231,132 M231,131L232,132 M232,131L233,132 M233,131L234,132 M234,131L235,132 M235,131L236,132 M236,131L237,132 M237,131L238,132 M238,131L239,132 M293,131L294,132 M294,131L295,132 M295,131L296,132 M297,131L298,132 M298,131L299,132 M299,131L300,132 M300,131L301,132 M308,131L309,132 M309,131L310,132 M312,131L313,132 M313,131L314,132 M314,131L315,132 M337,131L338,132 M338,131L339,132 M372,131L373,132 M373,131L374,132 M374,131L375,132 M88,132L89,133 M89,132L90,133 M199,132L200,133 M200,132L201,133 M201,132L202,133 M205,132L206,133 M206,132L207,133 M207,132L208,133 M208,132L209,133 M209,132L210,133 M210,132L211,133 M211,132L212,133 M212,132L213,133 M213,132L214,133 M214,132L215,133 M215,132L216,133 M216,132L217,133 M217,132L218,133 M218,132L219,133 M219,132L220,133 M220,132L221,133 M221,132L222,133 M222,132L223,133 M223,132L224,133 M224,132L225,133 M225,132L226,133 M226,132L227,133 M227,132L228,133 M228,132L229,133 M229,132L230,133 M230,132L231,133 M231,132L232,133 M292,132L293,133 M293,132L294,133 M294,132L295,133 M295,132L296,133 M296,132L297,133 M297,132L298,133 M298,132L299,133 M308,132L309,133 M309,132L310,133 M310,132L311,133 M311,132L312,133 M312,132L313,133 M313,132L314,133 M338,132L339,133 M339,132L340,133 M371,132L372,133 M372,132L373,133 M373,132L374,133 M87,133L88,134 M88,133L89,134 M89,133L90,134 M198,133L199,134 M199,133L200,134 M200,133L201,134 M205,133L206,134 M206,133L207,134 M207,133L208,134 M208,133L209,134 M209,133L210,134 M210,133L211,134 M211,133L212,134 M212,133L213,134 M213,133L214,134 M214,133L215,134 M215,133L216,134 M216,133L217,134 M217,133L218,134 M218,133L219,134 M219,133L220,134 M291,133L292,134 M292,133L293,134 M293,133L294,134 M294,133L295,134 M295,133L296,134 M296,133L297,134 M308,133L309,134 M309,133L310,134 M310,133L311,134 M311,133L312,134 M338,133L339,134 M339,133L340,134 M370,133L371,134 M371,133L372,134 M372,133L373,134 M87,134L88,135 M88,134L89,135 M197,134L198,135 M198,134L199,135 M199,134L200,135 M290,134L291,135 M291,134L292,135 M292,134L293,135 M293,134L294,135 M294,134L295,135 M295,134L296,135 M308,134L309,135 M309,134L310,135 M310,134L311,135 M338,134L339,135 M339,134L340,135 M369,134L370,135 M370,134L371,135 M371,134L372,135 M86,135L87,136 M87,135L88,136 M88,135L89,136 M196,135L197,136 M197,135L198,136 M198,135L199,136 M289,135L290,136 M290,135L291,136 M291,135L292,136 M292,135L293,136 M293,135L294,136 M306,135L307,136 M307,135L308,136 M308,135L309,136 M309,135L310,136 M310,135L311,136 M338,135L339,136 M339,135L340,136 M368,135L369,136 M369,135L370,136 M370,135L371,136 M86,136L87,137 M87,136L88,137 M195,136L196,137 M196,136L197,137 M197,136L198,137 M288,136L289,137 M289,136L290,137 M290,136L291,137 M291,136L292,137 M305,136L306,137 M306,136L307,137 M307,136L308,137 M309,136L310,137 M310,136L311,137 M338,136L339,137 M339,136L340,137 M367,136L368,137 M368,136L369,137 M369,136L370,137 M85,137L86,138 M86,137L87,138 M87,137L88,138 M194,137L195,138 M195,137L196,138 M196,137L197,138 M286,137L287,138 M287,137L288,138 M288,137L289,138 M289,137L290,138 M303,137L304,138 M304,137L305,138 M305,137L306,138 M306,137L307,138 M309,137L310,138 M310,137L311,138 M338,137L339,138 M339,137L340,138 M366,137L367,138 M367,137L368,138 M368,137L369,138 M85,138L86,139 M86,138L87,139 M193,138L194,139 M194,138L195,139 M285,138L286,139 M286,138L287,139 M287,138L288,139 M288,138L289,139 M302,138L303,139 M303,138L304,139 M304,138L305,139 M309,138L310,139 M310,138L311,139 M338,138L339,139 M339,138L340,139 M365,138L366,139 M366,138L367,139 M367,138L368,139 M84,139L85,140 M85,139L86,140 M191,139L192,140 M192,139L193,140 M193,139L194,140 M284,139L285,140 M285,139L286,140 M286,139L287,140 M287,139L288,140 M301,139L302,140 M302,139L303,140 M303,139L304,140 M309,139L310,140 M310,139L311,140 M338,139L339,140 M339,139L340,140 M363,139L364,140 M364,139L365,140 M365,139L366,140 M84,140L85,141 M85,140L86,141 M190,140L191,141 M191,140L192,141 M192,140L193,141 M283,140L284,141 M284,140L285,141 M285,140L286,141 M286,140L287,141 M299,140L300,141 M300,140L301,141 M301,140L302,141 M302,140L303,141 M309,140L310,141 M310,140L311,141 M339,140L340,141 M340,140L341,141 M362,140L363,141 M363,140L364,141 M364,140L365,141 M83,141L84,142 M84,141L85,142 M189,141L190,142 M190,141L191,142 M191,141L192,142 M282,141L283,142 M283,141L284,142 M284,141L285,142 M285,141L286,142 M298,141L299,142 M299,141L300,142 M300,141L301,142 M308,141L309,142 M309,141L310,142 M310,141L311,142 M339,141L340,142 M340,141L341,142 M361,141L362,142 M362,141L363,142 M363,141L364,142 M83,142L84,143 M84,142L85,143 M188,142L189,143 M189,142L190,143 M190,142L191,143 M281,142L282,143 M282,142L283,143 M283,142L284,143 M284,142L285,143 M285,142L286,143 M297,142L298,143 M298,142L299,143 M299,142L300,143 M308,142L309,143 M309,142L310,143 M339,142L340,143 M340,142L341,143 M360,142L361,143 M361,142L362,143 M362,142L363,143 M82,143L83,144 M83,143L84,144 M187,143L188,144 M188,143L189,144 M189,143L190,144 M280,143L281,144 M281,143L282,144 M282,143L283,144 M283,143L284,144 M284,143L285,144 M295,143L296,144 M296,143L297,144 M297,143L298,144 M298,143L299,144 M307,143L308,144 M308,143L309,144 M339,143L340,144 M340,143L341,144 M359,143L360,144 M360,143L361,144 M361,143L362,144 M82,144L83,145 M83,144L84,145 M186,144L187,145 M187,144L188,145 M188,144L189,145 M279,144L280,145 M280,144L281,145 M281,144L282,145 M282,144L283,145 M283,144L284,145 M294,144L295,145 M295,144L296,145 M296,144L297,145 M306,144L307,145 M307,144L308,145 M308,144L309,145 M339,144L340,145 M340,144L341,145 M357,144L358,145 M358,144L359,145 M359,144L360,145 M360,144L361,145 M81,145L82,146 M82,145L83,146 M185,145L186,146 M186,145L187,146 M187,145L188,146 M278,145L279,146 M279,145L280,146 M280,145L281,146 M281,145L282,146 M282,145L283,146 M293,145L294,146 M294,145L295,146 M295,145L296,146 M306,145L307,146 M307,145L308,146 M339,145L340,146 M340,145L341,146 M355,145L356,146 M356,145L357,146 M357,145L358,146 M358,145L359,146 M81,146L82,147 M82,146L83,147 M184,146L185,147 M185,146L186,147 M186,146L187,147 M277,146L278,147 M278,146L279,147 M279,146L280,147 M280,146L281,147 M281,146L282,147 M291,146L292,147 M292,146L293,147 M293,146L294,147 M294,146L295,147 M305,146L306,147 M306,146L307,147 M339,146L340,147 M340,146L341,147 M354,146L355,147 M355,146L356,147 M356,146L357,147 M357,146L358,147 M80,147L81,148 M81,147L82,148 M82,147L83,148 M183,147L184,148 M184,147L185,148 M185,147L186,148 M276,147L277,148 M277,147L278,148 M278,147L279,148 M279,147L280,148 M290,147L291,148 M291,147L292,148 M292,147L293,148 M304,147L305,148 M305,147L306,148 M306,147L307,148 M339,147L340,148 M340,147L341,148 M352,147L353,148 M353,147L354,148 M354,147L355,148 M355,147L356,148 M80,148L81,149 M81,148L82,149 M181,148L182,149 M182,148L183,149 M183,148L184,149 M275,148L276,149 M276,148L277,149 M277,148L278,149 M278,148L279,149 M289,148L290,149 M290,148L291,149 M291,148L292,149 M303,148L304,149 M304,148L305,149 M305,148L306,149 M339,148L340,149 M340,148L341,149 M350,148L351,149 M351,148L352,149 M352,148L353,149 M353,148L354,149 M80,149L81,150 M81,149L82,150 M180,149L181,150 M181,149L182,150 M182,149L183,150 M276,149L277,150 M288,149L289,150 M289,149L290,150 M290,149L291,150 M303,149L304,150 M304,149L305,150 M339,149L340,150 M340,149L341,150 M349,149L350,150 M350,149L351,150 M351,149L352,150 M352,149L353,150 M79,150L80,151 M80,150L81,151 M81,150L82,151 M179,150L180,151 M180,150L181,151 M181,150L182,151 M287,150L288,151 M288,150L289,151 M289,150L290,151 M302,150L303,151 M303,150L304,151 M340,150L341,151 M341,150L342,151 M347,150L348,151 M348,150L349,151 M349,150L350,151 M350,150L351,151 M79,151L80,152 M80,151L81,152 M178,151L179,152 M179,151L180,152 M180,151L181,152 M285,151L286,152 M286,151L287,152 M287,151L288,152 M301,151L302,152 M302,151L303,152 M303,151L304,152 M340,151L341,152 M341,151L342,152 M345,151L346,152 M346,151L347,152 M347,151L348,152 M348,151L349,152 M79,152L80,153 M80,152L81,153 M177,152L178,153 M178,152L179,153 M179,152L180,153 M284,152L285,153 M285,152L286,153 M286,152L287,153 M301,152L302,153 M302,152L303,153 M340,152L341,153 M341,152L342,153 M343,152L344,153 M344,152L345,153 M345,152L346,153 M346,152L347,153 M78,153L79,154 M79,153L80,154 M80,153L81,154 M176,153L177,154 M177,153L178,154 M178,153L179,154 M283,153L284,154 M284,153L285,154 M285,153L286,154 M300,153L301,154 M301,153L302,154 M340,153L341,154 M341,153L342,154 M342,153L343,154 M343,153L344,154 M344,153L345,154 M345,153L346,154 M78,154L79,155 M79,154L80,155 M174,154L175,155 M175,154L176,155 M176,154L177,155 M177,154L178,155 M282,154L283,155 M283,154L284,155 M284,154L285,155 M299,154L300,155 M300,154L301,155 M301,154L302,155 M341,154L342,155 M342,154L343,155 M343,154L344,155 M78,155L79,156 M79,155L80,156 M173,155L174,156 M174,155L175,156 M175,155L176,156 M281,155L282,156 M282,155L283,156 M283,155L284,156 M298,155L299,156 M299,155L300,156 M300,155L301,156 M77,156L78,157 M78,156L79,157 M79,156L80,157 M172,156L173,157 M173,156L174,157 M174,156L175,157 M280,156L281,157 M281,156L282,157 M282,156L283,157 M298,156L299,157 M299,156L300,157 M77,157L78,158 M78,157L79,158 M171,157L172,158 M172,157L173,158 M173,157L174,158 M279,157L280,158 M280,157L281,158 M281,157L282,158 M297,157L298,158 M298,157L299,158 M299,157L300,158 M77,158L78,159 M78,158L79,159 M170,158L171,159 M171,158L172,159 M172,158L173,159 M277,158L278,159 M278,158L279,159 M279,158L280,159 M296,158L297,159 M297,158L298,159 M298,158L299,159 M76,159L77,160 M77,159L78,160 M78,159L79,160 M168,159L169,160 M169,159L170,160 M170,159L171,160 M276,159L277,160 M277,159L278,160 M278,159L279,160 M295,159L296,160 M296,159L297,160 M297,159L298,160 M76,160L77,161 M77,160L78,161 M167,160L168,161 M168,160L169,161 M169,160L170,161 M275,160L276,161 M276,160L277,161 M277,160L278,161 M294,160L295,161 M295,160L296,161 M296,160L297,161 M76,161L77,162 M77,161L78,162 M166,161L167,162 M167,161L168,162 M168,161L169,162 M274,161L275,162 M275,161L276,162 M276,161L277,162 M293,161L294,162 M294,161L295,162 M295,161L296,162 M75,162L76,163 M76,162L77,163 M77,162L78,163 M165,162L166,163 M166,162L167,163 M167,162L168,163 M273,162L274,163 M274,162L275,163 M275,162L276,163 M292,162L293,163 M293,162L294,163 M294,162L295,163 M75,163L76,164 M76,163L77,164 M163,163L164,164 M164,163L165,164 M165,163L166,164 M166,163L167,164 M272,163L273,164 M273,163L274,164 M274,163L275,164 M291,163L292,164 M292,163L293,164 M293,163L294,164 M75,164L76,165 M76,164L77,165 M162,164L163,165 M163,164L164,165 M164,164L165,165 M271,164L272,165 M272,164L273,165 M273,164L274,165 M290,164L291,165 M291,164L292,165 M292,164L293,165 M74,165L75,166 M75,165L76,166 M76,165L77,166 M161,165L162,166 M162,165L163,166 M163,165L164,166 M269,165L270,166 M270,165L271,166 M271,165L272,166 M289,165L290,166 M290,165L291,166 M291,165L292,166 M74,166L75,167 M75,166L76,167 M160,166L161,167 M161,166L162,167 M162,166L163,167 M268,166L269,167 M269,166L270,167 M270,166L271,167 M288,166L289,167 M289,166L290,167 M290,166L291,167 M74,167L75,168 M75,167L76,168 M158,167L159,168 M159,167L160,168 M160,167L161,168 M161,167L162,168 M267,167L268,168 M268,167L269,168 M269,167L270,168 M287,167L288,168 M288,167L289,168 M289,167L290,168 M73,168L74,169 M74,168L75,169 M75,168L76,169 M157,168L158,169 M158,168L159,169 M159,168L160,169 M266,168L267,169 M267,168L268,169 M268,168L269,169 M286,168L287,169 M287,168L288,169 M288,168L289,169 M73,169L74,170 M74,169L75,170 M156,169L157,170 M157,169L158,170 M158,169L159,170 M265,169L266,170 M266,169L267,170 M267,169L268,170 M285,169L286,170 M286,169L287,170 M287,169L288,170 M73,170L74,171 M74,170L75,171 M155,170L156,171 M156,170L157,171 M157,170L158,171 M264,170L265,171 M265,170L266,171 M266,170L267,171 M284,170L285,171 M285,170L286,171 M286,170L287,171 M73,171L74,172 M74,171L75,172 M154,171L155,172 M155,171L156,172 M156,171L157,172 M263,171L264,172 M264,171L265,172 M265,171L266,172 M283,171L284,172 M284,171L285,172 M285,171L286,172 M73,172L74,173 M74,172L75,173 M152,172L153,173 M153,172L154,173 M154,172L155,173 M262,172L263,173 M263,172L264,173 M264,172L265,173 M282,172L283,173 M283,172L284,173 M284,172L285,173 M73,173L74,174 M74,173L75,174 M151,173L152,174 M152,173L153,174 M153,173L154,174 M261,173L262,174 M262,173L263,174 M263,173L264,174 M281,173L282,174 M282,173L283,174 M283,173L284,174 M73,174L74,175 M74,174L75,175 M150,174L151,175 M151,174L152,175 M152,174L153,175 M260,174L261,175 M261,174L262,175 M262,174L263,175 M280,174L281,175 M281,174L282,175 M282,174L283,175 M73,175L74,176 M74,175L75,176 M149,175L150,176 M150,175L151,176 M151,175L152,176 M259,175L260,176 M260,175L261,176 M261,175L262,176 M279,175L280,176 M280,175L281,176 M281,175L282,176 M72,176L73,177 M73,176L74,177 M147,176L148,177 M148,176L149,177 M149,176L150,177 M150,176L151,177 M258,176L259,177 M259,176L260,177 M260,176L261,177 M278,176L279,177 M279,176L280,177 M280,176L281,177 M72,177L73,178 M73,177L74,178 M146,177L147,178 M147,177L148,178 M148,177L149,178 M257,177L258,178 M258,177L259,178 M259,177L260,178 M277,177L278,178 M278,177L279,178 M279,177L280,178 M72,178L73,179 M73,178L74,179 M145,178L146,179 M146,178L147,179 M147,178L148,179 M256,178L257,179 M257,178L258,179 M258,178L259,179 M276,178L277,179 M277,178L278,179 M278,178L279,179 M72,179L73,180 M73,179L74,180 M144,179L145,180 M145,179L146,180 M146,179L147,180 M255,179L256,180 M256,179L257,180 M257,179L258,180 M274,179L275,180 M275,179L276,180 M276,179L277,180 M277,179L278,180 M72,180L73,181 M73,180L74,181 M142,180L143,181 M143,180L144,181 M144,180L145,181 M145,180L146,181 M254,180L255,181 M255,180L256,181 M256,180L257,181 M273,180L274,181 M274,180L275,181 M275,180L276,181 M276,180L277,181 M72,181L73,182 M73,181L74,182 M141,181L142,182 M142,181L143,182 M143,181L144,182 M253,181L254,182 M254,181L255,182 M255,181L256,182 M272,181L273,182 M273,181L274,182 M274,181L275,182 M72,182L73,183 M73,182L74,183 M140,182L141,183 M141,182L142,183 M142,182L143,183 M252,182L253,183 M253,182L254,183 M254,182L255,183 M270,182L271,183 M271,182L272,183 M272,182L273,183 M273,182L274,183 M72,183L73,184 M73,183L74,184 M138,183L139,184 M139,183L140,184 M140,183L141,184 M141,183L142,184 M251,183L252,184 M252,183L253,184 M253,183L254,184 M269,183L270,184 M270,183L271,184 M271,183L272,184 M72,184L73,185 M73,184L74,185 M136,184L137,185 M137,184L138,185 M138,184L139,185 M139,184L140,185 M250,184L251,185 M251,184L252,185 M252,184L253,185 M267,184L268,185 M268,184L269,185 M269,184L270,185 M270,184L271,185 M72,185L73,186 M73,185L74,186 M134,185L135,186 M135,185L136,186 M136,185L137,186 M137,185L138,186 M249,185L250,186 M250,185L251,186 M251,185L252,186 M266,185L267,186 M267,185L268,186 M268,185L269,186 M269,185L270,186 M72,186L73,187 M73,186L74,187 M132,186L133,187 M133,186L134,187 M134,186L135,187 M135,186L136,187 M248,186L249,187 M249,186L250,187 M250,186L251,187 M265,186L266,187 M266,186L267,187 M267,186L268,187 M72,187L73,188 M73,187L74,188 M130,187L131,188 M131,187L132,188 M132,187L133,188 M133,187L134,188 M247,187L248,188 M248,187L249,188 M249,187L250,188 M263,187L264,188 M264,187L265,188 M265,187L266,188 M266,187L267,188 M72,188L73,189 M73,188L74,189 M128,188L129,189 M129,188L130,189 M130,188L131,189 M131,188L132,189 M246,188L247,189 M247,188L248,189 M248,188L249,189 M262,188L263,189 M263,188L264,189 M264,188L265,189 M71,189L72,190 M72,189L73,190 M126,189L127,190 M127,189L128,190 M128,189L129,190 M129,189L130,190 M246,189L247,190 M247,189L248,190 M260,189L261,190 M261,189L262,190 M262,189L263,190 M263,189L264,190 M71,190L72,191 M72,190L73,191 M124,190L125,191 M125,190L126,191 M126,190L127,191 M127,190L128,191 M245,190L246,191 M246,190L247,191 M247,190L248,191 M259,190L260,191 M260,190L261,191 M261,190L262,191 M262,190L263,191 M71,191L72,192 M72,191L73,192 M122,191L123,192 M123,191L124,192 M124,191L125,192 M125,191L126,192 M126,191L127,192 M245,191L246,192 M246,191L247,192 M258,191L259,192 M259,191L260,192 M260,191L261,192 M71,192L72,193 M72,192L73,193 M120,192L121,193 M121,192L122,193 M122,192L123,193 M123,192L124,193 M124,192L125,193 M244,192L245,193 M245,192L246,193 M256,192L257,193 M257,192L258,193 M258,192L259,193 M259,192L260,193 M71,193L72,194 M72,193L73,194 M118,193L119,194 M119,193L120,194 M120,193L121,194 M121,193L122,194 M122,193L123,194 M243,193L244,194 M244,193L245,194 M245,193L246,194 M255,193L256,194 M256,193L257,194 M257,193L258,194 M71,194L72,195 M72,194L73,195 M116,194L117,195 M117,194L118,195 M118,194L119,195 M119,194L120,195 M120,194L121,195 M243,194L244,195 M244,194L245,195 M253,194L254,195 M254,194L255,195 M255,194L256,195 M256,194L257,195 M71,195L72,196 M72,195L73,196 M114,195L115,196 M115,195L116,196 M116,195L117,196 M117,195L118,196 M118,195L119,196 M242,195L243,196 M243,195L244,196 M251,195L252,196 M252,195L253,196 M253,195L254,196 M254,195L255,196 M72,196L73,197 M73,196L74,197 M112,196L113,197 M113,196L114,197 M114,196L115,197 M115,196L116,197 M116,196L117,197 M241,196L242,197 M242,196L243,197 M243,196L244,197 M250,196L251,197 M251,196L252,197 M252,196L253,197 M253,196L254,197 M72,197L73,198 M73,197L74,198 M74,197L75,198 M111,197L112,198 M112,197L113,198 M113,197L114,198 M114,197L115,198 M241,197L242,198 M242,197L243,198 M248,197L249,198 M249,197L250,198 M250,197L251,198 M251,197L252,198 M73,198L74,199 M74,198L75,199 M109,198L110,199 M110,198L111,199 M111,198L112,199 M112,198L113,199 M240,198L241,199 M241,198L242,199 M246,198L247,199 M247,198L248,199 M248,198L249,199 M249,198L250,199 M73,199L74,200 M74,199L75,200 M75,199L76,200 M105,199L106,200 M106,199L107,200 M107,199L108,200 M108,199L109,200 M109,199L110,200 M110,199L111,200 M239,199L240,200 M240,199L241,200 M241,199L242,200 M244,199L245,200 M245,199L246,200 M246,199L247,200 M247,199L248,200 M74,200L75,201 M75,200L76,201 M99,200L100,201 M100,200L101,201 M101,200L102,201 M102,200L103,201 M103,200L104,201 M104,200L105,201 M105,200L106,201 M106,200L107,201 M107,200L108,201 M108,200L109,201 M239,200L240,201 M240,200L241,201 M243,200L244,201 M244,200L245,201 M245,200L246,201 M246,200L247,201 M75,201L76,202 M76,201L77,202 M77,201L78,202 M78,201L79,202 M94,201L95,202 M95,201L96,202 M96,201L97,202 M97,201L98,202 M98,201L99,202 M99,201L100,202 M100,201L101,202 M101,201L102,202 M102,201L103,202 M103,201L104,202 M104,201L105,202 M238,201L239,202 M239,201L240,202 M240,201L241,202 M241,201L242,202 M242,201L243,202 M243,201L244,202 M244,201L245,202 M75,202L76,203 M76,202L77,203 M77,202L78,203 M78,202L79,203 M79,202L80,203 M80,202L81,203 M81,202L82,203 M82,202L83,203 M83,202L84,203 M88,202L89,203 M89,202L90,203 M90,202L91,203 M91,202L92,203 M92,202L93,203 M93,202L94,203 M94,202L95,203 M95,202L96,203 M96,202L97,203 M97,202L98,203 M98,202L99,203 M239,202L240,203 M240,202L241,203 M241,202L242,203 M242,202L243,203 M79,203L80,204 M80,203L81,204 M81,203L82,204 M82,203L83,204 M83,203L84,204 M84,203L85,204 M85,203L86,204 M86,203L87,204 M87,203L88,204 M88,203L89,204 M89,203L90,204 M90,203L91,204 M91,203L92,204 M92,203L93,204 M93,203L94,204 M84,204L85,205 M85,204L86,205 M86,204L87,205 M87,204L88,205" fill="none" stroke="black" />
    </svg>