<svg xmlns="http://www.w3.org/2000/svg" width="800" height="250">
        <path d="M509,17L510,18 M510,17L511,18 M511,17L512,18 M512,17L513,18 M513,17L514,18 M514,17L515,18 M515,17L516,18 M516,17L517,18 M517,17L518,18 M518,17L519,18 M519,17L520,18 M505,18L506,19 M506,18L507,19 M507,18L508,19 M508,18L509,19 M509,18L510,19 M510,18L511,19 M511,18L512,19 M512,18L513,19 M513,18L514,19 M514,18L515,19 M515,18L516,19 M516,18L517,19 M517,18L518,19 M518,18L519,19 M519,18L520,19 M520,18L521,19 M521,18L522,19 M522,18L523,19 M523,18L524,19 M524,18L525,19 M525,18L526,19 M526,18L527,19 M527,18L528,19 M528,18L529,19 M529,18L530,19 M530,18L531,19 M531,18L532,19 M532,18L533,19 M533,18L534,19 M534,18L535,19 M535,18L536,19 M504,19L505,20 M505,19L506,20 M506,19L507,20 M507,19L508,20 M508,19L509,20 M509,19L510,20 M520,19L521,20 M521,19L522,20 M522,19L523,20 M523,19L524,20 M524,19L525,20 M525,19L526,20 M526,19L527,20 M527,19L528,20 M528,19L529,20 M529,19L530,20 M530,19L531,20 M531,19L532,20 M532,19L533,20 M533,19L534,20 M534,19L535,20 M535,19L536,20 M536,19L537,20 M537,19L538,20 M538,19L539,20 M539,19L540,20 M540,19L541,20 M541,19L542,20 M542,19L543,20 M543,19L544,20 M544,19L545,20 M545,19L546,20 M546,19L547,20 M547,19L548,20 M548,19L549,20 M549,19L550,20 M503,20L504,21 M504,20L505,21 M505,20L506,21 M536,20L537,21 M537,20L538,21 M538,20L539,21 M539,20L540,21 M540,20L541,21 M541,20L542,21 M542,20L543,21 M543,20L544,21 M544,20L545,21 M545,20L546,21 M546,20L547,21 M547,20L548,21 M548,20L549,21 M549,20L550,21 M550,20L551,21 M501,21L502,22 M502,21L503,22 M503,21L504,22 M504,21L505,22 M549,21L550,22 M550,21L551,22 M551,21L552,22 M552,21L553,22 M500,22L501,23 M501,22L502,23 M502,22L503,23 M551,22L552,23 M552,22L553,23 M553,22L554,23 M554,22L555,23 M499,23L500,24 M500,23L501,24 M501,23L502,24 M553,23L554,24 M554,23L555,24 M555,23L556,24 M556,23L557,24 M498,24L499,25 M499,24L500,25 M555,24L556,25 M556,24L557,25 M557,24L558,25 M558,24L559,25 M497,25L498,26 M498,25L499,26 M556,25L557,26 M557,25L558,26 M558,25L559,26 M559,25L560,26 M560,25L561,26 M496,26L497,27 M497,26L498,27 M558,26L559,27 M559,26L560,27 M560,26L561,27 M561,26L562,27 M495,27L496,28 M496,27L497,28 M560,27L561,28 M561,27L562,28 M562,27L563,28 M493,28L494,29 M494,28L495,29 M495,28L496,29 M561,28L562,29 M562,28L563,29 M563,28L564,29 M493,29L494,30 M494,29L495,30 M562,29L563,30 M563,29L564,30 M564,29L565,30 M565,29L566,30 M492,30L493,31 M493,30L494,31 M494,30L495,31 M564,30L565,31 M565,30L566,31 M566,30L567,31 M491,31L492,32 M492,31L493,32 M493,31L494,32 M565,31L566,32 M566,31L567,32 M567,31L568,32 M491,32L492,33 M492,32L493,33 M566,32L567,33 M567,32L568,33 M568,32L569,33 M490,33L491,34 M491,33L492,34 M492,33L493,34 M567,33L568,34 M568,33L569,34 M569,33L570,34 M489,34L490,35 M490,34L491,35 M491,34L492,35 M568,34L569,35 M569,34L570,35 M570,34L571,35 M571,34L572,35 M489,35L490,36 M490,35L491,36 M570,35L571,36 M571,35L572,36 M572,35L573,36 M488,36L489,37 M489,36L490,37 M490,36L491,37 M571,36L572,37 M572,36L573,37 M573,36L574,37 M488,37L489,38 M489,37L490,38 M572,37L573,38 M573,37L574,38 M487,38L488,39 M488,38L489,39 M489,38L490,39 M573,38L574,39 M574,38L575,39 M487,39L488,40 M488,39L489,40 M574,39L575,40 M575,39L576,40 M486,40L487,41 M487,40L488,41 M575,40L576,41 M576,40L577,41 M486,41L487,42 M487,41L488,42 M576,41L577,42 M577,41L578,42 M485,42L486,43 M486,42L487,43 M576,42L577,43 M577,42L578,43 M578,42L579,43 M485,43L486,44 M486,43L487,44 M577,43L578,44 M578,43L579,44 M579,43L580,44 M484,44L485,45 M485,44L486,45 M578,44L579,45 M579,44L580,45 M580,44L581,45 M483,45L484,46 M484,45L485,46 M485,45L486,46 M579,45L580,46 M580,45L581,46 M581,45L582,46 M483,46L484,47 M484,46L485,47 M580,46L581,47 M581,46L582,47 M582,46L583,47 M483,47L484,48 M484,47L485,48 M581,47L582,48 M582,47L583,48 M583,47L584,48 M482,48L483,49 M483,48L484,49 M582,48L583,49 M583,48L584,49 M584,48L585,49 M482,49L483,50 M483,49L484,50 M583,49L584,50 M584,49L585,50 M585,49L586,50 M482,50L483,51 M483,50L484,51 M584,50L585,51 M585,50L586,51 M586,50L587,51 M481,51L482,52 M482,51L483,52 M585,51L586,52 M586,51L587,52 M481,52L482,53 M482,52L483,53 M586,52L587,53 M587,52L588,53 M480,53L481,54 M481,53L482,54 M482,53L483,54 M586,53L587,54 M587,53L588,54 M588,53L589,54 M480,54L481,55 M481,54L482,55 M587,54L588,55 M588,54L589,55 M480,55L481,56 M481,55L482,56 M588,55L589,56 M589,55L590,56 M480,56L481,57 M481,56L482,57 M588,56L589,57 M589,56L590,57 M590,56L591,57 M479,57L480,58 M480,57L481,58 M589,57L590,58 M590,57L591,58 M479,58L480,59 M480,58L481,59 M590,58L591,59 M591,58L592,59 M479,59L480,60 M480,59L481,60 M590,59L591,60 M591,59L592,60 M592,59L593,60 M479,60L480,61 M480,60L481,61 M591,60L592,61 M592,60L593,61 M478,61L479,62 M479,61L480,62 M591,61L592,62 M592,61L593,62 M593,61L594,62 M478,62L479,63 M479,62L480,63 M592,62L593,63 M593,62L594,63 M478,63L479,64 M479,63L480,64 M593,63L594,64 M594,63L595,64 M152,64L153,65 M153,64L154,65 M478,64L479,65 M479,64L480,65 M593,64L594,65 M594,64L595,65 M595,64L596,65 M151,65L152,66 M152,65L153,66 M153,65L154,66 M477,65L478,66 M478,65L479,66 M594,65L595,66 M595,65L596,66 M596,65L597,66 M149,66L150,67 M150,66L151,67 M151,66L152,67 M152,66L153,67 M153,66L154,67 M154,66L155,67 M477,66L478,67 M478,66L479,67 M595,66L596,67 M596,66L597,67 M597,66L598,67 M148,67L149,68 M149,67L150,68 M150,67L151,68 M153,67L154,68 M154,67L155,68 M477,67L478,68 M478,67L479,68 M596,67L597,68 M597,67L598,68 M598,67L599,68 M147,68L148,69 M148,68L149,69 M149,68L150,69 M153,68L154,69 M154,68L155,69 M477,68L478,69 M478,68L479,69 M597,68L598,69 M598,68L599,69 M599,68L600,69 M145,69L146,70 M146,69L147,70 M147,69L148,70 M153,69L154,70 M154,69L155,70 M476,69L477,70 M477,69L478,70 M598,69L599,70 M599,69L600,70 M144,70L145,71 M145,70L146,71 M146,70L147,71 M153,70L154,71 M154,70L155,71 M155,70L156,71 M476,70L477,71 M477,70L478,71 M598,70L599,71 M599,70L600,71 M142,71L143,72 M143,71L144,72 M144,71L145,72 M145,71L146,72 M154,71L155,72 M155,71L156,72 M476,71L477,72 M477,71L478,72 M141,72L142,73 M142,72L143,73 M143,72L144,73 M154,72L155,73 M155,72L156,73 M476,72L477,73 M477,72L478,73 M140,73L141,74 M141,73L142,74 M142,73L143,74 M154,73L155,74 M155,73L156,74 M476,73L477,74 M477,73L478,74 M62,74L63,75 M63,74L64,75 M138,74L139,75 M139,74L140,75 M140,74L141,75 M141,74L142,75 M154,74L155,75 M155,74L156,75 M475,74L476,75 M476,74L477,75 M62,75L63,76 M63,75L64,76 M84,75L85,76 M85,75L86,76 M86,75L87,76 M87,75L88,76 M137,75L138,76 M138,75L139,76 M139,75L140,76 M154,75L155,76 M155,75L156,76 M475,75L476,76 M476,75L477,76 M62,76L63,77 M63,76L64,77 M81,76L82,77 M82,76L83,77 M83,76L84,77 M84,76L85,77 M85,76L86,77 M86,76L87,77 M87,76L88,77 M88,76L89,77 M135,76L136,77 M136,76L137,77 M137,76L138,77 M138,76L139,77 M155,76L156,77 M156,76L157,77 M475,76L476,77 M476,76L477,77 M62,77L63,78 M63,77L64,78 M80,77L81,78 M81,77L82,78 M82,77L83,78 M83,77L84,78 M87,77L88,78 M88,77L89,78 M89,77L90,78 M90,77L91,78 M134,77L135,78 M135,77L136,78 M136,77L137,78 M155,77L156,78 M156,77L157,78 M475,77L476,78 M476,77L477,78 M62,78L63,79 M63,78L64,79 M78,78L79,79 M79,78L80,79 M80,78L81,79 M81,78L82,79 M88,78L89,79 M89,78L90,79 M90,78L91,79 M133,78L134,79 M134,78L135,79 M135,78L136,79 M155,78L156,79 M156,78L157,79 M475,78L476,79 M476,78L477,79 M62,79L63,80 M63,79L64,80 M77,79L78,80 M78,79L79,80 M79,79L80,80 M90,79L91,80 M91,79L92,80 M131,79L132,80 M132,79L133,80 M133,79L134,80 M134,79L135,80 M155,79L156,80 M156,79L157,80 M474,79L475,80 M475,79L476,80 M62,80L63,81 M63,80L64,81 M70,80L71,81 M71,80L72,81 M72,80L73,81 M73,80L74,81 M74,80L75,81 M75,80L76,81 M76,80L77,81 M77,80L78,81 M90,80L91,81 M91,80L92,81 M129,80L130,81 M130,80L131,81 M131,80L132,81 M132,80L133,81 M155,80L156,81 M156,80L157,81 M474,80L475,81 M475,80L476,81 M62,81L63,82 M63,81L64,82 M69,81L70,82 M70,81L71,82 M71,81L72,82 M72,81L73,82 M73,81L74,82 M74,81L75,82 M75,81L76,82 M76,81L77,82 M91,81L92,82 M92,81L93,82 M127,81L128,82 M128,81L129,82 M129,81L130,82 M130,81L131,82 M155,81L156,82 M156,81L157,82 M474,81L475,82 M475,81L476,82 M62,82L63,83 M63,82L64,83 M68,82L69,83 M69,82L70,83 M91,82L92,83 M92,82L93,83 M93,82L94,83 M126,82L127,83 M127,82L128,83 M128,82L129,83 M129,82L130,83 M155,82L156,83 M156,82L157,83 M474,82L475,83 M475,82L476,83 M62,83L63,84 M63,83L64,84 M68,83L69,84 M69,83L70,84 M92,83L93,84 M93,83L94,84 M124,83L125,84 M125,83L126,84 M126,83L127,84 M127,83L128,84 M156,83L157,84 M157,83L158,84 M474,83L475,84 M475,83L476,84 M62,84L63,85 M63,84L64,85 M67,84L68,85 M68,84L69,85 M69,84L70,85 M93,84L94,85 M94,84L95,85 M122,84L123,85 M123,84L124,85 M124,84L125,85 M125,84L126,85 M156,84L157,85 M157,84L158,85 M473,84L474,85 M474,84L475,85 M62,85L63,86 M63,85L64,86 M67,85L68,86 M68,85L69,86 M93,85L94,86 M94,85L95,86 M121,85L122,86 M122,85L123,86 M123,85L124,86 M156,85L157,86 M157,85L158,86 M473,85L474,86 M474,85L475,86 M62,86L63,87 M63,86L64,87 M94,86L95,87 M95,86L96,87 M118,86L119,87 M119,86L120,87 M120,86L121,87 M121,86L122,87 M122,86L123,87 M156,86L157,87 M157,86L158,87 M473,86L474,87 M474,86L475,87 M62,87L63,88 M63,87L64,88 M94,87L95,88 M95,87L96,88 M115,87L116,88 M116,87L117,88 M117,87L118,88 M118,87L119,88 M119,87L120,88 M120,87L121,88 M156,87L157,88 M157,87L158,88 M473,87L474,88 M474,87L475,88 M62,88L63,89 M63,88L64,89 M94,88L95,89 M95,88L96,89 M114,88L115,89 M115,88L116,89 M116,88L117,89 M117,88L118,89 M156,88L157,89 M157,88L158,89 M472,88L473,89 M473,88L474,89 M62,89L63,90 M63,89L64,90 M95,89L96,90 M96,89L97,90 M113,89L114,90 M114,89L115,90 M156,89L157,90 M157,89L158,90 M472,89L473,90 M473,89L474,90 M62,90L63,91 M63,90L64,91 M95,90L96,91 M96,90L97,91 M112,90L113,91 M113,90L114,91 M156,90L157,91 M157,90L158,91 M472,90L473,91 M473,90L474,91 M62,91L63,92 M63,91L64,92 M95,91L96,92 M96,91L97,92 M110,91L111,92 M111,91L112,92 M112,91L113,92 M157,91L158,92 M158,91L159,92 M472,91L473,92 M473,91L474,92 M61,92L62,93 M62,92L63,93 M95,92L96,93 M96,92L97,93 M110,92L111,93 M111,92L112,93 M157,92L158,93 M158,92L159,93 M472,92L473,93 M473,92L474,93 M61,93L62,94 M62,93L63,94 M96,93L97,94 M97,93L98,94 M109,93L110,94 M110,93L111,94 M111,93L112,94 M157,93L158,94 M158,93L159,94 M471,93L472,94 M472,93L473,94 M61,94L62,95 M62,94L63,95 M96,94L97,95 M97,94L98,95 M109,94L110,95 M110,94L111,95 M157,94L158,95 M158,94L159,95 M471,94L472,95 M472,94L473,95 M61,95L62,96 M62,95L63,96 M96,95L97,96 M97,95L98,96 M107,95L108,96 M108,95L109,96 M109,95L110,96 M157,95L158,96 M158,95L159,96 M471,95L472,96 M472,95L473,96 M61,96L62,97 M62,96L63,97 M96,96L97,97 M97,96L98,97 M107,96L108,97 M108,96L109,97 M157,96L158,97 M158,96L159,97 M471,96L472,97 M472,96L473,97 M61,97L62,98 M62,97L63,98 M96,97L97,98 M97,97L98,98 M106,97L107,98 M107,97L108,98 M108,97L109,98 M157,97L158,98 M158,97L159,98 M471,97L472,98 M472,97L473,98 M60,98L61,99 M61,98L62,99 M62,98L63,99 M97,98L98,99 M98,98L99,99 M105,98L106,99 M106,98L107,99 M107,98L108,99 M157,98L158,99 M158,98L159,99 M382,98L383,99 M383,98L384,99 M471,98L472,99 M472,98L473,99 M60,99L61,100 M61,99L62,100 M97,99L98,100 M98,99L99,100 M105,99L106,100 M106,99L107,100 M157,99L158,100 M158,99L159,100 M382,99L383,100 M383,99L384,100 M471,99L472,100 M472,99L473,100 M60,100L61,101 M61,100L62,101 M97,100L98,101 M98,100L99,101 M105,100L106,101 M106,100L107,101 M157,100L158,101 M158,100L159,101 M381,100L382,101 M382,100L383,101 M383,100L384,101 M471,100L472,101 M472,100L473,101 M60,101L61,102 M61,101L62,102 M97,101L98,102 M98,101L99,102 M104,101L105,102 M105,101L106,102 M157,101L158,102 M158,101L159,102 M381,101L382,102 M382,101L383,102 M471,101L472,102 M472,101L473,102 M60,102L61,103 M61,102L62,103 M97,102L98,103 M98,102L99,103 M102,102L103,103 M103,102L104,103 M104,102L105,103 M105,102L106,103 M157,102L158,103 M158,102L159,103 M381,102L382,103 M382,102L383,103 M471,102L472,103 M472,102L473,103 M59,103L60,104 M60,103L61,104 M61,103L62,104 M97,103L98,104 M98,103L99,104 M102,103L103,104 M103,103L104,104 M104,103L105,104 M105,103L106,104 M157,103L158,104 M158,103L159,104 M380,103L381,104 M381,103L382,104 M470,103L471,104 M471,103L472,104 M59,104L60,105 M60,104L61,105 M97,104L98,105 M98,104L99,105 M157,104L158,105 M158,104L159,105 M256,104L257,105 M257,104L258,105 M294,104L295,105 M295,104L296,105 M380,104L381,105 M381,104L382,105 M470,104L471,105 M471,104L472,105 M59,105L60,106 M60,105L61,106 M97,105L98,106 M98,105L99,106 M157,105L158,106 M158,105L159,106 M256,105L257,106 M257,105L258,106 M294,105L295,106 M295,105L296,106 M380,105L381,106 M381,105L382,106 M470,105L471,106 M471,105L472,106 M59,106L60,107 M60,106L61,107 M97,106L98,107 M98,106L99,107 M157,106L158,107 M158,106L159,107 M256,106L257,107 M257,106L258,107 M294,106L295,107 M295,106L296,107 M380,106L381,107 M381,106L382,107 M470,106L471,107 M471,106L472,107 M58,107L59,108 M59,107L60,108 M97,107L98,108 M98,107L99,108 M157,107L158,108 M158,107L159,108 M256,107L257,108 M257,107L258,108 M294,107L295,108 M295,107L296,108 M328,107L329,108 M329,107L330,108 M330,107L331,108 M331,107L332,108 M332,107L333,108 M333,107L334,108 M334,107L335,108 M335,107L336,108 M336,107L337,108 M337,107L338,108 M338,107L339,108 M339,107L340,108 M340,107L341,108 M341,107L342,108 M342,107L343,108 M343,107L344,108 M344,107L345,108 M380,107L381,108 M381,107L382,108 M470,107L471,108 M471,107L472,108 M58,108L59,109 M59,108L60,109 M97,108L98,109 M98,108L99,109 M157,108L158,109 M158,108L159,109 M234,108L235,109 M235,108L236,109 M236,108L237,109 M237,108L238,109 M238,108L239,109 M239,108L240,109 M240,108L241,109 M241,108L242,109 M242,108L243,109 M243,108L244,109 M244,108L245,109 M245,108L246,109 M256,108L257,109 M257,108L258,109 M294,108L295,109 M295,108L296,109 M313,108L314,109 M314,108L315,109 M315,108L316,109 M316,108L317,109 M317,108L318,109 M318,108L319,109 M319,108L320,109 M320,108L321,109 M321,108L322,109 M322,108L323,109 M323,108L324,109 M324,108L325,109 M325,108L326,109 M326,108L327,109 M327,108L328,109 M328,108L329,109 M329,108L330,109 M330,108L331,109 M331,108L332,109 M332,108L333,109 M333,108L334,109 M334,108L335,109 M335,108L336,109 M336,108L337,109 M337,108L338,109 M338,108L339,109 M339,108L340,109 M340,108L341,109 M341,108L342,109 M342,108L343,109 M343,108L344,109 M344,108L345,109 M380,108L381,109 M381,108L382,109 M470,108L471,109 M471,108L472,109 M58,109L59,110 M59,109L60,110 M97,109L98,110 M98,109L99,110 M157,109L158,110 M158,109L159,110 M228,109L229,110 M229,109L230,110 M230,109L231,110 M231,109L232,110 M232,109L233,110 M233,109L234,110 M234,109L235,110 M235,109L236,110 M236,109L237,110 M237,109L238,110 M238,109L239,110 M239,109L240,110 M240,109L241,110 M241,109L242,110 M242,109L243,110 M243,109L244,110 M244,109L245,110 M245,109L246,110 M256,109L257,110 M257,109L258,110 M294,109L295,110 M295,109L296,110 M309,109L310,110 M310,109L311,110 M311,109L312,110 M312,109L313,110 M313,109L314,110 M314,109L315,110 M315,109L316,110 M316,109L317,110 M317,109L318,110 M318,109L319,110 M319,109L320,110 M320,109L321,110 M321,109L322,110 M322,109L323,110 M323,109L324,110 M324,109L325,110 M325,109L326,110 M326,109L327,110 M327,109L328,110 M380,109L381,110 M381,109L382,110 M470,109L471,110 M471,109L472,110 M57,110L58,111 M58,110L59,111 M97,110L98,111 M98,110L99,111 M157,110L158,111 M158,110L159,111 M227,110L228,111 M228,110L229,111 M229,110L230,111 M230,110L231,111 M231,110L232,111 M232,110L233,111 M233,110L234,111 M245,110L246,111 M246,110L247,111 M256,110L257,111 M257,110L258,111 M294,110L295,111 M295,110L296,111 M304,110L305,111 M305,110L306,111 M306,110L307,111 M307,110L308,111 M308,110L309,111 M309,110L310,111 M310,110L311,111 M311,110L312,111 M312,110L313,111 M380,110L381,111 M381,110L382,111 M470,110L471,111 M471,110L472,111 M57,111L58,112 M58,111L59,112 M97,111L98,112 M98,111L99,112 M157,111L158,112 M158,111L159,112 M225,111L226,112 M226,111L227,112 M227,111L228,112 M228,111L229,112 M245,111L246,112 M246,111L247,112 M256,111L257,112 M257,111L258,112 M294,111L295,112 M295,111L296,112 M303,111L304,112 M304,111L305,112 M305,111L306,112 M306,111L307,112 M307,111L308,112 M308,111L309,112 M309,111L310,112 M380,111L381,112 M381,111L382,112 M470,111L471,112 M471,111L472,112 M56,112L57,113 M57,112L58,113 M58,112L59,113 M97,112L98,113 M98,112L99,113 M157,112L158,113 M158,112L159,113 M223,112L224,113 M224,112L225,113 M225,112L226,113 M226,112L227,113 M246,112L247,113 M247,112L248,113 M256,112L257,113 M257,112L258,113 M294,112L295,113 M295,112L296,113 M302,112L303,113 M303,112L304,113 M304,112L305,113 M380,112L381,113 M381,112L382,113 M448,112L449,113 M449,112L450,113 M470,112L471,113 M471,112L472,113 M56,113L57,114 M57,113L58,114 M97,113L98,114 M98,113L99,114 M157,113L158,114 M158,113L159,114 M221,113L222,114 M222,113L223,114 M223,113L224,114 M224,113L225,114 M246,113L247,114 M247,113L248,114 M256,113L257,114 M257,113L258,114 M294,113L295,114 M295,113L296,114 M300,113L301,114 M301,113L302,114 M302,113L303,114 M303,113L304,114 M380,113L381,114 M381,113L382,114 M448,113L449,114 M449,113L450,114 M470,113L471,114 M471,113L472,114 M56,114L57,115 M57,114L58,115 M97,114L98,115 M98,114L99,115 M157,114L158,115 M158,114L159,115 M219,114L220,115 M220,114L221,115 M221,114L222,115 M222,114L223,115 M247,114L248,115 M248,114L249,115 M255,114L256,115 M256,114L257,115 M257,114L258,115 M294,114L295,115 M295,114L296,115 M297,114L298,115 M298,114L299,115 M299,114L300,115 M300,114L301,115 M301,114L302,115 M380,114L381,115 M381,114L382,115 M448,114L449,115 M449,114L450,115 M470,114L471,115 M471,114L472,115 M56,115L57,116 M57,115L58,116 M97,115L98,116 M98,115L99,116 M157,115L158,116 M158,115L159,116 M217,115L218,116 M218,115L219,116 M219,115L220,116 M220,115L221,116 M247,115L248,116 M248,115L249,116 M249,115L250,116 M255,115L256,116 M256,115L257,116 M294,115L295,116 M295,115L296,116 M297,115L298,116 M298,115L299,116 M299,115L300,116 M380,115L381,116 M381,115L382,116 M448,115L449,116 M449,115L450,116 M470,115L471,116 M471,115L472,116 M56,116L57,117 M57,116L58,117 M97,116L98,117 M98,116L99,117 M157,116L158,117 M158,116L159,117 M216,116L217,117 M217,116L218,117 M218,116L219,117 M219,116L220,117 M248,116L249,117 M249,116L250,117 M255,116L256,117 M256,116L257,117 M294,116L295,117 M295,116L296,117 M380,116L381,117 M381,116L382,117 M448,116L449,117 M449,116L450,117 M470,116L471,117 M471,116L472,117 M56,117L57,118 M57,117L58,118 M97,117L98,118 M98,117L99,118 M157,117L158,118 M158,117L159,118 M214,117L215,118 M215,117L216,118 M216,117L217,118 M217,117L218,118 M248,117L249,118 M249,117L250,118 M255,117L256,118 M256,117L257,118 M294,117L295,118 M295,117L296,118 M381,117L382,118 M382,117L383,118 M448,117L449,118 M449,117L450,118 M470,117L471,118 M471,117L472,118 M56,118L57,119 M57,118L58,119 M97,118L98,119 M98,118L99,119 M157,118L158,119 M158,118L159,119 M213,118L214,119 M214,118L215,119 M215,118L216,119 M249,118L250,119 M250,118L251,119 M255,118L256,119 M256,118L257,119 M294,118L295,119 M295,118L296,119 M381,118L382,119 M382,118L383,119 M448,118L449,119 M449,118L450,119 M470,118L471,119 M471,118L472,119 M56,119L57,120 M57,119L58,120 M97,119L98,120 M98,119L99,120 M157,119L158,120 M158,119L159,120 M211,119L212,120 M212,119L213,120 M213,119L214,120 M214,119L215,120 M249,119L250,120 M250,119L251,120 M255,119L256,120 M256,119L257,120 M294,119L295,120 M295,119L296,120 M381,119L382,120 M382,119L383,120 M448,119L449,120 M449,119L450,120 M470,119L471,120 M471,119L472,120 M56,120L57,121 M57,120L58,121 M97,120L98,121 M98,120L99,121 M157,120L158,121 M158,120L159,121 M210,120L211,121 M211,120L212,121 M212,120L213,121 M249,120L250,121 M250,120L251,121 M255,120L256,121 M256,120L257,121 M294,120L295,121 M295,120L296,121 M381,120L382,121 M382,120L383,121 M448,120L449,121 M449,120L450,121 M470,120L471,121 M471,120L472,121 M56,121L57,122 M57,121L58,122 M97,121L98,122 M98,121L99,122 M157,121L158,122 M158,121L159,122 M209,121L210,122 M210,121L211,122 M211,121L212,122 M250,121L251,122 M251,121L252,122 M255,121L256,122 M256,121L257,122 M294,121L295,122 M295,121L296,122 M381,121L382,122 M382,121L383,122 M448,121L449,122 M449,121L450,122 M470,121L471,122 M471,121L472,122 M56,122L57,123 M57,122L58,123 M97,122L98,123 M98,122L99,123 M157,122L158,123 M158,122L159,123 M207,122L208,123 M208,122L209,123 M209,122L210,123 M210,122L211,123 M250,122L251,123 M251,122L252,123 M255,122L256,123 M256,122L257,123 M294,122L295,123 M295,122L296,123 M381,122L382,123 M382,122L383,123 M448,122L449,123 M449,122L450,123 M470,122L471,123 M471,122L472,123 M55,123L56,124 M56,123L57,124 M57,123L58,124 M97,123L98,124 M98,123L99,124 M157,123L158,124 M158,123L159,124 M207,123L208,124 M208,123L209,124 M209,123L210,124 M250,123L251,124 M251,123L252,124 M255,123L256,124 M256,123L257,124 M294,123L295,124 M295,123L296,124 M381,123L382,124 M382,123L383,124 M448,123L449,124 M449,123L450,124 M470,123L471,124 M471,123L472,124 M55,124L56,125 M56,124L57,125 M97,124L98,125 M98,124L99,125 M157,124L158,125 M158,124L159,125 M206,124L207,125 M207,124L208,125 M208,124L209,125 M251,124L252,125 M252,124L253,125 M255,124L256,125 M256,124L257,125 M294,124L295,125 M295,124L296,125 M381,124L382,125 M382,124L383,125 M448,124L449,125 M449,124L450,125 M470,124L471,125 M471,124L472,125 M55,125L56,126 M56,125L57,126 M97,125L98,126 M98,125L99,126 M157,125L158,126 M158,125L159,126 M205,125L206,126 M206,125L207,126 M207,125L208,126 M251,125L252,126 M252,125L253,126 M255,125L256,126 M256,125L257,126 M294,125L295,126 M295,125L296,126 M381,125L382,126 M382,125L383,126 M448,125L449,126 M449,125L450,126 M470,125L471,126 M471,125L472,126 M55,126L56,127 M56,126L57,127 M97,126L98,127 M98,126L99,127 M157,126L158,127 M158,126L159,127 M205,126L206,127 M206,126L207,127 M207,126L208,127 M208,126L209,127 M251,126L252,127 M252,126L253,127 M255,126L256,127 M256,126L257,127 M294,126L295,127 M295,126L296,127 M382,126L383,127 M383,126L384,127 M448,126L449,127 M449,126L450,127 M470,126L471,127 M471,126L472,127 M55,127L56,128 M56,127L57,128 M97,127L98,128 M98,127L99,128 M157,127L158,128 M158,127L159,128 M200,127L201,128 M201,127L202,128 M202,127L203,128 M203,127L204,128 M204,127L205,128 M205,127L206,128 M206,127L207,128 M207,127L208,128 M208,127L209,128 M252,127L253,128 M253,127L254,128 M255,127L256,128 M256,127L257,128 M294,127L295,128 M295,127L296,128 M382,127L383,128 M383,127L384,128 M448,127L449,128 M449,127L450,128 M470,127L471,128 M471,127L472,128 M55,128L56,129 M56,128L57,129 M97,128L98,129 M98,128L99,129 M157,128L158,129 M158,128L159,129 M200,128L201,129 M201,128L202,129 M202,128L203,129 M203,128L204,129 M204,128L205,129 M205,128L206,129 M252,128L253,129 M253,128L254,129 M255,128L256,129 M256,128L257,129 M294,128L295,129 M295,128L296,129 M382,128L383,129 M383,128L384,129 M448,128L449,129 M449,128L450,129 M470,128L471,129 M471,128L472,129 M54,129L55,130 M55,129L56,130 M97,129L98,130 M98,129L99,130 M156,129L157,130 M157,129L158,130 M158,129L159,130 M199,129L200,130 M200,129L201,130 M252,129L253,130 M253,129L254,130 M255,129L256,130 M256,129L257,130 M294,129L295,130 M295,129L296,130 M382,129L383,130 M383,129L384,130 M448,129L449,130 M449,129L450,130 M470,129L471,130 M471,129L472,130 M54,130L55,131 M55,130L56,131 M96,130L97,131 M97,130L98,131 M156,130L157,131 M157,130L158,131 M198,130L199,131 M199,130L200,131 M253,130L254,131 M254,130L255,131 M255,130L256,131 M256,130L257,131 M294,130L295,131 M295,130L296,131 M382,130L383,131 M383,130L384,131 M448,130L449,131 M449,130L450,131 M470,130L471,131 M471,130L472,131 M54,131L55,132 M55,131L56,132 M96,131L97,132 M97,131L98,132 M156,131L157,132 M157,131L158,132 M197,131L198,132 M198,131L199,132 M253,131L254,132 M254,131L255,132 M255,131L256,132 M256,131L257,132 M294,131L295,132 M295,131L296,132 M382,131L383,132 M383,131L384,132 M448,131L449,132 M449,131L450,132 M470,131L471,132 M471,131L472,132 M54,132L55,133 M55,132L56,133 M96,132L97,133 M97,132L98,133 M156,132L157,133 M157,132L158,133 M196,132L197,133 M197,132L198,133 M253,132L254,133 M254,132L255,133 M256,132L257,133 M257,132L258,133 M294,132L295,133 M295,132L296,133 M382,132L383,133 M383,132L384,133 M448,132L449,133 M449,132L450,133 M470,132L471,133 M471,132L472,133 M54,133L55,134 M55,133L56,134 M96,133L97,134 M97,133L98,134 M156,133L157,134 M157,133L158,134 M194,133L195,134 M195,133L196,134 M196,133L197,134 M254,133L255,134 M255,133L256,134 M256,133L257,134 M257,133L258,134 M294,133L295,134 M295,133L296,134 M382,133L383,134 M383,133L384,134 M448,133L449,134 M449,133L450,134 M470,133L471,134 M471,133L472,134 M54,134L55,135 M55,134L56,135 M96,134L97,135 M97,134L98,135 M156,134L157,135 M157,134L158,135 M193,134L194,135 M194,134L195,135 M195,134L196,135 M254,134L255,135 M255,134L256,135 M256,134L257,135 M257,134L258,135 M294,134L295,135 M295,134L296,135 M383,134L384,135 M384,134L385,135 M448,134L449,135 M449,134L450,135 M470,134L471,135 M471,134L472,135 M54,135L55,136 M55,135L56,136 M96,135L97,136 M97,135L98,136 M156,135L157,136 M157,135L158,136 M191,135L192,136 M192,135L193,136 M193,135L194,136 M194,135L195,136 M254,135L255,136 M255,135L256,136 M256,135L257,136 M257,135L258,136 M294,135L295,136 M295,135L296,136 M383,135L384,136 M384,135L385,136 M448,135L449,136 M449,135L450,136 M470,135L471,136 M471,135L472,136 M53,136L54,137 M54,136L55,137 M96,136L97,137 M97,136L98,137 M156,136L157,137 M157,136L158,137 M191,136L192,137 M192,136L193,137 M193,136L194,137 M255,136L256,137 M256,136L257,137 M257,136L258,137 M294,136L295,137 M295,136L296,137 M383,136L384,137 M384,136L385,137 M448,136L449,137 M449,136L450,137 M470,136L471,137 M471,136L472,137 M53,137L54,138 M54,137L55,138 M96,137L97,138 M97,137L98,138 M156,137L157,138 M157,137L158,138 M190,137L191,138 M191,137L192,138 M192,137L193,138 M255,137L256,138 M256,137L257,138 M257,137L258,138 M294,137L295,138 M295,137L296,138 M384,137L385,138 M385,137L386,138 M448,137L449,138 M449,137L450,138 M470,137L471,138 M471,137L472,138 M53,138L54,139 M54,138L55,139 M96,138L97,139 M97,138L98,139 M156,138L157,139 M157,138L158,139 M190,138L191,139 M191,138L192,139 M255,138L256,139 M256,138L257,139 M257,138L258,139 M294,138L295,139 M295,138L296,139 M384,138L385,139 M385,138L386,139 M448,138L449,139 M449,138L450,139 M470,138L471,139 M471,138L472,139 M53,139L54,140 M54,139L55,140 M96,139L97,140 M97,139L98,140 M156,139L157,140 M157,139L158,140 M189,139L190,140 M190,139L191,140 M191,139L192,140 M255,139L256,140 M256,139L257,140 M257,139L258,140 M294,139L295,140 M295,139L296,140 M384,139L385,140 M385,139L386,140 M448,139L449,140 M449,139L450,140 M470,139L471,140 M471,139L472,140 M52,140L53,141 M53,140L54,141 M54,140L55,141 M96,140L97,141 M97,140L98,141 M156,140L157,141 M157,140L158,141 M189,140L190,141 M190,140L191,141 M255,140L256,141 M256,140L257,141 M257,140L258,141 M294,140L295,141 M295,140L296,141 M384,140L385,141 M385,140L386,141 M448,140L449,141 M449,140L450,141 M469,140L470,141 M470,140L471,141 M52,141L53,142 M53,141L54,142 M96,141L97,142 M97,141L98,142 M155,141L156,142 M156,141L157,142 M188,141L189,142 M189,141L190,142 M190,141L191,142 M255,141L256,142 M256,141L257,142 M257,141L258,142 M294,141L295,142 M295,141L296,142 M384,141L385,142 M385,141L386,142 M448,141L449,142 M449,141L450,142 M469,141L470,142 M470,141L471,142 M52,142L53,143 M53,142L54,143 M96,142L97,143 M97,142L98,143 M155,142L156,143 M156,142L157,143 M187,142L188,143 M188,142L189,143 M189,142L190,143 M255,142L256,143 M256,142L257,143 M257,142L258,143 M294,142L295,143 M295,142L296,143 M384,142L385,143 M385,142L386,143 M448,142L449,143 M449,142L450,143 M469,142L470,143 M470,142L471,143 M52,143L53,144 M53,143L54,144 M96,143L97,144 M97,143L98,144 M155,143L156,144 M156,143L157,144 M187,143L188,144 M188,143L189,144 M255,143L256,144 M256,143L257,144 M257,143L258,144 M294,143L295,144 M295,143L296,144 M385,143L386,144 M386,143L387,144 M448,143L449,144 M449,143L450,144 M469,143L470,144 M470,143L471,144 M51,144L52,145 M52,144L53,145 M95,144L96,145 M96,144L97,145 M97,144L98,145 M155,144L156,145 M156,144L157,145 M187,144L188,145 M188,144L189,145 M255,144L256,145 M256,144L257,145 M257,144L258,145 M294,144L295,145 M295,144L296,145 M385,144L386,145 M386,144L387,145 M448,144L449,145 M449,144L450,145 M469,144L470,145 M470,144L471,145 M51,145L52,146 M52,145L53,146 M95,145L96,146 M96,145L97,146 M155,145L156,146 M156,145L157,146 M187,145L188,146 M188,145L189,146 M255,145L256,146 M256,145L257,146 M257,145L258,146 M294,145L295,146 M295,145L296,146 M385,145L386,146 M386,145L387,146 M448,145L449,146 M449,145L450,146 M469,145L470,146 M470,145L471,146 M51,146L52,147 M52,146L53,147 M95,146L96,147 M96,146L97,147 M155,146L156,147 M156,146L157,147 M188,146L189,147 M189,146L190,147 M254,146L255,147 M255,146L256,147 M256,146L257,147 M257,146L258,147 M294,146L295,147 M295,146L296,147 M385,146L386,147 M386,146L387,147 M448,146L449,147 M449,146L450,147 M469,146L470,147 M470,146L471,147 M50,147L51,148 M51,147L52,148 M95,147L96,148 M96,147L97,148 M155,147L156,148 M156,147L157,148 M188,147L189,148 M189,147L190,148 M254,147L255,148 M255,147L256,148 M256,147L257,148 M257,147L258,148 M294,147L295,148 M295,147L296,148 M385,147L386,148 M386,147L387,148 M448,147L449,148 M449,147L450,148 M469,147L470,148 M470,147L471,148 M50,148L51,149 M51,148L52,149 M95,148L96,149 M96,148L97,149 M154,148L155,149 M155,148L156,149 M188,148L189,149 M189,148L190,149 M190,148L191,149 M254,148L255,149 M255,148L256,149 M256,148L257,149 M257,148L258,149 M294,148L295,149 M295,148L296,149 M385,148L386,149 M386,148L387,149 M448,148L449,149 M449,148L450,149 M469,148L470,149 M470,148L471,149 M50,149L51,150 M51,149L52,150 M94,149L95,150 M95,149L96,150 M96,149L97,150 M154,149L155,150 M155,149L156,150 M189,149L190,150 M190,149L191,150 M253,149L254,150 M254,149L255,150 M255,149L256,150 M256,149L257,150 M257,149L258,150 M294,149L295,150 M295,149L296,150 M385,149L386,150 M386,149L387,150 M448,149L449,150 M449,149L450,150 M469,149L470,150 M470,149L471,150 M50,150L51,151 M51,150L52,151 M94,150L95,151 M95,150L96,151 M154,150L155,151 M155,150L156,151 M189,150L190,151 M190,150L191,151 M253,150L254,151 M254,150L255,151 M256,150L257,151 M257,150L258,151 M294,150L295,151 M295,150L296,151 M385,150L386,151 M386,150L387,151 M448,150L449,151 M449,150L450,151 M469,150L470,151 M470,150L471,151 M49,151L50,152 M50,151L51,152 M51,151L52,152 M94,151L95,152 M95,151L96,152 M154,151L155,152 M155,151L156,152 M190,151L191,152 M191,151L192,152 M252,151L253,152 M253,151L254,152 M254,151L255,152 M256,151L257,152 M257,151L258,152 M294,151L295,152 M295,151L296,152 M385,151L386,152 M386,151L387,152 M448,151L449,152 M449,151L450,152 M469,151L470,152 M470,151L471,152 M49,152L50,153 M50,152L51,153 M94,152L95,153 M95,152L96,153 M154,152L155,153 M155,152L156,153 M190,152L191,153 M191,152L192,153 M252,152L253,153 M253,152L254,153 M256,152L257,153 M257,152L258,153 M294,152L295,153 M295,152L296,153 M385,152L386,153 M386,152L387,153 M448,152L449,153 M449,152L450,153 M469,152L470,153 M470,152L471,153 M49,153L50,154 M50,153L51,154 M94,153L95,154 M95,153L96,154 M154,153L155,154 M155,153L156,154 M190,153L191,154 M191,153L192,154 M251,153L252,154 M252,153L253,154 M253,153L254,154 M256,153L257,154 M257,153L258,154 M294,153L295,154 M295,153L296,154 M385,153L386,154 M386,153L387,154 M448,153L449,154 M449,153L450,154 M469,153L470,154 M470,153L471,154 M49,154L50,155 M50,154L51,155 M94,154L95,155 M95,154L96,155 M154,154L155,155 M155,154L156,155 M191,154L192,155 M192,154L193,155 M251,154L252,155 M252,154L253,155 M256,154L257,155 M257,154L258,155 M294,154L295,155 M295,154L296,155 M386,154L387,155 M387,154L388,155 M447,154L448,155 M448,154L449,155 M468,154L469,155 M469,154L470,155 M49,155L50,156 M50,155L51,156 M93,155L94,156 M94,155L95,156 M154,155L155,156 M155,155L156,156 M191,155L192,156 M192,155L193,156 M250,155L251,156 M251,155L252,156 M252,155L253,156 M256,155L257,156 M257,155L258,156 M294,155L295,156 M295,155L296,156 M386,155L387,156 M387,155L388,156 M447,155L448,156 M448,155L449,156 M468,155L469,156 M469,155L470,156 M48,156L49,157 M49,156L50,157 M50,156L51,157 M93,156L94,157 M94,156L95,157 M154,156L155,157 M155,156L156,157 M191,156L192,157 M192,156L193,157 M193,156L194,157 M250,156L251,157 M251,156L252,157 M256,156L257,157 M257,156L258,157 M294,156L295,157 M295,156L296,157 M386,156L387,157 M387,156L388,157 M447,156L448,157 M448,156L449,157 M468,156L469,157 M469,156L470,157 M48,157L49,158 M49,157L50,158 M93,157L94,158 M94,157L95,158 M154,157L155,158 M155,157L156,158 M192,157L193,158 M193,157L194,158 M249,157L250,158 M250,157L251,158 M251,157L252,158 M256,157L257,158 M257,157L258,158 M294,157L295,158 M295,157L296,158 M386,157L387,158 M387,157L388,158 M447,157L448,158 M448,157L449,158 M468,157L469,158 M469,157L470,158 M48,158L49,159 M49,158L50,159 M93,158L94,159 M94,158L95,159 M154,158L155,159 M155,158L156,159 M192,158L193,159 M193,158L194,159 M249,158L250,159 M250,158L251,159 M256,158L257,159 M257,158L258,159 M294,158L295,159 M295,158L296,159 M386,158L387,159 M387,158L388,159 M446,158L447,159 M447,158L448,159 M468,158L469,159 M469,158L470,159 M48,159L49,160 M49,159L50,160 M93,159L94,160 M94,159L95,160 M154,159L155,160 M155,159L156,160 M192,159L193,160 M193,159L194,160 M248,159L249,160 M249,159L250,160 M256,159L257,160 M257,159L258,160 M294,159L295,160 M295,159L296,160 M386,159L387,160 M387,159L388,160 M446,159L447,160 M447,159L448,160 M468,159L469,160 M469,159L470,160 M48,160L49,161 M49,160L50,161 M92,160L93,161 M93,160L94,161 M154,160L155,161 M155,160L156,161 M193,160L194,161 M194,160L195,161 M247,160L248,161 M248,160L249,161 M249,160L250,161 M256,160L257,161 M257,160L258,161 M294,160L295,161 M295,160L296,161 M386,160L387,161 M387,160L388,161 M445,160L446,161 M446,160L447,161 M447,160L448,161 M468,160L469,161 M469,160L470,161 M47,161L48,162 M48,161L49,162 M92,161L93,162 M93,161L94,162 M154,161L155,162 M155,161L156,162 M193,161L194,162 M194,161L195,162 M247,161L248,162 M248,161L249,162 M256,161L257,162 M257,161L258,162 M294,161L295,162 M295,161L296,162 M386,161L387,162 M387,161L388,162 M445,161L446,162 M446,161L447,162 M468,161L469,162 M469,161L470,162 M47,162L48,163 M48,162L49,163 M92,162L93,163 M93,162L94,163 M154,162L155,163 M155,162L156,163 M193,162L194,163 M194,162L195,163 M246,162L247,163 M247,162L248,163 M256,162L257,163 M257,162L258,163 M294,162L295,163 M295,162L296,163 M386,162L387,163 M387,162L388,163 M444,162L445,163 M445,162L446,163 M468,162L469,163 M469,162L470,163 M47,163L48,164 M48,163L49,164 M92,163L93,164 M93,163L94,164 M154,163L155,164 M155,163L156,164 M193,163L194,164 M194,163L195,164 M195,163L196,164 M245,163L246,164 M246,163L247,164 M247,163L248,164 M256,163L257,164 M257,163L258,164 M294,163L295,164 M295,163L296,164 M387,163L388,164 M388,163L389,164 M443,163L444,164 M444,163L445,164 M445,163L446,164 M468,163L469,164 M469,163L470,164 M47,164L48,165 M48,164L49,165 M92,164L93,165 M93,164L94,165 M194,164L195,165 M195,164L196,165 M244,164L245,165 M245,164L246,165 M246,164L247,165 M256,164L257,165 M257,164L258,165 M294,164L295,165 M295,164L296,165 M296,164L297,165 M387,164L388,165 M388,164L389,165 M443,164L444,165 M444,164L445,165 M468,164L469,165 M469,164L470,165 M47,165L48,166 M48,165L49,166 M92,165L93,166 M93,165L94,166 M195,165L196,166 M196,165L197,166 M243,165L244,166 M244,165L245,166 M245,165L246,166 M257,165L258,166 M258,165L259,166 M295,165L296,166 M296,165L297,166 M387,165L388,166 M388,165L389,166 M442,165L443,166 M443,165L444,166 M444,165L445,166 M468,165L469,166 M469,165L470,166 M46,166L47,167 M47,166L48,167 M92,166L93,167 M93,166L94,167 M195,166L196,167 M196,166L197,167 M197,166L198,167 M242,166L243,167 M243,166L244,167 M244,166L245,167 M257,166L258,167 M258,166L259,167 M295,166L296,167 M296,166L297,167 M387,166L388,167 M388,166L389,167 M442,166L443,167 M443,166L444,167 M468,166L469,167 M469,166L470,167 M46,167L47,168 M47,167L48,168 M92,167L93,168 M93,167L94,168 M196,167L197,168 M197,167L198,168 M198,167L199,168 M241,167L242,168 M242,167L243,168 M243,167L244,168 M257,167L258,168 M258,167L259,168 M295,167L296,168 M296,167L297,168 M297,167L298,168 M387,167L388,168 M388,167L389,168 M441,167L442,168 M442,167L443,168 M468,167L469,168 M469,167L470,168 M46,168L47,169 M47,168L48,169 M91,168L92,169 M92,168L93,169 M197,168L198,169 M198,168L199,169 M199,168L200,169 M240,168L241,169 M241,168L242,169 M242,168L243,169 M257,168L258,169 M258,168L259,169 M296,168L297,169 M297,168L298,169 M387,168L388,169 M388,168L389,169 M440,168L441,169 M441,168L442,169 M442,168L443,169 M468,168L469,169 M469,168L470,169 M46,169L47,170 M47,169L48,170 M91,169L92,170 M92,169L93,170 M198,169L199,170 M199,169L200,170 M200,169L201,170 M239,169L240,170 M240,169L241,170 M241,169L242,170 M257,169L258,170 M258,169L259,170 M296,169L297,170 M297,169L298,170 M387,169L388,170 M388,169L389,170 M389,169L390,170 M439,169L440,170 M440,169L441,170 M441,169L442,170 M468,169L469,170 M469,169L470,170 M45,170L46,171 M46,170L47,171 M47,170L48,171 M91,170L92,171 M92,170L93,171 M199,170L200,171 M200,170L201,171 M201,170L202,171 M202,170L203,171 M203,170L204,171 M237,170L238,171 M238,170L239,171 M239,170L240,171 M257,170L258,171 M258,170L259,171 M296,170L297,171 M297,170L298,171 M388,170L389,171 M389,170L390,171 M437,170L438,171 M438,170L439,171 M439,170L440,171 M440,170L441,171 M468,170L469,171 M469,170L470,171 M487,170L488,171 M488,170L489,171 M489,170L490,171 M490,170L491,171 M491,170L492,171 M492,170L493,171 M493,170L494,171 M494,170L495,171 M495,170L496,171 M496,170L497,171 M497,170L498,171 M498,170L499,171 M499,170L500,171 M500,170L501,171 M501,170L502,171 M502,170L503,171 M503,170L504,171 M504,170L505,171 M505,170L506,171 M506,170L507,171 M507,170L508,171 M508,170L509,171 M509,170L510,171 M510,170L511,171 M511,170L512,171 M512,170L513,171 M45,171L46,172 M46,171L47,172 M91,171L92,172 M92,171L93,172 M200,171L201,172 M201,171L202,172 M202,171L203,172 M203,171L204,172 M204,171L205,172 M236,171L237,172 M237,171L238,172 M238,171L239,172 M257,171L258,172 M258,171L259,172 M296,171L297,172 M297,171L298,172 M388,171L389,172 M389,171L390,172 M435,171L436,172 M436,171L437,172 M437,171L438,172 M438,171L439,172 M468,171L469,172 M469,171L470,172 M480,171L481,172 M481,171L482,172 M482,171L483,172 M483,171L484,172 M484,171L485,172 M485,171L486,172 M486,171L487,172 M487,171L488,172 M488,171L489,172 M489,171L490,172 M490,171L491,172 M491,171L492,172 M492,171L493,172 M493,171L494,172 M494,171L495,172 M495,171L496,172 M496,171L497,172 M497,171L498,172 M498,171L499,172 M499,171L500,172 M500,171L501,172 M501,171L502,172 M502,171L503,172 M503,171L504,172 M504,171L505,172 M505,171L506,172 M506,171L507,172 M507,171L508,172 M508,171L509,172 M509,171L510,172 M510,171L511,172 M511,171L512,172 M512,171L513,172 M44,172L45,173 M45,172L46,173 M46,172L47,173 M91,172L92,173 M92,172L93,173 M203,172L204,173 M204,172L205,173 M205,172L206,173 M206,172L207,173 M234,172L235,173 M235,172L236,173 M236,172L237,173 M237,172L238,173 M257,172L258,173 M258,172L259,173 M296,172L297,173 M297,172L298,173 M388,172L389,173 M389,172L390,173 M434,172L435,173 M435,172L436,173 M436,172L437,173 M437,172L438,173 M468,172L469,173 M469,172L470,173 M475,172L476,173 M476,172L477,173 M477,172L478,173 M478,172L479,173 M479,172L480,173 M480,172L481,173 M481,172L482,173 M482,172L483,173 M483,172L484,173 M484,172L485,173 M485,172L486,173 M486,172L487,173 M44,173L45,174 M45,173L46,174 M91,173L92,174 M92,173L93,174 M205,173L206,174 M206,173L207,174 M207,173L208,174 M233,173L234,174 M234,173L235,174 M235,173L236,174 M257,173L258,174 M258,173L259,174 M388,173L389,174 M389,173L390,174 M432,173L433,174 M433,173L434,174 M434,173L435,174 M435,173L436,174 M468,173L469,174 M469,173L470,174 M470,173L471,174 M471,173L472,174 M472,173L473,174 M473,173L474,174 M474,173L475,174 M475,173L476,174 M476,173L477,174 M477,173L478,174 M478,173L479,174 M479,173L480,174 M480,173L481,174 M91,174L92,175 M92,174L93,175 M206,174L207,175 M207,174L208,175 M208,174L209,175 M209,174L210,175 M231,174L232,175 M232,174L233,175 M233,174L234,175 M234,174L235,175 M256,174L257,175 M257,174L258,175 M258,174L259,175 M389,174L390,175 M390,174L391,175 M430,174L431,175 M431,174L432,175 M432,174L433,175 M433,174L434,175 M463,174L464,175 M464,174L465,175 M465,174L466,175 M466,174L467,175 M467,174L468,175 M468,174L469,175 M469,174L470,175 M470,174L471,175 M471,174L472,175 M472,174L473,175 M473,174L474,175 M474,174L475,175 M91,175L92,176 M92,175L93,176 M208,175L209,176 M209,175L210,176 M210,175L211,176 M211,175L212,176 M212,175L213,176 M213,175L214,176 M214,175L215,176 M215,175L216,176 M216,175L217,176 M217,175L218,176 M218,175L219,176 M219,175L220,176 M220,175L221,176 M221,175L222,176 M222,175L223,176 M223,175L224,176 M224,175L225,176 M225,175L226,176 M226,175L227,176 M227,175L228,176 M228,175L229,176 M229,175L230,176 M230,175L231,176 M231,175L232,176 M232,175L233,176 M255,175L256,176 M256,175L257,176 M257,175L258,176 M258,175L259,176 M389,175L390,176 M390,175L391,176 M391,175L392,176 M428,175L429,176 M429,175L430,176 M430,175L431,176 M431,175L432,176 M461,175L462,176 M462,175L463,176 M463,175L464,176 M464,175L465,176 M465,175L466,176 M466,175L467,176 M467,175L468,176 M468,175L469,176 M469,175L470,176 M90,176L91,177 M91,176L92,177 M210,176L211,177 M211,176L212,177 M212,176L213,177 M213,176L214,177 M214,176L215,177 M215,176L216,177 M216,176L217,177 M217,176L218,177 M218,176L219,177 M219,176L220,177 M220,176L221,177 M221,176L222,177 M222,176L223,177 M223,176L224,177 M224,176L225,177 M225,176L226,177 M226,176L227,177 M227,176L228,177 M228,176L229,177 M229,176L230,177 M230,176L231,177 M231,176L232,177 M256,176L257,177 M257,176L258,177 M258,176L259,177 M390,176L391,177 M391,176L392,177 M392,176L393,177 M426,176L427,177 M427,176L428,177 M428,176L429,177 M429,176L430,177 M445,176L446,177 M446,176L447,177 M447,176L448,177 M448,176L449,177 M449,176L450,177 M450,176L451,177 M451,176L452,177 M452,176L453,177 M453,176L454,177 M454,176L455,177 M455,176L456,177 M456,176L457,177 M457,176L458,177 M458,176L459,177 M459,176L460,177 M460,176L461,177 M461,176L462,177 M462,176L463,177 M463,176L464,177 M468,176L469,177 M469,176L470,177 M90,177L91,178 M91,177L92,178 M391,177L392,178 M392,177L393,178 M393,177L394,178 M394,177L395,178 M395,177L396,178 M396,177L397,178 M397,177L398,178 M398,177L399,178 M399,177L400,178 M424,177L425,178 M425,177L426,178 M426,177L427,178 M427,177L428,178 M428,177L429,178 M445,177L446,178 M446,177L447,178 M447,177L448,178 M448,177L449,178 M449,177L450,178 M450,177L451,178 M451,177L452,178 M452,177L453,178 M453,177L454,178 M454,177L455,178 M455,177L456,178 M456,177L457,178 M457,177L458,178 M458,177L459,178 M459,177L460,178 M460,177L461,178 M468,177L469,178 M469,177L470,178 M90,178L91,179 M91,178L92,179 M393,178L394,179 M394,178L395,179 M395,178L396,179 M396,178L397,179 M397,178L398,179 M398,178L399,179 M399,178L400,179 M400,178L401,179 M401,178L402,179 M402,178L403,179 M403,178L404,179 M404,178L405,179 M405,178L406,179 M406,178L407,179 M407,178L408,179 M408,178L409,179 M409,178L410,179 M410,178L411,179 M411,178L412,179 M412,178L413,179 M413,178L414,179 M414,178L415,179 M415,178L416,179 M416,178L417,179 M417,178L418,179 M418,178L419,179 M419,178L420,179 M420,178L421,179 M421,178L422,179 M422,178L423,179 M423,178L424,179 M424,178L425,179 M425,178L426,179 M426,178L427,179 M468,178L469,179 M469,178L470,179 M399,179L400,180 M400,179L401,180 M401,179L402,180 M402,179L403,180 M403,179L404,180 M404,179L405,180 M405,179L406,180 M406,179L407,180 M407,179L408,180 M408,179L409,180 M409,179L410,180 M410,179L411,180 M411,179L412,180 M412,179L413,180 M413,179L414,180 M414,179L415,180 M415,179L416,180 M416,179L417,180 M417,179L418,180 M418,179L419,180 M419,179L420,180 M420,179L421,180 M421,179L422,180 M422,179L423,180 M423,179L424,180 M468,179L469,180 M469,179L470,180 M469,180L470,181 M470,180L471,181 M469,181L470,182 M470,181L471,182 M469,182L470,183 M470,182L471,183 M469,183L470,184 M470,183L471,184 M469,184L470,185 M470,184L471,185 M469,185L470,186 M470,185L471,186 M469,186L470,187 M470,186L471,187 M470,187L471,188 M471,187L472,188 M470,188L471,189 M471,188L472,189 M470,189L471,190 M471,189L472,190 M470,190L471,191 M471,190L472,191 M470,191L471,192 M471,191L472,192 M470,192L471,193 M471,192L472,193 M470,193L471,194 M471,193L472,194 M472,193L473,194 M471,194L472,195 M472,194L473,195 M471,195L472,196 M472,195L473,196 M471,196L472,197 M472,196L473,197 M472,197L473,198 M473,197L474,198 M472,198L473,199 M473,198L474,199 M472,199L473,200 M473,199L474,200 M472,200L473,201 M473,200L474,201 M473,201L474,202 M474,201L475,202 M473,202L474,203 M474,202L475,203 M473,203L474,204 M474,203L475,204 M473,204L474,205 M474,204L475,205 M473,205L474,206 M474,205L475,206 M473,206L474,207 M474,206L475,207 M473,207L474,208 M474,207L475,208 M473,208L474,209 M474,208L475,209 M474,209L475,210 M475,209L476,210 M474,210L475,211 M475,210L476,211 M474,211L475,212 M475,211L476,212 M474,212L475,213 M475,212L476,213 M474,213L475,214 M475,213L476,214 M474,214L475,215 M475,214L476,215 M474,215L475,216 M475,215L476,216 M474,216L475,217 M475,216L476,217 M474,217L475,218 M475,217L476,218 M474,218L475,219 M475,218L476,219 M474,219L475,220 M475,219L476,220 M476,219L477,220 M475,220L476,221 M476,220L477,221 M475,221L476,222 M476,221L477,222 M475,222L476,223 M476,222L477,223 M477,222L478,223 M475,223L476,224 M476,223L477,224 M477,223L478,224 M476,224L477,225 M477,224L478,225" fill="none" stroke="black" />
    </svg>