<svg xmlns="http://www.w3.org/2000/svg" width="800" height="250">
        <path d="M76,0L77,1 M77,0L78,1 M76,1L77,2 M77,1L78,2 M78,1L79,2 M77,2L78,3 M78,2L79,3 M77,3L78,4 M78,3L79,4 M79,3L80,4 M77,4L78,5 M78,4L79,5 M79,4L80,5 M78,5L79,6 M79,5L80,6 M79,6L80,7 M80,6L81,7 M79,7L80,8 M80,7L81,8 M79,8L80,9 M80,8L81,9 M81,8L82,9 M80,9L81,10 M81,9L82,10 M82,9L83,10 M81,10L82,11 M82,10L83,11 M81,11L82,12 M82,11L83,12 M83,11L84,12 M82,12L83,13 M83,12L84,13 M84,12L85,13 M82,13L83,14 M83,13L84,14 M84,13L85,14 M85,13L86,14 M83,14L84,15 M84,14L85,15 M85,14L86,15 M83,15L84,16 M84,15L85,16 M85,15L86,16 M86,15L87,16 M84,16L85,17 M85,16L86,17 M86,16L87,17 M87,16L88,17 M85,17L86,18 M86,17L87,18 M87,17L88,18 M86,18L87,19 M87,18L88,19 M88,18L89,19 M86,19L87,20 M87,19L88,20 M88,19L89,20 M89,19L90,20 M87,20L88,21 M88,20L89,21 M89,20L90,21 M88,21L89,22 M89,21L90,22 M90,21L91,22 M88,22L89,23 M89,22L90,23 M90,22L91,23 M91,22L92,23 M89,23L90,24 M90,23L91,24 M91,23L92,24 M90,24L91,25 M91,24L92,25 M92,24L93,25 M91,25L92,26 M92,25L93,26 M93,25L94,26 M91,26L92,27 M92,26L93,27 M93,26L94,27 M92,27L93,28 M93,27L94,28 M94,27L95,28 M93,28L94,29 M94,28L95,29 M95,28L96,29 M93,29L94,30 M94,29L95,30 M95,29L96,30 M94,30L95,31 M95,30L96,31 M96,30L97,31 M95,31L96,32 M96,31L97,32 M95,32L96,33 M96,32L97,33 M97,32L98,33 M96,33L97,34 M97,33L98,34 M98,33L99,34 M97,34L98,35 M98,34L99,35 M99,34L100,35 M98,35L99,36 M99,35L100,36 M100,35L101,36 M98,36L99,37 M99,36L100,37 M100,36L101,37 M99,37L100,38 M100,37L101,38 M101,37L102,38 M100,38L101,39 M101,38L102,39 M102,38L103,39 M100,39L101,40 M101,39L102,40 M102,39L103,40 M103,39L104,40 M101,40L102,41 M102,40L103,41 M103,40L104,41 M104,40L105,41 M101,41L102,42 M102,41L103,42 M103,41L104,42 M104,41L105,42 M105,41L106,42 M102,42L103,43 M103,42L104,43 M104,42L105,43 M105,42L106,43 M106,42L107,43 M103,43L104,44 M104,43L105,44 M105,43L106,44 M106,43L107,44 M107,43L108,44 M103,44L104,45 M104,44L105,45 M105,44L106,45 M106,44L107,45 M107,44L108,45 M104,45L105,46 M105,45L106,46 M107,45L108,46 M108,45L109,46 M105,46L106,47 M106,46L107,47 M107,46L108,47 M108,46L109,47 M109,46L110,47 M105,47L106,48 M106,47L107,48 M107,47L108,48 M108,47L109,48 M109,47L110,48 M110,47L111,48 M106,48L107,49 M107,48L108,49 M109,48L110,49 M110,48L111,49 M111,48L112,49 M107,49L108,50 M108,49L109,50 M110,49L111,50 M111,49L112,50 M112,49L113,50 M107,50L108,51 M108,50L109,51 M111,50L112,51 M112,50L113,51 M113,50L114,51 M108,51L109,52 M109,51L110,52 M112,51L113,52 M113,51L114,52 M108,52L109,53 M109,52L110,53 M110,52L111,53 M113,52L114,53 M114,52L115,53 M109,53L110,54 M110,53L111,54 M114,53L115,54 M115,53L116,54 M110,54L111,55 M111,54L112,55 M114,54L115,55 M115,54L116,55 M116,54L117,55 M110,55L111,56 M111,55L112,56 M112,55L113,56 M115,55L116,56 M116,55L117,56 M117,55L118,56 M111,56L112,57 M112,56L113,57 M116,56L117,57 M117,56L118,57 M118,56L119,57 M112,57L113,58 M113,57L114,58 M117,57L118,58 M118,57L119,58 M119,57L120,58 M112,58L113,59 M113,58L114,59 M114,58L115,59 M118,58L119,59 M119,58L120,59 M113,59L114,60 M114,59L115,60 M119,59L120,60 M120,59L121,60 M113,60L114,61 M114,60L115,61 M115,60L116,61 M120,60L121,61 M121,60L122,61 M114,61L115,62 M115,61L116,62 M120,61L121,62 M121,61L122,62 M122,61L123,62 M115,62L116,63 M116,62L117,63 M121,62L122,63 M122,62L123,63 M123,62L124,63 M115,63L116,64 M116,63L117,64 M117,63L118,64 M122,63L123,64 M123,63L124,64 M124,63L125,64 M116,64L117,65 M117,64L118,65 M123,64L124,65 M124,64L125,65 M125,64L126,65 M117,65L118,66 M118,65L119,66 M124,65L125,66 M125,65L126,66 M126,65L127,66 M117,66L118,67 M118,66L119,67 M119,66L120,67 M125,66L126,67 M126,66L127,67 M127,66L128,67 M118,67L119,68 M119,67L120,68 M126,67L127,68 M127,67L128,68 M128,67L129,68 M375,67L376,68 M376,67L377,68 M377,67L378,68 M378,67L379,68 M118,68L119,69 M119,68L120,69 M120,68L121,69 M127,68L128,69 M128,68L129,69 M129,68L130,69 M373,68L374,69 M374,68L375,69 M375,68L376,69 M376,68L377,69 M377,68L378,69 M378,68L379,69 M119,69L120,70 M120,69L121,70 M128,69L129,70 M129,69L130,70 M130,69L131,70 M372,69L373,70 M373,69L374,70 M374,69L375,70 M375,69L376,70 M377,69L378,70 M378,69L379,70 M120,70L121,71 M121,70L122,71 M129,70L130,71 M130,70L131,71 M131,70L132,71 M370,70L371,71 M371,70L372,71 M372,70L373,71 M373,70L374,71 M377,70L378,71 M378,70L379,71 M120,71L121,72 M121,71L122,72 M122,71L123,72 M130,71L131,72 M131,71L132,72 M132,71L133,72 M369,71L370,72 M370,71L371,72 M371,71L372,72 M121,72L122,73 M122,72L123,73 M131,72L132,73 M132,72L133,73 M133,72L134,73 M367,72L368,73 M368,72L369,73 M369,72L370,73 M370,72L371,73 M122,73L123,74 M123,73L124,74 M132,73L133,74 M133,73L134,74 M134,73L135,74 M366,73L367,74 M367,73L368,74 M368,73L369,74 M369,73L370,74 M122,74L123,75 M123,74L124,75 M124,74L125,75 M133,74L134,75 M134,74L135,75 M135,74L136,75 M364,74L365,75 M365,74L366,75 M366,74L367,75 M367,74L368,75 M123,75L124,76 M124,75L125,76 M134,75L135,76 M135,75L136,76 M136,75L137,76 M362,75L363,76 M363,75L364,76 M364,75L365,76 M365,75L366,76 M124,76L125,77 M125,76L126,77 M135,76L136,77 M136,76L137,77 M137,76L138,77 M360,76L361,77 M361,76L362,77 M362,76L363,77 M363,76L364,77 M124,77L125,78 M125,77L126,78 M126,77L127,78 M136,77L137,78 M137,77L138,78 M138,77L139,78 M358,77L359,78 M359,77L360,78 M360,77L361,78 M361,77L362,78 M362,77L363,78 M125,78L126,79 M126,78L127,79 M137,78L138,79 M138,78L139,79 M139,78L140,79 M358,78L359,79 M359,78L360,79 M360,78L361,79 M125,79L126,80 M126,79L127,80 M127,79L128,80 M138,79L139,80 M139,79L140,80 M140,79L141,80 M357,79L358,80 M358,79L359,80 M126,80L127,81 M127,80L128,81 M139,80L140,81 M140,80L141,81 M141,80L142,81 M356,80L357,81 M357,80L358,81 M127,81L128,82 M128,81L129,82 M140,81L141,82 M141,81L142,82 M142,81L143,82 M355,81L356,82 M356,81L357,82 M127,82L128,83 M128,82L129,83 M129,82L130,83 M141,82L142,83 M142,82L143,83 M354,82L355,83 M355,82L356,83 M128,83L129,84 M129,83L130,84 M142,83L143,84 M143,83L144,84 M353,83L354,84 M354,83L355,84 M129,84L130,85 M130,84L131,85 M143,84L144,85 M144,84L145,85 M352,84L353,85 M353,84L354,85 M129,85L130,86 M130,85L131,86 M131,85L132,86 M144,85L145,86 M145,85L146,86 M351,85L352,86 M352,85L353,86 M130,86L131,87 M131,86L132,87 M145,86L146,87 M146,86L147,87 M350,86L351,87 M351,86L352,87 M130,87L131,88 M131,87L132,88 M132,87L133,88 M146,87L147,88 M147,87L148,88 M349,87L350,88 M350,87L351,88 M131,88L132,89 M132,88L133,89 M147,88L148,89 M148,88L149,89 M348,88L349,89 M349,88L350,89 M350,88L351,89 M132,89L133,90 M133,89L134,90 M147,89L148,90 M148,89L149,90 M149,89L150,90 M347,89L348,90 M348,89L349,90 M349,89L350,90 M132,90L133,91 M133,90L134,91 M134,90L135,91 M148,90L149,91 M149,90L150,91 M150,90L151,91 M346,90L347,91 M347,90L348,91 M348,90L349,91 M133,91L134,92 M134,91L135,92 M149,91L150,92 M150,91L151,92 M151,91L152,92 M345,91L346,92 M346,91L347,92 M347,91L348,92 M134,92L135,93 M135,92L136,93 M150,92L151,93 M151,92L152,93 M152,92L153,93 M344,92L345,93 M345,92L346,93 M346,92L347,93 M134,93L135,94 M135,93L136,94 M136,93L137,94 M151,93L152,94 M152,93L153,94 M153,93L154,94 M343,93L344,94 M344,93L345,94 M345,93L346,94 M135,94L136,95 M136,94L137,95 M153,94L154,95 M154,94L155,95 M342,94L343,95 M343,94L344,95 M344,94L345,95 M136,95L137,96 M137,95L138,96 M154,95L155,96 M155,95L156,96 M156,95L157,96 M342,95L343,96 M343,95L344,96 M136,96L137,97 M137,96L138,97 M138,96L139,97 M155,96L156,97 M156,96L157,97 M157,96L158,97 M341,96L342,97 M342,96L343,97 M137,97L138,98 M138,97L139,98 M156,97L157,98 M157,97L158,98 M158,97L159,98 M340,97L341,98 M341,97L342,98 M342,97L343,98 M137,98L138,99 M138,98L139,99 M139,98L140,99 M157,98L158,99 M158,98L159,99 M159,98L160,99 M339,98L340,99 M340,98L341,99 M341,98L342,99 M138,99L139,100 M139,99L140,100 M158,99L159,100 M159,99L160,100 M160,99L161,100 M338,99L339,100 M339,99L340,100 M340,99L341,100 M139,100L140,101 M140,100L141,101 M159,100L160,101 M160,100L161,101 M161,100L162,101 M337,100L338,101 M338,100L339,101 M339,100L340,101 M139,101L140,102 M140,101L141,102 M160,101L161,102 M161,101L162,102 M162,101L163,102 M336,101L337,102 M337,101L338,102 M338,101L339,102 M140,102L141,103 M141,102L142,103 M161,102L162,103 M162,102L163,103 M163,102L164,103 M335,102L336,103 M336,102L337,103 M337,102L338,103 M140,103L141,104 M141,103L142,104 M142,103L143,104 M162,103L163,104 M163,103L164,104 M164,103L165,104 M334,103L335,104 M335,103L336,104 M336,103L337,104 M141,104L142,105 M142,104L143,105 M163,104L164,105 M164,104L165,105 M165,104L166,105 M334,104L335,105 M335,104L336,105 M141,105L142,106 M142,105L143,106 M143,105L144,106 M165,105L166,106 M166,105L167,106 M333,105L334,106 M334,105L335,106 M142,106L143,107 M143,106L144,107 M166,106L167,107 M167,106L168,107 M168,106L169,107 M332,106L333,107 M333,106L334,107 M334,106L335,107 M143,107L144,108 M144,107L145,108 M167,107L168,108 M168,107L169,108 M169,107L170,108 M331,107L332,108 M332,107L333,108 M333,107L334,108 M143,108L144,109 M144,108L145,109 M168,108L169,109 M169,108L170,109 M170,108L171,109 M330,108L331,109 M331,108L332,109 M332,108L333,109 M144,109L145,110 M145,109L146,110 M169,109L170,110 M170,109L171,110 M171,109L172,110 M329,109L330,110 M330,109L331,110 M331,109L332,110 M144,110L145,111 M145,110L146,111 M146,110L147,111 M170,110L171,111 M171,110L172,111 M172,110L173,111 M328,110L329,111 M329,110L330,111 M330,110L331,111 M145,111L146,112 M146,111L147,112 M171,111L172,112 M172,111L173,112 M173,111L174,112 M327,111L328,112 M328,111L329,112 M329,111L330,112 M145,112L146,113 M146,112L147,113 M147,112L148,113 M172,112L173,113 M173,112L174,113 M174,112L175,113 M326,112L327,113 M327,112L328,113 M328,112L329,113 M146,113L147,114 M147,113L148,114 M173,113L174,114 M174,113L175,114 M175,113L176,114 M326,113L327,114 M327,113L328,114 M146,114L147,115 M147,114L148,115 M148,114L149,115 M174,114L175,115 M175,114L176,115 M176,114L177,115 M325,114L326,115 M326,114L327,115 M147,115L148,116 M148,115L149,116 M175,115L176,116 M176,115L177,116 M177,115L178,116 M324,115L325,116 M325,115L326,116 M326,115L327,116 M148,116L149,117 M149,116L150,117 M177,116L178,117 M178,116L179,117 M323,116L324,117 M324,116L325,117 M325,116L326,117 M148,117L149,118 M149,117L150,118 M178,117L179,118 M179,117L180,118 M180,117L181,118 M322,117L323,118 M323,117L324,118 M324,117L325,118 M709,117L710,118 M710,117L711,118 M711,117L712,118 M712,117L713,118 M713,117L714,118 M714,117L715,118 M715,117L716,118 M716,117L717,118 M717,117L718,118 M718,117L719,118 M719,117L720,118 M720,117L721,118 M721,117L722,118 M722,117L723,118 M723,117L724,118 M724,117L725,118 M725,117L726,118 M726,117L727,118 M727,117L728,118 M728,117L729,118 M729,117L730,118 M730,117L731,118 M731,117L732,118 M732,117L733,118 M733,117L734,118 M734,117L735,118 M735,117L736,118 M149,118L150,119 M150,118L151,119 M179,118L180,119 M180,118L181,119 M181,118L182,119 M321,118L322,119 M322,118L323,119 M323,118L324,119 M704,118L705,119 M705,118L706,119 M706,118L707,119 M707,118L708,119 M708,118L709,119 M709,118L710,119 M710,118L711,119 M711,118L712,119 M712,118L713,119 M713,118L714,119 M714,118L715,119 M715,118L716,119 M716,118L717,119 M717,118L718,119 M718,118L719,119 M719,118L720,119 M720,118L721,119 M721,118L722,119 M722,118L723,119 M723,118L724,119 M724,118L725,119 M725,118L726,119 M726,118L727,119 M727,118L728,119 M728,118L729,119 M729,118L730,119 M730,118L731,119 M731,118L732,119 M732,118L733,119 M733,118L734,119 M734,118L735,119 M735,118L736,119 M736,118L737,119 M737,118L738,119 M738,118L739,119 M739,118L740,119 M740,118L741,119 M149,119L150,120 M150,119L151,120 M151,119L152,120 M180,119L181,120 M181,119L182,120 M182,119L183,120 M321,119L322,120 M322,119L323,120 M698,119L699,120 M699,119L700,120 M700,119L701,120 M701,119L702,120 M702,119L703,120 M703,119L704,120 M704,119L705,120 M705,119L706,120 M706,119L707,120 M707,119L708,120 M708,119L709,120 M735,119L736,120 M736,119L737,120 M737,119L738,120 M738,119L739,120 M739,119L740,120 M740,119L741,120 M150,120L151,121 M151,120L152,121 M181,120L182,121 M182,120L183,121 M183,120L184,121 M320,120L321,121 M321,120L322,121 M693,120L694,121 M694,120L695,121 M695,120L696,121 M696,120L697,121 M697,120L698,121 M698,120L699,121 M699,120L700,121 M700,120L701,121 M701,120L702,121 M702,120L703,121 M703,120L704,121 M150,121L151,122 M151,121L152,122 M152,121L153,122 M182,121L183,122 M183,121L184,122 M184,121L185,122 M319,121L320,122 M320,121L321,122 M321,121L322,122 M688,121L689,122 M689,121L690,122 M690,121L691,122 M691,121L692,122 M692,121L693,122 M693,121L694,122 M694,121L695,122 M695,121L696,122 M696,121L697,122 M697,121L698,122 M698,121L699,122 M151,122L152,123 M152,122L153,123 M183,122L184,123 M184,122L185,123 M185,122L186,123 M318,122L319,123 M319,122L320,123 M320,122L321,123 M683,122L684,123 M684,122L685,123 M685,122L686,123 M686,122L687,123 M687,122L688,123 M688,122L689,123 M689,122L690,123 M690,122L691,123 M691,122L692,123 M692,122L693,123 M693,122L694,123 M152,123L153,124 M153,123L154,124 M184,123L185,124 M185,123L186,124 M186,123L187,124 M317,123L318,124 M318,123L319,124 M319,123L320,124 M678,123L679,124 M679,123L680,124 M680,123L681,124 M681,123L682,124 M682,123L683,124 M683,123L684,124 M684,123L685,124 M685,123L686,124 M686,123L687,124 M687,123L688,124 M688,123L689,124 M152,124L153,125 M153,124L154,125 M185,124L186,125 M186,124L187,125 M187,124L188,125 M317,124L318,125 M318,124L319,125 M674,124L675,125 M675,124L676,125 M676,124L677,125 M677,124L678,125 M678,124L679,125 M679,124L680,125 M680,124L681,125 M681,124L682,125 M682,124L683,125 M683,124L684,125 M153,125L154,126 M154,125L155,126 M186,125L187,126 M187,125L188,126 M188,125L189,126 M189,125L190,126 M316,125L317,126 M317,125L318,126 M669,125L670,126 M670,125L671,126 M671,125L672,126 M672,125L673,126 M673,125L674,126 M674,125L675,126 M675,125L676,126 M676,125L677,126 M677,125L678,126 M678,125L679,126 M153,126L154,127 M154,126L155,127 M155,126L156,127 M188,126L189,127 M189,126L190,127 M190,126L191,127 M315,126L316,127 M316,126L317,127 M664,126L665,127 M665,126L666,127 M666,126L667,127 M667,126L668,127 M668,126L669,127 M669,126L670,127 M670,126L671,127 M671,126L672,127 M672,126L673,127 M673,126L674,127 M154,127L155,128 M155,127L156,128 M189,127L190,128 M190,127L191,128 M191,127L192,128 M314,127L315,128 M315,127L316,128 M316,127L317,128 M659,127L660,128 M660,127L661,128 M661,127L662,128 M662,127L663,128 M663,127L664,128 M664,127L665,128 M665,127L666,128 M666,127L667,128 M667,127L668,128 M668,127L669,128 M154,128L155,129 M155,128L156,129 M156,128L157,129 M190,128L191,129 M191,128L192,129 M192,128L193,129 M193,128L194,129 M313,128L314,129 M314,128L315,129 M315,128L316,129 M654,128L655,129 M655,128L656,129 M656,128L657,129 M657,128L658,129 M658,128L659,129 M659,128L660,129 M660,128L661,129 M661,128L662,129 M662,128L663,129 M663,128L664,129 M155,129L156,130 M156,129L157,130 M192,129L193,130 M193,129L194,130 M194,129L195,130 M312,129L313,130 M313,129L314,130 M314,129L315,130 M649,129L650,130 M650,129L651,130 M651,129L652,130 M652,129L653,130 M653,129L654,130 M654,129L655,130 M655,129L656,130 M656,129L657,130 M657,129L658,130 M658,129L659,130 M659,129L660,130 M155,130L156,131 M156,130L157,131 M157,130L158,131 M193,130L194,131 M194,130L195,131 M195,130L196,131 M312,130L313,131 M313,130L314,131 M645,130L646,131 M646,130L647,131 M647,130L648,131 M648,130L649,131 M649,130L650,131 M650,130L651,131 M651,130L652,131 M652,130L653,131 M653,130L654,131 M654,130L655,131 M156,131L157,132 M157,131L158,132 M194,131L195,132 M195,131L196,132 M196,131L197,132 M197,131L198,132 M311,131L312,132 M312,131L313,132 M641,131L642,132 M642,131L643,132 M643,131L644,132 M644,131L645,132 M645,131L646,132 M646,131L647,132 M647,131L648,132 M648,131L649,132 M649,131L650,132 M157,132L158,133 M158,132L159,133 M196,132L197,133 M197,132L198,133 M198,132L199,133 M310,132L311,133 M311,132L312,133 M637,132L638,133 M638,132L639,133 M639,132L640,133 M640,132L641,133 M641,132L642,133 M642,132L643,133 M643,132L644,133 M644,132L645,133 M157,133L158,134 M158,133L159,134 M197,133L198,134 M198,133L199,134 M199,133L200,134 M309,133L310,134 M310,133L311,134 M311,133L312,134 M633,133L634,134 M634,133L635,134 M635,133L636,134 M636,133L637,134 M637,133L638,134 M638,133L639,134 M639,133L640,134 M640,133L641,134 M158,134L159,135 M159,134L160,135 M198,134L199,135 M199,134L200,135 M200,134L201,135 M308,134L309,135 M309,134L310,135 M310,134L311,135 M628,134L629,135 M629,134L630,135 M630,134L631,135 M631,134L632,135 M632,134L633,135 M633,134L634,135 M634,134L635,135 M635,134L636,135 M636,134L637,135 M158,135L159,136 M159,135L160,136 M199,135L200,136 M200,135L201,136 M201,135L202,136 M202,135L203,136 M307,135L308,136 M308,135L309,136 M309,135L310,136 M623,135L624,136 M624,135L625,136 M625,135L626,136 M626,135L627,136 M627,135L628,136 M628,135L629,136 M629,135L630,136 M630,135L631,136 M631,135L632,136 M632,135L633,136 M159,136L160,137 M160,136L161,137 M201,136L202,137 M202,136L203,137 M203,136L204,137 M306,136L307,137 M307,136L308,137 M308,136L309,137 M617,136L618,137 M618,136L619,137 M619,136L620,137 M620,136L621,137 M621,136L622,137 M622,136L623,137 M623,136L624,137 M624,136L625,137 M625,136L626,137 M626,136L627,137 M627,136L628,137 M159,137L160,138 M160,137L161,138 M202,137L203,138 M203,137L204,138 M204,137L205,138 M305,137L306,138 M306,137L307,138 M307,137L308,138 M612,137L613,138 M613,137L614,138 M614,137L615,138 M615,137L616,138 M616,137L617,138 M617,137L618,138 M618,137L619,138 M619,137L620,138 M620,137L621,138 M621,137L622,138 M622,137L623,138 M160,138L161,139 M161,138L162,139 M203,138L204,139 M204,138L205,139 M205,138L206,139 M206,138L207,139 M304,138L305,139 M305,138L306,139 M306,138L307,139 M607,138L608,139 M608,138L609,139 M609,138L610,139 M610,138L611,139 M611,138L612,139 M612,138L613,139 M613,138L614,139 M614,138L615,139 M615,138L616,139 M616,138L617,139 M160,139L161,140 M161,139L162,140 M205,139L206,140 M206,139L207,140 M207,139L208,140 M303,139L304,140 M304,139L305,140 M305,139L306,140 M602,139L603,140 M603,139L604,140 M604,139L605,140 M605,139L606,140 M606,139L607,140 M607,139L608,140 M608,139L609,140 M609,139L610,140 M610,139L611,140 M611,139L612,140 M161,140L162,141 M162,140L163,141 M206,140L207,141 M207,140L208,141 M208,140L209,141 M302,140L303,141 M303,140L304,141 M304,140L305,141 M597,140L598,141 M598,140L599,141 M599,140L600,141 M600,140L601,141 M601,140L602,141 M602,140L603,141 M603,140L604,141 M604,140L605,141 M605,140L606,141 M606,140L607,141 M161,141L162,142 M162,141L163,142 M207,141L208,142 M208,141L209,142 M209,141L210,142 M210,141L211,142 M301,141L302,142 M302,141L303,142 M303,141L304,142 M593,141L594,142 M594,141L595,142 M595,141L596,142 M596,141L597,142 M597,141L598,142 M598,141L599,142 M599,141L600,142 M600,141L601,142 M601,141L602,142 M162,142L163,143 M163,142L164,143 M209,142L210,143 M210,142L211,143 M211,142L212,143 M300,142L301,143 M301,142L302,143 M302,142L303,143 M588,142L589,143 M589,142L590,143 M590,142L591,143 M591,142L592,143 M592,142L593,143 M593,142L594,143 M594,142L595,143 M595,142L596,143 M596,142L597,143 M597,142L598,143 M162,143L163,144 M163,143L164,144 M210,143L211,144 M211,143L212,144 M212,143L213,144 M299,143L300,144 M300,143L301,144 M301,143L302,144 M583,143L584,144 M584,143L585,144 M585,143L586,144 M586,143L587,144 M587,143L588,144 M588,143L589,144 M589,143L590,144 M590,143L591,144 M591,143L592,144 M592,143L593,144 M163,144L164,145 M164,144L165,145 M211,144L212,145 M212,144L213,145 M213,144L214,145 M214,144L215,145 M298,144L299,145 M299,144L300,145 M300,144L301,145 M577,144L578,145 M578,144L579,145 M579,144L580,145 M580,144L581,145 M581,144L582,145 M582,144L583,145 M583,144L584,145 M584,144L585,145 M585,144L586,145 M586,144L587,145 M587,144L588,145 M163,145L164,146 M164,145L165,146 M213,145L214,146 M214,145L215,146 M215,145L216,146 M297,145L298,146 M298,145L299,146 M299,145L300,146 M571,145L572,146 M572,145L573,146 M573,145L574,146 M574,145L575,146 M575,145L576,146 M576,145L577,146 M577,145L578,146 M578,145L579,146 M579,145L580,146 M580,145L581,146 M581,145L582,146 M582,145L583,146 M164,146L165,147 M165,146L166,147 M214,146L215,147 M215,146L216,147 M216,146L217,147 M297,146L298,147 M298,146L299,147 M565,146L566,147 M566,146L567,147 M567,146L568,147 M568,146L569,147 M569,146L570,147 M570,146L571,147 M571,146L572,147 M572,146L573,147 M573,146L574,147 M574,146L575,147 M575,146L576,147 M576,146L577,147 M164,147L165,148 M165,147L166,148 M166,147L167,148 M215,147L216,148 M216,147L217,148 M217,147L218,148 M218,147L219,148 M296,147L297,148 M297,147L298,148 M560,147L561,148 M561,147L562,148 M562,147L563,148 M563,147L564,148 M564,147L565,148 M565,147L566,148 M566,147L567,148 M567,147L568,148 M568,147L569,148 M569,147L570,148 M570,147L571,148 M165,148L166,149 M166,148L167,149 M217,148L218,149 M218,148L219,149 M219,148L220,149 M295,148L296,149 M296,148L297,149 M555,148L556,149 M556,148L557,149 M557,148L558,149 M558,148L559,149 M559,148L560,149 M560,148L561,149 M561,148L562,149 M562,148L563,149 M563,148L564,149 M564,148L565,149 M165,149L166,150 M166,149L167,150 M167,149L168,150 M218,149L219,150 M219,149L220,150 M220,149L221,150 M294,149L295,150 M295,149L296,150 M296,149L297,150 M550,149L551,150 M551,149L552,150 M552,149L553,150 M553,149L554,150 M554,149L555,150 M555,149L556,150 M556,149L557,150 M557,149L558,150 M558,149L559,150 M559,149L560,150 M166,150L167,151 M167,150L168,151 M219,150L220,151 M220,150L221,151 M221,150L222,151 M222,150L223,151 M293,150L294,151 M294,150L295,151 M295,150L296,151 M546,150L547,151 M547,150L548,151 M548,150L549,151 M549,150L550,151 M550,150L551,151 M551,150L552,151 M552,150L553,151 M553,150L554,151 M554,150L555,151 M166,151L167,152 M167,151L168,152 M168,151L169,152 M221,151L222,152 M222,151L223,152 M223,151L224,152 M292,151L293,152 M293,151L294,152 M294,151L295,152 M541,151L542,152 M542,151L543,152 M543,151L544,152 M544,151L545,152 M545,151L546,152 M546,151L547,152 M547,151L548,152 M548,151L549,152 M549,151L550,152 M550,151L551,152 M167,152L168,153 M168,152L169,153 M222,152L223,153 M223,152L224,153 M224,152L225,153 M292,152L293,153 M293,152L294,153 M536,152L537,153 M537,152L538,153 M538,152L539,153 M539,152L540,153 M540,152L541,153 M541,152L542,153 M542,152L543,153 M543,152L544,153 M544,152L545,153 M545,152L546,153 M167,153L168,154 M168,153L169,154 M169,153L170,154 M223,153L224,154 M224,153L225,154 M225,153L226,154 M226,153L227,154 M291,153L292,154 M292,153L293,154 M531,153L532,154 M532,153L533,154 M533,153L534,154 M534,153L535,154 M535,153L536,154 M536,153L537,154 M537,153L538,154 M538,153L539,154 M539,153L540,154 M540,153L541,154 M168,154L169,155 M169,154L170,155 M225,154L226,155 M226,154L227,155 M227,154L228,155 M290,154L291,155 M291,154L292,155 M292,154L293,155 M526,154L527,155 M527,154L528,155 M528,154L529,155 M529,154L530,155 M530,154L531,155 M531,154L532,155 M532,154L533,155 M533,154L534,155 M534,154L535,155 M535,154L536,155 M168,155L169,156 M169,155L170,156 M170,155L171,156 M226,155L227,156 M227,155L228,156 M228,155L229,156 M289,155L290,156 M290,155L291,156 M291,155L292,156 M521,155L522,156 M522,155L523,156 M523,155L524,156 M524,155L525,156 M525,155L526,156 M526,155L527,156 M527,155L528,156 M528,155L529,156 M529,155L530,156 M530,155L531,156 M169,156L170,157 M170,156L171,157 M227,156L228,157 M228,156L229,157 M229,156L230,157 M230,156L231,157 M288,156L289,157 M289,156L290,157 M290,156L291,157 M516,156L517,157 M517,156L518,157 M518,156L519,157 M519,156L520,157 M520,156L521,157 M521,156L522,157 M522,156L523,157 M523,156L524,157 M524,156L525,157 M525,156L526,157 M169,157L170,158 M170,157L171,158 M171,157L172,158 M229,157L230,158 M230,157L231,158 M231,157L232,158 M232,157L233,158 M288,157L289,158 M289,157L290,158 M510,157L511,158 M511,157L512,158 M512,157L513,158 M513,157L514,158 M514,157L515,158 M515,157L516,158 M516,157L517,158 M517,157L518,158 M518,157L519,158 M519,157L520,158 M520,157L521,158 M170,158L171,159 M171,158L172,159 M231,158L232,159 M232,158L233,159 M233,158L234,159 M287,158L288,159 M288,158L289,159 M505,158L506,159 M506,158L507,159 M507,158L508,159 M508,158L509,159 M509,158L510,159 M510,158L511,159 M511,158L512,159 M512,158L513,159 M513,158L514,159 M514,158L515,159 M515,158L516,159 M170,159L171,160 M171,159L172,160 M172,159L173,160 M232,159L233,160 M233,159L234,160 M234,159L235,160 M235,159L236,160 M286,159L287,160 M287,159L288,160 M288,159L289,160 M499,159L500,160 M500,159L501,160 M501,159L502,160 M502,159L503,160 M503,159L504,160 M504,159L505,160 M505,159L506,160 M506,159L507,160 M507,159L508,160 M508,159L509,160 M509,159L510,160 M171,160L172,161 M172,160L173,161 M234,160L235,161 M235,160L236,161 M236,160L237,161 M237,160L238,161 M285,160L286,161 M286,160L287,161 M287,160L288,161 M493,160L494,161 M494,160L495,161 M495,160L496,161 M496,160L497,161 M497,160L498,161 M498,160L499,161 M499,160L500,161 M500,160L501,161 M501,160L502,161 M502,160L503,161 M503,160L504,161 M504,160L505,161 M171,161L172,162 M172,161L173,162 M236,161L237,162 M237,161L238,162 M238,161L239,162 M239,161L240,162 M284,161L285,162 M285,161L286,162 M286,161L287,162 M488,161L489,162 M489,161L490,162 M490,161L491,162 M491,161L492,162 M492,161L493,162 M493,161L494,162 M494,161L495,162 M495,161L496,162 M496,161L497,162 M497,161L498,162 M498,161L499,162 M172,162L173,163 M173,162L174,163 M237,162L238,163 M238,162L239,163 M239,162L240,163 M240,162L241,163 M284,162L285,163 M285,162L286,163 M483,162L484,163 M484,162L485,163 M485,162L486,163 M486,162L487,163 M487,162L488,163 M488,162L489,163 M489,162L490,163 M490,162L491,163 M491,162L492,163 M492,162L493,163 M172,163L173,164 M173,163L174,164 M239,163L240,164 M240,163L241,164 M241,163L242,164 M242,163L243,164 M283,163L284,164 M284,163L285,164 M479,163L480,164 M480,163L481,164 M481,163L482,164 M482,163L483,164 M483,163L484,164 M484,163L485,164 M485,163L486,164 M486,163L487,164 M487,163L488,164 M173,164L174,165 M174,164L175,165 M241,164L242,165 M242,164L243,165 M243,164L244,165 M244,164L245,165 M282,164L283,165 M283,164L284,165 M284,164L285,165 M476,164L477,165 M477,164L478,165 M478,164L479,165 M479,164L480,165 M480,164L481,165 M481,164L482,165 M482,164L483,165 M173,165L174,166 M174,165L175,166 M243,165L244,166 M244,165L245,166 M245,165L246,166 M246,165L247,166 M281,165L282,166 M282,165L283,166 M283,165L284,166 M472,165L473,166 M473,165L474,166 M474,165L475,166 M475,165L476,166 M476,165L477,166 M477,165L478,166 M478,165L479,166 M479,165L480,166 M173,166L174,167 M174,166L175,167 M175,166L176,167 M244,166L245,167 M245,166L246,167 M246,166L247,167 M247,166L248,167 M280,166L281,167 M281,166L282,167 M282,166L283,167 M469,166L470,167 M470,166L471,167 M471,166L472,167 M472,166L473,167 M473,166L474,167 M474,166L475,167 M475,166L476,167 M174,167L175,168 M175,167L176,168 M246,167L247,168 M247,167L248,168 M248,167L249,168 M249,167L250,168 M280,167L281,168 M281,167L282,168 M465,167L466,168 M466,167L467,168 M467,167L468,168 M468,167L469,168 M469,167L470,168 M470,167L471,168 M471,167L472,168 M472,167L473,168 M174,168L175,169 M175,168L176,169 M248,168L249,169 M249,168L250,169 M250,168L251,169 M251,168L252,169 M279,168L280,169 M280,168L281,169 M462,168L463,169 M463,168L464,169 M464,168L465,169 M465,168L466,169 M466,168L467,169 M467,168L468,169 M468,168L469,169 M175,169L176,170 M176,169L177,170 M249,169L250,170 M250,169L251,170 M251,169L252,170 M252,169L253,170 M278,169L279,170 M279,169L280,170 M458,169L459,170 M459,169L460,170 M460,169L461,170 M461,169L462,170 M462,169L463,170 M463,169L464,170 M464,169L465,170 M465,169L466,170 M175,170L176,171 M176,170L177,171 M251,170L252,171 M252,170L253,171 M253,170L254,171 M254,170L255,171 M277,170L278,171 M278,170L279,171 M279,170L280,171 M454,170L455,171 M455,170L456,171 M456,170L457,171 M457,170L458,171 M458,170L459,171 M459,170L460,171 M460,170L461,171 M461,170L462,171 M175,171L176,172 M176,171L177,172 M177,171L178,172 M253,171L254,172 M254,171L255,172 M255,171L256,172 M256,171L257,172 M276,171L277,172 M277,171L278,172 M278,171L279,172 M447,171L448,172 M448,171L449,172 M449,171L450,172 M450,171L451,172 M451,171L452,172 M452,171L453,172 M453,171L454,172 M454,171L455,172 M455,171L456,172 M456,171L457,172 M457,171L458,172 M458,171L459,172 M176,172L177,173 M177,172L178,173 M255,172L256,173 M256,172L257,173 M257,172L258,173 M258,172L259,173 M275,172L276,173 M276,172L277,173 M277,172L278,173 M440,172L441,173 M441,172L442,173 M442,172L443,173 M443,172L444,173 M444,172L445,173 M445,172L446,173 M446,172L447,173 M447,172L448,173 M448,172L449,173 M449,172L450,173 M450,172L451,173 M451,172L452,173 M452,172L453,173 M453,172L454,173 M176,173L177,174 M177,173L178,174 M256,173L257,174 M257,173L258,174 M258,173L259,174 M259,173L260,174 M274,173L275,174 M275,173L276,174 M276,173L277,174 M433,173L434,174 M434,173L435,174 M435,173L436,174 M436,173L437,174 M437,173L438,174 M438,173L439,174 M439,173L440,174 M440,173L441,174 M441,173L442,174 M442,173L443,174 M443,173L444,174 M444,173L445,174 M445,173L446,174 M446,173L447,174 M177,174L178,175 M178,174L179,175 M258,174L259,175 M259,174L260,175 M260,174L261,175 M261,174L262,175 M273,174L274,175 M274,174L275,175 M275,174L276,175 M428,174L429,175 M429,174L430,175 M430,174L431,175 M431,174L432,175 M432,174L433,175 M433,174L434,175 M434,174L435,175 M435,174L436,175 M436,174L437,175 M437,174L438,175 M438,174L439,175 M439,174L440,175 M177,175L178,176 M178,175L179,176 M260,175L261,176 M261,175L262,176 M262,175L263,176 M263,175L264,176 M272,175L273,176 M273,175L274,176 M274,175L275,176 M423,175L424,176 M424,175L425,176 M425,175L426,176 M426,175L427,176 M427,175L428,176 M428,175L429,176 M429,175L430,176 M430,175L431,176 M431,175L432,176 M432,175L433,176 M433,175L434,176 M177,176L178,177 M178,176L179,177 M179,176L180,177 M261,176L262,177 M262,176L263,177 M263,176L264,177 M264,176L265,177 M271,176L272,177 M272,176L273,177 M273,176L274,177 M419,176L420,177 M420,176L421,177 M421,176L422,177 M422,176L423,177 M423,176L424,177 M424,176L425,177 M425,176L426,177 M426,176L427,177 M427,176L428,177 M178,177L179,178 M179,177L180,178 M263,177L264,178 M264,177L265,178 M265,177L266,178 M266,177L267,178 M270,177L271,178 M271,177L272,178 M272,177L273,178 M414,177L415,178 M415,177L416,178 M416,177L417,178 M417,177L418,178 M418,177L419,178 M419,177L420,178 M420,177L421,178 M421,177L422,178 M422,177L423,178 M178,178L179,179 M179,178L180,179 M265,178L266,179 M266,178L267,179 M267,178L268,179 M268,178L269,179 M269,178L270,179 M270,178L271,179 M271,178L272,179 M410,178L411,179 M411,178L412,179 M412,178L413,179 M413,178L414,179 M414,178L415,179 M415,178L416,179 M416,178L417,179 M417,178L418,179 M418,178L419,179 M179,179L180,180 M180,179L181,180 M267,179L268,180 M268,179L269,180 M269,179L270,180 M270,179L271,180 M405,179L406,180 M406,179L407,180 M407,179L408,180 M408,179L409,180 M409,179L410,180 M410,179L411,180 M411,179L412,180 M412,179L413,180 M413,179L414,180 M179,180L180,181 M180,180L181,181 M267,180L268,181 M268,180L269,181 M269,180L270,181 M270,180L271,181 M271,180L272,181 M272,180L273,181 M401,180L402,181 M402,180L403,181 M403,180L404,181 M404,180L405,181 M405,180L406,181 M406,180L407,181 M407,180L408,181 M408,180L409,181 M409,180L410,181 M180,181L181,182 M181,181L182,182 M267,181L268,182 M268,181L269,182 M270,181L271,182 M271,181L272,182 M272,181L273,182 M273,181L274,182 M274,181L275,182 M398,181L399,182 M399,181L400,182 M400,181L401,182 M401,181L402,182 M402,181L403,182 M403,181L404,182 M404,181L405,182 M180,182L181,183 M181,182L182,183 M266,182L267,183 M267,182L268,183 M272,182L273,183 M273,182L274,183 M274,182L275,183 M275,182L276,183 M276,182L277,183 M395,182L396,183 M396,182L397,183 M397,182L398,183 M398,182L399,183 M399,182L400,183 M400,182L401,183 M180,183L181,184 M181,183L182,184 M182,183L183,184 M265,183L266,184 M266,183L267,184 M275,183L276,184 M276,183L277,184 M277,183L278,184 M278,183L279,184 M279,183L280,184 M392,183L393,184 M393,183L394,184 M394,183L395,184 M395,183L396,184 M396,183L397,184 M397,183L398,184 M181,184L182,185 M182,184L183,185 M264,184L265,185 M265,184L266,185 M266,184L267,185 M277,184L278,185 M278,184L279,185 M279,184L280,185 M280,184L281,185 M281,184L282,185 M388,184L389,185 M389,184L390,185 M390,184L391,185 M391,184L392,185 M392,184L393,185 M393,184L394,185 M394,184L395,185 M181,185L182,186 M182,185L183,186 M263,185L264,186 M264,185L265,186 M265,185L266,186 M279,185L280,186 M280,185L281,186 M281,185L282,186 M282,185L283,186 M283,185L284,186 M385,185L386,186 M386,185L387,186 M387,185L388,186 M388,185L389,186 M389,185L390,186 M390,185L391,186 M391,185L392,186 M182,186L183,187 M183,186L184,187 M262,186L263,187 M263,186L264,187 M264,186L265,187 M282,186L283,187 M283,186L284,187 M284,186L285,187 M285,186L286,187 M286,186L287,187 M381,186L382,187 M382,186L383,187 M383,186L384,187 M384,186L385,187 M385,186L386,187 M386,186L387,187 M387,186L388,187 M388,186L389,187 M182,187L183,188 M183,187L184,188 M262,187L263,188 M263,187L264,188 M284,187L285,188 M285,187L286,188 M286,187L287,188 M287,187L288,188 M288,187L289,188 M377,187L378,188 M378,187L379,188 M379,187L380,188 M380,187L381,188 M381,187L382,188 M382,187L383,188 M383,187L384,188 M384,187L385,188 M182,188L183,189 M183,188L184,189 M184,188L185,189 M261,188L262,189 M262,188L263,189 M286,188L287,189 M287,188L288,189 M288,188L289,189 M289,188L290,189 M290,188L291,189 M291,188L292,189 M372,188L373,189 M373,188L374,189 M374,188L375,189 M375,188L376,189 M376,188L377,189 M377,188L378,189 M378,188L379,189 M379,188L380,189 M380,188L381,189 M381,188L382,189 M183,189L184,190 M184,189L185,190 M260,189L261,190 M261,189L262,190 M262,189L263,190 M289,189L290,190 M290,189L291,190 M291,189L292,190 M292,189L293,190 M293,189L294,190 M367,189L368,190 M368,189L369,190 M369,189L370,190 M370,189L371,190 M371,189L372,190 M372,189L373,190 M373,189L374,190 M374,189L375,190 M375,189L376,190 M376,189L377,190 M183,190L184,191 M184,190L185,191 M259,190L260,191 M260,190L261,191 M261,190L262,191 M291,190L292,191 M292,190L293,191 M293,190L294,191 M294,190L295,191 M295,190L296,191 M363,190L364,191 M364,190L365,191 M365,190L366,191 M366,190L367,191 M367,190L368,191 M368,190L369,191 M369,190L370,191 M370,190L371,191 M371,190L372,191 M184,191L185,192 M185,191L186,192 M258,191L259,192 M259,191L260,192 M260,191L261,192 M294,191L295,192 M295,191L296,192 M296,191L297,192 M297,191L298,192 M298,191L299,192 M358,191L359,192 M359,191L360,192 M360,191L361,192 M361,191L362,192 M362,191L363,192 M363,191L364,192 M364,191L365,192 M365,191L366,192 M366,191L367,192 M184,192L185,193 M185,192L186,193 M258,192L259,193 M259,192L260,193 M296,192L297,193 M297,192L298,193 M298,192L299,193 M299,192L300,193 M300,192L301,193 M354,192L355,193 M355,192L356,193 M356,192L357,193 M357,192L358,193 M358,192L359,193 M359,192L360,193 M360,192L361,193 M361,192L362,193 M362,192L363,193 M184,193L185,194 M185,193L186,194 M186,193L187,194 M257,193L258,194 M258,193L259,194 M298,193L299,194 M299,193L300,194 M300,193L301,194 M301,193L302,194 M302,193L303,194 M350,193L351,194 M351,193L352,194 M352,193L353,194 M353,193L354,194 M354,193L355,194 M355,193L356,194 M356,193L357,194 M357,193L358,194 M185,194L186,195 M186,194L187,195 M256,194L257,195 M257,194L258,195 M258,194L259,195 M301,194L302,195 M302,194L303,195 M303,194L304,195 M304,194L305,195 M305,194L306,195 M346,194L347,195 M347,194L348,195 M348,194L349,195 M349,194L350,195 M350,194L351,195 M351,194L352,195 M352,194L353,195 M353,194L354,195 M185,195L186,196 M186,195L187,196 M255,195L256,196 M256,195L257,196 M257,195L258,196 M303,195L304,196 M304,195L305,196 M305,195L306,196 M306,195L307,196 M307,195L308,196 M342,195L343,196 M343,195L344,196 M344,195L345,196 M345,195L346,196 M346,195L347,196 M347,195L348,196 M348,195L349,196 M349,195L350,196 M186,196L187,197 M187,196L188,197 M254,196L255,197 M255,196L256,197 M256,196L257,197 M305,196L306,197 M306,196L307,197 M307,196L308,197 M308,196L309,197 M309,196L310,197 M310,196L311,197 M337,196L338,197 M338,196L339,197 M339,196L340,197 M340,196L341,197 M341,196L342,197 M342,196L343,197 M343,196L344,197 M344,196L345,197 M345,196L346,197 M186,197L187,198 M187,197L188,198 M254,197L255,198 M255,197L256,198 M308,197L309,198 M309,197L310,198 M310,197L311,198 M311,197L312,198 M312,197L313,198 M331,197L332,198 M332,197L333,198 M333,197L334,198 M334,197L335,198 M335,197L336,198 M336,197L337,198 M337,197L338,198 M338,197L339,198 M339,197L340,198 M340,197L341,198 M341,197L342,198 M187,198L188,199 M188,198L189,199 M253,198L254,199 M254,198L255,199 M310,198L311,199 M311,198L312,199 M312,198L313,199 M313,198L314,199 M314,198L315,199 M326,198L327,199 M327,198L328,199 M328,198L329,199 M329,198L330,199 M330,198L331,199 M331,198L332,199 M332,198L333,199 M333,198L334,199 M334,198L335,199 M335,198L336,199 M336,198L337,199 M187,199L188,200 M188,199L189,200 M252,199L253,200 M253,199L254,200 M254,199L255,200 M313,199L314,200 M314,199L315,200 M315,199L316,200 M316,199L317,200 M317,199L318,200 M323,199L324,200 M324,199L325,200 M325,199L326,200 M326,199L327,200 M327,199L328,200 M328,199L329,200 M329,199L330,200 M330,199L331,200 M187,200L188,201 M188,200L189,201 M189,200L190,201 M251,200L252,201 M252,200L253,201 M253,200L254,201 M315,200L316,201 M316,200L317,201 M317,200L318,201 M318,200L319,201 M319,200L320,201 M320,200L321,201 M321,200L322,201 M322,200L323,201 M323,200L324,201 M324,200L325,201 M325,200L326,201 M188,201L189,202 M189,201L190,202 M250,201L251,202 M251,201L252,202 M252,201L253,202 M317,201L318,202 M318,201L319,202 M319,201L320,202 M320,201L321,202 M321,201L322,202 M322,201L323,202 M188,202L189,203 M189,202L190,203 M249,202L250,203 M250,202L251,203 M251,202L252,203 M317,202L318,203 M318,202L319,203 M319,202L320,203 M320,202L321,203 M321,202L322,203 M322,202L323,203 M323,202L324,203 M324,202L325,203 M189,203L190,204 M190,203L191,204 M249,203L250,204 M250,203L251,204 M322,203L323,204 M323,203L324,204 M324,203L325,204 M325,203L326,204 M326,203L327,204 M189,204L190,205 M190,204L191,205 M248,204L249,205 M249,204L250,205 M325,204L326,205 M326,204L327,205 M327,204L328,205 M328,204L329,205 M329,204L330,205 M189,205L190,206 M190,205L191,206 M191,205L192,206 M247,205L248,206 M248,205L249,206 M327,205L328,206 M328,205L329,206 M329,205L330,206 M330,205L331,206 M331,205L332,206 M190,206L191,207 M191,206L192,207 M246,206L247,207 M247,206L248,207 M248,206L249,207 M329,206L330,207 M330,206L331,207 M331,206L332,207 M332,206L333,207 M333,206L334,207 M190,207L191,208 M191,207L192,208 M245,207L246,208 M246,207L247,208 M247,207L248,208 M332,207L333,208 M333,207L334,208 M334,207L335,208 M335,207L336,208 M336,207L337,208 M191,208L192,209 M192,208L193,209 M244,208L245,209 M245,208L246,209 M246,208L247,209 M334,208L335,209 M335,208L336,209 M336,208L337,209 M337,208L338,209 M338,208L339,209 M191,209L192,210 M192,209L193,210 M243,209L244,210 M244,209L245,210 M245,209L246,210 M336,209L337,210 M337,209L338,210 M338,209L339,210 M339,209L340,210 M340,209L341,210 M341,209L342,210 M191,210L192,211 M192,210L193,211 M193,210L194,211 M243,210L244,211 M244,210L245,211 M339,210L340,211 M340,210L341,211 M341,210L342,211 M342,210L343,211 M343,210L344,211 M192,211L193,212 M193,211L194,212 M241,211L242,212 M242,211L243,212 M243,211L244,212 M341,211L342,212 M342,211L343,212 M343,211L344,212 M344,211L345,212 M345,211L346,212 M192,212L193,213 M193,212L194,213 M240,212L241,213 M241,212L242,213 M242,212L243,213 M344,212L345,213 M345,212L346,213 M346,212L347,213 M347,212L348,213 M348,212L349,213 M192,213L193,214 M193,213L194,214 M194,213L195,214 M239,213L240,214 M240,213L241,214 M241,213L242,214 M346,213L347,214 M347,213L348,214 M348,213L349,214 M349,213L350,214 M350,213L351,214 M193,214L194,215 M194,214L195,215 M238,214L239,215 M239,214L240,215 M240,214L241,215 M348,214L349,215 M349,214L350,215 M350,214L351,215 M351,214L352,215 M352,214L353,215 M193,215L194,216 M194,215L195,216 M237,215L238,216 M238,215L239,216 M239,215L240,216 M351,215L352,216 M352,215L353,216 M353,215L354,216 M354,215L355,216 M355,215L356,216 M193,216L194,217 M194,216L195,217 M236,216L237,217 M237,216L238,217 M238,216L239,217 M353,216L354,217 M354,216L355,217 M355,216L356,217 M356,216L357,217 M357,216L358,217 M194,217L195,218 M195,217L196,218 M235,217L236,218 M236,217L237,218 M237,217L238,218 M355,217L356,218 M356,217L357,218 M357,217L358,218 M358,217L359,218 M359,217L360,218 M360,217L361,218 M194,218L195,219 M195,218L196,219 M234,218L235,219 M235,218L236,219 M236,218L237,219 M358,218L359,219 M359,218L360,219 M360,218L361,219 M361,218L362,219 M362,218L363,219 M194,219L195,220 M195,219L196,220 M233,219L234,220 M234,219L235,220 M235,219L236,220 M360,219L361,220 M361,219L362,220 M362,219L363,220 M363,219L364,220 M364,219L365,220 M195,220L196,221 M196,220L197,221 M231,220L232,221 M232,220L233,221 M233,220L234,221 M363,220L364,221 M364,220L365,221 M365,220L366,221 M366,220L367,221 M367,220L368,221 M195,221L196,222 M196,221L197,222 M230,221L231,222 M231,221L232,222 M232,221L233,222 M365,221L366,222 M366,221L367,222 M367,221L368,222 M368,221L369,222 M369,221L370,222 M195,222L196,223 M196,222L197,223 M229,222L230,223 M230,222L231,223 M231,222L232,223 M367,222L368,223 M368,222L369,223 M369,222L370,223 M370,222L371,223 M371,222L372,223 M372,222L373,223 M196,223L197,224 M197,223L198,224 M228,223L229,224 M229,223L230,224 M230,223L231,224 M370,223L371,224 M371,223L372,224 M372,223L373,224 M373,223L374,224 M374,223L375,224 M375,223L376,224 M376,223L377,224 M196,224L197,225 M197,224L198,225 M226,224L227,225 M227,224L228,225 M228,224L229,225 M229,224L230,225 M373,224L374,225 M374,224L375,225 M375,224L376,225 M376,224L377,225 M377,224L378,225 M378,224L379,225 M379,224L380,225 M380,224L381,225 M196,225L197,226 M197,225L198,226 M225,225L226,226 M226,225L227,226 M227,225L228,226 M377,225L378,226 M378,225L379,226 M379,225L380,226 M380,225L381,226 M381,225L382,226 M382,225L383,226 M383,225L384,226 M197,226L198,227 M198,226L199,227 M224,226L225,227 M225,226L226,227 M226,226L227,227 M380,226L381,227 M381,226L382,227 M382,226L383,227 M383,226L384,227 M384,226L385,227 M385,226L386,227 M386,226L387,227 M387,226L388,227 M197,227L198,228 M198,227L199,228 M223,227L224,228 M224,227L225,228 M225,227L226,228 M384,227L385,228 M385,227L386,228 M386,227L387,228 M387,227L388,228 M388,227L389,228 M389,227L390,228 M390,227L391,228 M391,227L392,228 M197,228L198,229 M198,228L199,229 M221,228L222,229 M222,228L223,229 M223,228L224,229 M224,228L225,229 M388,228L389,229 M389,228L390,229 M390,228L391,229 M391,228L392,229 M392,228L393,229 M393,228L394,229 M394,228L395,229 M395,228L396,229 M198,229L199,230 M199,229L200,230 M220,229L221,230 M221,229L222,230 M222,229L223,230 M392,229L393,230 M393,229L394,230 M394,229L395,230 M395,229L396,230 M396,229L397,230 M397,229L398,230 M398,229L399,230 M198,230L199,231 M199,230L200,231 M219,230L220,231 M220,230L221,231 M221,230L222,231 M395,230L396,231 M396,230L397,231 M397,230L398,231 M398,230L399,231 M399,230L400,231 M400,230L401,231 M401,230L402,231 M402,230L403,231 M198,231L199,232 M199,231L200,232 M217,231L218,232 M218,231L219,232 M219,231L220,232 M220,231L221,232 M399,231L400,232 M400,231L401,232 M401,231L402,232 M402,231L403,232 M403,231L404,232 M404,231L405,232 M405,231L406,232 M406,231L407,232 M199,232L200,233 M200,232L201,233 M216,232L217,233 M217,232L218,233 M218,232L219,233 M403,232L404,233 M404,232L405,233 M405,232L406,233 M406,232L407,233 M407,232L408,233 M408,232L409,233 M409,232L410,233 M410,232L411,233 M199,233L200,234 M200,233L201,234 M215,233L216,234 M216,233L217,234 M217,233L218,234 M407,233L408,234 M408,233L409,234 M409,233L410,234 M410,233L411,234 M411,233L412,234 M412,233L413,234 M413,233L414,234 M414,233L415,234 M199,234L200,235 M200,234L201,235 M213,234L214,235 M214,234L215,235 M215,234L216,235 M216,234L217,235 M411,234L412,235 M412,234L413,235 M413,234L414,235 M414,234L415,235 M415,234L416,235 M416,234L417,235 M417,234L418,235 M199,235L200,236 M200,235L201,236 M212,235L213,236 M213,235L214,236 M214,235L215,236 M215,235L216,236 M414,235L415,236 M415,235L416,236 M416,235L417,236 M417,235L418,236 M418,235L419,236 M419,235L420,236 M420,235L421,236 M421,235L422,236 M200,236L201,237 M201,236L202,237 M210,236L211,237 M211,236L212,237 M212,236L213,237 M213,236L214,237 M418,236L419,237 M419,236L420,237 M420,236L421,237 M421,236L422,237 M422,236L423,237 M423,236L424,237 M424,236L425,237 M425,236L426,237 M200,237L201,238 M201,237L202,238 M208,237L209,238 M209,237L210,238 M210,237L211,238 M211,237L212,238 M422,237L423,238 M423,237L424,238 M424,237L425,238 M425,237L426,238 M426,237L427,238 M427,237L428,238 M428,237L429,238 M429,237L430,238 M430,237L431,238 M200,238L201,239 M201,238L202,239 M206,238L207,239 M207,238L208,239 M208,238L209,239 M209,238L210,239 M426,238L427,239 M427,238L428,239 M428,238L429,239 M429,238L430,239 M430,238L431,239 M431,238L432,239 M432,238L433,239 M433,238L434,239 M434,238L435,239 M200,239L201,240 M201,239L202,240 M205,239L206,240 M206,239L207,240 M207,239L208,240 M208,239L209,240 M430,239L431,240 M431,239L432,240 M432,239L433,240 M433,239L434,240 M434,239L435,240 M435,239L436,240 M436,239L437,240 M437,239L438,240 M438,239L439,240 M200,240L201,241 M201,240L202,241 M202,240L203,241 M203,240L204,241 M204,240L205,241 M205,240L206,241 M206,240L207,241 M435,240L436,241 M436,240L437,241 M437,240L438,241 M438,240L439,241 M439,240L440,241 M440,240L441,241 M441,240L442,241 M442,240L443,241 M443,240L444,241 M200,241L201,242 M201,241L202,242 M202,241L203,242 M203,241L204,242 M204,241L205,242 M205,241L206,242 M439,241L440,242 M440,241L441,242 M441,241L442,242 M442,241L443,242 M443,241L444,242 M444,241L445,242 M445,241L446,242 M446,241L447,242 M447,241L448,242 M443,242L444,243 M444,242L445,243 M445,242L446,243 M446,242L447,243 M447,242L448,243 M448,242L449,243 M449,242L450,243 M450,242L451,243 M451,242L452,243 M448,243L449,244 M449,243L450,244 M450,243L451,244 M451,243L452,244 M452,243L453,244 M453,243L454,244 M454,243L455,244 M455,243L456,244 M456,243L457,244 M452,244L453,245 M453,244L454,245 M454,244L455,245 M455,244L456,245 M456,244L457,245 M457,244L458,245 M458,244L459,245 M459,244L460,245 M460,244L461,245 M456,245L457,246 M457,245L458,246 M458,245L459,246 M459,245L460,246 M460,245L461,246 M461,245L462,246 M462,245L463,246 M463,245L464,246 M464,245L465,246 M461,246L462,247 M462,246L463,247 M463,246L464,247 M464,246L465,247 M465,246L466,247 M466,246L467,247 M467,246L468,247 M468,246L469,247 M469,246L470,247 M465,247L466,248 M466,247L467,248 M467,247L468,248 M468,247L469,248 M469,247L470,248 M470,247L471,248 M471,247L472,248 M472,247L473,248 M473,247L474,248 M469,248L470,249 M470,248L471,249 M471,248L472,249 M472,248L473,249 M473,248L474,249 M474,248L475,249 M475,248L476,249 M476,248L477,249 M474,249L475,250 M475,249L476,250 M476,249L477,250" fill="none" stroke="black" />
    </svg>