<svg xmlns="http://www.w3.org/2000/svg" width="332" height="250">
        <path d="M64,0L65,1 M65,0L66,1 M69,0L70,1 M70,0L71,1 M111,0L112,1 M112,0L113,1 M128,0L129,1 M129,0L130,1 M174,0L175,1 M175,0L176,1 M177,0L178,1 M178,0L179,1 M64,1L65,2 M65,1L66,2 M70,1L71,2 M111,1L112,2 M112,1L113,2 M128,1L129,2 M129,1L130,2 M130,1L131,2 M174,1L175,2 M175,1L176,2 M177,1L178,2 M178,1L179,2 M64,2L65,3 M65,2L66,3 M70,2L71,3 M110,2L111,3 M111,2L112,3 M129,2L130,3 M130,2L131,3 M174,2L175,3 M175,2L176,3 M177,2L178,3 M178,2L179,3 M64,3L65,4 M65,3L66,4 M70,3L71,4 M109,3L110,4 M110,3L111,4 M130,3L131,4 M131,3L132,4 M174,3L175,4 M178,3L179,4 M179,3L180,4 M64,4L65,5 M65,4L66,5 M70,4L71,5 M109,4L110,5 M110,4L111,5 M130,4L131,5 M131,4L132,5 M173,4L174,5 M174,4L175,5 M178,4L179,5 M179,4L180,5 M64,5L65,6 M65,5L66,6 M70,5L71,6 M108,5L109,6 M109,5L110,6 M131,5L132,6 M132,5L133,6 M173,5L174,6 M174,5L175,6 M178,5L179,6 M179,5L180,6 M64,6L65,7 M65,6L66,7 M70,6L71,7 M71,6L72,7 M108,6L109,7 M109,6L110,7 M131,6L132,7 M132,6L133,7 M173,6L174,7 M174,6L175,7 M178,6L179,7 M179,6L180,7 M64,7L65,8 M65,7L66,8 M70,7L71,8 M71,7L72,8 M108,7L109,8 M132,7L133,8 M173,7L174,8 M174,7L175,8 M178,7L179,8 M179,7L180,8 M64,8L65,9 M65,8L66,9 M70,8L71,9 M71,8L72,9 M107,8L108,9 M108,8L109,9 M132,8L133,9 M133,8L134,9 M173,8L174,9 M174,8L175,9 M179,8L180,9 M64,9L65,10 M65,9L66,10 M70,9L71,10 M71,9L72,10 M107,9L108,10 M108,9L109,10 M132,9L133,10 M133,9L134,10 M173,9L174,10 M179,9L180,10 M64,10L65,11 M65,10L66,11 M70,10L71,11 M71,10L72,11 M107,10L108,11 M108,10L109,11 M133,10L134,11 M172,10L173,11 M173,10L174,11 M179,10L180,11 M64,11L65,12 M65,11L66,12 M70,11L71,12 M71,11L72,12 M107,11L108,12 M133,11L134,12 M134,11L135,12 M172,11L173,12 M173,11L174,12 M179,11L180,12 M180,11L181,12 M64,12L65,13 M65,12L66,13 M70,12L71,13 M71,12L72,13 M106,12L107,13 M107,12L108,13 M133,12L134,13 M134,12L135,13 M172,12L173,13 M173,12L174,13 M179,12L180,13 M180,12L181,13 M64,13L65,14 M65,13L66,14 M70,13L71,14 M71,13L72,14 M106,13L107,14 M107,13L108,14 M133,13L134,14 M134,13L135,14 M172,13L173,14 M173,13L174,14 M179,13L180,14 M180,13L181,14 M64,14L65,15 M65,14L66,15 M70,14L71,15 M71,14L72,15 M106,14L107,15 M107,14L108,15 M133,14L134,15 M134,14L135,15 M172,14L173,15 M173,14L174,15 M179,14L180,15 M180,14L181,15 M64,15L65,16 M65,15L66,16 M70,15L71,16 M71,15L72,16 M106,15L107,16 M134,15L135,16 M135,15L136,16 M172,15L173,16 M173,15L174,16 M179,15L180,16 M180,15L181,16 M64,16L65,17 M65,16L66,17 M70,16L71,17 M71,16L72,17 M106,16L107,17 M134,16L135,17 M135,16L136,17 M172,16L173,17 M179,16L180,17 M180,16L181,17 M64,17L65,18 M65,17L66,18 M70,17L71,18 M71,17L72,18 M105,17L106,18 M106,17L107,18 M134,17L135,18 M135,17L136,18 M172,17L173,18 M179,17L180,18 M180,17L181,18 M64,18L65,19 M65,18L66,19 M70,18L71,19 M71,18L72,19 M105,18L106,19 M106,18L107,19 M134,18L135,19 M135,18L136,19 M172,18L173,19 M179,18L180,19 M180,18L181,19 M64,19L65,20 M65,19L66,20 M70,19L71,20 M71,19L72,20 M105,19L106,20 M106,19L107,20 M134,19L135,20 M135,19L136,20 M171,19L172,20 M172,19L173,20 M179,19L180,20 M180,19L181,20 M64,20L65,21 M65,20L66,21 M70,20L71,21 M71,20L72,21 M105,20L106,21 M106,20L107,21 M134,20L135,21 M135,20L136,21 M171,20L172,21 M172,20L173,21 M179,20L180,21 M180,20L181,21 M64,21L65,22 M65,21L66,22 M71,21L72,22 M105,21L106,22 M106,21L107,22 M134,21L135,22 M135,21L136,22 M171,21L172,22 M172,21L173,22 M180,21L181,22 M64,22L65,23 M65,22L66,23 M71,22L72,23 M105,22L106,23 M106,22L107,23 M134,22L135,23 M135,22L136,23 M171,22L172,23 M172,22L173,23 M180,22L181,23 M64,23L65,24 M65,23L66,24 M71,23L72,24 M105,23L106,24 M106,23L107,24 M134,23L135,24 M135,23L136,24 M171,23L172,24 M172,23L173,24 M180,23L181,24 M64,24L65,25 M65,24L66,25 M71,24L72,25 M105,24L106,25 M106,24L107,25 M134,24L135,25 M135,24L136,25 M171,24L172,25 M172,24L173,25 M180,24L181,25 M64,25L65,26 M65,25L66,26 M71,25L72,26 M105,25L106,26 M106,25L107,26 M134,25L135,26 M135,25L136,26 M171,25L172,26 M172,25L173,26 M180,25L181,26 M181,25L182,26 M64,26L65,27 M65,26L66,27 M71,26L72,27 M105,26L106,27 M106,26L107,27 M134,26L135,27 M135,26L136,27 M171,26L172,27 M180,26L181,27 M181,26L182,27 M64,27L65,28 M65,27L66,28 M71,27L72,28 M105,27L106,28 M106,27L107,28 M134,27L135,28 M135,27L136,28 M171,27L172,28 M180,27L181,28 M181,27L182,28 M64,28L65,29 M65,28L66,29 M71,28L72,29 M72,28L73,29 M105,28L106,29 M106,28L107,29 M134,28L135,29 M171,28L172,29 M180,28L181,29 M181,28L182,29 M64,29L65,30 M65,29L66,30 M71,29L72,30 M72,29L73,30 M105,29L106,30 M106,29L107,30 M133,29L134,30 M134,29L135,30 M170,29L171,30 M171,29L172,30 M180,29L181,30 M181,29L182,30 M64,30L65,31 M65,30L66,31 M71,30L72,31 M72,30L73,31 M105,30L106,31 M106,30L107,31 M133,30L134,31 M134,30L135,31 M170,30L171,31 M171,30L172,31 M180,30L181,31 M181,30L182,31 M64,31L65,32 M65,31L66,32 M71,31L72,32 M72,31L73,32 M105,31L106,32 M106,31L107,32 M133,31L134,32 M134,31L135,32 M170,31L171,32 M171,31L172,32 M180,31L181,32 M181,31L182,32 M64,32L65,33 M65,32L66,33 M71,32L72,33 M72,32L73,33 M105,32L106,33 M106,32L107,33 M133,32L134,33 M170,32L171,33 M171,32L172,33 M180,32L181,33 M181,32L182,33 M64,33L65,34 M65,33L66,34 M71,33L72,34 M72,33L73,34 M105,33L106,34 M106,33L107,34 M132,33L133,34 M133,33L134,34 M170,33L171,34 M171,33L172,34 M180,33L181,34 M181,33L182,34 M64,34L65,35 M65,34L66,35 M71,34L72,35 M72,34L73,35 M106,34L107,35 M132,34L133,35 M133,34L134,35 M170,34L171,35 M171,34L172,35 M180,34L181,35 M181,34L182,35 M64,35L65,36 M65,35L66,36 M71,35L72,36 M72,35L73,36 M106,35L107,36 M107,35L108,36 M132,35L133,36 M170,35L171,36 M171,35L172,36 M180,35L181,36 M181,35L182,36 M64,36L65,37 M65,36L66,37 M71,36L72,37 M72,36L73,37 M106,36L107,37 M107,36L108,37 M131,36L132,37 M132,36L133,37 M170,36L171,37 M180,36L181,37 M181,36L182,37 M64,37L65,38 M65,37L66,38 M71,37L72,38 M72,37L73,38 M106,37L107,38 M107,37L108,38 M131,37L132,38 M132,37L133,38 M170,37L171,38 M181,37L182,38 M64,38L65,39 M65,38L66,39 M71,38L72,39 M72,38L73,39 M106,38L107,39 M107,38L108,39 M130,38L131,39 M131,38L132,39 M170,38L171,39 M181,38L182,39 M64,39L65,40 M65,39L66,40 M71,39L72,40 M72,39L73,40 M107,39L108,40 M130,39L131,40 M131,39L132,40 M169,39L170,40 M170,39L171,40 M181,39L182,40 M64,40L65,41 M65,40L66,41 M71,40L72,41 M72,40L73,41 M107,40L108,41 M108,40L109,41 M130,40L131,41 M169,40L170,41 M170,40L171,41 M181,40L182,41 M64,41L65,42 M65,41L66,42 M71,41L72,42 M72,41L73,42 M107,41L108,42 M108,41L109,42 M129,41L130,42 M130,41L131,42 M169,41L170,42 M170,41L171,42 M181,41L182,42 M182,41L183,42 M64,42L65,43 M65,42L66,43 M71,42L72,43 M72,42L73,43 M107,42L108,43 M108,42L109,43 M129,42L130,43 M169,42L170,43 M170,42L171,43 M181,42L182,43 M182,42L183,43 M64,43L65,44 M65,43L66,44 M71,43L72,44 M72,43L73,44 M108,43L109,44 M109,43L110,44 M128,43L129,44 M129,43L130,44 M169,43L170,44 M170,43L171,44 M181,43L182,44 M182,43L183,44 M64,44L65,45 M65,44L66,45 M71,44L72,45 M72,44L73,45 M108,44L109,45 M109,44L110,45 M128,44L129,45 M169,44L170,45 M170,44L171,45 M181,44L182,45 M182,44L183,45 M64,45L65,46 M65,45L66,46 M72,45L73,46 M108,45L109,46 M109,45L110,46 M127,45L128,46 M128,45L129,46 M169,45L170,46 M170,45L171,46 M181,45L182,46 M182,45L183,46 M64,46L65,47 M72,46L73,47 M109,46L110,47 M126,46L127,47 M127,46L128,47 M169,46L170,47 M170,46L171,47 M181,46L182,47 M182,46L183,47 M64,47L65,48 M72,47L73,48 M109,47L110,48 M110,47L111,48 M126,47L127,48 M127,47L128,48 M169,47L170,48 M181,47L182,48 M182,47L183,48 M63,48L64,49 M64,48L65,49 M72,48L73,49 M109,48L110,49 M110,48L111,49 M125,48L126,49 M126,48L127,49 M169,48L170,49 M181,48L182,49 M182,48L183,49 M63,49L64,50 M64,49L65,50 M72,49L73,50 M110,49L111,50 M111,49L112,50 M124,49L125,50 M125,49L126,50 M168,49L169,50 M169,49L170,50 M181,49L182,50 M182,49L183,50 M63,50L64,51 M64,50L65,51 M72,50L73,51 M73,50L74,51 M110,50L111,51 M111,50L112,51 M124,50L125,51 M125,50L126,51 M168,50L169,51 M169,50L170,51 M181,50L182,51 M182,50L183,51 M45,51L46,52 M63,51L64,52 M64,51L65,52 M72,51L73,52 M73,51L74,52 M110,51L111,52 M111,51L112,52 M123,51L124,52 M124,51L125,52 M168,51L169,52 M169,51L170,52 M182,51L183,52 M45,52L46,53 M46,52L47,53 M47,52L48,53 M48,52L49,53 M63,52L64,53 M64,52L65,53 M72,52L73,53 M73,52L74,53 M111,52L112,53 M112,52L113,53 M122,52L123,53 M123,52L124,53 M168,52L169,53 M169,52L170,53 M182,52L183,53 M46,53L47,54 M47,53L48,54 M48,53L49,54 M49,53L50,54 M50,53L51,54 M51,53L52,54 M63,53L64,54 M64,53L65,54 M72,53L73,54 M73,53L74,54 M111,53L112,54 M112,53L113,54 M121,53L122,54 M122,53L123,54 M168,53L169,54 M169,53L170,54 M182,53L183,54 M183,53L184,54 M46,54L47,55 M47,54L48,55 M50,54L51,55 M51,54L52,55 M52,54L53,55 M53,54L54,55 M63,54L64,55 M72,54L73,55 M73,54L74,55 M112,54L113,55 M113,54L114,55 M120,54L121,55 M121,54L122,55 M122,54L123,55 M168,54L169,55 M169,54L170,55 M182,54L183,55 M183,54L184,55 M47,55L48,56 M48,55L49,56 M52,55L53,56 M53,55L54,56 M54,55L55,56 M55,55L56,56 M63,55L64,56 M72,55L73,56 M73,55L74,56 M112,55L113,56 M113,55L114,56 M119,55L120,56 M120,55L121,56 M121,55L122,56 M168,55L169,56 M182,55L183,56 M183,55L184,56 M48,56L49,57 M49,56L50,57 M54,56L55,57 M55,56L56,57 M56,56L57,57 M62,56L63,57 M63,56L64,57 M72,56L73,57 M73,56L74,57 M113,56L114,57 M118,56L119,57 M119,56L120,57 M120,56L121,57 M167,56L168,57 M168,56L169,57 M182,56L183,57 M183,56L184,57 M48,57L49,58 M49,57L50,58 M56,57L57,58 M57,57L58,58 M58,57L59,58 M62,57L63,58 M63,57L64,58 M72,57L73,58 M73,57L74,58 M113,57L114,58 M114,57L115,58 M118,57L119,58 M119,57L120,58 M167,57L168,58 M168,57L169,58 M182,57L183,58 M183,57L184,58 M49,58L50,59 M50,58L51,59 M58,58L59,59 M59,58L60,59 M60,58L61,59 M62,58L63,59 M63,58L64,59 M72,58L73,59 M73,58L74,59 M113,58L114,59 M114,58L115,59 M116,58L117,59 M117,58L118,59 M118,58L119,59 M167,58L168,59 M168,58L169,59 M182,58L183,59 M183,58L184,59 M49,59L50,60 M50,59L51,60 M60,59L61,60 M61,59L62,60 M62,59L63,60 M63,59L64,60 M72,59L73,60 M73,59L74,60 M114,59L115,60 M115,59L116,60 M116,59L117,60 M117,59L118,60 M167,59L168,60 M168,59L169,60 M182,59L183,60 M183,59L184,60 M50,60L51,61 M51,60L52,61 M61,60L62,61 M62,60L63,61 M63,60L64,61 M72,60L73,61 M73,60L74,61 M114,60L115,61 M115,60L116,61 M116,60L117,61 M167,60L168,61 M183,60L184,61 M50,61L51,62 M51,61L52,62 M61,61L62,62 M62,61L63,62 M63,61L64,62 M64,61L65,62 M72,61L73,62 M73,61L74,62 M113,61L114,62 M114,61L115,62 M115,61L116,62 M116,61L117,62 M166,61L167,62 M167,61L168,62 M183,61L184,62 M51,62L52,63 M52,62L53,63 M61,62L62,63 M62,62L63,63 M64,62L65,63 M65,62L66,63 M66,62L67,63 M72,62L73,63 M73,62L74,63 M112,62L113,63 M113,62L114,63 M114,62L115,63 M115,62L116,63 M116,62L117,63 M166,62L167,63 M167,62L168,63 M183,62L184,63 M184,62L185,63 M51,63L52,64 M52,63L53,64 M61,63L62,64 M65,63L66,64 M66,63L67,64 M67,63L68,64 M73,63L74,64 M111,63L112,64 M112,63L113,64 M113,63L114,64 M116,63L117,64 M117,63L118,64 M166,63L167,64 M167,63L168,64 M183,63L184,64 M184,63L185,64 M52,64L53,65 M53,64L54,65 M60,64L61,65 M61,64L62,65 M67,64L68,65 M68,64L69,65 M73,64L74,65 M110,64L111,65 M111,64L112,65 M112,64L113,65 M116,64L117,65 M117,64L118,65 M166,64L167,65 M183,64L184,65 M184,64L185,65 M52,65L53,66 M53,65L54,66 M60,65L61,66 M61,65L62,66 M68,65L69,66 M69,65L70,66 M73,65L74,66 M109,65L110,66 M110,65L111,66 M111,65L112,66 M117,65L118,66 M118,65L119,66 M165,65L166,66 M166,65L167,66 M183,65L184,66 M184,65L185,66 M53,66L54,67 M54,66L55,67 M60,66L61,67 M61,66L62,67 M69,66L70,67 M70,66L71,67 M71,66L72,67 M73,66L74,67 M109,66L110,67 M110,66L111,67 M117,66L118,67 M118,66L119,67 M165,66L166,67 M166,66L167,67 M183,66L184,67 M184,66L185,67 M53,67L54,68 M54,67L55,68 M60,67L61,68 M70,67L71,68 M71,67L72,68 M72,67L73,68 M73,67L74,68 M108,67L109,68 M109,67L110,68 M118,67L119,68 M119,67L120,68 M165,67L166,68 M183,67L184,68 M184,67L185,68 M255,67L256,68 M256,67L257,68 M54,68L55,69 M55,68L56,69 M59,68L60,69 M60,68L61,69 M72,68L73,69 M73,68L74,69 M74,68L75,69 M107,68L108,69 M108,68L109,69 M118,68L119,69 M119,68L120,69 M164,68L165,69 M165,68L166,69 M183,68L184,69 M184,68L185,69 M255,68L256,69 M256,68L257,69 M54,69L55,70 M55,69L56,70 M59,69L60,70 M60,69L61,70 M73,69L74,70 M74,69L75,70 M75,69L76,70 M106,69L107,70 M107,69L108,70 M119,69L120,70 M120,69L121,70 M164,69L165,70 M165,69L166,70 M183,69L184,70 M184,69L185,70 M254,69L255,70 M255,69L256,70 M256,69L257,70 M257,69L258,70 M55,70L56,71 M56,70L57,71 M59,70L60,71 M73,70L74,71 M74,70L75,71 M75,70L76,71 M76,70L77,71 M106,70L107,71 M107,70L108,71 M119,70L120,71 M120,70L121,71 M164,70L165,71 M184,70L185,71 M254,70L255,71 M255,70L256,71 M256,70L257,71 M257,70L258,71 M55,71L56,72 M56,71L57,72 M58,71L59,72 M59,71L60,72 M73,71L74,72 M74,71L75,72 M75,71L76,72 M76,71L77,72 M77,71L78,72 M106,71L107,72 M107,71L108,72 M120,71L121,72 M121,71L122,72 M163,71L164,72 M164,71L165,72 M184,71L185,72 M254,71L255,72 M256,71L257,72 M257,71L258,72 M56,72L57,73 M57,72L58,73 M58,72L59,73 M73,72L74,73 M74,72L75,73 M77,72L78,73 M78,72L79,73 M79,72L80,73 M107,72L108,73 M108,72L109,73 M120,72L121,73 M121,72L122,73 M163,72L164,73 M184,72L185,73 M185,72L186,73 M253,72L254,73 M254,72L255,73 M256,72L257,73 M56,73L57,74 M57,73L58,74 M58,73L59,74 M73,73L74,74 M74,73L75,74 M78,73L79,74 M79,73L80,74 M80,73L81,74 M107,73L108,74 M108,73L109,74 M109,73L110,74 M121,73L122,74 M122,73L123,74 M158,73L159,74 M159,73L160,74 M160,73L161,74 M161,73L162,74 M162,73L163,74 M163,73L164,74 M164,73L165,74 M165,73L166,74 M166,73L167,74 M184,73L185,74 M185,73L186,74 M253,73L254,74 M254,73L255,74 M256,73L257,74 M57,74L58,75 M58,74L59,75 M73,74L74,75 M74,74L75,75 M79,74L80,75 M80,74L81,75 M81,74L82,75 M108,74L109,75 M109,74L110,75 M110,74L111,75 M121,74L122,75 M122,74L123,75 M158,74L159,75 M159,74L160,75 M160,74L161,75 M161,74L162,75 M162,74L163,75 M163,74L164,75 M164,74L165,75 M165,74L166,75 M166,74L167,75 M167,74L168,75 M168,74L169,75 M169,74L170,75 M184,74L185,75 M185,74L186,75 M253,74L254,75 M254,74L255,75 M255,74L256,75 M256,74L257,75 M57,75L58,76 M58,75L59,76 M59,75L60,76 M73,75L74,76 M74,75L75,76 M81,75L82,76 M82,75L83,76 M83,75L84,76 M110,75L111,76 M111,75L112,76 M112,75L113,76 M122,75L123,76 M123,75L124,76 M157,75L158,76 M158,75L159,76 M161,75L162,76 M162,75L163,76 M168,75L169,76 M169,75L170,76 M170,75L171,76 M171,75L172,76 M184,75L185,76 M185,75L186,76 M253,75L254,76 M254,75L255,76 M255,75L256,76 M256,75L257,76 M56,76L57,77 M57,76L58,77 M58,76L59,77 M59,76L60,77 M73,76L74,77 M74,76L75,77 M82,76L83,77 M83,76L84,77 M84,76L85,77 M111,76L112,77 M112,76L113,77 M113,76L114,77 M122,76L123,77 M123,76L124,77 M157,76L158,77 M158,76L159,77 M161,76L162,77 M171,76L172,77 M172,76L173,77 M173,76L174,77 M184,76L185,77 M185,76L186,77 M254,76L255,77 M255,76L256,77 M56,77L57,78 M59,77L60,78 M60,77L61,78 M73,77L74,78 M74,77L75,78 M84,77L85,78 M85,77L86,78 M113,77L114,78 M114,77L115,78 M115,77L116,78 M123,77L124,78 M124,77L125,78 M157,77L158,78 M160,77L161,78 M161,77L162,78 M173,77L174,78 M174,77L175,78 M175,77L176,78 M184,77L185,78 M185,77L186,78 M254,77L255,78 M255,77L256,78 M55,78L56,79 M56,78L57,79 M59,78L60,79 M60,78L61,79 M73,78L74,79 M74,78L75,79 M85,78L86,79 M86,78L87,79 M87,78L88,79 M115,78L116,79 M116,78L117,79 M117,78L118,79 M118,78L119,79 M123,78L124,79 M124,78L125,79 M157,78L158,79 M160,78L161,79 M175,78L176,79 M176,78L177,79 M184,78L185,79 M185,78L186,79 M215,78L216,79 M216,78L217,79 M253,78L254,79 M254,78L255,79 M255,78L256,79 M54,79L55,80 M55,79L56,80 M60,79L61,80 M61,79L62,80 M73,79L74,80 M74,79L75,80 M86,79L87,80 M87,79L88,80 M88,79L89,80 M117,79L118,80 M118,79L119,80 M119,79L120,80 M120,79L121,80 M121,79L122,80 M123,79L124,80 M124,79L125,80 M157,79L158,80 M158,79L159,80 M159,79L160,80 M160,79L161,80 M176,79L177,80 M177,79L178,80 M178,79L179,80 M185,79L186,80 M215,79L216,80 M216,79L217,80 M217,79L218,80 M252,79L253,80 M253,79L254,80 M255,79L256,80 M256,79L257,80 M54,80L55,81 M55,80L56,81 M60,80L61,81 M61,80L62,81 M62,80L63,81 M73,80L74,81 M74,80L75,81 M88,80L89,81 M89,80L90,81 M90,80L91,81 M119,80L120,81 M120,80L121,81 M121,80L122,81 M122,80L123,81 M123,80L124,81 M124,80L125,81 M125,80L126,81 M157,80L158,81 M158,80L159,81 M159,80L160,81 M177,80L178,81 M178,80L179,81 M179,80L180,81 M185,80L186,81 M186,80L187,81 M214,80L215,81 M215,80L216,81 M216,80L217,81 M217,80L218,81 M252,80L253,81 M253,80L254,81 M256,80L257,81 M257,80L258,81 M53,81L54,82 M54,81L55,82 M61,81L62,82 M62,81L63,82 M73,81L74,82 M74,81L75,82 M89,81L90,82 M90,81L91,82 M91,81L92,82 M122,81L123,82 M123,81L124,82 M124,81L125,82 M125,81L126,82 M126,81L127,82 M127,81L128,82 M158,81L159,82 M159,81L160,82 M178,81L179,82 M179,81L180,82 M180,81L181,82 M185,81L186,82 M186,81L187,82 M214,81L215,82 M215,81L216,82 M217,81L218,82 M218,81L219,82 M251,81L252,82 M252,81L253,82 M257,81L258,82 M258,81L259,82 M53,82L54,83 M54,82L55,83 M62,82L63,83 M63,82L64,83 M73,82L74,83 M74,82L75,83 M91,82L92,83 M92,82L93,83 M93,82L94,83 M125,82L126,83 M126,82L127,83 M127,82L128,83 M128,82L129,83 M129,82L130,83 M130,82L131,83 M157,82L158,83 M158,82L159,83 M159,82L160,83 M160,82L161,83 M180,82L181,83 M181,82L182,83 M185,82L186,83 M186,82L187,83 M213,82L214,83 M214,82L215,83 M217,82L218,83 M218,82L219,83 M219,82L220,83 M250,82L251,83 M251,82L252,83 M258,82L259,83 M259,82L260,83 M260,82L261,83 M275,82L276,83 M276,82L277,83 M52,83L53,84 M53,83L54,84 M63,83L64,84 M64,83L65,84 M73,83L74,84 M74,83L75,84 M92,83L93,84 M93,83L94,84 M94,83L95,84 M125,83L126,84 M126,83L127,84 M129,83L130,84 M130,83L131,84 M131,83L132,84 M132,83L133,84 M133,83L134,84 M156,83L157,84 M157,83L158,84 M159,83L160,84 M160,83L161,84 M181,83L182,84 M182,83L183,84 M185,83L186,84 M186,83L187,84 M213,83L214,84 M214,83L215,84 M218,83L219,84 M219,83L220,84 M249,83L250,84 M250,83L251,84 M260,83L261,84 M261,83L262,84 M262,83L263,84 M263,83L264,84 M269,83L270,84 M270,83L271,84 M271,83L272,84 M272,83L273,84 M273,83L274,84 M274,83L275,84 M275,83L276,84 M276,83L277,84 M277,83L278,84 M52,84L53,85 M64,84L65,85 M65,84L66,85 M73,84L74,85 M74,84L75,85 M94,84L95,85 M95,84L96,85 M96,84L97,85 M125,84L126,85 M126,84L127,85 M132,84L133,85 M133,84L134,85 M134,84L135,85 M135,84L136,85 M156,84L157,85 M157,84L158,85 M160,84L161,85 M161,84L162,85 M162,84L163,85 M182,84L183,85 M183,84L184,85 M186,84L187,85 M213,84L214,85 M219,84L220,85 M220,84L221,85 M248,84L249,85 M249,84L250,85 M261,84L262,85 M262,84L263,85 M263,84L264,85 M264,84L265,85 M265,84L266,85 M266,84L267,85 M267,84L268,85 M268,84L269,85 M269,84L270,85 M270,84L271,85 M271,84L272,85 M272,84L273,85 M273,84L274,85 M276,84L277,85 M51,85L52,86 M52,85L53,86 M64,85L65,86 M65,85L66,86 M66,85L67,86 M73,85L74,86 M95,85L96,86 M96,85L97,86 M97,85L98,86 M126,85L127,86 M135,85L136,86 M136,85L137,86 M137,85L138,86 M155,85L156,86 M156,85L157,86 M161,85L162,86 M162,85L163,86 M163,85L164,86 M183,85L184,86 M184,85L185,86 M186,85L187,86 M212,85L213,86 M213,85L214,86 M220,85L221,86 M221,85L222,86 M246,85L247,86 M247,85L248,86 M248,85L249,86 M267,85L268,86 M275,85L276,86 M276,85L277,86 M50,86L51,87 M51,86L52,87 M66,86L67,87 M67,86L68,87 M68,86L69,87 M71,86L72,87 M72,86L73,87 M73,86L74,87 M97,86L98,87 M98,86L99,87 M99,86L100,87 M126,86L127,87 M127,86L128,87 M137,86L138,87 M138,86L139,87 M139,86L140,87 M154,86L155,87 M155,86L156,87 M163,86L164,87 M164,86L165,87 M165,86L166,87 M184,86L185,87 M185,86L186,87 M186,86L187,87 M187,86L188,87 M212,86L213,87 M213,86L214,87 M221,86L222,87 M222,86L223,87 M244,86L245,87 M245,86L246,87 M246,86L247,87 M247,86L248,87 M275,86L276,87 M276,86L277,87 M310,86L311,87 M311,86L312,87 M312,86L313,87 M313,86L314,87 M314,86L315,87 M315,86L316,87 M316,86L317,87 M317,86L318,87 M318,86L319,87 M319,86L320,87 M320,86L321,87 M321,86L322,87 M322,86L323,87 M323,86L324,87 M324,86L325,87 M50,87L51,88 M51,87L52,88 M67,87L68,88 M68,87L69,88 M69,87L70,88 M70,87L71,88 M71,87L72,88 M72,87L73,88 M73,87L74,88 M98,87L99,88 M99,87L100,88 M100,87L101,88 M126,87L127,88 M127,87L128,88 M139,87L140,88 M140,87L141,88 M141,87L142,88 M153,87L154,88 M154,87L155,88 M164,87L165,88 M165,87L166,88 M166,87L167,88 M167,87L168,88 M184,87L185,88 M185,87L186,88 M186,87L187,88 M187,87L188,88 M212,87L213,88 M222,87L223,88 M223,87L224,88 M224,87L225,88 M242,87L243,88 M243,87L244,88 M244,87L245,88 M245,87L246,88 M275,87L276,88 M276,87L277,88 M305,87L306,88 M306,87L307,88 M307,87L308,88 M308,87L309,88 M309,87L310,88 M310,87L311,88 M311,87L312,88 M312,87L313,88 M313,87L314,88 M314,87L315,88 M315,87L316,88 M316,87L317,88 M317,87L318,88 M318,87L319,88 M319,87L320,88 M320,87L321,88 M321,87L322,88 M322,87L323,88 M323,87L324,88 M324,87L325,88 M325,87L326,88 M326,87L327,88 M327,87L328,88 M328,87L329,88 M49,88L50,89 M50,88L51,89 M69,88L70,89 M100,88L101,89 M101,88L102,89 M102,88L103,89 M126,88L127,89 M127,88L128,89 M140,88L141,89 M141,88L142,89 M152,88L153,89 M153,88L154,89 M166,88L167,89 M167,88L168,89 M168,88L169,89 M169,88L170,89 M185,88L186,89 M186,88L187,89 M187,88L188,89 M211,88L212,89 M212,88L213,89 M223,88L224,89 M224,88L225,89 M225,88L226,89 M226,88L227,89 M239,88L240,89 M240,88L241,89 M241,88L242,89 M242,88L243,89 M243,88L244,89 M275,88L276,89 M301,88L302,89 M302,88L303,89 M303,88L304,89 M304,88L305,89 M305,88L306,89 M306,88L307,89 M307,88L308,89 M308,88L309,89 M326,88L327,89 M327,88L328,89 M328,88L329,89 M329,88L330,89 M330,88L331,89 M331,88L332,89 M48,89L49,90 M49,89L50,90 M101,89L102,90 M102,89L103,90 M103,89L104,90 M127,89L128,90 M141,89L142,90 M142,89L143,90 M151,89L152,90 M152,89L153,90 M153,89L154,90 M168,89L169,90 M169,89L170,90 M170,89L171,90 M171,89L172,90 M172,89L173,90 M185,89L186,90 M186,89L187,90 M187,89L188,90 M211,89L212,90 M212,89L213,90 M225,89L226,90 M226,89L227,90 M227,89L228,90 M228,89L229,90 M236,89L237,90 M237,89L238,90 M238,89L239,90 M239,89L240,90 M240,89L241,90 M241,89L242,90 M274,89L275,90 M275,89L276,90 M298,89L299,90 M299,89L300,90 M300,89L301,90 M301,89L302,90 M302,89L303,90 M303,89L304,90 M330,89L331,90 M331,89L332,90 M47,90L48,91 M48,90L49,91 M103,90L104,91 M104,90L105,91 M105,90L106,91 M127,90L128,91 M128,90L129,91 M142,90L143,91 M143,90L144,91 M150,90L151,91 M151,90L152,91 M152,90L153,91 M171,90L172,91 M172,90L173,91 M173,90L174,91 M174,90L175,91 M186,90L187,91 M187,90L188,91 M211,90L212,91 M227,90L228,91 M228,90L229,91 M229,90L230,91 M230,90L231,91 M231,90L232,91 M232,90L233,91 M233,90L234,91 M234,90L235,91 M235,90L236,91 M236,90L237,91 M237,90L238,91 M238,90L239,91 M274,90L275,91 M275,90L276,91 M295,90L296,91 M296,90L297,91 M297,90L298,91 M298,90L299,91 M299,90L300,91 M46,91L47,92 M47,91L48,92 M105,91L106,92 M106,91L107,92 M107,91L108,92 M127,91L128,92 M128,91L129,92 M142,91L143,92 M143,91L144,92 M149,91L150,92 M150,91L151,92 M151,91L152,92 M173,91L174,92 M174,91L175,92 M175,91L176,92 M176,91L177,92 M177,91L178,92 M186,91L187,92 M187,91L188,92 M188,91L189,92 M210,91L211,92 M211,91L212,92 M232,91L233,92 M233,91L234,92 M274,91L275,92 M275,91L276,92 M293,91L294,92 M294,91L295,92 M295,91L296,92 M296,91L297,92 M44,92L45,93 M45,92L46,93 M46,92L47,93 M106,92L107,93 M107,92L108,93 M108,92L109,93 M109,92L110,93 M127,92L128,93 M143,92L144,93 M148,92L149,93 M149,92L150,93 M176,92L177,93 M177,92L178,93 M178,92L179,93 M179,92L180,93 M180,92L181,93 M187,92L188,93 M188,92L189,93 M210,92L211,93 M211,92L212,93 M274,92L275,93 M291,92L292,93 M292,92L293,93 M293,92L294,93 M294,92L295,93 M43,93L44,94 M44,93L45,94 M45,93L46,94 M108,93L109,94 M109,93L110,94 M110,93L111,94 M111,93L112,94 M127,93L128,94 M143,93L144,94 M144,93L145,94 M147,93L148,94 M148,93L149,94 M179,93L180,94 M180,93L181,94 M181,93L182,94 M182,93L183,94 M183,93L184,94 M184,93L185,94 M187,93L188,94 M188,93L189,94 M210,93L211,94 M211,93L212,94 M274,93L275,94 M290,93L291,94 M291,93L292,94 M292,93L293,94 M41,94L42,95 M42,94L43,95 M43,94L44,95 M44,94L45,95 M110,94L111,95 M111,94L112,95 M112,94L113,95 M113,94L114,95 M127,94L128,95 M143,94L144,95 M144,94L145,95 M146,94L147,95 M147,94L148,95 M182,94L183,95 M183,94L184,95 M184,94L185,95 M185,94L186,95 M186,94L187,95 M187,94L188,95 M188,94L189,95 M210,94L211,95 M273,94L274,95 M274,94L275,95 M288,94L289,95 M289,94L290,95 M290,94L291,95 M291,94L292,95 M40,95L41,96 M41,95L42,96 M42,95L43,96 M112,95L113,96 M113,95L114,96 M114,95L115,96 M115,95L116,96 M126,95L127,96 M127,95L128,96 M143,95L144,96 M144,95L145,96 M145,95L146,96 M146,95L147,96 M185,95L186,96 M186,95L187,96 M187,95L188,96 M188,95L189,96 M189,95L190,96 M190,95L191,96 M191,95L192,96 M192,95L193,96 M193,95L194,96 M209,95L210,96 M210,95L211,96 M274,95L275,96 M286,95L287,96 M287,95L288,96 M288,95L289,96 M289,95L290,96 M38,96L39,97 M39,96L40,97 M40,96L41,97 M114,96L115,97 M115,96L116,97 M116,96L117,97 M117,96L118,97 M118,96L119,97 M119,96L120,97 M125,96L126,97 M126,96L127,97 M143,96L144,97 M144,96L145,97 M145,96L146,97 M190,96L191,97 M191,96L192,97 M192,96L193,97 M193,96L194,97 M194,96L195,97 M195,96L196,97 M196,96L197,97 M197,96L198,97 M198,96L199,97 M209,96L210,97 M210,96L211,97 M214,96L215,97 M274,96L275,97 M285,96L286,97 M286,96L287,97 M287,96L288,97 M35,97L36,98 M36,97L37,98 M37,97L38,98 M38,97L39,98 M39,97L40,98 M117,97L118,98 M118,97L119,98 M119,97L120,98 M120,97L121,98 M121,97L122,98 M122,97L123,98 M123,97L124,98 M124,97L125,98 M125,97L126,98 M126,97L127,98 M143,97L144,98 M144,97L145,98 M195,97L196,98 M196,97L197,98 M197,97L198,98 M198,97L199,98 M199,97L200,98 M200,97L201,98 M201,97L202,98 M202,97L203,98 M203,97L204,98 M204,97L205,98 M205,97L206,98 M206,97L207,98 M207,97L208,98 M208,97L209,98 M209,97L210,98 M210,97L211,98 M211,97L212,98 M212,97L213,98 M213,97L214,98 M214,97L215,98 M274,97L275,98 M275,97L276,98 M283,97L284,98 M284,97L285,98 M285,97L286,98 M31,98L32,99 M32,98L33,99 M33,98L34,99 M34,98L35,99 M35,98L36,99 M36,98L37,99 M37,98L38,99 M122,98L123,99 M123,98L124,99 M124,98L125,99 M125,98L126,99 M200,98L201,99 M201,98L202,99 M202,98L203,99 M203,98L204,99 M204,98L205,99 M205,98L206,99 M206,98L207,99 M207,98L208,99 M208,98L209,99 M209,98L210,99 M210,98L211,99 M211,98L212,99 M212,98L213,99 M213,98L214,99 M275,98L276,99 M276,98L277,99 M277,98L278,99 M278,98L279,99 M279,98L280,99 M280,98L281,99 M281,98L282,99 M282,98L283,99 M283,98L284,99 M284,98L285,99 M29,99L30,100 M30,99L31,100 M31,99L32,100 M32,99L33,100 M33,99L34,100 M34,99L35,100 M209,99L210,100 M210,99L211,100 M211,99L212,100 M212,99L213,100 M277,99L278,100 M278,99L279,100 M279,99L280,100 M280,99L281,100 M281,99L282,100 M282,99L283,100 M209,100L210,101 M210,100L211,101" fill="none" stroke="black" />
    </svg>