<svg xmlns="http://www.w3.org/2000/svg" width="350" height="250">
        <path d="M233,6L234,7 M234,6L235,7 M233,7L234,8 M234,7L235,8 M233,8L234,9 M234,8L235,9 M233,9L234,10 M234,9L235,10 M233,10L234,11 M234,10L235,11 M233,11L234,12 M234,11L235,12 M233,12L234,13 M234,12L235,13 M233,13L234,14 M234,13L235,14 M233,14L234,15 M234,14L235,15 M233,15L234,16 M234,15L235,16 M233,16L234,17 M234,16L235,17 M233,17L234,18 M234,17L235,18 M233,18L234,19 M234,18L235,19 M60,19L61,20 M61,19L62,20 M105,19L106,20 M106,19L107,20 M107,19L108,20 M108,19L109,20 M109,19L110,20 M110,19L111,20 M111,19L112,20 M112,19L113,20 M113,19L114,20 M114,19L115,20 M115,19L116,20 M116,19L117,20 M117,19L118,20 M118,19L119,20 M119,19L120,20 M120,19L121,20 M121,19L122,20 M122,19L123,20 M123,19L124,20 M124,19L125,20 M125,19L126,20 M126,19L127,20 M127,19L128,20 M128,19L129,20 M129,19L130,20 M130,19L131,20 M131,19L132,20 M132,19L133,20 M133,19L134,20 M134,19L135,20 M135,19L136,20 M233,19L234,20 M234,19L235,20 M60,20L61,21 M61,20L62,21 M100,20L101,21 M101,20L102,21 M102,20L103,21 M103,20L104,21 M104,20L105,21 M105,20L106,21 M106,20L107,21 M107,20L108,21 M108,20L109,21 M109,20L110,21 M110,20L111,21 M111,20L112,21 M112,20L113,21 M113,20L114,21 M114,20L115,21 M115,20L116,21 M116,20L117,21 M117,20L118,21 M118,20L119,21 M119,20L120,21 M120,20L121,21 M121,20L122,21 M122,20L123,21 M123,20L124,21 M124,20L125,21 M125,20L126,21 M126,20L127,21 M127,20L128,21 M128,20L129,21 M129,20L130,21 M130,20L131,21 M131,20L132,21 M132,20L133,21 M133,20L134,21 M134,20L135,21 M135,20L136,21 M136,20L137,21 M137,20L138,21 M233,20L234,21 M234,20L235,21 M60,21L61,22 M61,21L62,22 M94,21L95,22 M95,21L96,22 M96,21L97,22 M97,21L98,22 M98,21L99,22 M99,21L100,22 M100,21L101,22 M101,21L102,22 M102,21L103,22 M103,21L104,22 M104,21L105,22 M136,21L137,22 M137,21L138,22 M138,21L139,22 M233,21L234,22 M234,21L235,22 M60,22L61,23 M61,22L62,23 M62,22L63,23 M92,22L93,23 M93,22L94,23 M94,22L95,23 M95,22L96,23 M96,22L97,23 M97,22L98,23 M98,22L99,23 M99,22L100,23 M137,22L138,23 M138,22L139,23 M233,22L234,23 M234,22L235,23 M60,23L61,24 M61,23L62,24 M62,23L63,24 M91,23L92,24 M92,23L93,24 M93,23L94,24 M94,23L95,24 M137,23L138,24 M138,23L139,24 M233,23L234,24 M234,23L235,24 M60,24L61,25 M61,24L62,25 M62,24L63,25 M89,24L90,25 M90,24L91,25 M91,24L92,25 M92,24L93,25 M137,24L138,25 M138,24L139,25 M233,24L234,25 M234,24L235,25 M60,25L61,26 M61,25L62,26 M62,25L63,26 M63,25L64,26 M87,25L88,26 M88,25L89,26 M89,25L90,26 M90,25L91,26 M137,25L138,26 M138,25L139,26 M232,25L233,26 M233,25L234,26 M234,25L235,26 M60,26L61,27 M61,26L62,27 M62,26L63,27 M63,26L64,27 M64,26L65,27 M86,26L87,27 M87,26L88,27 M88,26L89,27 M137,26L138,27 M138,26L139,27 M232,26L233,27 M233,26L234,27 M234,26L235,27 M60,27L61,28 M61,27L62,28 M63,27L64,28 M64,27L65,28 M84,27L85,28 M85,27L86,28 M86,27L87,28 M87,27L88,28 M136,27L137,28 M137,27L138,28 M138,27L139,28 M202,27L203,28 M232,27L233,28 M233,27L234,28 M234,27L235,28 M304,27L305,28 M305,27L306,28 M306,27L307,28 M307,27L308,28 M308,27L309,28 M309,27L310,28 M310,27L311,28 M311,27L312,28 M312,27L313,28 M313,27L314,28 M314,27L315,28 M315,27L316,28 M316,27L317,28 M317,27L318,28 M318,27L319,28 M319,27L320,28 M320,27L321,28 M321,27L322,28 M322,27L323,28 M323,27L324,28 M60,28L61,29 M61,28L62,29 M64,28L65,29 M65,28L66,29 M83,28L84,29 M84,28L85,29 M85,28L86,29 M136,28L137,29 M137,28L138,29 M200,28L201,29 M201,28L202,29 M202,28L203,29 M231,28L232,29 M232,28L233,29 M233,28L234,29 M234,28L235,29 M304,28L305,29 M305,28L306,29 M306,28L307,29 M307,28L308,29 M308,28L309,29 M309,28L310,29 M310,28L311,29 M311,28L312,29 M312,28L313,29 M313,28L314,29 M314,28L315,29 M315,28L316,29 M316,28L317,29 M317,28L318,29 M318,28L319,29 M319,28L320,29 M320,28L321,29 M321,28L322,29 M60,29L61,30 M61,29L62,30 M64,29L65,30 M65,29L66,30 M82,29L83,30 M83,29L84,30 M84,29L85,30 M135,29L136,30 M136,29L137,30 M199,29L200,30 M200,29L201,30 M201,29L202,30 M202,29L203,30 M231,29L232,30 M232,29L233,30 M233,29L234,30 M234,29L235,30 M318,29L319,30 M319,29L320,30 M320,29L321,30 M60,30L61,31 M61,30L62,31 M65,30L66,31 M66,30L67,31 M82,30L83,31 M83,30L84,31 M134,30L135,31 M135,30L136,31 M136,30L137,31 M198,30L199,31 M199,30L200,31 M200,30L201,31 M201,30L202,31 M202,30L203,31 M230,30L231,31 M231,30L232,31 M233,30L234,31 M234,30L235,31 M317,30L318,31 M318,30L319,31 M319,30L320,31 M42,31L43,32 M43,31L44,32 M60,31L61,32 M61,31L62,32 M65,31L66,32 M66,31L67,32 M81,31L82,32 M82,31L83,32 M83,31L84,32 M134,31L135,32 M135,31L136,32 M197,31L198,32 M198,31L199,32 M199,31L200,32 M201,31L202,32 M202,31L203,32 M229,31L230,32 M230,31L231,32 M231,31L232,32 M233,31L234,32 M234,31L235,32 M314,31L315,32 M315,31L316,32 M316,31L317,32 M317,31L318,32 M318,31L319,32 M42,32L43,33 M43,32L44,33 M44,32L45,33 M60,32L61,33 M61,32L62,33 M66,32L67,33 M67,32L68,33 M81,32L82,33 M82,32L83,33 M133,32L134,33 M134,32L135,33 M196,32L197,33 M197,32L198,33 M198,32L199,33 M201,32L202,33 M202,32L203,33 M228,32L229,33 M229,32L230,33 M230,32L231,33 M233,32L234,33 M234,32L235,33 M312,32L313,33 M313,32L314,33 M314,32L315,33 M315,32L316,33 M316,32L317,33 M43,33L44,34 M44,33L45,34 M60,33L61,34 M61,33L62,34 M66,33L67,34 M67,33L68,34 M80,33L81,34 M81,33L82,34 M82,33L83,34 M133,33L134,34 M134,33L135,34 M195,33L196,34 M196,33L197,34 M197,33L198,34 M201,33L202,34 M202,33L203,34 M227,33L228,34 M228,33L229,34 M229,33L230,34 M233,33L234,34 M234,33L235,34 M309,33L310,34 M310,33L311,34 M311,33L312,34 M312,33L313,34 M313,33L314,34 M314,33L315,34 M43,34L44,35 M44,34L45,35 M45,34L46,35 M60,34L61,35 M61,34L62,35 M66,34L67,35 M67,34L68,35 M68,34L69,35 M80,34L81,35 M81,34L82,35 M132,34L133,35 M133,34L134,35 M194,34L195,35 M195,34L196,35 M196,34L197,35 M201,34L202,35 M202,34L203,35 M219,34L220,35 M226,34L227,35 M227,34L228,35 M228,34L229,35 M233,34L234,35 M234,34L235,35 M307,34L308,35 M308,34L309,35 M309,34L310,35 M310,34L311,35 M311,34L312,35 M44,35L45,36 M45,35L46,36 M46,35L47,36 M51,35L52,36 M52,35L53,36 M60,35L61,36 M61,35L62,36 M67,35L68,36 M68,35L69,36 M80,35L81,36 M81,35L82,36 M82,35L83,36 M131,35L132,36 M132,35L133,36 M133,35L134,36 M193,35L194,36 M194,35L195,36 M195,35L196,36 M201,35L202,36 M202,35L203,36 M218,35L219,36 M219,35L220,36 M225,35L226,36 M226,35L227,36 M227,35L228,36 M233,35L234,36 M234,35L235,36 M304,35L305,36 M305,35L306,36 M306,35L307,36 M307,35L308,36 M308,35L309,36 M309,35L310,36 M44,36L45,37 M45,36L46,37 M46,36L47,37 M51,36L52,37 M52,36L53,37 M60,36L61,37 M61,36L62,37 M67,36L68,37 M68,36L69,37 M81,36L82,37 M82,36L83,37 M83,36L84,37 M130,36L131,37 M131,36L132,37 M132,36L133,37 M193,36L194,37 M194,36L195,37 M201,36L202,37 M202,36L203,37 M218,36L219,37 M219,36L220,37 M225,36L226,37 M226,36L227,37 M233,36L234,37 M234,36L235,37 M302,36L303,37 M303,36L304,37 M304,36L305,37 M305,36L306,37 M306,36L307,37 M45,37L46,38 M46,37L47,38 M47,37L48,38 M51,37L52,38 M52,37L53,38 M60,37L61,38 M61,37L62,38 M67,37L68,38 M68,37L69,38 M82,37L83,38 M83,37L84,38 M129,37L130,38 M130,37L131,38 M131,37L132,38 M192,37L193,38 M193,37L194,38 M201,37L202,38 M202,37L203,38 M217,37L218,38 M218,37L219,38 M219,37L220,38 M223,37L224,38 M224,37L225,38 M225,37L226,38 M233,37L234,38 M234,37L235,38 M299,37L300,38 M300,37L301,38 M301,37L302,38 M302,37L303,38 M303,37L304,38 M304,37L305,38 M45,38L46,39 M46,38L47,39 M47,38L48,39 M48,38L49,39 M51,38L52,39 M52,38L53,39 M60,38L61,39 M61,38L62,39 M67,38L68,39 M68,38L69,39 M83,38L84,39 M84,38L85,39 M85,38L86,39 M86,38L87,39 M128,38L129,39 M129,38L130,39 M130,38L131,39 M192,38L193,39 M193,38L194,39 M201,38L202,39 M202,38L203,39 M217,38L218,39 M218,38L219,39 M219,38L220,39 M220,38L221,39 M221,38L222,39 M222,38L223,39 M223,38L224,39 M224,38L225,39 M225,38L226,39 M233,38L234,39 M234,38L235,39 M296,38L297,39 M297,38L298,39 M298,38L299,39 M299,38L300,39 M300,38L301,39 M301,38L302,39 M45,39L46,40 M46,39L47,40 M47,39L48,40 M48,39L49,40 M51,39L52,40 M52,39L53,40 M60,39L61,40 M61,39L62,40 M67,39L68,40 M68,39L69,40 M83,39L84,40 M84,39L85,40 M85,39L86,40 M86,39L87,40 M87,39L88,40 M88,39L89,40 M89,39L90,40 M127,39L128,40 M128,39L129,40 M129,39L130,40 M191,39L192,40 M192,39L193,40 M201,39L202,40 M202,39L203,40 M217,39L218,40 M218,39L219,40 M219,39L220,40 M220,39L221,40 M221,39L222,40 M222,39L223,40 M233,39L234,40 M234,39L235,40 M294,39L295,40 M295,39L296,40 M296,39L297,40 M297,39L298,40 M298,39L299,40 M46,40L47,41 M47,40L48,41 M48,40L49,41 M49,40L50,41 M52,40L53,41 M53,40L54,41 M61,40L62,41 M62,40L63,41 M67,40L68,41 M68,40L69,41 M86,40L87,41 M87,40L88,41 M88,40L89,41 M89,40L90,41 M90,40L91,41 M91,40L92,41 M126,40L127,41 M127,40L128,41 M128,40L129,41 M190,40L191,41 M191,40L192,41 M192,40L193,41 M201,40L202,41 M202,40L203,41 M216,40L217,41 M217,40L218,41 M218,40L219,41 M219,40L220,41 M233,40L234,41 M234,40L235,41 M291,40L292,41 M292,40L293,41 M293,40L294,41 M294,40L295,41 M295,40L296,41 M296,40L297,41 M46,41L47,42 M47,41L48,42 M48,41L49,42 M49,41L50,42 M50,41L51,42 M52,41L53,42 M53,41L54,42 M61,41L62,42 M62,41L63,42 M67,41L68,42 M68,41L69,42 M89,41L90,42 M90,41L91,42 M91,41L92,42 M92,41L93,42 M93,41L94,42 M94,41L95,42 M125,41L126,42 M126,41L127,42 M127,41L128,42 M190,41L191,42 M191,41L192,42 M201,41L202,42 M202,41L203,42 M206,41L207,42 M216,41L217,42 M217,41L218,42 M233,41L234,42 M234,41L235,42 M289,41L290,42 M290,41L291,42 M291,41L292,42 M292,41L293,42 M293,41L294,42 M47,42L48,43 M48,42L49,43 M49,42L50,43 M50,42L51,43 M52,42L53,43 M53,42L54,43 M61,42L62,43 M62,42L63,43 M67,42L68,43 M68,42L69,43 M92,42L93,43 M93,42L94,43 M94,42L95,43 M95,42L96,43 M96,42L97,43 M97,42L98,43 M124,42L125,43 M125,42L126,43 M126,42L127,43 M189,42L190,43 M190,42L191,43 M191,42L192,43 M201,42L202,43 M202,42L203,43 M205,42L206,43 M206,42L207,43 M216,42L217,43 M217,42L218,43 M233,42L234,43 M234,42L235,43 M286,42L287,43 M287,42L288,43 M288,42L289,43 M289,42L290,43 M290,42L291,43 M291,42L292,43 M47,43L48,44 M48,43L49,44 M50,43L51,44 M51,43L52,44 M52,43L53,44 M53,43L54,44 M61,43L62,44 M62,43L63,44 M67,43L68,44 M68,43L69,44 M95,43L96,44 M96,43L97,44 M97,43L98,44 M98,43L99,44 M99,43L100,44 M100,43L101,44 M123,43L124,44 M124,43L125,44 M125,43L126,44 M189,43L190,44 M190,43L191,44 M201,43L202,44 M202,43L203,44 M204,43L205,44 M205,43L206,44 M206,43L207,44 M207,43L208,44 M215,43L216,44 M216,43L217,44 M233,43L234,44 M234,43L235,44 M283,43L284,44 M284,43L285,44 M285,43L286,44 M286,43L287,44 M287,43L288,44 M288,43L289,44 M47,44L48,45 M48,44L49,45 M50,44L51,45 M52,44L53,45 M53,44L54,45 M54,44L55,45 M61,44L62,45 M62,44L63,45 M67,44L68,45 M68,44L69,45 M98,44L99,45 M99,44L100,45 M100,44L101,45 M101,44L102,45 M102,44L103,45 M122,44L123,45 M123,44L124,45 M124,44L125,45 M188,44L189,45 M189,44L190,45 M201,44L202,45 M202,44L203,45 M204,44L205,45 M205,44L206,45 M206,44L207,45 M207,44L208,45 M215,44L216,45 M216,44L217,45 M233,44L234,45 M234,44L235,45 M280,44L281,45 M281,44L282,45 M282,44L283,45 M283,44L284,45 M284,44L285,45 M285,44L286,45 M48,45L49,46 M49,45L50,46 M53,45L54,46 M54,45L55,46 M61,45L62,46 M62,45L63,46 M67,45L68,46 M68,45L69,46 M100,45L101,46 M101,45L102,46 M102,45L103,46 M103,45L104,46 M104,45L105,46 M105,45L106,46 M121,45L122,46 M122,45L123,46 M123,45L124,46 M187,45L188,46 M188,45L189,46 M189,45L190,46 M201,45L202,46 M202,45L203,46 M204,45L205,46 M205,45L206,46 M206,45L207,46 M207,45L208,46 M215,45L216,46 M216,45L217,46 M233,45L234,46 M234,45L235,46 M277,45L278,46 M278,45L279,46 M279,45L280,46 M280,45L281,46 M281,45L282,46 M282,45L283,46 M48,46L49,47 M49,46L50,47 M53,46L54,47 M54,46L55,47 M55,46L56,47 M61,46L62,47 M62,46L63,47 M67,46L68,47 M68,46L69,47 M103,46L104,47 M104,46L105,47 M105,46L106,47 M106,46L107,47 M107,46L108,47 M108,46L109,47 M120,46L121,47 M121,46L122,47 M122,46L123,47 M187,46L188,47 M188,46L189,47 M201,46L202,47 M202,46L203,47 M204,46L205,47 M205,46L206,47 M207,46L208,47 M208,46L209,47 M215,46L216,47 M216,46L217,47 M233,46L234,47 M234,46L235,47 M274,46L275,47 M275,46L276,47 M276,46L277,47 M277,46L278,47 M278,46L279,47 M279,46L280,47 M48,47L49,48 M49,47L50,48 M50,47L51,48 M54,47L55,48 M55,47L56,48 M61,47L62,48 M62,47L63,48 M67,47L68,48 M68,47L69,48 M106,47L107,48 M107,47L108,48 M108,47L109,48 M109,47L110,48 M110,47L111,48 M119,47L120,48 M120,47L121,48 M121,47L122,48 M187,47L188,48 M188,47L189,48 M201,47L202,48 M202,47L203,48 M204,47L205,48 M205,47L206,48 M207,47L208,48 M208,47L209,48 M214,47L215,48 M215,47L216,48 M233,47L234,48 M234,47L235,48 M271,47L272,48 M272,47L273,48 M273,47L274,48 M274,47L275,48 M275,47L276,48 M276,47L277,48 M49,48L50,49 M50,48L51,49 M55,48L56,49 M56,48L57,49 M61,48L62,49 M62,48L63,49 M67,48L68,49 M68,48L69,49 M108,48L109,49 M109,48L110,49 M110,48L111,49 M111,48L112,49 M112,48L113,49 M113,48L114,49 M118,48L119,49 M119,48L120,49 M120,48L121,49 M186,48L187,49 M187,48L188,49 M188,48L189,49 M201,48L202,49 M202,48L203,49 M204,48L205,49 M205,48L206,49 M207,48L208,49 M208,48L209,49 M214,48L215,49 M215,48L216,49 M233,48L234,49 M234,48L235,49 M267,48L268,49 M268,48L269,49 M269,48L270,49 M270,48L271,49 M271,48L272,49 M272,48L273,49 M273,48L274,49 M49,49L50,50 M50,49L51,50 M55,49L56,50 M56,49L57,50 M61,49L62,50 M62,49L63,50 M67,49L68,50 M68,49L69,50 M111,49L112,50 M112,49L113,50 M113,49L114,50 M114,49L115,50 M115,49L116,50 M116,49L117,50 M117,49L118,50 M118,49L119,50 M119,49L120,50 M186,49L187,50 M187,49L188,50 M201,49L202,50 M202,49L203,50 M203,49L204,50 M204,49L205,50 M208,49L209,50 M209,49L210,50 M214,49L215,50 M215,49L216,50 M233,49L234,50 M234,49L235,50 M264,49L265,50 M265,49L266,50 M266,49L267,50 M267,49L268,50 M268,49L269,50 M269,49L270,50 M270,49L271,50 M49,50L50,51 M50,50L51,51 M51,50L52,51 M56,50L57,51 M57,50L58,51 M61,50L62,51 M62,50L63,51 M67,50L68,51 M68,50L69,51 M114,50L115,51 M115,50L116,51 M116,50L117,51 M117,50L118,51 M118,50L119,51 M186,50L187,51 M187,50L188,51 M201,50L202,51 M202,50L203,51 M203,50L204,51 M204,50L205,51 M208,50L209,51 M209,50L210,51 M214,50L215,51 M215,50L216,51 M233,50L234,51 M234,50L235,51 M261,50L262,51 M262,50L263,51 M263,50L264,51 M264,50L265,51 M265,50L266,51 M266,50L267,51 M267,50L268,51 M313,50L314,51 M314,50L315,51 M315,50L316,51 M316,50L317,51 M50,51L51,52 M51,51L52,52 M56,51L57,52 M57,51L58,52 M61,51L62,52 M62,51L63,52 M67,51L68,52 M68,51L69,52 M116,51L117,52 M117,51L118,52 M118,51L119,52 M119,51L120,52 M120,51L121,52 M186,51L187,52 M187,51L188,52 M201,51L202,52 M202,51L203,52 M203,51L204,52 M204,51L205,52 M208,51L209,52 M209,51L210,52 M210,51L211,52 M214,51L215,52 M215,51L216,52 M233,51L234,52 M234,51L235,52 M258,51L259,52 M259,51L260,52 M260,51L261,52 M261,51L262,52 M262,51L263,52 M263,51L264,52 M264,51L265,52 M309,51L310,52 M310,51L311,52 M311,51L312,52 M312,51L313,52 M313,51L314,52 M314,51L315,52 M50,52L51,53 M51,52L52,53 M57,52L58,53 M58,52L59,53 M61,52L62,53 M62,52L63,53 M67,52L68,53 M68,52L69,53 M115,52L116,53 M116,52L117,53 M118,52L119,53 M119,52L120,53 M120,52L121,53 M121,52L122,53 M185,52L186,53 M186,52L187,53 M187,52L188,53 M201,52L202,53 M202,52L203,53 M203,52L204,53 M204,52L205,53 M209,52L210,53 M210,52L211,53 M214,52L215,53 M215,52L216,53 M233,52L234,53 M234,52L235,53 M255,52L256,53 M256,52L257,53 M257,52L258,53 M258,52L259,53 M259,52L260,53 M260,52L261,53 M261,52L262,53 M307,52L308,53 M308,52L309,53 M309,52L310,53 M310,52L311,53 M311,52L312,53 M312,52L313,53 M51,53L52,54 M52,53L53,54 M57,53L58,54 M58,53L59,54 M62,53L63,54 M63,53L64,54 M67,53L68,54 M68,53L69,54 M114,53L115,54 M115,53L116,54 M120,53L121,54 M121,53L122,54 M122,53L123,54 M123,53L124,54 M185,53L186,54 M186,53L187,54 M201,53L202,54 M202,53L203,54 M203,53L204,54 M204,53L205,54 M209,53L210,54 M210,53L211,54 M213,53L214,54 M214,53L215,54 M233,53L234,54 M234,53L235,54 M252,53L253,54 M253,53L254,54 M254,53L255,54 M255,53L256,54 M256,53L257,54 M257,53L258,54 M304,53L305,54 M305,53L306,54 M306,53L307,54 M307,53L308,54 M308,53L309,54 M309,53L310,54 M310,53L311,54 M51,54L52,55 M52,54L53,55 M58,54L59,55 M59,54L60,55 M62,54L63,55 M63,54L64,55 M64,54L65,55 M65,54L66,55 M67,54L68,55 M68,54L69,55 M69,54L70,55 M113,54L114,55 M114,54L115,55 M122,54L123,55 M123,54L124,55 M124,54L125,55 M125,54L126,55 M185,54L186,55 M186,54L187,55 M201,54L202,55 M202,54L203,55 M203,54L204,55 M204,54L205,55 M210,54L211,55 M211,54L212,55 M213,54L214,55 M214,54L215,55 M233,54L234,55 M234,54L235,55 M249,54L250,55 M250,54L251,55 M251,54L252,55 M252,54L253,55 M253,54L254,55 M254,54L255,55 M302,54L303,55 M303,54L304,55 M304,54L305,55 M305,54L306,55 M306,54L307,55 M307,54L308,55 M308,54L309,55 M309,54L310,55 M51,55L52,56 M52,55L53,56 M58,55L59,56 M59,55L60,56 M60,55L61,56 M62,55L63,56 M63,55L64,56 M64,55L65,56 M65,55L66,56 M67,55L68,56 M68,55L69,56 M69,55L70,56 M114,55L115,56 M123,55L124,56 M124,55L125,56 M125,55L126,56 M126,55L127,56 M185,55L186,56 M186,55L187,56 M201,55L202,56 M202,55L203,56 M203,55L204,56 M204,55L205,56 M210,55L211,56 M211,55L212,56 M213,55L214,56 M214,55L215,56 M233,55L234,56 M234,55L235,56 M246,55L247,56 M247,55L248,56 M248,55L249,56 M249,55L250,56 M250,55L251,56 M251,55L252,56 M299,55L300,56 M300,55L301,56 M301,55L302,56 M302,55L303,56 M303,55L304,56 M304,55L305,56 M306,55L307,56 M307,55L308,56 M308,55L309,56 M52,56L53,57 M53,56L54,57 M59,56L60,57 M60,56L61,57 M62,56L63,57 M63,56L64,57 M64,56L65,57 M65,56L66,57 M66,56L67,57 M67,56L68,57 M68,56L69,57 M69,56L70,57 M125,56L126,57 M126,56L127,57 M127,56L128,57 M128,56L129,57 M184,56L185,57 M185,56L186,57 M186,56L187,57 M201,56L202,57 M202,56L203,57 M203,56L204,57 M204,56L205,57 M210,56L211,57 M211,56L212,57 M213,56L214,57 M214,56L215,57 M233,56L234,57 M234,56L235,57 M242,56L243,57 M243,56L244,57 M244,56L245,57 M245,56L246,57 M246,56L247,57 M247,56L248,57 M248,56L249,57 M297,56L298,57 M298,56L299,57 M299,56L300,57 M300,56L301,57 M301,56L302,57 M304,56L305,57 M305,56L306,57 M306,56L307,57 M307,56L308,57 M52,57L53,58 M53,57L54,58 M59,57L60,58 M60,57L61,58 M61,57L62,58 M62,57L63,58 M63,57L64,58 M64,57L65,58 M65,57L66,58 M66,57L67,58 M67,57L68,58 M68,57L69,58 M69,57L70,58 M127,57L128,58 M128,57L129,58 M129,57L130,58 M130,57L131,58 M184,57L185,58 M185,57L186,58 M201,57L202,58 M202,57L203,58 M203,57L204,58 M204,57L205,58 M210,57L211,58 M211,57L212,58 M212,57L213,58 M213,57L214,58 M233,57L234,58 M234,57L235,58 M239,57L240,58 M240,57L241,58 M241,57L242,58 M242,57L243,58 M243,57L244,58 M244,57L245,58 M245,57L246,58 M294,57L295,58 M295,57L296,58 M296,57L297,58 M297,57L298,58 M298,57L299,58 M299,57L300,58 M303,57L304,58 M304,57L305,58 M305,57L306,58 M52,58L53,59 M53,58L54,59 M60,58L61,59 M61,58L62,59 M62,58L63,59 M63,58L64,59 M64,58L65,59 M65,58L66,59 M66,58L67,59 M67,58L68,59 M68,58L69,59 M69,58L70,59 M128,58L129,59 M129,58L130,59 M130,58L131,59 M131,58L132,59 M184,58L185,59 M185,58L186,59 M201,58L202,59 M202,58L203,59 M203,58L204,59 M204,58L205,59 M210,58L211,59 M211,58L212,59 M212,58L213,59 M213,58L214,59 M233,58L234,59 M234,58L235,59 M236,58L237,59 M237,58L238,59 M238,58L239,59 M239,58L240,59 M240,58L241,59 M241,58L242,59 M242,58L243,59 M292,58L293,59 M293,58L294,59 M294,58L295,59 M295,58L296,59 M296,58L297,59 M302,58L303,59 M303,58L304,59 M304,58L305,59 M53,59L54,60 M54,59L55,60 M60,59L61,60 M61,59L62,60 M63,59L64,60 M64,59L65,60 M65,59L66,60 M66,59L67,60 M67,59L68,60 M68,59L69,60 M69,59L70,60 M130,59L131,60 M131,59L132,60 M132,59L133,60 M133,59L134,60 M184,59L185,60 M185,59L186,60 M201,59L202,60 M202,59L203,60 M203,59L204,60 M204,59L205,60 M210,59L211,60 M211,59L212,60 M212,59L213,60 M213,59L214,60 M233,59L234,60 M234,59L235,60 M235,59L236,60 M236,59L237,60 M237,59L238,60 M238,59L239,60 M239,59L240,60 M289,59L290,60 M290,59L291,60 M291,59L292,60 M292,59L293,60 M293,59L294,60 M294,59L295,60 M300,59L301,60 M301,59L302,60 M302,59L303,60 M303,59L304,60 M53,60L54,61 M54,60L55,61 M61,60L62,61 M62,60L63,61 M63,60L64,61 M64,60L65,61 M65,60L66,61 M66,60L67,61 M67,60L68,61 M68,60L69,61 M69,60L70,61 M132,60L133,61 M133,60L134,61 M134,60L135,61 M183,60L184,61 M184,60L185,61 M185,60L186,61 M202,60L203,61 M203,60L204,61 M204,60L205,61 M210,60L211,61 M211,60L212,61 M212,60L213,61 M213,60L214,61 M229,60L230,61 M230,60L231,61 M231,60L232,61 M232,60L233,61 M233,60L234,61 M234,60L235,61 M235,60L236,61 M236,60L237,61 M287,60L288,61 M288,60L289,61 M289,60L290,61 M290,60L291,61 M291,60L292,61 M299,60L300,61 M300,60L301,61 M301,60L302,61 M53,61L54,62 M54,61L55,62 M61,61L62,62 M62,61L63,62 M63,61L64,62 M64,61L65,62 M66,61L67,62 M67,61L68,62 M68,61L69,62 M69,61L70,62 M133,61L134,62 M134,61L135,62 M135,61L136,62 M183,61L184,62 M184,61L185,62 M202,61L203,62 M203,61L204,62 M204,61L205,62 M210,61L211,62 M211,61L212,62 M212,61L213,62 M225,61L226,62 M226,61L227,62 M227,61L228,62 M228,61L229,62 M229,61L230,62 M230,61L231,62 M231,61L232,62 M232,61L233,62 M233,61L234,62 M234,61L235,62 M284,61L285,62 M285,61L286,62 M286,61L287,62 M287,61L288,62 M288,61L289,62 M289,61L290,62 M298,61L299,62 M299,61L300,62 M300,61L301,62 M54,62L55,63 M55,62L56,63 M62,62L63,63 M63,62L64,63 M64,62L65,63 M66,62L67,63 M67,62L68,63 M68,62L69,63 M134,62L135,63 M135,62L136,63 M136,62L137,63 M183,62L184,63 M184,62L185,63 M202,62L203,63 M203,62L204,63 M204,62L205,63 M210,62L211,63 M211,62L212,63 M212,62L213,63 M221,62L222,63 M222,62L223,63 M223,62L224,63 M224,62L225,63 M225,62L226,63 M226,62L227,63 M227,62L228,63 M228,62L229,63 M233,62L234,63 M234,62L235,63 M282,62L283,63 M283,62L284,63 M284,62L285,63 M285,62L286,63 M286,62L287,63 M297,62L298,63 M298,62L299,63 M299,62L300,63 M54,63L55,64 M55,63L56,64 M62,63L63,64 M63,63L64,64 M64,63L65,64 M65,63L66,64 M66,63L67,64 M67,63L68,64 M68,63L69,64 M135,63L136,64 M136,63L137,64 M137,63L138,64 M183,63L184,64 M184,63L185,64 M202,63L203,64 M203,63L204,64 M204,63L205,64 M210,63L211,64 M211,63L212,64 M212,63L213,64 M217,63L218,64 M218,63L219,64 M219,63L220,64 M220,63L221,64 M221,63L222,64 M222,63L223,64 M223,63L224,64 M224,63L225,64 M233,63L234,64 M234,63L235,64 M279,63L280,64 M280,63L281,64 M281,63L282,64 M282,63L283,64 M283,63L284,64 M284,63L285,64 M295,63L296,64 M296,63L297,64 M297,63L298,64 M298,63L299,64 M54,64L55,65 M55,64L56,65 M62,64L63,65 M63,64L64,65 M64,64L65,65 M65,64L66,65 M66,64L67,65 M67,64L68,65 M68,64L69,65 M136,64L137,65 M137,64L138,65 M138,64L139,65 M183,64L184,65 M184,64L185,65 M202,64L203,65 M203,64L204,65 M204,64L205,65 M210,64L211,65 M211,64L212,65 M213,64L214,65 M214,64L215,65 M215,64L216,65 M216,64L217,65 M217,64L218,65 M218,64L219,65 M219,64L220,65 M220,64L221,65 M233,64L234,65 M234,64L235,65 M277,64L278,65 M278,64L279,65 M279,64L280,65 M280,64L281,65 M281,64L282,65 M294,64L295,65 M295,64L296,65 M296,64L297,65 M55,65L56,66 M56,65L57,66 M63,65L64,66 M64,65L65,66 M65,65L66,66 M67,65L68,66 M68,65L69,66 M137,65L138,66 M138,65L139,66 M139,65L140,66 M183,65L184,66 M184,65L185,66 M202,65L203,66 M203,65L204,66 M204,65L205,66 M205,65L206,66 M206,65L207,66 M207,65L208,66 M208,65L209,66 M209,65L210,66 M210,65L211,66 M211,65L212,66 M212,65L213,66 M213,65L214,66 M214,65L215,66 M215,65L216,66 M216,65L217,66 M233,65L234,66 M234,65L235,66 M274,65L275,66 M275,65L276,66 M276,65L277,66 M277,65L278,66 M278,65L279,66 M279,65L280,66 M293,65L294,66 M294,65L295,66 M295,65L296,66 M55,66L56,67 M56,66L57,67 M63,66L64,67 M64,66L65,67 M65,66L66,67 M66,66L67,67 M67,66L68,67 M68,66L69,67 M138,66L139,67 M139,66L140,67 M140,66L141,67 M183,66L184,67 M184,66L185,67 M203,66L204,67 M204,66L205,67 M205,66L206,67 M206,66L207,67 M207,66L208,67 M208,66L209,67 M209,66L210,67 M210,66L211,67 M211,66L212,67 M212,66L213,67 M233,66L234,67 M234,66L235,67 M271,66L272,67 M272,66L273,67 M273,66L274,67 M274,66L275,67 M275,66L276,67 M276,66L277,67 M291,66L292,67 M292,66L293,67 M293,66L294,67 M294,66L295,67 M55,67L56,68 M56,67L57,68 M64,67L65,68 M65,67L66,68 M66,67L67,68 M67,67L68,68 M68,67L69,68 M139,67L140,68 M140,67L141,68 M141,67L142,68 M184,67L185,68 M185,67L186,68 M201,67L202,68 M202,67L203,68 M203,67L204,68 M204,67L205,68 M205,67L206,68 M206,67L207,68 M207,67L208,68 M208,67L209,68 M210,67L211,68 M211,67L212,68 M233,67L234,68 M234,67L235,68 M269,67L270,68 M270,67L271,68 M271,67L272,68 M272,67L273,68 M273,67L274,68 M290,67L291,68 M291,67L292,68 M292,67L293,68 M56,68L57,69 M57,68L58,69 M64,68L65,69 M65,68L66,69 M66,68L67,69 M67,68L68,69 M68,68L69,69 M114,68L115,69 M115,68L116,69 M116,68L117,69 M117,68L118,69 M118,68L119,69 M119,68L120,69 M120,68L121,69 M121,68L122,69 M122,68L123,69 M123,68L124,69 M124,68L125,69 M125,68L126,69 M126,68L127,69 M127,68L128,69 M128,68L129,69 M129,68L130,69 M130,68L131,69 M131,68L132,69 M132,68L133,69 M133,68L134,69 M134,68L135,69 M135,68L136,69 M136,68L137,69 M137,68L138,69 M138,68L139,69 M139,68L140,69 M140,68L141,69 M141,68L142,69 M142,68L143,69 M184,68L185,69 M185,68L186,69 M197,68L198,69 M198,68L199,69 M199,68L200,69 M200,68L201,69 M201,68L202,69 M202,68L203,69 M203,68L204,69 M204,68L205,69 M210,68L211,69 M211,68L212,69 M233,68L234,69 M234,68L235,69 M266,68L267,69 M267,68L268,69 M268,68L269,69 M269,68L270,69 M270,68L271,69 M271,68L272,69 M288,68L289,69 M289,68L290,69 M290,68L291,69 M291,68L292,69 M56,69L57,70 M57,69L58,70 M65,69L66,70 M66,69L67,70 M67,69L68,70 M68,69L69,70 M105,69L106,70 M106,69L107,70 M107,69L108,70 M108,69L109,70 M109,69L110,70 M110,69L111,70 M111,69L112,70 M112,69L113,70 M113,69L114,70 M114,69L115,70 M115,69L116,70 M116,69L117,70 M117,69L118,70 M118,69L119,70 M119,69L120,70 M120,69L121,70 M121,69L122,70 M122,69L123,70 M123,69L124,70 M124,69L125,70 M125,69L126,70 M126,69L127,70 M127,69L128,70 M128,69L129,70 M129,69L130,70 M130,69L131,70 M131,69L132,70 M132,69L133,70 M133,69L134,70 M134,69L135,70 M135,69L136,70 M136,69L137,70 M137,69L138,70 M138,69L139,70 M141,69L142,70 M142,69L143,70 M143,69L144,70 M184,69L185,70 M185,69L186,70 M193,69L194,70 M194,69L195,70 M195,69L196,70 M196,69L197,70 M197,69L198,70 M198,69L199,70 M199,69L200,70 M200,69L201,70 M203,69L204,70 M204,69L205,70 M210,69L211,70 M211,69L212,70 M233,69L234,70 M234,69L235,70 M264,69L265,70 M265,69L266,70 M266,69L267,70 M267,69L268,70 M268,69L269,70 M287,69L288,70 M288,69L289,70 M289,69L290,70 M56,70L57,71 M57,70L58,71 M58,70L59,71 M65,70L66,71 M66,70L67,71 M67,70L68,71 M68,70L69,71 M105,70L106,71 M106,70L107,71 M107,70L108,71 M108,70L109,71 M109,70L110,71 M110,70L111,71 M111,70L112,71 M112,70L113,71 M113,70L114,71 M135,70L136,71 M136,70L137,71 M137,70L138,71 M142,70L143,71 M143,70L144,71 M144,70L145,71 M184,70L185,71 M185,70L186,71 M189,70L190,71 M190,70L191,71 M191,70L192,71 M192,70L193,71 M193,70L194,71 M194,70L195,71 M195,70L196,71 M196,70L197,71 M203,70L204,71 M204,70L205,71 M210,70L211,71 M211,70L212,71 M233,70L234,71 M234,70L235,71 M261,70L262,71 M262,70L263,71 M263,70L264,71 M264,70L265,71 M265,70L266,71 M266,70L267,71 M285,70L286,71 M286,70L287,71 M287,70L288,71 M288,70L289,71 M57,71L58,72 M58,71L59,72 M65,71L66,72 M66,71L67,72 M67,71L68,72 M68,71L69,72 M132,71L133,72 M133,71L134,72 M134,71L135,72 M135,71L136,72 M136,71L137,72 M143,71L144,72 M144,71L145,72 M145,71L146,72 M184,71L185,72 M185,71L186,72 M186,71L187,72 M187,71L188,72 M188,71L189,72 M189,71L190,72 M190,71L191,72 M191,71L192,72 M192,71L193,72 M203,71L204,72 M204,71L205,72 M210,71L211,72 M211,71L212,72 M233,71L234,72 M234,71L235,72 M258,71L259,72 M259,71L260,72 M260,71L261,72 M261,71L262,72 M262,71L263,72 M263,71L264,72 M284,71L285,72 M285,71L286,72 M286,71L287,72 M57,72L58,73 M58,72L59,73 M65,72L66,73 M66,72L67,73 M67,72L68,73 M68,72L69,73 M129,72L130,73 M130,72L131,73 M131,72L132,73 M132,72L133,73 M133,72L134,73 M134,72L135,73 M144,72L145,73 M145,72L146,73 M146,72L147,73 M181,72L182,73 M182,72L183,73 M183,72L184,73 M184,72L185,73 M185,72L186,73 M186,72L187,73 M187,72L188,73 M188,72L189,73 M189,72L190,73 M190,72L191,73 M191,72L192,73 M192,72L193,73 M193,72L194,73 M194,72L195,73 M195,72L196,73 M196,72L197,73 M197,72L198,73 M198,72L199,73 M199,72L200,73 M204,72L205,73 M205,72L206,73 M210,72L211,73 M211,72L212,73 M233,72L234,73 M234,72L235,73 M256,72L257,73 M257,72L258,73 M258,72L259,73 M259,72L260,73 M260,72L261,73 M282,72L283,73 M283,72L284,73 M284,72L285,73 M285,72L286,73 M58,73L59,74 M59,73L60,74 M64,73L65,74 M65,73L66,74 M66,73L67,74 M67,73L68,74 M68,73L69,74 M127,73L128,74 M128,73L129,74 M129,73L130,74 M130,73L131,74 M131,73L132,74 M132,73L133,74 M145,73L146,74 M146,73L147,74 M147,73L148,74 M177,73L178,74 M178,73L179,74 M179,73L180,74 M180,73L181,74 M181,73L182,74 M182,73L183,74 M183,73L184,74 M184,73L185,74 M189,73L190,74 M190,73L191,74 M191,73L192,74 M192,73L193,74 M193,73L194,74 M194,73L195,74 M195,73L196,74 M196,73L197,74 M197,73L198,74 M198,73L199,74 M199,73L200,74 M200,73L201,74 M201,73L202,74 M204,73L205,74 M205,73L206,74 M210,73L211,74 M211,73L212,74 M233,73L234,74 M234,73L235,74 M253,73L254,74 M254,73L255,74 M255,73L256,74 M256,73L257,74 M257,73L258,74 M258,73L259,74 M281,73L282,74 M282,73L283,74 M283,73L284,74 M58,74L59,75 M59,74L60,75 M64,74L65,75 M65,74L66,75 M66,74L67,75 M67,74L68,75 M68,74L69,75 M124,74L125,75 M125,74L126,75 M126,74L127,75 M127,74L128,75 M128,74L129,75 M129,74L130,75 M146,74L147,75 M147,74L148,75 M173,74L174,75 M174,74L175,75 M175,74L176,75 M176,74L177,75 M177,74L178,75 M178,74L179,75 M179,74L180,75 M180,74L181,75 M200,74L201,75 M204,74L205,75 M205,74L206,75 M210,74L211,75 M211,74L212,75 M233,74L234,75 M234,74L235,75 M250,74L251,75 M251,74L252,75 M252,74L253,75 M253,74L254,75 M254,74L255,75 M255,74L256,75 M279,74L280,75 M280,74L281,75 M281,74L282,75 M282,74L283,75 M58,75L59,76 M59,75L60,76 M60,75L61,76 M64,75L65,76 M65,75L66,76 M66,75L67,76 M67,75L68,76 M68,75L69,76 M121,75L122,76 M122,75L123,76 M123,75L124,76 M124,75L125,76 M125,75L126,76 M126,75L127,76 M147,75L148,76 M148,75L149,76 M169,75L170,76 M170,75L171,76 M171,75L172,76 M172,75L173,76 M173,75L174,76 M174,75L175,76 M175,75L176,76 M176,75L177,76 M204,75L205,76 M205,75L206,76 M210,75L211,76 M211,75L212,76 M233,75L234,76 M234,75L235,76 M247,75L248,76 M248,75L249,76 M249,75L250,76 M250,75L251,76 M251,75L252,76 M252,75L253,76 M278,75L279,76 M279,75L280,76 M280,75L281,76 M59,76L60,77 M60,76L61,77 M63,76L64,77 M64,76L65,77 M66,76L67,77 M67,76L68,77 M68,76L69,77 M118,76L119,77 M119,76L120,77 M120,76L121,77 M121,76L122,77 M122,76L123,77 M123,76L124,77 M147,76L148,77 M148,76L149,77 M166,76L167,77 M167,76L168,77 M168,76L169,77 M169,76L170,77 M170,76L171,77 M171,76L172,77 M172,76L173,77 M205,76L206,77 M206,76L207,77 M209,76L210,77 M210,76L211,77 M233,76L234,77 M234,76L235,77 M244,76L245,77 M245,76L246,77 M246,76L247,77 M247,76L248,77 M248,76L249,77 M249,76L250,77 M276,76L277,77 M277,76L278,77 M278,76L279,77 M279,76L280,77 M60,77L61,78 M61,77L62,78 M62,77L63,78 M63,77L64,78 M64,77L65,78 M66,77L67,78 M67,77L68,78 M68,77L69,78 M113,77L114,78 M114,77L115,78 M115,77L116,78 M116,77L117,78 M117,77L118,78 M118,77L119,78 M119,77L120,78 M120,77L121,78 M121,77L122,78 M122,77L123,78 M123,77L124,78 M124,77L125,78 M125,77L126,78 M126,77L127,78 M127,77L128,78 M128,77L129,78 M129,77L130,78 M130,77L131,78 M131,77L132,78 M147,77L148,78 M148,77L149,78 M149,77L150,78 M162,77L163,78 M163,77L164,78 M164,77L165,78 M165,77L166,78 M166,77L167,78 M167,77L168,78 M168,77L169,78 M169,77L170,78 M205,77L206,78 M206,77L207,78 M209,77L210,78 M210,77L211,78 M233,77L234,78 M234,77L235,78 M241,77L242,78 M242,77L243,78 M243,77L244,78 M244,77L245,78 M245,77L246,78 M246,77L247,78 M274,77L275,78 M275,77L276,78 M276,77L277,78 M277,77L278,78 M60,78L61,79 M61,78L62,79 M62,78L63,79 M63,78L64,79 M64,78L65,79 M66,78L67,79 M67,78L68,79 M68,78L69,79 M105,78L106,79 M106,78L107,79 M107,78L108,79 M108,78L109,79 M109,78L110,79 M110,78L111,79 M111,78L112,79 M112,78L113,79 M113,78L114,79 M114,78L115,79 M115,78L116,79 M116,78L117,79 M117,78L118,79 M118,78L119,79 M119,78L120,79 M120,78L121,79 M121,78L122,79 M122,78L123,79 M123,78L124,79 M124,78L125,79 M125,78L126,79 M126,78L127,79 M127,78L128,79 M128,78L129,79 M129,78L130,79 M130,78L131,79 M131,78L132,79 M148,78L149,79 M149,78L150,79 M158,78L159,79 M159,78L160,79 M160,78L161,79 M161,78L162,79 M162,78L163,79 M163,78L164,79 M164,78L165,79 M165,78L166,79 M205,78L206,79 M206,78L207,79 M207,78L208,79 M209,78L210,79 M210,78L211,79 M233,78L234,79 M234,78L235,79 M238,78L239,79 M239,78L240,79 M240,78L241,79 M241,78L242,79 M242,78L243,79 M243,78L244,79 M273,78L274,79 M274,78L275,79 M275,78L276,79 M276,78L277,79 M66,79L67,80 M67,79L68,80 M68,79L69,80 M96,79L97,80 M97,79L98,80 M98,79L99,80 M99,79L100,80 M100,79L101,80 M101,79L102,80 M102,79L103,80 M103,79L104,80 M104,79L105,80 M105,79L106,80 M106,79L107,80 M107,79L108,80 M108,79L109,80 M109,79L110,80 M110,79L111,80 M111,79L112,80 M112,79L113,80 M113,79L114,80 M114,79L115,80 M116,79L117,80 M117,79L118,80 M118,79L119,80 M119,79L120,80 M120,79L121,80 M121,79L122,80 M122,79L123,80 M123,79L124,80 M124,79L125,80 M125,79L126,80 M148,79L149,80 M149,79L150,80 M154,79L155,80 M155,79L156,80 M156,79L157,80 M157,79L158,80 M158,79L159,80 M159,79L160,80 M160,79L161,80 M161,79L162,80 M206,79L207,80 M207,79L208,80 M209,79L210,80 M210,79L211,80 M233,79L234,80 M234,79L235,80 M235,79L236,80 M236,79L237,80 M237,79L238,80 M238,79L239,80 M239,79L240,80 M240,79L241,80 M271,79L272,80 M272,79L273,80 M273,79L274,80 M274,79L275,80 M67,80L68,81 M68,80L69,81 M88,80L89,81 M89,80L90,81 M90,80L91,81 M91,80L92,81 M92,80L93,81 M93,80L94,81 M94,80L95,81 M95,80L96,81 M96,80L97,81 M97,80L98,81 M98,80L99,81 M99,80L100,81 M100,80L101,81 M101,80L102,81 M102,80L103,81 M103,80L104,81 M104,80L105,81 M105,80L106,81 M106,80L107,81 M107,80L108,81 M108,80L109,81 M109,80L110,81 M110,80L111,81 M113,80L114,81 M114,80L115,81 M115,80L116,81 M116,80L117,81 M117,80L118,81 M118,80L119,81 M119,80L120,81 M149,80L150,81 M150,80L151,81 M151,80L152,81 M152,80L153,81 M153,80L154,81 M154,80L155,81 M155,80L156,81 M156,80L157,81 M157,80L158,81 M206,80L207,81 M207,80L208,81 M209,80L210,81 M210,80L211,81 M232,80L233,81 M233,80L234,81 M234,80L235,81 M235,80L236,81 M236,80L237,81 M237,80L238,81 M270,80L271,81 M271,80L272,81 M272,80L273,81 M273,80L274,81 M67,81L68,82 M68,81L69,82 M83,81L84,82 M84,81L85,82 M85,81L86,82 M86,81L87,82 M87,81L88,82 M88,81L89,82 M89,81L90,82 M90,81L91,82 M91,81L92,82 M92,81L93,82 M93,81L94,82 M94,81L95,82 M95,81L96,82 M100,81L101,82 M101,81L102,82 M102,81L103,82 M103,81L104,82 M104,81L105,82 M105,81L106,82 M106,81L107,82 M107,81L108,82 M110,81L111,82 M111,81L112,82 M112,81L113,82 M113,81L114,82 M114,81L115,82 M115,81L116,82 M147,81L148,82 M148,81L149,82 M149,81L150,82 M150,81L151,82 M151,81L152,82 M152,81L153,82 M153,81L154,82 M154,81L155,82 M207,81L208,82 M208,81L209,82 M209,81L210,82 M210,81L211,82 M229,81L230,82 M230,81L231,82 M231,81L232,82 M232,81L233,82 M233,81L234,82 M234,81L235,82 M268,81L269,82 M269,81L270,82 M270,81L271,82 M271,81L272,82 M67,82L68,83 M68,82L69,83 M78,82L79,83 M79,82L80,83 M80,82L81,83 M81,82L82,83 M82,82L83,83 M83,82L84,83 M84,82L85,83 M85,82L86,83 M86,82L87,83 M87,82L88,83 M97,82L98,83 M98,82L99,83 M99,82L100,83 M100,82L101,83 M101,82L102,83 M102,82L103,83 M103,82L104,83 M107,82L108,83 M108,82L109,83 M109,82L110,83 M110,82L111,83 M111,82L112,83 M112,82L113,83 M143,82L144,83 M144,82L145,83 M145,82L146,83 M146,82L147,83 M147,82L148,83 M148,82L149,83 M149,82L150,83 M150,82L151,83 M151,82L152,83 M207,82L208,83 M208,82L209,83 M209,82L210,83 M210,82L211,83 M226,82L227,83 M227,82L228,83 M228,82L229,83 M229,82L230,83 M230,82L231,83 M231,82L232,83 M233,82L234,83 M234,82L235,83 M267,82L268,83 M268,82L269,83 M269,82L270,83 M67,83L68,84 M68,83L69,84 M73,83L74,84 M74,83L75,84 M75,83L76,84 M76,83L77,84 M77,83L78,84 M78,83L79,84 M79,83L80,84 M80,83L81,84 M81,83L82,84 M82,83L83,84 M93,83L94,84 M94,83L95,84 M95,83L96,84 M96,83L97,84 M97,83L98,84 M98,83L99,84 M99,83L100,84 M100,83L101,84 M104,83L105,84 M105,83L106,84 M106,83L107,84 M107,83L108,84 M108,83L109,84 M109,83L110,84 M139,83L140,84 M140,83L141,84 M141,83L142,84 M142,83L143,84 M143,83L144,84 M144,83L145,84 M145,83L146,84 M146,83L147,84 M150,83L151,84 M151,83L152,84 M207,83L208,84 M208,83L209,84 M223,83L224,84 M224,83L225,84 M225,83L226,84 M226,83L227,84 M227,83L228,84 M228,83L229,84 M233,83L234,84 M234,83L235,84 M265,83L266,84 M266,83L267,84 M267,83L268,84 M268,83L269,84 M67,84L68,85 M68,84L69,85 M72,84L73,85 M73,84L74,85 M74,84L75,85 M75,84L76,85 M76,84L77,85 M77,84L78,85 M89,84L90,85 M90,84L91,85 M91,84L92,85 M92,84L93,85 M93,84L94,85 M94,84L95,85 M95,84L96,85 M96,84L97,85 M101,84L102,85 M102,84L103,85 M103,84L104,85 M104,84L105,85 M105,84L106,85 M106,84L107,85 M135,84L136,85 M136,84L137,85 M137,84L138,85 M138,84L139,85 M139,84L140,85 M140,84L141,85 M141,84L142,85 M142,84L143,85 M150,84L151,85 M151,84L152,85 M220,84L221,85 M221,84L222,85 M222,84L223,85 M223,84L224,85 M224,84L225,85 M225,84L226,85 M233,84L234,85 M234,84L235,85 M263,84L264,85 M264,84L265,85 M265,84L266,85 M266,84L267,85 M67,85L68,86 M68,85L69,86 M69,85L70,86 M70,85L71,86 M71,85L72,86 M72,85L73,86 M73,85L74,86 M86,85L87,86 M87,85L88,86 M88,85L89,86 M89,85L90,86 M90,85L91,86 M91,85L92,86 M92,85L93,86 M98,85L99,86 M99,85L100,86 M100,85L101,86 M101,85L102,86 M102,85L103,86 M103,85L104,86 M132,85L133,86 M133,85L134,86 M134,85L135,86 M135,85L136,86 M136,85L137,86 M137,85L138,86 M138,85L139,86 M150,85L151,86 M151,85L152,86 M217,85L218,86 M218,85L219,86 M219,85L220,86 M220,85L221,86 M221,85L222,86 M222,85L223,86 M233,85L234,86 M234,85L235,86 M261,85L262,86 M262,85L263,86 M263,85L264,86 M264,85L265,86 M265,85L266,86 M68,86L69,87 M69,86L70,87 M70,86L71,87 M71,86L72,87 M82,86L83,87 M83,86L84,87 M84,86L85,87 M85,86L86,87 M86,86L87,87 M87,86L88,87 M88,86L89,87 M89,86L90,87 M95,86L96,87 M96,86L97,87 M97,86L98,87 M98,86L99,87 M99,86L100,87 M100,86L101,87 M128,86L129,87 M129,86L130,87 M130,86L131,87 M131,86L132,87 M132,86L133,87 M133,86L134,87 M134,86L135,87 M135,86L136,87 M150,86L151,87 M151,86L152,87 M214,86L215,87 M215,86L216,87 M216,86L217,87 M217,86L218,87 M218,86L219,87 M219,86L220,87 M233,86L234,87 M234,86L235,87 M260,86L261,87 M261,86L262,87 M262,86L263,87 M263,86L264,87 M68,87L69,88 M69,87L70,88 M70,87L71,88 M78,87L79,88 M79,87L80,88 M80,87L81,88 M81,87L82,88 M82,87L83,88 M83,87L84,88 M84,87L85,88 M85,87L86,88 M92,87L93,88 M93,87L94,88 M94,87L95,88 M95,87L96,88 M96,87L97,88 M97,87L98,88 M124,87L125,88 M125,87L126,88 M126,87L127,88 M127,87L128,88 M128,87L129,88 M129,87L130,88 M130,87L131,88 M131,87L132,88 M150,87L151,88 M151,87L152,88 M210,87L211,88 M211,87L212,88 M212,87L213,88 M213,87L214,88 M214,87L215,88 M215,87L216,88 M216,87L217,88 M233,87L234,88 M234,87L235,88 M258,87L259,88 M259,87L260,88 M260,87L261,88 M261,87L262,88 M67,88L68,89 M68,88L69,89 M69,88L70,89 M74,88L75,89 M75,88L76,89 M76,88L77,89 M77,88L78,89 M78,88L79,89 M79,88L80,89 M80,88L81,89 M81,88L82,89 M89,88L90,89 M90,88L91,89 M91,88L92,89 M92,88L93,89 M93,88L94,89 M94,88L95,89 M120,88L121,89 M121,88L122,89 M122,88L123,89 M123,88L124,89 M124,88L125,89 M125,88L126,89 M126,88L127,89 M127,88L128,89 M150,88L151,89 M151,88L152,89 M206,88L207,89 M207,88L208,89 M208,88L209,89 M209,88L210,89 M210,88L211,89 M211,88L212,89 M212,88L213,89 M213,88L214,89 M233,88L234,89 M234,88L235,89 M256,88L257,89 M257,88L258,89 M258,88L259,89 M259,88L260,89 M66,89L67,90 M67,89L68,90 M68,89L69,90 M69,89L70,90 M70,89L71,90 M71,89L72,90 M72,89L73,90 M73,89L74,90 M74,89L75,90 M75,89L76,90 M76,89L77,90 M77,89L78,90 M85,89L86,90 M86,89L87,90 M87,89L88,90 M88,89L89,90 M89,89L90,90 M90,89L91,90 M91,89L92,90 M116,89L117,90 M117,89L118,90 M118,89L119,90 M119,89L120,90 M120,89L121,90 M121,89L122,90 M122,89L123,90 M123,89L124,90 M149,89L150,90 M150,89L151,90 M151,89L152,90 M203,89L204,90 M204,89L205,90 M205,89L206,90 M206,89L207,90 M207,89L208,90 M208,89L209,90 M209,89L210,90 M233,89L234,90 M234,89L235,90 M255,89L256,90 M256,89L257,90 M257,89L258,90 M66,90L67,91 M67,90L68,91 M68,90L69,91 M69,90L70,91 M70,90L71,91 M71,90L72,91 M72,90L73,91 M73,90L74,91 M82,90L83,91 M83,90L84,91 M84,90L85,91 M85,90L86,91 M86,90L87,91 M87,90L88,91 M88,90L89,91 M111,90L112,91 M112,90L113,91 M113,90L114,91 M114,90L115,91 M115,90L116,91 M116,90L117,91 M117,90L118,91 M118,90L119,91 M119,90L120,91 M148,90L149,91 M149,90L150,91 M150,90L151,91 M199,90L200,91 M200,90L201,91 M201,90L202,91 M202,90L203,91 M203,90L204,91 M204,90L205,91 M205,90L206,91 M233,90L234,91 M234,90L235,91 M63,91L64,92 M64,91L65,92 M65,91L66,92 M66,91L67,92 M67,91L68,92 M68,91L69,92 M69,91L70,92 M70,91L71,92 M78,91L79,92 M79,91L80,92 M80,91L81,92 M81,91L82,92 M82,91L83,92 M83,91L84,92 M84,91L85,92 M107,91L108,92 M108,91L109,92 M109,91L110,92 M110,91L111,92 M111,91L112,92 M112,91L113,92 M113,91L114,92 M114,91L115,92 M115,91L116,92 M147,91L148,92 M148,91L149,92 M149,91L150,92 M195,91L196,92 M196,91L197,92 M197,91L198,92 M198,91L199,92 M199,91L200,92 M200,91L201,92 M201,91L202,92 M202,91L203,92 M233,91L234,92 M234,91L235,92 M61,92L62,93 M62,92L63,93 M63,92L64,93 M64,92L65,93 M65,92L66,93 M66,92L67,93 M67,92L68,93 M69,92L70,93 M70,92L71,93 M75,92L76,93 M76,92L77,93 M77,92L78,93 M78,92L79,93 M79,92L80,93 M80,92L81,93 M81,92L82,93 M102,92L103,93 M103,92L104,93 M104,92L105,93 M105,92L106,93 M106,92L107,93 M107,92L108,93 M108,92L109,93 M109,92L110,93 M110,92L111,93 M145,92L146,93 M146,92L147,93 M147,92L148,93 M148,92L149,93 M192,92L193,93 M193,92L194,93 M194,92L195,93 M195,92L196,93 M196,92L197,93 M197,92L198,93 M198,92L199,93 M233,92L234,93 M234,92L235,93 M58,93L59,94 M59,93L60,94 M60,93L61,94 M61,93L62,94 M62,93L63,94 M63,93L64,94 M66,93L67,94 M67,93L68,94 M69,93L70,94 M70,93L71,94 M71,93L72,94 M72,93L73,94 M73,93L74,94 M74,93L75,94 M75,93L76,94 M76,93L77,94 M77,93L78,94 M98,93L99,94 M99,93L100,94 M100,93L101,94 M101,93L102,94 M102,93L103,94 M103,93L104,94 M104,93L105,94 M105,93L106,94 M106,93L107,94 M144,93L145,94 M145,93L146,94 M146,93L147,94 M188,93L189,94 M189,93L190,94 M190,93L191,94 M191,93L192,94 M192,93L193,94 M193,93L194,94 M194,93L195,94 M233,93L234,94 M234,93L235,94 M55,94L56,95 M56,94L57,95 M57,94L58,95 M58,94L59,95 M59,94L60,95 M60,94L61,95 M66,94L67,95 M67,94L68,95 M68,94L69,95 M69,94L70,95 M70,94L71,95 M71,94L72,95 M72,94L73,95 M73,94L74,95 M74,94L75,95 M93,94L94,95 M94,94L95,95 M95,94L96,95 M96,94L97,95 M97,94L98,95 M98,94L99,95 M99,94L100,95 M100,94L101,95 M101,94L102,95 M143,94L144,95 M144,94L145,95 M145,94L146,95 M184,94L185,95 M185,94L186,95 M186,94L187,95 M187,94L188,95 M188,94L189,95 M189,94L190,95 M190,94L191,95 M191,94L192,95 M233,94L234,95 M234,94L235,95 M53,95L54,96 M54,95L55,96 M55,95L56,96 M56,95L57,96 M57,95L58,96 M64,95L65,96 M65,95L66,96 M66,95L67,96 M67,95L68,96 M68,95L69,96 M69,95L70,96 M70,95L71,96 M88,95L89,96 M89,95L90,96 M90,95L91,96 M91,95L92,96 M92,95L93,96 M93,95L94,96 M94,95L95,96 M95,95L96,96 M96,95L97,96 M97,95L98,96 M141,95L142,96 M142,95L143,96 M143,95L144,96 M144,95L145,96 M182,95L183,96 M183,95L184,96 M184,95L185,96 M185,95L186,96 M186,95L187,96 M187,95L188,96 M233,95L234,96 M234,95L235,96 M50,96L51,97 M51,96L52,97 M52,96L53,97 M53,96L54,97 M54,96L55,97 M55,96L56,97 M61,96L62,97 M62,96L63,97 M63,96L64,97 M64,96L65,97 M65,96L66,97 M66,96L67,97 M67,96L68,97 M68,96L69,97 M70,96L71,97 M71,96L72,97 M84,96L85,97 M85,96L86,97 M86,96L87,97 M87,96L88,97 M88,96L89,97 M89,96L90,97 M90,96L91,97 M91,96L92,97 M92,96L93,97 M138,96L139,97 M139,96L140,97 M140,96L141,97 M141,96L142,97 M142,96L143,97 M179,96L180,97 M180,96L181,97 M181,96L182,97 M182,96L183,97 M183,96L184,97 M233,96L234,97 M234,96L235,97 M47,97L48,98 M48,97L49,98 M49,97L50,98 M50,97L51,98 M51,97L52,98 M52,97L53,98 M58,97L59,98 M59,97L60,98 M60,97L61,98 M61,97L62,98 M62,97L63,98 M63,97L64,98 M67,97L68,98 M68,97L69,98 M70,97L71,98 M71,97L72,98 M79,97L80,98 M80,97L81,98 M81,97L82,98 M82,97L83,98 M83,97L84,98 M84,97L85,98 M85,97L86,98 M86,97L87,98 M87,97L88,98 M88,97L89,98 M136,97L137,98 M137,97L138,98 M138,97L139,98 M139,97L140,98 M140,97L141,98 M177,97L178,98 M178,97L179,98 M179,97L180,98 M180,97L181,98 M181,97L182,98 M233,97L234,98 M234,97L235,98 M45,98L46,99 M46,98L47,99 M47,98L48,99 M48,98L49,99 M49,98L50,99 M55,98L56,99 M56,98L57,99 M57,98L58,99 M58,98L59,99 M59,98L60,99 M60,98L61,99 M67,98L68,99 M68,98L69,99 M69,98L70,99 M70,98L71,99 M71,98L72,99 M75,98L76,99 M76,98L77,99 M77,98L78,99 M78,98L79,99 M79,98L80,99 M80,98L81,99 M81,98L82,99 M82,98L83,99 M83,98L84,99 M134,98L135,99 M135,98L136,99 M136,98L137,99 M137,98L138,99 M138,98L139,99 M175,98L176,99 M176,98L177,99 M177,98L178,99 M178,98L179,99 M179,98L180,99 M233,98L234,99 M234,98L235,99 M42,99L43,100 M43,99L44,100 M44,99L45,100 M45,99L46,100 M46,99L47,100 M47,99L48,100 M51,99L52,100 M52,99L53,100 M53,99L54,100 M54,99L55,100 M55,99L56,100 M56,99L57,100 M57,99L58,100 M68,99L69,100 M69,99L70,100 M70,99L71,100 M71,99L72,100 M72,99L73,100 M73,99L74,100 M74,99L75,100 M75,99L76,100 M76,99L77,100 M77,99L78,100 M78,99L79,100 M79,99L80,100 M132,99L133,100 M133,99L134,100 M134,99L135,100 M135,99L136,100 M136,99L137,100 M172,99L173,100 M173,99L174,100 M174,99L175,100 M175,99L176,100 M176,99L177,100 M233,99L234,100 M234,99L235,100 M41,100L42,101 M42,100L43,101 M43,100L44,101 M44,100L45,101 M48,100L49,101 M49,100L50,101 M50,100L51,101 M51,100L52,101 M52,100L53,101 M53,100L54,101 M54,100L55,101 M65,100L66,101 M66,100L67,101 M67,100L68,101 M68,100L69,101 M69,100L70,101 M70,100L71,101 M71,100L72,101 M72,100L73,101 M73,100L74,101 M74,100L75,101 M129,100L130,101 M130,100L131,101 M131,100L132,101 M132,100L133,101 M133,100L134,101 M170,100L171,101 M171,100L172,101 M172,100L173,101 M173,100L174,101 M174,100L175,101 M233,100L234,101 M234,100L235,101 M41,101L42,102 M42,101L43,102 M45,101L46,102 M46,101L47,102 M47,101L48,102 M48,101L49,102 M49,101L50,102 M50,101L51,102 M51,101L52,102 M60,101L61,102 M61,101L62,102 M62,101L63,102 M63,101L64,102 M64,101L65,102 M65,101L66,102 M66,101L67,102 M67,101L68,102 M68,101L69,102 M69,101L70,102 M70,101L71,102 M71,101L72,102 M72,101L73,102 M127,101L128,102 M128,101L129,102 M129,101L130,102 M130,101L131,102 M131,101L132,102 M168,101L169,102 M169,101L170,102 M170,101L171,102 M171,101L172,102 M172,101L173,102 M233,101L234,102 M234,101L235,102 M40,102L41,103 M41,102L42,103 M43,102L44,103 M44,102L45,103 M45,102L46,103 M46,102L47,103 M47,102L48,103 M48,102L49,103 M55,102L56,103 M56,102L57,103 M57,102L58,103 M58,102L59,103 M59,102L60,103 M60,102L61,103 M61,102L62,103 M62,102L63,103 M63,102L64,103 M64,102L65,103 M69,102L70,103 M70,102L71,103 M71,102L72,103 M72,102L73,103 M124,102L125,103 M125,102L126,103 M126,102L127,103 M127,102L128,103 M128,102L129,103 M129,102L130,103 M165,102L166,103 M166,102L167,103 M167,102L168,103 M168,102L169,103 M169,102L170,103 M233,102L234,103 M234,102L235,103 M40,103L41,104 M41,103L42,104 M42,103L43,104 M43,103L44,104 M44,103L45,104 M50,103L51,104 M51,103L52,104 M52,103L53,104 M53,103L54,104 M54,103L55,104 M55,103L56,104 M56,103L57,104 M57,103L58,104 M58,103L59,104 M59,103L60,104 M70,103L71,104 M71,103L72,104 M72,103L73,104 M121,103L122,104 M122,103L123,104 M123,103L124,104 M124,103L125,104 M125,103L126,104 M126,103L127,104 M163,103L164,104 M164,103L165,104 M165,103L166,104 M166,103L167,104 M167,103L168,104 M233,103L234,104 M234,103L235,104 M39,104L40,105 M40,104L41,105 M41,104L42,105 M42,104L43,105 M43,104L44,105 M44,104L45,105 M45,104L46,105 M46,104L47,105 M47,104L48,105 M48,104L49,105 M49,104L50,105 M50,104L51,105 M51,104L52,105 M52,104L53,105 M53,104L54,105 M54,104L55,105 M71,104L72,105 M72,104L73,105 M73,104L74,105 M118,104L119,105 M119,104L120,105 M120,104L121,105 M121,104L122,105 M122,104L123,105 M123,104L124,105 M162,104L163,105 M163,104L164,105 M164,104L165,105 M165,104L166,105 M233,104L234,105 M234,104L235,105 M39,105L40,106 M40,105L41,106 M41,105L42,106 M42,105L43,106 M43,105L44,106 M44,105L45,106 M45,105L46,106 M46,105L47,106 M47,105L48,106 M48,105L49,106 M49,105L50,106 M50,105L51,106 M71,105L72,106 M72,105L73,106 M73,105L74,106 M74,105L75,106 M114,105L115,106 M115,105L116,106 M116,105L117,106 M117,105L118,106 M118,105L119,106 M119,105L120,106 M120,105L121,106 M161,105L162,106 M162,105L163,106 M163,105L164,106 M233,105L234,106 M234,105L235,106 M72,106L73,107 M73,106L74,107 M74,106L75,107 M75,106L76,107 M111,106L112,107 M112,106L113,107 M113,106L114,107 M114,106L115,107 M115,106L116,107 M116,106L117,107 M117,106L118,107 M161,106L162,107 M162,106L163,107 M233,106L234,107 M234,106L235,107 M72,107L73,108 M73,107L74,108 M74,107L75,108 M75,107L76,108 M76,107L77,108 M108,107L109,108 M109,107L110,108 M110,107L111,108 M111,107L112,108 M112,107L113,108 M113,107L114,108 M114,107L115,108 M160,107L161,108 M161,107L162,108 M233,107L234,108 M234,107L235,108 M72,108L73,109 M73,108L74,109 M75,108L76,109 M76,108L77,109 M77,108L78,109 M93,108L94,109 M94,108L95,109 M95,108L96,109 M96,108L97,109 M97,108L98,109 M98,108L99,109 M99,108L100,109 M100,108L101,109 M101,108L102,109 M102,108L103,109 M103,108L104,109 M104,108L105,109 M105,108L106,109 M106,108L107,109 M107,108L108,109 M108,108L109,109 M109,108L110,109 M110,108L111,109 M111,108L112,109 M159,108L160,109 M160,108L161,109 M161,108L162,109 M233,108L234,109 M234,108L235,109 M72,109L73,110 M73,109L74,110 M76,109L77,110 M77,109L78,110 M78,109L79,110 M79,109L80,110 M80,109L81,110 M81,109L82,110 M82,109L83,110 M83,109L84,110 M84,109L85,110 M85,109L86,110 M86,109L87,110 M87,109L88,110 M88,109L89,110 M89,109L90,110 M90,109L91,110 M91,109L92,110 M92,109L93,110 M93,109L94,110 M94,109L95,110 M95,109L96,110 M96,109L97,110 M97,109L98,110 M98,109L99,110 M99,109L100,110 M100,109L101,110 M101,109L102,110 M102,109L103,110 M103,109L104,110 M104,109L105,110 M105,109L106,110 M106,109L107,110 M107,109L108,110 M108,109L109,110 M159,109L160,110 M160,109L161,110 M233,109L234,110 M234,109L235,110 M72,110L73,111 M73,110L74,111 M78,110L79,111 M79,110L80,111 M80,110L81,111 M81,110L82,111 M82,110L83,111 M83,110L84,111 M84,110L85,111 M85,110L86,111 M86,110L87,111 M87,110L88,111 M88,110L89,111 M89,110L90,111 M90,110L91,111 M91,110L92,111 M92,110L93,111 M159,110L160,111 M160,110L161,111 M161,110L162,111 M233,110L234,111 M234,110L235,111 M73,111L74,112 M74,111L75,112 M160,111L161,112 M161,111L162,112 M162,111L163,112 M232,111L233,112 M233,111L234,112 M73,112L74,113 M74,112L75,113 M161,112L162,113 M162,112L163,113 M163,112L164,113 M232,112L233,113 M233,112L234,113 M73,113L74,114 M74,113L75,114 M162,113L163,114 M163,113L164,114 M232,113L233,114 M233,113L234,114 M73,114L74,115 M74,114L75,115 M163,114L164,115 M164,114L165,115 M165,114L166,115 M232,114L233,115 M233,114L234,115 M73,115L74,116 M74,115L75,116 M163,115L164,116 M164,115L165,116 M165,115L166,116 M166,115L167,116 M232,115L233,116 M233,115L234,116 M74,116L75,117 M75,116L76,117 M165,116L166,117 M166,116L167,117 M167,116L168,117 M232,116L233,117 M233,116L234,117 M74,117L75,118 M75,117L76,118 M166,117L167,118 M167,117L168,118 M168,117L169,118 M232,117L233,118 M233,117L234,118 M74,118L75,119 M75,118L76,119 M167,118L168,119 M168,118L169,119 M169,118L170,119 M170,118L171,119 M232,118L233,119 M233,118L234,119 M74,119L75,120 M75,119L76,120 M169,119L170,120 M170,119L171,120 M171,119L172,120 M232,119L233,120 M233,119L234,120 M74,120L75,121 M75,120L76,121 M170,120L171,121 M171,120L172,121 M172,120L173,121 M232,120L233,121 M233,120L234,121 M75,121L76,122 M76,121L77,122 M171,121L172,122 M172,121L173,122 M173,121L174,122 M174,121L175,122 M232,121L233,122 M233,121L234,122 M75,122L76,123 M76,122L77,123 M173,122L174,123 M174,122L175,123 M175,122L176,123 M176,122L177,123 M232,122L233,123 M233,122L234,123 M75,123L76,124 M76,123L77,124 M174,123L175,124 M175,123L176,124 M176,123L177,124 M177,123L178,124 M178,123L179,124 M232,123L233,124 M233,123L234,124 M75,124L76,125 M76,124L77,125 M176,124L177,125 M177,124L178,125 M178,124L179,125 M179,124L180,125 M180,124L181,125 M232,124L233,125 M233,124L234,125 M75,125L76,126 M76,125L77,126 M77,125L78,126 M178,125L179,126 M179,125L180,126 M180,125L181,126 M181,125L182,126 M232,125L233,126 M233,125L234,126 M76,126L77,127 M77,126L78,127 M180,126L181,127 M181,126L182,127 M182,126L183,127 M183,126L184,127 M232,126L233,127 M233,126L234,127 M76,127L77,128 M77,127L78,128 M182,127L183,128 M183,127L184,128 M184,127L185,128 M185,127L186,128 M231,127L232,128 M232,127L233,128 M76,128L77,129 M77,128L78,129 M184,128L185,129 M185,128L186,129 M186,128L187,129 M187,128L188,129 M231,128L232,129 M232,128L233,129 M76,129L77,130 M77,129L78,130 M186,129L187,130 M187,129L188,130 M188,129L189,130 M189,129L190,130 M231,129L232,130 M232,129L233,130 M77,130L78,131 M78,130L79,131 M187,130L188,131 M188,130L189,131 M189,130L190,131 M190,130L191,131 M191,130L192,131 M231,130L232,131 M232,130L233,131 M77,131L78,132 M78,131L79,132 M189,131L190,132 M190,131L191,132 M191,131L192,132 M192,131L193,132 M193,131L194,132 M230,131L231,132 M231,131L232,132 M77,132L78,133 M78,132L79,133 M191,132L192,133 M192,132L193,133 M193,132L194,133 M194,132L195,133 M230,132L231,133 M231,132L232,133 M77,133L78,134 M78,133L79,134 M193,133L194,134 M194,133L195,134 M195,133L196,134 M196,133L197,134 M230,133L231,134 M231,133L232,134 M77,134L78,135 M78,134L79,135 M195,134L196,135 M196,134L197,135 M197,134L198,135 M198,134L199,135 M230,134L231,135 M231,134L232,135 M78,135L79,136 M79,135L80,136 M197,135L198,136 M198,135L199,136 M199,135L200,136 M200,135L201,136 M229,135L230,136 M230,135L231,136 M231,135L232,136 M78,136L79,137 M79,136L80,137 M199,136L200,137 M200,136L201,137 M201,136L202,137 M202,136L203,137 M229,136L230,137 M230,136L231,137 M78,137L79,138 M79,137L80,138 M201,137L202,138 M202,137L203,138 M203,137L204,138 M204,137L205,138 M229,137L230,138 M230,137L231,138 M78,138L79,139 M79,138L80,139 M203,138L204,139 M204,138L205,139 M205,138L206,139 M206,138L207,139 M228,138L229,139 M229,138L230,139 M230,138L231,139 M78,139L79,140 M79,139L80,140 M205,139L206,140 M206,139L207,140 M207,139L208,140 M208,139L209,140 M227,139L228,140 M228,139L229,140 M229,139L230,140 M79,140L80,141 M80,140L81,141 M207,140L208,141 M208,140L209,141 M209,140L210,141 M210,140L211,141 M227,140L228,141 M228,140L229,141 M79,141L80,142 M80,141L81,142 M209,141L210,142 M210,141L211,142 M211,141L212,142 M212,141L213,142 M213,141L214,142 M214,141L215,142 M215,141L216,142 M216,141L217,142 M217,141L218,142 M218,141L219,142 M219,141L220,142 M220,141L221,142 M221,141L222,142 M222,141L223,142 M223,141L224,142 M224,141L225,142 M225,141L226,142 M226,141L227,142 M227,141L228,142 M79,142L80,143 M80,142L81,143 M211,142L212,143 M212,142L213,143 M213,142L214,143 M214,142L215,143 M215,142L216,143 M216,142L217,143 M217,142L218,143 M218,142L219,143 M219,142L220,143 M220,142L221,143 M221,142L222,143 M222,142L223,143 M223,142L224,143 M224,142L225,143 M225,142L226,143 M226,142L227,143 M227,142L228,143 M79,143L80,144 M80,143L81,144 M79,144L80,145 M80,144L81,145 M80,145L81,146 M81,145L82,146 M80,146L81,147 M81,146L82,147 M80,147L81,148 M81,147L82,148 M80,148L81,149 M81,148L82,149 M80,149L81,150 M81,149L82,150 M81,150L82,151 M82,150L83,151 M81,151L82,152 M82,151L83,152 M81,152L82,153 M82,152L83,153 M81,153L82,154 M82,153L83,154 M81,154L82,155 M82,154L83,155 M81,155L82,156 M82,155L83,156 M82,156L83,157 M83,156L84,157 M82,157L83,158 M83,157L84,158 M82,158L83,159 M83,158L84,159 M82,159L83,160 M83,159L84,160 M82,160L83,161 M83,160L84,161 M82,161L83,162 M83,161L84,162 M84,161L85,162 M83,162L84,163 M84,162L85,163 M83,163L84,164 M84,163L85,164 M83,164L84,165 M84,164L85,165 M83,165L84,166 M84,165L85,166 M83,166L84,167 M84,166L85,167 M84,167L85,168 M85,167L86,168 M84,168L85,169 M85,168L86,169 M84,169L85,170 M85,169L86,170 M84,170L85,171 M85,170L86,171 M84,171L85,172 M85,171L86,172 M84,172L85,173 M85,172L86,173 M85,173L86,174 M86,173L87,174 M85,174L86,175 M86,174L87,175 M85,175L86,176 M86,175L87,176 M85,176L86,177 M86,176L87,177 M85,177L86,178 M86,177L87,178 M86,178L87,179 M87,178L88,179 M86,179L87,180 M87,179L88,180 M86,180L87,181 M87,180L88,181 M86,181L87,182 M87,181L88,182 M86,182L87,183 M87,182L88,183 M86,183L87,184 M87,183L88,184 M87,184L88,185 M88,184L89,185 M87,185L88,186 M88,185L89,186 M87,186L88,187 M88,186L89,187 M87,187L88,188 M88,187L89,188 M87,188L88,189 M88,188L89,189 M87,189L88,190 M88,189L89,190 M87,190L88,191 M88,190L89,191 M88,191L89,192 M89,191L90,192 M88,192L89,193 M89,192L90,193 M88,193L89,194 M89,193L90,194 M88,194L89,195 M89,194L90,195 M88,195L89,196 M89,195L90,196 M88,196L89,197 M89,196L90,197 M88,197L89,198 M89,197L90,198 M88,198L89,199 M89,198L90,199 M89,199L90,200 M90,199L91,200 M89,200L90,201 M90,200L91,201 M89,201L90,202 M90,201L91,202 M89,202L90,203 M90,202L91,203 M89,203L90,204 M90,203L91,204 M89,204L90,205 M90,204L91,205 M89,205L90,206 M90,205L91,206 M89,206L90,207 M90,206L91,207 M89,207L90,208 M90,207L91,208 M89,208L90,209 M90,208L91,209 M89,209L90,210 M90,209L91,210 M89,210L90,211 M90,210L91,211" fill="none" stroke="black" />
    </svg>