<svg xmlns="http://www.w3.org/2000/svg" width="800" height="250">
        <path d="M353,22L354,23 M353,23L354,24 M353,24L354,25 M353,25L354,26 M353,26L354,27 M353,27L354,28 M353,28L354,29 M353,29L354,30 M353,30L354,31 M353,31L354,32 M353,32L354,33 M353,33L354,34 M354,33L355,34 M353,34L354,35 M354,34L355,35 M353,35L354,36 M354,35L355,36 M353,36L354,37 M354,36L355,37 M353,37L354,38 M354,37L355,38 M354,38L355,39 M354,39L355,40 M354,40L355,41 M354,41L355,42 M354,42L355,43 M355,42L356,43 M354,43L355,44 M355,43L356,44 M354,44L355,45 M355,44L356,45 M354,45L355,46 M355,45L356,46 M354,46L355,47 M355,46L356,47 M239,47L240,48 M240,47L241,48 M241,47L242,48 M355,47L356,48 M356,47L357,48 M238,48L239,49 M239,48L240,49 M240,48L241,49 M241,48L242,49 M242,48L243,49 M355,48L356,49 M356,48L357,49 M237,49L238,50 M238,49L239,50 M242,49L243,50 M355,49L356,50 M356,49L357,50 M235,50L236,51 M236,50L237,51 M237,50L238,51 M355,50L356,51 M356,50L357,51 M233,51L234,52 M234,51L235,52 M235,51L236,52 M236,51L237,52 M355,51L356,52 M356,51L357,52 M232,52L233,53 M233,52L234,53 M234,52L235,53 M235,52L236,53 M355,52L356,53 M356,52L357,53 M230,53L231,54 M231,53L232,54 M232,53L233,54 M233,53L234,54 M356,53L357,54 M357,53L358,54 M229,54L230,55 M230,54L231,55 M231,54L232,55 M356,54L357,55 M357,54L358,55 M227,55L228,56 M228,55L229,56 M229,55L230,56 M230,55L231,56 M356,55L357,56 M357,55L358,56 M358,55L359,56 M219,56L220,57 M225,56L226,57 M226,56L227,57 M227,56L228,57 M228,56L229,57 M357,56L358,57 M358,56L359,57 M219,57L220,58 M223,57L224,58 M224,57L225,58 M225,57L226,58 M226,57L227,58 M227,57L228,58 M357,57L358,58 M358,57L359,58 M219,58L220,59 M222,58L223,59 M223,58L224,59 M224,58L225,59 M225,58L226,59 M358,58L359,59 M359,58L360,59 M219,59L220,60 M220,59L221,60 M221,59L222,60 M222,59L223,60 M223,59L224,60 M358,59L359,60 M359,59L360,60 M219,60L220,61 M220,60L221,61 M221,60L222,61 M358,60L359,61 M359,60L360,61 M216,61L217,62 M217,61L218,62 M218,61L219,62 M219,61L220,62 M220,61L221,62 M358,61L359,62 M359,61L360,62 M213,62L214,63 M214,62L215,63 M215,62L216,63 M216,62L217,63 M217,62L218,63 M218,62L219,63 M219,62L220,63 M358,62L359,63 M359,62L360,63 M210,63L211,64 M211,63L212,64 M212,63L213,64 M213,63L214,64 M214,63L215,64 M215,63L216,64 M219,63L220,64 M337,63L338,64 M338,63L339,64 M339,63L340,64 M358,63L359,64 M359,63L360,64 M202,64L203,65 M203,64L204,65 M204,64L205,65 M205,64L206,65 M206,64L207,65 M207,64L208,65 M208,64L209,65 M209,64L210,65 M210,64L211,65 M211,64L212,65 M212,64L213,65 M219,64L220,65 M335,64L336,65 M336,64L337,65 M337,64L338,65 M338,64L339,65 M339,64L340,65 M358,64L359,65 M359,64L360,65 M197,65L198,66 M198,65L199,66 M199,65L200,66 M200,65L201,66 M201,65L202,66 M202,65L203,66 M203,65L204,66 M204,65L205,66 M205,65L206,66 M206,65L207,66 M207,65L208,66 M208,65L209,66 M209,65L210,66 M210,65L211,66 M219,65L220,66 M334,65L335,66 M335,65L336,66 M336,65L337,66 M359,65L360,66 M360,65L361,66 M188,66L189,67 M189,66L190,67 M190,66L191,67 M191,66L192,67 M192,66L193,67 M193,66L194,67 M194,66L195,67 M195,66L196,67 M196,66L197,67 M197,66L198,67 M198,66L199,67 M199,66L200,67 M200,66L201,67 M201,66L202,67 M219,66L220,67 M332,66L333,67 M333,66L334,67 M334,66L335,67 M335,66L336,67 M359,66L360,67 M360,66L361,67 M178,67L179,68 M179,67L180,68 M180,67L181,68 M181,67L182,68 M182,67L183,68 M183,67L184,68 M184,67L185,68 M185,67L186,68 M186,67L187,68 M187,67L188,68 M188,67L189,68 M189,67L190,68 M190,67L191,68 M191,67L192,68 M192,67L193,68 M193,67L194,68 M194,67L195,68 M195,67L196,68 M196,67L197,68 M219,67L220,68 M331,67L332,68 M332,67L333,68 M333,67L334,68 M359,67L360,68 M360,67L361,68 M361,67L362,68 M178,68L179,69 M179,68L180,69 M180,68L181,69 M181,68L182,69 M182,68L183,69 M183,68L184,69 M184,68L185,69 M185,68L186,69 M186,68L187,69 M187,68L188,69 M219,68L220,69 M330,68L331,69 M331,68L332,69 M332,68L333,69 M360,68L361,69 M361,68L362,69 M219,69L220,70 M329,69L330,70 M330,69L331,70 M331,69L332,70 M360,69L361,70 M361,69L362,70 M219,70L220,71 M220,70L221,71 M327,70L328,71 M328,70L329,71 M329,70L330,71 M330,70L331,71 M361,70L362,71 M362,70L363,71 M219,71L220,72 M220,71L221,72 M326,71L327,72 M327,71L328,72 M328,71L329,72 M361,71L362,72 M362,71L363,72 M219,72L220,73 M220,72L221,73 M326,72L327,73 M327,72L328,73 M361,72L362,73 M362,72L363,73 M219,73L220,74 M220,73L221,74 M325,73L326,74 M326,73L327,74 M362,73L363,74 M363,73L364,74 M220,74L221,75 M324,74L325,75 M325,74L326,75 M362,74L363,75 M363,74L364,75 M416,74L417,75 M220,75L221,76 M323,75L324,76 M324,75L325,76 M362,75L363,76 M363,75L364,76 M409,75L410,76 M410,75L411,76 M411,75L412,76 M412,75L413,76 M413,75L414,76 M414,75L415,76 M415,75L416,76 M416,75L417,76 M220,76L221,77 M321,76L322,77 M322,76L323,77 M323,76L324,77 M363,76L364,77 M364,76L365,77 M406,76L407,77 M407,76L408,77 M408,76L409,77 M409,76L410,77 M410,76L411,77 M411,76L412,77 M412,76L413,77 M413,76L414,77 M414,76L415,77 M415,76L416,77 M220,77L221,78 M274,77L275,78 M275,77L276,78 M276,77L277,78 M277,77L278,78 M278,77L279,78 M279,77L280,78 M280,77L281,78 M281,77L282,78 M282,77L283,78 M283,77L284,78 M320,77L321,78 M321,77L322,78 M322,77L323,78 M363,77L364,78 M364,77L365,78 M399,77L400,78 M400,77L401,78 M401,77L402,78 M402,77L403,78 M403,77L404,78 M404,77L405,78 M405,77L406,78 M406,77L407,78 M407,77L408,78 M408,77L409,78 M220,78L221,79 M273,78L274,79 M274,78L275,79 M275,78L276,79 M276,78L277,79 M277,78L278,79 M278,78L279,79 M279,78L280,79 M280,78L281,79 M281,78L282,79 M282,78L283,79 M283,78L284,79 M284,78L285,79 M285,78L286,79 M286,78L287,79 M320,78L321,79 M363,78L364,79 M364,78L365,79 M391,78L392,79 M392,78L393,79 M393,78L394,79 M394,78L395,79 M395,78L396,79 M396,78L397,79 M397,78L398,79 M398,78L399,79 M399,78L400,79 M400,78L401,79 M401,78L402,79 M402,78L403,79 M403,78L404,79 M404,78L405,79 M405,78L406,79 M406,78L407,79 M220,79L221,80 M272,79L273,80 M273,79L274,80 M283,79L284,80 M284,79L285,80 M285,79L286,80 M286,79L287,80 M287,79L288,80 M288,79L289,80 M289,79L290,80 M319,79L320,80 M320,79L321,80 M364,79L365,80 M365,79L366,80 M379,79L380,80 M380,79L381,80 M381,79L382,80 M382,79L383,80 M383,79L384,80 M384,79L385,80 M385,79L386,80 M386,79L387,80 M387,79L388,80 M388,79L389,80 M389,79L390,80 M390,79L391,80 M391,79L392,80 M392,79L393,80 M393,79L394,80 M394,79L395,80 M395,79L396,80 M396,79L397,80 M397,79L398,80 M398,79L399,80 M220,80L221,81 M272,80L273,81 M286,80L287,81 M287,80L288,81 M288,80L289,81 M289,80L290,81 M319,80L320,81 M320,80L321,81 M364,80L365,81 M365,80L366,81 M374,80L375,81 M375,80L376,81 M376,80L377,81 M377,80L378,81 M378,80L379,81 M379,80L380,81 M380,80L381,81 M381,80L382,81 M382,80L383,81 M383,80L384,81 M384,80L385,81 M385,80L386,81 M386,80L387,81 M387,80L388,81 M388,80L389,81 M389,80L390,81 M390,80L391,81 M220,81L221,82 M272,81L273,82 M289,81L290,82 M319,81L320,82 M364,81L365,82 M365,81L366,82 M366,81L367,82 M367,81L368,82 M368,81L369,82 M369,81L370,82 M370,81L371,82 M371,81L372,82 M372,81L373,82 M373,81L374,82 M374,81L375,82 M375,81L376,82 M376,81L377,82 M377,81L378,82 M378,81L379,82 M220,82L221,83 M272,82L273,83 M289,82L290,83 M319,82L320,83 M360,82L361,83 M361,82L362,83 M362,82L363,83 M363,82L364,83 M364,82L365,83 M365,82L366,83 M366,82L367,83 M367,82L368,83 M368,82L369,83 M369,82L370,83 M370,82L371,83 M371,82L372,83 M372,82L373,83 M373,82L374,83 M220,83L221,84 M271,83L272,84 M272,83L273,84 M289,83L290,84 M319,83L320,84 M358,83L359,84 M359,83L360,84 M360,83L361,84 M361,83L362,84 M362,83L363,84 M363,83L364,84 M364,83L365,84 M365,83L366,84 M366,83L367,84 M367,83L368,84 M220,84L221,85 M271,84L272,85 M289,84L290,85 M319,84L320,85 M320,84L321,85 M358,84L359,85 M359,84L360,85 M366,84L367,85 M367,84L368,85 M220,85L221,86 M271,85L272,86 M288,85L289,86 M289,85L290,86 M320,85L321,86 M321,85L322,86 M366,85L367,86 M367,85L368,86 M368,85L369,86 M220,86L221,87 M271,86L272,87 M288,86L289,87 M321,86L322,87 M322,86L323,87 M367,86L368,87 M368,86L369,87 M220,87L221,88 M271,87L272,88 M287,87L288,88 M288,87L289,88 M322,87L323,88 M323,87L324,88 M368,87L369,88 M369,87L370,88 M220,88L221,89 M271,88L272,89 M272,88L273,89 M287,88L288,89 M288,88L289,89 M323,88L324,89 M324,88L325,89 M325,88L326,89 M368,88L369,89 M369,88L370,89 M220,89L221,90 M221,89L222,90 M271,89L272,90 M272,89L273,90 M285,89L286,90 M286,89L287,90 M287,89L288,90 M324,89L325,90 M325,89L326,90 M326,89L327,90 M327,89L328,90 M328,89L329,90 M368,89L369,90 M369,89L370,90 M220,90L221,91 M221,90L222,91 M272,90L273,91 M273,90L274,91 M284,90L285,91 M285,90L286,91 M286,90L287,91 M326,90L327,91 M327,90L328,91 M328,90L329,91 M329,90L330,91 M369,90L370,91 M370,90L371,91 M220,91L221,92 M221,91L222,92 M272,91L273,92 M273,91L274,92 M283,91L284,92 M284,91L285,92 M285,91L286,92 M328,91L329,92 M329,91L330,92 M330,91L331,92 M331,91L332,92 M369,91L370,92 M370,91L371,92 M220,92L221,93 M221,92L222,93 M273,92L274,93 M274,92L275,93 M282,92L283,93 M283,92L284,93 M284,92L285,93 M330,92L331,93 M331,92L332,93 M332,92L333,93 M333,92L334,93 M369,92L370,93 M370,92L371,93 M221,93L222,94 M273,93L274,94 M274,93L275,94 M280,93L281,94 M281,93L282,94 M282,93L283,94 M283,93L284,94 M331,93L332,94 M332,93L333,94 M333,93L334,94 M334,93L335,94 M335,93L336,94 M370,93L371,94 M371,93L372,94 M221,94L222,95 M274,94L275,95 M275,94L276,95 M279,94L280,95 M280,94L281,95 M281,94L282,95 M282,94L283,95 M333,94L334,95 M334,94L335,95 M335,94L336,95 M336,94L337,95 M337,94L338,95 M338,94L339,95 M370,94L371,95 M371,94L372,95 M372,94L373,95 M221,95L222,96 M275,95L276,96 M276,95L277,96 M278,95L279,96 M279,95L280,96 M280,95L281,96 M336,95L337,96 M337,95L338,96 M338,95L339,96 M339,95L340,96 M371,95L372,96 M372,95L373,96 M221,96L222,97 M276,96L277,97 M277,96L278,97 M278,96L279,97 M338,96L339,97 M339,96L340,97 M340,96L341,97 M341,96L342,97 M342,96L343,97 M371,96L372,97 M372,96L373,97 M373,96L374,97 M221,97L222,98 M222,97L223,98 M275,97L276,98 M276,97L277,98 M277,97L278,98 M278,97L279,98 M279,97L280,98 M340,97L341,98 M341,97L342,98 M342,97L343,98 M343,97L344,98 M344,97L345,98 M345,97L346,98 M372,97L373,98 M373,97L374,98 M221,98L222,99 M222,98L223,99 M274,98L275,99 M275,98L276,99 M276,98L277,99 M278,98L279,99 M279,98L280,99 M280,98L281,99 M343,98L344,99 M344,98L345,99 M345,98L346,99 M346,98L347,99 M347,98L348,99 M373,98L374,99 M374,98L375,99 M221,99L222,100 M222,99L223,100 M272,99L273,100 M273,99L274,100 M274,99L275,100 M275,99L276,100 M279,99L280,100 M280,99L281,100 M281,99L282,100 M316,99L317,100 M345,99L346,100 M346,99L347,100 M347,99L348,100 M348,99L349,100 M349,99L350,100 M350,99L351,100 M351,99L352,100 M373,99L374,100 M374,99L375,100 M221,100L222,101 M222,100L223,101 M269,100L270,101 M270,100L271,101 M271,100L272,101 M272,100L273,101 M273,100L274,101 M280,100L281,101 M281,100L282,101 M282,100L283,101 M283,100L284,101 M316,100L317,101 M347,100L348,101 M348,100L349,101 M349,100L350,101 M350,100L351,101 M351,100L352,101 M374,100L375,101 M375,100L376,101 M222,101L223,102 M267,101L268,102 M268,101L269,102 M269,101L270,102 M270,101L271,102 M271,101L272,102 M281,101L282,102 M282,101L283,102 M283,101L284,102 M284,101L285,102 M285,101L286,102 M316,101L317,102 M350,101L351,102 M351,101L352,102 M374,101L375,102 M375,101L376,102 M376,101L377,102 M222,102L223,103 M266,102L267,103 M267,102L268,103 M268,102L269,103 M269,102L270,103 M284,102L285,103 M285,102L286,103 M286,102L287,103 M316,102L317,103 M349,102L350,103 M350,102L351,103 M351,102L352,103 M375,102L376,103 M376,102L377,103 M222,103L223,104 M265,103L266,104 M266,103L267,104 M267,103L268,104 M286,103L287,104 M287,103L288,104 M288,103L289,104 M315,103L316,104 M316,103L317,104 M348,103L349,104 M349,103L350,104 M376,103L377,104 M377,103L378,104 M222,104L223,105 M263,104L264,105 M264,104L265,105 M265,104L266,105 M287,104L288,105 M288,104L289,105 M289,104L290,105 M290,104L291,105 M314,104L315,105 M315,104L316,105 M331,104L332,105 M347,104L348,105 M348,104L349,105 M376,104L377,105 M377,104L378,105 M378,104L379,105 M222,105L223,106 M223,105L224,106 M261,105L262,106 M262,105L263,106 M263,105L264,106 M264,105L265,106 M288,105L289,106 M289,105L290,106 M290,105L291,106 M291,105L292,106 M314,105L315,106 M315,105L316,106 M331,105L332,106 M346,105L347,106 M347,105L348,106 M377,105L378,106 M378,105L379,106 M222,106L223,107 M223,106L224,107 M260,106L261,107 M261,106L262,107 M262,106L263,107 M263,106L264,107 M290,106L291,107 M291,106L292,107 M292,106L293,107 M313,106L314,107 M314,106L315,107 M331,106L332,107 M344,106L345,107 M345,106L346,107 M346,106L347,107 M378,106L379,107 M379,106L380,107 M223,107L224,108 M224,107L225,108 M257,107L258,108 M258,107L259,108 M259,107L260,108 M260,107L261,108 M261,107L262,108 M292,107L293,108 M293,107L294,108 M313,107L314,108 M314,107L315,108 M331,107L332,108 M343,107L344,108 M344,107L345,108 M345,107L346,108 M378,107L379,108 M379,107L380,108 M380,107L381,108 M223,108L224,109 M224,108L225,109 M253,108L254,109 M254,108L255,109 M255,108L256,109 M256,108L257,109 M257,108L258,109 M258,108L259,109 M259,108L260,109 M293,108L294,109 M294,108L295,109 M295,108L296,109 M312,108L313,109 M313,108L314,109 M331,108L332,109 M341,108L342,109 M342,108L343,109 M343,108L344,109 M344,108L345,109 M379,108L380,109 M380,108L381,109 M223,109L224,110 M224,109L225,110 M253,109L254,110 M254,109L255,110 M255,109L256,110 M256,109L257,110 M257,109L258,110 M294,109L295,110 M295,109L296,110 M296,109L297,110 M311,109L312,110 M312,109L313,110 M313,109L314,110 M331,109L332,110 M339,109L340,110 M340,109L341,110 M341,109L342,110 M342,109L343,110 M379,109L380,110 M380,109L381,110 M381,109L382,110 M223,110L224,111 M224,110L225,111 M295,110L296,111 M296,110L297,111 M297,110L298,111 M310,110L311,111 M311,110L312,111 M312,110L313,111 M331,110L332,111 M332,110L333,111 M333,110L334,111 M334,110L335,111 M335,110L336,111 M336,110L337,111 M337,110L338,111 M338,110L339,111 M339,110L340,111 M340,110L341,111 M341,110L342,111 M380,110L381,111 M381,110L382,111 M224,111L225,112 M225,111L226,112 M297,111L298,112 M298,111L299,112 M309,111L310,112 M310,111L311,112 M311,111L312,112 M331,111L332,112 M332,111L333,112 M333,111L334,112 M334,111L335,112 M335,111L336,112 M336,111L337,112 M337,111L338,112 M338,111L339,112 M339,111L340,112 M381,111L382,112 M382,111L383,112 M224,112L225,113 M225,112L226,113 M298,112L299,113 M299,112L300,113 M300,112L301,113 M309,112L310,113 M310,112L311,113 M381,112L382,113 M382,112L383,113 M224,113L225,114 M225,113L226,114 M299,113L300,114 M300,113L301,114 M301,113L302,114 M302,113L303,114 M303,113L304,114 M304,113L305,114 M305,113L306,114 M306,113L307,114 M307,113L308,114 M308,113L309,114 M309,113L310,114 M382,113L383,114 M383,113L384,114 M224,114L225,115 M225,114L226,115 M301,114L302,115 M302,114L303,115 M303,114L304,115 M304,114L305,115 M305,114L306,115 M306,114L307,115 M307,114L308,115 M308,114L309,115 M382,114L383,115 M383,114L384,115 M225,115L226,116 M383,115L384,116 M384,115L385,116 M225,116L226,117 M383,116L384,117 M384,116L385,117 M225,117L226,118 M384,117L385,118 M385,117L386,118 M225,118L226,119 M384,118L385,119 M385,118L386,119 M225,119L226,120 M385,119L386,120 M386,119L387,120 M225,120L226,121 M385,120L386,121 M386,120L387,121 M387,120L388,121 M390,120L391,121 M225,121L226,122 M226,121L227,122 M386,121L387,122 M387,121L388,122 M388,121L389,122 M390,121L391,122 M391,121L392,122 M225,122L226,123 M226,122L227,123 M387,122L388,123 M388,122L389,123 M390,122L391,123 M391,122L392,123 M225,123L226,124 M226,123L227,124 M388,123L389,124 M389,123L390,124 M391,123L392,124 M226,124L227,125 M388,124L389,125 M389,124L390,125 M391,124L392,125 M226,125L227,126 M389,125L390,126 M390,125L391,126 M391,125L392,126 M226,126L227,127 M389,126L390,127 M390,126L391,127 M391,126L392,127 M226,127L227,128 M227,127L228,128 M390,127L391,128 M391,127L392,128 M226,128L227,129 M227,128L228,129 M390,128L391,129 M391,128L392,129 M226,129L227,130 M227,129L228,130 M391,129L392,130 M227,130L228,131 M227,131L228,132 M227,132L228,133 M227,133L228,134 M227,134L228,135 M228,134L229,135 M227,135L228,136 M228,135L229,136 M228,136L229,137 M228,137L229,138 M228,138L229,139 M228,139L229,140 M228,140L229,141 M228,141L229,142 M228,142L229,143 M228,143L229,144 M229,143L230,144 M228,144L229,145 M229,144L230,145 M229,145L230,146 M229,146L230,147 M229,147L230,148 M229,148L230,149 M230,148L231,149 M229,149L230,150 M230,149L231,150 M230,150L231,151" fill="none" stroke="black" />
    </svg>