<svg xmlns="http://www.w3.org/2000/svg" width="800" height="250">
        <path d="M324,73L325,74 M325,73L326,74 M326,73L327,74 M322,74L323,75 M323,74L324,75 M324,74L325,75 M325,74L326,75 M326,74L327,75 M320,75L321,76 M321,75L322,76 M322,75L323,76 M323,75L324,76 M319,76L320,77 M320,76L321,77 M321,76L322,77 M322,76L323,77 M316,77L317,78 M317,77L318,78 M318,77L319,78 M319,77L320,78 M320,77L321,78 M314,78L315,79 M315,78L316,79 M316,78L317,79 M317,78L318,79 M318,78L319,79 M311,79L312,80 M312,79L313,80 M313,79L314,80 M314,79L315,80 M315,79L316,80 M316,79L317,80 M309,80L310,81 M310,80L311,81 M311,80L312,81 M312,80L313,81 M313,80L314,81 M306,81L307,82 M307,81L308,82 M308,81L309,82 M309,81L310,82 M310,81L311,82 M303,82L304,83 M304,82L305,83 M305,82L306,83 M306,82L307,83 M307,82L308,83 M308,82L309,83 M301,83L302,84 M302,83L303,84 M303,83L304,84 M304,83L305,84 M305,83L306,84 M298,84L299,85 M299,84L300,85 M300,84L301,85 M301,84L302,85 M302,84L303,85 M303,84L304,85 M296,85L297,86 M297,85L298,86 M298,85L299,86 M299,85L300,86 M300,85L301,86 M293,86L294,87 M294,86L295,87 M295,86L296,87 M296,86L297,87 M297,86L298,87 M298,86L299,87 M290,87L291,88 M291,87L292,88 M292,87L293,88 M293,87L294,88 M294,87L295,88 M295,87L296,88 M288,88L289,89 M289,88L290,89 M290,88L291,89 M291,88L292,89 M292,88L293,89 M285,89L286,90 M286,89L287,90 M287,89L288,90 M288,89L289,90 M289,89L290,90 M290,89L291,90 M283,90L284,91 M284,90L285,91 M285,90L286,91 M286,90L287,91 M287,90L288,91 M280,91L281,92 M281,91L282,92 M282,91L283,92 M283,91L284,92 M284,91L285,92 M285,91L286,92 M277,92L278,93 M278,92L279,93 M279,92L280,93 M280,92L281,93 M281,92L282,93 M282,92L283,93 M275,93L276,94 M276,93L277,94 M277,93L278,94 M278,93L279,94 M279,93L280,94 M272,94L273,95 M273,94L274,95 M274,94L275,95 M275,94L276,95 M276,94L277,95 M277,94L278,95 M269,95L270,96 M270,95L271,96 M271,95L272,96 M272,95L273,96 M273,95L274,96 M274,95L275,96 M267,96L268,97 M268,96L269,97 M269,96L270,97 M270,96L271,97 M271,96L272,97 M264,97L265,98 M265,97L266,98 M266,97L267,98 M267,97L268,98 M268,97L269,98 M269,97L270,98 M262,98L263,99 M263,98L264,99 M264,98L265,99 M265,98L266,99 M266,98L267,99 M259,99L260,100 M260,99L261,100 M261,99L262,100 M262,99L263,100 M263,99L264,100 M264,99L265,100 M256,100L257,101 M257,100L258,101 M258,100L259,101 M259,100L260,101 M260,100L261,101 M261,100L262,101 M254,101L255,102 M255,101L256,102 M256,101L257,102 M257,101L258,102 M258,101L259,102 M250,102L251,103 M251,102L252,103 M252,102L253,103 M253,102L254,103 M254,102L255,103 M255,102L256,103 M256,102L257,103 M247,103L248,104 M248,103L249,104 M249,103L250,104 M250,103L251,104 M251,103L252,104 M252,103L253,104 M253,103L254,104 M243,104L244,105 M244,104L245,105 M245,104L246,105 M246,104L247,105 M247,104L248,105 M248,104L249,105 M249,104L250,105 M240,105L241,106 M241,105L242,106 M242,105L243,106 M243,105L244,106 M244,105L245,106 M245,105L246,106 M246,105L247,106 M236,106L237,107 M237,106L238,107 M238,106L239,107 M239,106L240,107 M240,106L241,107 M241,106L242,107 M242,106L243,107 M243,106L244,107 M233,107L234,108 M234,107L235,108 M235,107L236,108 M236,107L237,108 M237,107L238,108 M238,107L239,108 M239,107L240,108 M230,108L231,109 M231,108L232,109 M232,108L233,109 M233,108L234,109 M234,108L235,109 M235,108L236,109 M236,108L237,109 M226,109L227,110 M227,109L228,110 M228,109L229,110 M229,109L230,110 M230,109L231,110 M231,109L232,110 M232,109L233,110 M223,110L224,111 M224,110L225,111 M225,110L226,111 M226,110L227,111 M227,110L228,111 M228,110L229,111 M229,110L230,111 M219,111L220,112 M220,111L221,112 M221,111L222,112 M222,111L223,112 M223,111L224,112 M224,111L225,112 M225,111L226,112 M216,112L217,113 M217,112L218,113 M218,112L219,113 M219,112L220,113 M220,112L221,113 M221,112L222,113 M222,112L223,113 M212,113L213,114 M213,113L214,114 M214,113L215,114 M215,113L216,114 M216,113L217,114 M217,113L218,114 M218,113L219,114 M219,113L220,114 M209,114L210,115 M210,114L211,115 M211,114L212,115 M212,114L213,115 M213,114L214,115 M214,114L215,115 M215,114L216,115 M205,115L206,116 M206,115L207,116 M207,115L208,116 M208,115L209,116 M209,115L210,116 M210,115L211,116 M211,115L212,116 M212,115L213,116 M202,116L203,117 M203,116L204,117 M204,116L205,117 M205,116L206,117 M206,116L207,117 M207,116L208,117 M208,116L209,117 M199,117L200,118 M200,117L201,118 M201,117L202,118 M202,117L203,118 M203,117L204,118 M204,117L205,118 M205,117L206,118 M195,118L196,119 M196,118L197,119 M197,118L198,119 M198,118L199,119 M199,118L200,119 M200,118L201,119 M201,118L202,119 M191,119L192,120 M192,119L193,120 M193,119L194,120 M194,119L195,120 M195,119L196,120 M196,119L197,120 M197,119L198,120 M198,119L199,120 M187,120L188,121 M188,120L189,121 M189,120L190,121 M190,120L191,121 M191,120L192,121 M192,120L193,121 M193,120L194,121 M194,120L195,121 M184,121L185,122 M185,121L186,122 M186,121L187,122 M187,121L188,122 M188,121L189,122 M189,121L190,122 M190,121L191,122 M180,122L181,123 M181,122L182,123 M182,122L183,123 M183,122L184,123 M184,122L185,123 M185,122L186,123 M186,122L187,123 M187,122L188,123 M176,123L177,124 M177,123L178,124 M178,123L179,124 M179,123L180,124 M180,123L181,124 M181,123L182,124 M182,123L183,124 M183,123L184,124 M172,124L173,125 M173,124L174,125 M174,124L175,125 M175,124L176,125 M176,124L177,125 M177,124L178,125 M178,124L179,125 M179,124L180,125 M169,125L170,126 M170,125L171,126 M171,125L172,126 M172,125L173,126 M173,125L174,126 M174,125L175,126 M175,125L176,126 M165,126L166,127 M166,126L167,127 M167,126L168,127 M168,126L169,127 M169,126L170,127 M170,126L171,127 M171,126L172,127 M172,126L173,127 M161,127L162,128 M162,127L163,128 M163,127L164,128 M164,127L165,128 M165,127L166,128 M166,127L167,128 M167,127L168,128 M168,127L169,128 M157,128L158,129 M158,128L159,129 M159,128L160,129 M160,128L161,129 M161,128L162,129 M162,128L163,129 M163,128L164,129 M164,128L165,129 M153,129L154,130 M154,129L155,130 M155,129L156,130 M156,129L157,130 M157,129L158,130 M158,129L159,130 M159,129L160,130 M160,129L161,130 M149,130L150,131 M150,130L151,131 M151,130L152,131 M152,130L153,131 M153,130L154,131 M154,130L155,131 M155,130L156,131 M156,130L157,131 M144,131L145,132 M145,131L146,132 M146,131L147,132 M147,131L148,132 M148,131L149,132 M149,131L150,132 M150,131L151,132 M151,131L152,132 M152,131L153,132 M140,132L141,133 M141,132L142,133 M142,132L143,133 M143,132L144,133 M144,132L145,133 M145,132L146,133 M146,132L147,133 M147,132L148,133 M148,132L149,133 M135,133L136,134 M136,133L137,134 M137,133L138,134 M138,133L139,134 M139,133L140,134 M140,133L141,134 M141,133L142,134 M142,133L143,134 M143,133L144,134 M144,133L145,134 M131,134L132,135 M132,134L133,135 M133,134L134,135 M134,134L135,135 M135,134L136,135 M136,134L137,135 M137,134L138,135 M138,134L139,135 M139,134L140,135 M127,135L128,136 M128,135L129,136 M129,135L130,136 M130,135L131,136 M131,135L132,136 M132,135L133,136 M133,135L134,136 M134,135L135,136 M135,135L136,136 M123,136L124,137 M124,136L125,137 M125,136L126,137 M126,136L127,137 M127,136L128,137 M128,136L129,137 M129,136L130,137 M130,136L131,137 M119,137L120,138 M120,137L121,138 M121,137L122,138 M122,137L123,138 M123,137L124,138 M124,137L125,138 M125,137L126,138 M126,137L127,138 M116,138L117,139 M117,138L118,139 M118,138L119,139 M119,138L120,139 M120,138L121,139 M121,138L122,139 M122,138L123,139 M113,139L114,140 M114,139L115,140 M115,139L116,140 M116,139L117,140 M117,139L118,140 M118,139L119,140 M119,139L120,140 M110,140L111,141 M111,140L112,141 M112,140L113,141 M113,140L114,141 M114,140L115,141 M115,140L116,141 M106,141L107,142 M107,141L108,142 M108,141L109,142 M109,141L110,142 M110,141L111,142 M111,141L112,142 M112,141L113,142 M105,142L106,143 M106,142L107,143 M107,142L108,143 M108,142L109,143 M109,142L110,143 M110,142L111,143 M111,142L112,143 M112,142L113,143 M113,142L114,143 M114,142L115,143 M115,142L116,143 M116,142L117,143 M117,142L118,143 M118,142L119,143 M119,142L120,143 M120,142L121,143 M121,142L122,143 M122,142L123,143 M123,142L124,143 M124,142L125,143 M125,142L126,143 M126,142L127,143 M127,142L128,143 M128,142L129,143 M129,142L130,143 M130,142L131,143 M131,142L132,143 M132,142L133,143 M133,142L134,143 M134,142L135,143 M135,142L136,143 M136,142L137,143 M137,142L138,143 M138,142L139,143 M139,142L140,143 M140,142L141,143 M141,142L142,143 M142,142L143,143 M143,142L144,143 M144,142L145,143 M145,142L146,143 M146,142L147,143 M147,142L148,143 M148,142L149,143 M149,142L150,143 M150,142L151,143 M151,142L152,143 M152,142L153,143 M153,142L154,143 M154,142L155,143 M155,142L156,143 M156,142L157,143 M157,142L158,143 M158,142L159,143 M159,142L160,143 M160,142L161,143 M161,142L162,143 M162,142L163,143 M163,142L164,143 M164,142L165,143 M165,142L166,143 M166,142L167,143 M167,142L168,143 M168,142L169,143 M169,142L170,143 M170,142L171,143 M171,142L172,143 M172,142L173,143 M173,142L174,143 M174,142L175,143 M175,142L176,143 M176,142L177,143 M177,142L178,143 M178,142L179,143 M179,142L180,143 M180,142L181,143 M181,142L182,143 M182,142L183,143 M183,142L184,143 M184,142L185,143 M185,142L186,143 M186,142L187,143 M187,142L188,143 M188,142L189,143 M189,142L190,143 M190,142L191,143 M191,142L192,143 M192,142L193,143 M193,142L194,143 M194,142L195,143 M195,142L196,143 M196,142L197,143 M197,142L198,143 M198,142L199,143 M199,142L200,143 M200,142L201,143 M201,142L202,143 M202,142L203,143 M203,142L204,143 M204,142L205,143 M205,142L206,143 M206,142L207,143 M207,142L208,143 M208,142L209,143 M209,142L210,143 M210,142L211,143 M211,142L212,143 M212,142L213,143 M213,142L214,143 M214,142L215,143 M215,142L216,143 M216,142L217,143 M217,142L218,143 M218,142L219,143 M219,142L220,143 M220,142L221,143 M221,142L222,143 M222,142L223,143 M223,142L224,143 M224,142L225,143 M225,142L226,143 M226,142L227,143 M227,142L228,143 M228,142L229,143 M229,142L230,143 M230,142L231,143 M231,142L232,143 M232,142L233,143 M233,142L234,143 M234,142L235,143 M235,142L236,143 M236,142L237,143 M237,142L238,143 M238,142L239,143 M239,142L240,143 M240,142L241,143 M241,142L242,143 M242,142L243,143 M243,142L244,143 M244,142L245,143 M245,142L246,143 M246,142L247,143 M247,142L248,143 M248,142L249,143 M249,142L250,143 M250,142L251,143 M251,142L252,143 M252,142L253,143 M253,142L254,143 M254,142L255,143 M255,142L256,143 M256,142L257,143 M257,142L258,143 M258,142L259,143 M259,142L260,143 M260,142L261,143 M261,142L262,143 M262,142L263,143 M263,142L264,143 M264,142L265,143 M265,142L266,143 M266,142L267,143 M267,142L268,143 M268,142L269,143 M269,142L270,143 M270,142L271,143 M271,142L272,143 M272,142L273,143 M273,142L274,143 M274,142L275,143 M275,142L276,143 M276,142L277,143 M277,142L278,143 M278,142L279,143 M279,142L280,143 M280,142L281,143 M281,142L282,143 M105,143L106,144 M106,143L107,144 M107,143L108,144 M108,143L109,144 M109,143L110,144 M110,143L111,144 M111,143L112,144 M112,143L113,144 M113,143L114,144 M114,143L115,144 M115,143L116,144 M116,143L117,144 M117,143L118,144 M118,143L119,144 M119,143L120,144 M120,143L121,144 M121,143L122,144 M122,143L123,144 M123,143L124,144 M124,143L125,144 M125,143L126,144 M126,143L127,144 M127,143L128,144 M128,143L129,144 M129,143L130,144 M130,143L131,144 M131,143L132,144 M132,143L133,144 M133,143L134,144 M134,143L135,144 M135,143L136,144 M136,143L137,144 M137,143L138,144 M138,143L139,144 M139,143L140,144 M140,143L141,144 M141,143L142,144 M142,143L143,144 M143,143L144,144 M144,143L145,144 M145,143L146,144 M146,143L147,144 M147,143L148,144 M148,143L149,144 M149,143L150,144 M150,143L151,144 M151,143L152,144 M152,143L153,144 M153,143L154,144 M154,143L155,144 M155,143L156,144 M156,143L157,144 M157,143L158,144 M158,143L159,144 M159,143L160,144 M160,143L161,144 M161,143L162,144 M162,143L163,144 M163,143L164,144 M164,143L165,144 M165,143L166,144 M166,143L167,144 M167,143L168,144 M168,143L169,144 M169,143L170,144 M170,143L171,144 M171,143L172,144 M172,143L173,144 M173,143L174,144 M174,143L175,144 M175,143L176,144 M176,143L177,144 M177,143L178,144 M178,143L179,144 M179,143L180,144 M180,143L181,144 M181,143L182,144 M182,143L183,144 M183,143L184,144 M184,143L185,144 M185,143L186,144 M186,143L187,144 M187,143L188,144 M188,143L189,144 M189,143L190,144 M190,143L191,144 M191,143L192,144 M192,143L193,144 M193,143L194,144 M194,143L195,144 M195,143L196,144 M196,143L197,144 M197,143L198,144 M198,143L199,144 M199,143L200,144 M200,143L201,144 M201,143L202,144 M202,143L203,144 M203,143L204,144 M204,143L205,144 M205,143L206,144 M206,143L207,144 M207,143L208,144 M208,143L209,144 M209,143L210,144 M210,143L211,144 M211,143L212,144 M212,143L213,144 M213,143L214,144 M214,143L215,144 M215,143L216,144 M216,143L217,144 M217,143L218,144 M218,143L219,144 M219,143L220,144 M220,143L221,144 M221,143L222,144 M222,143L223,144 M223,143L224,144 M224,143L225,144 M225,143L226,144 M226,143L227,144 M227,143L228,144 M228,143L229,144 M229,143L230,144 M230,143L231,144 M231,143L232,144 M232,143L233,144 M233,143L234,144 M234,143L235,144 M235,143L236,144 M236,143L237,144 M237,143L238,144 M238,143L239,144 M239,143L240,144 M240,143L241,144 M241,143L242,144 M242,143L243,144 M243,143L244,144 M244,143L245,144 M245,143L246,144 M246,143L247,144 M247,143L248,144 M248,143L249,144 M249,143L250,144 M250,143L251,144 M251,143L252,144 M252,143L253,144 M253,143L254,144 M254,143L255,144 M255,143L256,144 M256,143L257,144 M257,143L258,144 M258,143L259,144 M259,143L260,144 M260,143L261,144 M261,143L262,144 M262,143L263,144 M263,143L264,144 M264,143L265,144 M265,143L266,144 M266,143L267,144 M267,143L268,144 M268,143L269,144 M269,143L270,144 M270,143L271,144 M271,143L272,144 M272,143L273,144 M273,143L274,144 M274,143L275,144 M275,143L276,144 M276,143L277,144 M277,143L278,144 M278,143L279,144 M279,143L280,144 M280,143L281,144 M281,143L282,144 M282,143L283,144 M283,143L284,144 M284,143L285,144 M285,143L286,144 M286,143L287,144 M287,143L288,144 M288,143L289,144 M289,143L290,144 M290,143L291,144 M291,143L292,144 M292,143L293,144 M293,143L294,144 M294,143L295,144 M295,143L296,144 M296,143L297,144 M297,143L298,144 M298,143L299,144 M299,143L300,144 M300,143L301,144 M301,143L302,144 M302,143L303,144 M303,143L304,144 M304,143L305,144 M305,143L306,144 M306,143L307,144 M307,143L308,144 M308,143L309,144 M309,143L310,144 M282,144L283,145 M283,144L284,145 M284,144L285,145 M285,144L286,145 M286,144L287,145 M287,144L288,145 M288,144L289,145 M289,144L290,145 M290,144L291,145 M291,144L292,145 M292,144L293,145 M293,144L294,145 M294,144L295,145 M295,144L296,145 M296,144L297,145 M297,144L298,145 M298,144L299,145 M299,144L300,145 M300,144L301,145 M301,144L302,145 M302,144L303,145 M303,144L304,145 M304,144L305,145 M305,144L306,145 M306,144L307,145 M307,144L308,145 M308,144L309,145 M309,144L310,145 M310,144L311,145 M311,144L312,145 M312,144L313,145 M313,144L314,145 M314,144L315,145 M315,144L316,145 M316,144L317,145 M317,144L318,145 M318,144L319,145 M319,144L320,145 M320,144L321,145 M321,144L322,145 M322,144L323,145 M323,144L324,145 M324,144L325,145 M325,144L326,145 M326,144L327,145 M327,144L328,145 M328,144L329,145 M329,144L330,145 M330,144L331,145 M331,144L332,145 M332,144L333,145 M333,144L334,145 M334,144L335,145 M335,144L336,145 M336,144L337,145 M337,144L338,145 M338,144L339,145 M339,144L340,145 M340,144L341,145 M341,144L342,145 M342,144L343,145 M310,145L311,146 M311,145L312,146 M312,145L313,146 M313,145L314,146 M314,145L315,146 M315,145L316,146 M316,145L317,146 M317,145L318,146 M318,145L319,146 M319,145L320,146 M320,145L321,146 M321,145L322,146 M322,145L323,146 M323,145L324,146 M324,145L325,146 M325,145L326,146 M326,145L327,146 M327,145L328,146 M328,145L329,146 M329,145L330,146 M330,145L331,146 M331,145L332,146 M332,145L333,146 M333,145L334,146 M334,145L335,146 M335,145L336,146 M336,145L337,146 M337,145L338,146 M338,145L339,146 M339,145L340,146 M340,145L341,146 M341,145L342,146 M342,145L343,146 M343,145L344,146 M344,145L345,146 M345,145L346,146 M346,145L347,146 M347,145L348,146 M348,145L349,146 M349,145L350,146 M350,145L351,146 M351,145L352,146 M352,145L353,146 M353,145L354,146 M354,145L355,146 M355,145L356,146 M356,145L357,146 M357,145L358,146 M358,145L359,146 M359,145L360,146 M360,145L361,146 M361,145L362,146 M362,145L363,146 M363,145L364,146 M364,145L365,146 M365,145L366,146 M366,145L367,146 M367,145L368,146 M368,145L369,146 M369,145L370,146 M370,145L371,146 M371,145L372,146 M372,145L373,146 M373,145L374,146 M374,145L375,146 M375,145L376,146 M376,145L377,146 M377,145L378,146 M378,145L379,146 M379,145L380,146 M380,145L381,146 M381,145L382,146 M382,145L383,146 M383,145L384,146 M384,145L385,146 M385,145L386,146 M386,145L387,146 M387,145L388,146 M388,145L389,146 M343,146L344,147 M344,146L345,147 M345,146L346,147 M346,146L347,147 M347,146L348,147 M348,146L349,147 M349,146L350,147 M350,146L351,147 M351,146L352,147 M352,146L353,147 M353,146L354,147 M354,146L355,147 M355,146L356,147 M356,146L357,147 M357,146L358,147 M358,146L359,147 M359,146L360,147 M360,146L361,147 M361,146L362,147 M362,146L363,147 M363,146L364,147 M364,146L365,147 M365,146L366,147 M366,146L367,147 M367,146L368,147 M368,146L369,147 M369,146L370,147 M370,146L371,147 M371,146L372,147 M372,146L373,147 M373,146L374,147 M374,146L375,147 M375,146L376,147 M376,146L377,147 M377,146L378,147 M378,146L379,147 M379,146L380,147 M380,146L381,147 M381,146L382,147 M382,146L383,147 M383,146L384,147 M384,146L385,147 M385,146L386,147 M386,146L387,147 M387,146L388,147 M388,146L389,147 M389,146L390,147 M390,146L391,147 M391,146L392,147 M392,146L393,147 M393,146L394,147 M394,146L395,147 M389,147L390,148 M390,147L391,148 M391,147L392,148 M392,147L393,148 M393,147L394,148 M394,147L395,148 M395,147L396,148 M396,147L397,148 M397,147L398,148 M398,147L399,148 M399,147L400,148 M400,147L401,148 M401,147L402,148 M395,148L396,149 M396,148L397,149 M397,148L398,149 M398,148L399,149 M399,148L400,149 M400,148L401,149 M401,148L402,149 M402,148L403,149 M403,148L404,149 M404,148L405,149 M405,148L406,149 M406,148L407,149 M407,148L408,149 M402,149L403,150 M403,149L404,150 M404,149L405,150 M405,149L406,150 M406,149L407,150 M407,149L408,150 M408,149L409,150 M409,149L410,150 M410,149L411,150 M411,149L412,150 M412,149L413,150 M413,149L414,150 M414,149L415,150 M408,150L409,151 M409,150L410,151 M410,150L411,151 M411,150L412,151 M412,150L413,151 M413,150L414,151 M414,150L415,151 M415,150L416,151 M416,150L417,151 M417,150L418,151 M418,150L419,151 M419,150L420,151 M420,150L421,151 M421,150L422,151 M415,151L416,152 M416,151L417,152 M417,151L418,152 M418,151L419,152 M419,151L420,152 M420,151L421,152 M421,151L422,152 M422,151L423,152 M423,151L424,152 M424,151L425,152 M425,151L426,152 M426,151L427,152 M427,151L428,152 M421,152L422,153 M422,152L423,153 M423,152L424,153 M424,152L425,153 M425,152L426,153 M426,152L427,153 M427,152L428,153 M428,152L429,153 M429,152L430,153 M430,152L431,153 M431,152L432,153 M432,152L433,153 M433,152L434,153 M434,152L435,153 M428,153L429,154 M429,153L430,154 M430,153L431,154 M431,153L432,154 M432,153L433,154 M433,153L434,154 M434,153L435,154 M435,153L436,154 M436,153L437,154 M437,153L438,154 M438,153L439,154 M439,153L440,154 M440,153L441,154 M435,154L436,155 M436,154L437,155 M437,154L438,155 M438,154L439,155 M439,154L440,155 M440,154L441,155 M441,154L442,155 M442,154L443,155 M443,154L444,155 M444,154L445,155 M445,154L446,155 M446,154L447,155 M447,154L448,155 M441,155L442,156 M442,155L443,156 M443,155L444,156 M444,155L445,156 M445,155L446,156 M446,155L447,156 M447,155L448,156 M448,155L449,156 M449,155L450,156 M450,155L451,156 M451,155L452,156 M452,155L453,156 M453,155L454,156 M454,155L455,156 M448,156L449,157 M449,156L450,157 M450,156L451,157 M451,156L452,157 M452,156L453,157 M453,156L454,157 M454,156L455,157 M455,156L456,157 M456,156L457,157 M457,156L458,157 M458,156L459,157 M459,156L460,157 M460,156L461,157 M454,157L455,158 M455,157L456,158 M456,157L457,158 M457,157L458,158 M458,157L459,158 M459,157L460,158 M460,157L461,158 M461,157L462,158 M462,157L463,158 M463,157L464,158 M464,157L465,158 M465,157L466,158 M466,157L467,158 M461,158L462,159 M462,158L463,159 M463,158L464,159 M464,158L465,159 M465,158L466,159 M466,158L467,159 M467,158L468,159 M468,158L469,159 M469,158L470,159 M470,158L471,159 M471,158L472,159 M467,159L468,160 M468,159L469,160 M469,159L470,160 M470,159L471,160 M471,159L472,160 M472,159L473,160 M473,159L474,160 M474,159L475,160 M475,159L476,160 M472,160L473,161 M473,160L474,161 M474,160L475,161 M475,160L476,161 M476,160L477,161 M477,160L478,161 M478,160L479,161 M479,160L480,161 M480,160L481,161 M476,161L477,162 M477,161L478,162 M478,161L479,162 M479,161L480,162 M480,161L481,162 M481,161L482,162 M482,161L483,162 M483,161L484,162 M484,161L485,162 M480,162L481,163 M481,162L482,163 M482,162L483,163 M483,162L484,163 M484,162L485,163 M485,162L486,163 M486,162L487,163 M487,162L488,163 M488,162L489,163 M485,163L486,164 M486,163L487,164 M487,163L488,164 M488,163L489,164 M489,163L490,164 M490,163L491,164 M491,163L492,164 M489,164L490,165 M490,164L491,165 M491,164L492,165 M492,164L493,165 M493,164L494,165 M494,164L495,165 M492,165L493,166 M493,165L494,166 M494,165L495,166 M495,165L496,166 M496,165L497,166 M497,165L498,166 M495,166L496,167 M496,166L497,167 M497,166L498,167 M498,166L499,167 M497,167L498,168 M498,167L499,168 M499,167L500,168 M499,168L500,169 M500,168L501,169 M501,168L502,169 M500,169L501,170 M501,169L502,170 M502,169L503,170 M501,170L502,171 M502,170L503,171 M501,171L502,172 M502,171L503,172 M500,172L501,173 M501,172L502,173 M499,173L500,174 M500,173L501,174 M501,173L502,174 M499,174L500,175 M500,174L501,175 M498,175L499,176 M499,175L500,176 M500,175L501,176 M498,176L499,177 M499,176L500,177 M496,177L497,178 M497,177L498,178 M498,177L499,178 M494,178L495,179 M495,178L496,179 M496,178L497,179 M497,178L498,179 M492,179L493,180 M493,179L494,180 M494,179L495,180 M495,179L496,180 M496,179L497,180 M491,180L492,181 M492,180L493,181 M493,180L494,181 M494,180L495,181 M489,181L490,182 M490,181L491,182 M491,181L492,182 M492,181L493,182 M487,182L488,183 M488,182L489,183 M489,182L490,183 M490,182L491,183 M486,183L487,184 M487,183L488,184 M488,183L489,184 M484,184L485,185 M485,184L486,185 M486,184L487,185 M487,184L488,185 M483,185L484,186 M484,185L485,186 M485,185L486,186 M481,186L482,187 M482,186L483,187 M483,186L484,187 M484,186L485,187 M480,187L481,188 M481,187L482,188 M482,187L483,188 M478,188L479,189 M479,188L480,189 M480,188L481,189 M481,188L482,189 M476,189L477,190 M477,189L478,190 M478,189L479,190 M479,189L480,190 M474,190L475,191 M475,190L476,191 M476,190L477,191 M477,190L478,191 M472,191L473,192 M473,191L474,192 M474,191L475,192 M475,191L476,192 M470,192L471,193 M471,192L472,193 M472,192L473,193 M473,192L474,193 M468,193L469,194 M469,193L470,194 M470,193L471,194 M471,193L472,194 M466,194L467,195 M467,194L468,195 M468,194L469,195 M469,194L470,195 M463,195L464,196 M464,195L465,196 M465,195L466,196 M466,195L467,196 M467,195L468,196 M461,196L462,197 M462,196L463,197 M463,196L464,197 M464,196L465,197 M465,196L466,197 M459,197L460,198 M460,197L461,198 M461,197L462,198 M462,197L463,198 M463,197L464,198 M457,198L458,199 M458,198L459,199 M459,198L460,199 M460,198L461,199 M461,198L462,199 M455,199L456,200 M456,199L457,200 M457,199L458,200 M458,199L459,200 M452,200L453,201 M453,200L454,201 M454,200L455,201 M455,200L456,201 M456,200L457,201 M450,201L451,202 M451,201L452,202 M452,201L453,202 M453,201L454,202 M454,201L455,202 M448,202L449,203 M449,202L450,203 M450,202L451,203 M451,202L452,203 M452,202L453,203 M446,203L447,204 M447,203L448,204 M448,203L449,204 M449,203L450,204 M444,204L445,205 M445,204L446,205 M446,204L447,205 M447,204L448,205 M443,205L444,206 M444,205L445,206 M445,205L446,206 M446,205L447,206 M441,206L442,207 M442,206L443,207 M443,206L444,207 M444,206L445,207 M439,207L440,208 M440,207L441,208 M441,207L442,208 M442,207L443,208 M438,208L439,209 M439,208L440,209 M440,208L441,209 M441,208L442,209 M437,209L438,210 M438,209L439,210 M439,209L440,210 M436,210L437,211 M437,210L438,211 M438,210L439,211 M435,211L436,212 M436,211L437,212 M437,211L438,212 M434,212L435,213 M435,212L436,213 M436,212L437,213 M433,213L434,214 M434,213L435,214 M435,213L436,214 M433,214L434,215 M434,214L435,215" fill="none" stroke="black" />
    </svg>