<svg xmlns="http://www.w3.org/2000/svg" width="800" height="250">
        <path d="M258,49L259,50 M259,49L260,50 M258,50L259,51 M259,50L260,51 M257,51L258,52 M258,51L259,52 M259,51L260,52 M256,52L257,53 M257,52L258,53 M258,52L259,53 M255,53L256,54 M256,53L257,54 M257,53L258,54 M254,54L255,55 M255,54L256,55 M256,54L257,55 M255,55L256,56 M334,78L335,79 M335,78L336,79 M334,79L335,80 M335,79L336,80 M334,80L335,81 M335,80L336,81 M334,81L335,82 M335,81L336,82 M334,82L335,83 M335,82L336,83 M334,83L335,84 M335,83L336,84 M334,84L335,85 M335,84L336,85 M334,85L335,86 M335,85L336,86 M334,86L335,87 M335,86L336,87 M333,87L334,88 M334,87L335,88 M333,88L334,89 M334,88L335,89 M333,89L334,90 M334,89L335,90 M333,90L334,91 M334,90L335,91 M333,91L334,92 M334,91L335,92 M333,92L334,93 M334,92L335,93 M333,93L334,94 M334,93L335,94 M332,94L333,95 M333,94L334,95 M332,95L333,96 M333,95L334,96 M332,96L333,97 M333,96L334,97 M332,97L333,98 M333,97L334,98 M332,98L333,99 M333,98L334,99 M332,99L333,100 M333,99L334,100 M332,100L333,101 M333,100L334,101 M331,101L332,102 M332,101L333,102 M331,102L332,103 M332,102L333,103 M331,103L332,104 M332,103L333,104 M331,104L332,105 M332,104L333,105 M331,105L332,106 M332,105L333,106 M331,106L332,107 M332,106L333,107 M330,107L331,108 M331,107L332,108 M330,108L331,109 M331,108L332,109 M330,109L331,110 M331,109L332,110 M330,110L331,111 M331,110L332,111 M282,111L283,112 M283,111L284,112 M330,111L331,112 M331,111L332,112 M281,112L282,113 M282,112L283,113 M283,112L284,113 M330,112L331,113 M331,112L332,113 M281,113L282,114 M282,113L283,114 M283,113L284,114 M329,113L330,114 M330,113L331,114 M280,114L281,115 M281,114L282,115 M282,114L283,115 M329,114L330,115 M330,114L331,115 M280,115L281,116 M281,115L282,116 M282,115L283,116 M329,115L330,116 M330,115L331,116 M279,116L280,117 M280,116L281,117 M281,116L282,117 M282,116L283,117 M329,116L330,117 M330,116L331,117 M279,117L280,118 M280,117L281,118 M281,117L282,118 M282,117L283,118 M329,117L330,118 M330,117L331,118 M278,118L279,119 M279,118L280,119 M280,118L281,119 M281,118L282,119 M329,118L330,119 M330,118L331,119 M278,119L279,120 M279,119L280,120 M280,119L281,120 M281,119L282,120 M328,119L329,120 M329,119L330,120 M277,120L278,121 M278,120L279,121 M279,120L280,121 M280,120L281,121 M281,120L282,121 M328,120L329,121 M329,120L330,121 M277,121L278,122 M278,121L279,122 M279,121L280,122 M280,121L281,122 M328,121L329,122 M329,121L330,122 M276,122L277,123 M277,122L278,123 M278,122L279,123 M279,122L280,123 M280,122L281,123 M328,122L329,123 M329,122L330,123 M276,123L277,124 M277,123L278,124 M278,123L279,124 M279,123L280,124 M328,123L329,124 M329,123L330,124 M276,124L277,125 M277,124L278,125 M278,124L279,125 M327,124L328,125 M328,124L329,125 M275,125L276,126 M276,125L277,126 M277,125L278,126 M278,125L279,126 M327,125L328,126 M328,125L329,126 M275,126L276,127 M276,126L277,127 M277,126L278,127 M327,126L328,127 M328,126L329,127 M274,127L275,128 M275,127L276,128 M276,127L277,128 M327,127L328,128 M328,127L329,128 M274,128L275,129 M275,128L276,129 M276,128L277,129 M326,128L327,129 M327,128L328,129 M273,129L274,130 M274,129L275,130 M275,129L276,130 M326,129L327,130 M327,129L328,130 M272,130L273,131 M273,130L274,131 M274,130L275,131 M275,130L276,131 M326,130L327,131 M327,130L328,131 M271,131L272,132 M272,131L273,132 M273,131L274,132 M274,131L275,132 M326,131L327,132 M327,131L328,132 M271,132L272,133 M272,132L273,133 M273,132L274,133 M274,132L275,133 M325,132L326,133 M326,132L327,133 M270,133L271,134 M271,133L272,134 M272,133L273,134 M273,133L274,134 M325,133L326,134 M326,133L327,134 M269,134L270,135 M270,134L271,135 M271,134L272,135 M272,134L273,135 M273,134L274,135 M325,134L326,135 M326,134L327,135 M268,135L269,136 M269,135L270,136 M270,135L271,136 M272,135L273,136 M273,135L274,136 M325,135L326,136 M326,135L327,136 M267,136L268,137 M268,136L269,137 M269,136L270,137 M271,136L272,137 M272,136L273,137 M324,136L325,137 M325,136L326,137 M266,137L267,138 M267,137L268,138 M268,137L269,138 M271,137L272,138 M272,137L273,138 M324,137L325,138 M325,137L326,138 M421,137L422,138 M422,137L423,138 M265,138L266,139 M266,138L267,139 M267,138L268,139 M271,138L272,139 M272,138L273,139 M324,138L325,139 M325,138L326,139 M419,138L420,139 M420,138L421,139 M421,138L422,139 M422,138L423,139 M265,139L266,140 M266,139L267,140 M270,139L271,140 M271,139L272,140 M324,139L325,140 M325,139L326,140 M417,139L418,140 M418,139L419,140 M419,139L420,140 M420,139L421,140 M264,140L265,141 M265,140L266,141 M270,140L271,141 M271,140L272,141 M323,140L324,141 M324,140L325,141 M402,140L403,141 M403,140L404,141 M404,140L405,141 M405,140L406,141 M406,140L407,141 M407,140L408,141 M408,140L409,141 M409,140L410,141 M410,140L411,141 M411,140L412,141 M412,140L413,141 M413,140L414,141 M414,140L415,141 M415,140L416,141 M416,140L417,141 M417,140L418,141 M418,140L419,141 M419,140L420,141 M420,140L421,141 M421,140L422,141 M422,140L423,141 M423,140L424,141 M263,141L264,142 M264,141L265,142 M269,141L270,142 M270,141L271,142 M271,141L272,142 M323,141L324,142 M324,141L325,142 M402,141L403,142 M403,141L404,142 M404,141L405,142 M405,141L406,142 M406,141L407,142 M407,141L408,142 M408,141L409,142 M409,141L410,142 M410,141L411,142 M411,141L412,142 M412,141L413,142 M413,141L414,142 M414,141L415,142 M415,141L416,142 M416,141L417,142 M417,141L418,142 M418,141L419,142 M419,141L420,142 M420,141L421,142 M421,141L422,142 M422,141L423,142 M423,141L424,142 M424,141L425,142 M425,141L426,142 M426,141L427,142 M427,141L428,142 M262,142L263,143 M263,142L264,143 M264,142L265,143 M269,142L270,143 M270,142L271,143 M323,142L324,143 M324,142L325,143 M413,142L414,143 M414,142L415,143 M415,142L416,143 M424,142L425,143 M425,142L426,143 M426,142L427,143 M427,142L428,143 M428,142L429,143 M429,142L430,143 M430,142L431,143 M431,142L432,143 M261,143L262,144 M262,143L263,144 M263,143L264,144 M269,143L270,144 M270,143L271,144 M323,143L324,144 M324,143L325,144 M412,143L413,144 M413,143L414,144 M414,143L415,144 M428,143L429,144 M429,143L430,144 M430,143L431,144 M431,143L432,144 M432,143L433,144 M433,143L434,144 M260,144L261,145 M261,144L262,145 M262,144L263,145 M268,144L269,145 M269,144L270,145 M322,144L323,145 M323,144L324,145 M410,144L411,145 M411,144L412,145 M412,144L413,145 M432,144L433,145 M433,144L434,145 M434,144L435,145 M259,145L260,146 M260,145L261,146 M261,145L262,146 M268,145L269,146 M269,145L270,146 M322,145L323,146 M323,145L324,146 M409,145L410,146 M410,145L411,146 M411,145L412,146 M433,145L434,146 M434,145L435,146 M435,145L436,146 M436,145L437,146 M259,146L260,147 M260,146L261,147 M268,146L269,147 M269,146L270,147 M322,146L323,147 M323,146L324,147 M408,146L409,147 M409,146L410,147 M410,146L411,147 M435,146L436,147 M436,146L437,147 M437,146L438,147 M258,147L259,148 M259,147L260,148 M267,147L268,148 M268,147L269,148 M322,147L323,148 M323,147L324,148 M407,147L408,148 M408,147L409,148 M409,147L410,148 M436,147L437,148 M437,147L438,148 M438,147L439,148 M257,148L258,149 M258,148L259,149 M259,148L260,149 M267,148L268,149 M268,148L269,149 M322,148L323,149 M323,148L324,149 M405,148L406,149 M406,148L407,149 M407,148L408,149 M408,148L409,149 M437,148L438,149 M438,148L439,149 M439,148L440,149 M256,149L257,150 M257,149L258,150 M258,149L259,150 M266,149L267,150 M267,149L268,150 M268,149L269,150 M321,149L322,150 M322,149L323,150 M404,149L405,150 M405,149L406,150 M406,149L407,150 M438,149L439,150 M439,149L440,150 M440,149L441,150 M255,150L256,151 M256,150L257,151 M257,150L258,151 M266,150L267,151 M267,150L268,151 M321,150L322,151 M322,150L323,151 M403,150L404,151 M404,150L405,151 M405,150L406,151 M439,150L440,151 M440,150L441,151 M441,150L442,151 M254,151L255,152 M255,151L256,152 M256,151L257,152 M266,151L267,152 M267,151L268,152 M321,151L322,152 M322,151L323,152 M402,151L403,152 M403,151L404,152 M404,151L405,152 M440,151L441,152 M441,151L442,152 M442,151L443,152 M443,151L444,152 M253,152L254,153 M254,152L255,153 M255,152L256,153 M266,152L267,153 M267,152L268,153 M321,152L322,153 M322,152L323,153 M401,152L402,153 M402,152L403,153 M403,152L404,153 M442,152L443,153 M443,152L444,153 M444,152L445,153 M252,153L253,154 M253,153L254,154 M254,153L255,154 M265,153L266,154 M266,153L267,154 M321,153L322,154 M322,153L323,154 M400,153L401,154 M401,153L402,154 M402,153L403,154 M443,153L444,154 M444,153L445,154 M445,153L446,154 M446,153L447,154 M251,154L252,155 M252,154L253,155 M253,154L254,155 M265,154L266,155 M266,154L267,155 M320,154L321,155 M321,154L322,155 M340,154L341,155 M341,154L342,155 M342,154L343,155 M343,154L344,155 M344,154L345,155 M345,154L346,155 M346,154L347,155 M347,154L348,155 M348,154L349,155 M349,154L350,155 M350,154L351,155 M351,154L352,155 M352,154L353,155 M353,154L354,155 M354,154L355,155 M355,154L356,155 M356,154L357,155 M357,154L358,155 M358,154L359,155 M359,154L360,155 M360,154L361,155 M361,154L362,155 M362,154L363,155 M363,154L364,155 M364,154L365,155 M365,154L366,155 M399,154L400,155 M400,154L401,155 M401,154L402,155 M445,154L446,155 M446,154L447,155 M447,154L448,155 M448,154L449,155 M250,155L251,156 M251,155L252,156 M252,155L253,156 M265,155L266,156 M266,155L267,156 M320,155L321,156 M321,155L322,156 M332,155L333,156 M333,155L334,156 M334,155L335,156 M335,155L336,156 M336,155L337,156 M337,155L338,156 M338,155L339,156 M339,155L340,156 M340,155L341,156 M341,155L342,156 M342,155L343,156 M343,155L344,156 M344,155L345,156 M345,155L346,156 M346,155L347,156 M347,155L348,156 M348,155L349,156 M349,155L350,156 M350,155L351,156 M351,155L352,156 M352,155L353,156 M353,155L354,156 M354,155L355,156 M355,155L356,156 M356,155L357,156 M357,155L358,156 M358,155L359,156 M359,155L360,156 M360,155L361,156 M361,155L362,156 M362,155L363,156 M363,155L364,156 M364,155L365,156 M365,155L366,156 M366,155L367,156 M367,155L368,156 M368,155L369,156 M369,155L370,156 M370,155L371,156 M399,155L400,156 M400,155L401,156 M446,155L447,156 M447,155L448,156 M448,155L449,156 M449,155L450,156 M249,156L250,157 M250,156L251,157 M264,156L265,157 M265,156L266,157 M320,156L321,157 M321,156L322,157 M328,156L329,157 M329,156L330,157 M330,156L331,157 M331,156L332,157 M332,156L333,157 M333,156L334,157 M334,156L335,157 M335,156L336,157 M336,156L337,157 M337,156L338,157 M338,156L339,157 M339,156L340,157 M366,156L367,157 M367,156L368,157 M368,156L369,157 M369,156L370,157 M370,156L371,157 M371,156L372,157 M372,156L373,157 M373,156L374,157 M398,156L399,157 M399,156L400,157 M448,156L449,157 M449,156L450,157 M450,156L451,157 M247,157L248,158 M248,157L249,158 M249,157L250,158 M264,157L265,158 M265,157L266,158 M320,157L321,158 M321,157L322,158 M326,157L327,158 M327,157L328,158 M328,157L329,158 M329,157L330,158 M330,157L331,158 M331,157L332,158 M371,157L372,158 M372,157L373,158 M373,157L374,158 M397,157L398,158 M398,157L399,158 M449,157L450,158 M450,157L451,158 M451,157L452,158 M452,157L453,158 M246,158L247,159 M247,158L248,159 M248,158L249,159 M264,158L265,159 M265,158L266,159 M319,158L320,159 M320,158L321,159 M321,158L322,159 M326,158L327,159 M327,158L328,159 M328,158L329,159 M329,158L330,159 M330,158L331,159 M331,158L332,159 M332,158L333,159 M373,158L374,159 M374,158L375,159 M396,158L397,159 M397,158L398,159 M451,158L452,159 M452,158L453,159 M453,158L454,159 M245,159L246,160 M246,159L247,160 M247,159L248,160 M264,159L265,160 M265,159L266,160 M319,159L320,160 M320,159L321,160 M327,159L328,160 M328,159L329,160 M329,159L330,160 M330,159L331,160 M331,159L332,160 M332,159L333,160 M333,159L334,160 M334,159L335,160 M335,159L336,160 M336,159L337,160 M337,159L338,160 M338,159L339,160 M339,159L340,160 M373,159L374,160 M374,159L375,160 M395,159L396,160 M396,159L397,160 M397,159L398,160 M452,159L453,160 M453,159L454,160 M454,159L455,160 M455,159L456,160 M244,160L245,161 M245,160L246,161 M246,160L247,161 M263,160L264,161 M264,160L265,161 M319,160L320,161 M320,160L321,161 M333,160L334,161 M334,160L335,161 M335,160L336,161 M336,160L337,161 M337,160L338,161 M338,160L339,161 M339,160L340,161 M373,160L374,161 M374,160L375,161 M394,160L395,161 M395,160L396,161 M396,160L397,161 M454,160L455,161 M455,160L456,161 M456,160L457,161 M457,160L458,161 M243,161L244,162 M244,161L245,162 M245,161L246,162 M263,161L264,162 M264,161L265,162 M319,161L320,162 M320,161L321,162 M373,161L374,162 M374,161L375,162 M375,161L376,162 M393,161L394,162 M394,161L395,162 M395,161L396,162 M455,161L456,162 M456,161L457,162 M457,161L458,162 M458,161L459,162 M242,162L243,163 M243,162L244,163 M244,162L245,163 M263,162L264,163 M264,162L265,163 M319,162L320,163 M320,162L321,163 M374,162L375,163 M375,162L376,163 M392,162L393,163 M393,162L394,163 M394,162L395,163 M457,162L458,163 M458,162L459,163 M459,162L460,163 M460,162L461,163 M241,163L242,164 M242,163L243,164 M243,163L244,164 M262,163L263,164 M263,163L264,164 M319,163L320,164 M320,163L321,164 M374,163L375,164 M375,163L376,164 M392,163L393,164 M393,163L394,164 M458,163L459,164 M459,163L460,164 M460,163L461,164 M461,163L462,164 M240,164L241,165 M241,164L242,165 M242,164L243,165 M262,164L263,165 M263,164L264,165 M319,164L320,165 M320,164L321,165 M374,164L375,165 M375,164L376,165 M391,164L392,165 M392,164L393,165 M460,164L461,165 M461,164L462,165 M462,164L463,165 M239,165L240,166 M240,165L241,166 M241,165L242,166 M262,165L263,166 M263,165L264,166 M319,165L320,166 M320,165L321,166 M374,165L375,166 M375,165L376,166 M390,165L391,166 M391,165L392,166 M392,165L393,166 M461,165L462,166 M462,165L463,166 M463,165L464,166 M464,165L465,166 M237,166L238,167 M238,166L239,167 M239,166L240,167 M240,166L241,167 M262,166L263,167 M263,166L264,167 M319,166L320,167 M320,166L321,167 M373,166L374,167 M374,166L375,167 M389,166L390,167 M390,166L391,167 M391,166L392,167 M463,166L464,167 M464,166L465,167 M465,166L466,167 M236,167L237,168 M237,167L238,168 M238,167L239,168 M262,167L263,168 M263,167L264,168 M319,167L320,168 M320,167L321,168 M373,167L374,168 M374,167L375,168 M389,167L390,168 M390,167L391,168 M464,167L465,168 M465,167L466,168 M466,167L467,168 M235,168L236,169 M236,168L237,169 M237,168L238,169 M262,168L263,169 M263,168L264,169 M319,168L320,169 M320,168L321,169 M373,168L374,169 M374,168L375,169 M388,168L389,169 M389,168L390,169 M465,168L466,169 M466,168L467,169 M467,168L468,169 M233,169L234,170 M234,169L235,170 M235,169L236,170 M236,169L237,170 M262,169L263,170 M263,169L264,170 M318,169L319,170 M319,169L320,170 M372,169L373,170 M373,169L374,170 M387,169L388,170 M388,169L389,170 M389,169L390,170 M466,169L467,170 M467,169L468,170 M468,169L469,170 M232,170L233,171 M233,170L234,171 M234,170L235,171 M261,170L262,171 M262,170L263,171 M318,170L319,171 M319,170L320,171 M372,170L373,171 M373,170L374,171 M386,170L387,171 M387,170L388,171 M388,170L389,171 M467,170L468,171 M468,170L469,171 M469,170L470,171 M231,171L232,172 M232,171L233,172 M233,171L234,172 M261,171L262,172 M262,171L263,172 M318,171L319,172 M319,171L320,172 M371,171L372,172 M372,171L373,172 M373,171L374,172 M386,171L387,172 M387,171L388,172 M468,171L469,172 M469,171L470,172 M230,172L231,173 M231,172L232,173 M232,172L233,173 M261,172L262,173 M262,172L263,173 M318,172L319,173 M319,172L320,173 M371,172L372,173 M372,172L373,173 M385,172L386,173 M386,172L387,173 M469,172L470,173 M470,172L471,173 M228,173L229,174 M229,173L230,174 M230,173L231,174 M231,173L232,174 M261,173L262,174 M262,173L263,174 M318,173L319,174 M319,173L320,174 M370,173L371,174 M371,173L372,174 M372,173L373,174 M384,173L385,174 M385,173L386,174 M386,173L387,174 M470,173L471,174 M471,173L472,174 M227,174L228,175 M228,174L229,175 M229,174L230,175 M261,174L262,175 M262,174L263,175 M318,174L319,175 M319,174L320,175 M370,174L371,175 M371,174L372,175 M384,174L385,175 M385,174L386,175 M470,174L471,175 M471,174L472,175 M472,174L473,175 M225,175L226,176 M226,175L227,176 M227,175L228,176 M228,175L229,176 M261,175L262,176 M262,175L263,176 M318,175L319,176 M319,175L320,176 M369,175L370,176 M370,175L371,176 M383,175L384,176 M384,175L385,176 M471,175L472,176 M472,175L473,176 M473,175L474,176 M224,176L225,177 M225,176L226,177 M226,176L227,177 M260,176L261,177 M261,176L262,177 M318,176L319,177 M319,176L320,177 M368,176L369,177 M369,176L370,177 M370,176L371,177 M382,176L383,177 M383,176L384,177 M384,176L385,177 M472,176L473,177 M473,176L474,177 M474,176L475,177 M222,177L223,178 M223,177L224,178 M224,177L225,178 M225,177L226,178 M260,177L261,178 M261,177L262,178 M318,177L319,178 M319,177L320,178 M368,177L369,178 M369,177L370,178 M382,177L383,178 M383,177L384,178 M473,177L474,178 M474,177L475,178 M220,178L221,179 M221,178L222,179 M222,178L223,179 M223,178L224,179 M260,178L261,179 M261,178L262,179 M318,178L319,179 M319,178L320,179 M367,178L368,179 M368,178L369,179 M369,178L370,179 M381,178L382,179 M382,178L383,179 M383,178L384,179 M473,178L474,179 M474,178L475,179 M219,179L220,180 M220,179L221,180 M221,179L222,180 M259,179L260,180 M260,179L261,180 M318,179L319,180 M319,179L320,180 M367,179L368,180 M368,179L369,180 M381,179L382,180 M382,179L383,180 M473,179L474,180 M474,179L475,180 M475,179L476,180 M217,180L218,181 M218,180L219,181 M219,180L220,181 M220,180L221,181 M259,180L260,181 M260,180L261,181 M318,180L319,181 M319,180L320,181 M366,180L367,181 M367,180L368,181 M380,180L381,181 M381,180L382,181 M382,180L383,181 M474,180L475,181 M475,180L476,181 M215,181L216,182 M216,181L217,182 M217,181L218,182 M218,181L219,182 M258,181L259,182 M259,181L260,182 M260,181L261,182 M318,181L319,182 M319,181L320,182 M364,181L365,182 M365,181L366,182 M366,181L367,182 M367,181L368,182 M380,181L381,182 M381,181L382,182 M474,181L475,182 M475,181L476,182 M214,182L215,183 M215,182L216,183 M216,182L217,183 M217,182L218,183 M258,182L259,183 M259,182L260,183 M318,182L319,183 M319,182L320,183 M362,182L363,183 M363,182L364,183 M364,182L365,183 M365,182L366,183 M379,182L380,183 M380,182L381,183 M474,182L475,183 M475,182L476,183 M211,183L212,184 M212,183L213,184 M213,183L214,184 M214,183L215,184 M215,183L216,184 M258,183L259,184 M259,183L260,184 M318,183L319,184 M319,183L320,184 M361,183L362,184 M362,183L363,184 M363,183L364,184 M364,183L365,184 M379,183L380,184 M380,183L381,184 M474,183L475,184 M475,183L476,184 M209,184L210,185 M210,184L211,185 M211,184L212,185 M212,184L213,185 M213,184L214,185 M318,184L319,185 M319,184L320,185 M359,184L360,185 M360,184L361,185 M361,184L362,185 M362,184L363,185 M378,184L379,185 M379,184L380,185 M474,184L475,185 M475,184L476,185 M476,184L477,185 M207,185L208,186 M208,185L209,186 M209,185L210,186 M210,185L211,186 M211,185L212,186 M318,185L319,186 M319,185L320,186 M357,185L358,186 M358,185L359,186 M359,185L360,186 M360,185L361,186 M378,185L379,186 M379,185L380,186 M475,185L476,186 M476,185L477,186 M205,186L206,187 M206,186L207,187 M207,186L208,187 M208,186L209,187 M318,186L319,187 M319,186L320,187 M356,186L357,187 M357,186L358,187 M358,186L359,187 M359,186L360,187 M378,186L379,187 M379,186L380,187 M475,186L476,187 M476,186L477,187 M206,187L207,188 M318,187L319,188 M319,187L320,188 M354,187L355,188 M355,187L356,188 M356,187L357,188 M357,187L358,188 M378,187L379,188 M379,187L380,188 M475,187L476,188 M476,187L477,188 M318,188L319,189 M319,188L320,189 M352,188L353,189 M353,188L354,189 M354,188L355,189 M355,188L356,189 M377,188L378,189 M378,188L379,189 M475,188L476,189 M476,188L477,189 M318,189L319,190 M319,189L320,190 M320,189L321,190 M350,189L351,190 M351,189L352,190 M352,189L353,190 M353,189L354,190 M377,189L378,190 M378,189L379,190 M474,189L475,190 M475,189L476,190 M319,190L320,191 M320,190L321,191 M321,190L322,191 M346,190L347,191 M347,190L348,191 M348,190L349,191 M349,190L350,191 M350,190L351,191 M351,190L352,191 M352,190L353,191 M377,190L378,191 M378,190L379,191 M474,190L475,191 M475,190L476,191 M320,191L321,192 M321,191L322,192 M322,191L323,192 M323,191L324,192 M324,191L325,192 M325,191L326,192 M339,191L340,192 M340,191L341,192 M341,191L342,192 M342,191L343,192 M343,191L344,192 M344,191L345,192 M345,191L346,192 M346,191L347,192 M347,191L348,192 M348,191L349,192 M349,191L350,192 M350,191L351,192 M377,191L378,192 M378,191L379,192 M379,191L380,192 M474,191L475,192 M475,191L476,192 M321,192L322,193 M322,192L323,193 M323,192L324,193 M324,192L325,193 M325,192L326,193 M326,192L327,193 M327,192L328,193 M328,192L329,193 M329,192L330,193 M330,192L331,193 M331,192L332,193 M332,192L333,193 M333,192L334,193 M334,192L335,193 M335,192L336,193 M336,192L337,193 M337,192L338,193 M338,192L339,193 M339,192L340,193 M340,192L341,193 M341,192L342,193 M342,192L343,193 M343,192L344,193 M344,192L345,193 M345,192L346,193 M378,192L379,193 M379,192L380,193 M380,192L381,193 M381,192L382,193 M474,192L475,193 M475,192L476,193 M326,193L327,194 M327,193L328,194 M328,193L329,194 M329,193L330,194 M330,193L331,194 M331,193L332,194 M332,193L333,194 M333,193L334,194 M334,193L335,194 M335,193L336,194 M336,193L337,194 M337,193L338,194 M338,193L339,194 M380,193L381,194 M381,193L382,194 M382,193L383,194 M473,193L474,194 M474,193L475,194 M381,194L382,195 M382,194L383,195 M383,194L384,195 M384,194L385,195 M473,194L474,195 M474,194L475,195 M382,195L383,196 M383,195L384,196 M384,195L385,196 M385,195L386,196 M386,195L387,196 M387,195L388,196 M472,195L473,196 M473,195L474,196 M474,195L475,196 M384,196L385,197 M385,196L386,197 M386,196L387,197 M387,196L388,197 M388,196L389,197 M389,196L390,197 M472,196L473,197 M473,196L474,197 M387,197L388,198 M388,197L389,198 M389,197L390,198 M390,197L391,198 M391,197L392,198 M392,197L393,198 M471,197L472,198 M472,197L473,198 M390,198L391,199 M391,198L392,199 M392,198L393,199 M393,198L394,199 M394,198L395,199 M395,198L396,199 M470,198L471,199 M471,198L472,199 M472,198L473,199 M393,199L394,200 M394,199L395,200 M395,199L396,200 M396,199L397,200 M397,199L398,200 M398,199L399,200 M399,199L400,200 M400,199L401,200 M470,199L471,200 M471,199L472,200 M396,200L397,201 M397,200L398,201 M398,200L399,201 M399,200L400,201 M400,200L401,201 M401,200L402,201 M402,200L403,201 M403,200L404,201 M404,200L405,201 M405,200L406,201 M406,200L407,201 M407,200L408,201 M468,200L469,201 M469,200L470,201 M470,200L471,201 M401,201L402,202 M402,201L403,202 M403,201L404,202 M404,201L405,202 M405,201L406,202 M406,201L407,202 M407,201L408,202 M408,201L409,202 M409,201L410,202 M410,201L411,202 M411,201L412,202 M412,201L413,202 M413,201L414,202 M414,201L415,202 M415,201L416,202 M466,201L467,202 M467,201L468,202 M468,201L469,202 M469,201L470,202 M470,201L471,202 M408,202L409,203 M409,202L410,203 M410,202L411,203 M411,202L412,203 M412,202L413,203 M413,202L414,203 M414,202L415,203 M415,202L416,203 M416,202L417,203 M417,202L418,203 M418,202L419,203 M419,202L420,203 M420,202L421,203 M421,202L422,203 M422,202L423,203 M463,202L464,203 M464,202L465,203 M465,202L466,203 M466,202L467,203 M467,202L468,203 M468,202L469,203 M416,203L417,204 M417,203L418,204 M418,203L419,204 M419,203L420,204 M420,203L421,204 M421,203L422,204 M422,203L423,204 M423,203L424,204 M424,203L425,204 M425,203L426,204 M426,203L427,204 M427,203L428,204 M428,203L429,204 M429,203L430,204 M430,203L431,204 M431,203L432,204 M432,203L433,204 M433,203L434,204 M434,203L435,204 M435,203L436,204 M460,203L461,204 M461,203L462,204 M462,203L463,204 M463,203L464,204 M464,203L465,204 M465,203L466,204 M423,204L424,205 M424,204L425,205 M425,204L426,205 M426,204L427,205 M427,204L428,205 M428,204L429,205 M429,204L430,205 M430,204L431,205 M431,204L432,205 M432,204L433,205 M433,204L434,205 M434,204L435,205 M435,204L436,205 M436,204L437,205 M437,204L438,205 M438,204L439,205 M439,204L440,205 M440,204L441,205 M441,204L442,205 M442,204L443,205 M443,204L444,205 M444,204L445,205 M445,204L446,205 M446,204L447,205 M447,204L448,205 M448,204L449,205 M449,204L450,205 M450,204L451,205 M451,204L452,205 M452,204L453,205 M453,204L454,205 M454,204L455,205 M455,204L456,205 M456,204L457,205 M457,204L458,205 M458,204L459,205 M459,204L460,205 M460,204L461,205 M461,204L462,205 M462,204L463,205 M436,205L437,206 M437,205L438,206 M438,205L439,206 M439,205L440,206 M440,205L441,206 M441,205L442,206 M442,205L443,206 M443,205L444,206 M444,205L445,206 M445,205L446,206 M446,205L447,206 M447,205L448,206 M448,205L449,206 M449,205L450,206 M450,205L451,206 M451,205L452,206 M452,205L453,206 M453,205L454,206 M454,205L455,206 M455,205L456,206 M456,205L457,206 M457,205L458,206 M458,205L459,206 M459,205L460,206" fill="none" stroke="black" />
    </svg>