<svg xmlns="http://www.w3.org/2000/svg" width="800" height="250">
        <path d="M257,56L258,57 M258,56L259,57 M257,57L258,58 M258,57L259,58 M257,58L258,59 M258,58L259,59 M257,59L258,60 M258,59L259,60 M259,59L260,60 M260,59L261,60 M261,59L262,60 M262,59L263,60 M263,59L264,60 M264,59L265,60 M265,59L266,60 M266,59L267,60 M267,59L268,60 M268,59L269,60 M269,59L270,60 M257,60L258,61 M258,60L259,61 M259,60L260,61 M260,60L261,61 M261,60L262,61 M262,60L263,61 M263,60L264,61 M264,60L265,61 M265,60L266,61 M266,60L267,61 M267,60L268,61 M268,60L269,61 M269,60L270,61 M270,60L271,61 M271,60L272,61 M272,60L273,61 M273,60L274,61 M274,60L275,61 M275,60L276,61 M257,61L258,62 M258,61L259,62 M270,61L271,62 M271,61L272,62 M272,61L273,62 M273,61L274,62 M274,61L275,62 M275,61L276,62 M276,61L277,62 M277,61L278,62 M278,61L279,62 M115,62L116,63 M116,62L117,63 M117,62L118,63 M118,62L119,63 M119,62L120,63 M120,62L121,63 M121,62L122,63 M122,62L123,63 M123,62L124,63 M124,62L125,63 M125,62L126,63 M126,62L127,63 M127,62L128,63 M257,62L258,63 M258,62L259,63 M275,62L276,63 M276,62L277,63 M277,62L278,63 M278,62L279,63 M279,62L280,63 M280,62L281,63 M281,62L282,63 M108,63L109,64 M109,63L110,64 M110,63L111,64 M111,63L112,64 M112,63L113,64 M113,63L114,64 M114,63L115,64 M115,63L116,64 M116,63L117,64 M117,63L118,64 M118,63L119,64 M119,63L120,64 M120,63L121,64 M121,63L122,64 M122,63L123,64 M123,63L124,64 M124,63L125,64 M125,63L126,64 M126,63L127,64 M127,63L128,64 M128,63L129,64 M129,63L130,64 M130,63L131,64 M131,63L132,64 M132,63L133,64 M133,63L134,64 M134,63L135,64 M135,63L136,64 M257,63L258,64 M258,63L259,64 M278,63L279,64 M279,63L280,64 M280,63L281,64 M281,63L282,64 M282,63L283,64 M283,63L284,64 M284,63L285,64 M96,64L97,65 M97,64L98,65 M103,64L104,65 M104,64L105,65 M105,64L106,65 M106,64L107,65 M107,64L108,65 M108,64L109,65 M109,64L110,65 M110,64L111,65 M111,64L112,65 M112,64L113,65 M113,64L114,65 M114,64L115,65 M128,64L129,65 M129,64L130,65 M130,64L131,65 M131,64L132,65 M132,64L133,65 M133,64L134,65 M134,64L135,65 M135,64L136,65 M136,64L137,65 M257,64L258,65 M258,64L259,65 M281,64L282,65 M282,64L283,65 M283,64L284,65 M284,64L285,65 M285,64L286,65 M286,64L287,65 M287,64L288,65 M96,65L97,66 M97,65L98,66 M99,65L100,66 M100,65L101,66 M101,65L102,66 M102,65L103,66 M103,65L104,66 M104,65L105,66 M105,65L106,66 M106,65L107,66 M107,65L108,66 M108,65L109,66 M135,65L136,66 M136,65L137,66 M137,65L138,66 M138,65L139,66 M256,65L257,66 M257,65L258,66 M284,65L285,66 M285,65L286,66 M286,65L287,66 M287,65L288,66 M288,65L289,66 M289,65L290,66 M290,65L291,66 M96,66L97,67 M97,66L98,67 M98,66L99,67 M99,66L100,67 M100,66L101,67 M101,66L102,67 M102,66L103,67 M103,66L104,67 M137,66L138,67 M138,66L139,67 M256,66L257,67 M257,66L258,67 M287,66L288,67 M288,66L289,67 M289,66L290,67 M290,66L291,67 M291,66L292,67 M292,66L293,67 M293,66L294,67 M96,67L97,68 M97,67L98,68 M98,67L99,68 M99,67L100,68 M100,67L101,68 M138,67L139,68 M139,67L140,68 M256,67L257,68 M257,67L258,68 M290,67L291,68 M291,67L292,68 M292,67L293,68 M293,67L294,68 M294,67L295,68 M295,67L296,68 M96,68L97,69 M97,68L98,69 M99,68L100,69 M138,68L139,69 M139,68L140,69 M140,68L141,69 M256,68L257,69 M257,68L258,69 M293,68L294,69 M294,68L295,69 M295,68L296,69 M296,68L297,69 M297,68L298,69 M298,68L299,69 M96,69L97,70 M97,69L98,70 M139,69L140,70 M140,69L141,70 M256,69L257,70 M257,69L258,70 M296,69L297,70 M297,69L298,70 M298,69L299,70 M299,69L300,70 M300,69L301,70 M96,70L97,71 M97,70L98,71 M139,70L140,71 M140,70L141,71 M256,70L257,71 M257,70L258,71 M298,70L299,71 M299,70L300,71 M300,70L301,71 M301,70L302,71 M302,70L303,71 M303,70L304,71 M96,71L97,72 M97,71L98,72 M139,71L140,72 M140,71L141,72 M256,71L257,72 M257,71L258,72 M301,71L302,72 M302,71L303,72 M303,71L304,72 M304,71L305,72 M305,71L306,72 M306,71L307,72 M96,72L97,73 M97,72L98,73 M139,72L140,73 M140,72L141,73 M256,72L257,73 M257,72L258,73 M304,72L305,73 M305,72L306,73 M306,72L307,73 M307,72L308,73 M308,72L309,73 M96,73L97,74 M97,73L98,74 M139,73L140,74 M140,73L141,74 M256,73L257,74 M257,73L258,74 M306,73L307,74 M307,73L308,74 M308,73L309,74 M309,73L310,74 M310,73L311,74 M311,73L312,74 M96,74L97,75 M97,74L98,75 M138,74L139,75 M139,74L140,75 M256,74L257,75 M257,74L258,75 M309,74L310,75 M310,74L311,75 M311,74L312,75 M312,74L313,75 M313,74L314,75 M96,75L97,76 M97,75L98,76 M138,75L139,76 M139,75L140,76 M255,75L256,76 M256,75L257,76 M311,75L312,76 M312,75L313,76 M313,75L314,76 M314,75L315,76 M315,75L316,76 M316,75L317,76 M96,76L97,77 M97,76L98,77 M137,76L138,77 M138,76L139,77 M139,76L140,77 M255,76L256,77 M256,76L257,77 M314,76L315,77 M315,76L316,77 M316,76L317,77 M317,76L318,77 M318,76L319,77 M96,77L97,78 M97,77L98,78 M137,77L138,78 M138,77L139,78 M255,77L256,78 M256,77L257,78 M316,77L317,78 M317,77L318,78 M318,77L319,78 M319,77L320,78 M320,77L321,78 M96,78L97,79 M97,78L98,79 M136,78L137,79 M137,78L138,79 M138,78L139,79 M255,78L256,79 M256,78L257,79 M319,78L320,79 M320,78L321,79 M321,78L322,79 M322,78L323,79 M323,78L324,79 M96,79L97,80 M97,79L98,80 M136,79L137,80 M137,79L138,80 M255,79L256,80 M256,79L257,80 M321,79L322,80 M322,79L323,80 M323,79L324,80 M324,79L325,80 M325,79L326,80 M96,80L97,81 M97,80L98,81 M135,80L136,81 M136,80L137,81 M137,80L138,81 M255,80L256,81 M256,80L257,81 M323,80L324,81 M324,80L325,81 M325,80L326,81 M326,80L327,81 M327,80L328,81 M328,80L329,81 M96,81L97,82 M97,81L98,82 M134,81L135,82 M135,81L136,82 M136,81L137,82 M255,81L256,82 M256,81L257,82 M326,81L327,82 M327,81L328,82 M328,81L329,82 M329,81L330,82 M330,81L331,82 M96,82L97,83 M97,82L98,83 M134,82L135,83 M135,82L136,83 M255,82L256,83 M256,82L257,83 M328,82L329,83 M329,82L330,83 M330,82L331,83 M331,82L332,83 M332,82L333,83 M96,83L97,84 M97,83L98,84 M133,83L134,84 M134,83L135,84 M255,83L256,84 M256,83L257,84 M330,83L331,84 M331,83L332,84 M332,83L333,84 M333,83L334,84 M334,83L335,84 M96,84L97,85 M97,84L98,85 M132,84L133,85 M133,84L134,85 M255,84L256,85 M256,84L257,85 M333,84L334,85 M334,84L335,85 M335,84L336,85 M336,84L337,85 M96,85L97,86 M97,85L98,86 M131,85L132,86 M132,85L133,86 M255,85L256,86 M256,85L257,86 M335,85L336,86 M336,85L337,86 M337,85L338,86 M338,85L339,86 M339,85L340,86 M96,86L97,87 M97,86L98,87 M130,86L131,87 M131,86L132,87 M255,86L256,87 M256,86L257,87 M337,86L338,87 M338,86L339,87 M339,86L340,87 M340,86L341,87 M96,87L97,88 M97,87L98,88 M130,87L131,88 M131,87L132,88 M254,87L255,88 M255,87L256,88 M339,87L340,88 M340,87L341,88 M341,87L342,88 M96,88L97,89 M97,88L98,89 M129,88L130,89 M130,88L131,89 M131,88L132,89 M254,88L255,89 M255,88L256,89 M340,88L341,89 M341,88L342,89 M342,88L343,89 M96,89L97,90 M97,89L98,90 M128,89L129,90 M129,89L130,90 M130,89L131,90 M254,89L255,90 M255,89L256,90 M341,89L342,90 M342,89L343,90 M343,89L344,90 M344,89L345,90 M96,90L97,91 M97,90L98,91 M127,90L128,91 M128,90L129,91 M129,90L130,91 M254,90L255,91 M255,90L256,91 M343,90L344,91 M344,90L345,91 M345,90L346,91 M96,91L97,92 M97,91L98,92 M126,91L127,92 M127,91L128,92 M128,91L129,92 M254,91L255,92 M255,91L256,92 M344,91L345,92 M345,91L346,92 M96,92L97,93 M97,92L98,93 M125,92L126,93 M126,92L127,93 M127,92L128,93 M254,92L255,93 M255,92L256,93 M345,92L346,93 M346,92L347,93 M96,93L97,94 M97,93L98,94 M124,93L125,94 M125,93L126,94 M126,93L127,94 M254,93L255,94 M255,93L256,94 M345,93L346,94 M346,93L347,94 M347,93L348,94 M96,94L97,95 M97,94L98,95 M123,94L124,95 M124,94L125,95 M254,94L255,95 M255,94L256,95 M346,94L347,95 M347,94L348,95 M348,94L349,95 M96,95L97,96 M97,95L98,96 M121,95L122,96 M122,95L123,96 M123,95L124,96 M254,95L255,96 M255,95L256,96 M347,95L348,96 M348,95L349,96 M96,96L97,97 M97,96L98,97 M120,96L121,97 M121,96L122,97 M122,96L123,97 M254,96L255,97 M255,96L256,97 M348,96L349,97 M349,96L350,97 M96,97L97,98 M97,97L98,98 M119,97L120,98 M120,97L121,98 M254,97L255,98 M255,97L256,98 M348,97L349,98 M349,97L350,98 M350,97L351,98 M96,98L97,99 M97,98L98,99 M115,98L116,99 M116,98L117,99 M117,98L118,99 M118,98L119,99 M119,98L120,99 M254,98L255,99 M255,98L256,99 M349,98L350,99 M350,98L351,99 M95,99L96,100 M96,99L97,100 M114,99L115,100 M115,99L116,100 M116,99L117,100 M117,99L118,100 M118,99L119,100 M254,99L255,100 M255,99L256,100 M349,99L350,100 M350,99L351,100 M351,99L352,100 M95,100L96,101 M96,100L97,101 M112,100L113,101 M113,100L114,101 M114,100L115,101 M254,100L255,101 M255,100L256,101 M350,100L351,101 M351,100L352,101 M95,101L96,102 M96,101L97,102 M110,101L111,102 M111,101L112,102 M112,101L113,102 M113,101L114,102 M254,101L255,102 M255,101L256,102 M351,101L352,102 M352,101L353,102 M95,102L96,103 M96,102L97,103 M109,102L110,103 M110,102L111,103 M111,102L112,103 M112,102L113,103 M254,102L255,103 M255,102L256,103 M351,102L352,103 M352,102L353,103 M95,103L96,104 M96,103L97,104 M106,103L107,104 M107,103L108,104 M108,103L109,104 M109,103L110,104 M110,103L111,104 M254,103L255,104 M255,103L256,104 M352,103L353,104 M353,103L354,104 M95,104L96,105 M96,104L97,105 M104,104L105,105 M105,104L106,105 M106,104L107,105 M107,104L108,105 M108,104L109,105 M109,104L110,105 M110,104L111,105 M111,104L112,105 M112,104L113,105 M113,104L114,105 M114,104L115,105 M115,104L116,105 M116,104L117,105 M117,104L118,105 M118,104L119,105 M119,104L120,105 M120,104L121,105 M121,104L122,105 M254,104L255,105 M255,104L256,105 M352,104L353,105 M353,104L354,105 M95,105L96,106 M96,105L97,106 M104,105L105,106 M105,105L106,106 M106,105L107,106 M107,105L108,106 M108,105L109,106 M109,105L110,106 M110,105L111,106 M111,105L112,106 M112,105L113,106 M113,105L114,106 M114,105L115,106 M115,105L116,106 M116,105L117,106 M117,105L118,106 M118,105L119,106 M119,105L120,106 M120,105L121,106 M121,105L122,106 M122,105L123,106 M123,105L124,106 M124,105L125,106 M125,105L126,106 M126,105L127,106 M127,105L128,106 M128,105L129,106 M129,105L130,106 M130,105L131,106 M131,105L132,106 M254,105L255,106 M255,105L256,106 M352,105L353,106 M353,105L354,106 M95,106L96,107 M96,106L97,107 M122,106L123,107 M123,106L124,107 M124,106L125,107 M125,106L126,107 M126,106L127,107 M127,106L128,107 M128,106L129,107 M129,106L130,107 M130,106L131,107 M131,106L132,107 M132,106L133,107 M133,106L134,107 M134,106L135,107 M135,106L136,107 M136,106L137,107 M137,106L138,107 M138,106L139,107 M139,106L140,107 M140,106L141,107 M141,106L142,107 M142,106L143,107 M143,106L144,107 M144,106L145,107 M145,106L146,107 M146,106L147,107 M147,106L148,107 M148,106L149,107 M149,106L150,107 M150,106L151,107 M151,106L152,107 M152,106L153,107 M153,106L154,107 M154,106L155,107 M155,106L156,107 M156,106L157,107 M157,106L158,107 M158,106L159,107 M254,106L255,107 M255,106L256,107 M352,106L353,107 M353,106L354,107 M95,107L96,108 M96,107L97,108 M132,107L133,108 M133,107L134,108 M134,107L135,108 M135,107L136,108 M136,107L137,108 M137,107L138,108 M138,107L139,108 M139,107L140,108 M140,107L141,108 M141,107L142,108 M142,107L143,108 M143,107L144,108 M144,107L145,108 M145,107L146,108 M146,107L147,108 M147,107L148,108 M148,107L149,108 M149,107L150,108 M150,107L151,108 M151,107L152,108 M152,107L153,108 M153,107L154,108 M154,107L155,108 M155,107L156,108 M156,107L157,108 M157,107L158,108 M158,107L159,108 M159,107L160,108 M160,107L161,108 M161,107L162,108 M162,107L163,108 M163,107L164,108 M164,107L165,108 M165,107L166,108 M166,107L167,108 M167,107L168,108 M254,107L255,108 M255,107L256,108 M352,107L353,108 M353,107L354,108 M95,108L96,109 M96,108L97,109 M158,108L159,109 M159,108L160,109 M160,108L161,109 M161,108L162,109 M162,108L163,109 M163,108L164,109 M164,108L165,109 M165,108L166,109 M166,108L167,109 M167,108L168,109 M168,108L169,109 M169,108L170,109 M170,108L171,109 M171,108L172,109 M172,108L173,109 M173,108L174,109 M174,108L175,109 M254,108L255,109 M255,108L256,109 M352,108L353,109 M353,108L354,109 M354,108L355,109 M95,109L96,110 M96,109L97,110 M168,109L169,110 M169,109L170,110 M170,109L171,110 M171,109L172,110 M172,109L173,110 M173,109L174,110 M174,109L175,110 M175,109L176,110 M254,109L255,110 M255,109L256,110 M353,109L354,110 M354,109L355,110 M95,110L96,111 M96,110L97,111 M174,110L175,111 M175,110L176,111 M176,110L177,111 M177,110L178,111 M254,110L255,111 M255,110L256,111 M353,110L354,111 M354,110L355,111 M95,111L96,112 M96,111L97,112 M176,111L177,112 M177,111L178,112 M178,111L179,112 M179,111L180,112 M253,111L254,112 M254,111L255,112 M353,111L354,112 M354,111L355,112 M95,112L96,113 M96,112L97,113 M177,112L178,113 M178,112L179,113 M179,112L180,113 M253,112L254,113 M254,112L255,113 M353,112L354,113 M354,112L355,113 M95,113L96,114 M96,113L97,114 M179,113L180,114 M180,113L181,114 M253,113L254,114 M254,113L255,114 M353,113L354,114 M354,113L355,114 M95,114L96,115 M96,114L97,115 M179,114L180,115 M180,114L181,115 M253,114L254,115 M254,114L255,115 M353,114L354,115 M354,114L355,115 M95,115L96,116 M96,115L97,116 M179,115L180,116 M180,115L181,116 M181,115L182,116 M253,115L254,116 M254,115L255,116 M353,115L354,116 M354,115L355,116 M95,116L96,117 M96,116L97,117 M180,116L181,117 M181,116L182,117 M253,116L254,117 M254,116L255,117 M353,116L354,117 M354,116L355,117 M95,117L96,118 M96,117L97,118 M180,117L181,118 M181,117L182,118 M253,117L254,118 M254,117L255,118 M352,117L353,118 M353,117L354,118 M354,117L355,118 M95,118L96,119 M96,118L97,119 M180,118L181,119 M181,118L182,119 M253,118L254,119 M254,118L255,119 M352,118L353,119 M353,118L354,119 M95,119L96,120 M96,119L97,120 M180,119L181,120 M181,119L182,120 M253,119L254,120 M254,119L255,120 M352,119L353,120 M353,119L354,120 M95,120L96,121 M96,120L97,121 M180,120L181,121 M181,120L182,121 M253,120L254,121 M254,120L255,121 M352,120L353,121 M353,120L354,121 M94,121L95,122 M95,121L96,122 M180,121L181,122 M181,121L182,122 M253,121L254,122 M254,121L255,122 M351,121L352,122 M352,121L353,122 M94,122L95,123 M95,122L96,123 M180,122L181,123 M181,122L182,123 M253,122L254,123 M254,122L255,123 M349,122L350,123 M350,122L351,123 M351,122L352,123 M94,123L95,124 M95,123L96,124 M180,123L181,124 M181,123L182,124 M253,123L254,124 M254,123L255,124 M348,123L349,124 M349,123L350,124 M350,123L351,124 M94,124L95,125 M95,124L96,125 M180,124L181,125 M181,124L182,125 M253,124L254,125 M254,124L255,125 M346,124L347,125 M347,124L348,125 M348,124L349,125 M349,124L350,125 M94,125L95,126 M95,125L96,126 M179,125L180,126 M180,125L181,126 M252,125L253,126 M253,125L254,126 M254,125L255,126 M342,125L343,126 M343,125L344,126 M344,125L345,126 M345,125L346,126 M346,125L347,126 M347,125L348,126 M94,126L95,127 M95,126L96,127 M179,126L180,127 M180,126L181,127 M252,126L253,127 M253,126L254,127 M339,126L340,127 M340,126L341,127 M341,126L342,127 M342,126L343,127 M343,126L344,127 M344,126L345,127 M345,126L346,127 M346,126L347,127 M94,127L95,128 M95,127L96,128 M178,127L179,128 M179,127L180,128 M180,127L181,128 M252,127L253,128 M253,127L254,128 M337,127L338,128 M338,127L339,128 M339,127L340,128 M340,127L341,128 M341,127L342,128 M93,128L94,129 M94,128L95,129 M177,128L178,129 M178,128L179,129 M179,128L180,129 M252,128L253,129 M253,128L254,129 M334,128L335,129 M335,128L336,129 M336,128L337,129 M337,128L338,129 M338,128L339,129 M339,128L340,129 M93,129L94,130 M94,129L95,130 M176,129L177,130 M177,129L178,130 M178,129L179,130 M252,129L253,130 M253,129L254,130 M330,129L331,130 M331,129L332,130 M332,129L333,130 M333,129L334,130 M334,129L335,130 M335,129L336,130 M336,129L337,130 M93,130L94,131 M94,130L95,131 M175,130L176,131 M176,130L177,131 M177,130L178,131 M252,130L253,131 M253,130L254,131 M325,130L326,131 M326,130L327,131 M327,130L328,131 M328,130L329,131 M329,130L330,131 M330,130L331,131 M331,130L332,131 M332,130L333,131 M333,130L334,131 M334,130L335,131 M93,131L94,132 M94,131L95,132 M174,131L175,132 M175,131L176,132 M176,131L177,132 M251,131L252,132 M252,131L253,132 M320,131L321,132 M321,131L322,132 M322,131L323,132 M323,131L324,132 M324,131L325,132 M325,131L326,132 M326,131L327,132 M327,131L328,132 M328,131L329,132 M329,131L330,132 M93,132L94,133 M94,132L95,133 M173,132L174,133 M174,132L175,133 M175,132L176,133 M251,132L252,133 M252,132L253,133 M315,132L316,133 M316,132L317,133 M317,132L318,133 M318,132L319,133 M319,132L320,133 M320,132L321,133 M321,132L322,133 M322,132L323,133 M323,132L324,133 M324,132L325,133 M325,132L326,133 M93,133L94,134 M94,133L95,134 M172,133L173,134 M173,133L174,134 M250,133L251,134 M251,133L252,134 M252,133L253,134 M253,133L254,134 M254,133L255,134 M255,133L256,134 M256,133L257,134 M257,133L258,134 M258,133L259,134 M259,133L260,134 M260,133L261,134 M261,133L262,134 M262,133L263,134 M263,133L264,134 M264,133L265,134 M265,133L266,134 M266,133L267,134 M267,133L268,134 M268,133L269,134 M269,133L270,134 M270,133L271,134 M271,133L272,134 M272,133L273,134 M273,133L274,134 M274,133L275,134 M275,133L276,134 M276,133L277,134 M277,133L278,134 M278,133L279,134 M279,133L280,134 M280,133L281,134 M281,133L282,134 M282,133L283,134 M283,133L284,134 M284,133L285,134 M285,133L286,134 M286,133L287,134 M287,133L288,134 M288,133L289,134 M289,133L290,134 M290,133L291,134 M291,133L292,134 M292,133L293,134 M293,133L294,134 M294,133L295,134 M295,133L296,134 M296,133L297,134 M297,133L298,134 M298,133L299,134 M299,133L300,134 M300,133L301,134 M301,133L302,134 M302,133L303,134 M303,133L304,134 M304,133L305,134 M305,133L306,134 M306,133L307,134 M307,133L308,134 M308,133L309,134 M309,133L310,134 M310,133L311,134 M311,133L312,134 M312,133L313,134 M313,133L314,134 M314,133L315,134 M315,133L316,134 M316,133L317,134 M317,133L318,134 M318,133L319,134 M319,133L320,134 M320,133L321,134 M93,134L94,135 M94,134L95,135 M171,134L172,135 M172,134L173,135 M250,134L251,135 M251,134L252,135 M252,134L253,135 M253,134L254,135 M254,134L255,135 M255,134L256,135 M256,134L257,135 M257,134L258,135 M258,134L259,135 M259,134L260,135 M260,134L261,135 M261,134L262,135 M262,134L263,135 M263,134L264,135 M264,134L265,135 M265,134L266,135 M266,134L267,135 M267,134L268,135 M268,134L269,135 M269,134L270,135 M270,134L271,135 M271,134L272,135 M272,134L273,135 M273,134L274,135 M274,134L275,135 M275,134L276,135 M276,134L277,135 M277,134L278,135 M278,134L279,135 M279,134L280,135 M280,134L281,135 M281,134L282,135 M282,134L283,135 M283,134L284,135 M284,134L285,135 M285,134L286,135 M286,134L287,135 M287,134L288,135 M288,134L289,135 M289,134L290,135 M290,134L291,135 M291,134L292,135 M292,134L293,135 M293,134L294,135 M294,134L295,135 M295,134L296,135 M296,134L297,135 M297,134L298,135 M298,134L299,135 M299,134L300,135 M300,134L301,135 M301,134L302,135 M302,134L303,135 M303,134L304,135 M304,134L305,135 M305,134L306,135 M306,134L307,135 M307,134L308,135 M308,134L309,135 M309,134L310,135 M310,134L311,135 M311,134L312,135 M312,134L313,135 M313,134L314,135 M314,134L315,135 M93,135L94,136 M94,135L95,136 M169,135L170,136 M170,135L171,136 M171,135L172,136 M93,136L94,137 M94,136L95,137 M167,136L168,137 M168,136L169,137 M169,136L170,137 M170,136L171,137 M93,137L94,138 M94,137L95,138 M165,137L166,138 M166,137L167,138 M167,137L168,138 M168,137L169,138 M93,138L94,139 M94,138L95,139 M164,138L165,139 M165,138L166,139 M166,138L167,139 M93,139L94,140 M94,139L95,140 M151,139L152,140 M152,139L153,140 M153,139L154,140 M154,139L155,140 M155,139L156,140 M156,139L157,140 M157,139L158,140 M158,139L159,140 M159,139L160,140 M160,139L161,140 M161,139L162,140 M162,139L163,140 M163,139L164,140 M164,139L165,140 M165,139L166,140 M93,140L94,141 M94,140L95,141 M120,140L121,141 M121,140L122,141 M122,140L123,141 M123,140L124,141 M124,140L125,141 M125,140L126,141 M126,140L127,141 M127,140L128,141 M128,140L129,141 M129,140L130,141 M130,140L131,141 M131,140L132,141 M132,140L133,141 M133,140L134,141 M134,140L135,141 M135,140L136,141 M136,140L137,141 M137,140L138,141 M138,140L139,141 M139,140L140,141 M140,140L141,141 M141,140L142,141 M142,140L143,141 M143,140L144,141 M144,140L145,141 M145,140L146,141 M146,140L147,141 M147,140L148,141 M148,140L149,141 M149,140L150,141 M150,140L151,141 M151,140L152,141 M152,140L153,141 M153,140L154,141 M154,140L155,141 M155,140L156,141 M156,140L157,141 M157,140L158,141 M158,140L159,141 M159,140L160,141 M160,140L161,141 M161,140L162,141 M162,140L163,141 M163,140L164,141 M93,141L94,142 M94,141L95,142 M114,141L115,142 M115,141L116,142 M116,141L117,142 M117,141L118,142 M118,141L119,142 M119,141L120,142 M120,141L121,142 M121,141L122,142 M122,141L123,142 M123,141L124,142 M124,141L125,142 M125,141L126,142 M126,141L127,142 M127,141L128,142 M128,141L129,142 M129,141L130,142 M130,141L131,142 M131,141L132,142 M132,141L133,142 M133,141L134,142 M134,141L135,142 M135,141L136,142 M136,141L137,142 M137,141L138,142 M138,141L139,142 M139,141L140,142 M140,141L141,142 M141,141L142,142 M142,141L143,142 M143,141L144,142 M144,141L145,142 M145,141L146,142 M146,141L147,142 M147,141L148,142 M148,141L149,142 M149,141L150,142 M150,141L151,142 M151,141L152,142 M93,142L94,143 M94,142L95,143 M107,142L108,143 M108,142L109,143 M109,142L110,143 M110,142L111,143 M111,142L112,143 M112,142L113,143 M113,142L114,143 M114,142L115,143 M115,142L116,143 M116,142L117,143 M117,142L118,143 M118,142L119,143 M119,142L120,143 M92,143L93,144 M93,143L94,144 M94,143L95,144 M102,143L103,144 M103,143L104,144 M104,143L105,144 M105,143L106,144 M106,143L107,144 M107,143L108,144 M108,143L109,144 M109,143L110,144 M110,143L111,144 M111,143L112,144 M112,143L113,144 M113,143L114,144 M92,144L93,145 M93,144L94,145 M97,144L98,145 M98,144L99,145 M99,144L100,145 M100,144L101,145 M101,144L102,145 M102,144L103,145 M103,144L104,145 M104,144L105,145 M105,144L106,145 M106,144L107,145 M91,145L92,146 M92,145L93,146 M93,145L94,146 M97,145L98,146 M98,145L99,146 M99,145L100,146 M100,145L101,146 M101,145L102,146 M91,146L92,147 M92,146L93,147 M90,147L91,148 M91,147L92,148 M92,147L93,148 M90,148L91,149 M91,148L92,149" fill="none" stroke="black" />
    </svg>