<svg xmlns="http://www.w3.org/2000/svg" width="800" height="250">
        <path d="M396,59L397,60 M397,59L398,60 M398,59L399,60 M399,59L400,60 M400,59L401,60 M401,59L402,60 M402,59L403,60 M403,59L404,60 M404,59L405,60 M405,59L406,60 M406,59L407,60 M407,59L408,60 M408,59L409,60 M409,59L410,60 M410,59L411,60 M411,59L412,60 M394,60L395,61 M395,60L396,61 M396,60L397,61 M397,60L398,61 M398,60L399,61 M399,60L400,61 M400,60L401,61 M401,60L402,61 M402,60L403,61 M403,60L404,61 M404,60L405,61 M405,60L406,61 M406,60L407,61 M407,60L408,61 M408,60L409,61 M409,60L410,61 M410,60L411,61 M411,60L412,61 M412,60L413,61 M413,60L414,61 M414,60L415,61 M415,60L416,61 M416,60L417,61 M417,60L418,61 M465,60L466,61 M466,60L467,61 M467,60L468,61 M468,60L469,61 M469,60L470,61 M470,60L471,61 M471,60L472,61 M472,60L473,61 M473,60L474,61 M474,60L475,61 M475,60L476,61 M476,60L477,61 M477,60L478,61 M478,60L479,61 M479,60L480,61 M480,60L481,61 M481,60L482,61 M482,60L483,61 M483,60L484,61 M484,60L485,61 M485,60L486,61 M486,60L487,61 M487,60L488,61 M488,60L489,61 M489,60L490,61 M490,60L491,61 M491,60L492,61 M492,60L493,61 M493,60L494,61 M494,60L495,61 M495,60L496,61 M391,61L392,62 M392,61L393,62 M393,61L394,62 M394,61L395,62 M395,61L396,62 M396,61L397,62 M412,61L413,62 M413,61L414,62 M414,61L415,62 M415,61L416,62 M416,61L417,62 M417,61L418,62 M418,61L419,62 M419,61L420,62 M420,61L421,62 M447,61L448,62 M448,61L449,62 M449,61L450,62 M450,61L451,62 M451,61L452,62 M452,61L453,62 M453,61L454,62 M454,61L455,62 M455,61L456,62 M456,61L457,62 M457,61L458,62 M458,61L459,62 M459,61L460,62 M460,61L461,62 M461,61L462,62 M462,61L463,62 M463,61L464,62 M464,61L465,62 M465,61L466,62 M466,61L467,62 M467,61L468,62 M468,61L469,62 M469,61L470,62 M470,61L471,62 M471,61L472,62 M472,61L473,62 M473,61L474,62 M474,61L475,62 M475,61L476,62 M476,61L477,62 M477,61L478,62 M478,61L479,62 M479,61L480,62 M480,61L481,62 M481,61L482,62 M482,61L483,62 M483,61L484,62 M484,61L485,62 M485,61L486,62 M486,61L487,62 M487,61L488,62 M488,61L489,62 M489,61L490,62 M490,61L491,62 M491,61L492,62 M492,61L493,62 M493,61L494,62 M494,61L495,62 M495,61L496,62 M496,61L497,62 M497,61L498,62 M498,61L499,62 M499,61L500,62 M500,61L501,62 M501,61L502,62 M502,61L503,62 M503,61L504,62 M504,61L505,62 M505,61L506,62 M506,61L507,62 M507,61L508,62 M508,61L509,62 M509,61L510,62 M510,61L511,62 M511,61L512,62 M512,61L513,62 M513,61L514,62 M514,61L515,62 M389,62L390,63 M390,62L391,63 M391,62L392,63 M392,62L393,63 M393,62L394,63 M418,62L419,63 M419,62L420,63 M420,62L421,63 M421,62L422,63 M437,62L438,63 M438,62L439,63 M439,62L440,63 M440,62L441,63 M441,62L442,63 M442,62L443,63 M443,62L444,63 M444,62L445,63 M445,62L446,63 M446,62L447,63 M447,62L448,63 M448,62L449,63 M449,62L450,63 M450,62L451,63 M451,62L452,63 M452,62L453,63 M453,62L454,63 M454,62L455,63 M455,62L456,63 M456,62L457,63 M457,62L458,63 M458,62L459,63 M459,62L460,63 M460,62L461,63 M461,62L462,63 M462,62L463,63 M463,62L464,63 M464,62L465,63 M496,62L497,63 M497,62L498,63 M498,62L499,63 M499,62L500,63 M500,62L501,63 M501,62L502,63 M502,62L503,63 M503,62L504,63 M504,62L505,63 M505,62L506,63 M506,62L507,63 M507,62L508,63 M508,62L509,63 M509,62L510,63 M510,62L511,63 M511,62L512,63 M512,62L513,63 M513,62L514,63 M514,62L515,63 M515,62L516,63 M516,62L517,63 M517,62L518,63 M518,62L519,63 M519,62L520,63 M386,63L387,64 M387,63L388,64 M388,63L389,64 M389,63L390,64 M390,63L391,64 M391,63L392,64 M420,63L421,64 M421,63L422,64 M422,63L423,64 M433,63L434,64 M434,63L435,64 M435,63L436,64 M436,63L437,64 M437,63L438,64 M438,63L439,64 M439,63L440,64 M440,63L441,64 M441,63L442,64 M442,63L443,64 M443,63L444,64 M444,63L445,64 M445,63L446,64 M446,63L447,64 M515,63L516,64 M516,63L517,64 M517,63L518,64 M518,63L519,64 M519,63L520,64 M520,63L521,64 M521,63L522,64 M522,63L523,64 M523,63L524,64 M384,64L385,65 M385,64L386,65 M386,64L387,65 M387,64L388,65 M388,64L389,65 M421,64L422,65 M422,64L423,65 M423,64L424,65 M429,64L430,65 M430,64L431,65 M431,64L432,65 M432,64L433,65 M433,64L434,65 M434,64L435,65 M435,64L436,65 M436,64L437,65 M519,64L520,65 M520,64L521,65 M521,64L522,65 M522,64L523,65 M523,64L524,65 M524,64L525,65 M525,64L526,65 M526,64L527,65 M527,64L528,65 M381,65L382,66 M382,65L383,66 M383,65L384,66 M384,65L385,66 M385,65L386,66 M386,65L387,66 M422,65L423,66 M423,65L424,66 M424,65L425,66 M425,65L426,66 M426,65L427,66 M427,65L428,66 M428,65L429,66 M429,65L430,66 M430,65L431,66 M431,65L432,66 M432,65L433,66 M523,65L524,66 M524,65L525,66 M525,65L526,66 M526,65L527,66 M527,65L528,66 M528,65L529,66 M529,65L530,66 M530,65L531,66 M531,65L532,66 M379,66L380,67 M380,66L381,67 M381,66L382,67 M382,66L383,67 M383,66L384,67 M420,66L421,67 M421,66L422,67 M422,66L423,67 M423,66L424,67 M424,66L425,67 M425,66L426,67 M426,66L427,67 M427,66L428,67 M428,66L429,67 M528,66L529,67 M529,66L530,67 M530,66L531,67 M531,66L532,67 M532,66L533,67 M533,66L534,67 M534,66L535,67 M535,66L536,67 M376,67L377,68 M377,67L378,68 M378,67L379,68 M379,67L380,68 M380,67L381,68 M381,67L382,68 M416,67L417,68 M417,67L418,68 M418,67L419,68 M419,67L420,68 M420,67L421,68 M421,67L422,68 M422,67L423,68 M423,67L424,68 M424,67L425,68 M532,67L533,68 M533,67L534,68 M534,67L535,68 M535,67L536,68 M536,67L537,68 M537,67L538,68 M538,67L539,68 M539,67L540,68 M374,68L375,69 M375,68L376,69 M376,68L377,69 M377,68L378,69 M378,68L379,69 M412,68L413,69 M413,68L414,69 M414,68L415,69 M415,68L416,69 M416,68L417,69 M417,68L418,69 M418,68L419,69 M419,68L420,69 M420,68L421,69 M424,68L425,69 M425,68L426,69 M536,68L537,69 M537,68L538,69 M538,68L539,69 M539,68L540,69 M540,68L541,69 M541,68L542,69 M542,68L543,69 M543,68L544,69 M371,69L372,70 M372,69L373,70 M373,69L374,70 M374,69L375,70 M375,69L376,70 M376,69L377,70 M408,69L409,70 M409,69L410,70 M410,69L411,70 M411,69L412,70 M412,69L413,70 M413,69L414,70 M414,69L415,70 M415,69L416,70 M416,69L417,70 M424,69L425,70 M425,69L426,70 M540,69L541,70 M541,69L542,70 M542,69L543,70 M543,69L544,70 M544,69L545,70 M545,69L546,70 M546,69L547,70 M369,70L370,71 M370,70L371,71 M371,70L372,71 M372,70L373,71 M373,70L374,71 M404,70L405,71 M405,70L406,71 M406,70L407,71 M407,70L408,71 M408,70L409,71 M409,70L410,71 M410,70L411,71 M411,70L412,71 M412,70L413,71 M424,70L425,71 M425,70L426,71 M426,70L427,71 M544,70L545,71 M545,70L546,71 M546,70L547,71 M547,70L548,71 M548,70L549,71 M366,71L367,72 M367,71L368,72 M368,71L369,72 M369,71L370,72 M370,71L371,72 M371,71L372,72 M400,71L401,72 M401,71L402,72 M402,71L403,72 M403,71L404,72 M404,71L405,72 M405,71L406,72 M406,71L407,72 M407,71L408,72 M425,71L426,72 M426,71L427,72 M547,71L548,72 M548,71L549,72 M549,71L550,72 M550,71L551,72 M364,72L365,73 M365,72L366,73 M366,72L367,73 M367,72L368,73 M368,72L369,73 M396,72L397,73 M397,72L398,73 M398,72L399,73 M399,72L400,73 M400,72L401,73 M401,72L402,73 M402,72L403,73 M403,72L404,73 M425,72L426,73 M426,72L427,73 M427,72L428,73 M513,72L514,73 M514,72L515,73 M515,72L516,73 M516,72L517,73 M517,72L518,73 M518,72L519,73 M519,72L520,73 M520,72L521,73 M521,72L522,73 M522,72L523,73 M523,72L524,73 M524,72L525,73 M525,72L526,73 M526,72L527,73 M527,72L528,73 M528,72L529,73 M529,72L530,73 M530,72L531,73 M531,72L532,73 M532,72L533,73 M533,72L534,73 M549,72L550,73 M550,72L551,73 M551,72L552,73 M552,72L553,73 M362,73L363,74 M363,73L364,74 M364,73L365,74 M365,73L366,74 M366,73L367,74 M392,73L393,74 M393,73L394,74 M394,73L395,74 M395,73L396,74 M396,73L397,74 M397,73L398,74 M398,73L399,74 M399,73L400,74 M426,73L427,74 M427,73L428,74 M506,73L507,74 M507,73L508,74 M508,73L509,74 M509,73L510,74 M510,73L511,74 M511,73L512,74 M512,73L513,74 M513,73L514,74 M514,73L515,74 M515,73L516,74 M516,73L517,74 M517,73L518,74 M518,73L519,74 M519,73L520,74 M520,73L521,74 M521,73L522,74 M522,73L523,74 M523,73L524,74 M524,73L525,74 M525,73L526,74 M526,73L527,74 M527,73L528,74 M528,73L529,74 M529,73L530,74 M530,73L531,74 M531,73L532,74 M532,73L533,74 M533,73L534,74 M551,73L552,74 M552,73L553,74 M553,73L554,74 M554,73L555,74 M360,74L361,75 M361,74L362,75 M362,74L363,75 M363,74L364,75 M388,74L389,75 M389,74L390,75 M390,74L391,75 M391,74L392,75 M392,74L393,75 M393,74L394,75 M394,74L395,75 M395,74L396,75 M426,74L427,75 M427,74L428,75 M428,74L429,75 M499,74L500,75 M500,74L501,75 M501,74L502,75 M502,74L503,75 M503,74L504,75 M504,74L505,75 M505,74L506,75 M506,74L507,75 M507,74L508,75 M508,74L509,75 M509,74L510,75 M510,74L511,75 M511,74L512,75 M512,74L513,75 M533,74L534,75 M534,74L535,75 M553,74L554,75 M554,74L555,75 M555,74L556,75 M556,74L557,75 M359,75L360,76 M360,75L361,76 M361,75L362,76 M384,75L385,76 M385,75L386,76 M386,75L387,76 M387,75L388,76 M388,75L389,76 M389,75L390,76 M390,75L391,76 M391,75L392,76 M427,75L428,76 M428,75L429,76 M490,75L491,76 M491,75L492,76 M492,75L493,76 M493,75L494,76 M494,75L495,76 M495,75L496,76 M496,75L497,76 M497,75L498,76 M498,75L499,76 M499,75L500,76 M500,75L501,76 M501,75L502,76 M502,75L503,76 M503,75L504,76 M504,75L505,76 M505,75L506,76 M532,75L533,76 M533,75L534,76 M534,75L535,76 M555,75L556,76 M556,75L557,76 M557,75L558,76 M558,75L559,76 M357,76L358,77 M358,76L359,77 M359,76L360,77 M360,76L361,77 M380,76L381,77 M381,76L382,77 M382,76L383,77 M383,76L384,77 M384,76L385,77 M385,76L386,77 M386,76L387,77 M387,76L388,77 M427,76L428,77 M428,76L429,77 M479,76L480,77 M480,76L481,77 M481,76L482,77 M482,76L483,77 M483,76L484,77 M484,76L485,77 M485,76L486,77 M486,76L487,77 M487,76L488,77 M488,76L489,77 M489,76L490,77 M490,76L491,77 M491,76L492,77 M492,76L493,77 M493,76L494,77 M494,76L495,77 M495,76L496,77 M496,76L497,77 M497,76L498,77 M498,76L499,77 M532,76L533,77 M533,76L534,77 M557,76L558,77 M558,76L559,77 M559,76L560,77 M560,76L561,77 M356,77L357,78 M357,77L358,78 M358,77L359,78 M359,77L360,78 M376,77L377,78 M377,77L378,78 M378,77L379,78 M379,77L380,78 M380,77L381,78 M381,77L382,78 M382,77L383,78 M383,77L384,78 M428,77L429,78 M429,77L430,78 M468,77L469,78 M469,77L470,78 M470,77L471,78 M471,77L472,78 M472,77L473,78 M473,77L474,78 M474,77L475,78 M475,77L476,78 M476,77L477,78 M477,77L478,78 M478,77L479,78 M479,77L480,78 M480,77L481,78 M481,77L482,78 M482,77L483,78 M483,77L484,78 M484,77L485,78 M485,77L486,78 M486,77L487,78 M487,77L488,78 M488,77L489,78 M489,77L490,78 M531,77L532,78 M532,77L533,78 M559,77L560,78 M560,77L561,78 M561,77L562,78 M562,77L563,78 M355,78L356,79 M356,78L357,79 M357,78L358,79 M372,78L373,79 M373,78L374,79 M374,78L375,79 M375,78L376,79 M376,78L377,79 M377,78L378,79 M378,78L379,79 M379,78L380,79 M428,78L429,79 M429,78L430,79 M457,78L458,79 M458,78L459,79 M459,78L460,79 M460,78L461,79 M461,78L462,79 M462,78L463,79 M463,78L464,79 M464,78L465,79 M465,78L466,79 M466,78L467,79 M467,78L468,79 M468,78L469,79 M469,78L470,79 M470,78L471,79 M471,78L472,79 M472,78L473,79 M473,78L474,79 M474,78L475,79 M475,78L476,79 M476,78L477,79 M477,78L478,79 M478,78L479,79 M530,78L531,79 M531,78L532,79 M532,78L533,79 M561,78L562,79 M562,78L563,79 M563,78L564,79 M564,78L565,79 M353,79L354,80 M354,79L355,80 M355,79L356,80 M356,79L357,80 M368,79L369,80 M369,79L370,80 M370,79L371,80 M371,79L372,80 M372,79L373,80 M373,79L374,80 M374,79L375,80 M375,79L376,80 M429,79L430,80 M430,79L431,80 M446,79L447,80 M447,79L448,80 M448,79L449,80 M449,79L450,80 M450,79L451,80 M451,79L452,80 M452,79L453,80 M453,79L454,80 M454,79L455,80 M455,79L456,80 M456,79L457,80 M457,79L458,80 M458,79L459,80 M459,79L460,80 M460,79L461,80 M461,79L462,80 M462,79L463,80 M463,79L464,80 M464,79L465,80 M465,79L466,80 M466,79L467,80 M467,79L468,80 M529,79L530,80 M530,79L531,80 M531,79L532,80 M563,79L564,80 M564,79L565,80 M565,79L566,80 M566,79L567,80 M352,80L353,81 M353,80L354,81 M354,80L355,81 M364,80L365,81 M365,80L366,81 M366,80L367,81 M367,80L368,81 M368,80L369,81 M369,80L370,81 M370,80L371,81 M371,80L372,81 M429,80L430,81 M430,80L431,81 M436,80L437,81 M437,80L438,81 M438,80L439,81 M439,80L440,81 M440,80L441,81 M441,80L442,81 M442,80L443,81 M443,80L444,81 M444,80L445,81 M445,80L446,81 M446,80L447,81 M447,80L448,81 M448,80L449,81 M449,80L450,81 M450,80L451,81 M451,80L452,81 M452,80L453,81 M453,80L454,81 M454,80L455,81 M455,80L456,81 M456,80L457,81 M527,80L528,81 M528,80L529,81 M529,80L530,81 M530,80L531,81 M565,80L566,81 M566,80L567,81 M567,80L568,81 M568,80L569,81 M350,81L351,82 M351,81L352,82 M352,81L353,82 M353,81L354,82 M360,81L361,82 M361,81L362,82 M362,81L363,82 M363,81L364,82 M364,81L365,82 M365,81L366,82 M366,81L367,82 M367,81L368,82 M425,81L426,82 M426,81L427,82 M427,81L428,82 M428,81L429,82 M429,81L430,82 M430,81L431,82 M431,81L432,82 M432,81L433,82 M433,81L434,82 M434,81L435,82 M435,81L436,82 M436,81L437,82 M437,81L438,82 M438,81L439,82 M439,81L440,82 M440,81L441,82 M441,81L442,82 M442,81L443,82 M443,81L444,82 M444,81L445,82 M445,81L446,82 M446,81L447,82 M526,81L527,82 M527,81L528,82 M528,81L529,82 M567,81L568,82 M568,81L569,82 M569,81L570,82 M570,81L571,82 M349,82L350,83 M350,82L351,83 M351,82L352,83 M357,82L358,83 M358,82L359,83 M359,82L360,83 M360,82L361,83 M361,82L362,83 M362,82L363,83 M363,82L364,83 M415,82L416,83 M416,82L417,83 M417,82L418,83 M418,82L419,83 M419,82L420,83 M420,82L421,83 M421,82L422,83 M422,82L423,83 M423,82L424,83 M424,82L425,83 M425,82L426,83 M426,82L427,83 M427,82L428,83 M428,82L429,83 M429,82L430,83 M430,82L431,83 M431,82L432,83 M432,82L433,83 M433,82L434,83 M434,82L435,83 M435,82L436,83 M525,82L526,83 M526,82L527,83 M527,82L528,83 M569,82L570,83 M570,82L571,83 M571,82L572,83 M572,82L573,83 M347,83L348,84 M348,83L349,84 M349,83L350,84 M350,83L351,84 M355,83L356,84 M356,83L357,84 M357,83L358,84 M358,83L359,84 M359,83L360,84 M404,83L405,84 M405,83L406,84 M406,83L407,84 M407,83L408,84 M408,83L409,84 M409,83L410,84 M410,83L411,84 M411,83L412,84 M412,83L413,84 M413,83L414,84 M414,83L415,84 M415,83L416,84 M416,83L417,84 M417,83L418,84 M418,83L419,84 M419,83L420,84 M420,83L421,84 M421,83L422,84 M422,83L423,84 M423,83L424,84 M424,83L425,84 M430,83L431,84 M431,83L432,84 M524,83L525,84 M525,83L526,84 M526,83L527,84 M571,83L572,84 M572,83L573,84 M573,83L574,84 M574,83L575,84 M346,84L347,85 M347,84L348,85 M348,84L349,85 M353,84L354,85 M354,84L355,85 M355,84L356,85 M356,84L357,85 M394,84L395,85 M395,84L396,85 M396,84L397,85 M397,84L398,85 M398,84L399,85 M399,84L400,85 M400,84L401,85 M401,84L402,85 M402,84L403,85 M403,84L404,85 M404,84L405,85 M405,84L406,85 M406,84L407,85 M407,84L408,85 M408,84L409,85 M409,84L410,85 M410,84L411,85 M411,84L412,85 M412,84L413,85 M413,84L414,85 M414,84L415,85 M431,84L432,85 M432,84L433,85 M522,84L523,85 M523,84L524,85 M524,84L525,85 M573,84L574,85 M574,84L575,85 M575,84L576,85 M344,85L345,86 M345,85L346,86 M346,85L347,86 M347,85L348,86 M352,85L353,86 M353,85L354,86 M354,85L355,86 M355,85L356,86 M383,85L384,86 M384,85L385,86 M385,85L386,86 M386,85L387,86 M387,85L388,86 M388,85L389,86 M389,85L390,86 M390,85L391,86 M391,85L392,86 M392,85L393,86 M393,85L394,86 M394,85L395,86 M395,85L396,86 M396,85L397,86 M397,85L398,86 M398,85L399,86 M399,85L400,86 M400,85L401,86 M401,85L402,86 M402,85L403,86 M403,85L404,86 M431,85L432,86 M432,85L433,86 M521,85L522,86 M522,85L523,86 M523,85L524,86 M574,85L575,86 M575,85L576,86 M576,85L577,86 M343,86L344,87 M344,86L345,87 M345,86L346,87 M350,86L351,87 M351,86L352,87 M352,86L353,87 M353,86L354,87 M373,86L374,87 M374,86L375,87 M375,86L376,87 M376,86L377,87 M377,86L378,87 M378,86L379,87 M379,86L380,87 M380,86L381,87 M381,86L382,87 M382,86L383,87 M383,86L384,87 M384,86L385,87 M385,86L386,87 M386,86L387,87 M387,86L388,87 M388,86L389,87 M389,86L390,87 M390,86L391,87 M391,86L392,87 M392,86L393,87 M393,86L394,87 M431,86L432,87 M432,86L433,87 M518,86L519,87 M519,86L520,87 M520,86L521,87 M521,86L522,87 M522,86L523,87 M575,86L576,87 M576,86L577,87 M342,87L343,88 M343,87L344,88 M344,87L345,88 M348,87L349,88 M349,87L350,88 M350,87L351,88 M351,87L352,88 M363,87L364,88 M364,87L365,88 M365,87L366,88 M366,87L367,88 M367,87L368,88 M368,87L369,88 M369,87L370,88 M370,87L371,88 M371,87L372,88 M372,87L373,88 M373,87L374,88 M374,87L375,88 M375,87L376,88 M376,87L377,88 M377,87L378,88 M378,87L379,88 M379,87L380,88 M380,87L381,88 M381,87L382,88 M382,87L383,88 M432,87L433,88 M433,87L434,88 M516,87L517,88 M517,87L518,88 M518,87L519,88 M519,87L520,88 M520,87L521,88 M576,87L577,88 M577,87L578,88 M340,88L341,89 M341,88L342,89 M342,88L343,89 M343,88L344,89 M347,88L348,89 M348,88L349,89 M349,88L350,89 M350,88L351,89 M355,88L356,89 M356,88L357,89 M357,88L358,89 M358,88L359,89 M359,88L360,89 M360,88L361,89 M361,88L362,89 M362,88L363,89 M363,88L364,89 M364,88L365,89 M365,88L366,89 M366,88L367,89 M367,88L368,89 M368,88L369,89 M369,88L370,89 M370,88L371,89 M371,88L372,89 M372,88L373,89 M432,88L433,89 M433,88L434,89 M434,88L435,89 M514,88L515,89 M515,88L516,89 M516,88L517,89 M517,88L518,89 M518,88L519,89 M576,88L577,89 M577,88L578,89 M578,88L579,89 M339,89L340,90 M340,89L341,90 M341,89L342,90 M345,89L346,90 M346,89L347,90 M347,89L348,90 M348,89L349,90 M349,89L350,90 M350,89L351,90 M351,89L352,90 M352,89L353,90 M353,89L354,90 M354,89L355,90 M355,89L356,90 M356,89L357,90 M357,89L358,90 M358,89L359,90 M359,89L360,90 M360,89L361,90 M361,89L362,90 M362,89L363,90 M433,89L434,90 M434,89L435,90 M511,89L512,90 M512,89L513,90 M513,89L514,90 M514,89L515,90 M515,89L516,90 M577,89L578,90 M578,89L579,90 M579,89L580,90 M338,90L339,91 M339,90L340,91 M340,90L341,91 M341,90L342,91 M342,90L343,91 M343,90L344,91 M344,90L345,91 M345,90L346,91 M346,90L347,91 M347,90L348,91 M348,90L349,91 M349,90L350,91 M350,90L351,91 M351,90L352,91 M352,90L353,91 M353,90L354,91 M354,90L355,91 M434,90L435,91 M435,90L436,91 M509,90L510,91 M510,90L511,91 M511,90L512,91 M512,90L513,91 M513,90L514,91 M578,90L579,91 M579,90L580,91 M580,90L581,91 M331,91L332,92 M332,91L333,92 M333,91L334,92 M334,91L335,92 M335,91L336,92 M336,91L337,92 M337,91L338,92 M338,91L339,92 M339,91L340,92 M340,91L341,92 M341,91L342,92 M342,91L343,92 M343,91L344,92 M344,91L345,92 M345,91L346,92 M346,91L347,92 M434,91L435,92 M435,91L436,92 M436,91L437,92 M507,91L508,92 M508,91L509,92 M509,91L510,92 M510,91L511,92 M511,91L512,92 M579,91L580,92 M580,91L581,92 M323,92L324,93 M324,92L325,93 M325,92L326,93 M326,92L327,93 M327,92L328,93 M328,92L329,93 M329,92L330,93 M330,92L331,93 M331,92L332,93 M332,92L333,93 M333,92L334,93 M334,92L335,93 M335,92L336,93 M336,92L337,93 M337,92L338,93 M338,92L339,93 M340,92L341,93 M341,92L342,93 M342,92L343,93 M343,92L344,93 M435,92L436,93 M436,92L437,93 M505,92L506,93 M506,92L507,93 M507,92L508,93 M508,92L509,93 M509,92L510,93 M580,92L581,93 M581,92L582,93 M316,93L317,94 M317,93L318,94 M318,93L319,94 M319,93L320,94 M320,93L321,94 M321,93L322,94 M322,93L323,94 M323,93L324,94 M324,93L325,94 M325,93L326,94 M326,93L327,94 M327,93L328,94 M328,93L329,94 M329,93L330,94 M330,93L331,94 M334,93L335,94 M335,93L336,94 M336,93L337,94 M338,93L339,94 M339,93L340,94 M340,93L341,94 M341,93L342,94 M436,93L437,94 M437,93L438,94 M502,93L503,94 M503,93L504,94 M504,93L505,94 M505,93L506,94 M506,93L507,94 M581,93L582,94 M582,93L583,94 M310,94L311,95 M311,94L312,95 M312,94L313,95 M313,94L314,95 M314,94L315,95 M315,94L316,95 M316,94L317,95 M317,94L318,95 M318,94L319,95 M319,94L320,95 M320,94L321,95 M321,94L322,95 M322,94L323,95 M332,94L333,95 M333,94L334,95 M334,94L335,95 M335,94L336,95 M337,94L338,95 M338,94L339,95 M339,94L340,95 M436,94L437,95 M437,94L438,95 M438,94L439,95 M500,94L501,95 M501,94L502,95 M502,94L503,95 M503,94L504,95 M504,94L505,95 M581,94L582,95 M582,94L583,95 M583,94L584,95 M305,95L306,96 M306,95L307,96 M307,95L308,96 M308,95L309,96 M309,95L310,96 M310,95L311,96 M311,95L312,96 M312,95L313,96 M313,95L314,96 M314,95L315,96 M315,95L316,96 M331,95L332,96 M332,95L333,96 M333,95L334,96 M335,95L336,96 M336,95L337,96 M337,95L338,96 M338,95L339,96 M437,95L438,96 M438,95L439,96 M439,95L440,96 M440,95L441,96 M498,95L499,96 M499,95L500,96 M500,95L501,96 M501,95L502,96 M502,95L503,96 M582,95L583,96 M583,95L584,96 M584,95L585,96 M299,96L300,97 M300,96L301,97 M301,96L302,97 M302,96L303,97 M303,96L304,97 M304,96L305,97 M305,96L306,97 M306,96L307,97 M307,96L308,97 M308,96L309,97 M309,96L310,97 M330,96L331,97 M331,96L332,97 M332,96L333,97 M333,96L334,97 M334,96L335,97 M335,96L336,97 M336,96L337,97 M439,96L440,97 M440,96L441,97 M441,96L442,97 M495,96L496,97 M496,96L497,97 M497,96L498,97 M498,96L499,97 M499,96L500,97 M583,96L584,97 M584,96L585,97 M585,96L586,97 M293,97L294,98 M294,97L295,98 M295,97L296,98 M296,97L297,98 M297,97L298,98 M298,97L299,98 M299,97L300,98 M300,97L301,98 M301,97L302,98 M302,97L303,98 M303,97L304,98 M304,97L305,98 M329,97L330,98 M330,97L331,98 M331,97L332,98 M332,97L333,98 M333,97L334,98 M334,97L335,98 M440,97L441,98 M441,97L442,98 M442,97L443,98 M491,97L492,98 M492,97L493,98 M493,97L494,98 M494,97L495,98 M495,97L496,98 M496,97L497,98 M497,97L498,98 M584,97L585,98 M585,97L586,98 M288,98L289,99 M289,98L290,99 M290,98L291,99 M291,98L292,99 M292,98L293,99 M293,98L294,99 M294,98L295,99 M295,98L296,99 M296,98L297,99 M297,98L298,99 M298,98L299,99 M327,98L328,99 M328,98L329,99 M329,98L330,99 M330,98L331,99 M331,98L332,99 M332,98L333,99 M333,98L334,99 M441,98L442,99 M442,98L443,99 M443,98L444,99 M487,98L488,99 M488,98L489,99 M489,98L490,99 M490,98L491,99 M491,98L492,99 M492,98L493,99 M493,98L494,99 M494,98L495,99 M585,98L586,99 M586,98L587,99 M282,99L283,100 M283,99L284,100 M284,99L285,100 M285,99L286,100 M286,99L287,100 M287,99L288,100 M288,99L289,100 M289,99L290,100 M290,99L291,100 M291,99L292,100 M292,99L293,100 M326,99L327,100 M327,99L328,100 M328,99L329,100 M329,99L330,100 M330,99L331,100 M331,99L332,100 M442,99L443,100 M443,99L444,100 M444,99L445,100 M445,99L446,100 M483,99L484,100 M484,99L485,100 M485,99L486,100 M486,99L487,100 M487,99L488,100 M488,99L489,100 M489,99L490,100 M490,99L491,100 M585,99L586,100 M586,99L587,100 M587,99L588,100 M276,100L277,101 M277,100L278,101 M278,100L279,101 M279,100L280,101 M280,100L281,101 M281,100L282,101 M282,100L283,101 M283,100L284,101 M284,100L285,101 M285,100L286,101 M286,100L287,101 M287,100L288,101 M325,100L326,101 M326,100L327,101 M327,100L328,101 M328,100L329,101 M329,100L330,101 M444,100L445,101 M445,100L446,101 M446,100L447,101 M474,100L475,101 M475,100L476,101 M476,100L477,101 M477,100L478,101 M478,100L479,101 M479,100L480,101 M480,100L481,101 M481,100L482,101 M482,100L483,101 M483,100L484,101 M484,100L485,101 M485,100L486,101 M486,100L487,101 M586,100L587,101 M587,100L588,101 M588,100L589,101 M270,101L271,102 M271,101L272,102 M272,101L273,102 M273,101L274,102 M274,101L275,102 M275,101L276,102 M276,101L277,102 M277,101L278,102 M278,101L279,102 M279,101L280,102 M280,101L281,102 M281,101L282,102 M324,101L325,102 M325,101L326,102 M326,101L327,102 M327,101L328,102 M328,101L329,102 M445,101L446,102 M446,101L447,102 M447,101L448,102 M448,101L449,102 M449,101L450,102 M450,101L451,102 M451,101L452,102 M452,101L453,102 M453,101L454,102 M454,101L455,102 M455,101L456,102 M456,101L457,102 M457,101L458,102 M458,101L459,102 M459,101L460,102 M460,101L461,102 M461,101L462,102 M462,101L463,102 M463,101L464,102 M464,101L465,102 M465,101L466,102 M466,101L467,102 M467,101L468,102 M468,101L469,102 M469,101L470,102 M470,101L471,102 M471,101L472,102 M472,101L473,102 M473,101L474,102 M474,101L475,102 M475,101L476,102 M476,101L477,102 M477,101L478,102 M478,101L479,102 M479,101L480,102 M480,101L481,102 M481,101L482,102 M482,101L483,102 M587,101L588,102 M588,101L589,102 M589,101L590,102 M262,102L263,103 M263,102L264,103 M264,102L265,103 M265,102L266,103 M266,102L267,103 M267,102L268,103 M268,102L269,103 M269,102L270,103 M270,102L271,103 M271,102L272,103 M272,102L273,103 M273,102L274,103 M274,102L275,103 M275,102L276,103 M276,102L277,103 M323,102L324,103 M324,102L325,103 M325,102L326,103 M326,102L327,103 M446,102L447,103 M447,102L448,103 M448,102L449,103 M449,102L450,103 M450,102L451,103 M451,102L452,103 M452,102L453,103 M453,102L454,103 M454,102L455,103 M455,102L456,103 M456,102L457,103 M457,102L458,103 M458,102L459,103 M459,102L460,103 M460,102L461,103 M461,102L462,103 M462,102L463,103 M463,102L464,103 M464,102L465,103 M465,102L466,103 M466,102L467,103 M467,102L468,103 M468,102L469,103 M469,102L470,103 M470,102L471,103 M471,102L472,103 M472,102L473,103 M473,102L474,103 M588,102L589,103 M589,102L590,103 M254,103L255,104 M255,103L256,104 M256,103L257,104 M257,103L258,104 M258,103L259,104 M259,103L260,104 M260,103L261,104 M261,103L262,104 M262,103L263,104 M263,103L264,104 M264,103L265,104 M265,103L266,104 M266,103L267,104 M267,103L268,104 M268,103L269,104 M269,103L270,104 M321,103L322,104 M322,103L323,104 M323,103L324,104 M324,103L325,104 M325,103L326,104 M589,103L590,104 M590,103L591,104 M246,104L247,105 M247,104L248,105 M248,104L249,105 M249,104L250,105 M250,104L251,105 M251,104L252,105 M252,104L253,105 M253,104L254,105 M254,104L255,105 M255,104L256,105 M256,104L257,105 M257,104L258,105 M258,104L259,105 M259,104L260,105 M260,104L261,105 M261,104L262,105 M320,104L321,105 M321,104L322,105 M322,104L323,105 M323,104L324,105 M590,104L591,105 M591,104L592,105 M238,105L239,106 M239,105L240,106 M240,105L241,106 M241,105L242,106 M242,105L243,106 M243,105L244,106 M244,105L245,106 M245,105L246,106 M246,105L247,106 M247,105L248,106 M248,105L249,106 M249,105L250,106 M250,105L251,106 M251,105L252,106 M252,105L253,106 M253,105L254,106 M319,105L320,106 M320,105L321,106 M321,105L322,106 M322,105L323,106 M590,105L591,106 M591,105L592,106 M592,105L593,106 M230,106L231,107 M231,106L232,107 M232,106L233,107 M233,106L234,107 M234,106L235,107 M235,106L236,107 M236,106L237,107 M237,106L238,107 M238,106L239,107 M239,106L240,107 M240,106L241,107 M241,106L242,107 M242,106L243,107 M243,106L244,107 M244,106L245,107 M245,106L246,107 M318,106L319,107 M319,106L320,107 M320,106L321,107 M591,106L592,107 M592,106L593,107 M222,107L223,108 M223,107L224,108 M224,107L225,108 M225,107L226,108 M226,107L227,108 M227,107L228,108 M228,107L229,108 M229,107L230,108 M230,107L231,108 M231,107L232,108 M232,107L233,108 M233,107L234,108 M234,107L235,108 M235,107L236,108 M236,107L237,108 M237,107L238,108 M316,107L317,108 M317,107L318,108 M318,107L319,108 M319,107L320,108 M591,107L592,108 M592,107L593,108 M214,108L215,109 M215,108L216,109 M216,108L217,109 M217,108L218,109 M218,108L219,109 M219,108L220,109 M220,108L221,109 M221,108L222,109 M222,108L223,109 M223,108L224,109 M224,108L225,109 M225,108L226,109 M226,108L227,109 M227,108L228,109 M228,108L229,109 M229,108L230,109 M315,108L316,109 M316,108L317,109 M317,108L318,109 M318,108L319,109 M591,108L592,109 M592,108L593,109 M206,109L207,110 M207,109L208,110 M208,109L209,110 M209,109L210,110 M210,109L211,110 M211,109L212,110 M212,109L213,110 M213,109L214,110 M214,109L215,110 M215,109L216,110 M216,109L217,110 M217,109L218,110 M218,109L219,110 M219,109L220,110 M220,109L221,110 M221,109L222,110 M314,109L315,110 M315,109L316,110 M316,109L317,110 M317,109L318,110 M591,109L592,110 M592,109L593,110 M198,110L199,111 M199,110L200,111 M200,110L201,111 M201,110L202,111 M202,110L203,111 M203,110L204,111 M204,110L205,111 M205,110L206,111 M206,110L207,111 M207,110L208,111 M208,110L209,111 M209,110L210,111 M210,110L211,111 M211,110L212,111 M212,110L213,111 M213,110L214,111 M312,110L313,111 M313,110L314,111 M314,110L315,111 M315,110L316,111 M591,110L592,111 M592,110L593,111 M192,111L193,112 M193,111L194,112 M194,111L195,112 M195,111L196,112 M196,111L197,112 M197,111L198,112 M198,111L199,112 M199,111L200,112 M200,111L201,112 M201,111L202,112 M202,111L203,112 M203,111L204,112 M204,111L205,112 M205,111L206,112 M311,111L312,112 M312,111L313,112 M313,111L314,112 M314,111L315,112 M592,111L593,112 M593,111L594,112 M187,112L188,113 M188,112L189,113 M189,112L190,113 M190,112L191,113 M191,112L192,113 M192,112L193,113 M193,112L194,113 M194,112L195,113 M195,112L196,113 M196,112L197,113 M197,112L198,113 M198,112L199,113 M309,112L310,113 M310,112L311,113 M311,112L312,113 M312,112L313,113 M313,112L314,113 M592,112L593,113 M593,112L594,113 M182,113L183,114 M183,113L184,114 M184,113L185,114 M185,113L186,114 M186,113L187,114 M187,113L188,114 M188,113L189,114 M189,113L190,114 M190,113L191,114 M191,113L192,114 M308,113L309,114 M309,113L310,114 M310,113L311,114 M311,113L312,114 M312,113L313,114 M592,113L593,114 M593,113L594,114 M176,114L177,115 M177,114L178,115 M178,114L179,115 M179,114L180,115 M180,114L181,115 M181,114L182,115 M182,114L183,115 M183,114L184,115 M184,114L185,115 M185,114L186,115 M186,114L187,115 M306,114L307,115 M307,114L308,115 M308,114L309,115 M309,114L310,115 M310,114L311,115 M311,114L312,115 M592,114L593,115 M593,114L594,115 M171,115L172,116 M172,115L173,116 M173,115L174,116 M174,115L175,116 M175,115L176,116 M176,115L177,116 M177,115L178,116 M178,115L179,116 M179,115L180,116 M180,115L181,116 M181,115L182,116 M305,115L306,116 M306,115L307,116 M307,115L308,116 M308,115L309,116 M309,115L310,116 M310,115L311,116 M592,115L593,116 M593,115L594,116 M164,116L165,117 M165,116L166,117 M166,116L167,117 M167,116L168,117 M168,116L169,117 M169,116L170,117 M170,116L171,117 M171,116L172,117 M172,116L173,117 M173,116L174,117 M174,116L175,117 M175,116L176,117 M176,116L177,117 M304,116L305,117 M305,116L306,117 M306,116L307,117 M307,116L308,117 M308,116L309,117 M309,116L310,117 M592,116L593,117 M593,116L594,117 M156,117L157,118 M157,117L158,118 M158,117L159,118 M159,117L160,118 M160,117L161,118 M161,117L162,118 M162,117L163,118 M163,117L164,118 M164,117L165,118 M165,117L166,118 M166,117L167,118 M167,117L168,118 M168,117L169,118 M169,117L170,118 M170,117L171,118 M302,117L303,118 M303,117L304,118 M304,117L305,118 M305,117L306,118 M306,117L307,118 M307,117L308,118 M592,117L593,118 M593,117L594,118 M135,118L136,119 M136,118L137,119 M146,118L147,119 M147,118L148,119 M148,118L149,119 M149,118L150,119 M150,118L151,119 M151,118L152,119 M152,118L153,119 M153,118L154,119 M154,118L155,119 M155,118L156,119 M156,118L157,119 M157,118L158,119 M158,118L159,119 M159,118L160,119 M160,118L161,119 M161,118L162,119 M162,118L163,119 M163,118L164,119 M301,118L302,119 M302,118L303,119 M303,118L304,119 M304,118L305,119 M305,118L306,119 M306,118L307,119 M592,118L593,119 M593,118L594,119 M135,119L136,120 M136,119L137,120 M137,119L138,120 M138,119L139,120 M139,119L140,120 M140,119L141,120 M141,119L142,120 M142,119L143,120 M143,119L144,120 M144,119L145,120 M145,119L146,120 M146,119L147,120 M147,119L148,120 M148,119L149,120 M149,119L150,120 M150,119L151,120 M151,119L152,120 M152,119L153,120 M153,119L154,120 M154,119L155,120 M155,119L156,120 M299,119L300,120 M300,119L301,120 M301,119L302,120 M302,119L303,120 M303,119L304,120 M304,119L305,120 M305,119L306,120 M592,119L593,120 M593,119L594,120 M136,120L137,121 M137,120L138,121 M138,120L139,121 M139,120L140,121 M140,120L141,121 M141,120L142,121 M142,120L143,121 M143,120L144,121 M144,120L145,121 M145,120L146,121 M298,120L299,121 M299,120L300,121 M300,120L301,121 M301,120L302,121 M302,120L303,121 M303,120L304,121 M304,120L305,121 M592,120L593,121 M593,120L594,121 M297,121L298,122 M298,121L299,122 M299,121L300,122 M300,121L301,122 M301,121L302,122 M302,121L303,122 M303,121L304,122 M592,121L593,122 M593,121L594,122 M295,122L296,123 M296,122L297,123 M297,122L298,123 M298,122L299,123 M299,122L300,123 M300,122L301,123 M301,122L302,123 M592,122L593,123 M593,122L594,123 M294,123L295,124 M295,123L296,124 M296,123L297,124 M297,123L298,124 M298,123L299,124 M299,123L300,124 M592,123L593,124 M593,123L594,124 M295,124L296,125 M296,124L297,125 M297,124L298,125 M592,124L593,125 M593,124L594,125 M592,125L593,126 M593,125L594,126 M592,126L593,127 M593,126L594,127 M592,127L593,128 M593,127L594,128 M591,128L592,129 M592,128L593,129 M591,129L592,130 M592,129L593,130 M591,130L592,131 M592,130L593,131 M590,131L591,132 M591,131L592,132 M590,132L591,133 M591,132L592,133 M589,133L590,134 M590,133L591,134 M589,134L590,135 M590,134L591,135 M589,135L590,136 M590,135L591,136 M588,136L589,137 M589,136L590,137 M588,137L589,138 M589,137L590,138 M587,138L588,139 M588,138L589,139 M587,139L588,140 M588,139L589,140 M587,140L588,141 M588,140L589,141 M586,141L587,142 M587,141L588,142 M586,142L587,143 M587,142L588,143 M585,143L586,144 M586,143L587,144 M585,144L586,145 M586,144L587,145 M585,145L586,146 M586,145L587,146 M584,146L585,147 M585,146L586,147 M583,147L584,148 M584,147L585,148 M585,147L586,148 M583,148L584,149 M584,148L585,149 M582,149L583,150 M583,149L584,150 M584,149L585,150 M582,150L583,151 M583,150L584,151 M581,151L582,152 M582,151L583,152 M580,152L581,153 M581,152L582,153 M582,152L583,153 M580,153L581,154 M581,153L582,154 M579,154L580,155 M580,154L581,155 M579,155L580,156 M580,155L581,156 M578,156L579,157 M579,156L580,157 M578,157L579,158 M579,157L580,158 M577,158L578,159 M578,158L579,159 M577,159L578,160 M578,159L579,160 M576,160L577,161 M577,160L578,161 M576,161L577,162 M577,161L578,162 M575,162L576,163 M576,162L577,163 M575,163L576,164 M576,163L577,164 M574,164L575,165 M575,164L576,165 M574,165L575,166 M575,165L576,166 M573,166L574,167 M574,166L575,167 M573,167L574,168 M574,167L575,168 M572,168L573,169 M573,168L574,169 M574,168L575,169 M572,169L573,170 M573,169L574,170 M572,170L573,171 M573,170L574,171 M572,171L573,172 M573,171L574,172 M572,172L573,173 M573,172L574,173 M572,173L573,174 M573,173L574,174 M572,174L573,175 M573,174L574,175 M572,175L573,176 M573,175L574,176 M572,176L573,177 M573,176L574,177 M574,176L575,177 M575,176L576,177 M573,177L574,178 M574,177L575,178 M575,177L576,178 M576,177L577,178 M577,177L578,178 M575,178L576,179 M576,178L577,179 M577,178L578,179 M578,178L579,179 M579,178L580,179 M578,179L579,180" fill="none" stroke="black" />
    </svg>