<svg xmlns="http://www.w3.org/2000/svg" width="800" height="250">
        <path d="M362,81L363,82 M363,81L364,82 M364,81L365,82 M365,81L366,82 M366,81L367,82 M367,81L368,82 M368,81L369,82 M359,82L360,83 M360,82L361,83 M361,82L362,83 M362,82L363,83 M363,82L364,83 M364,82L365,83 M365,82L366,83 M366,82L367,83 M367,82L368,83 M368,82L369,83 M356,83L357,84 M357,83L358,84 M358,83L359,84 M359,83L360,84 M360,83L361,84 M361,83L362,84 M368,83L369,84 M354,84L355,85 M355,84L356,85 M356,84L357,85 M357,84L358,85 M358,84L359,85 M367,84L368,85 M368,84L369,85 M352,85L353,86 M353,85L354,86 M354,85L355,86 M355,85L356,86 M356,85L357,86 M366,85L367,86 M367,85L368,86 M538,85L539,86 M539,85L540,86 M540,85L541,86 M350,86L351,87 M351,86L352,87 M352,86L353,87 M353,86L354,87 M354,86L355,87 M365,86L366,87 M366,86L367,87 M367,86L368,87 M533,86L534,87 M534,86L535,87 M535,86L536,87 M536,86L537,87 M537,86L538,87 M538,86L539,87 M539,86L540,87 M540,86L541,87 M348,87L349,88 M349,87L350,88 M350,87L351,88 M351,87L352,88 M352,87L353,88 M364,87L365,88 M365,87L366,88 M366,87L367,88 M528,87L529,88 M529,87L530,88 M530,87L531,88 M531,87L532,88 M532,87L533,88 M533,87L534,88 M534,87L535,88 M535,87L536,88 M536,87L537,88 M537,87L538,88 M540,87L541,88 M347,88L348,89 M348,88L349,89 M349,88L350,89 M350,88L351,89 M363,88L364,89 M364,88L365,89 M365,88L366,89 M525,88L526,89 M526,88L527,89 M527,88L528,89 M528,88L529,89 M529,88L530,89 M530,88L531,89 M531,88L532,89 M532,88L533,89 M540,88L541,89 M345,89L346,90 M346,89L347,90 M347,89L348,90 M348,89L349,90 M362,89L363,90 M363,89L364,90 M364,89L365,90 M524,89L525,90 M525,89L526,90 M526,89L527,90 M527,89L528,90 M528,89L529,90 M539,89L540,90 M540,89L541,90 M344,90L345,91 M345,90L346,91 M346,90L347,91 M347,90L348,91 M361,90L362,91 M362,90L363,91 M363,90L364,91 M523,90L524,91 M524,90L525,91 M525,90L526,91 M539,90L540,91 M540,90L541,91 M343,91L344,92 M344,91L345,92 M345,91L346,92 M360,91L361,92 M361,91L362,92 M362,91L363,92 M522,91L523,92 M523,91L524,92 M524,91L525,92 M538,91L539,92 M539,91L540,92 M540,91L541,92 M341,92L342,93 M342,92L343,93 M343,92L344,93 M344,92L345,93 M359,92L360,93 M360,92L361,93 M361,92L362,93 M521,92L522,93 M522,92L523,93 M523,92L524,93 M538,92L539,93 M539,92L540,93 M340,93L341,94 M341,93L342,94 M342,93L343,94 M358,93L359,94 M359,93L360,94 M360,93L361,94 M520,93L521,94 M521,93L522,94 M522,93L523,94 M538,93L539,94 M539,93L540,94 M338,94L339,95 M339,94L340,95 M340,94L341,95 M341,94L342,95 M357,94L358,95 M358,94L359,95 M359,94L360,95 M519,94L520,95 M520,94L521,95 M521,94L522,95 M537,94L538,95 M538,94L539,95 M337,95L338,96 M338,95L339,96 M339,95L340,96 M356,95L357,96 M357,95L358,96 M358,95L359,96 M518,95L519,96 M519,95L520,96 M520,95L521,96 M537,95L538,96 M538,95L539,96 M336,96L337,97 M337,96L338,97 M338,96L339,97 M355,96L356,97 M356,96L357,97 M357,96L358,97 M517,96L518,97 M518,96L519,97 M519,96L520,97 M536,96L537,97 M537,96L538,97 M538,96L539,97 M335,97L336,98 M336,97L337,98 M353,97L354,98 M354,97L355,98 M355,97L356,98 M515,97L516,98 M516,97L517,98 M517,97L518,98 M536,97L537,98 M537,97L538,98 M335,98L336,99 M336,98L337,99 M352,98L353,99 M353,98L354,99 M354,98L355,99 M515,98L516,99 M516,98L517,99 M536,98L537,99 M537,98L538,99 M334,99L335,100 M335,99L336,100 M351,99L352,100 M352,99L353,100 M353,99L354,100 M514,99L515,100 M515,99L516,100 M535,99L536,100 M536,99L537,100 M334,100L335,101 M335,100L336,101 M350,100L351,101 M351,100L352,101 M352,100L353,101 M513,100L514,101 M514,100L515,101 M515,100L516,101 M535,100L536,101 M536,100L537,101 M333,101L334,102 M334,101L335,102 M349,101L350,102 M350,101L351,102 M351,101L352,102 M512,101L513,102 M513,101L514,102 M514,101L515,102 M534,101L535,102 M535,101L536,102 M536,101L537,102 M333,102L334,103 M334,102L335,103 M348,102L349,103 M349,102L350,103 M350,102L351,103 M511,102L512,103 M512,102L513,103 M513,102L514,103 M534,102L535,103 M535,102L536,103 M332,103L333,104 M333,103L334,104 M347,103L348,104 M348,103L349,104 M349,103L350,104 M510,103L511,104 M511,103L512,104 M512,103L513,104 M534,103L535,104 M535,103L536,104 M332,104L333,105 M333,104L334,105 M345,104L346,105 M346,104L347,105 M347,104L348,105 M348,104L349,105 M509,104L510,105 M510,104L511,105 M511,104L512,105 M533,104L534,105 M534,104L535,105 M332,105L333,106 M333,105L334,106 M343,105L344,106 M344,105L345,106 M345,105L346,106 M346,105L347,106 M508,105L509,106 M509,105L510,106 M510,105L511,106 M533,105L534,106 M534,105L535,106 M332,106L333,107 M333,106L334,107 M340,106L341,107 M341,106L342,107 M342,106L343,107 M343,106L344,107 M344,106L345,107 M508,106L509,107 M509,106L510,107 M532,106L533,107 M533,106L534,107 M534,106L535,107 M85,107L86,108 M86,107L87,108 M87,107L88,108 M88,107L89,108 M332,107L333,108 M333,107L334,108 M338,107L339,108 M339,107L340,108 M340,107L341,108 M341,107L342,108 M342,107L343,108 M507,107L508,108 M508,107L509,108 M532,107L533,108 M533,107L534,108 M85,108L86,109 M86,108L87,109 M87,108L88,109 M88,108L89,109 M89,108L90,109 M90,108L91,109 M91,108L92,109 M92,108L93,109 M332,108L333,109 M333,108L334,109 M335,108L336,109 M336,108L337,109 M337,108L338,109 M338,108L339,109 M339,108L340,109 M506,108L507,109 M507,108L508,109 M532,108L533,109 M533,108L534,109 M87,109L88,110 M88,109L89,110 M89,109L90,110 M90,109L91,110 M91,109L92,110 M92,109L93,110 M93,109L94,110 M94,109L95,110 M95,109L96,110 M96,109L97,110 M97,109L98,110 M332,109L333,110 M333,109L334,110 M334,109L335,110 M335,109L336,110 M336,109L337,110 M337,109L338,110 M505,109L506,110 M506,109L507,110 M507,109L508,110 M531,109L532,110 M532,109L533,110 M91,110L92,111 M92,110L93,111 M93,110L94,111 M94,110L95,111 M95,110L96,111 M96,110L97,111 M97,110L98,111 M98,110L99,111 M99,110L100,111 M100,110L101,111 M330,110L331,111 M331,110L332,111 M332,110L333,111 M333,110L334,111 M334,110L335,111 M335,110L336,111 M504,110L505,111 M505,110L506,111 M506,110L507,111 M531,110L532,111 M532,110L533,111 M96,111L97,112 M97,111L98,112 M98,111L99,112 M99,111L100,112 M100,111L101,112 M101,111L102,112 M102,111L103,112 M103,111L104,112 M104,111L105,112 M328,111L329,112 M329,111L330,112 M330,111L331,112 M331,111L332,112 M332,111L333,112 M503,111L504,112 M504,111L505,112 M505,111L506,112 M530,111L531,112 M531,111L532,112 M101,112L102,113 M102,112L103,113 M103,112L104,113 M104,112L105,113 M105,112L106,113 M106,112L107,113 M107,112L108,113 M326,112L327,113 M327,112L328,113 M328,112L329,113 M329,112L330,113 M330,112L331,113 M331,112L332,113 M332,112L333,113 M502,112L503,113 M503,112L504,113 M504,112L505,113 M530,112L531,113 M531,112L532,113 M105,113L106,114 M106,113L107,114 M107,113L108,114 M108,113L109,114 M109,113L110,114 M110,113L111,114 M323,113L324,114 M324,113L325,114 M325,113L326,114 M326,113L327,114 M327,113L328,114 M331,113L332,114 M332,113L333,114 M501,113L502,114 M502,113L503,114 M503,113L504,114 M529,113L530,114 M530,113L531,114 M108,114L109,115 M109,114L110,115 M110,114L111,115 M111,114L112,115 M112,114L113,115 M113,114L114,115 M321,114L322,115 M322,114L323,115 M323,114L324,115 M324,114L325,115 M325,114L326,115 M331,114L332,115 M332,114L333,115 M500,114L501,115 M501,114L502,115 M502,114L503,115 M529,114L530,115 M530,114L531,115 M111,115L112,116 M112,115L113,116 M113,115L114,116 M114,115L115,116 M115,115L116,116 M318,115L319,116 M319,115L320,116 M320,115L321,116 M321,115L322,116 M322,115L323,116 M331,115L332,116 M332,115L333,116 M500,115L501,116 M501,115L502,116 M528,115L529,116 M529,115L530,116 M113,116L114,117 M114,116L115,117 M115,116L116,117 M116,116L117,117 M117,116L118,117 M118,116L119,117 M316,116L317,117 M317,116L318,117 M318,116L319,117 M319,116L320,117 M320,116L321,117 M331,116L332,117 M332,116L333,117 M499,116L500,117 M500,116L501,117 M528,116L529,117 M529,116L530,117 M116,117L117,118 M117,117L118,118 M118,117L119,118 M119,117L120,118 M120,117L121,118 M121,117L122,118 M313,117L314,118 M314,117L315,118 M315,117L316,118 M316,117L317,118 M317,117L318,118 M318,117L319,118 M331,117L332,118 M332,117L333,118 M498,117L499,118 M499,117L500,118 M527,117L528,118 M528,117L529,118 M119,118L120,119 M120,118L121,119 M121,118L122,119 M122,118L123,119 M123,118L124,119 M124,118L125,119 M308,118L309,119 M309,118L310,119 M310,118L311,119 M311,118L312,119 M312,118L313,119 M313,118L314,119 M314,118L315,119 M315,118L316,119 M330,118L331,119 M331,118L332,119 M497,118L498,119 M498,118L499,119 M499,118L500,119 M527,118L528,119 M528,118L529,119 M122,119L123,120 M123,119L124,120 M124,119L125,120 M125,119L126,120 M126,119L127,120 M301,119L302,120 M302,119L303,120 M303,119L304,120 M304,119L305,120 M305,119L306,120 M306,119L307,120 M307,119L308,120 M308,119L309,120 M309,119L310,120 M310,119L311,120 M311,119L312,120 M312,119L313,120 M313,119L314,120 M330,119L331,120 M331,119L332,120 M496,119L497,120 M497,119L498,120 M498,119L499,120 M526,119L527,120 M527,119L528,120 M124,120L125,121 M125,120L126,121 M126,120L127,121 M127,120L128,121 M128,120L129,121 M129,120L130,121 M130,120L131,121 M131,120L132,121 M132,120L133,121 M293,120L294,121 M294,120L295,121 M295,120L296,121 M296,120L297,121 M297,120L298,121 M298,120L299,121 M299,120L300,121 M300,120L301,121 M301,120L302,121 M302,120L303,121 M303,120L304,121 M304,120L305,121 M305,120L306,121 M306,120L307,121 M307,120L308,121 M330,120L331,121 M331,120L332,121 M495,120L496,121 M496,120L497,121 M497,120L498,121 M526,120L527,121 M527,120L528,121 M127,121L128,122 M128,121L129,122 M129,121L130,122 M130,121L131,122 M131,121L132,122 M132,121L133,122 M133,121L134,122 M134,121L135,122 M135,121L136,122 M136,121L137,122 M137,121L138,122 M138,121L139,122 M139,121L140,122 M286,121L287,122 M287,121L288,122 M288,121L289,122 M289,121L290,122 M290,121L291,122 M291,121L292,122 M292,121L293,122 M293,121L294,122 M294,121L295,122 M295,121L296,122 M296,121L297,122 M297,121L298,122 M298,121L299,122 M299,121L300,122 M300,121L301,122 M330,121L331,122 M331,121L332,122 M494,121L495,122 M495,121L496,122 M496,121L497,122 M525,121L526,122 M526,121L527,122 M133,122L134,123 M134,122L135,123 M135,122L136,123 M136,122L137,123 M137,122L138,123 M138,122L139,123 M139,122L140,123 M140,122L141,123 M141,122L142,123 M142,122L143,123 M143,122L144,123 M144,122L145,123 M145,122L146,123 M146,122L147,123 M147,122L148,123 M279,122L280,123 M280,122L281,123 M281,122L282,123 M282,122L283,123 M283,122L284,123 M284,122L285,123 M285,122L286,123 M286,122L287,123 M287,122L288,123 M288,122L289,123 M289,122L290,123 M290,122L291,123 M291,122L292,123 M292,122L293,123 M293,122L294,123 M330,122L331,123 M331,122L332,123 M493,122L494,123 M494,122L495,123 M495,122L496,123 M525,122L526,123 M526,122L527,123 M140,123L141,124 M141,123L142,124 M142,123L143,124 M143,123L144,124 M144,123L145,124 M145,123L146,124 M146,123L147,124 M147,123L148,124 M148,123L149,124 M149,123L150,124 M150,123L151,124 M151,123L152,124 M152,123L153,124 M153,123L154,124 M154,123L155,124 M269,123L270,124 M270,123L271,124 M271,123L272,124 M272,123L273,124 M273,123L274,124 M274,123L275,124 M275,123L276,124 M276,123L277,124 M277,123L278,124 M278,123L279,124 M279,123L280,124 M280,123L281,124 M281,123L282,124 M282,123L283,124 M283,123L284,124 M284,123L285,124 M285,123L286,124 M330,123L331,124 M331,123L332,124 M492,123L493,124 M493,123L494,124 M494,123L495,124 M524,123L525,124 M525,123L526,124 M148,124L149,125 M149,124L150,125 M150,124L151,125 M151,124L152,125 M152,124L153,125 M153,124L154,125 M154,124L155,125 M155,124L156,125 M156,124L157,125 M157,124L158,125 M158,124L159,125 M159,124L160,125 M160,124L161,125 M161,124L162,125 M162,124L163,125 M163,124L164,125 M258,124L259,125 M259,124L260,125 M260,124L261,125 M261,124L262,125 M262,124L263,125 M263,124L264,125 M264,124L265,125 M265,124L266,125 M266,124L267,125 M267,124L268,125 M268,124L269,125 M269,124L270,125 M270,124L271,125 M271,124L272,125 M272,124L273,125 M273,124L274,125 M274,124L275,125 M275,124L276,125 M276,124L277,125 M277,124L278,125 M278,124L279,125 M330,124L331,125 M331,124L332,125 M492,124L493,125 M493,124L494,125 M524,124L525,125 M525,124L526,125 M155,125L156,126 M156,125L157,126 M157,125L158,126 M158,125L159,126 M159,125L160,126 M160,125L161,126 M161,125L162,126 M162,125L163,126 M163,125L164,126 M164,125L165,126 M165,125L166,126 M166,125L167,126 M167,125L168,126 M168,125L169,126 M169,125L170,126 M170,125L171,126 M171,125L172,126 M172,125L173,126 M247,125L248,126 M248,125L249,126 M249,125L250,126 M250,125L251,126 M251,125L252,126 M252,125L253,126 M253,125L254,126 M254,125L255,126 M255,125L256,126 M256,125L257,126 M257,125L258,126 M258,125L259,126 M259,125L260,126 M260,125L261,126 M261,125L262,126 M262,125L263,126 M263,125L264,126 M264,125L265,126 M265,125L266,126 M266,125L267,126 M267,125L268,126 M268,125L269,126 M330,125L331,126 M331,125L332,126 M491,125L492,126 M492,125L493,126 M523,125L524,126 M524,125L525,126 M164,126L165,127 M165,126L166,127 M166,126L167,127 M167,126L168,127 M168,126L169,127 M169,126L170,127 M170,126L171,127 M171,126L172,127 M172,126L173,127 M173,126L174,127 M174,126L175,127 M175,126L176,127 M176,126L177,127 M177,126L178,127 M178,126L179,127 M179,126L180,127 M180,126L181,127 M181,126L182,127 M182,126L183,127 M183,126L184,127 M184,126L185,127 M185,126L186,127 M186,126L187,127 M187,126L188,127 M188,126L189,127 M236,126L237,127 M237,126L238,127 M238,126L239,127 M239,126L240,127 M240,126L241,127 M241,126L242,127 M242,126L243,127 M243,126L244,127 M244,126L245,127 M245,126L246,127 M246,126L247,127 M247,126L248,127 M248,126L249,127 M249,126L250,127 M250,126L251,127 M251,126L252,127 M252,126L253,127 M253,126L254,127 M254,126L255,127 M255,126L256,127 M256,126L257,127 M257,126L258,127 M330,126L331,127 M331,126L332,127 M490,126L491,127 M491,126L492,127 M492,126L493,127 M523,126L524,127 M524,126L525,127 M173,127L174,128 M174,127L175,128 M175,127L176,128 M176,127L177,128 M177,127L178,128 M178,127L179,128 M179,127L180,128 M180,127L181,128 M181,127L182,128 M182,127L183,128 M183,127L184,128 M184,127L185,128 M185,127L186,128 M186,127L187,128 M187,127L188,128 M188,127L189,128 M189,127L190,128 M190,127L191,128 M191,127L192,128 M192,127L193,128 M193,127L194,128 M194,127L195,128 M195,127L196,128 M196,127L197,128 M197,127L198,128 M198,127L199,128 M199,127L200,128 M200,127L201,128 M201,127L202,128 M202,127L203,128 M203,127L204,128 M204,127L205,128 M205,127L206,128 M206,127L207,128 M207,127L208,128 M208,127L209,128 M209,127L210,128 M210,127L211,128 M225,127L226,128 M226,127L227,128 M227,127L228,128 M228,127L229,128 M229,127L230,128 M230,127L231,128 M231,127L232,128 M232,127L233,128 M233,127L234,128 M234,127L235,128 M235,127L236,128 M236,127L237,128 M237,127L238,128 M238,127L239,128 M239,127L240,128 M240,127L241,128 M241,127L242,128 M242,127L243,128 M243,127L244,128 M244,127L245,128 M245,127L246,128 M246,127L247,128 M330,127L331,128 M331,127L332,128 M489,127L490,128 M490,127L491,128 M491,127L492,128 M522,127L523,128 M523,127L524,128 M189,128L190,129 M190,128L191,129 M191,128L192,129 M192,128L193,129 M193,128L194,129 M194,128L195,129 M195,128L196,129 M196,128L197,129 M197,128L198,129 M198,128L199,129 M199,128L200,129 M200,128L201,129 M201,128L202,129 M202,128L203,129 M203,128L204,129 M204,128L205,129 M205,128L206,129 M206,128L207,129 M207,128L208,129 M208,128L209,129 M209,128L210,129 M210,128L211,129 M211,128L212,129 M212,128L213,129 M213,128L214,129 M214,128L215,129 M215,128L216,129 M216,128L217,129 M217,128L218,129 M218,128L219,129 M219,128L220,129 M220,128L221,129 M221,128L222,129 M222,128L223,129 M223,128L224,129 M224,128L225,129 M225,128L226,129 M226,128L227,129 M227,128L228,129 M228,128L229,129 M229,128L230,129 M230,128L231,129 M231,128L232,129 M232,128L233,129 M233,128L234,129 M234,128L235,129 M235,128L236,129 M330,128L331,129 M331,128L332,129 M488,128L489,129 M489,128L490,129 M490,128L491,129 M522,128L523,129 M523,128L524,129 M211,129L212,130 M212,129L213,130 M213,129L214,130 M214,129L215,130 M215,129L216,130 M216,129L217,130 M217,129L218,130 M218,129L219,130 M219,129L220,130 M220,129L221,130 M221,129L222,130 M222,129L223,130 M223,129L224,130 M224,129L225,130 M330,129L331,130 M331,129L332,130 M412,129L413,130 M488,129L489,130 M489,129L490,130 M521,129L522,130 M522,129L523,130 M330,130L331,131 M331,130L332,131 M412,130L413,131 M413,130L414,131 M487,130L488,131 M488,130L489,131 M521,130L522,131 M522,130L523,131 M330,131L331,132 M331,131L332,132 M412,131L413,132 M413,131L414,132 M414,131L415,132 M486,131L487,132 M487,131L488,132 M488,131L489,132 M520,131L521,132 M521,131L522,132 M330,132L331,133 M331,132L332,133 M413,132L414,133 M414,132L415,133 M485,132L486,133 M486,132L487,133 M487,132L488,133 M520,132L521,133 M521,132L522,133 M330,133L331,134 M331,133L332,134 M414,133L415,134 M415,133L416,134 M485,133L486,134 M486,133L487,134 M519,133L520,134 M520,133L521,134 M330,134L331,135 M331,134L332,135 M414,134L415,135 M415,134L416,135 M416,134L417,135 M484,134L485,135 M485,134L486,135 M519,134L520,135 M520,134L521,135 M331,135L332,136 M332,135L333,136 M415,135L416,136 M416,135L417,136 M417,135L418,136 M483,135L484,136 M484,135L485,136 M485,135L486,136 M518,135L519,136 M519,135L520,136 M331,136L332,137 M332,136L333,137 M416,136L417,137 M417,136L418,137 M482,136L483,137 M483,136L484,137 M484,136L485,137 M518,136L519,137 M519,136L520,137 M331,137L332,138 M332,137L333,138 M417,137L418,138 M418,137L419,138 M482,137L483,138 M483,137L484,138 M517,137L518,138 M518,137L519,138 M331,138L332,139 M332,138L333,139 M417,138L418,139 M418,138L419,139 M419,138L420,139 M481,138L482,139 M482,138L483,139 M516,138L517,139 M517,138L518,139 M518,138L519,139 M331,139L332,140 M332,139L333,140 M418,139L419,140 M419,139L420,140 M480,139L481,140 M481,139L482,140 M482,139L483,140 M516,139L517,140 M517,139L518,140 M331,140L332,141 M332,140L333,141 M419,140L420,141 M420,140L421,141 M479,140L480,141 M480,140L481,141 M481,140L482,141 M515,140L516,141 M516,140L517,141 M331,141L332,142 M332,141L333,142 M419,141L420,142 M420,141L421,142 M421,141L422,142 M478,141L479,142 M479,141L480,142 M480,141L481,142 M514,141L515,142 M515,141L516,142 M516,141L517,142 M331,142L332,143 M332,142L333,143 M420,142L421,143 M421,142L422,143 M478,142L479,143 M479,142L480,143 M514,142L515,143 M515,142L516,143 M331,143L332,144 M332,143L333,144 M421,143L422,144 M422,143L423,144 M477,143L478,144 M478,143L479,144 M513,143L514,144 M514,143L515,144 M332,144L333,145 M333,144L334,145 M402,144L403,145 M403,144L404,145 M404,144L405,145 M405,144L406,145 M406,144L407,145 M407,144L408,145 M408,144L409,145 M409,144L410,145 M410,144L411,145 M411,144L412,145 M422,144L423,145 M423,144L424,145 M476,144L477,145 M477,144L478,145 M478,144L479,145 M512,144L513,145 M513,144L514,145 M514,144L515,145 M332,145L333,146 M333,145L334,146 M395,145L396,146 M396,145L397,146 M397,145L398,146 M398,145L399,146 M399,145L400,146 M400,145L401,146 M401,145L402,146 M402,145L403,146 M403,145L404,146 M404,145L405,146 M405,145L406,146 M406,145L407,146 M407,145L408,146 M408,145L409,146 M409,145L410,146 M410,145L411,146 M411,145L412,146 M412,145L413,146 M413,145L414,146 M414,145L415,146 M415,145L416,146 M416,145L417,146 M417,145L418,146 M422,145L423,146 M423,145L424,146 M424,145L425,146 M475,145L476,146 M476,145L477,146 M477,145L478,146 M512,145L513,146 M513,145L514,146 M332,146L333,147 M333,146L334,147 M392,146L393,147 M393,146L394,147 M394,146L395,147 M395,146L396,147 M396,146L397,147 M397,146L398,147 M398,146L399,147 M399,146L400,147 M400,146L401,147 M401,146L402,147 M412,146L413,147 M413,146L414,147 M414,146L415,147 M415,146L416,147 M416,146L417,147 M417,146L418,147 M418,146L419,147 M419,146L420,147 M420,146L421,147 M421,146L422,147 M422,146L423,147 M423,146L424,147 M424,146L425,147 M425,146L426,147 M475,146L476,147 M476,146L477,147 M511,146L512,147 M512,146L513,147 M332,147L333,148 M333,147L334,148 M390,147L391,148 M391,147L392,148 M392,147L393,148 M393,147L394,148 M394,147L395,148 M417,147L418,148 M418,147L419,148 M419,147L420,148 M420,147L421,148 M421,147L422,148 M422,147L423,148 M423,147L424,148 M424,147L425,148 M425,147L426,148 M426,147L427,148 M427,147L428,148 M428,147L429,148 M474,147L475,148 M475,147L476,148 M510,147L511,148 M511,147L512,148 M512,147L513,148 M332,148L333,149 M333,148L334,149 M387,148L388,149 M388,148L389,149 M389,148L390,149 M390,148L391,149 M391,148L392,149 M392,148L393,149 M423,148L424,149 M424,148L425,149 M425,148L426,149 M426,148L427,149 M427,148L428,149 M428,148L429,149 M429,148L430,149 M430,148L431,149 M431,148L432,149 M432,148L433,149 M473,148L474,149 M474,148L475,149 M475,148L476,149 M510,148L511,149 M511,148L512,149 M332,149L333,150 M333,149L334,150 M385,149L386,150 M386,149L387,150 M387,149L388,150 M388,149L389,150 M389,149L390,150 M426,149L427,150 M427,149L428,150 M428,149L429,150 M429,149L430,150 M430,149L431,150 M431,149L432,150 M432,149L433,150 M433,149L434,150 M472,149L473,150 M473,149L474,150 M474,149L475,150 M509,149L510,150 M510,149L511,150 M332,150L333,151 M333,150L334,151 M382,150L383,151 M383,150L384,151 M384,150L385,151 M385,150L386,151 M386,150L387,151 M387,150L388,151 M427,150L428,151 M428,150L429,151 M429,150L430,151 M432,150L433,151 M433,150L434,151 M434,150L435,151 M435,150L436,151 M472,150L473,151 M473,150L474,151 M508,150L509,151 M509,150L510,151 M332,151L333,152 M333,151L334,152 M380,151L381,152 M381,151L382,152 M382,151L383,152 M383,151L384,152 M384,151L385,152 M428,151L429,152 M429,151L430,152 M430,151L431,152 M434,151L435,152 M435,151L436,152 M436,151L437,152 M437,151L438,152 M471,151L472,152 M472,151L473,152 M507,151L508,152 M508,151L509,152 M509,151L510,152 M332,152L333,153 M333,152L334,153 M377,152L378,153 M378,152L379,153 M379,152L380,153 M380,152L381,153 M381,152L382,153 M382,152L383,153 M429,152L430,153 M430,152L431,153 M435,152L436,153 M436,152L437,153 M437,152L438,153 M438,152L439,153 M470,152L471,153 M471,152L472,153 M506,152L507,153 M507,152L508,153 M508,152L509,153 M333,153L334,154 M334,153L335,154 M376,153L377,154 M377,153L378,154 M378,153L379,154 M379,153L380,154 M430,153L431,154 M431,153L432,154 M437,153L438,154 M438,153L439,154 M439,153L440,154 M440,153L441,154 M469,153L470,154 M470,153L471,154 M505,153L506,154 M506,153L507,154 M507,153L508,154 M333,154L334,155 M334,154L335,155 M375,154L376,155 M376,154L377,155 M377,154L378,155 M430,154L431,155 M431,154L432,155 M432,154L433,155 M439,154L440,155 M440,154L441,155 M441,154L442,155 M442,154L443,155 M468,154L469,155 M469,154L470,155 M504,154L505,155 M505,154L506,155 M506,154L507,155 M333,155L334,156 M334,155L335,156 M374,155L375,156 M375,155L376,156 M431,155L432,156 M432,155L433,156 M433,155L434,156 M440,155L441,156 M441,155L442,156 M442,155L443,156 M443,155L444,156 M467,155L468,156 M468,155L469,156 M503,155L504,156 M504,155L505,156 M505,155L506,156 M333,156L334,157 M334,156L335,157 M335,156L336,157 M373,156L374,157 M374,156L375,157 M432,156L433,157 M433,156L434,157 M434,156L435,157 M442,156L443,157 M443,156L444,157 M444,156L445,157 M445,156L446,157 M466,156L467,157 M467,156L468,157 M502,156L503,157 M503,156L504,157 M504,156L505,157 M334,157L335,158 M335,157L336,158 M372,157L373,158 M373,157L374,158 M374,157L375,158 M433,157L434,158 M434,157L435,158 M444,157L445,158 M445,157L446,158 M446,157L447,158 M447,157L448,158 M465,157L466,158 M466,157L467,158 M502,157L503,158 M503,157L504,158 M334,158L335,159 M335,158L336,159 M371,158L372,159 M372,158L373,159 M373,158L374,159 M434,158L435,159 M435,158L436,159 M445,158L446,159 M446,158L447,159 M447,158L448,159 M448,158L449,159 M464,158L465,159 M465,158L466,159 M501,158L502,159 M502,158L503,159 M334,159L335,160 M335,159L336,160 M370,159L371,160 M371,159L372,160 M372,159L373,160 M434,159L435,160 M435,159L436,160 M436,159L437,160 M447,159L448,160 M448,159L449,160 M449,159L450,160 M450,159L451,160 M463,159L464,160 M464,159L465,160 M500,159L501,160 M501,159L502,160 M502,159L503,160 M335,160L336,161 M336,160L337,161 M369,160L370,161 M370,160L371,161 M371,160L372,161 M435,160L436,161 M436,160L437,161 M437,160L438,161 M449,160L450,161 M450,160L451,161 M451,160L452,161 M452,160L453,161 M462,160L463,161 M463,160L464,161 M499,160L500,161 M500,160L501,161 M501,160L502,161 M335,161L336,162 M336,161L337,162 M368,161L369,162 M369,161L370,162 M370,161L371,162 M436,161L437,162 M437,161L438,162 M438,161L439,162 M450,161L451,162 M451,161L452,162 M452,161L453,162 M453,161L454,162 M461,161L462,162 M462,161L463,162 M498,161L499,162 M499,161L500,162 M500,161L501,162 M335,162L336,163 M336,162L337,163 M367,162L368,163 M368,162L369,163 M369,162L370,163 M437,162L438,163 M438,162L439,163 M452,162L453,163 M453,162L454,163 M454,162L455,163 M455,162L456,163 M460,162L461,163 M461,162L462,163 M497,162L498,163 M498,162L499,163 M499,162L500,163 M335,163L336,164 M336,163L337,164 M366,163L367,164 M367,163L368,164 M368,163L369,164 M438,163L439,164 M439,163L440,164 M454,163L455,164 M455,163L456,164 M456,163L457,164 M459,163L460,164 M460,163L461,164 M496,163L497,164 M497,163L498,164 M498,163L499,164 M336,164L337,165 M337,164L338,165 M365,164L366,165 M366,164L367,165 M367,164L368,165 M438,164L439,165 M439,164L440,165 M440,164L441,165 M455,164L456,165 M456,164L457,165 M457,164L458,165 M458,164L459,165 M459,164L460,165 M495,164L496,165 M496,164L497,165 M497,164L498,165 M336,165L337,166 M337,165L338,166 M364,165L365,166 M365,165L366,166 M366,165L367,166 M439,165L440,166 M440,165L441,166 M441,165L442,166 M457,165L458,166 M458,165L459,166 M459,165L460,166 M460,165L461,166 M494,165L495,166 M495,165L496,166 M496,165L497,166 M336,166L337,167 M337,166L338,167 M363,166L364,167 M364,166L365,167 M365,166L366,167 M440,166L441,167 M441,166L442,167 M442,166L443,167 M454,166L455,167 M455,166L456,167 M456,166L457,167 M457,166L458,167 M459,166L460,167 M460,166L461,167 M461,166L462,167 M462,166L463,167 M463,166L464,167 M492,166L493,167 M493,166L494,167 M494,166L495,167 M495,166L496,167 M337,167L338,168 M338,167L339,168 M362,167L363,168 M363,167L364,168 M364,167L365,168 M441,167L442,168 M442,167L443,168 M443,167L444,168 M451,167L452,168 M452,167L453,168 M453,167L454,168 M454,167L455,168 M455,167L456,168 M456,167L457,168 M461,167L462,168 M462,167L463,168 M463,167L464,168 M464,167L465,168 M465,167L466,168 M466,167L467,168 M491,167L492,168 M492,167L493,168 M493,167L494,168 M494,167L495,168 M337,168L338,169 M338,168L339,169 M362,168L363,169 M363,168L364,169 M442,168L443,169 M443,168L444,169 M444,168L445,169 M445,168L446,169 M448,168L449,169 M449,168L450,169 M450,168L451,169 M451,168L452,169 M452,168L453,169 M453,168L454,169 M464,168L465,169 M465,168L466,169 M466,168L467,169 M467,168L468,169 M468,168L469,169 M469,168L470,169 M489,168L490,169 M490,168L491,169 M491,168L492,169 M492,168L493,169 M337,169L338,170 M338,169L339,170 M361,169L362,170 M362,169L363,170 M443,169L444,170 M444,169L445,170 M445,169L446,170 M446,169L447,170 M447,169L448,170 M448,169L449,170 M449,169L450,170 M450,169L451,170 M467,169L468,170 M468,169L469,170 M469,169L470,170 M470,169L471,170 M471,169L472,170 M472,169L473,170 M487,169L488,170 M488,169L489,170 M489,169L490,170 M490,169L491,170 M337,170L338,171 M338,170L339,171 M361,170L362,171 M362,170L363,171 M445,170L446,171 M446,170L447,171 M447,170L448,171 M448,170L449,171 M470,170L471,171 M471,170L472,171 M472,170L473,171 M473,170L474,171 M474,170L475,171 M475,170L476,171 M476,170L477,171 M485,170L486,171 M486,170L487,171 M487,170L488,171 M488,170L489,171 M338,171L339,172 M339,171L340,172 M361,171L362,172 M362,171L363,172 M473,171L474,172 M474,171L475,172 M475,171L476,172 M476,171L477,172 M477,171L478,172 M478,171L479,172 M479,171L480,172 M480,171L481,172 M481,171L482,172 M482,171L483,172 M483,171L484,172 M484,171L485,172 M485,171L486,172 M486,171L487,172 M338,172L339,173 M339,172L340,173 M360,172L361,173 M361,172L362,173 M362,172L363,173 M477,172L478,173 M478,172L479,173 M479,172L480,173 M480,172L481,173 M481,172L482,173 M482,172L483,173 M483,172L484,173 M484,172L485,173 M485,172L486,173 M339,173L340,174 M340,173L341,174 M360,173L361,174 M361,173L362,174 M339,174L340,175 M340,174L341,175 M360,174L361,175 M361,174L362,175 M339,175L340,176 M340,175L341,176 M341,175L342,176 M360,175L361,176 M361,175L362,176 M340,176L341,177 M341,176L342,177 M359,176L360,177 M360,176L361,177 M340,177L341,178 M341,177L342,178 M342,177L343,178 M359,177L360,178 M360,177L361,178 M341,178L342,179 M342,178L343,179 M359,178L360,179 M360,178L361,179 M341,179L342,180 M342,179L343,180 M359,179L360,180 M360,179L361,180 M342,180L343,181 M343,180L344,181 M358,180L359,181 M359,180L360,181 M342,181L343,182 M343,181L344,182 M358,181L359,182 M359,181L360,182 M343,182L344,183 M344,182L345,183 M358,182L359,183 M359,182L360,183 M343,183L344,184 M344,183L345,184 M358,183L359,184 M359,183L360,184 M343,184L344,185 M344,184L345,185 M345,184L346,185 M358,184L359,185 M359,184L360,185 M344,185L345,186 M345,185L346,186 M358,185L359,186 M359,185L360,186 M344,186L345,187 M345,186L346,187 M346,186L347,187 M358,186L359,187 M359,186L360,187 M345,187L346,188 M346,187L347,188 M358,187L359,188 M359,187L360,188 M345,188L346,189 M346,188L347,189 M358,188L359,189 M359,188L360,189 M346,189L347,190 M347,189L348,190 M358,189L359,190 M359,189L360,190 M346,190L347,191 M347,190L348,191 M358,190L359,191 M359,190L360,191 M347,191L348,192 M348,191L349,192 M358,191L359,192 M359,191L360,192 M347,192L348,193 M348,192L349,193 M358,192L359,193 M359,192L360,193 M347,193L348,194 M348,193L349,194 M349,193L350,194 M358,193L359,194 M359,193L360,194 M348,194L349,195 M349,194L350,195 M358,194L359,195 M359,194L360,195 M348,195L349,196 M349,195L350,196 M350,195L351,196 M358,195L359,196 M359,195L360,196 M349,196L350,197 M350,196L351,197 M358,196L359,197 M359,196L360,197 M349,197L350,198 M350,197L351,198 M358,197L359,198 M359,197L360,198 M350,198L351,199 M351,198L352,199 M358,198L359,199 M359,198L360,199 M350,199L351,200 M351,199L352,200 M352,199L353,200 M358,199L359,200 M359,199L360,200 M351,200L352,201 M352,200L353,201 M358,200L359,201 M359,200L360,201 M351,201L352,202 M352,201L353,202 M353,201L354,202 M358,201L359,202 M359,201L360,202 M352,202L353,203 M353,202L354,203 M358,202L359,203 M359,202L360,203 M352,203L353,204 M353,203L354,204 M354,203L355,204 M358,203L359,204 M359,203L360,204 M353,204L354,205 M354,204L355,205 M358,204L359,205 M359,204L360,205 M354,205L355,206 M355,205L356,206 M358,205L359,206 M359,205L360,206 M354,206L355,207 M355,206L356,207 M358,206L359,207 M359,206L360,207 M355,207L356,208 M356,207L357,208 M358,207L359,208 M359,207L360,208 M355,208L356,209 M356,208L357,209 M357,208L358,209 M358,208L359,209 M359,208L360,209 M356,209L357,210 M357,209L358,210 M358,209L359,210 M359,209L360,210 M356,210L357,211 M357,210L358,211 M358,210L359,211 M359,210L360,211 M357,211L358,212 M358,211L359,212 M359,211L360,212 M360,211L361,212 M358,212L359,213 M359,212L360,213 M360,212L361,213 M358,213L359,214 M359,213L360,214 M360,213L361,214 M359,214L360,215 M360,214L361,215 M359,215L360,216 M360,215L361,216 M359,216L360,217 M360,216L361,217 M359,217L360,218 M360,217L361,218 M359,218L360,219 M360,218L361,219 M361,218L362,219 M360,219L361,220 M361,219L362,220 M360,220L361,221 M361,220L362,221" fill="none" stroke="black" />
    </svg>