<svg xmlns="http://www.w3.org/2000/svg" width="800" height="250">
        <path d="M374,25L375,26 M375,25L376,26 M372,26L373,27 M373,26L374,27 M374,26L375,27 M375,26L376,27 M371,27L372,28 M372,27L373,28 M373,27L374,28 M374,27L375,28 M375,27L376,28 M370,28L371,29 M371,28L372,29 M372,28L373,29 M374,28L375,29 M375,28L376,29 M369,29L370,30 M370,29L371,30 M371,29L372,30 M374,29L375,30 M375,29L376,30 M368,30L369,31 M369,30L370,31 M370,30L371,31 M374,30L375,31 M375,30L376,31 M368,31L369,32 M369,31L370,32 M374,31L375,32 M375,31L376,32 M367,32L368,33 M368,32L369,33 M366,33L367,34 M367,33L368,34 M368,33L369,34 M366,34L367,35 M367,34L368,35 M365,35L366,36 M366,35L367,36 M364,36L365,37 M365,36L366,37 M366,36L367,37 M364,37L365,38 M365,37L366,38 M363,38L364,39 M364,38L365,39 M364,39L365,40 M365,54L366,55 M366,54L367,55 M367,54L368,55 M363,55L364,56 M364,55L365,56 M365,55L366,56 M366,55L367,56 M367,55L368,56 M368,55L369,56 M363,56L364,57 M364,56L365,57 M366,56L367,57 M367,56L368,57 M362,57L363,58 M363,57L364,58 M366,57L367,58 M367,57L368,58 M362,58L363,59 M363,58L364,59 M365,58L366,59 M366,58L367,59 M361,59L362,60 M362,59L363,60 M365,59L366,60 M366,59L367,60 M361,60L362,61 M362,60L363,61 M364,60L365,61 M365,60L366,61 M400,60L401,61 M401,60L402,61 M360,61L361,62 M361,61L362,62 M362,61L363,62 M363,61L364,62 M364,61L365,62 M365,61L366,62 M400,61L401,62 M401,61L402,62 M360,62L361,63 M361,62L362,63 M362,62L363,63 M363,62L364,63 M364,62L365,63 M400,62L401,63 M401,62L402,63 M517,62L518,63 M518,62L519,63 M360,63L361,64 M361,63L362,64 M362,63L363,64 M363,63L364,64 M400,63L401,64 M401,63L402,64 M517,63L518,64 M518,63L519,64 M360,64L361,65 M361,64L362,65 M362,64L363,65 M400,64L401,65 M401,64L402,65 M517,64L518,65 M518,64L519,65 M359,65L360,66 M360,65L361,66 M361,65L362,66 M399,65L400,66 M400,65L401,66 M517,65L518,66 M518,65L519,66 M359,66L360,67 M360,66L361,67 M399,66L400,67 M400,66L401,67 M517,66L518,67 M518,66L519,67 M358,67L359,68 M359,67L360,68 M360,67L361,68 M399,67L400,68 M400,67L401,68 M517,67L518,68 M518,67L519,68 M357,68L358,69 M358,68L359,69 M359,68L360,69 M398,68L399,69 M399,68L400,69 M516,68L517,69 M517,68L518,69 M356,69L357,70 M357,69L358,70 M358,69L359,70 M359,69L360,70 M398,69L399,70 M399,69L400,70 M516,69L517,70 M517,69L518,70 M356,70L357,71 M357,70L358,71 M358,70L359,71 M359,70L360,71 M398,70L399,71 M399,70L400,71 M516,70L517,71 M517,70L518,71 M355,71L356,72 M356,71L357,72 M357,71L358,72 M358,71L359,72 M397,71L398,72 M398,71L399,72 M516,71L517,72 M517,71L518,72 M354,72L355,73 M355,72L356,73 M356,72L357,73 M357,72L358,73 M358,72L359,73 M397,72L398,73 M398,72L399,73 M516,72L517,73 M517,72L518,73 M353,73L354,74 M354,73L355,74 M355,73L356,74 M357,73L358,74 M358,73L359,74 M397,73L398,74 M398,73L399,74 M516,73L517,74 M517,73L518,74 M353,74L354,75 M354,74L355,75 M357,74L358,75 M358,74L359,75 M397,74L398,75 M398,74L399,75 M516,74L517,75 M517,74L518,75 M352,75L353,76 M353,75L354,76 M356,75L357,76 M357,75L358,76 M358,75L359,76 M396,75L397,76 M397,75L398,76 M516,75L517,76 M517,75L518,76 M351,76L352,77 M352,76L353,77 M353,76L354,77 M356,76L357,77 M357,76L358,77 M396,76L397,77 M397,76L398,77 M516,76L517,77 M517,76L518,77 M350,77L351,78 M351,77L352,78 M352,77L353,78 M356,77L357,78 M357,77L358,78 M396,77L397,78 M397,77L398,78 M516,77L517,78 M517,77L518,78 M350,78L351,79 M351,78L352,79 M356,78L357,79 M357,78L358,79 M395,78L396,79 M396,78L397,79 M516,78L517,79 M517,78L518,79 M349,79L350,80 M350,79L351,80 M356,79L357,80 M357,79L358,80 M395,79L396,80 M396,79L397,80 M516,79L517,80 M517,79L518,80 M348,80L349,81 M349,80L350,81 M350,80L351,81 M355,80L356,81 M356,80L357,81 M357,80L358,81 M395,80L396,81 M396,80L397,81 M516,80L517,81 M517,80L518,81 M348,81L349,82 M349,81L350,82 M355,81L356,82 M356,81L357,82 M394,81L395,82 M395,81L396,82 M516,81L517,82 M517,81L518,82 M347,82L348,83 M348,82L349,83 M355,82L356,83 M356,82L357,83 M394,82L395,83 M395,82L396,83 M516,82L517,83 M517,82L518,83 M346,83L347,84 M347,83L348,84 M348,83L349,84 M355,83L356,84 M356,83L357,84 M393,83L394,84 M394,83L395,84 M516,83L517,84 M517,83L518,84 M346,84L347,85 M347,84L348,85 M355,84L356,85 M356,84L357,85 M393,84L394,85 M394,84L395,85 M516,84L517,85 M517,84L518,85 M345,85L346,86 M346,85L347,86 M347,85L348,86 M354,85L355,86 M355,85L356,86 M356,85L357,86 M393,85L394,86 M394,85L395,86 M516,85L517,86 M517,85L518,86 M345,86L346,87 M346,86L347,87 M354,86L355,87 M355,86L356,87 M392,86L393,87 M393,86L394,87 M516,86L517,87 M517,86L518,87 M344,87L345,88 M345,87L346,88 M354,87L355,88 M355,87L356,88 M392,87L393,88 M393,87L394,88 M516,87L517,88 M517,87L518,88 M344,88L345,89 M345,88L346,89 M354,88L355,89 M355,88L356,89 M391,88L392,89 M392,88L393,89 M393,88L394,89 M516,88L517,89 M517,88L518,89 M343,89L344,90 M344,89L345,90 M354,89L355,90 M355,89L356,90 M391,89L392,90 M392,89L393,90 M516,89L517,90 M517,89L518,90 M342,90L343,91 M343,90L344,91 M344,90L345,91 M353,90L354,91 M354,90L355,91 M355,90L356,91 M391,90L392,91 M392,90L393,91 M516,90L517,91 M517,90L518,91 M342,91L343,92 M343,91L344,92 M353,91L354,92 M354,91L355,92 M390,91L391,92 M391,91L392,92 M516,91L517,92 M517,91L518,92 M341,92L342,93 M342,92L343,93 M343,92L344,93 M353,92L354,93 M354,92L355,93 M390,92L391,93 M391,92L392,93 M516,92L517,93 M517,92L518,93 M341,93L342,94 M342,93L343,94 M353,93L354,94 M354,93L355,94 M390,93L391,94 M391,93L392,94 M516,93L517,94 M517,93L518,94 M340,94L341,95 M341,94L342,95 M342,94L343,95 M353,94L354,95 M354,94L355,95 M389,94L390,95 M390,94L391,95 M516,94L517,95 M517,94L518,95 M340,95L341,96 M341,95L342,96 M353,95L354,96 M354,95L355,96 M389,95L390,96 M390,95L391,96 M516,95L517,96 M517,95L518,96 M339,96L340,97 M340,96L341,97 M353,96L354,97 M354,96L355,97 M389,96L390,97 M390,96L391,97 M516,96L517,97 M517,96L518,97 M338,97L339,98 M339,97L340,98 M340,97L341,98 M353,97L354,98 M354,97L355,98 M388,97L389,98 M389,97L390,98 M516,97L517,98 M517,97L518,98 M337,98L338,99 M338,98L339,99 M339,98L340,99 M353,98L354,99 M354,98L355,99 M388,98L389,99 M389,98L390,99 M516,98L517,99 M517,98L518,99 M336,99L337,100 M337,99L338,100 M338,99L339,100 M353,99L354,100 M354,99L355,100 M387,99L388,100 M388,99L389,100 M389,99L390,100 M516,99L517,100 M517,99L518,100 M335,100L336,101 M336,100L337,101 M337,100L338,101 M352,100L353,101 M353,100L354,101 M387,100L388,101 M388,100L389,101 M516,100L517,101 M517,100L518,101 M334,101L335,102 M335,101L336,102 M336,101L337,102 M352,101L353,102 M353,101L354,102 M387,101L388,102 M388,101L389,102 M517,101L518,102 M518,101L519,102 M333,102L334,103 M334,102L335,103 M335,102L336,103 M352,102L353,103 M353,102L354,103 M386,102L387,103 M387,102L388,103 M388,102L389,103 M517,102L518,103 M518,102L519,103 M333,103L334,104 M334,103L335,104 M352,103L353,104 M353,103L354,104 M386,103L387,104 M387,103L388,104 M517,103L518,104 M518,103L519,104 M332,104L333,105 M333,104L334,105 M352,104L353,105 M353,104L354,105 M386,104L387,105 M387,104L388,105 M517,104L518,105 M518,104L519,105 M331,105L332,106 M332,105L333,106 M352,105L353,106 M353,105L354,106 M385,105L386,106 M386,105L387,106 M517,105L518,106 M518,105L519,106 M330,106L331,107 M331,106L332,107 M352,106L353,107 M353,106L354,107 M385,106L386,107 M386,106L387,107 M517,106L518,107 M518,106L519,107 M329,107L330,108 M330,107L331,108 M331,107L332,108 M352,107L353,108 M353,107L354,108 M385,107L386,108 M386,107L387,108 M517,107L518,108 M518,107L519,108 M328,108L329,109 M329,108L330,109 M330,108L331,109 M352,108L353,109 M353,108L354,109 M384,108L385,109 M385,108L386,109 M517,108L518,109 M518,108L519,109 M622,108L623,109 M623,108L624,109 M327,109L328,110 M328,109L329,110 M329,109L330,110 M352,109L353,110 M353,109L354,110 M384,109L385,110 M385,109L386,110 M517,109L518,110 M518,109L519,110 M621,109L622,110 M622,109L623,110 M623,109L624,110 M326,110L327,111 M327,110L328,111 M328,110L329,111 M352,110L353,111 M353,110L354,111 M384,110L385,111 M385,110L386,111 M517,110L518,111 M518,110L519,111 M620,110L621,111 M621,110L622,111 M622,110L623,111 M623,110L624,111 M325,111L326,112 M326,111L327,112 M327,111L328,112 M352,111L353,112 M353,111L354,112 M383,111L384,112 M384,111L385,112 M518,111L519,112 M519,111L520,112 M620,111L621,112 M621,111L622,112 M622,111L623,112 M623,111L624,112 M323,112L324,113 M324,112L325,113 M325,112L326,113 M326,112L327,113 M352,112L353,113 M353,112L354,113 M383,112L384,113 M384,112L385,113 M518,112L519,113 M519,112L520,113 M619,112L620,113 M620,112L621,113 M622,112L623,113 M623,112L624,113 M322,113L323,114 M323,113L324,114 M324,113L325,114 M351,113L352,114 M352,113L353,114 M383,113L384,114 M384,113L385,114 M518,113L519,114 M519,113L520,114 M554,113L555,114 M555,113L556,114 M556,113L557,114 M557,113L558,114 M558,113L559,114 M619,113L620,114 M620,113L621,114 M622,113L623,114 M623,113L624,114 M321,114L322,115 M322,114L323,115 M323,114L324,115 M351,114L352,115 M352,114L353,115 M382,114L383,115 M383,114L384,115 M518,114L519,115 M519,114L520,115 M551,114L552,115 M552,114L553,115 M553,114L554,115 M554,114L555,115 M555,114L556,115 M556,114L557,115 M557,114L558,115 M558,114L559,115 M618,114L619,115 M619,114L620,115 M622,114L623,115 M623,114L624,115 M320,115L321,116 M321,115L322,116 M322,115L323,116 M351,115L352,116 M352,115L353,116 M382,115L383,116 M383,115L384,116 M518,115L519,116 M519,115L520,116 M549,115L550,116 M550,115L551,116 M551,115L552,116 M552,115L553,116 M553,115L554,116 M558,115L559,116 M559,115L560,116 M618,115L619,116 M619,115L620,116 M622,115L623,116 M623,115L624,116 M318,116L319,117 M319,116L320,117 M320,116L321,117 M321,116L322,117 M351,116L352,117 M352,116L353,117 M382,116L383,117 M383,116L384,117 M518,116L519,117 M519,116L520,117 M547,116L548,117 M548,116L549,117 M549,116L550,117 M550,116L551,117 M558,116L559,117 M559,116L560,117 M617,116L618,117 M618,116L619,117 M622,116L623,117 M623,116L624,117 M317,117L318,118 M318,117L319,118 M319,117L320,118 M351,117L352,118 M352,117L353,118 M381,117L382,118 M382,117L383,118 M518,117L519,118 M519,117L520,118 M547,117L548,118 M548,117L549,118 M558,117L559,118 M559,117L560,118 M586,117L587,118 M587,117L588,118 M617,117L618,118 M618,117L619,118 M622,117L623,118 M623,117L624,118 M316,118L317,119 M317,118L318,119 M318,118L319,119 M351,118L352,119 M352,118L353,119 M381,118L382,119 M382,118L383,119 M518,118L519,119 M519,118L520,119 M520,118L521,119 M546,118L547,119 M547,118L548,119 M548,118L549,119 M559,118L560,119 M560,118L561,119 M586,118L587,119 M587,118L588,119 M617,118L618,119 M618,118L619,119 M622,118L623,119 M623,118L624,119 M315,119L316,120 M316,119L317,120 M317,119L318,120 M351,119L352,120 M352,119L353,120 M381,119L382,120 M382,119L383,120 M519,119L520,120 M520,119L521,120 M546,119L547,120 M547,119L548,120 M559,119L560,120 M560,119L561,120 M617,119L618,120 M618,119L619,120 M622,119L623,120 M623,119L624,120 M313,120L314,121 M314,120L315,121 M315,120L316,121 M316,120L317,121 M351,120L352,121 M352,120L353,121 M380,120L381,121 M381,120L382,121 M519,120L520,121 M520,120L521,121 M545,120L546,121 M546,120L547,121 M547,120L548,121 M559,120L560,121 M560,120L561,121 M617,120L618,121 M618,120L619,121 M622,120L623,121 M623,120L624,121 M312,121L313,122 M313,121L314,122 M314,121L315,122 M351,121L352,122 M352,121L353,122 M380,121L381,122 M381,121L382,122 M519,121L520,122 M520,121L521,122 M544,121L545,122 M545,121L546,122 M546,121L547,122 M560,121L561,122 M561,121L562,122 M616,121L617,122 M617,121L618,122 M622,121L623,122 M623,121L624,122 M311,122L312,123 M312,122L313,123 M313,122L314,123 M351,122L352,123 M352,122L353,123 M379,122L380,123 M380,122L381,123 M381,122L382,123 M519,122L520,123 M520,122L521,123 M543,122L544,123 M544,122L545,123 M545,122L546,123 M560,122L561,123 M561,122L562,123 M616,122L617,123 M617,122L618,123 M622,122L623,123 M623,122L624,123 M308,123L309,124 M309,123L310,124 M310,123L311,124 M311,123L312,124 M312,123L313,124 M350,123L351,124 M351,123L352,124 M379,123L380,124 M380,123L381,124 M519,123L520,124 M520,123L521,124 M542,123L543,124 M543,123L544,124 M544,123L545,124 M560,123L561,124 M561,123L562,124 M562,123L563,124 M616,123L617,124 M617,123L618,124 M622,123L623,124 M623,123L624,124 M306,124L307,125 M307,124L308,125 M308,124L309,125 M309,124L310,125 M310,124L311,125 M350,124L351,125 M351,124L352,125 M379,124L380,125 M380,124L381,125 M520,124L521,125 M521,124L522,125 M541,124L542,125 M542,124L543,125 M543,124L544,125 M561,124L562,125 M562,124L563,125 M616,124L617,125 M617,124L618,125 M622,124L623,125 M623,124L624,125 M304,125L305,126 M305,125L306,126 M306,125L307,126 M307,125L308,126 M308,125L309,126 M350,125L351,126 M351,125L352,126 M378,125L379,126 M379,125L380,126 M380,125L381,126 M520,125L521,126 M521,125L522,126 M541,125L542,126 M542,125L543,126 M561,125L562,126 M562,125L563,126 M616,125L617,126 M617,125L618,126 M623,125L624,126 M624,125L625,126 M302,126L303,127 M303,126L304,127 M304,126L305,127 M305,126L306,127 M306,126L307,127 M350,126L351,127 M351,126L352,127 M378,126L379,127 M379,126L380,127 M520,126L521,127 M521,126L522,127 M540,126L541,127 M541,126L542,127 M561,126L562,127 M562,126L563,127 M616,126L617,127 M617,126L618,127 M623,126L624,127 M624,126L625,127 M300,127L301,128 M301,127L302,128 M302,127L303,128 M303,127L304,128 M304,127L305,128 M350,127L351,128 M351,127L352,128 M378,127L379,128 M379,127L380,128 M520,127L521,128 M521,127L522,128 M539,127L540,128 M540,127L541,128 M562,127L563,128 M563,127L564,128 M616,127L617,128 M617,127L618,128 M623,127L624,128 M624,127L625,128 M658,127L659,128 M659,127L660,128 M660,127L661,128 M661,127L662,128 M662,127L663,128 M663,127L664,128 M664,127L665,128 M665,127L666,128 M666,127L667,128 M667,127L668,128 M668,127L669,128 M298,128L299,129 M299,128L300,129 M300,128L301,129 M301,128L302,129 M302,128L303,129 M350,128L351,129 M351,128L352,129 M378,128L379,129 M379,128L380,129 M520,128L521,129 M521,128L522,129 M538,128L539,129 M539,128L540,129 M540,128L541,129 M562,128L563,129 M563,128L564,129 M615,128L616,129 M616,128L617,129 M623,128L624,129 M624,128L625,129 M658,128L659,129 M659,128L660,129 M660,128L661,129 M661,128L662,129 M662,128L663,129 M663,128L664,129 M664,128L665,129 M665,128L666,129 M666,128L667,129 M667,128L668,129 M668,128L669,129 M669,128L670,129 M670,128L671,129 M671,128L672,129 M672,128L673,129 M673,128L674,129 M296,129L297,130 M297,129L298,130 M298,129L299,130 M299,129L300,130 M350,129L351,130 M351,129L352,130 M377,129L378,130 M378,129L379,130 M521,129L522,130 M522,129L523,130 M537,129L538,130 M538,129L539,130 M539,129L540,130 M562,129L563,130 M563,129L564,130 M615,129L616,130 M616,129L617,130 M623,129L624,130 M624,129L625,130 M669,129L670,130 M670,129L671,130 M671,129L672,130 M672,129L673,130 M673,129L674,130 M674,129L675,130 M294,130L295,131 M295,130L296,131 M296,130L297,131 M297,130L298,131 M349,130L350,131 M350,130L351,131 M377,130L378,131 M378,130L379,131 M521,130L522,131 M522,130L523,131 M536,130L537,131 M537,130L538,131 M538,130L539,131 M562,130L563,131 M563,130L564,131 M564,130L565,131 M615,130L616,131 M616,130L617,131 M623,130L624,131 M624,130L625,131 M673,130L674,131 M674,130L675,131 M291,131L292,132 M292,131L293,132 M293,131L294,132 M294,131L295,132 M295,131L296,132 M349,131L350,132 M350,131L351,132 M377,131L378,132 M378,131L379,132 M521,131L522,132 M522,131L523,132 M535,131L536,132 M536,131L537,132 M537,131L538,132 M563,131L564,132 M564,131L565,132 M615,131L616,132 M616,131L617,132 M623,131L624,132 M624,131L625,132 M673,131L674,132 M674,131L675,132 M289,132L290,133 M290,132L291,133 M291,132L292,133 M292,132L293,133 M293,132L294,133 M349,132L350,133 M350,132L351,133 M377,132L378,133 M378,132L379,133 M521,132L522,133 M522,132L523,133 M535,132L536,133 M536,132L537,133 M563,132L564,133 M564,132L565,133 M615,132L616,133 M616,132L617,133 M623,132L624,133 M624,132L625,133 M673,132L674,133 M674,132L675,133 M287,133L288,134 M288,133L289,134 M289,133L290,134 M290,133L291,134 M291,133L292,134 M349,133L350,134 M350,133L351,134 M376,133L377,134 M377,133L378,134 M521,133L522,134 M522,133L523,134 M534,133L535,134 M535,133L536,134 M563,133L564,134 M564,133L565,134 M615,133L616,134 M616,133L617,134 M623,133L624,134 M624,133L625,134 M673,133L674,134 M674,133L675,134 M285,134L286,135 M286,134L287,135 M287,134L288,135 M288,134L289,135 M349,134L350,135 M350,134L351,135 M376,134L377,135 M377,134L378,135 M436,134L437,135 M437,134L438,135 M438,134L439,135 M439,134L440,135 M440,134L441,135 M441,134L442,135 M442,134L443,135 M443,134L444,135 M444,134L445,135 M445,134L446,135 M446,134L447,135 M522,134L523,135 M523,134L524,135 M533,134L534,135 M534,134L535,135 M535,134L536,135 M564,134L565,135 M565,134L566,135 M615,134L616,135 M616,134L617,135 M624,134L625,135 M625,134L626,135 M634,134L635,135 M673,134L674,135 M674,134L675,135 M282,135L283,136 M283,135L284,136 M284,135L285,136 M285,135L286,136 M286,135L287,136 M349,135L350,136 M350,135L351,136 M376,135L377,136 M377,135L378,136 M427,135L428,136 M428,135L429,136 M429,135L430,136 M430,135L431,136 M431,135L432,136 M432,135L433,136 M433,135L434,136 M434,135L435,136 M435,135L436,136 M436,135L437,136 M437,135L438,136 M438,135L439,136 M439,135L440,136 M440,135L441,136 M441,135L442,136 M442,135L443,136 M443,135L444,136 M444,135L445,136 M445,135L446,136 M446,135L447,136 M447,135L448,136 M448,135L449,136 M449,135L450,136 M450,135L451,136 M522,135L523,136 M523,135L524,136 M533,135L534,136 M534,135L535,136 M564,135L565,136 M565,135L566,136 M615,135L616,136 M616,135L617,136 M624,135L625,136 M625,135L626,136 M633,135L634,136 M634,135L635,136 M635,135L636,136 M674,135L675,136 M675,135L676,136 M280,136L281,137 M281,136L282,137 M282,136L283,137 M283,136L284,137 M284,136L285,137 M348,136L349,137 M349,136L350,137 M376,136L377,137 M377,136L378,137 M424,136L425,137 M425,136L426,137 M426,136L427,137 M427,136L428,137 M428,136L429,137 M429,136L430,137 M430,136L431,137 M431,136L432,137 M432,136L433,137 M433,136L434,137 M434,136L435,137 M435,136L436,137 M447,136L448,137 M448,136L449,137 M449,136L450,137 M450,136L451,137 M451,136L452,137 M522,136L523,137 M523,136L524,137 M525,136L526,137 M526,136L527,137 M532,136L533,137 M533,136L534,137 M534,136L535,137 M564,136L565,137 M565,136L566,137 M583,136L584,137 M615,136L616,137 M616,136L617,137 M624,136L625,137 M625,136L626,137 M632,136L633,137 M633,136L634,137 M634,136L635,137 M674,136L675,137 M675,136L676,137 M278,137L279,138 M279,137L280,138 M280,137L281,138 M281,137L282,138 M282,137L283,138 M348,137L349,138 M349,137L350,138 M375,137L376,138 M376,137L377,138 M421,137L422,138 M422,137L423,138 M423,137L424,138 M424,137L425,138 M425,137L426,138 M426,137L427,138 M450,137L451,138 M451,137L452,138 M452,137L453,138 M522,137L523,138 M523,137L524,138 M525,137L526,138 M526,137L527,138 M532,137L533,138 M533,137L534,138 M564,137L565,138 M565,137L566,138 M582,137L583,138 M583,137L584,138 M584,137L585,138 M585,137L586,138 M615,137L616,138 M616,137L617,138 M624,137L625,138 M625,137L626,138 M630,137L631,138 M631,137L632,138 M632,137L633,138 M633,137L634,138 M674,137L675,138 M675,137L676,138 M276,138L277,139 M277,138L278,139 M278,138L279,139 M279,138L280,139 M348,138L349,139 M349,138L350,139 M375,138L376,139 M376,138L377,139 M417,138L418,139 M418,138L419,139 M419,138L420,139 M420,138L421,139 M421,138L422,139 M422,138L423,139 M423,138L424,139 M451,138L452,139 M452,138L453,139 M522,138L523,139 M523,138L524,139 M525,138L526,139 M526,138L527,139 M531,138L532,139 M532,138L533,139 M564,138L565,139 M565,138L566,139 M582,138L583,139 M583,138L584,139 M584,138L585,139 M585,138L586,139 M615,138L616,139 M616,138L617,139 M624,138L625,139 M625,138L626,139 M629,138L630,139 M630,138L631,139 M631,138L632,139 M674,138L675,139 M675,138L676,139 M676,138L677,139 M274,139L275,140 M275,139L276,140 M276,139L277,140 M277,139L278,140 M348,139L349,140 M349,139L350,140 M375,139L376,140 M376,139L377,140 M414,139L415,140 M415,139L416,140 M416,139L417,140 M417,139L418,140 M418,139L419,140 M419,139L420,140 M420,139L421,140 M451,139L452,140 M452,139L453,140 M497,139L498,140 M498,139L499,140 M499,139L500,140 M500,139L501,140 M510,139L511,140 M511,139L512,140 M522,139L523,140 M523,139L524,140 M525,139L526,140 M526,139L527,140 M531,139L532,140 M532,139L533,140 M565,139L566,140 M566,139L567,140 M582,139L583,140 M583,139L584,140 M584,139L585,140 M585,139L586,140 M615,139L616,140 M616,139L617,140 M624,139L625,140 M625,139L626,140 M626,139L627,140 M628,139L629,140 M629,139L630,140 M630,139L631,140 M675,139L676,140 M676,139L677,140 M272,140L273,141 M273,140L274,141 M274,140L275,141 M275,140L276,141 M348,140L349,141 M349,140L350,141 M375,140L376,141 M376,140L377,141 M411,140L412,141 M412,140L413,141 M413,140L414,141 M414,140L415,141 M415,140L416,141 M416,140L417,141 M417,140L418,141 M451,140L452,141 M452,140L453,141 M496,140L497,141 M497,140L498,141 M498,140L499,141 M499,140L500,141 M500,140L501,141 M510,140L511,141 M511,140L512,141 M522,140L523,141 M523,140L524,141 M525,140L526,141 M526,140L527,141 M530,140L531,141 M531,140L532,141 M532,140L533,141 M565,140L566,141 M566,140L567,141 M583,140L584,141 M584,140L585,141 M585,140L586,141 M614,140L615,141 M615,140L616,141 M625,140L626,141 M626,140L627,141 M627,140L628,141 M628,140L629,141 M629,140L630,141 M675,140L676,141 M676,140L677,141 M271,141L272,142 M272,141L273,142 M273,141L274,142 M274,141L275,142 M348,141L349,142 M349,141L350,142 M374,141L375,142 M375,141L376,142 M407,141L408,142 M408,141L409,142 M409,141L410,142 M410,141L411,142 M411,141L412,142 M412,141L413,142 M413,141L414,142 M414,141L415,142 M451,141L452,142 M452,141L453,142 M466,141L467,142 M467,141L468,142 M468,141L469,142 M469,141L470,142 M470,141L471,142 M471,141L472,142 M472,141L473,142 M473,141L474,142 M474,141L475,142 M475,141L476,142 M496,141L497,142 M497,141L498,142 M509,141L510,142 M510,141L511,142 M511,141L512,142 M522,141L523,142 M523,141L524,142 M524,141L525,142 M525,141L526,142 M530,141L531,142 M531,141L532,142 M565,141L566,142 M566,141L567,142 M576,141L577,142 M583,141L584,142 M584,141L585,142 M585,141L586,142 M614,141L615,142 M615,141L616,142 M626,141L627,142 M627,141L628,142 M628,141L629,142 M675,141L676,142 M676,141L677,142 M269,142L270,143 M270,142L271,143 M271,142L272,143 M272,142L273,143 M348,142L349,143 M349,142L350,143 M374,142L375,143 M375,142L376,143 M403,142L404,143 M404,142L405,143 M405,142L406,143 M406,142L407,143 M407,142L408,143 M408,142L409,143 M409,142L410,143 M410,142L411,143 M451,142L452,143 M452,142L453,143 M462,142L463,143 M463,142L464,143 M464,142L465,143 M465,142L466,143 M466,142L467,143 M467,142L468,143 M468,142L469,143 M469,142L470,143 M470,142L471,143 M471,142L472,143 M472,142L473,143 M473,142L474,143 M474,142L475,143 M475,142L476,143 M476,142L477,143 M477,142L478,143 M478,142L479,143 M479,142L480,143 M480,142L481,143 M481,142L482,143 M482,142L483,143 M483,142L484,143 M484,142L485,143 M495,142L496,143 M496,142L497,143 M509,142L510,143 M510,142L511,143 M511,142L512,143 M522,142L523,143 M523,142L524,143 M524,142L525,143 M525,142L526,143 M530,142L531,143 M531,142L532,143 M565,142L566,143 M566,142L567,143 M576,142L577,143 M577,142L578,143 M583,142L584,143 M584,142L585,143 M585,142L586,143 M614,142L615,143 M615,142L616,143 M675,142L676,143 M676,142L677,143 M267,143L268,144 M268,143L269,144 M269,143L270,144 M270,143L271,144 M347,143L348,144 M348,143L349,144 M374,143L375,144 M375,143L376,144 M400,143L401,144 M401,143L402,144 M402,143L403,144 M403,143L404,144 M404,143L405,144 M405,143L406,144 M406,143L407,144 M450,143L451,144 M451,143L452,144 M452,143L453,144 M460,143L461,144 M461,143L462,144 M462,143L463,144 M463,143L464,144 M464,143L465,144 M465,143L466,144 M466,143L467,144 M476,143L477,144 M477,143L478,144 M478,143L479,144 M479,143L480,144 M480,143L481,144 M481,143L482,144 M482,143L483,144 M483,143L484,144 M484,143L485,144 M485,143L486,144 M486,143L487,144 M487,143L488,144 M488,143L489,144 M489,143L490,144 M494,143L495,144 M495,143L496,144 M496,143L497,144 M509,143L510,144 M510,143L511,144 M511,143L512,144 M522,143L523,144 M523,143L524,144 M524,143L525,144 M525,143L526,144 M529,143L530,144 M530,143L531,144 M531,143L532,144 M565,143L566,144 M566,143L567,144 M575,143L576,144 M576,143L577,144 M583,143L584,144 M584,143L585,144 M585,143L586,144 M614,143L615,144 M615,143L616,144 M265,144L266,145 M266,144L267,145 M267,144L268,145 M268,144L269,145 M347,144L348,145 M348,144L349,145 M374,144L375,145 M375,144L376,145 M395,144L396,145 M396,144L397,145 M397,144L398,145 M398,144L399,145 M399,144L400,145 M400,144L401,145 M401,144L402,145 M402,144L403,145 M403,144L404,145 M449,144L450,145 M450,144L451,145 M451,144L452,145 M458,144L459,145 M459,144L460,145 M460,144L461,145 M461,144L462,145 M485,144L486,145 M486,144L487,145 M487,144L488,145 M488,144L489,145 M489,144L490,145 M494,144L495,145 M495,144L496,145 M509,144L510,145 M510,144L511,145 M511,144L512,145 M522,144L523,145 M523,144L524,145 M524,144L525,145 M525,144L526,145 M529,144L530,145 M530,144L531,145 M565,144L566,145 M566,144L567,145 M575,144L576,145 M576,144L577,145 M583,144L584,145 M584,144L585,145 M585,144L586,145 M614,144L615,145 M615,144L616,145 M264,145L265,146 M265,145L266,146 M266,145L267,146 M267,145L268,146 M347,145L348,146 M348,145L349,146 M373,145L374,146 M374,145L375,146 M391,145L392,146 M392,145L393,146 M393,145L394,146 M394,145L395,146 M395,145L396,146 M396,145L397,146 M397,145L398,146 M398,145L399,146 M399,145L400,146 M449,145L450,146 M450,145L451,146 M456,145L457,146 M457,145L458,146 M458,145L459,146 M459,145L460,146 M481,145L482,146 M482,145L483,146 M488,145L489,146 M489,145L490,146 M493,145L494,146 M494,145L495,146 M509,145L510,146 M510,145L511,146 M511,145L512,146 M522,145L523,146 M523,145L524,146 M524,145L525,146 M525,145L526,146 M529,145L530,146 M530,145L531,146 M565,145L566,146 M566,145L567,146 M574,145L575,146 M575,145L576,146 M576,145L577,146 M583,145L584,146 M584,145L585,146 M585,145L586,146 M614,145L615,146 M615,145L616,146 M262,146L263,147 M263,146L264,147 M264,146L265,147 M265,146L266,147 M347,146L348,147 M348,146L349,147 M373,146L374,147 M374,146L375,147 M386,146L387,147 M387,146L388,147 M388,146L389,147 M389,146L390,147 M390,146L391,147 M391,146L392,147 M392,146L393,147 M393,146L394,147 M394,146L395,147 M395,146L396,147 M448,146L449,147 M449,146L450,147 M454,146L455,147 M455,146L456,147 M456,146L457,147 M457,146L458,147 M481,146L482,147 M482,146L483,147 M486,146L487,147 M487,146L488,147 M488,146L489,147 M489,146L490,147 M492,146L493,147 M493,146L494,147 M494,146L495,147 M509,146L510,147 M510,146L511,147 M511,146L512,147 M522,146L523,147 M523,146L524,147 M524,146L525,147 M525,146L526,147 M528,146L529,147 M529,146L530,147 M530,146L531,147 M565,146L566,147 M566,146L567,147 M574,146L575,147 M575,146L576,147 M583,146L584,147 M584,146L585,147 M585,146L586,147 M614,146L615,147 M615,146L616,147 M263,147L264,148 M347,147L348,148 M348,147L349,148 M373,147L374,148 M374,147L375,148 M383,147L384,148 M384,147L385,148 M385,147L386,148 M386,147L387,148 M387,147L388,148 M388,147L389,148 M389,147L390,148 M390,147L391,148 M447,147L448,148 M448,147L449,148 M449,147L450,148 M454,147L455,148 M455,147L456,148 M481,147L482,148 M482,147L483,148 M483,147L484,148 M484,147L485,148 M485,147L486,148 M486,147L487,148 M487,147L488,148 M492,147L493,148 M493,147L494,148 M509,147L510,148 M510,147L511,148 M511,147L512,148 M522,147L523,148 M523,147L524,148 M524,147L525,148 M525,147L526,148 M528,147L529,148 M529,147L530,148 M565,147L566,148 M566,147L567,148 M574,147L575,148 M575,147L576,148 M583,147L584,148 M584,147L585,148 M585,147L586,148 M614,147L615,148 M615,147L616,148 M346,148L347,149 M347,148L348,149 M373,148L374,149 M374,148L375,149 M383,148L384,149 M384,148L385,149 M385,148L386,149 M446,148L447,149 M447,148L448,149 M448,148L449,149 M449,148L450,149 M450,148L451,149 M453,148L454,149 M454,148L455,149 M482,148L483,149 M483,148L484,149 M484,148L485,149 M485,148L486,149 M486,148L487,149 M491,148L492,149 M492,148L493,149 M493,148L494,149 M509,148L510,149 M510,148L511,149 M522,148L523,149 M523,148L524,149 M524,148L525,149 M525,148L526,149 M528,148L529,149 M529,148L530,149 M565,148L566,149 M566,148L567,149 M573,148L574,149 M574,148L575,149 M583,148L584,149 M584,148L585,149 M585,148L586,149 M614,148L615,149 M615,148L616,149 M346,149L347,150 M347,149L348,150 M372,149L373,150 M373,149L374,150 M384,149L385,150 M385,149L386,150 M445,149L446,150 M446,149L447,150 M447,149L448,150 M449,149L450,150 M450,149L451,150 M453,149L454,150 M454,149L455,150 M491,149L492,150 M492,149L493,150 M509,149L510,150 M510,149L511,150 M522,149L523,150 M523,149L524,150 M524,149L525,150 M527,149L528,150 M528,149L529,150 M529,149L530,150 M566,149L567,150 M567,149L568,150 M573,149L574,150 M574,149L575,150 M583,149L584,150 M584,149L585,150 M585,149L586,150 M614,149L615,150 M615,149L616,150 M346,150L347,151 M347,150L348,151 M372,150L373,151 M373,150L374,151 M385,150L386,151 M386,150L387,151 M444,150L445,151 M445,150L446,151 M446,150L447,151 M449,150L450,151 M450,150L451,151 M452,150L453,151 M453,150L454,151 M490,150L491,151 M491,150L492,151 M509,150L510,151 M510,150L511,151 M522,150L523,151 M523,150L524,151 M524,150L525,151 M527,150L528,151 M528,150L529,151 M566,150L567,151 M567,150L568,151 M572,150L573,151 M573,150L574,151 M584,150L585,151 M585,150L586,151 M614,150L615,151 M615,150L616,151 M346,151L347,152 M347,151L348,152 M372,151L373,152 M373,151L374,152 M385,151L386,152 M386,151L387,152 M387,151L388,152 M443,151L444,152 M444,151L445,152 M445,151L446,152 M449,151L450,152 M450,151L451,152 M452,151L453,152 M453,151L454,152 M490,151L491,152 M491,151L492,152 M509,151L510,152 M510,151L511,152 M522,151L523,152 M523,151L524,152 M524,151L525,152 M527,151L528,152 M528,151L529,152 M566,151L567,152 M567,151L568,152 M571,151L572,152 M572,151L573,152 M573,151L574,152 M584,151L585,152 M585,151L586,152 M614,151L615,152 M615,151L616,152 M346,152L347,153 M347,152L348,153 M372,152L373,153 M373,152L374,153 M386,152L387,153 M387,152L388,153 M442,152L443,153 M443,152L444,153 M444,152L445,153 M448,152L449,153 M449,152L450,153 M451,152L452,153 M452,152L453,153 M490,152L491,153 M491,152L492,153 M509,152L510,153 M510,152L511,153 M522,152L523,153 M523,152L524,153 M524,152L525,153 M526,152L527,153 M527,152L528,153 M528,152L529,153 M566,152L567,153 M567,152L568,153 M571,152L572,153 M572,152L573,153 M584,152L585,153 M585,152L586,153 M614,152L615,153 M615,152L616,153 M345,153L346,154 M346,153L347,154 M371,153L372,154 M372,153L373,154 M387,153L388,154 M388,153L389,154 M441,153L442,154 M442,153L443,154 M443,153L444,154 M448,153L449,154 M449,153L450,154 M451,153L452,154 M452,153L453,154 M490,153L491,154 M491,153L492,154 M509,153L510,154 M510,153L511,154 M523,153L524,154 M524,153L525,154 M526,153L527,154 M527,153L528,154 M566,153L567,154 M567,153L568,154 M570,153L571,154 M571,153L572,154 M572,153L573,154 M584,153L585,154 M585,153L586,154 M614,153L615,154 M615,153L616,154 M345,154L346,155 M346,154L347,155 M371,154L372,155 M372,154L373,155 M387,154L388,155 M440,154L441,155 M441,154L442,155 M442,154L443,155 M448,154L449,155 M449,154L450,155 M450,154L451,155 M451,154L452,155 M490,154L491,155 M491,154L492,155 M508,154L509,155 M509,154L510,155 M510,154L511,155 M522,154L523,155 M523,154L524,155 M524,154L525,155 M526,154L527,155 M527,154L528,155 M566,154L567,155 M567,154L568,155 M570,154L571,155 M571,154L572,155 M584,154L585,155 M585,154L586,155 M614,154L615,155 M615,154L616,155 M345,155L346,156 M346,155L347,156 M371,155L372,156 M372,155L373,156 M439,155L440,156 M440,155L441,156 M441,155L442,156 M448,155L449,156 M449,155L450,156 M450,155L451,156 M451,155L452,156 M490,155L491,156 M491,155L492,156 M507,155L508,156 M508,155L509,156 M509,155L510,156 M510,155L511,156 M522,155L523,156 M523,155L524,156 M524,155L525,156 M526,155L527,156 M527,155L528,156 M566,155L567,156 M567,155L568,156 M569,155L570,156 M570,155L571,156 M584,155L585,156 M585,155L586,156 M613,155L614,156 M614,155L615,156 M345,156L346,157 M346,156L347,157 M371,156L372,157 M372,156L373,157 M438,156L439,157 M439,156L440,157 M440,156L441,157 M447,156L448,157 M448,156L449,157 M449,156L450,157 M450,156L451,157 M489,156L490,157 M490,156L491,157 M507,156L508,157 M508,156L509,157 M509,156L510,157 M510,156L511,157 M521,156L522,157 M522,156L523,157 M523,156L524,157 M524,156L525,157 M525,156L526,157 M526,156L527,157 M566,156L567,157 M567,156L568,157 M568,156L569,157 M569,156L570,157 M570,156L571,157 M584,156L585,157 M585,156L586,157 M613,156L614,157 M614,156L615,157 M344,157L345,158 M345,157L346,158 M346,157L347,158 M370,157L371,158 M371,157L372,158 M372,157L373,158 M437,157L438,158 M438,157L439,158 M439,157L440,158 M447,157L448,158 M448,157L449,158 M449,157L450,158 M450,157L451,158 M489,157L490,158 M490,157L491,158 M506,157L507,158 M507,157L508,158 M508,157L509,158 M510,157L511,158 M511,157L512,158 M521,157L522,158 M522,157L523,158 M523,157L524,158 M524,157L525,158 M525,157L526,158 M526,157L527,158 M567,157L568,158 M568,157L569,158 M569,157L570,158 M584,157L585,158 M585,157L586,158 M613,157L614,158 M614,157L615,158 M344,158L345,159 M345,158L346,159 M370,158L371,159 M371,158L372,159 M436,158L437,159 M437,158L438,159 M438,158L439,159 M447,158L448,159 M448,158L449,159 M449,158L450,159 M489,158L490,159 M490,158L491,159 M506,158L507,159 M507,158L508,159 M510,158L511,159 M511,158L512,159 M521,158L522,159 M522,158L523,159 M523,158L524,159 M524,158L525,159 M525,158L526,159 M526,158L527,159 M613,158L614,159 M614,158L615,159 M344,159L345,160 M345,159L346,160 M370,159L371,160 M371,159L372,160 M435,159L436,160 M436,159L437,160 M437,159L438,160 M447,159L448,160 M448,159L449,160 M449,159L450,160 M489,159L490,160 M490,159L491,160 M505,159L506,160 M506,159L507,160 M507,159L508,160 M510,159L511,160 M511,159L512,160 M520,159L521,160 M521,159L522,160 M523,159L524,160 M524,159L525,160 M525,159L526,160 M613,159L614,160 M614,159L615,160 M344,160L345,161 M345,160L346,161 M370,160L371,161 M371,160L372,161 M434,160L435,161 M435,160L436,161 M436,160L437,161 M447,160L448,161 M448,160L449,161 M449,160L450,161 M489,160L490,161 M490,160L491,161 M505,160L506,161 M506,160L507,161 M510,160L511,161 M511,160L512,161 M512,160L513,161 M520,160L521,161 M521,160L522,161 M523,160L524,161 M524,160L525,161 M525,160L526,161 M613,160L614,161 M614,160L615,161 M344,161L345,162 M345,161L346,162 M370,161L371,162 M371,161L372,162 M432,161L433,162 M433,161L434,162 M434,161L435,162 M435,161L436,162 M447,161L448,162 M448,161L449,162 M449,161L450,162 M489,161L490,162 M490,161L491,162 M491,161L492,162 M504,161L505,162 M505,161L506,162 M511,161L512,162 M512,161L513,162 M513,161L514,162 M519,161L520,162 M520,161L521,162 M521,161L522,162 M524,161L525,162 M525,161L526,162 M613,161L614,162 M614,161L615,162 M343,162L344,163 M344,162L345,163 M369,162L370,163 M370,162L371,163 M431,162L432,163 M432,162L433,163 M433,162L434,163 M447,162L448,163 M448,162L449,163 M490,162L491,163 M491,162L492,163 M504,162L505,163 M505,162L506,163 M512,162L513,163 M513,162L514,163 M514,162L515,163 M519,162L520,163 M520,162L521,163 M613,162L614,163 M614,162L615,163 M343,163L344,164 M344,163L345,164 M369,163L370,164 M370,163L371,164 M430,163L431,164 M431,163L432,164 M432,163L433,164 M447,163L448,164 M448,163L449,164 M491,163L492,164 M492,163L493,164 M493,163L494,164 M502,163L503,164 M503,163L504,164 M504,163L505,164 M513,163L514,164 M514,163L515,164 M515,163L516,164 M519,163L520,164 M520,163L521,164 M613,163L614,164 M614,163L615,164 M343,164L344,165 M344,164L345,165 M369,164L370,165 M370,164L371,165 M428,164L429,165 M429,164L430,165 M430,164L431,165 M431,164L432,165 M447,164L448,165 M448,164L449,165 M491,164L492,165 M492,164L493,165 M493,164L494,165 M494,164L495,165 M495,164L496,165 M498,164L499,165 M499,164L500,165 M500,164L501,165 M501,164L502,165 M502,164L503,165 M503,164L504,165 M504,164L505,165 M514,164L515,165 M515,164L516,165 M516,164L517,165 M517,164L518,165 M518,164L519,165 M519,164L520,165 M613,164L614,165 M614,164L615,165 M343,165L344,166 M344,165L345,166 M369,165L370,166 M370,165L371,166 M427,165L428,166 M428,165L429,166 M429,165L430,166 M447,165L448,166 M448,165L449,166 M494,165L495,166 M495,165L496,166 M496,165L497,166 M497,165L498,166 M498,165L499,166 M499,165L500,166 M500,165L501,166 M501,165L502,166 M515,165L516,166 M516,165L517,166 M517,165L518,166 M518,165L519,166 M519,165L520,166 M613,165L614,166 M614,165L615,166 M343,166L344,167 M344,166L345,167 M369,166L370,167 M370,166L371,167 M426,166L427,167 M427,166L428,167 M428,166L429,167 M447,166L448,167 M448,166L449,167 M496,166L497,167 M497,166L498,167 M498,166L499,167 M613,166L614,167 M614,166L615,167 M342,167L343,168 M343,167L344,168 M369,167L370,168 M370,167L371,168 M424,167L425,168 M425,167L426,168 M426,167L427,168 M427,167L428,168 M447,167L448,168 M448,167L449,168 M612,167L613,168 M613,167L614,168 M342,168L343,169 M343,168L344,169 M369,168L370,169 M370,168L371,169 M423,168L424,169 M424,168L425,169 M425,168L426,169 M447,168L448,169 M448,168L449,169 M612,168L613,169 M613,168L614,169 M342,169L343,170 M343,169L344,170 M369,169L370,170 M370,169L371,170 M422,169L423,170 M423,169L424,170 M424,169L425,170 M447,169L448,170 M448,169L449,170 M612,169L613,170 M613,169L614,170 M342,170L343,171 M343,170L344,171 M369,170L370,171 M370,170L371,171 M420,170L421,171 M421,170L422,171 M422,170L423,171 M423,170L424,171 M447,170L448,171 M448,170L449,171 M612,170L613,171 M613,170L614,171 M341,171L342,172 M342,171L343,172 M368,171L369,172 M369,171L370,172 M419,171L420,172 M420,171L421,172 M421,171L422,172 M447,171L448,172 M448,171L449,172 M612,171L613,172 M613,171L614,172 M341,172L342,173 M342,172L343,173 M368,172L369,173 M369,172L370,173 M418,172L419,173 M419,172L420,173 M420,172L421,173 M447,172L448,173 M448,172L449,173 M612,172L613,173 M613,172L614,173 M341,173L342,174 M342,173L343,174 M368,173L369,174 M369,173L370,174 M417,173L418,174 M418,173L419,174 M419,173L420,174 M447,173L448,174 M448,173L449,174 M612,173L613,174 M613,173L614,174 M341,174L342,175 M342,174L343,175 M368,174L369,175 M369,174L370,175 M415,174L416,175 M416,174L417,175 M417,174L418,175 M418,174L419,175 M447,174L448,175 M448,174L449,175 M611,174L612,175 M612,174L613,175 M340,175L341,176 M341,175L342,176 M368,175L369,176 M369,175L370,176 M414,175L415,176 M415,175L416,176 M416,175L417,176 M447,175L448,176 M448,175L449,176 M609,175L610,176 M611,175L612,176 M612,175L613,176 M340,176L341,177 M341,176L342,177 M368,176L369,177 M369,176L370,177 M413,176L414,177 M414,176L415,177 M415,176L416,177 M447,176L448,177 M448,176L449,177 M608,176L609,177 M609,176L610,177 M610,176L611,177 M611,176L612,177 M612,176L613,177 M340,177L341,178 M341,177L342,178 M368,177L369,178 M369,177L370,178 M412,177L413,178 M413,177L414,178 M414,177L415,178 M447,177L448,178 M448,177L449,178 M609,177L610,178 M610,177L611,178 M611,177L612,178 M612,177L613,178 M340,178L341,179 M341,178L342,179 M368,178L369,179 M369,178L370,179 M411,178L412,179 M412,178L413,179 M413,178L414,179 M447,178L448,179 M448,178L449,179 M339,179L340,180 M340,179L341,180 M341,179L342,180 M368,179L369,180 M369,179L370,180 M410,179L411,180 M411,179L412,180 M412,179L413,180 M447,179L448,180 M448,179L449,180 M339,180L340,181 M340,180L341,181 M368,180L369,181 M369,180L370,181 M408,180L409,181 M409,180L410,181 M410,180L411,181 M411,180L412,181 M447,180L448,181 M448,180L449,181 M339,181L340,182 M340,181L341,182 M368,181L369,182 M369,181L370,182 M407,181L408,182 M408,181L409,182 M409,181L410,182 M447,181L448,182 M448,181L449,182 M339,182L340,183 M340,182L341,183 M368,182L369,183 M369,182L370,183 M406,182L407,183 M407,182L408,183 M408,182L409,183 M446,182L447,183 M447,182L448,183 M448,182L449,183 M339,183L340,184 M340,183L341,184 M368,183L369,184 M369,183L370,184 M405,183L406,184 M406,183L407,184 M407,183L408,184 M446,183L447,184 M447,183L448,184 M448,183L449,184 M338,184L339,185 M339,184L340,185 M368,184L369,185 M369,184L370,185 M403,184L404,185 M404,184L405,185 M405,184L406,185 M406,184L407,185 M446,184L447,185 M447,184L448,185 M338,185L339,186 M339,185L340,186 M368,185L369,186 M369,185L370,186 M402,185L403,186 M403,185L404,186 M404,185L405,186 M405,185L406,186 M446,185L447,186 M447,185L448,186 M338,186L339,187 M339,186L340,187 M368,186L369,187 M369,186L370,187 M401,186L402,187 M402,186L403,187 M403,186L404,187 M446,186L447,187 M447,186L448,187 M338,187L339,188 M339,187L340,188 M368,187L369,188 M369,187L370,188 M399,187L400,188 M400,187L401,188 M401,187L402,188 M402,187L403,188 M446,187L447,188 M447,187L448,188 M337,188L338,189 M338,188L339,189 M368,188L369,189 M369,188L370,189 M398,188L399,189 M399,188L400,189 M400,188L401,189 M446,188L447,189 M447,188L448,189 M337,189L338,190 M338,189L339,190 M368,189L369,190 M369,189L370,190 M396,189L397,190 M397,189L398,190 M398,189L399,190 M399,189L400,190 M446,189L447,190 M447,189L448,190 M337,190L338,191 M338,190L339,191 M368,190L369,191 M369,190L370,191 M394,190L395,191 M395,190L396,191 M396,190L397,191 M397,190L398,191 M336,191L337,192 M337,191L338,192 M368,191L369,192 M369,191L370,192 M392,191L393,192 M393,191L394,192 M394,191L395,192 M395,191L396,192 M396,191L397,192 M336,192L337,193 M337,192L338,193 M368,192L369,193 M369,192L370,193 M370,192L371,193 M389,192L390,193 M390,192L391,193 M391,192L392,193 M392,192L393,193 M393,192L394,193 M394,192L395,193 M336,193L337,194 M337,193L338,194 M369,193L370,194 M370,193L371,194 M386,193L387,194 M387,193L388,194 M388,193L389,194 M389,193L390,194 M390,193L391,194 M391,193L392,194 M335,194L336,195 M336,194L337,195 M369,194L370,195 M370,194L371,195 M371,194L372,195 M384,194L385,195 M385,194L386,195 M386,194L387,195 M387,194L388,195 M388,194L389,195 M335,195L336,196 M336,195L337,196 M369,195L370,196 M370,195L371,196 M371,195L372,196 M372,195L373,196 M373,195L374,196 M374,195L375,196 M381,195L382,196 M382,195L383,196 M383,195L384,196 M384,195L385,196 M385,195L386,196 M386,195L387,196 M334,196L335,197 M335,196L336,197 M336,196L337,197 M372,196L373,197 M373,196L374,197 M374,196L375,197 M375,196L376,197 M376,196L377,197 M377,196L378,197 M378,196L379,197 M379,196L380,197 M380,196L381,197 M381,196L382,197 M382,196L383,197 M383,196L384,197 M334,197L335,198 M335,197L336,198 M375,197L376,198 M376,197L377,198 M377,197L378,198 M378,197L379,198 M379,197L380,198 M380,197L381,198 M334,198L335,199 M335,198L336,199 M333,199L334,200 M334,199L335,200 M333,200L334,201 M334,200L335,201 M329,201L330,202 M332,201L333,202 M333,201L334,202 M334,201L335,202 M329,202L330,203 M330,202L331,203 M332,202L333,203 M333,202L334,203 M328,203L329,204 M329,203L330,204 M330,203L331,204 M332,203L333,204 M333,203L334,204 M328,204L329,205 M329,204L330,205 M331,204L332,205 M332,204L333,205 M328,205L329,206 M329,205L330,206 M331,205L332,206 M332,205L333,206 M327,206L328,207 M328,206L329,207 M329,206L330,207 M330,206L331,207 M331,206L332,207 M332,206L333,207 M327,207L328,208 M328,207L329,208 M330,207L331,208 M331,207L332,208 M327,208L328,209 M328,208L329,209 M330,208L331,209 M331,208L332,209 M326,209L327,210 M327,209L328,210 M328,209L329,210 M329,209L330,210 M330,209L331,210 M326,210L327,211 M327,210L328,211 M329,210L330,211 M330,210L331,211 M326,211L327,212 M327,211L328,212 M328,211L329,212 M329,211L330,212 M330,211L331,212 M325,212L326,213 M326,212L327,213 M328,212L329,213 M329,212L330,213 M325,213L326,214 M326,213L327,214 M327,213L328,214 M328,213L329,214 M329,213L330,214 M325,214L326,215 M326,214L327,215 M327,214L328,215 M328,214L329,215 M324,215L325,216 M325,215L326,216 M326,215L327,216 M327,215L328,216 M324,216L325,217 M325,216L326,217 M326,216L327,217 M327,216L328,217 M323,217L324,218 M324,217L325,218 M325,217L326,218 M326,217L327,218 M323,218L324,219 M324,218L325,219 M325,218L326,219 M323,219L324,220 M324,219L325,220 M322,220L323,221 M323,220L324,221 M324,220L325,221 M321,221L322,222 M322,221L323,222 M323,221L324,222 M320,222L321,223 M321,222L322,223 M322,222L323,223 M319,223L320,224 M320,223L321,224 M321,223L322,224 M319,224L320,225 M320,224L321,225 M321,224L322,225 M320,225L321,226" fill="none" stroke="black" />
    </svg>