<svg xmlns="http://www.w3.org/2000/svg" width="800" height="250">
        <path d="M450,55L451,56 M451,55L452,56 M452,55L453,56 M453,55L454,56 M454,55L455,56 M455,55L456,56 M456,55L457,56 M457,55L458,56 M458,55L459,56 M459,55L460,56 M460,55L461,56 M461,55L462,56 M462,55L463,56 M463,55L464,56 M464,55L465,56 M465,55L466,56 M466,55L467,56 M467,55L468,56 M468,55L469,56 M469,55L470,56 M470,55L471,56 M471,55L472,56 M472,55L473,56 M473,55L474,56 M474,55L475,56 M475,55L476,56 M476,55L477,56 M477,55L478,56 M478,55L479,56 M479,55L480,56 M480,55L481,56 M481,55L482,56 M482,55L483,56 M483,55L484,56 M484,55L485,56 M485,55L486,56 M486,55L487,56 M487,55L488,56 M488,55L489,56 M489,55L490,56 M490,55L491,56 M491,55L492,56 M492,55L493,56 M440,56L441,57 M441,56L442,57 M442,56L443,57 M443,56L444,57 M444,56L445,57 M445,56L446,57 M446,56L447,57 M447,56L448,57 M448,56L449,57 M449,56L450,57 M450,56L451,57 M451,56L452,57 M452,56L453,57 M453,56L454,57 M454,56L455,57 M455,56L456,57 M456,56L457,57 M457,56L458,57 M458,56L459,57 M459,56L460,57 M460,56L461,57 M461,56L462,57 M462,56L463,57 M463,56L464,57 M464,56L465,57 M465,56L466,57 M466,56L467,57 M467,56L468,57 M468,56L469,57 M469,56L470,57 M470,56L471,57 M471,56L472,57 M472,56L473,57 M473,56L474,57 M474,56L475,57 M475,56L476,57 M476,56L477,57 M477,56L478,57 M478,56L479,57 M479,56L480,57 M480,56L481,57 M481,56L482,57 M482,56L483,57 M483,56L484,57 M484,56L485,57 M485,56L486,57 M486,56L487,57 M487,56L488,57 M488,56L489,57 M489,56L490,57 M490,56L491,57 M491,56L492,57 M492,56L493,57 M493,56L494,57 M494,56L495,57 M495,56L496,57 M496,56L497,57 M431,57L432,58 M432,57L433,58 M433,57L434,58 M434,57L435,58 M435,57L436,58 M436,57L437,58 M437,57L438,58 M438,57L439,58 M439,57L440,58 M440,57L441,58 M441,57L442,58 M442,57L443,58 M443,57L444,58 M444,57L445,58 M445,57L446,58 M446,57L447,58 M447,57L448,58 M448,57L449,58 M449,57L450,58 M493,57L494,58 M494,57L495,58 M495,57L496,58 M496,57L497,58 M497,57L498,58 M498,57L499,58 M499,57L500,58 M500,57L501,58 M423,58L424,59 M424,58L425,59 M425,58L426,59 M426,58L427,59 M427,58L428,59 M428,58L429,59 M429,58L430,59 M430,58L431,59 M431,58L432,59 M432,58L433,59 M433,58L434,59 M434,58L435,59 M435,58L436,59 M436,58L437,59 M437,58L438,59 M438,58L439,59 M439,58L440,59 M497,58L498,59 M498,58L499,59 M499,58L500,59 M500,58L501,59 M501,58L502,59 M502,58L503,59 M503,58L504,59 M504,58L505,59 M416,59L417,60 M417,59L418,60 M418,59L419,60 M419,59L420,60 M420,59L421,60 M421,59L422,60 M422,59L423,60 M423,59L424,60 M424,59L425,60 M425,59L426,60 M426,59L427,60 M427,59L428,60 M428,59L429,60 M429,59L430,60 M430,59L431,60 M501,59L502,60 M502,59L503,60 M503,59L504,60 M504,59L505,60 M505,59L506,60 M506,59L507,60 M507,59L508,60 M410,60L411,61 M411,60L412,61 M412,60L413,61 M413,60L414,61 M414,60L415,61 M415,60L416,61 M416,60L417,61 M417,60L418,61 M418,60L419,61 M419,60L420,61 M420,60L421,61 M421,60L422,61 M422,60L423,61 M504,60L505,61 M505,60L506,61 M506,60L507,61 M507,60L508,61 M508,60L509,61 M509,60L510,61 M510,60L511,61 M403,61L404,62 M404,61L405,62 M405,61L406,62 M406,61L407,62 M407,61L408,62 M408,61L409,62 M409,61L410,62 M410,61L411,62 M411,61L412,62 M412,61L413,62 M413,61L414,62 M414,61L415,62 M415,61L416,62 M508,61L509,62 M509,61L510,62 M510,61L511,62 M511,61L512,62 M512,61L513,62 M397,62L398,63 M398,62L399,63 M399,62L400,63 M400,62L401,63 M401,62L402,63 M402,62L403,63 M403,62L404,63 M404,62L405,63 M405,62L406,63 M406,62L407,63 M407,62L408,63 M408,62L409,63 M409,62L410,63 M510,62L511,63 M511,62L512,63 M512,62L513,63 M513,62L514,63 M514,62L515,63 M390,63L391,64 M391,63L392,64 M392,63L393,64 M393,63L394,64 M394,63L395,64 M395,63L396,64 M396,63L397,64 M397,63L398,64 M398,63L399,64 M399,63L400,64 M400,63L401,64 M401,63L402,64 M402,63L403,64 M512,63L513,64 M513,63L514,64 M514,63L515,64 M515,63L516,64 M516,63L517,64 M385,64L386,65 M386,64L387,65 M387,64L388,65 M388,64L389,65 M389,64L390,65 M390,64L391,65 M391,64L392,65 M392,64L393,65 M393,64L394,65 M394,64L395,65 M395,64L396,65 M396,64L397,65 M514,64L515,65 M515,64L516,65 M516,64L517,65 M517,64L518,65 M518,64L519,65 M382,65L383,66 M383,65L384,66 M384,65L385,66 M385,65L386,66 M386,65L387,66 M387,65L388,66 M388,65L389,66 M389,65L390,66 M516,65L517,66 M517,65L518,66 M518,65L519,66 M519,65L520,66 M378,66L379,67 M379,66L380,67 M380,66L381,67 M381,66L382,67 M382,66L383,67 M383,66L384,67 M384,66L385,67 M385,66L386,67 M518,66L519,67 M519,66L520,67 M520,66L521,67 M374,67L375,68 M375,67L376,68 M376,67L377,68 M377,67L378,68 M378,67L379,68 M379,67L380,68 M380,67L381,68 M381,67L382,68 M519,67L520,68 M520,67L521,68 M521,67L522,68 M370,68L371,69 M371,68L372,69 M372,68L373,69 M373,68L374,69 M374,68L375,69 M375,68L376,69 M376,68L377,69 M377,68L378,69 M520,68L521,69 M521,68L522,69 M522,68L523,69 M523,68L524,69 M367,69L368,70 M368,69L369,70 M369,69L370,70 M370,69L371,70 M371,69L372,70 M372,69L373,70 M373,69L374,70 M522,69L523,70 M523,69L524,70 M524,69L525,70 M363,70L364,71 M364,70L365,71 M365,70L366,71 M366,70L367,71 M367,70L368,71 M368,70L369,71 M369,70L370,71 M370,70L371,71 M523,70L524,71 M524,70L525,71 M525,70L526,71 M359,71L360,72 M360,71L361,72 M361,71L362,72 M362,71L363,72 M363,71L364,72 M364,71L365,72 M365,71L366,72 M366,71L367,72 M524,71L525,72 M525,71L526,72 M526,71L527,72 M355,72L356,73 M356,72L357,73 M357,72L358,73 M358,72L359,73 M359,72L360,73 M360,72L361,73 M361,72L362,73 M362,72L363,73 M525,72L526,73 M526,72L527,73 M527,72L528,73 M352,73L353,74 M353,73L354,74 M354,73L355,74 M355,73L356,74 M356,73L357,74 M357,73L358,74 M358,73L359,74 M527,73L528,74 M528,73L529,74 M348,74L349,75 M349,74L350,75 M350,74L351,75 M351,74L352,75 M352,74L353,75 M353,74L354,75 M354,74L355,75 M355,74L356,75 M528,74L529,75 M529,74L530,75 M344,75L345,76 M345,75L346,76 M346,75L347,76 M347,75L348,76 M348,75L349,76 M349,75L350,76 M350,75L351,76 M351,75L352,76 M529,75L530,76 M530,75L531,76 M339,76L340,77 M340,76L341,77 M341,76L342,77 M342,76L343,77 M343,76L344,77 M344,76L345,77 M345,76L346,77 M346,76L347,77 M347,76L348,77 M530,76L531,77 M531,76L532,77 M334,77L335,78 M335,77L336,78 M336,77L337,78 M337,77L338,78 M338,77L339,78 M339,77L340,78 M340,77L341,78 M341,77L342,78 M342,77L343,78 M343,77L344,78 M531,77L532,78 M532,77L533,78 M329,78L330,79 M330,78L331,79 M331,78L332,79 M332,78L333,79 M333,78L334,79 M334,78L335,79 M335,78L336,79 M336,78L337,79 M337,78L338,79 M338,78L339,79 M532,78L533,79 M533,78L534,79 M324,79L325,80 M325,79L326,80 M326,79L327,80 M327,79L328,80 M328,79L329,80 M329,79L330,80 M330,79L331,80 M331,79L332,80 M332,79L333,80 M333,79L334,80 M532,79L533,80 M533,79L534,80 M319,80L320,81 M320,80L321,81 M321,80L322,81 M322,80L323,81 M323,80L324,81 M324,80L325,81 M325,80L326,81 M326,80L327,81 M327,80L328,81 M328,80L329,81 M533,80L534,81 M534,80L535,81 M314,81L315,82 M315,81L316,82 M316,81L317,82 M317,81L318,82 M318,81L319,82 M319,81L320,82 M320,81L321,82 M321,81L322,82 M322,81L323,82 M323,81L324,82 M533,81L534,82 M534,81L535,82 M309,82L310,83 M310,82L311,83 M311,82L312,83 M312,82L313,83 M313,82L314,83 M314,82L315,83 M315,82L316,83 M316,82L317,83 M317,82L318,83 M318,82L319,83 M534,82L535,83 M535,82L536,83 M304,83L305,84 M305,83L306,84 M306,83L307,84 M307,83L308,84 M308,83L309,84 M309,83L310,84 M310,83L311,84 M311,83L312,84 M312,83L313,84 M313,83L314,84 M534,83L535,84 M535,83L536,84 M301,84L302,85 M302,84L303,85 M303,84L304,85 M304,84L305,85 M305,84L306,85 M306,84L307,85 M307,84L308,85 M308,84L309,85 M535,84L536,85 M298,85L299,86 M299,85L300,86 M300,85L301,86 M301,85L302,86 M302,85L303,86 M303,85L304,86 M304,85L305,86 M535,85L536,86 M294,86L295,87 M295,86L296,87 M296,86L297,87 M297,86L298,87 M298,86L299,87 M299,86L300,87 M300,86L301,87 M535,86L536,87 M291,87L292,88 M292,87L293,88 M293,87L294,88 M294,87L295,88 M295,87L296,88 M296,87L297,88 M297,87L298,88 M535,87L536,88 M287,88L288,89 M288,88L289,89 M289,88L290,89 M290,88L291,89 M291,88L292,89 M292,88L293,89 M293,88L294,89 M294,88L295,89 M535,88L536,89 M284,89L285,90 M285,89L286,90 M286,89L287,90 M287,89L288,90 M288,89L289,90 M289,89L290,90 M290,89L291,90 M535,89L536,90 M281,90L282,91 M282,90L283,91 M283,90L284,91 M284,90L285,91 M285,90L286,91 M286,90L287,91 M287,90L288,91 M535,90L536,91 M277,91L278,92 M278,91L279,92 M279,91L280,92 M280,91L281,92 M281,91L282,92 M282,91L283,92 M283,91L284,92 M534,91L535,92 M535,91L536,92 M274,92L275,93 M275,92L276,93 M276,92L277,93 M277,92L278,93 M278,92L279,93 M279,92L280,93 M280,92L281,93 M534,92L535,93 M535,92L536,93 M271,93L272,94 M272,93L273,94 M273,93L274,94 M274,93L275,94 M275,93L276,94 M276,93L277,94 M277,93L278,94 M534,93L535,94 M535,93L536,94 M268,94L269,95 M269,94L270,95 M270,94L271,95 M271,94L272,95 M272,94L273,95 M273,94L274,95 M534,94L535,95 M535,94L536,95 M265,95L266,96 M266,95L267,96 M267,95L268,96 M268,95L269,96 M269,95L270,96 M270,95L271,96 M533,95L534,96 M534,95L535,96 M263,96L264,97 M264,96L265,97 M265,96L266,97 M266,96L267,97 M267,96L268,97 M268,96L269,97 M533,96L534,97 M534,96L535,97 M260,97L261,98 M261,97L262,98 M262,97L263,98 M263,97L264,98 M264,97L265,98 M265,97L266,98 M532,97L533,98 M533,97L534,98 M257,98L258,99 M258,98L259,99 M259,98L260,99 M260,98L261,99 M261,98L262,99 M262,98L263,99 M532,98L533,99 M533,98L534,99 M255,99L256,100 M256,99L257,100 M257,99L258,100 M258,99L259,100 M259,99L260,100 M260,99L261,100 M531,99L532,100 M532,99L533,100 M252,100L253,101 M253,100L254,101 M254,100L255,101 M255,100L256,101 M256,100L257,101 M257,100L258,101 M530,100L531,101 M531,100L532,101 M532,100L533,101 M249,101L250,102 M250,101L251,102 M251,101L252,102 M252,101L253,102 M253,101L254,102 M254,101L255,102 M528,101L529,102 M529,101L530,102 M530,101L531,102 M531,101L532,102 M247,102L248,103 M248,102L249,103 M249,102L250,103 M250,102L251,103 M251,102L252,103 M252,102L253,103 M526,102L527,103 M527,102L528,103 M528,102L529,103 M529,102L530,103 M245,103L246,104 M246,103L247,104 M247,103L248,104 M248,103L249,104 M249,103L250,104 M523,103L524,104 M524,103L525,104 M525,103L526,104 M526,103L527,104 M527,103L528,104 M242,104L243,105 M243,104L244,105 M244,104L245,105 M245,104L246,105 M246,104L247,105 M521,104L522,105 M522,104L523,105 M523,104L524,105 M524,104L525,105 M525,104L526,105 M240,105L241,106 M241,105L242,106 M242,105L243,106 M243,105L244,106 M244,105L245,106 M519,105L520,106 M520,105L521,106 M521,105L522,106 M522,105L523,106 M523,105L524,106 M238,106L239,107 M239,106L240,107 M240,106L241,107 M241,106L242,107 M242,106L243,107 M517,106L518,107 M518,106L519,107 M519,106L520,107 M520,106L521,107 M521,106L522,107 M236,107L237,108 M237,107L238,108 M238,107L239,108 M239,107L240,108 M240,107L241,108 M514,107L515,108 M515,107L516,108 M516,107L517,108 M517,107L518,108 M518,107L519,108 M233,108L234,109 M234,108L235,109 M235,108L236,109 M236,108L237,109 M237,108L238,109 M512,108L513,109 M513,108L514,109 M514,108L515,109 M515,108L516,109 M516,108L517,109 M231,109L232,110 M232,109L233,110 M233,109L234,110 M234,109L235,110 M235,109L236,110 M509,109L510,110 M510,109L511,110 M511,109L512,110 M512,109L513,110 M513,109L514,110 M514,109L515,110 M229,110L230,111 M230,110L231,111 M231,110L232,111 M232,110L233,111 M233,110L234,111 M504,110L505,111 M505,110L506,111 M506,110L507,111 M507,110L508,111 M508,110L509,111 M509,110L510,111 M510,110L511,111 M511,110L512,111 M512,110L513,111 M228,111L229,112 M229,111L230,112 M230,111L231,112 M231,111L232,112 M499,111L500,112 M500,111L501,112 M501,111L502,112 M502,111L503,112 M503,111L504,112 M504,111L505,112 M505,111L506,112 M506,111L507,112 M507,111L508,112 M508,111L509,112 M226,112L227,113 M227,112L228,113 M228,112L229,113 M229,112L230,113 M494,112L495,113 M495,112L496,113 M496,112L497,113 M497,112L498,113 M498,112L499,113 M499,112L500,113 M500,112L501,113 M501,112L502,113 M502,112L503,113 M503,112L504,113 M224,113L225,114 M225,113L226,114 M226,113L227,114 M227,113L228,114 M490,113L491,114 M491,113L492,114 M492,113L493,114 M493,113L494,114 M494,113L495,114 M495,113L496,114 M496,113L497,114 M497,113L498,114 M498,113L499,114 M222,114L223,115 M223,114L224,115 M224,114L225,115 M225,114L226,115 M347,114L348,115 M348,114L349,115 M349,114L350,115 M350,114L351,115 M351,114L352,115 M352,114L353,115 M353,114L354,115 M354,114L355,115 M485,114L486,115 M486,114L487,115 M487,114L488,115 M488,114L489,115 M489,114L490,115 M490,114L491,115 M491,114L492,115 M492,114L493,115 M493,114L494,115 M494,114L495,115 M221,115L222,116 M222,115L223,116 M223,115L224,116 M224,115L225,116 M347,115L348,116 M348,115L349,116 M349,115L350,116 M350,115L351,116 M351,115L352,116 M352,115L353,116 M353,115L354,116 M354,115L355,116 M355,115L356,116 M356,115L357,116 M357,115L358,116 M358,115L359,116 M359,115L360,116 M360,115L361,116 M480,115L481,116 M481,115L482,116 M482,115L483,116 M483,115L484,116 M484,115L485,116 M485,115L486,116 M486,115L487,116 M487,115L488,116 M488,115L489,116 M489,115L490,116 M220,116L221,117 M221,116L222,117 M222,116L223,117 M355,116L356,117 M356,116L357,117 M357,116L358,117 M358,116L359,117 M359,116L360,117 M360,116L361,117 M361,116L362,117 M362,116L363,117 M363,116L364,117 M364,116L365,117 M475,116L476,117 M476,116L477,117 M477,116L478,117 M478,116L479,117 M479,116L480,117 M480,116L481,117 M481,116L482,117 M482,116L483,117 M483,116L484,117 M484,116L485,117 M219,117L220,118 M220,117L221,118 M361,117L362,118 M362,117L363,118 M363,117L364,118 M364,117L365,118 M365,117L366,118 M366,117L367,118 M367,117L368,118 M368,117L369,118 M471,117L472,118 M472,117L473,118 M473,117L474,118 M474,117L475,118 M475,117L476,118 M476,117L477,118 M477,117L478,118 M478,117L479,118 M479,117L480,118 M219,118L220,119 M220,118L221,119 M365,118L366,119 M366,118L367,119 M367,118L368,119 M368,118L369,119 M369,118L370,119 M370,118L371,119 M371,118L372,119 M372,118L373,119 M373,118L374,119 M374,118L375,119 M375,118L376,119 M376,118L377,119 M377,118L378,119 M378,118L379,119 M379,118L380,119 M451,118L452,119 M452,118L453,119 M453,118L454,119 M454,118L455,119 M455,118L456,119 M456,118L457,119 M457,118L458,119 M458,118L459,119 M459,118L460,119 M460,118L461,119 M461,118L462,119 M462,118L463,119 M463,118L464,119 M464,118L465,119 M465,118L466,119 M466,118L467,119 M467,118L468,119 M468,118L469,119 M469,118L470,119 M470,118L471,119 M471,118L472,119 M472,118L473,119 M473,118L474,119 M474,118L475,119 M219,119L220,120 M220,119L221,120 M221,119L222,120 M222,119L223,120 M223,119L224,120 M224,119L225,120 M225,119L226,120 M226,119L227,120 M227,119L228,120 M228,119L229,120 M229,119L230,120 M230,119L231,120 M231,119L232,120 M232,119L233,120 M233,119L234,120 M234,119L235,120 M235,119L236,120 M236,119L237,120 M237,119L238,120 M238,119L239,120 M239,119L240,120 M240,119L241,120 M241,119L242,120 M242,119L243,120 M243,119L244,120 M244,119L245,120 M245,119L246,120 M246,119L247,120 M247,119L248,120 M248,119L249,120 M249,119L250,120 M250,119L251,120 M251,119L252,120 M252,119L253,120 M253,119L254,120 M254,119L255,120 M255,119L256,120 M256,119L257,120 M257,119L258,120 M258,119L259,120 M259,119L260,120 M260,119L261,120 M261,119L262,120 M262,119L263,120 M263,119L264,120 M264,119L265,120 M265,119L266,120 M266,119L267,120 M267,119L268,120 M268,119L269,120 M269,119L270,120 M270,119L271,120 M271,119L272,120 M272,119L273,120 M273,119L274,120 M274,119L275,120 M275,119L276,120 M276,119L277,120 M277,119L278,120 M278,119L279,120 M279,119L280,120 M280,119L281,120 M281,119L282,120 M282,119L283,120 M283,119L284,120 M284,119L285,120 M285,119L286,120 M286,119L287,120 M287,119L288,120 M288,119L289,120 M289,119L290,120 M290,119L291,120 M291,119L292,120 M292,119L293,120 M293,119L294,120 M294,119L295,120 M295,119L296,120 M296,119L297,120 M297,119L298,120 M298,119L299,120 M299,119L300,120 M300,119L301,120 M301,119L302,120 M302,119L303,120 M303,119L304,120 M304,119L305,120 M305,119L306,120 M306,119L307,120 M307,119L308,120 M308,119L309,120 M309,119L310,120 M310,119L311,120 M311,119L312,120 M312,119L313,120 M313,119L314,120 M314,119L315,120 M315,119L316,120 M316,119L317,120 M317,119L318,120 M318,119L319,120 M319,119L320,120 M320,119L321,120 M321,119L322,120 M322,119L323,120 M323,119L324,120 M324,119L325,120 M325,119L326,120 M326,119L327,120 M327,119L328,120 M328,119L329,120 M329,119L330,120 M330,119L331,120 M331,119L332,120 M332,119L333,120 M333,119L334,120 M334,119L335,120 M335,119L336,120 M336,119L337,120 M337,119L338,120 M338,119L339,120 M339,119L340,120 M340,119L341,120 M341,119L342,120 M342,119L343,120 M343,119L344,120 M344,119L345,120 M345,119L346,120 M346,119L347,120 M347,119L348,120 M348,119L349,120 M349,119L350,120 M350,119L351,120 M351,119L352,120 M352,119L353,120 M353,119L354,120 M354,119L355,120 M355,119L356,120 M356,119L357,120 M357,119L358,120 M358,119L359,120 M359,119L360,120 M360,119L361,120 M361,119L362,120 M362,119L363,120 M363,119L364,120 M364,119L365,120 M365,119L366,120 M366,119L367,120 M367,119L368,120 M368,119L369,120 M369,119L370,120 M370,119L371,120 M371,119L372,120 M372,119L373,120 M373,119L374,120 M374,119L375,120 M375,119L376,120 M376,119L377,120 M377,119L378,120 M378,119L379,120 M379,119L380,120 M380,119L381,120 M381,119L382,120 M382,119L383,120 M383,119L384,120 M384,119L385,120 M385,119L386,120 M386,119L387,120 M387,119L388,120 M388,119L389,120 M389,119L390,120 M390,119L391,120 M391,119L392,120 M392,119L393,120 M393,119L394,120 M394,119L395,120 M395,119L396,120 M396,119L397,120 M397,119L398,120 M398,119L399,120 M399,119L400,120 M400,119L401,120 M401,119L402,120 M402,119L403,120 M403,119L404,120 M404,119L405,120 M405,119L406,120 M406,119L407,120 M407,119L408,120 M408,119L409,120 M409,119L410,120 M410,119L411,120 M411,119L412,120 M412,119L413,120 M413,119L414,120 M414,119L415,120 M415,119L416,120 M416,119L417,120 M417,119L418,120 M418,119L419,120 M419,119L420,120 M420,119L421,120 M421,119L422,120 M422,119L423,120 M423,119L424,120 M424,119L425,120 M425,119L426,120 M426,119L427,120 M427,119L428,120 M428,119L429,120 M429,119L430,120 M430,119L431,120 M431,119L432,120 M432,119L433,120 M433,119L434,120 M434,119L435,120 M435,119L436,120 M436,119L437,120 M437,119L438,120 M438,119L439,120 M439,119L440,120 M440,119L441,120 M441,119L442,120 M442,119L443,120 M443,119L444,120 M444,119L445,120 M445,119L446,120 M446,119L447,120 M447,119L448,120 M448,119L449,120 M449,119L450,120 M450,119L451,120 M451,119L452,120 M452,119L453,120 M453,119L454,120 M454,119L455,120 M455,119L456,120 M456,119L457,120 M457,119L458,120 M458,119L459,120 M459,119L460,120 M460,119L461,120 M461,119L462,120 M462,119L463,120 M463,119L464,120 M464,119L465,120 M465,119L466,120 M466,119L467,120 M467,119L468,120 M468,119L469,120 M469,119L470,120 M470,119L471,120 M471,119L472,120 M472,119L473,120 M473,119L474,120 M474,119L475,120 M475,119L476,120 M476,119L477,120 M477,119L478,120 M478,119L479,120 M479,119L480,120 M480,119L481,120 M481,119L482,120 M482,119L483,120 M483,119L484,120 M484,119L485,120 M485,119L486,120 M486,119L487,120 M487,119L488,120 M488,119L489,120 M489,119L490,120 M490,119L491,120 M491,119L492,120 M492,119L493,120 M493,119L494,120 M494,119L495,120 M495,119L496,120 M496,119L497,120 M497,119L498,120 M498,119L499,120 M499,119L500,120 M500,119L501,120 M501,119L502,120 M502,119L503,120 M503,119L504,120 M504,119L505,120 M505,119L506,120 M506,119L507,120 M507,119L508,120 M508,119L509,120 M509,119L510,120 M510,119L511,120 M511,119L512,120 M512,119L513,120 M513,119L514,120 M514,119L515,120 M515,119L516,120 M516,119L517,120 M517,119L518,120 M518,119L519,120 M519,119L520,120 M520,119L521,120 M521,119L522,120 M522,119L523,120 M523,119L524,120 M524,119L525,120 M525,119L526,120 M526,119L527,120 M527,119L528,120 M528,119L529,120 M529,119L530,120 M530,119L531,120 M531,119L532,120 M532,119L533,120 M533,119L534,120 M534,119L535,120 M535,119L536,120 M536,119L537,120 M537,119L538,120 M538,119L539,120 M539,119L540,120 M540,119L541,120 M541,119L542,120 M542,119L543,120 M543,119L544,120 M544,119L545,120 M545,119L546,120 M546,119L547,120 M547,119L548,120 M548,119L549,120 M549,119L550,120 M550,119L551,120 M219,120L220,121 M220,120L221,121 M221,120L222,121 M222,120L223,121 M223,120L224,121 M224,120L225,121 M225,120L226,121 M226,120L227,121 M227,120L228,121 M228,120L229,121 M229,120L230,121 M230,120L231,121 M231,120L232,121 M232,120L233,121 M233,120L234,121 M234,120L235,121 M235,120L236,121 M236,120L237,121 M237,120L238,121 M238,120L239,121 M239,120L240,121 M240,120L241,121 M241,120L242,121 M242,120L243,121 M243,120L244,121 M244,120L245,121 M245,120L246,121 M246,120L247,121 M247,120L248,121 M248,120L249,121 M249,120L250,121 M250,120L251,121 M251,120L252,121 M252,120L253,121 M253,120L254,121 M254,120L255,121 M255,120L256,121 M256,120L257,121 M257,120L258,121 M258,120L259,121 M259,120L260,121 M260,120L261,121 M261,120L262,121 M262,120L263,121 M263,120L264,121 M264,120L265,121 M265,120L266,121 M266,120L267,121 M267,120L268,121 M268,120L269,121 M269,120L270,121 M270,120L271,121 M271,120L272,121 M272,120L273,121 M273,120L274,121 M274,120L275,121 M275,120L276,121 M276,120L277,121 M277,120L278,121 M278,120L279,121 M279,120L280,121 M280,120L281,121 M281,120L282,121 M282,120L283,121 M283,120L284,121 M284,120L285,121 M285,120L286,121 M286,120L287,121 M287,120L288,121 M288,120L289,121 M289,120L290,121 M290,120L291,121 M291,120L292,121 M292,120L293,121 M293,120L294,121 M294,120L295,121 M295,120L296,121 M296,120L297,121 M297,120L298,121 M298,120L299,121 M299,120L300,121 M300,120L301,121 M301,120L302,121 M302,120L303,121 M303,120L304,121 M304,120L305,121 M305,120L306,121 M306,120L307,121 M307,120L308,121 M308,120L309,121 M309,120L310,121 M310,120L311,121 M311,120L312,121 M312,120L313,121 M313,120L314,121 M314,120L315,121 M315,120L316,121 M316,120L317,121 M317,120L318,121 M318,120L319,121 M319,120L320,121 M320,120L321,121 M321,120L322,121 M322,120L323,121 M323,120L324,121 M324,120L325,121 M325,120L326,121 M326,120L327,121 M327,120L328,121 M328,120L329,121 M329,120L330,121 M330,120L331,121 M331,120L332,121 M332,120L333,121 M333,120L334,121 M334,120L335,121 M335,120L336,121 M336,120L337,121 M337,120L338,121 M338,120L339,121 M339,120L340,121 M340,120L341,121 M341,120L342,121 M342,120L343,121 M343,120L344,121 M344,120L345,121 M345,120L346,121 M346,120L347,121 M347,120L348,121 M348,120L349,121 M349,120L350,121 M350,120L351,121 M351,120L352,121 M352,120L353,121 M353,120L354,121 M354,120L355,121 M355,120L356,121 M356,120L357,121 M357,120L358,121 M358,120L359,121 M359,120L360,121 M360,120L361,121 M361,120L362,121 M362,120L363,121 M363,120L364,121 M364,120L365,121 M365,120L366,121 M366,120L367,121 M367,120L368,121 M368,120L369,121 M369,120L370,121 M370,120L371,121 M371,120L372,121 M372,120L373,121 M373,120L374,121 M374,120L375,121 M375,120L376,121 M376,120L377,121 M377,120L378,121 M378,120L379,121 M379,120L380,121 M380,120L381,121 M381,120L382,121 M382,120L383,121 M383,120L384,121 M384,120L385,121 M385,120L386,121 M386,120L387,121 M387,120L388,121 M388,120L389,121 M389,120L390,121 M390,120L391,121 M391,120L392,121 M392,120L393,121 M393,120L394,121 M394,120L395,121 M395,120L396,121 M396,120L397,121 M397,120L398,121 M398,120L399,121 M399,120L400,121 M400,120L401,121 M401,120L402,121 M402,120L403,121 M403,120L404,121 M404,120L405,121 M405,120L406,121 M406,120L407,121 M407,120L408,121 M408,120L409,121 M409,120L410,121 M410,120L411,121 M411,120L412,121 M412,120L413,121 M413,120L414,121 M414,120L415,121 M415,120L416,121 M416,120L417,121 M417,120L418,121 M418,120L419,121 M419,120L420,121 M420,120L421,121 M421,120L422,121 M422,120L423,121 M423,120L424,121 M424,120L425,121 M425,120L426,121 M426,120L427,121 M427,120L428,121 M428,120L429,121 M429,120L430,121 M430,120L431,121 M431,120L432,121 M432,120L433,121 M433,120L434,121 M434,120L435,121 M435,120L436,121 M436,120L437,121 M437,120L438,121 M438,120L439,121 M439,120L440,121 M440,120L441,121 M441,120L442,121 M442,120L443,121 M443,120L444,121 M444,120L445,121 M445,120L446,121 M446,120L447,121 M447,120L448,121 M448,120L449,121 M449,120L450,121 M450,120L451,121 M451,120L452,121 M452,120L453,121 M453,120L454,121 M454,120L455,121 M455,120L456,121 M456,120L457,121 M457,120L458,121 M458,120L459,121 M459,120L460,121 M460,120L461,121 M461,120L462,121 M462,120L463,121 M463,120L464,121 M464,120L465,121 M465,120L466,121 M466,120L467,121 M467,120L468,121 M468,120L469,121 M469,120L470,121 M470,120L471,121 M471,120L472,121 M472,120L473,121 M473,120L474,121 M474,120L475,121 M475,120L476,121 M476,120L477,121 M477,120L478,121 M478,120L479,121 M479,120L480,121 M480,120L481,121 M481,120L482,121 M482,120L483,121 M483,120L484,121 M484,120L485,121 M485,120L486,121 M486,120L487,121 M487,120L488,121 M488,120L489,121 M489,120L490,121 M490,120L491,121 M491,120L492,121 M492,120L493,121 M493,120L494,121 M494,120L495,121 M495,120L496,121 M496,120L497,121 M497,120L498,121 M498,120L499,121 M499,120L500,121 M500,120L501,121 M501,120L502,121 M502,120L503,121 M503,120L504,121 M504,120L505,121 M505,120L506,121 M506,120L507,121 M507,120L508,121 M508,120L509,121 M509,120L510,121 M510,120L511,121 M511,120L512,121 M512,120L513,121 M513,120L514,121 M514,120L515,121 M515,120L516,121 M516,120L517,121 M517,120L518,121 M518,120L519,121 M519,120L520,121 M520,120L521,121 M521,120L522,121 M522,120L523,121 M523,120L524,121 M524,120L525,121 M525,120L526,121 M526,120L527,121 M527,120L528,121 M528,120L529,121 M529,120L530,121 M530,120L531,121 M531,120L532,121 M532,120L533,121 M533,120L534,121 M534,120L535,121 M535,120L536,121 M536,120L537,121 M537,120L538,121 M538,120L539,121 M539,120L540,121 M540,120L541,121 M541,120L542,121 M542,120L543,121 M543,120L544,121 M544,120L545,121 M545,120L546,121 M546,120L547,121 M547,120L548,121 M548,120L549,121 M549,120L550,121 M550,120L551,121 M551,120L552,121 M552,120L553,121 M553,120L554,121 M554,120L555,121 M555,120L556,121 M556,120L557,121 M557,120L558,121 M558,120L559,121 M559,120L560,121 M560,120L561,121 M561,120L562,121 M562,120L563,121 M563,120L564,121 M564,120L565,121 M565,120L566,121 M566,120L567,121 M567,120L568,121 M568,120L569,121 M569,120L570,121 M570,120L571,121 M571,120L572,121 M572,120L573,121 M573,120L574,121 M574,120L575,121 M575,120L576,121 M576,120L577,121 M577,120L578,121 M578,120L579,121 M579,120L580,121 M580,120L581,121 M581,120L582,121 M582,120L583,121 M583,120L584,121 M584,120L585,121 M585,120L586,121 M586,120L587,121 M587,120L588,121 M588,120L589,121 M589,120L590,121 M590,120L591,121 M591,120L592,121 M592,120L593,121 M593,120L594,121 M594,120L595,121 M595,120L596,121 M596,120L597,121 M597,120L598,121 M598,120L599,121 M599,120L600,121 M600,120L601,121 M601,120L602,121 M602,120L603,121 M603,120L604,121 M604,120L605,121 M551,121L552,122 M552,121L553,122 M553,121L554,122 M554,121L555,122 M555,121L556,122 M556,121L557,122 M557,121L558,122 M558,121L559,122 M559,121L560,122 M560,121L561,122 M561,121L562,122 M562,121L563,122 M563,121L564,122 M564,121L565,122 M565,121L566,122 M566,121L567,122 M567,121L568,122 M568,121L569,122 M569,121L570,122 M570,121L571,122 M571,121L572,122 M572,121L573,122 M573,121L574,122 M574,121L575,122 M575,121L576,122 M576,121L577,122 M577,121L578,122 M578,121L579,122 M579,121L580,122 M580,121L581,122 M581,121L582,122 M582,121L583,122 M583,121L584,122 M584,121L585,122 M585,121L586,122 M586,121L587,122 M587,121L588,122 M588,121L589,122 M589,121L590,122 M590,121L591,122 M591,121L592,122 M592,121L593,122 M593,121L594,122 M594,121L595,122 M595,121L596,122 M596,121L597,122 M597,121L598,122 M598,121L599,122 M599,121L600,122 M600,121L601,122 M601,121L602,122 M602,121L603,122 M603,121L604,122 M604,121L605,122 M605,121L606,122 M606,121L607,122 M607,121L608,122 M608,121L609,122 M609,121L610,122 M610,121L611,122 M611,121L612,122 M612,121L613,122 M613,121L614,122 M614,121L615,122 M615,121L616,122 M616,121L617,122 M617,121L618,122 M618,121L619,122 M619,121L620,122 M620,121L621,122 M621,121L622,122 M622,121L623,122 M623,121L624,122 M624,121L625,122 M625,121L626,122 M626,121L627,122 M627,121L628,122 M628,121L629,122 M629,121L630,122 M630,121L631,122 M631,121L632,122 M632,121L633,122 M633,121L634,122 M634,121L635,122 M635,121L636,122 M636,121L637,122 M637,121L638,122 M638,121L639,122 M639,121L640,122 M640,121L641,122 M641,121L642,122 M642,121L643,122 M643,121L644,122 M644,121L645,122 M645,121L646,122 M646,121L647,122 M647,121L648,122 M605,122L606,123 M606,122L607,123 M607,122L608,123 M608,122L609,123 M609,122L610,123 M610,122L611,123 M611,122L612,123 M612,122L613,123 M613,122L614,123 M614,122L615,123 M615,122L616,123 M616,122L617,123 M617,122L618,123 M618,122L619,123 M619,122L620,123 M620,122L621,123 M621,122L622,123 M622,122L623,123 M623,122L624,123 M624,122L625,123 M625,122L626,123 M626,122L627,123 M627,122L628,123 M628,122L629,123 M629,122L630,123 M630,122L631,123 M631,122L632,123 M632,122L633,123 M633,122L634,123 M634,122L635,123 M635,122L636,123 M636,122L637,123 M637,122L638,123 M638,122L639,123 M639,122L640,123 M640,122L641,123 M641,122L642,123 M642,122L643,123 M643,122L644,123 M644,122L645,123 M645,122L646,123 M646,122L647,123 M647,122L648,123 M648,122L649,123 M649,122L650,123 M650,122L651,123 M651,122L652,123 M652,122L653,123 M653,122L654,123 M654,122L655,123 M655,122L656,123 M656,122L657,123 M657,122L658,123 M658,122L659,123 M659,122L660,123 M660,122L661,123 M661,122L662,123 M662,122L663,123 M663,122L664,123 M664,122L665,123 M665,122L666,123 M666,122L667,123 M667,122L668,123 M668,122L669,123 M669,122L670,123 M670,122L671,123 M671,122L672,123 M672,122L673,123 M673,122L674,123 M674,122L675,123 M675,122L676,123 M676,122L677,123 M677,122L678,123 M678,122L679,123 M679,122L680,123 M680,122L681,123 M681,122L682,123 M648,123L649,124 M649,123L650,124 M650,123L651,124 M651,123L652,124 M652,123L653,124 M653,123L654,124 M654,123L655,124 M655,123L656,124 M656,123L657,124 M657,123L658,124 M658,123L659,124 M659,123L660,124 M660,123L661,124 M661,123L662,124 M662,123L663,124 M663,123L664,124 M664,123L665,124 M665,123L666,124 M666,123L667,124 M667,123L668,124 M668,123L669,124 M669,123L670,124 M670,123L671,124 M671,123L672,124 M672,123L673,124 M673,123L674,124 M674,123L675,124 M675,123L676,124 M676,123L677,124 M677,123L678,124 M678,123L679,124 M679,123L680,124 M680,123L681,124 M681,123L682,124 M682,123L683,124 M683,123L684,124 M684,123L685,124 M685,123L686,124 M686,123L687,124 M687,123L688,124 M688,123L689,124 M689,123L690,124 M690,123L691,124 M691,123L692,124 M692,123L693,124 M693,123L694,124 M694,123L695,124 M695,123L696,124 M696,123L697,124 M697,123L698,124 M698,123L699,124 M699,123L700,124 M700,123L701,124 M701,123L702,124 M702,123L703,124 M703,123L704,124 M704,123L705,124 M705,123L706,124 M706,123L707,124 M707,123L708,124 M708,123L709,124 M709,123L710,124 M710,123L711,124 M711,123L712,124 M712,123L713,124 M713,123L714,124 M714,123L715,124 M715,123L716,124 M682,124L683,125 M683,124L684,125 M684,124L685,125 M685,124L686,125 M686,124L687,125 M687,124L688,125 M688,124L689,125 M689,124L690,125 M690,124L691,125 M691,124L692,125 M692,124L693,125 M693,124L694,125 M694,124L695,125 M695,124L696,125 M696,124L697,125 M697,124L698,125 M698,124L699,125 M699,124L700,125 M700,124L701,125 M701,124L702,125 M702,124L703,125 M703,124L704,125 M704,124L705,125 M705,124L706,125 M706,124L707,125 M707,124L708,125 M708,124L709,125 M709,124L710,125 M710,124L711,125 M711,124L712,125 M712,124L713,125 M713,124L714,125 M714,124L715,125 M715,124L716,125 M716,124L717,125 M717,124L718,125 M718,124L719,125 M719,124L720,125 M720,124L721,125 M721,124L722,125 M722,124L723,125 M723,124L724,125 M724,124L725,125 M725,124L726,125 M726,124L727,125 M727,124L728,125 M728,124L729,125 M729,124L730,125 M730,124L731,125 M716,125L717,126 M717,125L718,126 M718,125L719,126 M719,125L720,126 M720,125L721,126 M721,125L722,126 M722,125L723,126 M723,125L724,126 M724,125L725,126 M725,125L726,126 M726,125L727,126 M727,125L728,126 M728,125L729,126 M729,125L730,126 M730,125L731,126" fill="none" stroke="black" />
    </svg>